<svg xmlns="http://www.w3.org/2000/svg" height="405.333" width="1920"><defs><clipPath id="a"><path d="M0 304h1440V0H0z"/></clipPath></defs><g clip-path="url(#a)" transform="matrix(1.33333 0 0 -1.33333 0 405.333)"><path d="M1354.075 263.99c4.277-6.292 3.945-15.564 5.261-23.178V76.562c-1.642-4.304-1.316-9.27-3.289-12.912-1.32 0-1.32-1.326-1.32-2.327-1.316-.662-.988-1.988-1.64-3.303-8.24-12.587-23.382-15.902-34.25-24.837l-20.087-11.596c-3.949.336-6.587 3.314-8.554 6.293-8.894 11.586-15.808 22.52-25.694 33.118-1.967 3.304-4.936 7.282-7.904 10.261-9.874 11.923-18.106 25.5-29.627 36.433-.984 4.303-4.27 6.62-6.924 10.597-3.609 6.625-10.2 11.597-13.489 17.88-3.294 5.967-8.89 9.94-13.174 16.564l-.652-83.79c-.662-1.652-2.309-2.652-1.647-4.968-.994-.988-.662-2.652-1.646-4.303-11.2-17.88-36.226-22.184-58.617-22.52-5.588 1.988-8.88-.328-15.14.336l.326 202.992h.325l.662 6.957c.99.663.664 2.98 1.98 3.973 3.62 16.223 18.107 26.157 35.553 28.146 21.737 3.641 43.472-7.62 54.008-23.842 5.597-9.272 13.163-16.223 19.097-25.494 3.947-3.647 5.924-8.282 9.876-11.26 6.254-9.609 13.503-18.217 21.074-27.814 7.571-8.609 13.825-19.869 22.386-28.152l.662 86.758c.654 2.315 1.978 4.305 1.978 6.625 1.97 5.962 4.942 10.265 9.876 13.907 2.304 4.636 8.23 5.631 12.178 8.277 17.13 4.636 40.173.995 48.412-14.57M854.898 276.246c-1.652-22.853 7.9-54.639-15.806-65.568-9.226-4.968-20.08-5.63-31.28-6.293H696.854c0-32.119-1.325-63.243-.337-94.715l160.36-.337c1.315-5.619.657-12.902.987-19.532h-.659c0-8.609-.995-14.564-2.308-22.51-.653-1.325-1.979-2.316-1.652-4.304-.647-1.326-1.305-3.652-2.294-4.967-4.288-12.25-19.434-20.207-33.585-21.857-.994.662-2.636.662-3.625 0V35.5l-156.401.326c-5.6 1.326-11.196 3.315-15.81 5.967-16.793 9.935-24.031 25.5-27.325 43.38h-.99l-.325 133.45c1.973 1.664 0 5.305 1.973 7.288.983 4.31.33 9.278 3.293 12.92 6.912 22.183 34.567 35.096 58.937 38.405h177.151zM599.053 274.588v-47.02c-1.315-2.314-.653-5.3-3.62-6.62l-.99-1.987c-10.205-9.935-26.008-10.273-40.824-11.262H434.428v-19.493l137.3-.332v-35.477c-1.978-.663-.99-2.978-1.316-4.305-1.32 0-.662-1.651-.662-2.65-1.641-7.946-7.24-12.914-14.815-16.88-8.228-2.98-17.126-4.31-26.341-4.968h-94.166V103.66h169.234V63.976c-2.3-.662-.653-3.967-1.316-5.956-1.641-.337.333-2.977-1.315-3.978-3.952-4.631-5.267-10.271-10.864-12.913-5.597-5.304-13.5-4.304-19.755-7.282l-168.587.325c-16.461 1.327-28.973 10.262-35.56 23.51-2.303 1.327-2.303 3.979-3.294 5.968-3.291 5.957-4.937 9.26-5.926 16.228l-.328 146.365h.328l.329 8.282c1.646.326.66 2.314.989 3.309 1.975 1.657.657 4.636 2.635 6.625 2.634 7.946 6.585 11.918 12.84 17.88 8.233 6.294 18.77 10.26 28.319 13.907l193.939-.331zM348.812 274.588c3.626-5.3 1.32-14.57 1.978-20.857h-.328c-.988-3.978.328-9.935-1.318-13.913-.988-2.315-.988-4.63-2.633-6.293v-1.98c-.66-1.661-1.648-3.977-2.966-5.635-4.28-8.276-12.51-16.558-22.718-18.873l-18.77-.663H185.17V187.45h132.034l.66-.61v-42.062c-4.608-11.25-16.464-19.863-29.963-20.526H185.17l-.66-44.71h-.33l-.656-8.283c-.66-2.316-1.645-4.304-1.975-6.62-5.27-14.564-17.124-28.151-34.575-30.792-11.524-1-25.024-4.968-34.904.325 0 .664.33 1.653-.328 1.99l-.33 202.667h.33c.988 15.565 12.84 29.466 27.988 34.434 3.62.336 7.244.663 9.877 1.989zM1026.773 205.71c-26.663-.989-53.662-.326-80.662-.664v-96.04h80.662zm17.123 73.513c19.104-.33 36.222-9.602 46.103-24.504 5.596-6.619 8.89-15.228 12.183-23.174h-.332c1.649-6.629 1.649-15.9 1.649-23.846l-.337-124.517h-.654c-.988-10.272-4.934-17.555-10.206-25.5-9.544-10.26-23.381-17.217-38.204-19.869v-.989l-133.675.327c-15.473 1.326-33.908 9.608-39.841 23.51-3.947 2.325-4.935 8.282-6.587 11.924-2.636 5.63-4.61 12.586-5.586 18.88h-1.326v137.43c1.652.662.325 2.977.325 2.977 3.294 18.544 18.113 30.793 34.899 38.743 8.904 2.984 17.458 8.277 27.99 7.946l.336.995z" fill="#fff"/></g></svg>
