<?xml version="1.0" standalone="no"?>
<!DOCTYPE svg PUBLIC "-//W3C//DTD SVG 1.1//EN" "http://www.w3.org/Graphics/SVG/1.1/DTD/svg11.dtd" >
<svg xmlns="http://www.w3.org/2000/svg" xmlns:xlink="http://www.w3.org/1999/xlink" version="1.1">
<metadata>
Created by FontForge 20170910 at Sun Nov  4 10:53:20 2012
 By Jimmy Wärting
Copyright (c) 2012 by Yellow Design Studio. All rights reserved.
</metadata>
<defs>
<font id="VerbExtralight" horiz-adv-x="590" >
  <font-face 
    font-family="Verb Extralight"
    font-weight="250"
    font-stretch="normal"
    units-per-em="1000"
    panose-1="2 0 2 0 3 0 0 2 0 4"
    ascent="800"
    descent="-200"
    x-height="525"
    cap-height="700"
    bbox="-119 -278 1348 942"
    underline-thickness="50"
    underline-position="-100"
    stemh="40"
    stemv="42"
    unicode-range="U+0020-FB06"
  />
<missing-glyph horiz-adv-x="270" 
 />
    <glyph glyph-name="f_f" unicode="ff" horiz-adv-x="669" 
d="M40 489v36h74v102c0 86 47 102 95 102c42 0 116 -22 140 -30l-18 -33c-24 7 -94 25 -123 25c-32 0 -53 -14 -53 -59v-107h148v-36h-148v-489h-41v489h-74zM377 489v36h74v102c0 86 47 102 95 102c42 0 116 -22 140 -30l-18 -33c-24 7 -94 25 -123 25
c-32 0 -53 -14 -53 -59v-107h148v-36h-148v-489h-41v489h-74z" />
    <glyph glyph-name="f_i" unicode="fi" horiz-adv-x="562" 
d="M40 489v36h74v102c0 86 49 102 91 102c40 0 97 -17 116 -23l-18 -33c-18 5 -71 18 -95 18c-32 0 -53 -14 -53 -59v-107h148v-36h-148v-489h-41v489h-74zM468 0h-42v525h42v-525zM422 648v78h52v-78h-52z" />
    <glyph glyph-name="f_l" unicode="fl" horiz-adv-x="574" 
d="M40 489v36h74v102c0 86 49 102 91 102c40 0 97 -17 116 -23l-18 -33c-18 5 -71 18 -95 18c-32 0 -53 -14 -53 -59v-107h148v-36h-148v-489h-41v489h-74zM474 0h-42v729h42v-729z" />
    <glyph glyph-name="f_f_i" unicode="ffi" horiz-adv-x="899" 
d="M40 489v36h74v102c0 86 47 102 95 102c42 0 116 -22 140 -30l-18 -33c-24 7 -94 25 -123 25c-32 0 -53 -14 -53 -59v-107h148v-36h-148v-489h-41v489h-74zM377 489v36h74v102c0 86 49 102 91 102c40 0 97 -17 116 -23l-18 -33c-18 5 -71 18 -95 18c-32 0 -53 -14 -53 -59
v-107h148v-36h-148v-489h-41v489h-74zM805 0h-42v525h42v-525zM759 648v78h52v-78h-52z" />
    <glyph glyph-name="f_f_l" unicode="ffl" horiz-adv-x="911" 
d="M40 489v36h74v102c0 86 47 102 95 102c42 0 116 -22 140 -30l-18 -33c-24 7 -94 25 -123 25c-32 0 -53 -14 -53 -59v-107h148v-36h-148v-489h-41v489h-74zM377 489v36h74v102c0 86 49 102 91 102c40 0 97 -17 116 -23l-18 -33c-18 5 -71 18 -95 18c-32 0 -53 -14 -53 -59
v-107h148v-36h-148v-489h-41v489h-74zM811 0h-42v729h42v-729z" />
    <glyph glyph-name="f_f_b" unicode="ffb" horiz-adv-x="1259" 
d="M763 0v729h42v-279c39 37 106 86 192 86c104 0 197 -74 197 -274c0 -199 -93 -273 -197 -273c-86 0 -153 47 -192 86v-75h-42zM999 498c-80 0 -151 -47 -194 -96v-280c43 -49 114 -95 194 -95c100 0 151 91 151 235c0 145 -51 236 -151 236zM40 489v36h74v102
c0 86 47 102 95 102c42 0 116 -22 140 -30l-18 -33c-24 7 -94 25 -123 25c-32 0 -53 -14 -53 -59v-107h148v-36h-148v-489h-41v489h-74zM377 489v36h74v102c0 86 49 102 91 102c40 0 97 -17 116 -23l-18 -33c-18 5 -71 18 -95 18c-32 0 -53 -14 -53 -59v-107h148v-36h-148
v-489h-41v489h-74z" />
    <glyph glyph-name="f_f_h" unicode="ffh" horiz-adv-x="1264" 
d="M805 729v-286c35 28 132 93 225 93c115 0 144 -78 144 -159v-377h-42v373c0 69 -22 125 -105 125c-86 0 -185 -67 -222 -99v-399h-42v729h42zM40 489v36h74v102c0 86 47 102 95 102c42 0 116 -22 140 -30l-18 -33c-24 7 -94 25 -123 25c-32 0 -53 -14 -53 -59v-107h148
v-36h-148v-489h-41v489h-74zM377 489v36h74v102c0 86 49 102 91 102c40 0 97 -17 116 -23l-18 -33c-18 5 -71 18 -95 18c-32 0 -53 -14 -53 -59v-107h148v-36h-148v-489h-41v489h-74z" />
    <glyph glyph-name="f_b" unicode="fb" horiz-adv-x="922" 
d="M426 0v729h42v-279c39 37 106 86 192 86c104 0 197 -74 197 -274c0 -199 -93 -273 -197 -273c-86 0 -153 47 -192 86v-75h-42zM662 498c-80 0 -151 -47 -194 -96v-280c43 -49 114 -95 194 -95c100 0 151 91 151 235c0 145 -51 236 -151 236zM40 489v36h74v102
c0 86 49 102 91 102c40 0 97 -17 116 -23l-18 -33c-18 5 -71 18 -95 18c-32 0 -53 -14 -53 -59v-107h148v-36h-148v-489h-41v489h-74z" />
    <glyph glyph-name="f_f_j" unicode="ffj" horiz-adv-x="899" 
d="M40 489v36h74v102c0 86 47 102 95 102c42 0 116 -22 140 -30l-18 -33c-24 7 -94 25 -123 25c-32 0 -53 -14 -53 -59v-107h148v-36h-148v-489h-41v489h-74zM377 489v36h74v102c0 86 49 102 91 102c40 0 97 -17 116 -23l-18 -33c-18 5 -71 18 -95 18c-32 0 -53 -14 -53 -59
v-107h148v-36h-148v-489h-41v489h-74zM805 525v-567c0 -94 0 -121 -145 -162l-15 35c118 38 118 46 118 127v567h42zM758 648v78h52v-78h-52z" />
    <glyph glyph-name="f_f_k" unicode="ffk" horiz-adv-x="1166" 
d="M1108 525l-178 -214l211 -311h-46l-191 279l-99 -120v-159h-42v729h42v-518l255 314h48zM40 489v36h74v102c0 86 47 102 95 102c42 0 116 -22 140 -30l-18 -33c-24 7 -94 25 -123 25c-32 0 -53 -14 -53 -59v-107h148v-36h-148v-489h-41v489h-74zM377 489v36h74v102
c0 86 49 102 91 102c40 0 97 -17 116 -23l-18 -33c-18 5 -71 18 -95 18c-32 0 -53 -14 -53 -59v-107h148v-36h-148v-489h-41v489h-74z" />
    <glyph glyph-name="f_f_t" unicode="fft" horiz-adv-x="1027" 
d="M40 489v36h74v102c0 86 47 102 95 102c42 0 116 -22 140 -30l-18 -33c-24 7 -94 25 -123 25c-32 0 -53 -14 -53 -59v-107h148v-36h-148v-489h-41v489h-74zM377 489v36h74v102c0 86 47 102 95 102c42 0 116 -22 140 -30l-18 -33c-24 7 -94 25 -123 25
c-32 0 -53 -14 -53 -59v-107h148v-36h-148v-489h-41v489h-74zM709 489v36h74v132l41 20v-152h146v-36h-146v-403c0 -45 21 -59 53 -59s90 20 111 29l18 -34c-18 -8 -81 -33 -128 -33c-46 0 -95 16 -95 102v398h-74z" />
    <glyph glyph-name="f_h" unicode="fh" horiz-adv-x="927" 
d="M468 729v-286c35 28 132 93 225 93c115 0 144 -78 144 -159v-377h-42v373c0 69 -22 125 -105 125c-86 0 -185 -67 -222 -99v-399h-42v729h42zM40 489v36h74v102c0 86 49 102 91 102c40 0 97 -17 116 -23l-18 -33c-18 5 -71 18 -95 18c-32 0 -53 -14 -53 -59v-107h148v-36
h-148v-489h-41v489h-74z" />
    <glyph glyph-name="f_j" unicode="fj" horiz-adv-x="562" 
d="M40 489v36h74v102c0 86 49 102 91 102c40 0 97 -17 116 -23l-18 -33c-18 5 -71 18 -95 18c-32 0 -53 -14 -53 -59v-107h148v-36h-148v-489h-41v489h-74zM468 525v-567c0 -94 0 -121 -145 -162l-15 35c118 38 118 46 118 127v567h42zM421 648v78h52v-78h-52z" />
    <glyph glyph-name="f_k" unicode="fk" horiz-adv-x="829" 
d="M771 525l-178 -214l211 -311h-46l-191 279l-99 -120v-159h-42v729h42v-518l255 314h48zM40 489v36h74v102c0 86 49 102 91 102c40 0 97 -17 116 -23l-18 -33c-18 5 -71 18 -95 18c-32 0 -53 -14 -53 -59v-107h148v-36h-148v-489h-41v489h-74z" />
    <glyph glyph-name="f_t" unicode="ft" horiz-adv-x="695" 
d="M40 489v36h74v102c0 86 47 102 95 102c42 0 116 -22 140 -30l-18 -33c-24 7 -94 25 -123 25c-32 0 -53 -14 -53 -59v-107h148v-36h-148v-489h-41v489h-74zM377 489v36h74v132l41 20v-152h146v-36h-146v-403c0 -45 21 -59 53 -59s90 20 111 29l18 -34
c-18 -8 -81 -33 -128 -33c-46 0 -95 16 -95 102v398h-74z" />
    <glyph glyph-name=".notdef" horiz-adv-x="270" 
 />
    <glyph glyph-name="space" unicode=" " horiz-adv-x="289" 
 />
    <glyph glyph-name="exclam" unicode="!" horiz-adv-x="254" 
d="M97 0v91h61v-91h-61zM152 700l-11 -502h-28l-11 502h50z" />
    <glyph glyph-name="quotedbl" unicode="&#x22;" horiz-adv-x="389" 
d="M309 700l-11 -250h-33l-10 250h54zM134 700l-10 -250h-34l-10 250h54z" />
    <glyph glyph-name="numbersign" unicode="#" horiz-adv-x="760" 
d="M437 0l30 193h-224l-30 -193h-40l30 193h-146v38h152l38 237h-147v38h153l31 194h39l-31 -194h224l31 194h39l-31 -194h148v-38h-154l-37 -237h148v-38h-154l-30 -193h-39zM286 468l-37 -237h224l37 237h-224z" />
    <glyph glyph-name="dollar" unicode="$" horiz-adv-x="593" 
d="M317 -100h-38v91c-83 9 -168 45 -222 77l23 36c52 -31 126 -63 199 -73v316c-100 32 -206 70 -206 190c0 116 100 173 206 174v90h38v-92c68 -8 142 -33 191 -59l-22 -35c-51 26 -115 46 -169 53v-287c105 -33 221 -82 221 -210s-117 -181 -221 -182v-89zM495 169
c0 89 -76 131 -178 166v-306h2c89 0 176 45 176 140zM117 539c0 -89 72 -118 162 -146v278c-83 0 -162 -40 -162 -132z" />
    <glyph glyph-name="percent" unicode="%" horiz-adv-x="985" 
d="M398 523c0 -126 -74 -187 -173 -187c-98 0 -172 61 -172 187c0 127 74 188 172 188c99 0 173 -61 173 -188zM354 523c0 97 -48 152 -129 152c-80 0 -128 -55 -128 -152c0 -96 48 -150 128 -150c81 0 129 54 129 150zM700 700l-370 -700h-44l370 700h44zM932 176
c0 -126 -74 -187 -173 -187s-172 61 -172 187c0 127 73 188 172 188s173 -61 173 -188zM888 176c0 97 -48 152 -129 152c-80 0 -128 -55 -128 -152c0 -96 48 -150 128 -150c81 0 129 54 129 150z" />
    <glyph glyph-name="ampersand" unicode="&#x26;" horiz-adv-x="683" 
d="M665 0h-60l-95 99c-51 -64 -121 -110 -217 -110c-114 0 -210 64 -210 180c0 103 76 160 153 213c-49 50 -101 107 -101 186c0 106 93 143 158 143c73 0 146 -46 146 -140c0 -89 -66 -146 -137 -196l202 -209c38 65 59 141 68 203h45c-8 -64 -33 -157 -82 -235zM290 29
c85 0 146 42 190 100l-213 221c-73 -50 -140 -99 -140 -175c0 -56 38 -146 163 -146zM180 568c0 -70 55 -124 92 -162c66 45 123 91 123 166c0 53 -30 99 -103 99c-72 0 -112 -45 -112 -103z" />
    <glyph glyph-name="quotesingle" unicode="'" horiz-adv-x="214" 
d="M134 700l-10 -250h-34l-10 250h54z" />
    <glyph glyph-name="parenleft" unicode="(" horiz-adv-x="298" 
d="M95 10v676c0 86 6 113 146 153l16 -37c-118 -38 -118 -46 -118 -125v-658c0 -79 0 -87 118 -125l-16 -37c-140 40 -146 67 -146 153z" />
    <glyph glyph-name="parenright" unicode=")" horiz-adv-x="298" 
d="M203 686v-676c0 -86 -5 -113 -145 -153l-17 37c118 38 118 46 118 125v658c0 79 0 87 -118 125l17 37c140 -40 145 -67 145 -153z" />
    <glyph glyph-name="asterisk" unicode="*" horiz-adv-x="487" 
d="M221 336l9 155l-135 -86l-23 38l143 71l-142 73l23 38l134 -88l-9 155h45l-8 -154l133 86l22 -39l-144 -71l144 -72l-23 -38l-132 87l8 -155h-45z" />
    <glyph glyph-name="plus" unicode="+" horiz-adv-x="600" 
d="M280 554h39v-202h228v-38h-228v-201h-39v201h-227v38h227v202z" />
    <glyph glyph-name="comma" unicode="," horiz-adv-x="232" 
d="M85 0v91h58l11 -91l-56 -118l-21 20l37 98h-29z" />
    <glyph glyph-name="hyphen" unicode="-" horiz-adv-x="436" 
d="M349 264h-262v42h262v-42z" />
    <glyph glyph-name="period" unicode="." horiz-adv-x="231" 
d="M85 0v91h61v-91h-61z" />
    <glyph glyph-name="slash" unicode="/" horiz-adv-x="431" 
d="M404 790l-336 -880h-41l336 880h41z" />
    <glyph glyph-name="zero" unicode="0" horiz-adv-x="643" 
d="M322 711c162 0 244 -129 244 -361s-82 -361 -244 -361s-245 129 -245 361s83 361 245 361zM322 28c143 0 199 133 199 322s-56 322 -199 322s-200 -133 -200 -322s57 -322 200 -322z" />
    <glyph glyph-name="one" unicode="1" horiz-adv-x="339" 
d="M229 0h-44v649l-127 -67l-21 34l155 84h37v-700z" />
    <glyph glyph-name="two" unicode="2" horiz-adv-x="566" 
d="M494 40v-40h-432v46c0 150 108 208 224 288c86 60 163 119 163 207c0 76 -59 130 -158 130c-83 0 -154 -38 -185 -62l-25 33c48 34 118 69 208 69c118 0 204 -63 204 -171c0 -130 -124 -199 -246 -284c-92 -64 -143 -109 -143 -216h390z" />
    <glyph glyph-name="three" unicode="3" horiz-adv-x="577" 
d="M51 52l23 36c14 -11 103 -59 195 -59c106 0 192 63 192 162c0 126 -134 176 -237 176h-31v42h36c103 0 200 51 200 144c0 74 -62 118 -152 118c-78 0 -139 -34 -172 -58l-22 32c17 13 95 66 197 66c124 0 193 -77 193 -160c0 -58 -36 -130 -144 -165
c100 -22 177 -94 177 -194c0 -102 -79 -203 -233 -203c-97 0 -187 41 -222 63z" />
    <glyph glyph-name="four" unicode="4" horiz-adv-x="602" 
d="M402 0v168h-359v38l348 494h55v-492h108v-40h-108v-168h-44zM93 208h309v444z" />
    <glyph glyph-name="five" unicode="5" horiz-adv-x="564" 
d="M89 359l36 323v18h346v-40h-311l-24 -262c31 19 75 38 136 38c137 0 227 -100 227 -221c0 -114 -81 -226 -237 -226c-90 0 -160 38 -200 62l22 36c15 -10 95 -58 175 -58c101 0 194 74 194 187c0 98 -69 180 -185 180c-72 0 -130 -31 -156 -47z" />
    <glyph glyph-name="six" unicode="6" horiz-adv-x="604" 
d="M413 671c-128 0 -264 -98 -290 -317c24 31 89 91 198 91c148 0 222 -107 222 -223c0 -124 -86 -233 -227 -233c-165 0 -241 148 -242 288c-2 294 174 434 337 434c48 0 86 -11 86 -11l-11 -38s-33 9 -73 9zM323 405c-108 0 -184 -71 -204 -120v-8
c0 -123 57 -248 197 -248c121 0 183 98 183 194c0 85 -49 182 -176 182z" />
    <glyph glyph-name="seven" unicode="7" horiz-adv-x="494" 
d="M465 668c0 0 -261 -326 -261 -668h-48c0 302 229 626 253 660h-372v40h428v-32z" />
    <glyph glyph-name="eight" unicode="8" horiz-adv-x="615" 
d="M67 176c0 113 100 170 180 201c-57 21 -140 66 -140 167c0 104 88 167 200 167s201 -63 201 -167c0 -101 -84 -146 -141 -167c80 -31 181 -88 181 -201c0 -120 -113 -187 -241 -187s-240 67 -240 187zM502 175c0 100 -106 150 -195 181c-89 -31 -194 -81 -194 -181
c0 -93 89 -146 194 -146c106 0 195 53 195 146zM151 542c0 -90 100 -126 156 -144c56 18 157 54 157 144c0 72 -67 129 -157 129c-89 0 -156 -57 -156 -129z" />
    <glyph glyph-name="nine" unicode="9" horiz-adv-x="604" 
d="M191 29c128 0 263 97 289 316c-24 -31 -88 -90 -197 -90c-148 0 -222 107 -222 223c0 124 86 233 228 233c165 0 240 -148 241 -288c2 -294 -174 -434 -337 -434c-48 0 -86 11 -86 11l12 38s32 -9 72 -9zM281 295c108 0 183 70 204 120v8c0 123 -57 248 -196 248
c-122 0 -184 -98 -184 -194c0 -85 49 -182 176 -182z" />
    <glyph glyph-name="colon" unicode=":" horiz-adv-x="235" 
d="M87 358v91h61v-91h-61zM87 0v91h61v-91h-61z" />
    <glyph glyph-name="semicolon" unicode=";" horiz-adv-x="252" 
d="M95 358v91h60v-91h-60zM95 0v91h58l11 -91l-56 -118l-21 20l37 98h-29z" />
    <glyph glyph-name="less" unicode="&#x3c;" horiz-adv-x="600" 
d="M39 353l493 213v-48l-441 -184l441 -184v-48l-493 213v38z" />
    <glyph glyph-name="equal" unicode="=" horiz-adv-x="600" 
d="M53 402v38h494v-38h-494zM53 228v38h494v-38h-494z" />
    <glyph glyph-name="greater" unicode="&#x3e;" horiz-adv-x="600" 
d="M560 315l-493 -213v48l441 184l-441 184v48l493 -213v-38z" />
    <glyph glyph-name="question" unicode="?" horiz-adv-x="497" 
d="M179 0v91h60v-91h-60zM444 549c0 -108 -93 -167 -211 -197l-5 -154h-38l-6 181c125 29 217 72 217 168c0 84 -71 124 -150 124c-71 0 -134 -32 -182 -61l-26 30c44 31 125 71 209 71c93 0 192 -50 192 -162z" />
    <glyph glyph-name="at" unicode="@" horiz-adv-x="978" 
d="M879 254c0 224 -121 394 -376 394c-254 0 -394 -184 -394 -395c0 -219 148 -394 373 -394c124 0 193 46 193 46l24 -30s-73 -54 -215 -54c-251 0 -416 191 -416 432c0 242 167 433 437 433c271 0 413 -180 414 -432c-1 -160 -72 -271 -184 -271c-92 0 -112 67 -116 115
c-35 -32 -94 -74 -171 -74c-62 0 -143 31 -143 145c0 108 74 151 148 151c51 0 126 -19 166 -27v63c0 74 -21 109 -102 109c-54 0 -114 -21 -160 -42l-22 36c58 26 129 44 184 44c86 0 141 -39 141 -139v-226c0 -50 1 -118 75 -118c50 0 144 49 144 234zM453 62
c70 0 121 38 166 81v118c-35 5 -99 21 -151 21c-91 0 -120 -57 -120 -114c0 -76 47 -106 105 -106z" />
    <glyph glyph-name="A" unicode="A" horiz-adv-x="670" 
d="M587 0l-75 193h-355l-74 -193h-47l276 700h46l276 -700h-47zM335 651l-162 -418h324z" />
    <glyph glyph-name="B" unicode="B" horiz-adv-x="664" 
d="M596 186c0 -116 -78 -186 -218 -186h-268v700h218c144 0 229 -62 229 -171c0 -102 -76 -151 -124 -159c58 -9 163 -50 163 -184zM514 526c0 77 -54 134 -179 134h-181v-272h174c103 0 186 43 186 138zM553 191c0 103 -78 157 -219 157h-180v-308h228
c117 0 171 66 171 151z" />
    <glyph glyph-name="C" unicode="C" horiz-adv-x="643" 
d="M591 607l-28 -31c-50 36 -134 95 -223 95c-125 0 -219 -116 -219 -321s94 -321 219 -321c89 0 173 59 223 95l28 -31c-65 -48 -153 -104 -250 -104c-137 0 -266 105 -266 361s129 361 266 361c97 0 185 -56 250 -104z" />
    <glyph glyph-name="D" unicode="D" horiz-adv-x="694" 
d="M619 350c0 -250 -124 -350 -315 -350h-194v700h194c191 0 315 -100 315 -350zM571 350c0 208 -79 310 -267 310h-150v-620h150c188 0 267 102 267 310z" />
    <glyph glyph-name="E" unicode="E" 
d="M527 0h-417v700h411v-40h-367v-290h305v-40h-305v-290h373v-40z" />
    <glyph glyph-name="F" unicode="F" horiz-adv-x="561" 
d="M521 660h-367v-290h295v-40h-295v-330h-44v700h411v-40z" />
    <glyph glyph-name="G" unicode="G" horiz-adv-x="699" 
d="M570 0v91c-58 -50 -135 -102 -229 -102c-139 0 -266 105 -266 361s129 361 266 361c105 0 196 -60 260 -112l-29 -32c-48 36 -137 104 -232 104c-125 0 -219 -116 -219 -321c0 -202 94 -321 219 -321c98 0 188 78 230 115v185h-211v40h256v-369h-45z" />
    <glyph glyph-name="H" unicode="H" horiz-adv-x="704" 
d="M550 0v347h-396v-347h-44v700h44v-313h396v313h44v-700h-44z" />
    <glyph glyph-name="I" unicode="I" horiz-adv-x="264" 
d="M154 0h-44v700h44v-700z" />
    <glyph glyph-name="J" unicode="J" horiz-adv-x="264" 
d="M154 700v-667c0 -94 0 -121 -146 -162l-16 37c118 38 118 46 118 125v667h44z" />
    <glyph glyph-name="K" unicode="K" horiz-adv-x="633" 
d="M110 0v700h44v-432l365 432h53l-287 -339l325 -361h-55l-297 329l-104 -124v-205h-44z" />
    <glyph glyph-name="L" unicode="L" horiz-adv-x="542" 
d="M510 0h-400v700h44v-660h356v-40z" />
    <glyph glyph-name="M" unicode="M" horiz-adv-x="835" 
d="M681 0v621l-245 -504h-37l-245 503v-620h-44v700h48l259 -533l259 533h49v-700h-44z" />
    <glyph glyph-name="N" unicode="N" horiz-adv-x="720" 
d="M563 0l-409 633v-633h-44v700h47l409 -634v634h44v-700h-47z" />
    <glyph glyph-name="O" unicode="O" horiz-adv-x="727" 
d="M363 711c212 0 289 -163 289 -361c0 -196 -77 -361 -289 -361s-288 165 -288 361c0 198 76 361 288 361zM363 29c184 0 243 145 243 321s-59 321 -243 321c-183 0 -242 -145 -242 -321s59 -321 242 -321z" />
    <glyph glyph-name="P" unicode="P" horiz-adv-x="632" 
d="M583 494c0 -161 -117 -206 -248 -206h-181v-288h-44v700h225c131 0 248 -45 248 -206zM537 494c0 123 -86 166 -195 166h-188v-332h188c109 0 195 43 195 166z" />
    <glyph glyph-name="Q" unicode="Q" horiz-adv-x="727" 
d="M363 -11c-212 0 -288 165 -288 361c0 198 76 361 288 361s289 -163 289 -361c0 -180 -65 -333 -239 -357l127 -104l-32 -33zM363 29c184 0 243 145 243 321s-59 321 -243 321c-183 0 -242 -145 -242 -321s59 -321 242 -321z" />
    <glyph glyph-name="R" unicode="R" horiz-adv-x="674" 
d="M555 0l-196 314h-205v-314h-44v700h247c132 0 249 -45 249 -193c0 -132 -93 -182 -202 -192l203 -315h-52zM560 507c0 110 -84 153 -196 153h-210v-306h204c118 0 202 43 202 153z" />
    <glyph glyph-name="S" unicode="S" horiz-adv-x="598" 
d="M301 387c109 -34 239 -80 239 -216c0 -129 -118 -182 -223 -182c-94 0 -196 43 -258 79l23 36c62 -36 155 -75 239 -75c89 0 176 45 176 140c0 98 -92 139 -208 176c-102 32 -214 69 -214 192c0 117 101 174 207 174c77 0 170 -30 228 -61l-22 -35
c-63 33 -146 56 -207 56c-83 0 -162 -40 -162 -132c0 -95 83 -121 182 -152z" />
    <glyph glyph-name="T" unicode="T" horiz-adv-x="562" 
d="M532 660h-229v-660h-44v660h-229v40h502v-40z" />
    <glyph glyph-name="U" unicode="U" horiz-adv-x="695" 
d="M591 700v-462c0 -140 -63 -249 -243 -249c-182 0 -244 109 -244 249v462h44v-459c0 -117 36 -212 200 -212c162 0 199 95 199 212v459h44z" />
    <glyph glyph-name="V" unicode="V" horiz-adv-x="668" 
d="M82 700l252 -651l252 651h47l-276 -700h-46l-276 700h47z" />
    <glyph glyph-name="W" unicode="W" horiz-adv-x="923" 
d="M631 0l-170 638l-169 -638h-54l-193 700h47l173 -655l171 655h51l171 -653l174 653h47l-194 -700h-54z" />
    <glyph glyph-name="X" unicode="X" horiz-adv-x="601" 
d="M46 700h51l203 -318l204 318h51l-234 -353l246 -347h-53l-214 311l-213 -311h-53l246 346z" />
    <glyph glyph-name="Y" unicode="Y" horiz-adv-x="617" 
d="M286 0v278l-258 422h50l230 -387h1l230 387h50l-259 -424v-276h-44z" />
    <glyph glyph-name="Z" unicode="Z" horiz-adv-x="608" 
d="M548 663l-450 -623h455v-40h-505v38l448 622h-425v40h477v-37z" />
    <glyph glyph-name="bracketleft" unicode="[" horiz-adv-x="329" 
d="M286 -144h-185v983h185v-40h-141v-903h141v-40z" />
    <glyph glyph-name="backslash" unicode="\" horiz-adv-x="431" 
d="M363 -90l-336 880h40l336 -880h-40z" />
    <glyph glyph-name="bracketright" unicode="]" horiz-adv-x="329" 
d="M228 -144h-185v40h141v903h-141v40h185v-983z" />
    <glyph glyph-name="asciicircum" unicode="^" horiz-adv-x="600" 
d="M463 361l-164 301l-165 -301h-48l192 339h42l193 -339h-50z" />
    <glyph glyph-name="underscore" unicode="_" horiz-adv-x="705" 
d="M618 -126h-531v36h531v-36z" />
    <glyph glyph-name="grave" unicode="`" horiz-adv-x="200" 
d="M200 604h-37l-163 125h78z" />
    <glyph glyph-name="a" unicode="a" horiz-adv-x="564" 
d="M432 0v75c-41 -37 -111 -86 -203 -86c-74 0 -171 35 -171 165c0 125 88 173 175 173c61 0 154 -23 199 -31v73c0 84 -26 129 -121 129c-62 0 -130 -24 -198 -48l-19 36c80 30 153 50 217 50c96 0 163 -44 163 -158v-378h-42zM232 30c87 0 148 41 200 90v142
c-40 7 -118 26 -180 26c-116 0 -150 -66 -150 -135c0 -89 56 -123 130 -123z" />
    <glyph glyph-name="b" unicode="b" 
d="M94 0v729h42v-279c39 37 106 86 192 86c104 0 197 -74 197 -274c0 -199 -93 -273 -197 -273c-86 0 -153 47 -192 86v-75h-42zM330 498c-80 0 -151 -47 -194 -96v-280c43 -49 114 -95 194 -95c100 0 151 91 151 235c0 145 -51 236 -151 236z" />
    <glyph glyph-name="c" unicode="c" horiz-adv-x="521" 
d="M472 464l-24 -32c-23 14 -96 66 -167 66c-94 0 -172 -89 -172 -235s78 -236 172 -236c71 0 144 52 167 66l24 -32c-36 -23 -107 -72 -188 -72c-114 0 -220 95 -220 274s106 273 220 273c81 0 152 -49 188 -72z" />
    <glyph glyph-name="d" unicode="d" 
d="M496 0h-42v75c-40 -39 -106 -86 -192 -86c-105 0 -197 74 -197 273c0 200 92 274 197 274c86 0 152 -48 192 -86v279h42v-729zM260 27c80 0 150 47 194 96v279c-44 49 -114 96 -194 96c-100 0 -151 -91 -151 -236c0 -144 51 -235 151 -235z" />
    <glyph glyph-name="e" unicode="e" horiz-adv-x="570" 
d="M498 248h-389c5 -133 77 -221 172 -221c80 0 158 50 198 76l28 -32c-53 -31 -132 -82 -225 -82c-117 0 -218 95 -218 274s103 273 232 273c135 0 207 -95 207 -224c0 -36 -5 -64 -5 -64zM294 498c-107 0 -178 -84 -185 -213h350c4 151 -62 213 -165 213z" />
    <glyph glyph-name="f" unicode="f" horiz-adv-x="332" 
d="M40 489v36h74v102c0 86 47 102 95 102c42 0 116 -22 140 -30l-18 -33c-24 7 -94 25 -123 25c-32 0 -53 -14 -53 -59v-107h148v-36h-148v-489h-41v489h-74z" />
    <glyph glyph-name="g" unicode="g" 
d="M454 525h42v-574c0 -130 -86 -165 -182 -165c-63 0 -153 15 -225 35l11 41c80 -23 158 -38 215 -38c87 0 139 36 139 127v124c-40 -39 -106 -86 -192 -86c-105 0 -197 74 -197 273c0 200 92 274 197 274c86 0 152 -48 192 -86v75zM260 27c80 0 150 47 194 96v279
c-44 49 -114 96 -194 96c-100 0 -151 -91 -151 -236c0 -144 51 -235 151 -235z" />
    <glyph glyph-name="h" unicode="h" horiz-adv-x="595" 
d="M136 729v-286c35 28 132 93 225 93c115 0 144 -78 144 -159v-377h-42v373c0 69 -22 125 -105 125c-86 0 -185 -67 -222 -99v-399h-42v729h42z" />
    <glyph glyph-name="i" unicode="i" horiz-adv-x="230" 
d="M136 0h-42v525h42v-525zM90 648v78h52v-78h-52z" />
    <glyph glyph-name="j" unicode="j" horiz-adv-x="230" 
d="M89 648v78h52v-78h-52zM136 525v-567c0 -94 0 -121 -145 -162l-15 35c118 38 118 46 118 127v567h42z" />
    <glyph glyph-name="k" unicode="k" horiz-adv-x="497" 
d="M439 525l-178 -214l211 -311h-46l-191 279l-99 -120v-159h-42v729h42v-518l255 314h48z" />
    <glyph glyph-name="l" unicode="l" horiz-adv-x="242" 
d="M142 0h-42v729h42v-729z" />
    <glyph glyph-name="m" unicode="m" horiz-adv-x="911" 
d="M136 525v-84c39 36 119 95 202 95c95 0 125 -60 134 -103c36 36 120 103 210 103c111 0 139 -78 139 -159v-377h-42v373c0 66 -22 125 -101 125c-78 0 -160 -66 -201 -108v-390h-41v373c0 66 -22 125 -102 125c-76 0 -155 -62 -198 -104v-394h-42v525h42z" />
    <glyph glyph-name="n" unicode="n" horiz-adv-x="595" 
d="M136 525v-82c35 28 132 93 225 93c115 0 144 -78 144 -159v-377h-42v373c0 69 -22 125 -105 125c-86 0 -185 -67 -222 -99v-399h-42v525h42z" />
    <glyph glyph-name="o" unicode="o" 
d="M526 262c0 -168 -81 -273 -231 -273c-151 0 -231 105 -231 273s80 274 231 274c150 0 231 -106 231 -274zM482 262c0 141 -55 236 -187 236s-187 -95 -187 -236s55 -235 187 -235s187 94 187 235z" />
    <glyph glyph-name="p" unicode="p" 
d="M136 525v-75c39 38 106 86 192 86c104 0 197 -74 197 -274c0 -199 -93 -273 -197 -273c-86 0 -153 47 -192 86v-279h-42v729h42zM330 498c-80 0 -151 -47 -194 -96v-280c43 -49 114 -95 194 -95c100 0 151 91 151 235c0 145 -51 236 -151 236z" />
    <glyph glyph-name="q" unicode="q" 
d="M454 -204v279c-40 -39 -106 -86 -192 -86c-105 0 -197 74 -197 273c0 200 92 274 197 274c86 0 152 -48 192 -86v75h42v-729h-42zM260 27c80 0 150 47 194 96v279c-44 49 -114 96 -194 96c-100 0 -151 -91 -151 -236c0 -144 51 -235 151 -235z" />
    <glyph glyph-name="r" unicode="r" horiz-adv-x="365" 
d="M136 525v-114c5 13 59 130 201 120v-41c-180 0 -201 -164 -201 -164v-326h-42v525h42z" />
    <glyph glyph-name="s" unicode="s" horiz-adv-x="498" 
d="M253 290c125 -33 191 -78 191 -162c0 -100 -93 -139 -178 -139c-83 0 -163 35 -211 62l23 34c49 -28 122 -58 185 -58c66 0 139 30 139 100c0 79 -99 105 -163 123c-79 22 -173 50 -173 150c0 91 78 136 171 136c72 0 139 -27 185 -51l-23 -33c-49 25 -109 46 -164 46
c-71 0 -128 -33 -128 -96c0 -78 97 -99 146 -112z" />
    <glyph glyph-name="t" unicode="t" horiz-adv-x="358" 
d="M40 489v36h74v132l41 20v-152h146v-36h-146v-403c0 -45 21 -59 53 -59s90 20 111 29l18 -34c-18 -8 -81 -33 -128 -33c-46 0 -95 16 -95 102v398h-74z" />
    <glyph glyph-name="u" unicode="u" horiz-adv-x="595" 
d="M459 0v81c-35 -27 -132 -92 -226 -92c-114 0 -143 78 -143 159v377h42v-373c0 -69 22 -125 105 -125c84 0 184 67 222 99v399h42v-525h-42z" />
    <glyph glyph-name="v" unicode="v" horiz-adv-x="540" 
d="M290 0h-40l-213 525h47l186 -476l185 476h48z" />
    <glyph glyph-name="w" unicode="w" horiz-adv-x="796" 
d="M542 0l-144 472l-144 -472h-46l-166 525h45l144 -476l143 476h48l143 -476l144 476h45l-167 -525h-45z" />
    <glyph glyph-name="x" unicode="x" horiz-adv-x="558" 
d="M472 0l-194 233l-192 -233h-56l226 264l-215 261h54l184 -230l183 230h55l-216 -260l227 -265h-56z" />
    <glyph glyph-name="y" unicode="y" horiz-adv-x="540" 
d="M37 525h47l186 -474l185 474h48l-298 -729h-48l92 207z" />
    <glyph glyph-name="z" unicode="z" horiz-adv-x="486" 
d="M49 0v39l333 448h-323v38h374v-39l-332 -448h332v-38h-384z" />
    <glyph glyph-name="braceleft" unicode="{" horiz-adv-x="394" 
d="M38 319v58c62 0 113 25 98 129l-13 93c-20 145 38 240 212 240h18v-40h-18c-150 0 -179 -86 -167 -187l14 -99c12 -90 -14 -146 -84 -165c70 -19 96 -76 84 -165l-14 -99c-12 -101 17 -187 167 -187h18v-40h-18c-174 0 -232 95 -212 240l13 93c14 104 -36 129 -98 129z
" />
    <glyph glyph-name="bar" unicode="|" horiz-adv-x="243" 
d="M141 -123h-39v941h39v-941z" />
    <glyph glyph-name="braceright" unicode="}" horiz-adv-x="394" 
d="M356 377v-58c-61 0 -112 -25 -97 -129l13 -93c20 -145 -38 -240 -212 -240h-19v40h19c150 0 179 86 165 187l-13 99c-12 89 14 146 83 165c-69 19 -95 75 -83 165l13 99c14 101 -15 187 -165 187h-19v40h19c174 0 231 -95 211 -240l-13 -93c-14 -104 37 -129 98 -129z
" />
    <glyph glyph-name="asciitilde" unicode="~" horiz-adv-x="600" 
d="M78 221l-38 15c37 73 87 95 139 95c99 0 160 -74 247 -74c31 0 65 10 96 68l37 -15c-36 -73 -87 -95 -139 -95c-99 0 -160 74 -246 74c-32 0 -64 -10 -96 -68z" />
    <glyph glyph-name="uni00A0" unicode="&#xa0;" horiz-adv-x="289" 
 />
    <glyph glyph-name="exclamdown" unicode="&#xa1;" horiz-adv-x="254" 
d="M97 609v91h61v-91h-61zM141 502l11 -502h-50l10 502h29z" />
    <glyph glyph-name="cent" unicode="&#xa2;" horiz-adv-x="557" 
d="M319 0h-38v77c-110 6 -209 101 -209 274s99 267 209 273v76h38v-78c73 -10 137 -56 171 -78l-26 -31c-21 14 -81 58 -145 70v-465c64 11 124 56 145 70l26 -31c-34 -23 -98 -69 -171 -78v-79zM117 351c0 -142 73 -231 164 -236v471c-91 -5 -164 -93 -164 -235z" />
    <glyph glyph-name="sterling" unicode="&#xa3;" horiz-adv-x="542" 
d="M81 265v40h108c-16 93 -96 137 -96 239c0 98 75 167 187 167c78 0 148 -34 200 -61l-25 -35c-65 33 -122 56 -177 56c-93 0 -142 -62 -142 -130c0 -90 82 -139 97 -236h167v-40h-164c-5 -104 -84 -199 -108 -225h340v-40h-398v35s117 105 122 230h-111z" />
    <glyph glyph-name="yen" unicode="&#xa5;" horiz-adv-x="643" 
d="M97 305v38h161l2 -1l-219 358h50l230 -387h1l230 387h50l-219 -357h162v-38h-185l-17 -29v-55h202v-38h-202v-183h-44v183h-202v38h202v57l-17 27h-185z" />
    <glyph glyph-name="brokenbar" unicode="&#xa6;" horiz-adv-x="245" 
d="M142 405h-39v413h39v-413zM142 -123h-39v413h39v-413z" />
    <glyph glyph-name="section" unicode="&#xa7;" horiz-adv-x="535" 
d="M259 174c-125 33 -191 78 -191 162c0 67 49 103 109 117c-49 23 -88 57 -88 122c0 91 79 136 172 136c72 0 138 -27 184 -51l-23 -33c-48 25 -109 46 -163 46c-72 0 -130 -33 -130 -96c0 -78 99 -99 148 -112c125 -33 191 -78 191 -162c0 -68 -50 -103 -111 -118
c49 -22 89 -57 89 -121c0 -91 -78 -136 -171 -136c-72 0 -139 27 -185 51l23 33c49 -25 109 -46 164 -46c71 0 128 33 128 96c0 78 -97 99 -146 112zM262 425l-25 7c-63 -3 -127 -31 -127 -95c0 -79 99 -105 163 -123l24 -7c64 3 129 31 129 95c0 79 -100 105 -164 123z" />
    <glyph glyph-name="dieresis" unicode="&#xa8;" horiz-adv-x="220" 
d="M0 614v78h61v-78h-61zM160 614v78h60v-78h-60z" />
    <glyph glyph-name="copyright" unicode="&#xa9;" horiz-adv-x="858" 
d="M590 505l-31 -36c-27 21 -71 54 -134 54c-74 0 -124 -69 -124 -174c0 -104 50 -172 124 -172c63 0 107 32 134 52l31 -35c-37 -26 -91 -62 -167 -62c-94 0 -174 74 -174 217c0 144 80 218 174 218c76 0 130 -36 167 -62zM73 350c0 202 128 361 357 361s356 -159 356 -361
s-127 -361 -356 -361s-357 159 -357 361zM113 350c0 -182 112 -323 316 -323c205 0 318 141 318 323s-113 323 -318 323c-204 0 -316 -141 -316 -323z" />
    <glyph glyph-name="ordfeminine" unicode="&#xaa;" horiz-adv-x="427" 
d="M302 385v44c-25 -23 -70 -51 -126 -51c-50 0 -109 25 -109 100c0 73 54 104 113 104c37 0 94 -13 122 -18v39c0 47 -17 72 -73 72c-38 0 -80 -14 -124 -28l-15 30c53 18 101 30 142 30c66 0 109 -28 109 -100v-222h-39zM184 412c49 0 86 22 118 50v76
c-24 5 -71 15 -106 15c-67 0 -88 -35 -88 -74c0 -48 32 -67 76 -67z" />
    <glyph glyph-name="guillemotleft" unicode="&#xab;" horiz-adv-x="688" 
d="M44 301l306 228v-49l-260 -195l260 -195v-49l-306 228v32zM314 301l306 228v-49l-260 -195l260 -195v-49l-306 228v32z" />
    <glyph glyph-name="logicalnot" unicode="&#xac;" horiz-adv-x="600" 
d="M584 90h-44v224h-524v38h568v-262z" />
    <glyph glyph-name="registered" unicode="&#xae;" horiz-adv-x="536" 
d="M70 500c0 112 71 200 198 200c126 0 197 -88 197 -200s-71 -200 -197 -200c-127 0 -198 88 -198 200zM106 500c0 -94 52 -167 162 -167c109 0 161 73 161 167s-52 167 -161 167c-110 0 -162 -73 -162 -167zM355 545c0 -27 -21 -49 -50 -56l47 -87h-37l-44 85h-44v-85h-33
v201h93c42 0 68 -24 68 -58zM321 545c0 15 -7 28 -33 28h-61v-55h59c25 0 35 12 35 27z" />
    <glyph glyph-name="macron" unicode="&#xaf;" horiz-adv-x="282" 
d="M0 629v36h282v-36h-282z" />
    <glyph glyph-name="degree" unicode="&#xb0;" horiz-adv-x="448" 
d="M64 540c0 88 72 160 160 160s160 -72 160 -160s-72 -160 -160 -160s-160 72 -160 160zM99 540c0 -69 56 -125 125 -125s125 56 125 125s-56 125 -125 125s-125 -56 -125 -125z" />
    <glyph glyph-name="plusminus" unicode="&#xb1;" horiz-adv-x="600" 
d="M277 522h40v-177h230v-38h-230v-178h-40v178h-224v38h224v177zM53 0v38h494v-38h-494z" />
    <glyph glyph-name="twosuperior" unicode="&#xb2;" horiz-adv-x="382" 
d="M330 420v-35h-284v31c0 89 69 126 141 173c54 35 101 68 101 117c0 41 -34 71 -93 71c-50 0 -96 -23 -116 -38l-21 28c30 20 78 45 139 45c79 0 132 -41 132 -106c0 -79 -78 -120 -152 -168c-54 -35 -87 -61 -87 -118h240z" />
    <glyph glyph-name="threesuperior" unicode="&#xb3;" horiz-adv-x="387" 
d="M39 419l21 30c15 -10 69 -36 124 -36c62 0 112 34 112 89c0 70 -82 96 -144 96h-21v36h24c60 0 121 26 121 79c0 40 -35 64 -88 64c-49 0 -88 -21 -110 -35l-18 27c11 9 64 43 132 43c82 0 125 -47 125 -98c0 -36 -24 -77 -87 -97c61 -14 107 -57 107 -115
c0 -62 -48 -124 -149 -124c-66 0 -126 28 -149 41z" />
    <glyph glyph-name="acute" unicode="&#xb4;" horiz-adv-x="200" 
d="M37 604h-37l121 125h79z" />
    <glyph glyph-name="mu" unicode="&#xb5;" horiz-adv-x="594" 
d="M101 -204v729h42v-373c0 -69 22 -125 105 -125c84 0 184 67 222 99v399h42v-525h-42v81c-35 -27 -132 -92 -226 -92c-47 0 -79 13 -101 34v-227h-42z" />
    <glyph glyph-name="paragraph" unicode="&#xb6;" horiz-adv-x="598" 
d="M278 700h41v-885h-43v485c-144 0 -231 72 -231 200s73 200 233 200zM447 -186v886h43v-886h-43z" />
    <glyph glyph-name="periodcentered" unicode="&#xb7;" horiz-adv-x="235" 
d="M87 239v91h61v-91h-61z" />
    <glyph glyph-name="cedilla" unicode="&#xb8;" horiz-adv-x="166" 
d="M0 -147l15 35c21 -10 32 -15 53 -15c36 0 61 16 61 52c0 40 -32 77 -32 77h28s41 -41 41 -89c0 -47 -37 -77 -93 -77c-26 0 -49 6 -73 17z" />
    <glyph glyph-name="onesuperior" unicode="&#xb9;" horiz-adv-x="241" 
d="M168 385h-41v378l-79 -40l-19 29l102 53h37v-420z" />
    <glyph glyph-name="ordmasculine" unicode="&#xba;" horiz-adv-x="437" 
d="M369 542c0 -101 -53 -164 -151 -164s-150 63 -150 164c0 102 52 165 150 165s151 -63 151 -165zM329 542c0 80 -33 132 -111 132s-110 -52 -110 -132c0 -79 32 -131 110 -131s111 52 111 131z" />
    <glyph glyph-name="guillemotright" unicode="&#xbb;" horiz-adv-x="688" 
d="M374 269l-306 -228v49l259 195l-259 195v49l306 -228v-32zM644 301v-32l-306 -228v49l259 195l-259 195v49z" />
    <glyph glyph-name="onequarter" unicode="&#xbc;" horiz-adv-x="770" 
d="M614 0v97h-227v31l215 292h54v-289h68v-34h-68v-97h-42zM529 700l-336 -700h-43l336 700h43zM430 131h184v252zM176 280h-41v378l-79 -40l-19 29l102 53h37v-420z" />
    <glyph glyph-name="onehalf" unicode="&#xbd;" horiz-adv-x="803" 
d="M176 280h-41v378l-79 -40l-19 29l102 53h37v-420zM529 700l-336 -700h-43l336 700h43zM740 35v-35h-284v31c0 89 69 126 141 173c54 35 101 68 101 117c0 41 -34 71 -93 71c-50 0 -96 -23 -116 -38l-21 28c30 20 78 45 139 45c79 0 132 -41 132 -106
c0 -79 -78 -120 -152 -168c-54 -35 -87 -61 -87 -118h240z" />
    <glyph glyph-name="threequarters" unicode="&#xbe;" horiz-adv-x="894" 
d="M511 97v31l216 292h53v-289h68v-34h-68v-97h-41v97h-228zM54 314l21 30c15 -10 69 -36 124 -36c62 0 112 34 112 89c0 70 -82 96 -144 96h-21v36h24c60 0 121 26 121 79c0 40 -35 64 -88 64c-49 0 -88 -21 -110 -35l-18 27c11 9 64 43 132 43c82 0 125 -48 125 -98
c0 -36 -24 -77 -87 -97c61 -14 107 -57 107 -115c0 -62 -48 -124 -149 -124c-66 0 -126 28 -149 41zM654 700l-336 -700h-43l336 700h43zM555 131h184v252z" />
    <glyph glyph-name="questiondown" unicode="&#xbf;" horiz-adv-x="494" 
d="M53 151c0 108 93 167 211 197l5 154h39l6 -181c-125 -29 -217 -72 -217 -168c0 -84 70 -124 150 -124c70 0 133 32 182 61l25 -30c-43 -31 -124 -71 -209 -71c-92 0 -192 50 -192 162zM319 700v-91h-61v91h61z" />
    <glyph glyph-name="Agrave" unicode="&#xc0;" horiz-adv-x="670" 
d="M587 0l-75 193h-355l-74 -193h-47l276 700h46l276 -700h-47zM335 651l-162 -418h324zM398 755h-37l-163 125h78z" />
    <glyph glyph-name="Aacute" unicode="&#xc1;" horiz-adv-x="670" 
d="M587 0l-75 193h-355l-74 -193h-47l276 700h46l276 -700h-47zM335 651l-162 -418h324zM310 755h-38l121 125h79z" />
    <glyph glyph-name="Acircumflex" unicode="&#xc2;" horiz-adv-x="670" 
d="M587 0l-75 193h-355l-74 -193h-47l276 700h46l276 -700h-47zM335 651l-162 -418h324zM368 880l96 -125h-38l-91 93l-90 -93h-38l94 125h67z" />
    <glyph glyph-name="Atilde" unicode="&#xc3;" horiz-adv-x="670" 
d="M587 0l-75 193h-355l-74 -193h-47l276 700h46l276 -700h-47zM335 651l-162 -418h324zM227 768l-32 12c23 44 43 71 81 71c48 0 86 -49 118 -49c16 0 27 6 49 46l32 -12c-22 -44 -43 -71 -81 -71c-48 0 -86 49 -118 49c-16 0 -27 -6 -49 -46z" />
    <glyph glyph-name="Adieresis" unicode="&#xc4;" horiz-adv-x="670" 
d="M587 0l-75 193h-355l-74 -193h-47l276 700h46l276 -700h-47zM335 651l-162 -418h324zM225 765v78h61v-78h-61zM385 765v78h60v-78h-60z" />
    <glyph glyph-name="Aring" unicode="&#xc5;" horiz-adv-x="670" 
d="M587 0l-75 193h-355l-74 -193h-47l276 700h46l276 -700h-47zM335 651l-162 -418h324zM238 843c0 55 43 99 98 99s99 -44 99 -99s-44 -98 -99 -98s-98 43 -98 98zM271 843c0 -37 28 -65 65 -65s66 28 66 65s-29 66 -66 66s-65 -29 -65 -66z" />
    <glyph glyph-name="AE" unicode="&#xc6;" horiz-adv-x="971" 
d="M908 0h-418v193h-304l-132 -193h-51l486 700h412v-40h-367v-290h306v-40h-306v-290h374v-40zM213 233h277v404z" />
    <glyph glyph-name="Ccedilla" unicode="&#xc7;" horiz-adv-x="643" 
d="M226 -147l14 35c22 -10 33 -15 53 -15c36 0 61 16 61 52c0 26 -13 50 -22 64c-134 4 -257 110 -257 361c0 256 129 361 266 361c97 0 185 -56 250 -104l-28 -31c-50 36 -134 95 -223 95c-125 0 -219 -116 -219 -321s94 -321 219 -321c89 0 173 59 223 95l28 -31
c-61 -45 -141 -96 -230 -103c12 -15 31 -44 31 -77c0 -47 -37 -77 -93 -77c-26 0 -50 6 -73 17z" />
    <glyph glyph-name="Egrave" unicode="&#xc8;" 
d="M527 0h-417v700h411v-40h-367v-290h305v-40h-305v-290h373v-40zM382 755h-38l-162 125h78z" />
    <glyph glyph-name="Eacute" unicode="&#xc9;" 
d="M527 0h-417v700h411v-40h-367v-290h305v-40h-305v-290h373v-40zM293 755h-37l121 125h79z" />
    <glyph glyph-name="Ecircumflex" unicode="&#xca;" 
d="M527 0h-417v700h411v-40h-367v-290h305v-40h-305v-290h373v-40zM351 880l96 -125h-38l-91 93l-90 -93h-38l95 125h66z" />
    <glyph glyph-name="Edieresis" unicode="&#xcb;" 
d="M527 0h-417v700h411v-40h-367v-290h305v-40h-305v-290h373v-40zM208 765v78h61v-78h-61zM368 765v78h60v-78h-60z" />
    <glyph glyph-name="Igrave" unicode="&#xcc;" horiz-adv-x="264" 
d="M154 0h-44v700h44v-700zM195 755h-37l-163 125h78z" />
    <glyph glyph-name="Iacute" unicode="&#xcd;" horiz-adv-x="264" 
d="M154 0h-44v700h44v-700zM107 755h-37l121 125h79z" />
    <glyph glyph-name="Icircumflex" unicode="&#xce;" horiz-adv-x="264" 
d="M154 0h-44v700h44v-700zM165 880l96 -125h-38l-91 93l-90 -93h-38l95 125h66z" />
    <glyph glyph-name="Idieresis" unicode="&#xcf;" horiz-adv-x="264" 
d="M154 0h-44v700h44v-700zM22 765v78h61v-78h-61zM182 765v78h60v-78h-60z" />
    <glyph glyph-name="Eth" unicode="&#xd0;" horiz-adv-x="696" 
d="M621 350c0 -250 -124 -350 -315 -350h-193v329h-76v42h76v329h193c191 0 315 -100 315 -350zM574 350c0 208 -79 310 -267 310h-150v-289h182v-42h-182v-289h150c188 0 267 102 267 310z" />
    <glyph glyph-name="Ntilde" unicode="&#xd1;" horiz-adv-x="720" 
d="M157 700l409 -634v634h44v-700h-47l-409 633v-633h-44v700h47zM258 768l-32 12c23 44 43 71 81 71c48 0 86 -49 118 -49c16 0 27 6 49 46l32 -12c-22 -44 -43 -71 -81 -71c-48 0 -86 49 -118 49c-16 0 -27 -6 -49 -46z" />
    <glyph glyph-name="Ograve" unicode="&#xd2;" horiz-adv-x="727" 
d="M363 711c212 0 289 -163 289 -361c0 -196 -77 -361 -289 -361s-288 165 -288 361c0 198 76 361 288 361zM363 29c184 0 243 145 243 321s-59 321 -243 321c-183 0 -242 -145 -242 -321s59 -321 242 -321zM426 755h-37l-163 125h78z" />
    <glyph glyph-name="Oacute" unicode="&#xd3;" horiz-adv-x="727" 
d="M363 711c212 0 289 -163 289 -361c0 -196 -77 -361 -289 -361s-288 165 -288 361c0 198 76 361 288 361zM363 29c184 0 243 145 243 321s-59 321 -243 321c-183 0 -242 -145 -242 -321s59 -321 242 -321zM338 755h-38l121 125h79z" />
    <glyph glyph-name="Ocircumflex" unicode="&#xd4;" horiz-adv-x="727" 
d="M363 711c212 0 289 -163 289 -361c0 -196 -77 -361 -289 -361s-288 165 -288 361c0 198 76 361 288 361zM363 29c184 0 243 145 243 321s-59 321 -243 321c-183 0 -242 -145 -242 -321s59 -321 242 -321zM396 880l96 -125h-38l-91 93l-90 -93h-38l95 125h66z" />
    <glyph glyph-name="Otilde" unicode="&#xd5;" horiz-adv-x="727" 
d="M363 711c212 0 289 -163 289 -361c0 -196 -77 -361 -289 -361s-288 165 -288 361c0 198 76 361 288 361zM363 29c184 0 243 145 243 321s-59 321 -243 321c-183 0 -242 -145 -242 -321s59 -321 242 -321zM255 768l-32 12c23 44 43 71 81 71c48 0 86 -49 118 -49
c16 0 27 6 49 46l32 -12c-22 -44 -43 -71 -81 -71c-48 0 -86 49 -118 49c-16 0 -27 -6 -49 -46z" />
    <glyph glyph-name="Odieresis" unicode="&#xd6;" horiz-adv-x="727" 
d="M363 711c212 0 289 -163 289 -361c0 -196 -77 -361 -289 -361s-288 165 -288 361c0 198 76 361 288 361zM363 29c184 0 243 145 243 321s-59 321 -243 321c-183 0 -242 -145 -242 -321s59 -321 242 -321zM253 765v78h61v-78h-61zM413 765v78h60v-78h-60z" />
    <glyph glyph-name="multiply" unicode="&#xd7;" horiz-adv-x="600" 
d="M488 476l-159 -142l160 -143l-27 -26l-162 143l-159 -142l-28 27l158 141l-160 144l27 27l162 -145l160 143z" />
    <glyph glyph-name="Oslash" unicode="&#xd8;" horiz-adv-x="724" 
d="M640 700l-62 -85c51 -66 73 -161 73 -265c0 -196 -77 -361 -289 -361c-83 0 -145 25 -190 67l-41 -56h-46l61 85c-51 66 -72 161 -72 265c0 198 76 361 288 361c83 0 145 -25 190 -68l41 57h47zM362 29c184 0 243 145 243 321c0 89 -15 169 -54 228l-354 -486
c38 -40 91 -63 165 -63zM120 350c0 -89 15 -170 53 -228l354 486c-38 39 -92 63 -165 63c-183 0 -242 -145 -242 -321z" />
    <glyph glyph-name="Ugrave" unicode="&#xd9;" horiz-adv-x="695" 
d="M591 700v-462c0 -140 -63 -249 -243 -249c-182 0 -244 109 -244 249v462h44v-459c0 -117 36 -212 200 -212c162 0 199 95 199 212v459h44zM411 755h-37l-163 125h78z" />
    <glyph glyph-name="Uacute" unicode="&#xda;" horiz-adv-x="695" 
d="M591 700v-462c0 -140 -63 -249 -243 -249c-182 0 -244 109 -244 249v462h44v-459c0 -117 36 -212 200 -212c162 0 199 95 199 212v459h44zM322 755h-37l121 125h79z" />
    <glyph glyph-name="Ucircumflex" unicode="&#xdb;" horiz-adv-x="694" 
d="M591 700v-462c0 -140 -63 -249 -243 -249c-182 0 -244 109 -244 249v462h44v-459c0 -117 36 -212 200 -212c162 0 199 95 199 212v459h44zM381 880l96 -125h-38l-91 93l-91 -93h-37l94 125h67z" />
    <glyph glyph-name="Udieresis" unicode="&#xdc;" horiz-adv-x="695" 
d="M591 700v-462c0 -140 -63 -249 -243 -249c-182 0 -244 109 -244 249v462h44v-459c0 -117 36 -212 200 -212c162 0 199 95 199 212v459h44zM237 765v78h60v-78h-60zM397 765v78h60v-78h-60z" />
    <glyph glyph-name="Yacute" unicode="&#xdd;" horiz-adv-x="617" 
d="M286 0v278l-258 422h50l230 -387h1l230 387h50l-259 -424v-276h-44zM283 755h-37l121 125h79z" />
    <glyph glyph-name="Thorn" unicode="&#xde;" horiz-adv-x="644" 
d="M583 363c0 -162 -117 -208 -248 -208h-181v-155h-44v700h44v-133h181c131 0 248 -43 248 -204zM537 363c0 123 -86 164 -194 164h-189v-332h189c108 0 194 45 194 168z" />
    <glyph glyph-name="germandbls" unicode="&#xdf;" horiz-adv-x="600" 
d="M308 711c106 0 214 -33 214 -221v-5l-47 -20c-19 11 -70 33 -119 33c-59 0 -107 -35 -107 -95c0 -78 80 -98 130 -113c108 -33 166 -78 166 -162c0 -100 -81 -139 -157 -139c-74 0 -146 35 -189 62l22 34c44 -28 107 -58 165 -58s117 32 117 99c0 79 -82 105 -142 124
c-69 22 -152 50 -152 150c0 91 69 136 149 136c46 0 88 -13 123 -29c-4 137 -83 166 -173 166c-93 0 -172 -30 -172 -178v-495h-42v490c0 188 109 221 214 221z" />
    <glyph glyph-name="agrave" unicode="&#xe0;" horiz-adv-x="564" 
d="M432 0v75c-41 -37 -111 -86 -203 -86c-74 0 -171 35 -171 165c0 125 88 173 175 173c61 0 154 -23 199 -31v73c0 84 -26 129 -121 129c-62 0 -130 -24 -198 -48l-19 36c80 30 153 50 217 50c96 0 163 -44 163 -158v-378h-42zM232 30c87 0 148 41 200 90v142
c-40 7 -118 26 -180 26c-116 0 -150 -66 -150 -135c0 -89 56 -123 130 -123zM348 604h-38l-162 125h78z" />
    <glyph glyph-name="aacute" unicode="&#xe1;" horiz-adv-x="564" 
d="M432 0v75c-41 -37 -111 -86 -203 -86c-74 0 -171 35 -171 165c0 125 88 173 175 173c61 0 154 -23 199 -31v73c0 84 -26 129 -121 129c-62 0 -130 -24 -198 -48l-19 36c80 30 153 50 217 50c96 0 163 -44 163 -158v-378h-42zM232 30c87 0 148 41 200 90v142
c-40 7 -118 26 -180 26c-116 0 -150 -66 -150 -135c0 -89 56 -123 130 -123zM259 604h-37l121 125h79z" />
    <glyph glyph-name="acircumflex" unicode="&#xe2;" horiz-adv-x="563" 
d="M432 0v75c-41 -37 -111 -86 -203 -86c-74 0 -171 35 -171 165c0 125 88 173 175 173c61 0 154 -23 199 -31v73c0 84 -26 129 -121 129c-62 0 -130 -24 -198 -48l-19 36c80 30 153 50 217 50c96 0 163 -44 163 -158v-378h-42zM232 30c87 0 148 41 200 90v142
c-40 7 -118 26 -180 26c-116 0 -150 -66 -150 -135c0 -89 56 -123 130 -123zM318 729l95 -125h-38l-91 93l-90 -93h-38l95 125h67z" />
    <glyph glyph-name="atilde" unicode="&#xe3;" horiz-adv-x="564" 
d="M432 0v75c-41 -37 -111 -86 -203 -86c-74 0 -171 35 -171 165c0 125 88 173 175 173c61 0 154 -23 199 -31v73c0 84 -26 129 -121 129c-62 0 -130 -24 -198 -48l-19 36c80 30 153 50 217 50c96 0 163 -44 163 -158v-378h-42zM232 30c87 0 148 41 200 90v142
c-40 7 -118 26 -180 26c-116 0 -150 -66 -150 -135c0 -89 56 -123 130 -123zM176 617l-32 12c23 44 43 71 81 71c48 0 86 -49 118 -49c16 0 27 6 49 46l32 -12c-22 -44 -43 -71 -81 -71c-48 0 -86 49 -118 49c-16 0 -27 -6 -49 -46z" />
    <glyph glyph-name="adieresis" unicode="&#xe4;" horiz-adv-x="564" 
d="M432 0v75c-41 -37 -111 -86 -203 -86c-74 0 -171 35 -171 165c0 125 88 173 175 173c61 0 154 -23 199 -31v73c0 84 -26 129 -121 129c-62 0 -130 -24 -198 -48l-19 36c80 30 153 50 217 50c96 0 163 -44 163 -158v-378h-42zM232 30c87 0 148 41 200 90v142
c-40 7 -118 26 -180 26c-116 0 -150 -66 -150 -135c0 -89 56 -123 130 -123zM174 614v78h61v-78h-61zM334 614v78h60v-78h-60z" />
    <glyph glyph-name="aring" unicode="&#xe5;" horiz-adv-x="564" 
d="M432 0v75c-41 -37 -111 -86 -203 -86c-74 0 -171 35 -171 165c0 125 88 173 175 173c61 0 154 -23 199 -31v73c0 84 -26 129 -121 129c-62 0 -130 -24 -198 -48l-19 36c80 30 153 50 217 50c96 0 163 -44 163 -158v-378h-42zM232 30c87 0 148 41 200 90v142
c-40 7 -118 26 -180 26c-116 0 -150 -66 -150 -135c0 -89 56 -123 130 -123zM186 692c0 55 43 99 98 99s99 -44 99 -99s-44 -98 -99 -98s-98 43 -98 98zM219 692c0 -37 28 -65 65 -65s66 28 66 65s-29 66 -66 66s-65 -29 -65 -66z" />
    <glyph glyph-name="ae" unicode="&#xe6;" horiz-adv-x="917" 
d="M845 248h-389c5 -133 77 -221 172 -221c80 0 158 50 199 76l27 -32c-52 -31 -131 -82 -225 -82c-72 0 -138 35 -178 104c-55 -56 -133 -104 -222 -104c-74 0 -171 35 -171 165c0 125 88 173 175 173c60 0 136 -23 179 -35c2 36 9 67 19 95c-4 72 -32 111 -120 111
c-62 0 -130 -24 -198 -48l-19 36c80 30 153 50 217 50c73 0 130 -26 152 -89c43 59 107 89 180 89c136 0 208 -95 208 -224c0 -36 -6 -64 -6 -64zM435 127c-15 35 -23 78 -24 127c-43 11 -107 34 -159 34c-116 0 -150 -66 -150 -135c0 -89 56 -123 130 -123
c86 0 149 44 203 97zM641 498c-107 0 -178 -84 -185 -213h350c4 151 -62 213 -165 213z" />
    <glyph glyph-name="ccedilla" unicode="&#xe7;" horiz-adv-x="522" 
d="M161 -147l15 35c21 -10 32 -15 53 -15c36 0 61 16 61 52c0 26 -13 51 -23 65c-107 8 -203 102 -203 273c0 179 106 273 220 273c81 0 152 -49 188 -72l-24 -32c-23 14 -96 66 -167 66c-94 0 -172 -89 -172 -235s78 -236 172 -236c71 0 144 52 167 66l24 -32
c-34 -22 -100 -67 -176 -71c12 -16 31 -44 31 -77c0 -47 -37 -77 -93 -77c-26 0 -49 6 -73 17z" />
    <glyph glyph-name="egrave" unicode="&#xe8;" horiz-adv-x="570" 
d="M498 248h-389c5 -133 77 -221 172 -221c80 0 158 50 198 76l28 -32c-53 -31 -132 -82 -225 -82c-117 0 -218 95 -218 274s103 273 232 273c135 0 207 -95 207 -224c0 -36 -5 -64 -5 -64zM294 498c-107 0 -178 -84 -185 -213h350c4 151 -62 213 -165 213zM357 604h-37
l-163 125h79z" />
    <glyph glyph-name="eacute" unicode="&#xe9;" horiz-adv-x="570" 
d="M498 248h-389c5 -133 77 -221 172 -221c80 0 158 50 198 76l28 -32c-53 -31 -132 -82 -225 -82c-117 0 -218 95 -218 274s103 273 232 273c135 0 207 -95 207 -224c0 -36 -5 -64 -5 -64zM294 498c-107 0 -178 -84 -185 -213h350c4 151 -62 213 -165 213zM269 604h-37
l120 125h80z" />
    <glyph glyph-name="ecircumflex" unicode="&#xea;" horiz-adv-x="570" 
d="M498 248h-389c5 -133 77 -221 172 -221c80 0 158 50 198 76l28 -32c-53 -31 -132 -82 -225 -82c-117 0 -218 95 -218 274s103 273 232 273c135 0 207 -95 207 -224c0 -36 -5 -64 -5 -64zM294 498c-107 0 -178 -84 -185 -213h350c4 151 -62 213 -165 213zM327 729l96 -125
h-38l-91 93l-90 -93h-38l95 125h66z" />
    <glyph glyph-name="edieresis" unicode="&#xeb;" horiz-adv-x="570" 
d="M498 248h-389c5 -133 77 -221 172 -221c80 0 158 50 198 76l28 -32c-53 -31 -132 -82 -225 -82c-117 0 -218 95 -218 274s103 273 232 273c135 0 207 -95 207 -224c0 -36 -5 -64 -5 -64zM294 498c-107 0 -178 -84 -185 -213h350c4 151 -62 213 -165 213zM184 614v78h61
v-78h-61zM344 614v78h60v-78h-60z" />
    <glyph glyph-name="igrave" unicode="&#xec;" horiz-adv-x="230" 
d="M136 0h-42v525h42v-525zM178 604h-37l-163 125h78z" />
    <glyph glyph-name="iacute" unicode="&#xed;" horiz-adv-x="230" 
d="M136 0h-42v525h42v-525zM90 604h-37l121 125h79z" />
    <glyph glyph-name="icircumflex" unicode="&#xee;" horiz-adv-x="230" 
d="M136 0h-42v525h42v-525zM148 729l96 -125h-38l-91 93l-90 -93h-38l95 125h66z" />
    <glyph glyph-name="idieresis" unicode="&#xef;" horiz-adv-x="230" 
d="M136 0h-42v525h42v-525zM5 614v78h61v-78h-61zM165 614v78h60v-78h-60z" />
    <glyph glyph-name="eth" unicode="&#xf0;" horiz-adv-x="597" 
d="M227 581h-61l104 71c-21 6 -43 10 -67 10c-40 0 -72 -9 -72 -9l-12 35s36 12 85 12c37 0 73 -7 106 -21l73 50h63l-99 -67c110 -64 183 -205 183 -386c0 -229 -115 -287 -229 -287c-147 0 -236 96 -236 243s89 244 226 244c135 0 186 -85 186 -85
c-19 88 -72 197 -167 246zM485 233c0 132 -69 205 -188 205c-121 0 -188 -83 -188 -206c0 -126 69 -205 188 -205c114 0 188 73 188 206z" />
    <glyph glyph-name="ntilde" unicode="&#xf1;" horiz-adv-x="595" 
d="M136 525v-82c35 28 132 93 225 93c115 0 144 -78 144 -159v-377h-42v373c0 69 -22 125 -105 125c-86 0 -185 -67 -222 -99v-399h-42v525h42zM191 607l-32 12c23 44 43 71 81 71c48 0 86 -49 118 -49c16 0 27 6 49 46l32 -12c-22 -44 -43 -71 -81 -71
c-48 0 -86 49 -118 49c-16 0 -27 -6 -49 -46z" />
    <glyph glyph-name="ograve" unicode="&#xf2;" 
d="M526 262c0 -168 -81 -273 -231 -273c-151 0 -231 105 -231 273s80 274 231 274c150 0 231 -106 231 -274zM482 262c0 141 -55 236 -187 236s-187 -95 -187 -236s55 -235 187 -235s187 94 187 235zM358 604h-37l-163 125h78z" />
    <glyph glyph-name="oacute" unicode="&#xf3;" 
d="M526 262c0 -168 -81 -273 -231 -273c-151 0 -231 105 -231 273s80 274 231 274c150 0 231 -106 231 -274zM482 262c0 141 -55 236 -187 236s-187 -95 -187 -236s55 -235 187 -235s187 94 187 235zM270 604h-38l121 125h79z" />
    <glyph glyph-name="ocircumflex" unicode="&#xf4;" 
d="M526 262c0 -168 -81 -273 -231 -273c-151 0 -231 105 -231 273s80 274 231 274c150 0 231 -106 231 -274zM482 262c0 141 -55 236 -187 236s-187 -95 -187 -236s55 -235 187 -235s187 94 187 235zM328 729l96 -125h-38l-91 93l-90 -93h-38l95 125h66z" />
    <glyph glyph-name="otilde" unicode="&#xf5;" 
d="M526 262c0 -168 -81 -273 -231 -273c-151 0 -231 105 -231 273s80 274 231 274c150 0 231 -106 231 -274zM482 262c0 141 -55 236 -187 236s-187 -95 -187 -236s55 -235 187 -235s187 94 187 235zM187 617l-32 12c21 44 39 71 76 71c45 0 91 -42 124 -42c16 0 28 3 47 39
l33 -12c-22 -44 -41 -71 -77 -71c-44 0 -90 42 -123 42c-17 0 -28 -3 -48 -39z" />
    <glyph glyph-name="odieresis" unicode="&#xf6;" 
d="M526 262c0 -168 -81 -273 -231 -273c-151 0 -231 105 -231 273s80 274 231 274c150 0 231 -106 231 -274zM482 262c0 141 -55 236 -187 236s-187 -95 -187 -236s55 -235 187 -235s187 94 187 235zM185 614v78h61v-78h-61zM345 614v78h60v-78h-60z" />
    <glyph glyph-name="divide" unicode="&#xf7;" horiz-adv-x="600" 
d="M53 314v38h494v-38h-494zM252 496c0 24 23 44 49 44c25 0 48 -20 48 -44s-23 -44 -48 -44c-26 0 -49 20 -49 44zM252 171c0 24 23 44 49 44c25 0 48 -20 48 -44s-23 -44 -48 -44c-26 0 -49 20 -49 44z" />
    <glyph glyph-name="oslash" unicode="&#xf8;" horiz-adv-x="588" 
d="M514 525l-48 -64c39 -47 59 -116 59 -199c0 -168 -81 -273 -231 -273c-61 0 -110 16 -147 47l-27 -36h-46l47 63c-38 47 -58 115 -58 199c0 168 80 274 231 274c60 0 109 -17 146 -48l28 37h46zM107 262c0 -68 12 -124 40 -165l269 359c-29 27 -70 42 -122 42
c-132 0 -187 -95 -187 -236zM481 262c0 67 -13 124 -40 165l-270 -359c30 -27 70 -41 123 -41c132 0 187 94 187 235z" />
    <glyph glyph-name="ugrave" unicode="&#xf9;" horiz-adv-x="595" 
d="M459 0v81c-35 -27 -132 -92 -226 -92c-114 0 -143 78 -143 159v377h42v-373c0 -69 22 -125 105 -125c84 0 184 67 222 99v399h42v-525h-42zM358 604h-37l-163 125h78z" />
    <glyph glyph-name="uacute" unicode="&#xfa;" horiz-adv-x="595" 
d="M459 0v81c-35 -27 -132 -92 -226 -92c-114 0 -143 78 -143 159v377h42v-373c0 -69 22 -125 105 -125c84 0 184 67 222 99v399h42v-525h-42zM270 604h-38l121 125h79z" />
    <glyph glyph-name="ucircumflex" unicode="&#xfb;" horiz-adv-x="595" 
d="M459 0v81c-35 -27 -132 -92 -226 -92c-114 0 -143 78 -143 159v377h42v-373c0 -69 22 -125 105 -125c84 0 184 67 222 99v399h42v-525h-42zM328 729l96 -125h-38l-91 93l-90 -93h-38l94 125h67z" />
    <glyph glyph-name="udieresis" unicode="&#xfc;" horiz-adv-x="595" 
d="M459 0v81c-35 -27 -132 -92 -226 -92c-114 0 -143 78 -143 159v377h42v-373c0 -69 22 -125 105 -125c84 0 184 67 222 99v399h42v-525h-42zM185 614v78h61v-78h-61zM345 614v78h60v-78h-60z" />
    <glyph glyph-name="yacute" unicode="&#xfd;" horiz-adv-x="540" 
d="M37 525h47l186 -474l185 474h48l-298 -729h-48l92 207zM245 604h-38l121 125h79z" />
    <glyph glyph-name="thorn" unicode="&#xfe;" 
d="M136 450c39 38 106 86 192 86c104 0 197 -74 197 -274c0 -199 -93 -273 -197 -273c-86 0 -153 47 -192 86v-279h-42v933h42v-279zM330 498c-80 0 -151 -47 -194 -96v-280c43 -49 114 -95 194 -95c100 0 151 91 151 235c0 145 -51 236 -151 236z" />
    <glyph glyph-name="ydieresis" unicode="&#xff;" horiz-adv-x="540" 
d="M37 525h47l186 -474l185 474h48l-298 -729h-48l92 207zM160 614v78h61v-78h-61zM320 614v78h60v-78h-60z" />
    <glyph glyph-name="Amacron" unicode="&#x100;" horiz-adv-x="670" 
d="M587 0l-75 193h-355l-74 -193h-47l276 700h46l276 -700h-47zM335 651l-162 -418h324zM194 780v36h282v-36h-282z" />
    <glyph glyph-name="amacron" unicode="&#x101;" horiz-adv-x="564" 
d="M432 0v75c-41 -37 -111 -86 -203 -86c-74 0 -171 35 -171 165c0 125 88 173 175 173c61 0 154 -23 199 -31v73c0 84 -26 129 -121 129c-62 0 -130 -24 -198 -48l-19 36c80 30 153 50 217 50c96 0 163 -44 163 -158v-378h-42zM232 30c87 0 148 41 200 90v142
c-40 7 -118 26 -180 26c-116 0 -150 -66 -150 -135c0 -89 56 -123 130 -123zM143 630v36h282v-36h-282z" />
    <glyph glyph-name="Abreve" unicode="&#x102;" horiz-adv-x="670" 
d="M587 0l-75 193h-355l-74 -193h-47l276 700h46l276 -700h-47zM335 651l-162 -418h324zM334 755c-81 0 -128 38 -128 97h39c0 -44 35 -60 89 -60s90 16 90 60h39c0 -59 -48 -97 -129 -97z" />
    <glyph glyph-name="abreve" unicode="&#x103;" horiz-adv-x="564" 
d="M432 0v75c-41 -37 -111 -86 -203 -86c-74 0 -171 35 -171 165c0 125 88 173 175 173c61 0 154 -23 199 -31v73c0 84 -26 129 -121 129c-62 0 -130 -24 -198 -48l-19 36c80 30 153 50 217 50c96 0 163 -44 163 -158v-378h-42zM232 30c87 0 148 41 200 90v142
c-40 7 -118 26 -180 26c-116 0 -150 -66 -150 -135c0 -89 56 -123 130 -123zM285 604c-81 0 -128 38 -128 97h39c0 -44 35 -60 89 -60s90 16 90 60h39c0 -59 -48 -97 -129 -97z" />
    <glyph glyph-name="Aogonek" unicode="&#x104;" horiz-adv-x="670" 
d="M531 -97c0 -44 50 -40 82 -40l-9 -38c-35 0 -118 0 -118 72c0 41 46 78 101 103l-75 193h-355l-74 -193h-47l276 700h46l276 -700h-3c-37 -22 -100 -52 -100 -97zM335 651l-162 -418h324z" />
    <glyph glyph-name="aogonek" unicode="&#x105;" horiz-adv-x="563" 
d="M370 -97c0 -44 51 -40 82 -40l-8 -38c-36 0 -119 0 -119 72c0 43 49 80 107 106v72c-41 -37 -111 -86 -203 -86c-74 0 -171 35 -171 165c0 125 88 173 175 173c61 0 154 -23 199 -31v73c0 84 -26 129 -121 129c-62 0 -130 -24 -198 -48l-19 36c80 30 153 50 217 50
c96 0 163 -44 163 -158v-378h-3c-38 -22 -101 -52 -101 -97zM232 30c87 0 148 41 200 90v142c-40 7 -118 26 -180 26c-116 0 -150 -66 -150 -135c0 -89 56 -123 130 -123z" />
    <glyph glyph-name="Cacute" unicode="&#x106;" horiz-adv-x="643" 
d="M591 607l-28 -31c-50 36 -134 95 -223 95c-125 0 -219 -116 -219 -321s94 -321 219 -321c89 0 173 59 223 95l28 -31c-65 -48 -153 -104 -250 -104c-137 0 -266 105 -266 361s129 361 266 361c97 0 185 -56 250 -104zM351 755h-37l121 125h79z" />
    <glyph glyph-name="cacute" unicode="&#x107;" horiz-adv-x="521" 
d="M472 464l-24 -32c-23 14 -96 66 -167 66c-94 0 -172 -89 -172 -235s78 -236 172 -236c71 0 144 52 167 66l24 -32c-36 -23 -107 -72 -188 -72c-114 0 -220 95 -220 274s106 273 220 273c81 0 152 -49 188 -72zM258 604h-37l121 125h79z" />
    <glyph glyph-name="Cdotaccent" unicode="&#x10a;" horiz-adv-x="643" 
d="M591 607l-28 -31c-50 36 -134 95 -223 95c-125 0 -219 -116 -219 -321s94 -321 219 -321c89 0 173 59 223 95l28 -31c-65 -48 -153 -104 -250 -104c-137 0 -266 105 -266 361s129 361 266 361c97 0 185 -56 250 -104zM313 765v78h61v-78h-61z" />
    <glyph glyph-name="cdotaccent" unicode="&#x10b;" horiz-adv-x="521" 
d="M472 464l-24 -32c-23 14 -96 66 -167 66c-94 0 -172 -89 -172 -235s78 -236 172 -236c71 0 144 52 167 66l24 -32c-36 -23 -107 -72 -188 -72c-114 0 -220 95 -220 274s106 273 220 273c81 0 152 -49 188 -72zM253 615v78h61v-78h-61z" />
    <glyph glyph-name="Ccaron" unicode="&#x10c;" horiz-adv-x="643" 
d="M591 607l-28 -31c-50 36 -134 95 -223 95c-125 0 -219 -116 -219 -321s94 -321 219 -321c89 0 173 59 223 95l28 -31c-65 -48 -153 -104 -250 -104c-137 0 -266 105 -266 361s129 361 266 361c97 0 185 -56 250 -104zM484 880l-96 -125h-66l-95 125h38l90 -93l91 93h38z
" />
    <glyph glyph-name="ccaron" unicode="&#x10d;" horiz-adv-x="521" 
d="M472 464l-24 -32c-23 14 -96 66 -167 66c-94 0 -172 -89 -172 -235s78 -236 172 -236c71 0 144 52 167 66l24 -32c-36 -23 -107 -72 -188 -72c-114 0 -220 95 -220 274s106 273 220 273c81 0 152 -49 188 -72zM412 729l-95 -125h-67l-95 125h38l90 -93l91 93h38z" />
    <glyph glyph-name="Dcaron" unicode="&#x10e;" horiz-adv-x="694" 
d="M619 350c0 -250 -124 -350 -315 -350h-194v700h194c191 0 315 -100 315 -350zM571 350c0 208 -79 310 -267 310h-150v-620h150c188 0 267 102 267 310zM494 880l-96 -125h-67l-95 125h38l90 -93l92 93h38z" />
    <glyph glyph-name="dcaron" unicode="&#x10f;" horiz-adv-x="596" 
d="M496 0h-42v75c-40 -39 -106 -86 -192 -86c-105 0 -197 74 -197 273c0 200 92 274 197 274c86 0 152 -48 192 -86v279h42v-729zM260 27c80 0 150 47 194 96v279c-44 49 -114 96 -194 96c-100 0 -151 -91 -151 -236c0 -144 51 -235 151 -235zM561 648v81h60l11 -81
l-57 -108l-21 20l37 88h-30z" />
    <glyph glyph-name="Dcroat" unicode="&#x110;" horiz-adv-x="696" 
d="M621 350c0 -250 -124 -350 -315 -350h-193v329h-76v42h76v329h193c191 0 315 -100 315 -350zM574 350c0 208 -79 310 -267 310h-150v-289h182v-42h-182v-289h150c188 0 267 102 267 310z" />
    <glyph glyph-name="dcroat" unicode="&#x111;" 
d="M285 604v36h169v89h42v-89h68v-36h-68v-604h-42v75c-40 -39 -106 -86 -192 -86c-105 0 -197 74 -197 273c0 200 92 274 197 274c86 0 152 -48 192 -86v154h-169zM260 27c80 0 150 47 194 96v279c-44 49 -114 96 -194 96c-100 0 -151 -91 -151 -236
c0 -144 51 -235 151 -235z" />
    <glyph glyph-name="Emacron" unicode="&#x112;" 
d="M527 0h-417v700h411v-40h-367v-290h305v-40h-305v-290h373v-40zM177 780v36h282v-36h-282z" />
    <glyph glyph-name="emacron" unicode="&#x113;" horiz-adv-x="570" 
d="M498 248h-389c5 -133 77 -221 172 -221c80 0 158 50 198 76l28 -32c-53 -31 -132 -82 -225 -82c-117 0 -218 95 -218 274s103 273 232 273c135 0 207 -95 207 -224c0 -36 -5 -64 -5 -64zM294 498c-107 0 -178 -84 -185 -213h350c4 151 -62 213 -165 213zM155 629v36h282
v-36h-282z" />
    <glyph glyph-name="Edotaccent" unicode="&#x116;" 
d="M527 0h-417v700h411v-40h-367v-290h305v-40h-305v-290h373v-40zM288 765v78h61v-78h-61z" />
    <glyph glyph-name="edotaccent" unicode="&#x117;" horiz-adv-x="570" 
d="M498 248h-389c5 -133 77 -221 172 -221c80 0 158 50 198 76l28 -32c-53 -31 -132 -82 -225 -82c-117 0 -218 95 -218 274s103 273 232 273c135 0 207 -95 207 -224c0 -36 -5 -64 -5 -64zM294 498c-107 0 -178 -84 -185 -213h350c4 151 -62 213 -165 213zM264 614v78h60
v-78h-60z" />
    <glyph glyph-name="Eogonek" unicode="&#x118;" 
d="M424 -97c0 -44 50 -40 82 -40l-9 -38c-35 0 -118 0 -118 72c0 41 45 77 99 103h-368v700h411v-40h-367v-290h305v-40h-305v-290h373v-40h-3c-37 -22 -100 -52 -100 -97z" />
    <glyph glyph-name="eogonek" unicode="&#x119;" horiz-adv-x="570" 
d="M254 -97c0 -44 51 -40 83 -40l-9 -38c-36 0 -118 0 -118 72c0 35 33 68 78 92h-6c-117 0 -218 95 -218 274s103 273 232 273c135 0 207 -95 207 -224c0 -36 -5 -64 -5 -64h-389c5 -133 77 -221 172 -221c80 0 158 50 198 76l28 -32c-39 -23 -92 -57 -155 -72
c-38 -22 -98 -52 -98 -96zM294 498c-107 0 -178 -84 -185 -213h350c4 151 -62 213 -165 213z" />
    <glyph glyph-name="Ecaron" unicode="&#x11a;" 
d="M527 0h-417v700h411v-40h-367v-290h305v-40h-305v-290h373v-40zM447 870l-96 -125h-66l-95 125h38l90 -93l91 93h38z" />
    <glyph glyph-name="ecaron" unicode="&#x11b;" horiz-adv-x="570" 
d="M498 248h-389c5 -133 77 -221 172 -221c80 0 158 50 198 76l28 -32c-53 -31 -132 -82 -225 -82c-117 0 -218 95 -218 274s103 273 232 273c135 0 207 -95 207 -224c0 -36 -5 -64 -5 -64zM294 498c-107 0 -178 -84 -185 -213h350c4 151 -62 213 -165 213zM423 729
l-96 -125h-66l-95 125h38l90 -93l91 93h38z" />
    <glyph glyph-name="Gbreve" unicode="&#x11e;" horiz-adv-x="699" 
d="M570 0v91c-58 -50 -135 -102 -229 -102c-139 0 -266 105 -266 361s129 361 266 361c105 0 196 -60 260 -112l-29 -32c-48 36 -137 104 -232 104c-125 0 -219 -116 -219 -321c0 -202 94 -321 219 -321c98 0 188 78 230 115v185h-211v40h256v-369h-45zM345 755
c-81 0 -128 38 -128 97h39c0 -44 35 -60 89 -60s90 16 90 60h39c0 -59 -48 -97 -129 -97z" />
    <glyph glyph-name="gbreve" unicode="&#x11f;" 
d="M454 525h42v-574c0 -130 -86 -165 -182 -165c-63 0 -153 15 -225 35l11 41c80 -23 158 -38 215 -38c87 0 139 36 139 127v124c-40 -39 -106 -86 -192 -86c-105 0 -197 74 -197 273c0 200 92 274 197 274c86 0 152 -48 192 -86v75zM260 27c80 0 150 47 194 96v279
c-44 49 -114 96 -194 96c-100 0 -151 -91 -151 -236c0 -144 51 -235 151 -235zM294 604c-81 0 -129 38 -129 97h39c0 -44 36 -60 90 -60s90 16 90 60h39c0 -59 -48 -97 -129 -97z" />
    <glyph glyph-name="Gdotaccent" unicode="&#x120;" horiz-adv-x="699" 
d="M570 0v91c-58 -50 -135 -102 -229 -102c-139 0 -266 105 -266 361s129 361 266 361c105 0 196 -60 260 -112l-29 -32c-48 36 -137 104 -232 104c-125 0 -219 -116 -219 -321c0 -202 94 -321 219 -321c98 0 188 78 230 115v185h-211v40h256v-369h-45zM314 765v78h61v-78
h-61z" />
    <glyph glyph-name="gdotaccent" unicode="&#x121;" 
d="M454 525h42v-574c0 -130 -86 -165 -182 -165c-63 0 -153 15 -225 35l11 41c80 -23 158 -38 215 -38c87 0 139 36 139 127v124c-40 -39 -106 -86 -192 -86c-105 0 -197 74 -197 273c0 200 92 274 197 274c86 0 152 -48 192 -86v75zM260 27c80 0 150 47 194 96v279
c-44 49 -114 96 -194 96c-100 0 -151 -91 -151 -236c0 -144 51 -235 151 -235zM262 614v78h61v-78h-61z" />
    <glyph glyph-name="Gcommaaccent" unicode="&#x122;" horiz-adv-x="699" 
d="M570 0v91c-58 -50 -135 -102 -229 -102c-139 0 -266 105 -266 361s129 361 266 361c105 0 196 -60 260 -112l-29 -32c-48 36 -137 104 -232 104c-125 0 -219 -116 -219 -321c0 -202 94 -321 219 -321c98 0 188 78 230 115v185h-211v40h256v-369h-45zM336 -148v81h60
l11 -81l-57 -108l-22 20l38 88h-30z" />
    <glyph glyph-name="gcommaaccent" unicode="&#x123;" 
d="M454 525h42v-574c0 -130 -86 -165 -182 -165c-63 0 -153 15 -225 35l11 41c80 -23 158 -38 215 -38c87 0 139 36 139 127v124c-40 -39 -106 -86 -192 -86c-105 0 -197 74 -197 273c0 200 92 274 197 274c86 0 152 -48 192 -86v75zM260 27c80 0 150 47 194 96v279
c-44 49 -114 96 -194 96c-100 0 -151 -91 -151 -236c0 -144 51 -235 151 -235zM323 695v-81h-59l-11 81l57 108l21 -20l-37 -88h29z" />
    <glyph glyph-name="Hbar" unicode="&#x126;" horiz-adv-x="710" 
d="M553 0v347h-396v-347h-44v523h-76v36h76v141h44v-141h396v141h44v-141h75v-36h-75v-523h-44zM157 523v-136h396v136h-396z" />
    <glyph glyph-name="hbar" unicode="&#x127;" horiz-adv-x="595" 
d="M26 604v36h68v89h42v-89h170v-36h-170v-161c35 28 132 93 226 93c114 0 143 -78 143 -159v-377h-42v373c0 69 -22 125 -105 125c-86 0 -185 -67 -222 -99v-399h-42v604h-68z" />
    <glyph glyph-name="Itilde" unicode="&#x128;" horiz-adv-x="264" 
d="M24 768l-32 12c23 44 43 71 81 71c48 0 86 -49 118 -49c16 0 27 6 49 46l32 -12c-22 -44 -43 -71 -81 -71c-48 0 -86 49 -118 49c-16 0 -27 -6 -49 -46zM154 0h-44v700h44v-700z" />
    <glyph glyph-name="itilde" unicode="&#x129;" horiz-adv-x="230" 
d="M7 617l-32 12c23 44 43 71 81 71c48 0 86 -49 118 -49c16 0 27 6 49 46l32 -12c-22 -44 -43 -71 -81 -71c-48 0 -86 49 -118 49c-16 0 -27 -6 -49 -46zM136 0h-42v525h42v-525z" />
    <glyph glyph-name="Imacron" unicode="&#x12a;" horiz-adv-x="264" 
d="M154 0h-44v700h44v-700zM-9 780v36h282v-36h-282z" />
    <glyph glyph-name="imacron" unicode="&#x12b;" horiz-adv-x="230" 
d="M136 0h-42v525h42v-525zM-26 629v36h282v-36h-282z" />
    <glyph glyph-name="Ibreve" unicode="&#x12c;" horiz-adv-x="264" 
d="M132 755c-81 0 -128 38 -128 97h39c0 -44 35 -60 89 -60s90 16 90 60h39c0 -59 -48 -97 -129 -97zM154 0h-44v700h44v-700z" />
    <glyph glyph-name="ibreve" unicode="&#x12d;" horiz-adv-x="230" 
d="M115 604c-81 0 -128 38 -128 97h39c0 -44 35 -60 89 -60s90 16 90 60h39c0 -59 -48 -97 -129 -97zM136 0h-42v525h42v-525z" />
    <glyph glyph-name="Iogonek" unicode="&#x12e;" horiz-adv-x="264" 
d="M50 -97c0 -44 50 -40 82 -40l-8 -38c-36 0 -119 0 -119 72c0 42 49 80 105 105v698h44v-700h-3c-38 -22 -101 -52 -101 -97z" />
    <glyph glyph-name="iogonek" unicode="&#x12f;" horiz-adv-x="230" 
d="M32 -97c0 -44 50 -40 82 -40l-8 -38c-36 0 -119 0 -119 72c0 43 50 81 107 106v522h42v-525h-3c-38 -22 -101 -52 -101 -97zM89 648v78h52v-78h-52z" />
    <glyph glyph-name="Idotaccent" unicode="&#x130;" horiz-adv-x="264" 
d="M154 0h-44v700h44v-700zM102 765v78h61v-78h-61z" />
    <glyph glyph-name="dotlessi" unicode="&#x131;" horiz-adv-x="230" 
d="M136 0h-42v525h42v-525z" />
    <glyph glyph-name="IJ" unicode="&#x132;" horiz-adv-x="528" 
d="M154 0h-44v700h44v-700zM414 700v-667c0 -94 0 -121 -146 -162l-16 37c118 38 118 46 118 125v667h44z" />
    <glyph glyph-name="ij" unicode="&#x133;" horiz-adv-x="460" 
d="M320 648v78h51v-78h-51zM366 525v-567c0 -94 0 -121 -145 -162l-15 35c118 38 118 46 118 127v567h42zM136 0h-42v525h42v-525zM90 648v78h52v-78h-52z" />
    <glyph glyph-name="Jcircumflex" unicode="&#x134;" horiz-adv-x="265" 
d="M154 700v-667c0 -94 0 -121 -146 -162l-16 37c118 38 118 46 118 125v667h44zM165 880l96 -125h-38l-91 93l-90 -93h-38l94 125h67z" />
    <glyph glyph-name="jcircumflex" unicode="&#x135;" horiz-adv-x="230" 
d="M136 525v-567c0 -94 0 -121 -145 -162l-15 35c118 38 118 46 118 127v567h42zM148 729l96 -125h-38l-91 93l-90 -93h-38l94 125h67z" />
    <glyph glyph-name="Kcommaaccent" unicode="&#x136;" horiz-adv-x="633" 
d="M110 0v700h44v-432l365 432h53l-287 -339l325 -361h-55l-297 329l-104 -124v-205h-44zM286 -148v81h60l11 -81l-58 -108l-21 20l37 88h-29z" />
    <glyph glyph-name="kcommaaccent" unicode="&#x137;" horiz-adv-x="497" 
d="M439 525l-178 -214l211 -311h-46l-191 279l-99 -120v-159h-42v729h42v-518l255 314h48zM231 -148v81h60l11 -81l-57 -108l-22 20l38 88h-30z" />
    <glyph glyph-name="kgreenlandic" unicode="&#x138;" horiz-adv-x="497" 
d="M439 525l-178 -214l211 -311h-46l-191 279l-99 -120v-159h-42v525h42v-314l255 314h48z" />
    <glyph glyph-name="Lacute" unicode="&#x139;" horiz-adv-x="543" 
d="M511 0h-401v700h44v-660h357v-40zM107 755h-37l121 125h79z" />
    <glyph glyph-name="lacute" unicode="&#x13a;" horiz-adv-x="242" 
d="M142 0h-42v729h42v-729zM96 784h-37l121 125h79z" />
    <glyph glyph-name="Lcommaaccent" unicode="&#x13b;" horiz-adv-x="542" 
d="M279 -148v81h60l11 -81l-57 -108l-22 20l38 88h-30zM510 0h-400v700h44v-660h356v-40z" />
    <glyph glyph-name="lcommaaccent" unicode="&#x13c;" horiz-adv-x="242" 
d="M91 -148v81h60l10 -81l-57 -108l-21 20l37 88h-29zM142 0h-42v729h42v-729z" />
    <glyph glyph-name="Lcaron" unicode="&#x13d;" horiz-adv-x="542" 
d="M219 619v81h60l11 -81l-57 -108l-21 20l37 88h-30zM510 0h-400v700h44v-660h356v-40z" />
    <glyph glyph-name="lcaron" unicode="&#x13e;" horiz-adv-x="242" 
d="M207 648v81h60l11 -81l-57 -108l-22 20l38 88h-30zM142 0h-42v729h42v-729z" />
    <glyph glyph-name="Ldot" unicode="&#x13f;" horiz-adv-x="544" 
d="M510 0h-400v700h44v-660h356v-40zM383 321v78h61v-78h-61z" />
    <glyph glyph-name="ldot" unicode="&#x140;" horiz-adv-x="244" 
d="M142 0h-42v729h42v-729zM207 321v78h61v-78h-61z" />
    <glyph glyph-name="Lslash" unicode="&#x141;" horiz-adv-x="547" 
d="M515 0h-400v291l-76 -41v49l76 41v360h44v-336l139 77v-49l-139 -77v-275h356v-40z" />
    <glyph glyph-name="lslash" unicode="&#x142;" horiz-adv-x="256" 
d="M150 0h-42v328l-72 -39v49l72 39v352h42v-329l71 40v-49l-71 -40v-351z" />
    <glyph glyph-name="Nacute" unicode="&#x143;" horiz-adv-x="720" 
d="M563 0l-409 633v-633h-44v700h47l409 -634v634h44v-700h-47zM340 755h-37l121 125h79z" />
    <glyph glyph-name="nacute" unicode="&#x144;" horiz-adv-x="595" 
d="M136 525v-82c35 28 132 93 225 93c115 0 144 -78 144 -159v-377h-42v373c0 69 -22 125 -105 125c-86 0 -185 -67 -222 -99v-399h-42v525h42zM274 604h-38l121 125h79z" />
    <glyph glyph-name="Ncommaaccent" unicode="&#x145;" horiz-adv-x="720" 
d="M157 700l409 -634v634h44v-700h-47l-409 633v-633h-44v700h47zM335 -148v81h60l11 -81l-58 -108l-21 20l37 88h-29z" />
    <glyph glyph-name="ncommaaccent" unicode="&#x146;" horiz-adv-x="595" 
d="M136 525v-82c35 28 132 93 225 93c115 0 144 -78 144 -159v-377h-42v373c0 69 -22 125 -105 125c-86 0 -185 -67 -222 -99v-399h-42v525h42zM268 -148v81h60l11 -81l-57 -108l-22 20l38 88h-30z" />
    <glyph glyph-name="Ncaron" unicode="&#x147;" horiz-adv-x="720" 
d="M563 0l-409 633v-633h-44v700h47l409 -634v634h44v-700h-47zM495 880l-96 -125h-67l-95 125h38l90 -93l92 93h38z" />
    <glyph glyph-name="ncaron" unicode="&#x148;" horiz-adv-x="595" 
d="M136 525v-82c35 28 132 93 225 93c115 0 144 -78 144 -159v-377h-42v373c0 69 -22 125 -105 125c-86 0 -185 -67 -222 -99v-399h-42v525h42zM425 729l-96 -125h-67l-95 125h38l90 -93l92 93h38z" />
    <glyph glyph-name="napostrophe" unicode="&#x149;" horiz-adv-x="594" 
d="M136 525v-81c35 28 132 92 225 92c115 0 143 -78 143 -159v-377h-42v373c0 69 -22 125 -105 125c-84 0 -183 -66 -221 -99v-399h-42v525h42zM94 692v81h60l10 -81l-57 -108l-21 20l37 88h-29z" />
    <glyph glyph-name="Eng" unicode="&#x14a;" horiz-adv-x="720" 
d="M610 700v-667c0 -94 1 -121 -145 -162l-17 37c97 31 114 42 117 88l-411 637v-633h-44v700h47l409 -634v634h44z" />
    <glyph glyph-name="eng" unicode="&#x14b;" horiz-adv-x="595" 
d="M505 377v-420c0 -94 0 -119 -145 -161l-15 35c118 39 118 45 118 127v415c0 69 -22 125 -105 125c-86 0 -185 -67 -222 -99v-399h-42v525h42v-82c35 28 132 93 225 93c115 0 144 -78 144 -159z" />
    <glyph glyph-name="Omacron" unicode="&#x14c;" horiz-adv-x="727" 
d="M363 711c212 0 289 -163 289 -361c0 -196 -77 -361 -289 -361s-288 165 -288 361c0 198 76 361 288 361zM363 29c184 0 243 145 243 321s-59 321 -243 321c-183 0 -242 -145 -242 -321s59 -321 242 -321zM222 780v36h282v-36h-282z" />
    <glyph glyph-name="omacron" unicode="&#x14d;" 
d="M526 262c0 -168 -81 -273 -231 -273c-151 0 -231 105 -231 273s80 274 231 274c150 0 231 -106 231 -274zM482 262c0 141 -55 236 -187 236s-187 -95 -187 -236s55 -235 187 -235s187 94 187 235zM154 629v36h282v-36h-282z" />
    <glyph glyph-name="Obreve" unicode="&#x14e;" horiz-adv-x="727" 
d="M363 711c212 0 289 -163 289 -361c0 -196 -77 -361 -289 -361s-288 165 -288 361c0 198 76 361 288 361zM363 29c184 0 243 145 243 321s-59 321 -243 321c-183 0 -242 -145 -242 -321s59 -321 242 -321zM363 755c-81 0 -129 38 -129 97h39c0 -44 36 -60 90 -60
s90 16 90 60h39c0 -59 -48 -97 -129 -97z" />
    <glyph glyph-name="obreve" unicode="&#x14f;" 
d="M526 262c0 -168 -81 -273 -231 -273c-151 0 -231 105 -231 273s80 274 231 274c150 0 231 -106 231 -274zM482 262c0 141 -55 236 -187 236s-187 -95 -187 -236s55 -235 187 -235s187 94 187 235zM295 604c-81 0 -129 38 -129 97h39c0 -44 36 -60 90 -60s90 16 90 60h39
c0 -59 -48 -97 -129 -97z" />
    <glyph glyph-name="Ohungarumlaut" unicode="&#x150;" horiz-adv-x="727" 
d="M363 711c212 0 289 -163 289 -361c0 -196 -77 -361 -289 -361s-288 165 -288 361c0 198 76 361 288 361zM363 29c184 0 243 145 243 321s-59 321 -243 321c-183 0 -242 -145 -242 -321s59 -321 242 -321zM427 755h-29l75 125h71zM292 755h-30l76 125h72z" />
    <glyph glyph-name="ohungarumlaut" unicode="&#x151;" 
d="M526 262c0 -168 -81 -273 -231 -273c-151 0 -231 105 -231 273s80 274 231 274c150 0 231 -106 231 -274zM482 262c0 141 -55 236 -187 236s-187 -95 -187 -236s55 -235 187 -235s187 94 187 235zM358 604h-29l75 125h71zM223 604h-30l76 125h72z" />
    <glyph glyph-name="OE" unicode="&#x152;" horiz-adv-x="1089" 
d="M1026 0h-417v133c-43 -87 -121 -144 -246 -144c-212 0 -288 165 -288 361c0 198 76 361 288 361c125 0 203 -57 246 -144v133h411v-40h-367v-290h305v-40h-305v-290h373v-40zM363 29c184 0 243 145 243 321s-59 321 -243 321c-183 0 -242 -145 -242 -321
s59 -321 242 -321z" />
    <glyph glyph-name="oe" unicode="&#x153;" horiz-adv-x="988" 
d="M917 248h-389c5 -133 76 -221 171 -221c81 0 159 50 199 76l27 -32c-52 -31 -131 -82 -224 -82c-84 0 -160 49 -196 142c-33 -90 -104 -142 -210 -142c-151 0 -231 105 -231 273s80 274 231 274c106 0 177 -53 210 -143c37 94 116 143 210 143c135 0 207 -95 207 -224
c0 -36 -5 -64 -5 -64zM482 262c0 141 -55 236 -187 236s-187 -95 -187 -236s55 -235 187 -235s187 94 187 235zM713 498c-108 0 -178 -84 -185 -213h350c3 151 -63 213 -165 213z" />
    <glyph glyph-name="Racute" unicode="&#x154;" horiz-adv-x="674" 
d="M555 0l-196 314h-205v-314h-44v700h247c132 0 249 -45 249 -193c0 -132 -93 -182 -202 -192l203 -315h-52zM560 507c0 110 -84 153 -196 153h-210v-306h204c118 0 202 43 202 153zM333 755h-38l121 125h80z" />
    <glyph glyph-name="racute" unicode="&#x155;" horiz-adv-x="365" 
d="M190 604h-37l121 125h79zM136 525v-114c5 13 59 130 201 120v-41c-180 0 -201 -164 -201 -164v-326h-42v525h42z" />
    <glyph glyph-name="Rcommaaccent" unicode="&#x156;" horiz-adv-x="674" 
d="M555 0l-196 314h-205v-314h-44v700h247c132 0 249 -45 249 -193c0 -132 -93 -182 -202 -192l203 -315h-52zM560 507c0 110 -84 153 -196 153h-210v-306h204c118 0 202 43 202 153zM306 -148v81h60l11 -81l-58 -108l-21 20l37 88h-29z" />
    <glyph glyph-name="rcommaaccent" unicode="&#x157;" horiz-adv-x="365" 
d="M85 -148v81h60l10 -81l-57 -108l-21 20l37 88h-29zM136 525v-114c5 13 60 130 201 120v-41c-180 0 -201 -164 -201 -164v-326h-42v525h42z" />
    <glyph glyph-name="Rcaron" unicode="&#x158;" horiz-adv-x="674" 
d="M555 0l-196 314h-205v-314h-44v700h247c132 0 249 -45 249 -193c0 -132 -93 -182 -202 -192l203 -315h-52zM560 507c0 110 -84 153 -196 153h-210v-306h204c118 0 202 43 202 153zM487 880l-96 -125h-66l-95 125h38l90 -93l91 93h38z" />
    <glyph glyph-name="rcaron" unicode="&#x159;" horiz-adv-x="365" 
d="M344 729l-96 -125h-66l-95 125h38l90 -93l91 93h38zM135 525v-114c6 13 60 130 202 120v-41c-181 0 -202 -164 -202 -164v-326h-41v525h41z" />
    <glyph glyph-name="Sacute" unicode="&#x15a;" horiz-adv-x="598" 
d="M273 755h-37l121 125h79zM301 387c109 -34 239 -80 239 -216c0 -129 -118 -182 -223 -182c-94 0 -196 43 -258 79l23 36c62 -36 155 -75 239 -75c89 0 176 45 176 140c0 98 -91 139 -208 176c-102 32 -214 69 -214 192c0 117 101 174 207 174c77 0 170 -30 228 -61
l-22 -35c-63 33 -146 56 -207 56c-83 0 -162 -40 -162 -132c0 -95 83 -121 182 -152z" />
    <glyph glyph-name="sacute" unicode="&#x15b;" horiz-adv-x="498" 
d="M224 604h-37l120 125h80zM253 290c125 -33 191 -78 191 -162c0 -100 -93 -139 -178 -139c-83 0 -163 35 -211 62l23 34c49 -28 122 -58 185 -58c66 0 139 30 139 100c0 79 -99 105 -163 123c-79 22 -173 50 -173 150c0 91 78 136 171 136c72 0 139 -27 185 -51l-23 -33
c-49 25 -109 46 -164 46c-71 0 -128 -33 -128 -96c0 -78 97 -99 146 -112z" />
    <glyph glyph-name="Scircumflex" unicode="&#x15c;" horiz-adv-x="598" 
d="M333 880l95 -125h-37l-92 93l-90 -93h-38l95 125h67zM301 387c109 -34 239 -80 239 -216c0 -129 -118 -182 -223 -182c-94 0 -196 43 -258 79l23 36c62 -36 155 -75 239 -75c89 0 176 45 176 140c0 98 -91 139 -208 176c-102 32 -214 69 -214 192c0 117 101 174 207 174
c77 0 170 -30 228 -61l-22 -35c-63 33 -146 56 -207 56c-83 0 -162 -40 -162 -132c0 -95 83 -121 182 -152z" />
    <glyph glyph-name="scircumflex" unicode="&#x15d;" horiz-adv-x="498" 
d="M283 729l96 -125h-38l-91 93l-90 -93h-38l95 125h66zM253 290c125 -33 191 -78 191 -162c0 -100 -93 -139 -178 -139c-83 0 -163 35 -211 62l23 34c49 -28 122 -58 185 -58c66 0 139 30 139 100c0 79 -99 105 -163 123c-79 22 -173 50 -173 150c0 91 78 136 171 136
c72 0 139 -27 185 -51l-23 -33c-49 25 -109 46 -164 46c-71 0 -128 -33 -128 -96c0 -78 97 -99 146 -112z" />
    <glyph glyph-name="Scedilla" unicode="&#x15e;" horiz-adv-x="599" 
d="M301 387c109 -34 239 -80 239 -216c0 -119 -100 -173 -198 -181c12 -15 31 -44 31 -77c0 -47 -37 -77 -93 -77c-26 0 -50 6 -73 17l14 35c22 -10 33 -15 54 -15c36 0 60 16 60 52c0 26 -13 50 -22 64c-93 1 -193 43 -254 79l23 36c62 -36 155 -75 239 -75
c89 0 176 45 176 140c0 98 -91 139 -208 176c-102 32 -214 69 -214 192c0 117 101 174 207 174c77 0 170 -30 228 -61l-22 -35c-63 33 -146 56 -207 56c-83 0 -162 -40 -162 -132c0 -95 83 -121 182 -152z" />
    <glyph glyph-name="scedilla" unicode="&#x15f;" horiz-adv-x="498" 
d="M253 290c125 -33 191 -78 191 -162c0 -93 -81 -133 -160 -138c12 -16 30 -44 30 -77c0 -47 -38 -77 -94 -77c-25 0 -49 6 -73 17l15 35c22 -10 32 -15 53 -15c36 0 61 16 61 52c0 26 -13 50 -22 64c-79 3 -154 36 -199 62l23 34c49 -28 122 -58 185 -58
c66 0 139 30 139 100c0 79 -99 105 -163 123c-79 22 -173 50 -173 150c0 91 78 136 171 136c72 0 139 -27 185 -51l-23 -33c-49 25 -109 46 -164 46c-71 0 -128 -33 -128 -96c0 -78 97 -99 146 -112z" />
    <glyph glyph-name="Scaron" unicode="&#x160;" horiz-adv-x="598" 
d="M428 880l-95 -125h-67l-95 125h38l90 -93l92 93h37zM301 387c109 -34 239 -80 239 -216c0 -129 -118 -182 -223 -182c-94 0 -196 43 -258 79l23 36c62 -36 155 -75 239 -75c89 0 176 45 176 140c0 98 -91 139 -208 176c-102 32 -214 69 -214 192c0 117 101 174 207 174
c77 0 170 -30 228 -61l-22 -35c-63 33 -146 56 -207 56c-83 0 -162 -40 -162 -132c0 -95 83 -121 182 -152z" />
    <glyph glyph-name="scaron" unicode="&#x161;" horiz-adv-x="498" 
d="M378 729l-96 -125h-66l-95 125h38l90 -93l91 93h38zM253 290c125 -33 191 -78 191 -162c0 -100 -93 -139 -178 -139c-83 0 -163 35 -211 62l23 34c49 -28 122 -58 185 -58c66 0 139 30 139 100c0 79 -99 105 -163 123c-79 22 -173 50 -173 150c0 91 78 136 171 136
c72 0 139 -27 185 -51l-23 -33c-49 25 -109 46 -164 46c-71 0 -128 -33 -128 -96c0 -78 97 -99 146 -112z" />
    <glyph glyph-name="Tcedilla" unicode="&#x162;" horiz-adv-x="562" 
d="M168 -147l14 35c22 -10 33 -15 54 -15c35 0 60 16 60 52c0 34 -23 67 -29 75h-8v660h-229v40h502v-40h-229v-660h-8c5 -6 39 -43 39 -87c0 -47 -37 -77 -93 -77c-26 0 -50 6 -73 17z" />
    <glyph glyph-name="tcedilla" unicode="&#x163;" horiz-adv-x="357" 
d="M40 489v36h74v132l41 20v-152h146v-36h-146v-403c0 -45 21 -59 53 -59s90 20 111 29l18 -34c-16 -7 -68 -27 -112 -32c12 -15 31 -44 31 -77c0 -47 -37 -77 -93 -77c-26 0 -50 6 -73 17l14 35c22 -10 33 -15 53 -15c36 0 61 16 61 52c0 26 -13 51 -22 65
c-42 3 -82 23 -82 101v398h-74z" />
    <glyph glyph-name="Tcaron" unicode="&#x164;" horiz-adv-x="562" 
d="M532 660h-229v-660h-44v660h-229v40h502v-40zM410 880l-96 -125h-67l-94 125h38l90 -93l91 93h38z" />
    <glyph glyph-name="tcaron" unicode="&#x165;" horiz-adv-x="358" 
d="M40 489v36h74v132l41 20v-152h146v-36h-146v-403c0 -45 21 -59 53 -59s90 20 111 29l18 -34c-18 -8 -81 -33 -128 -33c-46 0 -95 16 -95 102v398h-74zM228 692v81h60l11 -81l-57 -108l-21 20l37 88h-30z" />
    <glyph glyph-name="Tbar" unicode="&#x166;" horiz-adv-x="574" 
d="M146 240v36h119v384h-229v40h502v-40h-229v-384h118v-36h-118v-240h-44v240h-119z" />
    <glyph glyph-name="tbar" unicode="&#x167;" horiz-adv-x="358" 
d="M40 489v36h74v132l41 20v-152h146v-36h-146v-158h115v-36h-115v-209c0 -45 21 -59 53 -59s90 20 111 29l18 -34c-18 -8 -81 -33 -128 -33c-46 0 -95 16 -95 102v204h-54v36h54v158h-74z" />
    <glyph glyph-name="Utilde" unicode="&#x168;" horiz-adv-x="695" 
d="M240 768l-32 12c23 44 43 71 81 71c48 0 86 -49 118 -49c16 0 27 6 49 46l32 -12c-22 -44 -43 -71 -81 -71c-48 0 -86 49 -118 49c-16 0 -27 -6 -49 -46zM591 700v-462c0 -140 -63 -249 -243 -249c-182 0 -244 109 -244 249v462h44v-459c0 -117 36 -212 200 -212
c162 0 199 95 199 212v459h44z" />
    <glyph glyph-name="utilde" unicode="&#x169;" horiz-adv-x="595" 
d="M459 0v81c-35 -27 -132 -92 -226 -92c-114 0 -143 78 -143 159v377h42v-373c0 -69 22 -125 105 -125c84 0 184 67 222 99v399h42v-525h-42zM198 617l-32 12c23 44 43 71 81 71c48 0 86 -49 118 -49c16 0 27 6 49 46l32 -12c-22 -44 -43 -71 -81 -71c-48 0 -86 49 -118 49
c-16 0 -27 -6 -49 -46z" />
    <glyph glyph-name="Umacron" unicode="&#x16a;" horiz-adv-x="695" 
d="M591 700v-462c0 -140 -63 -249 -243 -249c-182 0 -244 109 -244 249v462h44v-459c0 -117 36 -212 200 -212c162 0 199 95 199 212v459h44zM207 780v36h282v-36h-282z" />
    <glyph glyph-name="umacron" unicode="&#x16b;" horiz-adv-x="595" 
d="M459 0v81c-35 -27 -132 -92 -226 -92c-114 0 -143 78 -143 159v377h42v-373c0 -69 22 -125 105 -125c84 0 184 67 222 99v399h42v-525h-42zM154 629v36h282v-36h-282z" />
    <glyph glyph-name="Ubreve" unicode="&#x16c;" horiz-adv-x="695" 
d="M347 755c-81 0 -128 38 -128 97h39c0 -44 35 -60 89 -60s90 16 90 60h39c0 -59 -48 -97 -129 -97zM591 700v-462c0 -140 -63 -249 -243 -249c-182 0 -244 109 -244 249v462h44v-459c0 -117 36 -212 200 -212c162 0 199 95 199 212v459h44z" />
    <glyph glyph-name="ubreve" unicode="&#x16d;" horiz-adv-x="595" 
d="M459 0v81c-35 -27 -132 -92 -226 -92c-114 0 -143 78 -143 159v377h42v-373c0 -69 22 -125 105 -125c84 0 184 67 222 99v399h42v-525h-42zM294 604c-81 0 -128 38 -128 97h39c0 -44 35 -60 89 -60s90 16 90 60h39c0 -59 -48 -97 -129 -97z" />
    <glyph glyph-name="Uring" unicode="&#x16e;" horiz-adv-x="695" 
d="M251 843c0 55 43 99 98 99s99 -44 99 -99s-44 -98 -99 -98s-98 43 -98 98zM284 843c0 -37 28 -65 65 -65s66 28 66 65s-29 66 -66 66s-65 -29 -65 -66zM591 700v-462c0 -140 -63 -249 -243 -249c-182 0 -244 109 -244 249v462h44v-459c0 -117 36 -212 200 -212
c162 0 199 95 199 212v459h44z" />
    <glyph glyph-name="uring" unicode="&#x16f;" horiz-adv-x="595" 
d="M459 0v81c-35 -27 -132 -92 -226 -92c-114 0 -143 78 -143 159v377h42v-373c0 -69 22 -125 105 -125c84 0 184 67 222 99v399h42v-525h-42zM197 692c0 55 43 99 98 99s99 -44 99 -99s-44 -98 -99 -98s-98 43 -98 98zM230 692c0 -37 28 -65 65 -65s66 28 66 65
s-29 66 -66 66s-65 -29 -65 -66z" />
    <glyph glyph-name="Uhungarumlaut" unicode="&#x170;" horiz-adv-x="695" 
d="M591 700v-462c0 -140 -63 -249 -243 -249c-182 0 -244 109 -244 249v462h44v-459c0 -117 36 -212 200 -212c162 0 199 95 199 212v459h44zM411 755h-30l76 125h71zM276 755h-31l77 125h71z" />
    <glyph glyph-name="uhungarumlaut" unicode="&#x171;" horiz-adv-x="595" 
d="M459 0v81c-35 -27 -132 -92 -226 -92c-114 0 -143 78 -143 159v377h42v-373c0 -69 22 -125 105 -125c84 0 184 67 222 99v399h42v-525h-42zM223 604h-30l76 125h72zM358 604h-30l76 125h71z" />
    <glyph glyph-name="Uogonek" unicode="&#x172;" horiz-adv-x="695" 
d="M336 -97c0 -44 51 -40 82 -40l-8 -38c-36 0 -119 0 -119 72c0 36 35 68 80 93c-7 0 -15 -1 -23 -1c-182 0 -244 109 -244 249v462h44v-459c0 -117 36 -212 200 -212c162 0 199 95 199 212v459h44v-462c0 -114 -42 -207 -154 -238c-38 -22 -101 -52 -101 -97z" />
    <glyph glyph-name="uogonek" unicode="&#x173;" horiz-adv-x="595" 
d="M396 -97c0 -44 50 -40 82 -40l-9 -38c-35 0 -118 0 -118 72c0 43 49 81 107 106v78c-35 -27 -132 -92 -226 -92c-114 0 -143 78 -143 159v377h42v-373c0 -69 22 -125 105 -125c84 0 184 67 222 99v399h42v-525h-4c-37 -22 -100 -52 -100 -97z" />
    <glyph glyph-name="Wcircumflex" unicode="&#x174;" horiz-adv-x="923" 
d="M631 0l-170 638l-169 -638h-54l-193 700h47l173 -655l171 655h51l171 -653l174 653h47l-194 -700h-54zM495 880l95 -125h-38l-91 93l-90 -93h-38l95 125h67z" />
    <glyph glyph-name="wcircumflex" unicode="&#x175;" horiz-adv-x="796" 
d="M542 0l-144 472l-144 -472h-46l-166 525h45l144 -476l143 476h48l143 -476l144 476h45l-167 -525h-45zM431 729l96 -125h-38l-91 93l-90 -93h-38l95 125h66z" />
    <glyph glyph-name="ycircumflex" unicode="&#x177;" horiz-adv-x="540" 
d="M37 525h47l186 -474l185 474h48l-298 -729h-48l92 207zM303 729l96 -125h-38l-91 93l-90 -93h-38l94 125h67z" />
    <glyph glyph-name="Ydieresis" unicode="&#x178;" horiz-adv-x="617" 
d="M286 0v278l-258 422h50l230 -387h1l230 387h50l-259 -424v-276h-44zM198 765v78h61v-78h-61zM359 765v78h59v-78h-59z" />
    <glyph glyph-name="Zacute" unicode="&#x179;" horiz-adv-x="608" 
d="M548 663l-450 -623h455v-40h-505v38l448 622h-425v40h477v-37zM284 755h-37l121 125h79z" />
    <glyph glyph-name="zacute" unicode="&#x17a;" horiz-adv-x="486" 
d="M49 0v39l333 448h-323v38h374v-39l-332 -448h332v-38h-384zM216 604h-38l121 125h79z" />
    <glyph glyph-name="Zdotaccent" unicode="&#x17b;" horiz-adv-x="608" 
d="M548 663l-450 -623h455v-40h-505v38l448 622h-425v40h477v-37zM279 764v78h61v-78h-61z" />
    <glyph glyph-name="zdotaccent" unicode="&#x17c;" horiz-adv-x="486" 
d="M49 0v39l333 448h-323v38h374v-39l-332 -448h332v-38h-384zM209 614v78h61v-78h-61z" />
    <glyph glyph-name="Zcaron" unicode="&#x17d;" horiz-adv-x="608" 
d="M548 663l-450 -623h455v-40h-505v38l448 622h-425v40h477v-37zM439 880l-96 -125h-67l-95 125h38l90 -93l92 93h38z" />
    <glyph glyph-name="zcaron" unicode="&#x17e;" horiz-adv-x="486" 
d="M49 0v39l333 448h-323v38h374v-39l-332 -448h332v-38h-384zM370 729l-96 -125h-67l-94 125h38l90 -93l91 93h38z" />
    <glyph glyph-name="longs" unicode="&#x17f;" horiz-adv-x="269" 
d="M40 489v36h74v102c0 86 49 102 95 102c42 0 116 -22 140 -30l-18 -33c-24 7 -94 25 -123 25c-32 0 -53 -14 -53 -59v-632h-41v489h-74z" />
    <glyph glyph-name="florin" unicode="&#x192;" horiz-adv-x="509" 
d="M134 489l10 36h73l25 102c21 86 56 102 110 102c52 0 119 -25 143 -33l-25 -31c-21 7 -87 26 -118 26c-32 0 -56 -14 -67 -59l-26 -107h146l-8 -36h-146l-167 -693h-41l166 693h-75z" />
    <glyph glyph-name="AEacute" unicode="&#x1fc;" horiz-adv-x="971" 
d="M908 0h-418v193h-304l-132 -193h-51l486 700h412v-40h-367v-290h306v-40h-306v-290h374v-40zM213 233h277v404zM505 755h-38l121 125h80z" />
    <glyph glyph-name="aeacute" unicode="&#x1fd;" horiz-adv-x="917" 
d="M845 248h-389c5 -133 77 -221 172 -221c80 0 158 50 199 76l27 -32c-52 -31 -131 -82 -225 -82c-72 0 -138 35 -178 104c-55 -56 -133 -104 -222 -104c-74 0 -171 35 -171 165c0 125 88 173 175 173c60 0 136 -23 179 -35c2 36 9 67 19 95c-4 72 -32 111 -120 111
c-62 0 -130 -24 -198 -48l-19 36c80 30 153 50 217 50c73 0 130 -26 152 -89c43 59 107 89 180 89c136 0 208 -95 208 -224c0 -36 -6 -64 -6 -64zM435 127c-15 35 -23 78 -24 127c-43 11 -107 34 -159 34c-116 0 -150 -66 -150 -135c0 -89 56 -123 130 -123
c86 0 149 44 203 97zM641 498c-107 0 -178 -84 -185 -213h350c4 151 -62 213 -165 213zM430 604h-37l121 125h79z" />
    <glyph glyph-name="Oslashacute" unicode="&#x1fe;" horiz-adv-x="724" 
d="M640 700l-62 -85c51 -66 73 -161 73 -265c0 -196 -77 -361 -289 -361c-83 0 -145 25 -190 67l-41 -56h-46l61 85c-51 66 -72 161 -72 265c0 198 76 361 288 361c83 0 145 -25 190 -68l41 57h47zM362 29c184 0 243 145 243 321c0 89 -15 169 -54 228l-354 -486
c38 -40 91 -63 165 -63zM120 350c0 -89 15 -170 53 -228l354 486c-38 39 -92 63 -165 63c-183 0 -242 -145 -242 -321zM337 755h-38l121 125h79z" />
    <glyph glyph-name="oslashacute" unicode="&#x1ff;" horiz-adv-x="588" 
d="M514 525l-48 -64c39 -47 59 -116 59 -199c0 -168 -81 -273 -231 -273c-61 0 -110 16 -147 47l-27 -36h-46l47 63c-38 47 -58 115 -58 199c0 168 80 274 231 274c60 0 109 -17 146 -48l28 37h46zM107 262c0 -68 12 -124 40 -165l269 359c-29 27 -70 42 -122 42
c-132 0 -187 -95 -187 -236zM481 262c0 67 -13 124 -40 165l-270 -359c30 -27 70 -41 123 -41c132 0 187 94 187 235zM269 604h-37l120 125h80z" />
    <glyph glyph-name="Scommaaccent" unicode="&#x218;" horiz-adv-x="598" 
d="M270 -148v81h60l11 -81l-58 -108l-21 20l37 88h-29zM301 387c109 -34 239 -80 239 -216c0 -129 -118 -182 -223 -182c-94 0 -196 43 -258 79l23 36c62 -36 155 -75 239 -75c89 0 176 45 176 140c0 98 -91 139 -208 176c-102 32 -214 69 -214 192c0 117 101 174 207 174
c77 0 170 -30 228 -61l-22 -35c-63 33 -146 56 -207 56c-83 0 -162 -40 -162 -132c0 -95 83 -121 182 -152z" />
    <glyph glyph-name="scommaaccent" unicode="&#x219;" horiz-adv-x="498" 
d="M220 -148v81h60l10 -81l-57 -108l-21 20l37 88h-29zM253 290c125 -33 191 -78 191 -162c0 -100 -93 -139 -178 -139c-83 0 -163 35 -211 62l23 34c49 -28 122 -58 185 -58c66 0 139 30 139 100c0 79 -99 105 -163 123c-79 22 -173 50 -173 150c0 91 78 136 171 136
c72 0 139 -27 185 -51l-23 -33c-49 25 -109 46 -164 46c-71 0 -128 -33 -128 -96c0 -78 97 -99 146 -112z" />
    <glyph glyph-name="uni021a" unicode="&#x21a;" horiz-adv-x="562" 
d="M250 -148v81h60l11 -81l-57 -108l-22 20l38 88h-30zM532 660h-229v-660h-44v660h-229v40h502v-40z" />
    <glyph glyph-name="uni021b" unicode="&#x21b;" horiz-adv-x="358" 
d="M40 489v36h74v132l41 20v-152h146v-36h-146v-403c0 -45 21 -59 53 -59s90 20 111 29l18 -34c-18 -8 -81 -33 -128 -33c-46 0 -95 16 -95 102v398h-74zM137 -148v81h60l11 -81l-58 -108l-21 20l37 88h-29z" />
    <glyph glyph-name="hsuperior" unicode="&#x2b0;" horiz-adv-x="392" 
d="M101 822v-169c23 17 81 54 140 54c72 0 91 -46 91 -97v-225h-39v219c0 39 -13 70 -61 70c-50 0 -108 -36 -131 -55v-234h-39v437h39z" />
    <glyph glyph-name="jsuperior" unicode="&#x2b2;" horiz-adv-x="163" 
d="M58 768v53h46v-53h-46zM101 700v-333c0 -62 0 -81 -101 -107l-13 30c75 23 75 28 75 76v334h39z" />
    <glyph glyph-name="wsuperior" unicode="&#x2b7;" horiz-adv-x="514" 
d="M343 385l-86 269l-86 -269h-39l-105 315h42l83 -274l85 274h40l84 -274l84 274h42l-103 -315h-41z" />
    <glyph glyph-name="ysuperior" unicode="&#x2b8;" horiz-adv-x="351" 
d="M23 700h43l109 -268l110 268h43l-186 -437h-44l57 125z" />
    <glyph glyph-name="circumflex" unicode="&#x2c6;" horiz-adv-x="257" 
d="M161 729l96 -125h-38l-91 93l-90 -93h-38l95 125h66z" />
    <glyph glyph-name="caron" unicode="&#x2c7;" horiz-adv-x="257" 
d="M257 729l-96 -125h-66l-95 125h38l90 -93l91 93h38z" />
    <glyph glyph-name="breve" unicode="&#x2d8;" horiz-adv-x="257" 
d="M128 604c-81 0 -128 38 -128 97h39c0 -44 35 -60 89 -60s90 16 90 60h39c0 -59 -48 -97 -129 -97z" />
    <glyph glyph-name="dotaccent" unicode="&#x2d9;" horiz-adv-x="61" 
d="M0 614v78h61v-78h-61z" />
    <glyph glyph-name="ring" unicode="&#x2da;" horiz-adv-x="197" 
d="M0 692c0 55 43 99 98 99s99 -44 99 -99s-44 -98 -99 -98s-98 43 -98 98zM33 692c0 -37 28 -65 65 -65s66 28 66 65s-29 66 -66 66s-65 -29 -65 -66z" />
    <glyph glyph-name="ogonek" unicode="&#x2db;" horiz-adv-x="148" 
d="M45 -97c0 -44 50 -40 82 -40l-8 -38c-36 0 -119 0 -119 72c0 47 61 88 125 114l23 -10c-38 -22 -103 -53 -103 -98z" />
    <glyph glyph-name="tilde" unicode="&#x2dc;" horiz-adv-x="280" 
d="M32 617l-32 12c23 44 43 71 81 71c48 0 86 -49 118 -49c16 0 27 6 49 46l32 -12c-22 -44 -43 -71 -81 -71c-48 0 -86 49 -118 49c-16 0 -27 -6 -49 -46z" />
    <glyph glyph-name="hungarumlaut" unicode="&#x2dd;" horiz-adv-x="283" 
d="M165 604h-29l75 125h72zM31 604h-31l77 125h71z" />
    <glyph glyph-name="xsuperior" unicode="&#x2e3;" horiz-adv-x="377" 
d="M189 566l107 134h49l-133 -156l140 -159h-49l-114 136l-113 -136h-50l140 158l-134 157h49z" />
    <glyph glyph-name="pi" unicode="&#x3c0;" horiz-adv-x="558" 
d="M517 525v-40h-91v-485h-44v485h-205v-485h-45v485h-91v40h476z" />
    <glyph glyph-name="Wgrave" unicode="&#x1e80;" horiz-adv-x="923" 
d="M631 0l-170 638l-169 -638h-54l-193 700h47l173 -655l171 655h51l171 -653l174 653h47l-194 -700h-54zM525 755h-38l-162 125h78z" />
    <glyph glyph-name="wgrave" unicode="&#x1e81;" horiz-adv-x="796" 
d="M542 0l-144 472l-144 -472h-46l-166 525h45l144 -476l143 476h48l143 -476l144 476h45l-167 -525h-45zM461 604h-37l-163 125h78z" />
    <glyph glyph-name="Wacute" unicode="&#x1e82;" horiz-adv-x="923" 
d="M631 0l-170 638l-169 -638h-54l-193 700h47l173 -655l171 655h51l171 -653l174 653h47l-194 -700h-54zM436 755h-37l121 125h79z" />
    <glyph glyph-name="wacute" unicode="&#x1e83;" horiz-adv-x="796" 
d="M542 0l-144 472l-144 -472h-46l-166 525h45l144 -476l143 476h48l143 -476l144 476h45l-167 -525h-45zM373 604h-38l121 125h80z" />
    <glyph glyph-name="Wdieresis" unicode="&#x1e84;" horiz-adv-x="923" 
d="M631 0l-170 638l-169 -638h-54l-193 700h47l173 -655l171 655h51l171 -653l174 653h47l-194 -700h-54zM352 765v78h61v-78h-61zM513 765v78h59v-78h-59z" />
    <glyph glyph-name="wdieresis" unicode="&#x1e85;" horiz-adv-x="796" 
d="M542 0l-144 472l-144 -472h-46l-166 525h45l144 -476l143 476h48l143 -476l144 476h45l-167 -525h-45zM288 614v78h61v-78h-61zM448 614v78h60v-78h-60z" />
    <glyph glyph-name="Ygrave" unicode="&#x1ef2;" horiz-adv-x="617" 
d="M286 0v278l-258 422h50l230 -387h1l230 387h50l-259 -424v-276h-44zM372 755h-37l-163 125h78z" />
    <glyph glyph-name="ygrave" unicode="&#x1ef3;" horiz-adv-x="540" 
d="M37 525h47l186 -474l185 474h48l-298 -729h-48l92 207zM333 604h-37l-163 125h78z" />
    <glyph glyph-name="endash" unicode="&#x2013;" horiz-adv-x="568" 
d="M481 264h-394v42h394v-42z" />
    <glyph glyph-name="emdash" unicode="&#x2014;" horiz-adv-x="671" 
d="M584 264h-497v42h497v-42z" />
    <glyph glyph-name="quoteleft" unicode="&#x2018;" horiz-adv-x="224" 
d="M141 602v-91h-58l-11 91l56 118l21 -20l-37 -98h29z" />
    <glyph glyph-name="quoteright" unicode="&#x2019;" horiz-adv-x="217" 
d="M83 609v91h58l11 -91l-56 -118l-21 20l37 98h-29z" />
    <glyph glyph-name="quotesinglbase" unicode="&#x201a;" horiz-adv-x="232" 
d="M85 0v91h58l11 -91l-56 -118l-21 20l37 98h-29z" />
    <glyph glyph-name="quotedblleft" unicode="&#x201c;" horiz-adv-x="381" 
d="M141 602v-91h-58l-11 91l56 118l21 -20l-37 -98h29zM298 602v-91h-59l-11 91l57 118l21 -20l-37 -98h29z" />
    <glyph glyph-name="quotedblright" unicode="&#x201d;" horiz-adv-x="374" 
d="M239 609v91h59l11 -91l-57 -118l-21 20l37 98h-29zM83 609v91h58l11 -91l-56 -118l-21 20l37 98h-29z" />
    <glyph glyph-name="quotedblbase" unicode="&#x201e;" horiz-adv-x="389" 
d="M241 0v91h59l11 -91l-57 -118l-21 20l37 98h-29zM85 0v91h58l11 -91l-56 -118l-21 20l37 98h-29z" />
    <glyph glyph-name="dagger" unicode="&#x2020;" horiz-adv-x="568" 
d="M37 409v44l227 -7v254h39v-254l228 7v-44l-228 6v-619h-39v619z" />
    <glyph glyph-name="daggerdbl" unicode="&#x2021;" horiz-adv-x="622" 
d="M64 409v44l227 -7v254h39v-254l228 7v-44l-228 6v-231l228 7v-44l-228 6v-357h-39v357l-227 -6v44l227 -7v231z" />
    <glyph glyph-name="bullet" unicode="&#x2022;" horiz-adv-x="419" 
d="M100 284c0 61 48 110 109 110s110 -49 110 -110s-49 -109 -110 -109s-109 48 -109 109z" />
    <glyph glyph-name="ellipsis" unicode="&#x2026;" horiz-adv-x="587" 
d="M85 0v91h61v-91h-61zM263 0v91h61v-91h-61zM441 0v91h61v-91h-61z" />
    <glyph glyph-name="perthousand" unicode="&#x2030;" horiz-adv-x="1401" 
d="M398 523c0 -126 -74 -187 -173 -187c-98 0 -172 61 -172 187c0 127 74 188 172 188c99 0 173 -61 173 -188zM354 523c0 97 -48 152 -129 152c-80 0 -128 -55 -128 -152c0 -96 48 -150 128 -150c81 0 129 54 129 150zM932 176c0 -126 -74 -187 -173 -187s-172 61 -172 187
c0 127 73 188 172 188s173 -61 173 -188zM888 176c0 97 -48 152 -129 152c-80 0 -128 -55 -128 -152c0 -96 48 -150 128 -150c81 0 129 54 129 150zM1348 176c0 -126 -74 -187 -173 -187c-98 0 -172 61 -172 187c0 127 74 188 172 188c99 0 173 -61 173 -188zM1304 176
c0 97 -48 152 -129 152c-80 0 -128 -55 -128 -152c0 -96 48 -150 128 -150c81 0 129 54 129 150zM700 700l-370 -700h-44l370 700h44z" />
    <glyph glyph-name="guilsinglleft" unicode="&#x2039;" horiz-adv-x="418" 
d="M44 301l306 228v-49l-260 -195l260 -195v-49l-306 228v32z" />
    <glyph glyph-name="guilsinglright" unicode="&#x203a;" horiz-adv-x="418" 
d="M374 301v-32l-306 -228v49l259 195l-259 195v49z" />
    <glyph glyph-name="fraction" unicode="&#x2044;" horiz-adv-x="140" 
d="M260 700l-336 -700h-43l336 700h43z" />
    <glyph glyph-name="zerosuperior" unicode="&#x2070;" horiz-adv-x="430" 
d="M215 812c106 0 160 -78 160 -217s-54 -217 -160 -217s-160 78 -160 217s54 217 160 217zM215 412c84 0 119 72 119 183s-35 183 -119 183s-118 -72 -118 -183s34 -183 118 -183z" />
    <glyph glyph-name="foursuperior" unicode="&#x2074;" horiz-adv-x="412" 
d="M36 482v31l215 292h54v-289h68v-34h-68v-97h-41v97h-228zM80 516h184v252z" />
    <glyph glyph-name="fivesuperior" unicode="&#x2075;" horiz-adv-x="382" 
d="M62 599l24 206h229v-35h-197l-13 -140c21 10 47 19 82 19c90 0 147 -61 147 -133c0 -70 -52 -138 -154 -138c-61 0 -109 26 -135 41l20 31c11 -8 61 -36 111 -36c60 0 114 40 114 102c0 54 -39 99 -110 99c-42 0 -78 -17 -95 -27z" />
    <glyph glyph-name="sixsuperior" unicode="&#x2076;" horiz-adv-x="405" 
d="M275 777c-94 0 -164 -69 -178 -175c15 17 55 50 122 50c92 0 141 -62 141 -133c0 -75 -56 -141 -149 -141c-107 0 -158 85 -158 188c0 138 91 246 221 246c32 0 57 -7 57 -7l-9 -33s-22 5 -47 5zM215 619c-62 0 -106 -38 -120 -65c2 -85 43 -141 116 -141
c72 0 108 54 108 106c0 47 -30 100 -104 100z" />
    <glyph glyph-name="sevensuperior" unicode="&#x2077;" horiz-adv-x="341" 
d="M311 775c0 0 -163 -193 -163 -390h-43c0 178 146 369 158 385h-229v35h277v-30z" />
    <glyph glyph-name="eightsuperior" unicode="&#x2078;" horiz-adv-x="407" 
d="M46 492c0 66 59 100 110 119c-38 15 -84 43 -84 100c0 62 56 101 132 101s132 -39 132 -101c0 -57 -47 -85 -85 -100c50 -19 110 -53 110 -119c0 -72 -71 -114 -157 -114c-88 0 -158 42 -158 114zM318 493c0 55 -61 83 -115 102c-54 -19 -115 -47 -115 -102
c0 -51 53 -81 116 -81s114 30 114 81zM112 708c0 -48 56 -69 91 -81c36 12 92 33 92 81c0 39 -39 71 -91 71c-54 0 -92 -32 -92 -71z" />
    <glyph glyph-name="ninesuperior" unicode="&#x2079;" horiz-adv-x="405" 
d="M129 413c93 0 164 69 178 175c-15 -17 -55 -50 -122 -50c-92 0 -140 62 -140 133c0 75 56 141 149 141c106 0 158 -85 158 -188c0 -138 -90 -246 -222 -246c-31 0 -56 7 -56 7l11 33s19 -5 44 -5zM190 571c63 0 107 38 120 65c-3 85 -43 141 -116 141
c-72 0 -108 -54 -108 -106c0 -47 29 -100 104 -100z" />
    <glyph glyph-name="plussuperior" unicode="&#x207a;" horiz-adv-x="406" 
d="M186 719h34v-118h140v-32h-140v-118h-34v118h-140v32h140v118z" />
    <glyph glyph-name="parenleftsuperior" unicode="&#x207d;" horiz-adv-x="219" 
d="M67 402v384c0 57 3 77 101 102l13 -28c-73 -22 -73 -28 -73 -74v-384c0 -46 0 -52 73 -75l-13 -28c-98 25 -101 45 -101 103z" />
    <glyph glyph-name="parenrightsuperior" unicode="&#x207e;" horiz-adv-x="219" 
d="M152 786v-384c0 -58 -4 -78 -101 -103l-13 28c73 23 73 29 73 75v384c0 46 0 52 -73 74l13 28c97 -25 101 -45 101 -102z" />
    <glyph glyph-name="nsuperior" unicode="&#x207f;" horiz-adv-x="392" 
d="M101 700v-47c23 17 81 54 140 54c72 0 91 -46 91 -97v-225h-39v219c0 39 -13 70 -61 70c-50 0 -108 -36 -131 -55v-234h-39v315h39z" />
    <glyph glyph-name="zeroinferior" unicode="&#x2080;" horiz-adv-x="430" 
d="M215 277c106 0 160 -78 160 -217s-54 -217 -160 -217s-160 78 -160 217s54 217 160 217zM215 -123c84 0 119 72 119 183s-35 183 -119 183s-118 -72 -118 -183s34 -183 118 -183z" />
    <glyph glyph-name="oneinferior" unicode="&#x2081;" horiz-adv-x="240" 
d="M167 -150h-41v378l-79 -40l-19 29l102 53h37v-420z" />
    <glyph glyph-name="twoinferior" unicode="&#x2082;" horiz-adv-x="382" 
d="M330 -115v-35h-284v31c0 89 69 126 141 173c54 35 101 68 101 117c0 41 -34 71 -93 71c-50 0 -96 -23 -116 -38l-21 28c30 20 78 45 139 45c79 0 132 -41 132 -106c0 -79 -78 -120 -152 -168c-54 -35 -87 -61 -87 -118h240z" />
    <glyph glyph-name="threeinferior" unicode="&#x2083;" horiz-adv-x="388" 
d="M40 -116l21 30c15 -10 69 -36 124 -36c62 0 112 34 112 89c0 70 -82 96 -144 96h-21v36h24c60 0 121 26 121 79c0 40 -35 64 -88 64c-49 0 -88 -21 -110 -35l-18 27c11 9 64 43 132 43c82 0 125 -47 125 -98c0 -36 -24 -77 -87 -97c61 -14 107 -57 107 -115
c0 -62 -48 -124 -149 -124c-66 0 -126 28 -149 41z" />
    <glyph glyph-name="fourinferior" unicode="&#x2084;" horiz-adv-x="412" 
d="M36 -53v31l215 292h54v-289h68v-34h-68v-97h-41v97h-228zM80 -19h184v252z" />
    <glyph glyph-name="fiveinferior" unicode="&#x2085;" horiz-adv-x="383" 
d="M63 64l24 206h229v-35h-197l-13 -140c21 10 47 19 82 19c90 0 147 -61 147 -133c0 -70 -52 -138 -154 -138c-61 0 -109 26 -135 41l20 31c11 -8 61 -36 111 -36c60 0 114 40 114 102c0 54 -39 99 -110 99c-42 0 -78 -17 -95 -27z" />
    <glyph glyph-name="sixinferior" unicode="&#x2086;" horiz-adv-x="405" 
d="M275 242c-94 0 -164 -69 -178 -175c15 17 55 50 122 50c92 0 141 -62 141 -133c0 -75 -56 -141 -149 -141c-107 0 -158 85 -158 188c0 138 91 246 221 246c32 0 57 -7 57 -7l-9 -33s-22 5 -47 5zM215 84c-62 0 -106 -38 -120 -65c2 -85 43 -141 116 -141
c72 0 108 54 108 106c0 47 -30 100 -104 100z" />
    <glyph glyph-name="seveninferior" unicode="&#x2087;" horiz-adv-x="341" 
d="M311 240c0 0 -163 -193 -163 -390h-43c0 178 146 369 158 385h-229v35h277v-30z" />
    <glyph glyph-name="eightinferior" unicode="&#x2088;" horiz-adv-x="407" 
d="M46 -43c0 66 59 100 110 119c-38 15 -84 43 -84 100c0 62 56 101 132 101s132 -39 132 -101c0 -57 -47 -85 -85 -100c50 -19 110 -53 110 -119c0 -72 -71 -114 -157 -114c-88 0 -158 42 -158 114zM318 -42c0 55 -61 83 -115 102c-54 -19 -115 -47 -115 -102
c0 -51 53 -81 116 -81s114 30 114 81zM112 173c0 -48 56 -69 91 -81c36 12 92 33 92 81c0 39 -39 71 -91 71c-54 0 -92 -32 -92 -71z" />
    <glyph glyph-name="nineinferior" unicode="&#x2089;" horiz-adv-x="405" 
d="M129 -122c93 0 164 69 178 175c-15 -17 -55 -50 -122 -50c-92 0 -140 62 -140 133c0 75 56 141 149 141c106 0 158 -85 158 -188c0 -138 -90 -246 -222 -246c-31 0 -56 7 -56 7l11 33s19 -5 44 -5zM190 36c63 0 107 38 120 65c-3 85 -43 141 -116 141
c-72 0 -108 -54 -108 -106c0 -47 29 -100 104 -100z" />
    <glyph glyph-name="parenleftinferior" unicode="&#x208d;" horiz-adv-x="217" 
d="M67 -133v384c0 57 3 77 101 102l13 -28c-73 -22 -73 -28 -73 -74v-384c0 -46 0 -52 73 -75l-13 -28c-98 25 -101 45 -101 103z" />
    <glyph glyph-name="parenrightinferior" unicode="&#x208e;" horiz-adv-x="217" 
d="M150 251v-384c0 -58 -4 -78 -101 -103l-13 28c73 23 73 29 73 75v384c0 46 0 52 -73 74l13 28c97 -25 101 -45 101 -102z" />
    <glyph glyph-name="colonmonetary" unicode="&#x20a1;" horiz-adv-x="560" 
d="M202 0h-40l25 109c-65 41 -111 123 -111 242c0 179 106 273 220 273c3 0 9 -1 10 -1l18 77h40l-19 -82c14 -3 27 -7 40 -12l22 94h41l-26 -112c30 -15 55 -33 72 -44l-26 -31c-11 7 -30 21 -55 35l-100 -432c68 9 133 57 155 72l26 -31c-37 -24 -109 -77 -190 -80
l-18 -77h-41l18 79c-14 3 -27 7 -40 12zM121 351c0 -91 30 -160 76 -200l100 435h-4c-94 0 -172 -89 -172 -235zM232 129c12 -6 26 -11 40 -13l104 450c-13 6 -26 11 -40 14z" />
    <glyph glyph-name="lira" unicode="&#x20a4;" horiz-adv-x="546" 
d="M85 325v40h87c-29 57 -75 101 -75 179c0 98 75 167 187 167c78 0 148 -34 200 -61l-25 -35c-65 33 -122 56 -177 56c-93 0 -142 -62 -142 -130c0 -70 49 -115 78 -176h186v-40h-171c4 -16 7 -33 7 -51c0 -10 -1 -20 -2 -29h166v-40h-175c-23 -79 -78 -144 -97 -165h340
v-40h-398v35s80 74 111 170h-100v40h109c1 9 2 18 2 28c0 19 -3 36 -7 52h-104z" />
    <glyph glyph-name="peseta" unicode="&#x20a7;" horiz-adv-x="652" 
d="M78 475v36h33v189h224c126 0 240 -42 248 -189h27v-36h-27c-9 -146 -123 -187 -248 -187h-180v-288h-44v475h-33zM155 660v-149h381c-7 110 -90 149 -194 149h-187zM342 328c103 0 186 38 194 147h-381v-147h187z" />
    <glyph glyph-name="uni20A9" unicode="&#x20a9;" horiz-adv-x="1008" 
d="M72 412v38h84l-69 250h47l66 -250h213l66 250h50l65 -250h214l66 250h47l-69 -250h84v-38h-95l-37 -136h132v-38h-143l-65 -238h-55l-169 637l-169 -637h-54l-66 238h-143v38h132l-37 136h-95zM604 412l36 -136h122l36 136h-194zM210 412l36 -136h121l36 136h-193z
M650 238l51 -193l51 193h-102zM256 238l51 -191l50 191h-101z" />
    <glyph glyph-name="Euro" unicode="&#x20ac;" horiz-adv-x="705" 
d="M61 415v38h68c30 181 141 258 259 258c96 0 185 -56 250 -104l-28 -31c-50 36 -135 95 -223 95c-103 0 -184 -78 -210 -218h318v-38h-324c-2 -21 -3 -42 -3 -65c0 -25 2 -49 4 -71h323v-38h-317c28 -137 108 -212 209 -212c88 0 173 59 223 95l28 -31
c-65 -48 -154 -104 -250 -104c-117 0 -226 75 -258 252h-69v38h64c-2 22 -3 46 -3 71c0 23 1 44 3 65h-64z" />
    <glyph glyph-name="uni2116" unicode="&#x2116;" horiz-adv-x="1096" 
d="M1029 494c0 -129 -59 -197 -170 -197s-170 68 -170 197c0 128 59 197 170 197s170 -69 170 -197zM563 0l-409 633v-633h-44v700h47l409 -634v634h44v-700h-47zM987 494c0 105 -37 162 -128 162s-128 -57 -128 -162c0 -106 37 -162 128 -162s128 56 128 162zM719 199v35
h280v-35h-280z" />
    <glyph glyph-name="uni2117" unicode="&#x2117;" horiz-adv-x="858" 
d="M606 432c0 -95 -61 -129 -146 -129h-90v-164h-50v421h140c85 0 146 -33 146 -128zM556 432c0 65 -42 86 -95 86h-91v-172h91c53 0 95 21 95 86zM73 350c0 202 128 361 357 361s356 -159 356 -361s-127 -361 -356 -361s-357 159 -357 361zM113 350
c0 -182 112 -323 316 -323c205 0 318 141 318 323s-113 323 -318 323c-204 0 -316 -141 -316 -323z" />
    <glyph glyph-name="servicemark" unicode="&#x2120;" horiz-adv-x="669" 
d="M540 476v168l-75 -131h-26l-75 132v-169h-38v224h40l86 -149l86 149h40v-224h-38zM202 604c38 -10 85 -26 85 -68c0 -40 -44 -64 -94 -64c-44 0 -87 16 -114 29l18 26c24 -11 63 -24 93 -24c28 0 58 10 58 31c0 25 -42 32 -86 44c-36 10 -76 24 -76 63s37 63 86 63
c40 0 78 -12 102 -24l-18 -24c-24 9 -55 17 -82 17c-26 0 -50 -9 -50 -29c0 -24 36 -28 78 -40z" />
    <glyph glyph-name="trademark" unicode="&#x2122;" horiz-adv-x="666" 
d="M536 476v168l-75 -131h-25l-76 134v-171h-38v224h41l85 -150l86 150h40v-224h-38zM280 669h-84v-193h-38v193h-82v31h204v-31z" />
    <glyph glyph-name="Omega" unicode="&#x2126;" horiz-adv-x="733" 
d="M366 711c213 0 289 -148 289 -361c0 -191 -94 -279 -148 -310h126v-40h-204v37c93 40 180 132 180 313c0 191 -59 322 -243 322c-183 0 -242 -131 -242 -322c0 -181 86 -273 180 -313v-37h-204v40h123c-51 32 -145 119 -145 310c0 213 76 361 288 361z" />
    <glyph glyph-name="onethird" unicode="&#x2153;" horiz-adv-x="794" 
d="M176 280h-41v378l-79 -40l-19 29l102 53h37v-420zM529 700l-336 -700h-43l336 700h43zM439 34l20 30c15 -10 70 -36 124 -36c62 0 113 34 113 89c0 70 -83 96 -145 96h-20v36h24c60 0 120 26 120 79c0 40 -35 64 -87 64c-49 0 -89 -21 -110 -35l-19 27c12 9 64 43 133 43
c81 0 124 -48 124 -98c0 -36 -23 -77 -87 -97c61 -14 108 -57 108 -115c0 -62 -49 -124 -150 -124c-66 0 -126 28 -148 41z" />
    <glyph glyph-name="twothirds" unicode="&#x2154;" horiz-adv-x="937" 
d="M347 315v-35h-284v31c0 89 69 126 141 173c54 35 101 68 101 117c0 41 -34 71 -93 71c-50 0 -96 -23 -116 -38l-21 28c30 20 78 45 139 45c79 0 132 -41 132 -106c0 -79 -78 -120 -152 -168c-54 -35 -87 -61 -87 -118h240zM672 700l-336 -700h-43l336 700h43zM581 34
l21 30c15 -10 70 -36 124 -36c62 0 113 34 113 89c0 70 -83 96 -145 96h-20v36h24c60 0 120 26 120 79c0 40 -35 64 -87 64c-49 0 -89 -21 -110 -35l-19 27c12 9 64 43 132 43c82 0 125 -48 125 -98c0 -36 -23 -77 -87 -97c61 -14 108 -57 108 -115
c0 -62 -49 -124 -150 -124c-66 0 -126 28 -149 41z" />
    <glyph glyph-name="oneeighth" unicode="&#x215b;" horiz-adv-x="800" 
d="M431 107c0 66 59 100 110 119c-38 15 -84 43 -84 100c0 62 56 101 132 101s132 -39 132 -101c0 -57 -47 -85 -85 -100c50 -19 109 -53 109 -119c0 -72 -70 -114 -156 -114c-88 0 -158 42 -158 114zM703 108c0 55 -61 83 -115 102c-54 -19 -115 -47 -115 -102
c0 -51 53 -81 116 -81s114 30 114 81zM529 700l-336 -700h-43l336 700h43zM497 323c0 -48 56 -69 91 -81c36 12 92 33 92 81c0 39 -39 71 -91 71c-54 0 -92 -32 -92 -71zM176 280h-41v378l-79 -40l-19 29l102 53h37v-420z" />
    <glyph glyph-name="threeeighths" unicode="&#x215c;" horiz-adv-x="927" 
d="M557 107c0 66 59 100 110 119c-38 15 -84 43 -84 100c0 62 56 101 132 101s132 -39 132 -101c0 -57 -47 -85 -85 -100c50 -19 110 -53 110 -119c0 -72 -71 -114 -157 -114c-88 0 -158 42 -158 114zM54 314l21 30c15 -10 69 -36 124 -36c62 0 112 34 112 89
c0 70 -82 96 -144 96h-21v36h24c60 0 121 26 121 79c0 40 -35 64 -88 64c-49 0 -88 -21 -110 -35l-18 27c11 9 64 43 132 43c82 0 125 -48 125 -98c0 -36 -24 -77 -87 -97c61 -14 107 -57 107 -115c0 -62 -48 -124 -149 -124c-66 0 -126 28 -149 41zM829 108
c0 55 -61 83 -115 102c-54 -19 -115 -47 -115 -102c0 -51 53 -81 116 -81s114 30 114 81zM654 700l-336 -700h-43l336 700h43zM623 323c0 -48 56 -69 91 -81c36 12 92 33 92 81c0 39 -39 71 -91 71c-54 0 -92 -32 -92 -71z" />
    <glyph glyph-name="fiveeighths" unicode="&#x215d;" horiz-adv-x="904" 
d="M534 107c0 66 59 100 110 119c-38 15 -84 43 -84 100c0 62 56 101 132 101s132 -39 132 -101c0 -57 -47 -85 -85 -100c50 -19 110 -53 110 -119c0 -72 -70 -114 -157 -114s-158 42 -158 114zM75 494l24 206h229v-35h-197l-13 -140c21 10 47 19 82 19
c90 0 147 -61 147 -133c0 -70 -52 -138 -154 -138c-61 0 -109 26 -135 41l20 31c11 -8 61 -36 111 -36c60 0 114 40 114 102c0 54 -39 99 -110 99c-42 0 -78 -17 -95 -27zM807 108c0 55 -62 83 -116 102c-53 -19 -114 -47 -114 -102c0 -51 52 -81 115 -81s115 30 115 81z
M633 700l-336 -700h-43l336 700h43zM600 323c0 -48 56 -69 91 -81c36 12 92 33 92 81c0 39 -38 71 -91 71s-92 -32 -92 -71z" />
    <glyph glyph-name="seveneighths" unicode="&#x215e;" horiz-adv-x="814" 
d="M445 107c0 66 59 100 109 119c-38 15 -84 43 -84 100c0 62 57 101 132 101c76 0 132 -39 132 -101c0 -57 -47 -85 -85 -100c50 -19 110 -53 110 -119c0 -72 -70 -114 -157 -114s-157 42 -157 114zM717 108c0 55 -62 83 -116 102c-53 -19 -114 -47 -114 -102
c0 -51 52 -81 115 -81c64 0 115 30 115 81zM543 700l-336 -700h-43l336 700h43zM317 670c0 0 -163 -193 -163 -390h-43c0 178 146 369 158 385h-229v35h277v-30zM510 323c0 -48 56 -69 91 -81c36 12 92 33 92 81c0 39 -38 71 -91 71s-92 -32 -92 -71z" />
    <glyph glyph-name="partialdiff" unicode="&#x2202;" horiz-adv-x="603" 
d="M475 391c-25 117 -109 271 -274 271c-40 0 -72 -9 -72 -9l-12 35s36 12 85 12c186 0 326 -172 326 -424c0 -229 -115 -287 -229 -287c-147 0 -236 96 -236 243s89 244 226 244c135 0 186 -85 186 -85zM483 233c0 132 -69 205 -188 205c-121 0 -188 -83 -188 -206
c0 -126 69 -205 188 -205c114 0 188 73 188 206z" />
    <glyph glyph-name="Delta" unicode="&#x2206;" horiz-adv-x="658" 
d="M629 0h-600l273 700h53zM565 40l-236 601l-237 -601h473z" />
    <glyph glyph-name="product" unicode="&#x220f;" horiz-adv-x="682" 
d="M644 700v-40h-113v-660h-44v660h-292v-660h-44v660h-113v40h606z" />
    <glyph glyph-name="summation" unicode="&#x2211;" horiz-adv-x="538" 
d="M62 700h410v-40h-363l296 -310l-296 -310h363v-40h-410v52l282 298l-282 298v52z" />
    <glyph glyph-name="minus" unicode="&#x2212;" horiz-adv-x="600" 
d="M53 314v38h494v-38h-494z" />
    <glyph glyph-name="radical" unicode="&#x221a;" horiz-adv-x="550" 
d="M525 700l-301 -700h-6l-180 340h47l132 -251l259 611h49z" />
    <glyph glyph-name="infinity" unicode="&#x221e;" horiz-adv-x="932" 
d="M243 408c101 0 166 -71 223 -123c56 53 121 123 223 123c99 0 170 -68 170 -150s-71 -150 -171 -150c-85 0 -142 48 -222 122c-69 -65 -131 -122 -223 -122c-100 0 -170 68 -170 150s70 150 170 150zM692 368c-70 0 -124 -44 -196 -110c52 -47 113 -110 197 -110
s120 64 120 110c0 45 -35 110 -121 110zM239 148c83 0 145 63 196 110c-72 67 -125 110 -195 110c-86 0 -120 -65 -120 -110c0 -46 35 -110 119 -110z" />
    <glyph glyph-name="integral" unicode="&#x222b;" horiz-adv-x="392" 
d="M174 84v558c0 143 37 197 180 197h13v-40h-24c-126 0 -125 -71 -125 -187v-558c0 -143 -37 -197 -180 -197h-13v40h24c126 0 125 71 125 187z" />
    <glyph glyph-name="approxequal" unicode="&#x2248;" horiz-adv-x="600" 
d="M91 371l-38 15c35 69 83 91 133 91c94 0 152 -70 235 -70c30 0 59 9 89 64l38 -15c-35 -69 -83 -91 -133 -91c-94 0 -152 70 -235 70c-30 0 -59 -9 -89 -64zM91 197l-38 15c35 69 83 91 133 91c94 0 152 -70 235 -70c30 0 59 9 89 64l38 -15c-35 -69 -83 -91 -133 -91
c-94 0 -152 70 -235 70c-30 0 -59 -9 -89 -64z" />
    <glyph glyph-name="notequal" unicode="&#x2260;" horiz-adv-x="600" 
d="M52 402v38h272l76 177l34 -14l-71 -163h183v-38h-200l-59 -136h259v-38h-275l-76 -175l-32 14l69 161h-180v38h197l58 136h-255z" />
    <glyph glyph-name="lessequal" unicode="&#x2264;" horiz-adv-x="600" 
d="M544 489l-441 -184l441 -184v-48l-493 213v38l493 213v-48zM50 0v38h494v-38h-494z" />
    <glyph glyph-name="greaterequal" unicode="&#x2265;" horiz-adv-x="600" 
d="M548 324v-38l-493 -213v48l441 184l-441 184v48zM549 38v-38h-494v38h494z" />
    <glyph glyph-name="uni2318" unicode="&#x2318;" horiz-adv-x="831" 
d="M616 40c-75 0 -135 56 -135 126v84h-130v-84c0 -70 -61 -126 -135 -126c-76 0 -137 56 -137 126c0 69 61 126 137 126h91v118h-91c-76 0 -137 57 -137 126c0 70 61 126 137 126c74 0 135 -56 135 -126v-84h130v84c0 70 60 126 135 126c76 0 136 -56 136 -126
c0 -69 -60 -126 -136 -126h-91v-118h91c76 0 136 -57 136 -126c0 -70 -60 -126 -136 -126zM616 250h-91v-84c0 -47 41 -84 91 -84s92 37 92 84c0 46 -42 84 -92 84zM307 250h-91c-52 0 -93 -38 -93 -84c0 -47 41 -84 93 -84c50 0 91 37 91 84v84zM351 410v-118h130v118h-130
zM525 536v-84h91c50 0 92 38 92 84c0 47 -42 84 -92 84s-91 -37 -91 -84zM216 452h91v84c0 47 -41 84 -91 84c-52 0 -93 -37 -93 -84c0 -46 41 -84 93 -84z" />
    <glyph glyph-name="lozenge" unicode="&#x25ca;" horiz-adv-x="536" 
d="M300 0h-61l-192 350l192 350h61l193 -350zM441 350l-172 313l-171 -313l171 -314z" />
    <glyph glyph-name="commaaccent" unicode="&#xf6c3;" horiz-adv-x="61" 
d="M8 -148v81h60l10 -81l-57 -108l-21 20l37 88h-29z" />
    <glyph glyph-name="centinferior" unicode="&#xf6df;" horiz-adv-x="366" 
d="M212 -150h-33v47c-69 5 -131 60 -131 163c0 104 62 158 131 163v47h33v-48c45 -7 84 -32 107 -45l-21 -28c-14 8 -50 31 -86 38v-254c36 7 72 30 86 38l21 -29c-23 -12 -62 -37 -107 -44v-48zM89 60c0 -74 39 -123 90 -129v258c-51 -6 -90 -54 -90 -129z" />
    <glyph glyph-name="centsuperior" unicode="&#xf6e0;" horiz-adv-x="366" 
d="M212 385h-33v46c-69 5 -131 61 -131 164c0 104 62 158 131 163v47h33v-48c45 -7 84 -32 107 -45l-21 -28c-14 8 -50 31 -86 38v-255c36 8 72 30 86 39l21 -29c-23 -12 -62 -37 -107 -44v-48zM89 595c0 -75 39 -123 90 -129v258c-51 -6 -90 -54 -90 -129z" />
    <glyph glyph-name="commainferior" unicode="&#xf6e1;" horiz-adv-x="177" 
d="M63 -150v64h48l8 -66l-44 -74l-16 16l27 60h-23z" />
    <glyph glyph-name="commasuperior" unicode="&#xf6e2;" horiz-adv-x="177" 
d="M63 385v64h48l8 -66l-44 -74l-16 16l27 60h-23z" />
    <glyph glyph-name="dollarinferior" unicode="&#xf6e3;" horiz-adv-x="398" 
d="M215 -210h-32v54c-55 7 -108 29 -142 49l21 31c31 -18 77 -38 121 -44v172c-60 18 -132 42 -132 116c0 69 60 107 132 109v54h32v-56c44 -5 92 -21 123 -36l-19 -31c-31 15 -70 27 -104 32v-157c64 -20 141 -48 141 -127c0 -76 -70 -112 -141 -113v-53zM315 -47
c0 46 -43 69 -100 88v-163c50 0 100 24 100 75zM93 171c0 -46 38 -63 90 -79v150c-47 -2 -90 -24 -90 -71z" />
    <glyph glyph-name="dollarsuperior" unicode="&#xf6e4;" horiz-adv-x="398" 
d="M215 325h-32v54c-55 7 -108 29 -142 49l21 31c31 -18 77 -38 121 -44v172c-60 18 -132 42 -132 116c0 69 60 107 132 109v54h32v-56c44 -5 92 -21 123 -36l-19 -31c-31 15 -70 27 -104 32v-157c64 -20 141 -48 141 -127c0 -76 -70 -112 -141 -113v-53zM315 488
c0 46 -43 69 -100 88v-163c50 0 100 24 100 75zM93 706c0 -46 38 -63 90 -79v150c-47 -2 -90 -24 -90 -71z" />
    <glyph glyph-name="periodinferior" unicode="&#xf6e7;" horiz-adv-x="175" 
d="M63 -150v64h49v-64h-49z" />
    <glyph glyph-name="periodsuperior" unicode="&#xf6e8;" horiz-adv-x="175" 
d="M63 385v64h49v-64h-49z" />
    <glyph glyph-name="asuperior" unicode="&#xf6e9;" horiz-adv-x="373" 
d="M274 385v44c-25 -23 -70 -51 -126 -51c-50 0 -109 25 -109 100c0 73 54 104 113 104c37 0 94 -13 122 -18v39c0 47 -17 72 -73 72c-38 0 -80 -14 -124 -28l-15 30c53 18 101 30 142 30c66 0 109 -28 109 -100v-222h-39zM156 412c49 0 86 22 118 50v76
c-24 5 -71 15 -106 15c-67 0 -88 -35 -88 -74c0 -48 32 -67 76 -67z" />
    <glyph glyph-name="bsuperior" unicode="&#xf6ea;" horiz-adv-x="391" 
d="M62 385v437h39v-165c26 22 65 50 119 50c68 0 125 -47 125 -165c0 -117 -57 -164 -125 -164c-54 0 -93 27 -119 50v-43h-39zM216 674c-46 0 -88 -26 -115 -54v-156c27 -28 69 -53 115 -53c59 0 89 50 89 131c0 82 -30 132 -89 132z" />
    <glyph glyph-name="dsuperior" unicode="&#xf6eb;" horiz-adv-x="391" 
d="M329 385h-39v43c-25 -23 -66 -50 -119 -50c-68 0 -125 47 -125 164c0 118 57 165 125 165c53 0 94 -28 119 -50v165h39v-437zM176 411c46 0 86 26 114 54v155c-28 28 -68 54 -114 54c-59 0 -89 -50 -89 -132c0 -81 30 -131 89 -131z" />
    <glyph glyph-name="esuperior" unicode="&#xf6ec;" horiz-adv-x="378" 
d="M327 532h-241c3 -74 45 -122 102 -122c48 0 96 28 124 44l21 -26c-31 -18 -85 -50 -146 -50c-77 0 -142 56 -142 165c0 106 65 164 151 164c88 0 135 -58 135 -136c0 -22 -4 -39 -4 -39zM194 675c-63 0 -103 -45 -108 -116h205c2 81 -36 116 -97 116z" />
    <glyph glyph-name="isuperior" unicode="&#xf6ed;" horiz-adv-x="164" 
d="M103 385h-40v315h40v-315zM60 768v53h46v-53h-46z" />
    <glyph glyph-name="lsuperior" unicode="&#xf6ee;" horiz-adv-x="163" 
d="M101 385h-39v437h39v-437z" />
    <glyph glyph-name="msuperior" unicode="&#xf6ef;" horiz-adv-x="591" 
d="M101 700v-49c24 22 74 56 125 56c57 0 78 -33 86 -60c22 21 74 60 130 60c69 0 89 -46 89 -97v-225h-39v219c0 38 -13 70 -60 70c-44 0 -91 -35 -116 -59v-230h-40v219c0 38 -12 70 -59 70c-45 0 -91 -34 -116 -58v-231h-39v315h39z" />
    <glyph glyph-name="osuperior" unicode="&#xf6f0;" horiz-adv-x="391" 
d="M346 542c0 -101 -53 -164 -151 -164s-150 63 -150 164c0 102 52 165 150 165s151 -63 151 -165zM306 542c0 80 -33 132 -111 132s-110 -52 -110 -132c0 -79 32 -131 110 -131s111 52 111 131z" />
    <glyph glyph-name="rsuperior" unicode="&#xf6f1;" horiz-adv-x="254" 
d="M101 700v-68c4 10 38 78 126 72v-37c-113 0 -126 -99 -126 -99v-183h-39v315h39z" />
    <glyph glyph-name="ssuperior" unicode="&#xf6f2;" horiz-adv-x="335" 
d="M176 563c76 -19 120 -46 120 -99c0 -60 -57 -86 -117 -86c-53 0 -108 22 -139 38l18 29c32 -17 80 -35 118 -35c41 0 81 16 81 53c0 43 -58 56 -99 67c-51 13 -112 32 -112 92c0 55 49 85 113 85c48 0 93 -17 123 -32l-19 -27c-30 15 -69 28 -103 28
c-43 0 -76 -18 -76 -52c0 -42 59 -53 92 -61z" />
    <glyph glyph-name="tsuperior" unicode="&#xf6f3;" horiz-adv-x="258" 
d="M30 669v31h46v79l40 12v-91h91v-31h-91v-222c0 -27 12 -35 31 -35c20 0 54 12 66 17l16 -30c-13 -5 -54 -21 -86 -21c-35 0 -67 15 -67 71v220h-46z" />
    <glyph glyph-name="apple" unicode="&#xf8ff;" horiz-adv-x="857" 
d="M745 327c-13 -5 -13 -16 -3 -23l28 -20c11 -7 10 -15 -3 -18l-34 -6c-14 -2 -16 -12 -7 -22l24 -24c8 -9 6 -17 -8 -17l-35 2c-13 0 -18 -9 -10 -20l18 -30c7 -11 2 -17 -11 -15l-34 9c-12 4 -19 -5 -15 -17l11 -33c5 -12 -1 -18 -13 -12l-31 15c-11 6 -20 0 -19 -14
l5 -33c1 -14 -5 -17 -15 -9l-28 21c-10 8 -20 3 -21 -10l-2 -34c-1 -13 -9 -15 -17 -6l-23 27c-9 9 -18 8 -22 -5l-10 -33c-3 -13 -12 -13 -18 -2l-17 30c-6 12 -15 12 -23 0l-15 -30c-6 -11 -15 -11 -18 2l-10 33c-4 13 -13 14 -22 5l-23 -27c-8 -9 -15 -7 -17 6l-2 34
c-1 13 -11 18 -22 10l-26 -21c-11 -8 -19 -5 -16 9l5 33c1 14 -8 20 -20 14l-30 -15c-12 -6 -18 0 -13 12l11 33c5 12 -3 21 -15 17l-34 -9c-13 -2 -18 4 -11 15l19 30c7 11 2 20 -11 20l-35 -2c-14 0 -16 8 -8 17l25 24c8 10 6 20 -8 22l-33 6c-14 3 -15 11 -4 18l28 20
c3 2 5 5 6 6c6 5 13 2 18 -6l16 -31c6 -12 14 -10 18 2l9 34c4 12 14 14 22 4l23 -26c9 -10 16 -7 17 6l2 34c2 13 11 17 21 9l28 -21c11 -8 18 -4 15 9l-4 34c-2 13 7 19 18 13l31 -14c12 -6 18 0 14 12l-11 33c-5 12 2 20 14 16l7 -1c26 -50 49 -145 49 -205
c-8 -10 -17 -18 -46 -18h-4c0 14 -5 26 -16 35c7 -8 9 -17 9 -27v-7c-11 1 -16 8 -16 19c0 27 -18 49 -51 49c-27 0 -47 -23 -47 -54c0 -38 33 -65 92 -65c144 0 278 190 278 319c0 38 -26 67 -64 67c-30 0 -60 -24 -60 -58s21 -54 58 -58c-8 -32 -15 -60 -29 -85
c-8 62 -29 119 -58 150c29 -38 47 -97 52 -161l-14 -20c0 100 -36 197 -89 224c-3 6 2 13 12 15l34 6c12 2 14 10 3 17l-29 19c-10 9 -9 18 3 23l31 14c14 4 14 13 0 18l-31 13c-9 4 -11 8 -10 14c4 2 6 4 7 8l17 30c6 12 15 11 18 -1l10 -33c4 -13 13 -16 22 -5l23 26
c8 10 16 8 17 -5l2 -35c1 -14 11 -17 21 -9l28 21c10 8 16 3 15 -10l-5 -34c-1 -13 8 -19 19 -13l31 16c12 5 18 0 13 -14l-11 -31c-4 -13 3 -21 15 -17l34 7c13 4 18 -2 11 -14l-18 -29c-8 -11 -3 -21 10 -20l35 2c14 0 16 -8 8 -17l-24 -26c-9 -9 -7 -19 7 -21l34 -6
c13 -3 14 -10 3 -19l-28 -19c-10 -7 -10 -17 3 -22l31 -13c12 -5 12 -13 0 -18zM364 124c144 0 278 189 278 319c0 19 -7 37 -20 49c8 -12 12 -25 12 -41c0 -66 -34 -146 -85 -210c-52 -64 -122 -113 -196 -113c-19 0 -36 3 -49 9c14 -9 35 -13 60 -13z" />
    <glyph glyph-name="s_t" unicode="&#xfb06;" horiz-adv-x="856" 
d="M653 553v-28h146v-36h-146v-403c0 -45 20 -59 53 -59s91 20 111 29l19 -34c-18 -8 -82 -33 -129 -33c-45 0 -95 16 -95 102v398h-74v36h74v38c0 74 -36 134 -128 134c-82 0 -125 -51 -125 -124c0 -27 5 -49 16 -66c17 -7 33 -15 47 -22l-23 -33c-49 25 -109 46 -164 46
c-71 0 -128 -33 -128 -96c0 -78 97 -99 146 -112c125 -33 191 -78 191 -162c0 -100 -93 -139 -178 -139c-83 0 -163 35 -211 62l23 34c49 -28 122 -58 185 -58c66 0 139 30 139 100c0 79 -99 105 -163 123c-79 22 -173 50 -173 150c0 91 78 136 171 136c34 0 67 -6 97 -15
c-8 16 -11 35 -11 58c0 95 65 150 162 150c114 0 168 -71 168 -176z" />
    <glyph glyph-name="eight.numr" horiz-adv-x="409" 
d="M47 387c0 66 59 100 110 119c-38 15 -84 43 -84 100c0 62 56 101 132 101s132 -39 132 -101c0 -57 -47 -85 -85 -100c50 -19 110 -53 110 -119c0 -72 -71 -114 -157 -114c-88 0 -158 42 -158 114zM319 388c0 55 -61 83 -115 102c-54 -19 -115 -47 -115 -102
c0 -51 53 -81 116 -81s114 30 114 81zM113 603c0 -48 56 -69 91 -81c36 12 92 33 92 81c0 39 -39 71 -91 71c-54 0 -92 -32 -92 -71z" />
    <glyph glyph-name="Qsuperior" horiz-adv-x="483" 
d="M241 378c-137 0 -187 99 -187 217c0 119 50 217 187 217s188 -98 188 -217c0 -104 -39 -192 -141 -213l76 -58l-28 -29zM241 414c110 0 146 81 146 181s-36 181 -146 181s-145 -81 -145 -181s35 -181 145 -181z" />
    <glyph glyph-name="f_f.calt" horiz-adv-x="669" 
d="M40 489v36h74v102c0 86 47 102 95 102c42 0 116 -22 140 -30l-18 -33c-24 7 -94 25 -123 25c-32 0 -53 -14 -53 -59v-107h148v-36h-148v-489h-41v489h-74zM377 489v36h74v102c0 86 49 102 91 102c40 0 97 -17 116 -23l-18 -33c-18 5 -71 18 -95 18c-32 0 -53 -14 -53 -59
v-107h148v-36h-148v-489h-41v489h-74z" />
    <glyph glyph-name="f_f.ss01" horiz-adv-x="637" 
d="M40 489v36h74v92c0 85 61 102 118 102c60 0 159 -20 200 -29c18 31 49 39 82 39c42 0 116 -22 140 -30l-18 -33c-24 7 -94 25 -123 25c-32 0 -52 -14 -52 -59v-107h147v-36h-147v-489h-42v489h-264v-489h-41v489h-74zM155 622v-97h264v102c0 10 1 19 2 27
c-44 8 -150 27 -197 27c-38 0 -69 -18 -69 -59z" />
    <glyph glyph-name="f_f_b.ss01" horiz-adv-x="1221" 
d="M40 489v36h74v92c0 85 61 102 118 102c62 0 165 -21 204 -29c22 31 62 39 101 39c56 0 147 -18 188 -27v27h42v-278c40 38 106 85 191 85c105 0 198 -74 198 -274c0 -199 -93 -273 -198 -273c-85 0 -151 47 -191 85v-74h-42v663c-37 7 -149 28 -196 28
c-37 0 -68 -18 -68 -59v-107h147v-36h-147v-489h-42v489h-264v-489h-41v489h-74zM961 498c-80 0 -150 -46 -194 -95v-282c44 -48 114 -94 194 -94c99 0 151 91 151 235c0 145 -52 236 -151 236zM419 627c0 10 1 19 2 27c-44 8 -150 27 -197 27c-38 0 -69 -18 -69 -59v-97
h264v102z" />
    <glyph glyph-name="f_f_h.ss01" horiz-adv-x="1225" 
d="M40 489v36h74v92c0 85 61 102 118 102c62 0 165 -21 204 -29c22 31 62 39 101 39c56 0 147 -18 188 -27v27h42v-285c35 28 132 92 225 92c115 0 143 -78 143 -159v-377h-42v373c0 69 -22 125 -105 125c-84 0 -183 -66 -221 -99v-399h-42v663c-37 7 -149 28 -196 28
c-37 0 -68 -18 -68 -59v-107h147v-36h-147v-489h-42v489h-264v-489h-41v489h-74zM419 627c0 10 1 19 2 27c-44 8 -150 27 -197 27c-38 0 -69 -18 -69 -59v-97h264v102z" />
    <glyph glyph-name="f_f_i.ss01" horiz-adv-x="835" 
d="M40 489v36h74v92c0 85 61 102 118 102c62 0 165 -21 204 -29c22 31 62 39 101 39c58 0 156 -22 187 -30l-21 -34c-34 7 -129 26 -174 26c-37 0 -68 -18 -68 -59v-107h282v-525h-42v489h-240v-489h-42v489h-264v-489h-41v489h-74zM419 627c0 10 1 19 2 27
c-44 8 -150 27 -197 27c-38 0 -69 -18 -69 -59v-97h264v102z" />
    <glyph glyph-name="f_f_j.ss01" horiz-adv-x="835" 
d="M42 489v36h74v92c0 85 61 102 118 102c62 0 165 -21 204 -29c22 31 62 39 101 39c58 0 156 -22 187 -30l-21 -34c-34 7 -129 26 -174 26c-37 0 -68 -18 -68 -59v-107h282v-567c0 -94 0 -121 -144 -162l-16 35c118 38 118 46 118 127v531h-240v-489h-42v489h-264v-489h-41
v489h-74zM421 627c0 10 1 19 2 27c-44 8 -150 27 -197 27c-38 0 -69 -18 -69 -59v-97h264v102z" />
    <glyph glyph-name="f_f_k.ss01" horiz-adv-x="1128" 
d="M40 489v36h74v92c0 85 61 102 118 102c62 0 165 -21 204 -29c22 31 62 39 101 39c56 0 147 -18 188 -27v27h42v-518l255 314h48l-178 -215l211 -310h-47l-190 279l-99 -120v-159h-42v663c-37 7 -149 28 -196 28c-37 0 -68 -18 -68 -59v-107h147v-36h-147v-489h-42v489
h-264v-489h-41v489h-74zM419 627c0 10 1 19 2 27c-44 8 -150 27 -197 27c-38 0 -69 -18 -69 -59v-97h264v102z" />
    <glyph glyph-name="f.calt" horiz-adv-x="332" 
d="M40 489v36h74v102c0 86 49 102 91 102c40 0 97 -17 116 -23l-18 -33c-18 5 -71 18 -95 18c-32 0 -53 -14 -53 -59v-107h148v-36h-148v-489h-41v489h-74z" />
    <glyph glyph-name="f_f_l.ss01" horiz-adv-x="867" 
d="M40 489v36h74v92c0 85 61 102 118 102c62 0 165 -21 204 -29c22 31 62 39 101 39c56 0 147 -18 188 -27v27h42v-729h-42v663c-37 7 -149 28 -196 28c-37 0 -68 -18 -68 -59v-107h147v-36h-147v-489h-42v489h-264v-489h-41v489h-74zM419 627c0 10 1 19 2 27
c-44 8 -150 27 -197 27c-38 0 -69 -18 -69 -59v-97h264v102z" />
    <glyph glyph-name="f_f_t.ss01" horiz-adv-x="947" 
d="M40 489v36h74v92c0 85 61 102 118 102c60 0 159 -20 200 -29c18 31 49 39 82 39c42 0 116 -22 140 -30l-18 -33c-24 7 -94 25 -123 25c-32 0 -52 -14 -52 -59v-107h242v132l41 20v-152h146v-36h-146v-403c0 -45 21 -59 53 -59s90 20 111 29l18 -34
c-18 -8 -81 -33 -128 -33c-46 0 -95 16 -95 102v398h-242v-489h-42v489h-264v-489h-41v489h-74zM419 627c0 10 1 19 2 27c-44 8 -150 27 -197 27c-38 0 -69 -18 -69 -59v-97h264v102z" />
    <glyph glyph-name="f_h.ss01" horiz-adv-x="920" 
d="M40 489v36h74v102c0 85 61 102 118 102c56 0 146 -18 188 -27v27h42v-285c35 28 131 92 225 92c114 0 143 -78 143 -159v-377h-42v373c0 69 -22 125 -105 125c-84 0 -183 -66 -221 -99v-399h-42v663c-37 7 -149 28 -196 28c-38 0 -69 -18 -69 -59v-107h148v-36h-148v-489
h-41v489h-74z" />
    <glyph glyph-name="exclamsuperior" horiz-adv-x="187" 
d="M69 385v62h49v-62h-49zM117 805l-11 -298h-25l-12 298h48z" />
    <glyph glyph-name="f_i.ss01" horiz-adv-x="530" 
d="M40 489v36h74v102c0 85 61 102 118 102c58 0 156 -22 187 -30l-21 -34c-34 7 -129 26 -174 26c-38 0 -69 -18 -69 -59v-107h283v-525h-42v489h-241v-489h-41v489h-74z" />
    <glyph glyph-name="f_j.ss01" horiz-adv-x="530" 
d="M42 489v36h74v102c0 85 61 102 118 102c58 0 156 -22 187 -30l-21 -34c-34 7 -129 26 -174 26c-38 0 -69 -18 -69 -59v-107h283v-567c0 -94 0 -121 -144 -162l-16 35c118 38 118 46 118 127v531h-241v-489h-41v489h-74z" />
    <glyph glyph-name="f_k.ss01" horiz-adv-x="823" 
d="M40 489v36h74v102c0 85 61 102 118 102c56 0 146 -18 188 -27v27h42v-518l255 314h48l-179 -214l212 -311h-47l-191 279l-98 -118v-161h-42v663c-37 7 -149 28 -196 28c-38 0 -69 -18 -69 -59v-107h148v-36h-148v-489h-41v489h-74z" />
    <glyph glyph-name="exclaminferior" horiz-adv-x="185" 
d="M68 -150v62h49v-62h-49zM116 270l-11 -298h-25l-12 298h48z" />
    <glyph glyph-name="f_l.ss01" horiz-adv-x="562" 
d="M40 489v36h74v102c0 85 61 102 118 102c56 0 146 -18 188 -27v27h42v-729h-42v663c-37 7 -149 28 -196 28c-38 0 -69 -18 -69 -59v-107h148v-36h-148v-489h-41v489h-74z" />
    <glyph glyph-name="f_t.ss01" horiz-adv-x="642" 
d="M40 489v36h74v102c0 86 47 102 95 102c42 0 116 -22 140 -30l-18 -33c-24 7 -94 25 -123 25c-32 0 -53 -14 -53 -59v-107h242v132l42 20v-152h146v-36h-146v-403c0 -45 21 -59 52 -59c33 0 91 20 112 29l18 -34c-18 -8 -82 -33 -128 -33s-96 16 -96 102v398h-242v-489
h-41v489h-74z" />
    <glyph glyph-name="finferior" horiz-adv-x="233" 
d="M30 134v31h46v52c0 56 31 70 67 70c30 0 77 -13 94 -19l-16 -29c-14 4 -56 15 -74 15c-19 0 -31 -8 -31 -35v-54h91v-31h-91v-284h-40v284h-46z" />
    <glyph glyph-name="exclamdownsuperior" horiz-adv-x="186" 
d="M69 743v62h49v-62h-49zM106 683l11 -298h-48l12 298h25z" />
    <glyph glyph-name="five.dnom" horiz-adv-x="382" 
d="M62 214l24 206h229v-35h-197l-13 -140c21 10 47 19 82 19c90 0 147 -61 147 -133c0 -70 -52 -138 -154 -138c-61 0 -109 26 -135 41l20 31c11 -8 61 -36 111 -36c60 0 114 40 114 102c0 54 -39 99 -110 99c-42 0 -78 -17 -95 -27z" />
    <glyph glyph-name="five.numr" horiz-adv-x="382" 
d="M62 494l24 206h229v-35h-197l-13 -140c21 10 47 19 82 19c90 0 147 -61 147 -133c0 -70 -52 -138 -154 -138c-61 0 -109 26 -135 41l20 31c11 -8 61 -36 111 -36c60 0 114 40 114 102c0 54 -39 99 -110 99c-42 0 -78 -17 -95 -27z" />
    <glyph glyph-name="five.onum" horiz-adv-x="557" 
d="M85 233l36 341h346v-40h-311l-24 -262c31 19 75 38 136 38c137 0 227 -100 227 -221c0 -114 -81 -226 -237 -226c-90 0 -160 38 -200 62l22 36c15 -10 95 -58 175 -58c101 0 194 74 194 187c0 98 -69 180 -185 180c-72 0 -130 -31 -156 -47z" />
    <glyph glyph-name="five.tnum" horiz-adv-x="600" 
d="M107 359l36 341h346v-40h-311l-24 -262c31 19 75 38 136 38c137 0 227 -100 227 -221c0 -114 -81 -226 -237 -226c-90 0 -160 38 -200 62l22 36c15 -10 95 -58 175 -58c101 0 194 74 194 187c0 98 -69 180 -185 180c-72 0 -130 -31 -156 -47z" />
    <glyph glyph-name="exclamdowninferior" horiz-adv-x="185" 
d="M68 208v62h49v-62h-49zM105 148l11 -298h-48l12 298h25z" />
    <glyph glyph-name="fiveeighths.onum" horiz-adv-x="808" 
d="M475 88c0 54 51 82 95 98c-33 13 -72 36 -72 81c0 51 50 83 116 83s115 -32 115 -83c0 -46 -40 -69 -73 -81c44 -16 96 -45 96 -98c0 -59 -61 -94 -138 -94c-76 0 -139 35 -139 94zM75 405l21 169h200v-31h-171l-11 -112c18 9 41 16 70 16c80 0 128 -51 128 -110
c0 -57 -45 -113 -134 -113c-54 0 -95 22 -118 34l18 27c10 -7 54 -30 97 -30c51 0 98 32 98 82c0 44 -34 80 -95 80c-37 0 -67 -14 -82 -22zM562 574l-293 -574h-38l292 574h39zM713 89c0 45 -53 67 -100 83c-47 -16 -99 -39 -99 -83c0 -41 46 -65 100 -65s99 24 99 65z
M534 264c0 -39 48 -55 79 -65c30 9 79 26 79 65c0 32 -33 58 -78 58c-47 0 -80 -27 -80 -58z" />
    <glyph glyph-name="exclamdown.sc" horiz-adv-x="253" 
d="M98 495v79h57v-79h-57zM140 410l11 -410h-49l10 410h28z" />
    <glyph glyph-name="fivesixths" horiz-adv-x="883" 
d="M739 392c-94 0 -164 -69 -178 -175c15 17 55 50 122 50c92 0 141 -62 141 -133c0 -75 -56 -141 -149 -141c-107 0 -158 85 -158 188c0 138 91 246 221 246c32 0 57 -7 57 -7l-9 -33s-22 5 -47 5zM75 494l24 206h229v-35h-197l-13 -140c21 10 47 19 82 19
c90 0 147 -61 147 -133c0 -70 -52 -138 -154 -138c-61 0 -109 26 -135 41l20 31c11 -8 61 -36 111 -36c60 0 114 40 114 102c0 54 -39 99 -110 99c-42 0 -78 -17 -95 -27zM679 234c-62 0 -106 -38 -120 -65c2 -85 43 -141 116 -141c72 0 108 54 108 106
c0 47 -30 100 -104 100zM633 700l-336 -700h-43l336 700h43z" />
    <glyph glyph-name="fivesixths.onum" horiz-adv-x="789" 
d="M655 320c-82 0 -141 -55 -154 -142c14 14 47 41 105 41c80 0 123 -51 123 -109c0 -62 -48 -116 -130 -116c-94 0 -139 70 -139 154c0 114 81 202 194 202c29 0 50 -6 50 -6l-8 -28s-20 4 -41 4zM75 405l21 169h200v-31h-171l-11 -112c18 9 41 16 70 16
c80 0 128 -51 128 -110c0 -57 -45 -113 -134 -113c-54 0 -95 22 -118 34l18 27c10 -7 54 -30 97 -30c51 0 98 32 98 82c0 44 -34 80 -95 80c-37 0 -67 -14 -82 -22zM602 190c-54 0 -91 -30 -103 -51c1 -69 36 -114 100 -114c62 0 93 43 93 85c0 38 -26 80 -90 80zM562 574
l-293 -574h-38l292 574h39z" />
    <glyph glyph-name="exclam.sc" horiz-adv-x="253" 
d="M98 0v79h57v-79h-57zM151 574l-11 -410h-27l-11 410h49z" />
    <glyph glyph-name="einferior" horiz-adv-x="376" 
d="M326 -3h-241c3 -74 45 -122 102 -122c48 0 96 28 124 44l21 -26c-31 -18 -85 -50 -146 -50c-77 0 -142 56 -142 165c0 106 65 164 151 164c88 0 135 -58 135 -136c0 -22 -4 -39 -4 -39zM193 140c-63 0 -103 -45 -108 -116h205c2 81 -36 116 -97 116z" />
    <glyph glyph-name="eight.tnum" horiz-adv-x="600" 
d="M59 176c0 113 100 170 180 201c-57 21 -140 66 -140 167c0 104 88 167 200 167s201 -63 201 -167c0 -101 -84 -146 -141 -167c80 -31 181 -88 181 -201c0 -120 -113 -187 -241 -187s-240 67 -240 187zM494 175c0 100 -106 150 -195 181c-89 -31 -194 -81 -194 -181
c0 -93 89 -146 194 -146c106 0 195 53 195 146zM143 542c0 -90 100 -126 156 -144c56 18 157 54 157 144c0 72 -67 129 -157 129c-89 0 -156 -57 -156 -129z" />
    <glyph glyph-name="four.dnom" horiz-adv-x="411" 
d="M36 97v31l215 292h54v-289h68v-34h-68v-97h-41v97h-228zM80 131h184v252z" />
    <glyph glyph-name="four.numr" horiz-adv-x="411" 
d="M36 377v31l215 292h54v-289h68v-34h-68v-97h-41v97h-228zM80 411h184v252z" />
    <glyph glyph-name="four.onum" horiz-adv-x="597" 
d="M400 -126v168h-359v38l348 494h55v-492h108v-40h-108v-168h-44zM91 82h309v444z" />
    <glyph glyph-name="four.tnum" horiz-adv-x="600" 
d="M401 0v168h-360v38l348 494h56v-492h108v-40h-108v-168h-44zM91 208h310v446z" />
    <glyph glyph-name="fourfifths" horiz-adv-x="943" 
d="M41 377v31l215 292h54v-289h68v-34h-68v-97h-41v97h-228zM608 214l23 206h230v-35h-197l-13 -140c21 10 47 19 82 19c90 0 146 -61 146 -133c0 -70 -52 -138 -154 -138c-61 0 -109 26 -134 41l19 31c12 -8 62 -36 111 -36c60 0 115 40 115 102c0 54 -40 99 -110 99
c-43 0 -79 -17 -96 -27zM674 700l-336 -700h-43l336 700h43zM85 411h184v252z" />
    <glyph glyph-name="fourfifths.onum" horiz-adv-x="842" 
d="M46 308v27l187 239h48v-236h59v-30h-59v-78h-36v78h-199zM541 175l20 169h201v-30h-171l-12 -113c18 9 41 16 71 16c80 0 128 -50 128 -109c0 -58 -45 -114 -134 -114c-54 0 -95 22 -118 34l18 27c9 -6 52 -29 96 -29c52 0 99 32 99 82c0 43 -34 79 -95 79
c-37 0 -68 -13 -83 -22zM599 574l-292 -574h-39l291 574h40zM87 338h158v205z" />
    <glyph glyph-name="eight.onum" horiz-adv-x="615" 
d="M67 176c0 113 100 170 180 201c-57 21 -140 66 -140 167c0 104 88 167 200 167s201 -63 201 -167c0 -101 -84 -146 -141 -167c80 -31 181 -88 181 -201c0 -120 -113 -187 -241 -187s-240 67 -240 187zM502 175c0 100 -106 150 -195 181c-89 -31 -194 -81 -194 -181
c0 -93 89 -146 194 -146c106 0 195 53 195 146zM151 542c0 -90 100 -126 156 -144c56 18 157 54 157 144c0 72 -67 129 -157 129c-89 0 -156 -57 -156 -129z" />
    <glyph glyph-name="eight.dnom" horiz-adv-x="409" 
d="M47 107c0 66 59 100 110 119c-38 15 -84 43 -84 100c0 62 56 101 132 101s132 -39 132 -101c0 -57 -47 -85 -85 -100c50 -19 110 -53 110 -119c0 -72 -71 -114 -157 -114c-88 0 -158 42 -158 114zM319 108c0 55 -61 83 -115 102c-54 -19 -115 -47 -115 -102
c0 -51 53 -81 116 -81s114 30 114 81zM113 323c0 -48 56 -69 91 -81c36 12 92 33 92 81c0 39 -39 71 -91 71c-54 0 -92 -32 -92 -71z" />
    <glyph glyph-name="dollar.onum" horiz-adv-x="552" 
d="M295 -82h-35v75c-73 7 -146 38 -194 64l22 33c44 -25 109 -51 172 -59v251c-87 26 -180 58 -180 157c0 95 87 143 180 144v74h35v-76c60 -6 124 -27 168 -49l-22 -32c-44 21 -98 37 -146 43v-229c91 -28 193 -67 193 -172s-100 -150 -193 -151v-73zM447 139
c0 71 -66 104 -152 132v-242h1c76 0 151 35 151 110zM122 441c0 -70 61 -94 138 -117v221c-71 -1 -138 -32 -138 -104z" />
    <glyph glyph-name="frenchfranc" horiz-adv-x="574" 
d="M63 146v36h55v518h411v-40h-367v-290h294v-40h-294v-148h180v-36h-180v-146h-44v146h-55z" />
    <glyph glyph-name="frenchfranc.onum" horiz-adv-x="522" 
d="M63 117v33h48v424h362v-38h-318v-230h254v-38h-254v-118h156v-33h-156v-117h-44v117h-48z" />
    <glyph glyph-name="frenchfrancinferior" horiz-adv-x="389" 
d="M47 -67v27h35v310h270v-35h-228v-158h183v-34h-183v-83h114v-27h-114v-83h-42v83h-35z" />
    <glyph glyph-name="frenchfrancsuperior" horiz-adv-x="390" 
d="M48 468v27h35v310h270v-35h-228v-158h183v-34h-183v-83h114v-27h-114v-83h-42v83h-35z" />
    <glyph glyph-name="fsuperior" horiz-adv-x="233" 
d="M30 669v31h46v52c0 56 31 70 67 70c30 0 77 -13 94 -19l-16 -29c-14 4 -56 15 -74 15c-19 0 -31 -8 -31 -35v-54h91v-31h-91v-284h-40v284h-46z" />
    <glyph glyph-name="dinferior" horiz-adv-x="391" 
d="M329 -150h-39v43c-25 -22 -66 -50 -119 -50c-68 0 -125 47 -125 164c0 118 57 165 125 165c53 0 94 -28 119 -50v165h39v-437zM176 -124c46 0 86 26 114 54v155c-28 28 -68 54 -114 54c-59 0 -89 -50 -89 -132c0 -81 30 -131 89 -131z" />
    <glyph glyph-name="csuperior" horiz-adv-x="355" 
d="M316 660l-21 -28c-17 10 -64 41 -108 41c-56 0 -101 -50 -101 -130c0 -81 45 -131 101 -131c44 0 91 31 108 41l21 -28c-26 -15 -75 -47 -130 -47c-73 0 -141 56 -141 165c0 108 68 164 141 164c55 0 104 -32 130 -47z" />
    <glyph glyph-name="copyright.sc" horiz-adv-x="737" 
d="M503 414l-26 -29c-23 17 -59 44 -112 44c-62 0 -104 -57 -104 -143c0 -85 42 -141 104 -141c53 0 89 26 112 43l26 -29c-31 -21 -76 -51 -139 -51c-79 0 -146 61 -146 178c0 118 67 179 146 179c63 0 108 -30 139 -51zM71 287c0 166 107 296 299 296
c191 0 296 -130 296 -296s-105 -296 -296 -296c-192 0 -299 130 -299 296zM105 287c0 -149 93 -265 264 -265c170 0 265 116 265 265s-95 265 -265 265c-171 0 -264 -116 -264 -265z" />
    <glyph glyph-name="colonsuperior" horiz-adv-x="177" 
d="M64 594v64h49v-64h-49zM64 385v64h49v-64h-49z" />
    <glyph glyph-name="colonmonetarysuperior" horiz-adv-x="368" 
d="M133 385h-28l15 65c-41 25 -70 74 -70 145c0 109 68 164 141 164h4l11 46h30l-13 -50c9 -2 17 -4 25 -7l14 57h29l-17 -68c19 -9 35 -19 47 -25l-21 -28c-7 4 -19 12 -34 19l-58 -237c39 6 77 31 92 40l21 -29c-25 -13 -70 -43 -121 -46l-11 -46h-30l11 47
c-8 1 -16 4 -24 6zM91 595c0 -47 15 -83 39 -106l56 236c-53 -3 -95 -52 -95 -130zM154 473c8 -4 16 -6 25 -7l61 249c-8 3 -16 5 -25 7z" />
    <glyph glyph-name="germandblsinferior" horiz-adv-x="407" 
d="M208 277c80 0 145 -29 145 -134v-3l-32 -20c-12 7 -47 21 -77 21c-34 0 -61 -19 -61 -51c0 -43 47 -53 80 -63c64 -19 105 -45 105 -98c0 -60 -50 -86 -103 -86c-50 0 -98 22 -127 38l18 29c28 -17 71 -35 104 -35c34 0 69 17 69 52c0 43 -49 56 -87 68
c-44 13 -97 32 -97 92c0 55 43 85 97 85c26 0 50 -6 71 -14c-5 68 -47 86 -105 86c-63 0 -107 -20 -107 -100v-294h-39v293c0 106 65 134 146 134z" />
    <glyph glyph-name="germandblssuperior" horiz-adv-x="407" 
d="M208 812c80 0 145 -29 145 -134v-3l-32 -20c-12 7 -47 21 -77 21c-34 0 -61 -19 -61 -51c0 -43 47 -53 80 -63c64 -19 105 -45 105 -98c0 -60 -50 -86 -103 -86c-50 0 -98 22 -127 38l18 29c28 -17 71 -35 104 -35c34 0 69 17 69 52c0 43 -49 56 -87 68
c-44 13 -97 32 -97 92c0 55 43 85 97 85c26 0 50 -6 71 -14c-5 68 -47 86 -105 86c-63 0 -107 -20 -107 -100v-294h-39v293c0 106 65 134 146 134z" />
    <glyph glyph-name="ginferior" horiz-adv-x="391" 
d="M290 165h39v-338c0 -81 -53 -105 -120 -105c-42 0 -101 9 -148 21l10 35c48 -13 99 -23 134 -23c55 0 85 19 85 71v67c-25 -22 -66 -50 -119 -50c-68 0 -125 47 -125 164c0 118 57 165 125 165c53 0 94 -28 119 -50v43zM176 -124c46 0 86 26 114 54v155
c-28 28 -68 54 -114 54c-59 0 -89 -50 -89 -132c0 -81 30 -131 89 -131z" />
    <glyph glyph-name="colonmonetaryinferior" horiz-adv-x="367" 
d="M133 -150h-28l15 66c-41 25 -70 73 -70 144c0 109 68 164 141 164h4l11 46h30l-13 -50c9 -2 17 -4 25 -7l14 57h29l-17 -68c19 -9 35 -19 47 -25l-21 -28c-7 4 -19 12 -34 19l-58 -236c39 6 77 30 92 39l21 -29c-25 -13 -70 -43 -121 -46l-11 -46h-30l11 48
c-8 1 -16 3 -24 6zM91 60c0 -47 15 -83 39 -105l56 235c-53 -3 -95 -52 -95 -130zM154 -62c8 -3 16 -6 25 -7l61 249c-8 3 -16 5 -25 7z" />
    <glyph glyph-name="colonmonetary.onum" horiz-adv-x="505" 
d="M181 0h-36l22 89c-56 34 -97 101 -97 199c0 147 93 224 192 224h8l15 62h36l-17 -67c13 -3 24 -6 36 -10l19 77h36l-23 -91c27 -13 48 -27 64 -36l-23 -30c-10 5 -28 17 -50 29l-85 -346c59 7 114 45 135 58l23 -30c-33 -20 -96 -62 -167 -65l-15 -63h-36l16 65
c-12 2 -24 5 -35 9zM113 288c0 -73 25 -128 63 -159l85 347h-1c-81 0 -147 -72 -147 -188zM207 109c11 -5 23 -8 35 -9l89 361c-11 4 -23 8 -35 10z" />
    <glyph glyph-name="coloninferior" horiz-adv-x="177" 
d="M64 59v64h49v-64h-49zM64 -150v64h49v-64h-49z" />
    <glyph glyph-name="gsuperior" horiz-adv-x="391" 
d="M290 700h39v-338c0 -81 -53 -105 -120 -105c-42 0 -101 9 -148 21l10 35c48 -13 99 -23 134 -23c55 0 85 19 85 71v67c-25 -23 -66 -50 -119 -50c-68 0 -125 47 -125 164c0 118 57 165 125 165c53 0 94 -28 119 -50v43zM176 411c46 0 86 26 114 54v155
c-28 28 -68 54 -114 54c-59 0 -89 -50 -89 -132c0 -81 30 -131 89 -131z" />
    <glyph glyph-name="cinferior" horiz-adv-x="354" 
d="M315 125l-21 -28c-17 10 -64 41 -108 41c-56 0 -101 -50 -101 -130c0 -81 45 -131 101 -131c44 0 91 31 108 41l21 -28c-26 -15 -75 -47 -130 -47c-73 0 -141 56 -141 165c0 108 68 164 141 164c55 0 104 -32 130 -47z" />
    <glyph glyph-name="cent.onum" horiz-adv-x="505" 
d="M287 0h-35v63c-95 5 -182 82 -182 225c0 142 87 219 182 224v62h35v-64c63 -8 119 -46 149 -63l-23 -30c-20 11 -71 47 -126 56v-372c55 10 106 45 126 57l23 -30c-30 -18 -86 -55 -149 -64v-64zM113 288c0 -113 61 -185 139 -189v377c-78 -5 -139 -76 -139 -188z" />
    <glyph glyph-name="c_t" horiz-adv-x="879" 
d="M561 489v36h74v38c0 74 -37 134 -120 134c-77 0 -121 -51 -121 -123c0 -30 7 -55 20 -75c24 -13 44 -26 58 -35l-24 -32c-23 14 -96 66 -167 66c-94 0 -172 -89 -172 -235s78 -236 172 -236c71 0 144 52 167 66l24 -32c-36 -23 -107 -72 -188 -72
c-114 0 -220 95 -220 274s106 273 220 273c31 0 60 -7 86 -17c-7 17 -11 36 -11 60c0 95 65 150 156 150c104 0 161 -71 161 -176v-28h146v-36h-146v-403c0 -45 20 -59 53 -59c32 0 90 20 111 29l18 -34c-18 -8 -81 -33 -128 -33c-46 0 -95 16 -95 102v398h-74z" />
    <glyph glyph-name="c_l" horiz-adv-x="763" 
d="M663 0h-42v697h-105c-78 0 -122 -51 -122 -123c0 -30 7 -55 20 -75c24 -13 44 -26 58 -35l-24 -32c-23 14 -96 66 -167 66c-94 0 -172 -89 -172 -235s78 -236 172 -236c71 0 144 52 167 66l24 -32c-36 -23 -107 -72 -188 -72c-114 0 -220 95 -220 274s106 273 220 273
c31 0 60 -7 86 -17c-7 17 -11 36 -11 60c0 95 63 150 154 150h150v-729z" />
    <glyph glyph-name="c_k" horiz-adv-x="1018" 
d="M960 525l-178 -214l211 -311h-46l-191 279l-99 -120v-159h-42v697h-99c-78 0 -122 -51 -122 -123c0 -30 7 -55 20 -75c24 -13 44 -26 58 -35l-24 -32c-23 14 -96 66 -167 66c-94 0 -172 -89 -172 -235s78 -236 172 -236c71 0 144 52 167 66l24 -32
c-36 -23 -107 -72 -188 -72c-114 0 -220 95 -220 274s106 273 220 273c31 0 60 -7 86 -17c-7 17 -11 36 -11 60c0 95 63 150 154 150h144v-518l255 314h48z" />
    <glyph glyph-name="c_h" horiz-adv-x="1116" 
d="M472 464l-24 -32c-23 14 -96 66 -167 66c-94 0 -172 -89 -172 -235s78 -236 172 -236c71 0 144 52 167 66l24 -32c-36 -23 -107 -72 -188 -72c-114 0 -220 95 -220 274s106 273 220 273c31 0 60 -7 86 -17c-7 17 -11 36 -11 60c0 95 63 150 154 150h144v-286
c35 28 132 93 225 93c115 0 144 -78 144 -159v-377h-42v373c0 69 -22 125 -105 125c-86 0 -185 -67 -222 -99v-399h-42v697h-99c-78 0 -122 -51 -122 -123c0 -30 7 -55 20 -75c24 -13 44 -26 58 -35z" />
    <glyph glyph-name="hinferior" horiz-adv-x="392" 
d="M101 287v-169c23 17 81 54 140 54c72 0 91 -46 91 -97v-225h-39v219c0 39 -13 70 -61 70c-50 0 -108 -36 -131 -55v-234h-39v437h39z" />
    <glyph glyph-name="brokenbar.sc" horiz-adv-x="253" 
d="M145 332h-37v339h37v-339zM145 -101h-37v339h37v-339z" />
    <glyph glyph-name="bracketrightsuperior" horiz-adv-x="237" 
d="M167 299h-128v30h87v530h-87v29h128v-589z" />
    <glyph glyph-name="bracketrightinferior" horiz-adv-x="237" 
d="M167 -236h-128v30h87v530h-87v29h128v-589z" />
    <glyph glyph-name="bracketright.sc" horiz-adv-x="325" 
d="M218 -118h-165v36h122v734h-122v36h165v-806z" />
    <glyph glyph-name="bracketleftsuperior" horiz-adv-x="237" 
d="M198 299h-128v589h128v-29h-87v-530h87v-30z" />
    <glyph glyph-name="bracketleftinferior" horiz-adv-x="237" 
d="M198 -236h-128v589h128v-29h-87v-530h87v-30z" />
    <glyph glyph-name="bracketleft.sc" horiz-adv-x="325" 
d="M272 -118h-165v806h165v-36h-122v-734h122v-36z" />
    <glyph glyph-name="bracerightsuperior" horiz-adv-x="277" 
d="M243 613v-39c-40 0 -68 -16 -60 -75l7 -56c11 -90 -29 -144 -139 -144h-12v30h12c88 0 105 50 97 107l-7 56c-7 56 11 90 57 101c-46 12 -64 45 -57 102l7 57c8 57 -9 107 -97 107h-12v29h12c110 0 149 -54 138 -143l-7 -56c-8 -59 21 -76 61 -76z" />
    <glyph glyph-name="bracerightinferior" horiz-adv-x="277" 
d="M243 78v-39c-40 0 -68 -16 -60 -75l7 -56c11 -90 -29 -144 -139 -144h-12v30h12c88 0 105 50 97 107l-7 56c-7 56 11 90 57 101c-46 12 -64 45 -57 102l7 57c8 57 -9 107 -97 107h-12v29h12c110 0 149 -54 138 -143l-7 -56c-8 -59 21 -76 61 -76z" />
    <glyph glyph-name="iinferior" horiz-adv-x="164" 
d="M103 -150h-40v315h40v-315zM60 233v53h46v-53h-46z" />
    <glyph glyph-name="braceright.sc" horiz-adv-x="381" 
d="M328 310v-49c-53 0 -96 -22 -84 -106l11 -75c18 -120 -35 -197 -186 -197h-17v35h17c128 0 152 70 141 150l-12 81c-11 75 12 121 75 136c-63 16 -86 62 -75 137l12 80c11 81 -13 150 -141 150h-17v36h17c151 0 201 -77 185 -197l-10 -76c-11 -83 31 -105 84 -105z" />
    <glyph glyph-name="braceleftsuperior" horiz-adv-x="277" 
d="M34 574v39c42 0 71 17 62 76l-8 55c-13 89 28 144 138 144h12v-29h-12c-88 0 -103 -50 -97 -107l8 -57c8 -57 -11 -90 -59 -102c48 -11 67 -44 59 -101l-8 -56c-6 -57 9 -107 97 -107h12v-30h-12c-110 0 -151 55 -138 145l8 55c8 58 -20 75 -62 75z" />
    <glyph glyph-name="braceleftinferior" horiz-adv-x="277" 
d="M34 39v39c42 0 71 17 62 76l-8 55c-13 89 28 144 138 144h12v-29h-12c-88 0 -103 -50 -97 -107l8 -57c8 -57 -11 -90 -59 -102c48 -11 67 -44 59 -101l-8 -56c-6 -57 9 -107 97 -107h12v-30h-12c-110 0 -151 55 -138 145l8 55c8 58 -20 75 -62 75z" />
    <glyph glyph-name="braceleft.sc" horiz-adv-x="380" 
d="M52 261v49c55 0 96 22 85 105l-10 76c-16 120 34 197 185 197h16v-36h-16c-128 0 -152 -69 -142 -150l12 -80c11 -75 -13 -121 -76 -137c63 -15 87 -61 76 -136l-12 -81c-10 -80 14 -150 142 -150h16v-35h-16c-151 0 -201 76 -185 197l10 76c11 83 -30 105 -85 105z" />
    <glyph glyph-name="binferior" horiz-adv-x="391" 
d="M62 -150v437h39v-165c26 22 65 50 119 50c68 0 125 -47 125 -165c0 -117 -57 -164 -125 -164c-54 0 -93 28 -119 50v-43h-39zM216 139c-46 0 -88 -26 -115 -54v-155c27 -28 69 -54 115 -54c59 0 89 50 89 131c0 82 -30 132 -89 132z" />
    <glyph glyph-name="bar.sc" horiz-adv-x="251" 
d="M144 -101h-37v772h37v-772z" />
    <glyph glyph-name="backslash.sc" horiz-adv-x="398" 
d="M329 -74l-292 722h38l292 -722h-38z" />
    <glyph glyph-name="at.sc" horiz-adv-x="814" 
d="M401 -115c99 0 155 38 155 38l21 -26s-60 -44 -175 -44c-202 0 -335 156 -335 354c0 199 135 356 353 356c219 0 334 -148 335 -355c-1 -130 -57 -223 -150 -223c-76 0 -92 56 -95 95c-28 -26 -75 -60 -137 -60c-52 0 -116 26 -116 119c0 88 59 124 119 124
c41 0 103 -16 134 -23v51c0 60 -17 88 -81 88c-43 0 -92 -17 -130 -35l-18 33c48 21 105 36 150 36c72 0 117 -33 117 -116v-182c0 -42 1 -97 59 -97c40 0 114 41 114 190c0 183 -97 322 -303 322c-204 0 -317 -150 -317 -323c0 -179 119 -322 300 -322zM378 54
c56 0 96 30 132 65v93c-26 5 -79 18 -120 18c-71 0 -94 -45 -94 -91c0 -61 37 -85 82 -85z" />
    <glyph glyph-name="asterisksuperior" horiz-adv-x="326" 
d="M144 583l10 93l-83 -55l-19 32l92 39l-91 40l18 31l83 -56l-10 93h38l-9 -92l82 55l18 -32l-92 -39l92 -40l-19 -31l-81 55l9 -93h-38z" />
    <glyph glyph-name="jinferior" horiz-adv-x="163" 
d="M58 233v53h46v-53h-46zM101 165v-333c0 -62 0 -81 -101 -107l-13 30c75 23 75 28 75 76v334h39z" />
    <glyph glyph-name="asteriskinferior" horiz-adv-x="324" 
d="M143 48l10 93l-83 -55l-19 32l92 39l-91 40l18 31l83 -56l-10 93h38l-9 -92l82 55l18 -32l-92 -39l92 -40l-19 -31l-81 55l9 -93h-38z" />
    <glyph glyph-name="ampersandsuperior" horiz-adv-x="451" 
d="M424 385h-51l-56 54c-32 -36 -77 -61 -137 -61c-75 0 -136 40 -136 109c0 60 47 95 95 126c-31 29 -63 63 -63 110c0 63 59 89 106 89c52 0 99 -31 99 -87c0 -52 -41 -86 -86 -117l118 -115c22 36 34 78 39 113h40c-5 -38 -21 -92 -52 -139zM179 411c48 0 85 22 112 53
l-126 124c-43 -28 -81 -56 -81 -97c0 -31 23 -80 95 -80zM116 722c0 -37 30 -67 54 -90c38 25 71 52 71 92c0 29 -17 55 -60 55c-42 0 -65 -25 -65 -57z" />
    <glyph glyph-name="ampersandinferior" horiz-adv-x="452" 
d="M424 -150h-51l-56 54c-32 -35 -77 -61 -137 -61c-75 0 -136 40 -136 109c0 60 47 95 95 126c-31 29 -63 63 -63 110c0 63 59 89 106 89c52 0 99 -31 99 -87c0 -52 -41 -86 -86 -117l118 -114c22 36 34 77 39 112h40c-5 -38 -21 -92 -52 -138zM179 -124c48 0 85 22 112 54
l-126 123c-43 -28 -81 -56 -81 -97c0 -31 23 -80 95 -80zM116 187c0 -37 30 -67 54 -90c38 25 71 52 71 92c0 29 -17 55 -60 55c-42 0 -65 -25 -65 -57z" />
    <glyph glyph-name="ampersand.sc" horiz-adv-x="615" 
d="M578 0h-58l-81 79c-44 -51 -106 -88 -189 -88c-100 0 -184 53 -184 148c0 84 66 130 133 173c-42 41 -88 88 -88 152c0 87 81 119 140 119c66 0 130 -39 130 -116c0 -73 -57 -119 -119 -161l172 -167c32 52 50 114 58 164h43c-7 -52 -28 -128 -72 -192zM248 28
c71 0 124 33 162 79l-182 177c-61 -40 -118 -80 -118 -140c0 -45 32 -116 138 -116zM154 464c0 -55 47 -99 79 -130c56 36 105 74 105 133c0 42 -25 79 -88 79c-62 0 -96 -36 -96 -82z" />
    <glyph glyph-name="kinferior" horiz-adv-x="338" 
d="M297 165l-112 -128l131 -187h-42l-114 159l-59 -66v-93h-39v437h39v-299l151 177h45z" />
    <glyph glyph-name="ksuperior" horiz-adv-x="338" 
d="M297 700l-112 -128l131 -187h-42l-114 159l-59 -66v-93h-39v437h39v-299l151 177h45z" />
    <glyph glyph-name="ainferior" horiz-adv-x="372" 
d="M274 -150v44c-25 -23 -70 -51 -126 -51c-50 0 -109 25 -109 100c0 73 54 104 113 104c37 0 94 -13 122 -18v39c0 47 -17 72 -73 72c-38 0 -80 -14 -124 -28l-15 30c53 18 101 30 142 30c66 0 109 -28 109 -100v-222h-39zM156 -123c49 0 86 23 118 50v76
c-24 5 -71 15 -106 15c-67 0 -88 -35 -88 -74c0 -48 32 -67 76 -67z" />
    <glyph glyph-name="Zsuperior" horiz-adv-x="411" 
d="M40 418l272 352h-258v35h309v-32l-274 -353h277v-35h-326v33z" />
    <glyph glyph-name="Zinferior" horiz-adv-x="410" 
d="M40 -117l272 352h-258v35h309v-32l-274 -353h277v-35h-326v33z" />
    <glyph glyph-name="Zdotaccent.sc" horiz-adv-x="546" 
d="M487 539l-388 -501h393v-38h-443v36l386 500h-367v38h419v-35zM247 639v78h60v-78h-60z" />
    <glyph glyph-name="Zcaron.sc" horiz-adv-x="546" 
d="M487 539l-388 -501h393v-38h-443v36l386 500h-367v38h419v-35zM406 754l-96 -125h-66l-95 125h38l90 -93l91 93h38z" />
    <glyph glyph-name="Zacute.sc" horiz-adv-x="546" 
d="M487 539l-388 -501h393v-38h-443v36l386 500h-367v38h419v-35zM252 629h-37l120 125h80z" />
    <glyph glyph-name="Z.sc" horiz-adv-x="546" 
d="M487 539l-388 -501h393v-38h-443v36l386 500h-367v38h419v-35z" />
    <glyph glyph-name="linferior" horiz-adv-x="163" 
d="M101 -150h-39v437h39v-437z" />
    <glyph glyph-name="Ysuperior" horiz-adv-x="411" 
d="M185 385v166l-162 254h46l137 -223l135 223h47l-162 -254v-166h-41z" />
    <glyph glyph-name="lira.onum" horiz-adv-x="498" 
d="M84 267v35h73c-26 45 -64 81 -64 144c0 81 66 137 165 137c69 0 131 -29 176 -52l-23 -32c-56 27 -106 46 -154 46c-79 0 -121 -49 -121 -103c0 -55 41 -91 67 -140h162v-35h-148c3 -13 6 -27 6 -42c0 -7 -1 -14 -2 -21h144v-36h-152c-20 -62 -66 -113 -82 -130h293v-38
h-350v33s70 58 96 135h-86v36h95c1 6 1 12 1 19c0 16 -3 30 -7 44h-89z" />
    <glyph glyph-name="lirainferior" horiz-adv-x="368" 
d="M59 45v29h52c-19 31 -44 57 -44 101c0 60 49 102 122 102c53 0 99 -23 132 -40l-20 -29c-40 20 -76 34 -111 34c-53 0 -82 -34 -82 -71c0 -38 27 -63 46 -97h118v-29h-106c2 -9 4 -19 4 -30c0 -5 -1 -9 -1 -13h103v-29h-109c-14 -42 -45 -76 -56 -88h207v-35h-261v30
s50 39 70 93h-64v29h70c1 4 1 7 1 11c0 11 -2 22 -5 32h-66z" />
    <glyph glyph-name="lirasuperior" horiz-adv-x="369" 
d="M60 580v29h52c-19 31 -44 57 -44 101c0 60 49 102 122 102c53 0 99 -23 132 -40l-20 -29c-40 20 -76 34 -111 34c-53 0 -82 -34 -82 -71c0 -38 27 -63 46 -97h118v-29h-106c2 -9 4 -19 4 -30c0 -5 -1 -9 -1 -13h103v-29h-109c-14 -42 -45 -77 -56 -88h207v-35h-261v30
s50 39 70 93h-64v29h70c1 4 1 7 1 11c0 11 -2 22 -5 32h-66z" />
    <glyph glyph-name="Yinferior" horiz-adv-x="409" 
d="M184 -150v166l-162 254h46l137 -223l135 223h47l-162 -254v-166h-41z" />
    <glyph glyph-name="Ygrave.sc" horiz-adv-x="564" 
d="M261 0v226l-225 348h49l197 -314l198 314h48l-224 -346v-228h-43zM350 629h-38l-162 125h78z" />
    <glyph glyph-name="Ydieresis.sc" horiz-adv-x="564" 
d="M261 0v226l-225 348h49l197 -314l198 314h48l-224 -346v-228h-43zM172 639v78h61v-78h-61zM332 639v78h60v-78h-60z" />
    <glyph glyph-name="Yacute.sc" horiz-adv-x="564" 
d="M261 0v226l-225 348h49l197 -314l198 314h48l-224 -346v-228h-43zM258 629h-37l120 125h80z" />
    <glyph glyph-name="Y.sc" horiz-adv-x="564" 
d="M261 0v226l-225 348h49l197 -314l198 314h48l-224 -346v-228h-43z" />
    <glyph glyph-name="Xsuperior" horiz-adv-x="409" 
d="M37 805h47l120 -185l121 185h47l-146 -212l154 -208h-50l-126 182l-126 -182h-49l154 208z" />
    <glyph glyph-name="Xinferior" horiz-adv-x="409" 
d="M37 270h47l120 -185l121 185h47l-146 -212l154 -208h-50l-126 182l-126 -182h-49l154 208z" />
    <glyph glyph-name="minferior" horiz-adv-x="591" 
d="M101 165v-49c24 22 74 56 125 56c57 0 78 -33 86 -60c22 21 74 60 130 60c69 0 89 -46 89 -97v-225h-39v219c0 38 -13 70 -60 70c-44 0 -91 -35 -116 -59v-230h-40v219c0 38 -12 70 -59 70c-45 0 -91 -34 -116 -58v-231h-39v315h39z" />
    <glyph glyph-name="X.sc" horiz-adv-x="541" 
d="M47 574h49l174 -259l174 259h51l-204 -290l215 -284h-53l-182 254l-183 -254h-52l213 285z" />
    <glyph glyph-name="Wsuperior" horiz-adv-x="600" 
d="M401 385l-101 365l-101 -365h-46l-122 420h45l100 -374l104 374h41l102 -376l101 376h45l-122 -420h-46z" />
    <glyph glyph-name="Winferior" horiz-adv-x="600" 
d="M401 -150l-101 365l-101 -365h-46l-122 420h45l100 -374l104 374h41l102 -375l101 375h45l-122 -420h-46z" />
    <glyph glyph-name="Wgrave.sc" horiz-adv-x="826" 
d="M559 0l-146 514l-145 -514h-52l-168 574h46l148 -530l148 530h46l147 -530l149 530h46l-168 -574h-51zM476 629h-37l-163 125h78z" />
    <glyph glyph-name="Wdieresis.sc" horiz-adv-x="826" 
d="M559 0l-146 514l-145 -514h-52l-168 574h46l148 -530l148 530h46l147 -530l149 530h46l-168 -574h-51zM309 639v78h61v-78h-61zM463 639v78h59v-78h-59z" />
    <glyph glyph-name="Wcircumflex.sc" horiz-adv-x="826" 
d="M559 0l-146 514l-145 -514h-52l-168 574h46l148 -530l148 530h46l147 -530l149 530h46l-168 -574h-51zM446 754l96 -125h-38l-91 93l-91 -93h-38l95 125h67z" />
    <glyph glyph-name="Wacute.sc" horiz-adv-x="826" 
d="M559 0l-146 514l-145 -514h-52l-168 574h46l148 -530l148 530h46l147 -530l149 530h46l-168 -574h-51zM387 629h-37l121 125h79z" />
    <glyph glyph-name="W.sc" horiz-adv-x="826" 
d="M559 0l-146 514l-145 -514h-52l-168 574h46l148 -530l148 530h46l147 -530l149 530h46l-168 -574h-51z" />
    <glyph glyph-name="Vsuperior" horiz-adv-x="443" 
d="M72 805l149 -383l149 383h46l-172 -420h-45l-172 420h45z" />
    <glyph glyph-name="Vinferior" horiz-adv-x="441" 
d="M71 270l149 -383l149 383h46l-172 -420h-45l-172 420h45z" />
    <glyph glyph-name="nine.dnom" horiz-adv-x="405" 
d="M129 28c93 0 162 68 177 174c-16 -18 -55 -49 -121 -49c-92 0 -140 62 -140 133c0 75 56 141 149 141c106 0 158 -85 158 -188c0 -138 -90 -246 -222 -246c-31 0 -56 7 -56 7l11 33s19 -5 44 -5zM190 186c62 0 105 37 119 64c-2 85 -42 142 -115 142
c-72 0 -108 -54 -108 -106c0 -47 29 -100 104 -100z" />
    <glyph glyph-name="nine.numr" horiz-adv-x="405" 
d="M129 308c93 0 162 68 177 174c-16 -18 -55 -49 -121 -49c-92 0 -140 62 -140 133c0 75 56 141 149 141c106 0 158 -85 158 -188c0 -138 -90 -246 -222 -246c-31 0 -56 7 -56 7l11 33s19 -5 44 -5zM190 466c62 0 105 37 119 64c-2 85 -42 142 -115 142
c-72 0 -108 -54 -108 -106c0 -47 29 -100 104 -100z" />
    <glyph glyph-name="nine.onum" horiz-adv-x="595" 
d="M188 -99c128 0 263 98 289 316c-24 -31 -88 -90 -197 -90c-148 0 -222 107 -222 223c0 124 86 233 228 233c165 0 240 -148 241 -288c2 -294 -174 -434 -337 -434c-48 0 -86 11 -86 11l12 38s32 -9 72 -9zM278 167c108 0 183 70 204 120v8c0 123 -57 248 -196 248
c-122 0 -184 -98 -184 -194c0 -85 49 -182 176 -182z" />
    <glyph glyph-name="nine.tnum" horiz-adv-x="600" 
d="M189 29c128 0 263 97 289 316c-24 -31 -88 -90 -197 -90c-148 0 -222 107 -222 223c0 124 86 233 228 233c165 0 240 -148 241 -288c2 -294 -174 -434 -337 -434c-48 0 -86 11 -86 11l12 38s32 -9 72 -9zM279 295c108 0 183 70 204 120v8c0 123 -57 248 -196 248
c-122 0 -184 -98 -184 -194c0 -85 49 -182 176 -182z" />
    <glyph glyph-name="V.sc" horiz-adv-x="607" 
d="M88 574l215 -529l216 529h47l-239 -574h-47l-239 574h47z" />
    <glyph glyph-name="Utilde.sc" horiz-adv-x="620" 
d="M202 642l-32 12c23 44 43 71 81 71c48 0 86 -49 118 -49c16 0 27 6 49 46l32 -12c-22 -44 -43 -71 -81 -71c-48 0 -86 49 -118 49c-16 0 -27 -6 -49 -46zM524 574v-376c0 -116 -54 -207 -213 -207c-162 0 -215 91 -215 207v376h43v-374c0 -94 31 -170 172 -170
c138 0 170 76 170 170v374h43z" />
    <glyph glyph-name="ninferior" horiz-adv-x="392" 
d="M101 165v-47c23 17 81 54 140 54c72 0 91 -46 91 -97v-225h-39v219c0 39 -13 70 -61 70c-50 0 -108 -36 -131 -55v-234h-39v315h39z" />
    <glyph glyph-name="Usuperior" horiz-adv-x="457" 
d="M388 805v-271c0 -87 -39 -156 -159 -156c-122 0 -160 69 -160 156v271h41v-272c0 -66 21 -119 119 -119c96 0 118 53 118 119v272h41z" />
    <glyph glyph-name="Uring.sc" horiz-adv-x="620" 
d="M211 717c0 55 43 99 98 99s99 -44 99 -99s-44 -98 -99 -98s-98 43 -98 98zM244 717c0 -37 28 -65 65 -65s66 28 66 65s-29 66 -66 66s-65 -29 -65 -66zM524 574v-376c0 -116 -54 -207 -213 -207c-162 0 -215 91 -215 207v376h43v-374c0 -94 31 -170 172 -170
c138 0 170 76 170 170v374h43z" />
    <glyph glyph-name="Uogonek.sc" horiz-adv-x="620" 
d="M287 -97c0 -44 51 -40 82 -40l-8 -38c-36 0 -119 0 -119 72c0 37 36 69 83 94h-14c-162 0 -215 91 -215 207v376h43v-374c0 -94 31 -170 172 -170c138 0 170 76 170 170v374h43v-376c0 -95 -36 -173 -136 -198c-38 -22 -101 -52 -101 -97z" />
    <glyph glyph-name="Umacron.sc" horiz-adv-x="620" 
d="M524 574v-376c0 -116 -54 -207 -213 -207c-162 0 -215 91 -215 207v376h43v-374c0 -94 31 -170 172 -170c138 0 170 76 170 170v374h43zM168 654v36h283v-36h-283z" />
    <glyph glyph-name="numbersign.onum" horiz-adv-x="683" 
d="M389 0l26 156h-191l-26 -156h-38l26 156h-126v36h132l31 189h-125v36h131l27 157h38l-27 -157h191l27 157h37l-27 -157h128v-36h-134l-31 -189h127v-36h-133l-26 -156h-37zM261 381l-31 -189h191l31 189h-191z" />
    <glyph glyph-name="numbersigninferior" horiz-adv-x="495" 
d="M279 -150l18 111h-131l-18 -111h-34l18 111h-89v32h94l22 133h-89v32h94l19 112h33l-19 -112h132l19 112h33l-19 -112h90v-32h-95l-22 -133h90v-32h-95l-18 -111h-33zM192 126l-21 -133h131l22 133h-132z" />
    <glyph glyph-name="numbersignsuperior" horiz-adv-x="495" 
d="M279 385l18 111h-131l-18 -111h-34l18 111h-89v32h94l22 133h-89v32h94l19 112h33l-19 -112h132l19 112h33l-19 -112h90v-32h-95l-22 -133h90v-32h-95l-18 -111h-33zM192 661l-21 -133h131l22 133h-132z" />
    <glyph glyph-name="Uinferior" horiz-adv-x="457" 
d="M388 270v-271c0 -87 -39 -156 -159 -156c-122 0 -160 69 -160 156v271h41v-272c0 -66 21 -119 119 -119c96 0 118 53 118 119v272h41z" />
    <glyph glyph-name="Uhungarumlaut.sc" horiz-adv-x="620" 
d="M524 574v-376c0 -116 -54 -207 -213 -207c-162 0 -215 91 -215 207v376h43v-374c0 -94 31 -170 172 -170c138 0 170 76 170 170v374h43zM373 629h-30l76 125h71zM238 629h-31l77 125h71z" />
    <glyph glyph-name="Ugrave.sc" horiz-adv-x="620" 
d="M524 574v-376c0 -116 -54 -207 -213 -207c-162 0 -215 91 -215 207v376h43v-374c0 -94 31 -170 172 -170c138 0 170 76 170 170v374h43zM373 629h-37l-163 125h78z" />
    <glyph glyph-name="Udieresis.sc" horiz-adv-x="620" 
d="M524 574v-376c0 -116 -54 -207 -213 -207c-162 0 -215 91 -215 207v376h43v-374c0 -94 31 -170 172 -170c138 0 170 76 170 170v374h43zM200 639v78h60v-78h-60zM360 639v78h59v-78h-59z" />
    <glyph glyph-name="Ucircumflex.sc" horiz-adv-x="620" 
d="M524 574v-376c0 -116 -54 -207 -213 -207c-162 0 -215 91 -215 207v376h43v-374c0 -94 31 -170 172 -170c138 0 170 76 170 170v374h43zM343 754l96 -125h-38l-92 93l-90 -93h-38l95 125h67z" />
    <glyph glyph-name="Ubreve.sc" horiz-adv-x="620" 
d="M309 629c-81 0 -128 38 -128 97h39c0 -44 35 -60 89 -60s90 16 90 60h39c0 -59 -48 -97 -129 -97zM524 574v-376c0 -116 -54 -207 -213 -207c-162 0 -215 91 -215 207v376h43v-374c0 -94 31 -170 172 -170c138 0 170 76 170 170v374h43z" />
    <glyph glyph-name="Uacute.sc" horiz-adv-x="620" 
d="M524 574v-376c0 -116 -54 -207 -213 -207c-162 0 -215 91 -215 207v376h43v-374c0 -94 31 -170 172 -170c138 0 170 76 170 170v374h43zM284 629h-37l121 125h79z" />
    <glyph glyph-name="U.sc" horiz-adv-x="620" 
d="M524 574v-376c0 -116 -54 -207 -213 -207c-162 0 -215 91 -215 207v376h43v-374c0 -94 31 -170 172 -170c138 0 170 76 170 170v374h43z" />
    <glyph glyph-name="Tsuperior" horiz-adv-x="386" 
d="M355 770h-142v-385h-41v385h-141v35h324v-35z" />
    <glyph glyph-name="oinferior" horiz-adv-x="391" 
d="M346 7c0 -101 -53 -164 -151 -164s-150 63 -150 164c0 102 52 165 150 165s151 -63 151 -165zM306 7c0 80 -33 132 -111 132s-110 -52 -110 -132c0 -79 32 -131 110 -131s111 52 111 131z" />
    <glyph glyph-name="Tinferior" horiz-adv-x="386" 
d="M355 235h-142v-385h-41v385h-141v35h324v-35z" />
    <glyph glyph-name="Thorn.sc" horiz-adv-x="577" 
d="M518 298c0 -133 -101 -172 -217 -172h-156v-126h-43v574h43v-108h156c116 0 217 -37 217 -168zM473 298c0 98 -74 130 -167 130h-161v-264h161c93 0 167 36 167 134z" />
    <glyph glyph-name="one.dnom" horiz-adv-x="242" 
d="M169 0h-41v378l-79 -40l-19 29l102 53h37v-420z" />
    <glyph glyph-name="one.numr" horiz-adv-x="242" 
d="M169 280h-41v378l-79 -40l-19 29l102 53h37v-420z" />
    <glyph glyph-name="one.onum" horiz-adv-x="335" 
d="M231 0h-44v523l-127 -67l-21 34l155 84h37v-574z" />
    <glyph glyph-name="one.tnum" horiz-adv-x="600" 
d="M89 0v40h204v609l-183 -97l-21 34l212 114h36v-660h205v-40h-453z" />
    <glyph glyph-name="Tcedilla.sc" horiz-adv-x="506" 
d="M142 -148l14 35c22 -10 33 -15 53 -15c36 0 61 16 61 52c0 37 -26 71 -30 76h-9v536h-198v38h440v-38h-198v-536h-7c3 -3 40 -42 40 -88c0 -47 -37 -77 -93 -77c-26 0 -50 6 -73 17z" />
    <glyph glyph-name="oneeighth.onum" horiz-adv-x="717" 
d="M385 88c0 54 51 82 95 98c-33 13 -73 36 -73 81c0 51 50 83 116 83c67 0 115 -32 115 -83c0 -46 -40 -69 -73 -81c44 -16 96 -45 96 -98c0 -59 -61 -94 -138 -94c-76 0 -138 35 -138 94zM472 574l-292 -574h-40l292 574h40zM623 89c0 45 -54 68 -100 83
c-48 -16 -100 -39 -100 -83c0 -41 46 -65 100 -65c55 0 100 24 100 65zM163 230h-37v308l-68 -33l-17 25l89 44h33v-344zM444 264c0 -39 47 -55 78 -65c30 9 79 26 79 65c0 32 -33 58 -78 58c-46 0 -79 -27 -79 -58z" />
    <glyph glyph-name="onefifth" horiz-adv-x="798" 
d="M463 214l24 206h229v-35h-197l-13 -140c21 10 47 19 82 19c90 0 147 -61 147 -133c0 -70 -52 -138 -154 -138c-61 0 -109 26 -135 41l20 31c11 -8 61 -36 111 -36c60 0 114 40 114 102c0 54 -39 99 -110 99c-42 0 -78 -17 -95 -27zM529 700l-336 -700h-43l336 700h43z
M176 280h-41v378l-79 -40l-19 29l102 53h37v-420z" />
    <glyph glyph-name="onefifth.onum" horiz-adv-x="715" 
d="M414 175l20 169h201v-30h-172l-11 -113c18 8 41 16 71 16c79 0 128 -50 128 -109c0 -58 -45 -114 -134 -114c-54 0 -96 22 -118 34l18 27c9 -6 52 -29 95 -29c53 0 100 32 100 82c0 43 -34 79 -95 79c-37 0 -69 -13 -84 -22zM472 574l-292 -574h-40l292 574h40zM163 230
h-37v308l-68 -33l-17 25l89 44h33v-344z" />
    <glyph glyph-name="Tcaron.sc" horiz-adv-x="506" 
d="M473 536h-198v-536h-44v536h-198v38h440v-38zM382 754l-96 -125h-67l-95 125h38l90 -93l92 93h38z" />
    <glyph glyph-name="onehalf.onum" horiz-adv-x="720" 
d="M163 230h-37v308l-68 -33l-17 25l89 44h33v-344zM472 574l-292 -574h-40l292 574h40zM656 31v-31h-249v26c0 73 60 104 122 142c47 29 88 55 88 95c0 32 -29 57 -79 57c-44 0 -85 -19 -102 -32l-19 25c26 16 69 37 123 37c68 0 115 -34 115 -87c0 -65 -69 -99 -133 -138
c-47 -28 -75 -49 -75 -94h209z" />
    <glyph glyph-name="Tbar.sc" horiz-adv-x="516" 
d="M134 195v33h102v308h-198v38h440v-38h-198v-308h101v-33h-101v-195h-44v195h-102z" />
    <glyph glyph-name="T.sc" horiz-adv-x="506" 
d="M473 536h-198v-536h-44v536h-198v38h440v-38z" />
    <glyph glyph-name="onequarter.onum" horiz-adv-x="691" 
d="M545 0v79h-198v27l187 238h48v-235h59v-30h-59v-79h-37zM472 574l-292 -574h-40l292 574h40zM388 109h157v202zM163 230h-37v308l-68 -33l-17 25l89 44h33v-344z" />
    <glyph glyph-name="onesixth" horiz-adv-x="780" 
d="M636 392c-95 0 -164 -69 -178 -175c15 17 55 50 121 50c92 0 142 -62 142 -133c0 -75 -56 -141 -149 -141c-108 0 -158 85 -158 188c0 138 91 246 221 246c32 0 57 -7 57 -7l-10 -33s-21 5 -46 5zM576 234c-62 0 -106 -38 -120 -65c2 -85 43 -141 116 -141
c72 0 108 54 108 106c0 47 -31 100 -104 100zM529 700l-336 -700h-43l336 700h43zM176 280h-41v378l-79 -40l-19 29l102 53h37v-420z" />
    <glyph glyph-name="onesixth.onum" horiz-adv-x="698" 
d="M564 320c-81 0 -141 -56 -154 -142c13 14 48 41 105 41c80 0 123 -51 123 -109c0 -62 -48 -116 -130 -116c-94 0 -137 70 -137 154c0 114 79 202 192 202c29 0 51 -6 51 -6l-9 -28s-19 4 -41 4zM512 190c-54 0 -93 -31 -104 -52c2 -69 38 -113 100 -113s93 43 93 85
c0 38 -26 80 -89 80zM472 574l-292 -574h-40l292 574h40zM163 230h-37v308l-68 -33l-17 25l89 44h33v-344z" />
    <glyph glyph-name="Ssuperior" horiz-adv-x="406" 
d="M215 619c65 -20 146 -48 146 -128c0 -77 -72 -113 -144 -113c-64 0 -130 27 -171 50l21 31c39 -22 99 -46 150 -46c53 0 103 24 103 76c0 55 -63 76 -133 98c-62 19 -131 43 -131 116c0 71 63 109 136 109c51 0 113 -19 151 -38l-19 -31c-39 19 -93 34 -131 34
c-49 0 -96 -21 -96 -72c0 -52 53 -66 118 -86z" />
    <glyph glyph-name="Sinferior" horiz-adv-x="405" 
d="M214 84c65 -20 146 -48 146 -128c0 -77 -72 -113 -144 -113c-64 0 -130 27 -171 50l21 31c39 -22 99 -46 150 -46c53 0 103 24 103 76c0 55 -63 76 -133 98c-62 19 -131 43 -131 116c0 71 63 109 136 109c51 0 113 -19 151 -38l-19 -31c-39 19 -93 34 -131 34
c-49 0 -96 -21 -96 -72c0 -52 53 -66 118 -86z" />
    <glyph glyph-name="onethird.onum" horiz-adv-x="711" 
d="M163 230h-37v308l-68 -33l-17 25l89 44h33v-344zM472 574l-292 -574h-40l292 574h40zM392 28l18 26c14 -8 61 -29 109 -29c53 0 96 27 96 71c0 57 -70 77 -125 77h-17v32h21c51 0 104 20 104 63c0 32 -31 52 -76 52c-42 0 -76 -18 -96 -29l-16 23c10 8 56 36 116 36
c71 0 109 -39 109 -80c0 -30 -20 -63 -76 -80c53 -11 93 -46 93 -94c0 -51 -42 -102 -130 -102c-58 0 -110 24 -130 34z" />
    <glyph glyph-name="Scommaaccent.sc" horiz-adv-x="536" 
d="M243 -148v81h60l11 -81l-57 -108l-22 20l38 88h-30zM273 319c92 -28 207 -66 207 -178c0 -105 -102 -150 -196 -150c-83 0 -172 36 -227 66l22 34c53 -30 136 -62 208 -62c75 0 151 35 151 111c0 80 -84 110 -182 140c-90 27 -185 58 -185 158c0 97 88 145 181 145
c69 0 151 -25 203 -51l-22 -33c-55 26 -127 46 -182 46c-70 0 -137 -32 -137 -105c0 -77 74 -95 159 -121z" />
    <glyph glyph-name="Scircumflex.sc" horiz-adv-x="536" 
d="M302 754l95 -125h-37l-92 93l-90 -93h-38l95 125h67zM273 319c92 -28 207 -66 207 -178c0 -105 -102 -150 -196 -150c-83 0 -172 36 -227 66l22 34c53 -30 136 -62 208 -62c75 0 151 35 151 111c0 80 -84 110 -182 140c-90 27 -185 58 -185 158c0 97 88 145 181 145
c69 0 151 -25 203 -51l-22 -33c-55 26 -127 46 -182 46c-70 0 -137 -32 -137 -105c0 -77 74 -95 159 -121z" />
    <glyph glyph-name="Scedilla.sc" horiz-adv-x="536" 
d="M273 319c92 -28 207 -66 207 -178c0 -100 -91 -145 -181 -149c12 -15 33 -45 33 -80c0 -47 -37 -77 -93 -77c-26 0 -50 6 -73 17l14 35c22 -10 33 -15 54 -15c36 0 60 16 60 52c0 28 -15 54 -24 68c-79 3 -161 36 -213 65l22 34c53 -30 136 -62 208 -62
c75 0 151 35 151 111c0 80 -84 110 -182 140c-90 27 -185 58 -185 158c0 97 88 145 181 145c69 0 151 -25 203 -51l-22 -33c-55 26 -127 46 -182 46c-70 0 -137 -32 -137 -105c0 -77 74 -95 159 -121z" />
    <glyph glyph-name="Scaron.sc" horiz-adv-x="536" 
d="M397 754l-95 -125h-67l-95 125h38l90 -93l92 93h37zM273 319c92 -28 207 -66 207 -178c0 -105 -102 -150 -196 -150c-83 0 -172 36 -227 66l22 34c53 -30 136 -62 208 -62c75 0 151 35 151 111c0 80 -84 110 -182 140c-90 27 -185 58 -185 158c0 97 88 145 181 145
c69 0 151 -25 203 -51l-22 -33c-55 26 -127 46 -182 46c-70 0 -137 -32 -137 -105c0 -77 74 -95 159 -121z" />
    <glyph glyph-name="Sacute.sc" horiz-adv-x="536" 
d="M243 629h-37l121 125h79zM273 319c92 -28 207 -66 207 -178c0 -105 -102 -150 -196 -150c-83 0 -172 36 -227 66l22 34c53 -30 136 -62 208 -62c75 0 151 35 151 111c0 80 -84 110 -182 140c-90 27 -185 58 -185 158c0 97 88 145 181 145c69 0 151 -25 203 -51l-22 -33
c-55 26 -127 46 -182 46c-70 0 -137 -32 -137 -105c0 -77 74 -95 159 -121z" />
    <glyph glyph-name="S.sc" horiz-adv-x="536" 
d="M273 319c92 -28 207 -66 207 -178c0 -105 -102 -150 -196 -150c-83 0 -172 36 -227 66l22 34c53 -30 136 -62 208 -62c75 0 151 35 151 111c0 80 -84 110 -182 140c-90 27 -185 58 -185 158c0 97 88 145 181 145c69 0 151 -25 203 -51l-22 -33c-55 26 -127 46 -182 46
c-70 0 -137 -32 -137 -105c0 -77 74 -95 159 -121z" />
    <glyph glyph-name="Rsuperior" horiz-adv-x="446" 
d="M352 385l-120 183h-118v-183h-41v420h164c89 0 160 -30 160 -119c0 -76 -53 -109 -122 -116l123 -185h-46zM355 686c0 62 -50 85 -116 85h-125v-169h122c69 0 119 23 119 84z" />
    <glyph glyph-name="Rinferior" horiz-adv-x="447" 
d="M352 -150l-120 183h-118v-183h-41v420h164c89 0 160 -30 160 -119c0 -76 -53 -109 -122 -116l123 -185h-46zM355 151c0 62 -50 85 -116 85h-125v-169h122c69 0 119 23 119 84z" />
    <glyph glyph-name="paragraph.sc" horiz-adv-x="542" 
d="M250 574h39v-726h-41v393c-125 0 -203 59 -203 166c0 108 66 167 205 167zM399 -153v727h41v-727h-41z" />
    <glyph glyph-name="Rcommaaccent.sc" horiz-adv-x="602" 
d="M489 0l-169 255h-175v-255h-43v574h218c117 0 218 -38 218 -160c0 -107 -79 -149 -174 -158l175 -256h-50zM492 414c0 88 -71 122 -167 122h-180v-243h175c101 0 172 33 172 121zM268 -148v81h60l10 -81l-57 -108l-21 20l37 88h-29z" />
    <glyph glyph-name="parenleft.sc" horiz-adv-x="296" 
d="M100 14v543c0 74 4 98 130 131l15 -33c-102 -31 -102 -38 -102 -103v-534c0 -64 0 -71 102 -102l-15 -33c-126 33 -130 57 -130 131z" />
    <glyph glyph-name="Rcaron.sc" horiz-adv-x="602" 
d="M489 0l-169 255h-175v-255h-43v574h218c117 0 218 -38 218 -160c0 -107 -79 -149 -174 -158l175 -256h-50zM492 414c0 88 -71 122 -167 122h-180v-243h175c101 0 172 33 172 121zM449 754l-96 -125h-67l-94 125h38l90 -93l91 93h38z" />
    <glyph glyph-name="Racute.sc" horiz-adv-x="602" 
d="M489 0l-169 255h-175v-255h-43v574h218c117 0 218 -38 218 -160c0 -107 -79 -149 -174 -158l175 -256h-50zM492 414c0 88 -71 122 -167 122h-180v-243h175c101 0 172 33 172 121zM295 629h-38l121 125h79z" />
    <glyph glyph-name="R.sc" horiz-adv-x="602" 
d="M489 0l-169 255h-175v-255h-43v574h218c117 0 218 -38 218 -160c0 -107 -79 -149 -174 -158l175 -256h-50zM492 414c0 88 -71 122 -167 122h-180v-243h175c101 0 172 33 172 121z" />
    <glyph glyph-name="parenright.sc" horiz-adv-x="295" 
d="M196 557v-543c0 -74 -4 -98 -129 -131l-16 33c102 31 102 38 102 102v534c0 65 0 72 -102 103l16 33c125 -33 129 -57 129 -131z" />
    <glyph glyph-name="f_b.ss01" horiz-adv-x="916" 
d="M40 489v36h74v102c0 85 61 102 118 102c56 0 146 -18 188 -27v27h42v-278c40 38 105 85 191 85c105 0 198 -74 198 -274c0 -199 -93 -273 -198 -273c-86 0 -151 47 -191 85v-74h-42v663c-37 7 -149 28 -196 28c-38 0 -69 -18 -69 -59v-107h148v-36h-148v-489h-41v489h-74
zM656 498c-80 0 -150 -46 -194 -95v-282c44 -48 114 -94 194 -94c99 0 151 91 151 235c0 145 -52 236 -151 236z" />
    <glyph glyph-name="Qinferior" horiz-adv-x="483" 
d="M241 -157c-137 0 -187 99 -187 217c0 119 50 217 187 217s188 -98 188 -217c0 -103 -39 -192 -141 -212l76 -59l-28 -29zM241 -121c110 0 146 81 146 181s-36 181 -146 181s-145 -81 -145 -181s35 -181 145 -181z" />
    <glyph glyph-name="Q.sc" horiz-adv-x="648" 
d="M323 -9c-185 1 -252 135 -252 296c0 163 67 296 253 296c185 0 253 -133 253 -296c0 -145 -56 -269 -202 -292l108 -83l-32 -32zM324 30c158 0 208 115 208 257s-50 257 -208 257c-157 0 -208 -115 -208 -257s51 -257 208 -257z" />
    <glyph glyph-name="Psuperior" horiz-adv-x="424" 
d="M383 679c0 -96 -71 -126 -160 -126h-109v-168h-41v420h150c89 0 160 -31 160 -126zM341 679c0 68 -51 91 -116 91h-111v-183h111c65 0 116 23 116 92z" />
    <glyph glyph-name="percent.onum" horiz-adv-x="876" 
d="M356 429c0 -103 -65 -153 -151 -153c-87 0 -151 50 -151 153c0 104 64 154 151 154c86 0 151 -50 151 -154zM315 429c0 77 -42 121 -110 121s-110 -44 -110 -121s42 -120 110 -120s110 43 110 120zM620 574l-322 -574h-41l321 574h42zM822 144c0 -103 -65 -153 -151 -153
c-87 0 -151 50 -151 153c0 104 64 154 151 154c86 0 151 -50 151 -154zM780 144c0 78 -41 122 -109 122c-69 0 -110 -44 -110 -122c0 -76 41 -119 110 -119c68 0 109 43 109 119z" />
    <glyph glyph-name="percentinferior" horiz-adv-x="642" 
d="M263 164c0 -75 -47 -112 -112 -112c-66 0 -111 37 -111 112s45 113 111 113c65 0 112 -38 112 -113zM227 164c0 54 -28 84 -76 84c-47 0 -74 -30 -74 -84s27 -84 74 -84c48 0 76 30 76 84zM456 270l-237 -427h-36l236 427h37zM601 -44c0 -75 -46 -113 -110 -113
c-66 0 -112 38 -112 113s46 112 112 112c64 0 110 -37 110 -112zM566 -44c0 54 -28 84 -75 84c-48 0 -76 -30 -76 -84s28 -84 76 -84c47 0 75 30 75 84z" />
    <glyph glyph-name="percentsuperior" horiz-adv-x="642" 
d="M263 699c0 -75 -47 -112 -112 -112c-66 0 -111 37 -111 112s45 113 111 113c65 0 112 -38 112 -113zM227 699c0 54 -28 84 -76 84c-47 0 -74 -30 -74 -84s27 -84 74 -84c48 0 76 30 76 84zM456 805l-237 -427h-36l236 427h37zM601 491c0 -75 -46 -113 -110 -113
c-66 0 -112 38 -112 113s46 112 112 112c64 0 110 -37 110 -112zM566 491c0 54 -28 84 -75 84c-48 0 -76 -30 -76 -84s28 -84 76 -84c47 0 75 30 75 84z" />
    <glyph glyph-name="Pinferior" horiz-adv-x="424" 
d="M383 144c0 -96 -71 -126 -160 -126h-109v-168h-41v420h150c89 0 160 -31 160 -126zM341 144c0 68 -51 91 -116 91h-111v-183h111c65 0 116 23 116 92z" />
    <glyph glyph-name="P.sc" horiz-adv-x="567" 
d="M518 404c0 -132 -101 -170 -217 -170h-156v-234h-43v574h199c116 0 217 -39 217 -170zM473 404c0 98 -73 132 -167 132h-161v-264h161c94 0 167 34 167 132z" />
    <glyph glyph-name="Otilde.sc" horiz-adv-x="647" 
d="M323 583c185 0 253 -133 253 -296c0 -161 -68 -296 -253 -296c-186 0 -253 135 -253 296c0 163 67 296 253 296zM323 30c158 0 208 115 208 257s-50 257 -208 257c-157 0 -208 -115 -208 -257s51 -257 208 -257zM214 642l-32 12c23 44 43 71 81 71c48 0 86 -49 118 -49
c16 0 27 6 49 46l32 -12c-22 -44 -43 -71 -81 -71c-48 0 -86 49 -118 49c-16 0 -27 -6 -49 -46z" />
    <glyph glyph-name="Osuperior" horiz-adv-x="483" 
d="M241 812c137 0 188 -98 188 -217c0 -118 -51 -217 -188 -217s-187 99 -187 217c0 119 50 217 187 217zM241 414c110 0 146 81 146 181s-36 181 -146 181s-145 -81 -145 -181s35 -181 145 -181z" />
    <glyph glyph-name="Oslashacute.sc" horiz-adv-x="644" 
d="M565 574l-54 -70c45 -54 64 -131 64 -217c0 -161 -68 -296 -253 -296c-72 0 -127 20 -166 54l-35 -45h-42l54 69c-45 55 -64 133 -64 218c0 163 67 296 253 296c72 0 126 -20 166 -55l35 46h42zM322 30c158 0 208 115 208 257c0 71 -13 136 -46 183l-302 -391
c32 -31 77 -49 140 -49zM114 287c0 -72 13 -136 46 -183l302 391c-32 31 -78 49 -140 49c-157 0 -208 -115 -208 -257zM296 629h-37l121 125h79z" />
    <glyph glyph-name="perthousand.onum" horiz-adv-x="1239" 
d="M356 429c0 -103 -65 -153 -151 -153c-87 0 -151 50 -151 153c0 104 64 154 151 154c86 0 151 -50 151 -154zM315 429c0 77 -42 121 -110 121s-110 -44 -110 -121s42 -120 110 -120s110 43 110 120zM822 144c0 -103 -65 -153 -151 -153c-87 0 -151 50 -151 153
c0 104 64 154 151 154c86 0 151 -50 151 -154zM780 144c0 78 -41 122 -109 122c-69 0 -110 -44 -110 -122c0 -76 41 -119 110 -119c68 0 109 43 109 119zM1185 144c0 -103 -64 -153 -151 -153c-88 0 -152 50 -152 153c0 104 64 154 152 154c87 0 151 -50 151 -154zM1143 144
c0 78 -40 122 -109 122s-109 -44 -109 -122c0 -76 40 -119 109 -119s109 43 109 119zM620 574l-322 -574h-41l321 574h42z" />
    <glyph glyph-name="Omacron.sc" horiz-adv-x="648" 
d="M324 583c185 0 253 -133 253 -296c0 -161 -68 -296 -253 -296c-186 0 -253 135 -253 296c0 163 67 296 253 296zM324 30c158 0 208 115 208 257s-50 257 -208 257c-157 0 -208 -115 -208 -257s51 -257 208 -257zM182 654v36h282v-36h-282z" />
    <glyph glyph-name="peseta.onum" horiz-adv-x="591" 
d="M78 387v32h28v155h198c112 0 210 -36 217 -155h24v-32h-24c-8 -118 -105 -153 -217 -153h-155v-234h-43v387h-28zM149 536v-117h327c-7 86 -77 117 -166 117h-161zM310 272c88 0 158 30 166 115h-327v-115h161z" />
    <glyph glyph-name="pesetainferior" horiz-adv-x="436" 
d="M54 129v28h20v113h149c85 0 154 -28 160 -113h18v-28h-18c-7 -84 -76 -111 -160 -111h-108v-168h-41v279h-20zM115 235v-78h226c-6 58 -55 78 -115 78h-111zM226 52c60 0 108 19 115 77h-226v-77h111z" />
    <glyph glyph-name="pesetasuperior" horiz-adv-x="436" 
d="M54 664v28h20v113h149c85 0 154 -28 160 -113h18v-28h-18c-7 -84 -76 -111 -160 -111h-108v-168h-41v279h-20zM115 770v-78h226c-6 58 -55 78 -115 78h-111zM226 587c60 0 108 19 115 77h-226v-77h111z" />
    <glyph glyph-name="Oinferior" horiz-adv-x="483" 
d="M241 277c137 0 188 -98 188 -217c0 -118 -51 -217 -188 -217s-187 99 -187 217c0 119 50 217 187 217zM241 -121c110 0 146 81 146 181s-36 181 -146 181s-145 -81 -145 -181s35 -181 145 -181z" />
    <glyph glyph-name="pinferior" horiz-adv-x="391" 
d="M101 165v-43c26 22 65 50 119 50c68 0 125 -47 125 -165c0 -117 -57 -164 -125 -164c-54 0 -93 28 -119 50v-165h-39v437h39zM216 139c-46 0 -88 -26 -115 -54v-155c27 -28 69 -54 115 -54c59 0 89 50 89 131c0 82 -30 132 -89 132z" />
    <glyph glyph-name="Ohungarumlaut.sc" horiz-adv-x="648" 
d="M324 583c185 0 253 -133 253 -296c0 -161 -68 -296 -253 -296c-186 0 -253 135 -253 296c0 163 67 296 253 296zM324 30c158 0 208 115 208 257s-50 257 -208 257c-157 0 -208 -115 -208 -257s51 -257 208 -257zM386 629h-29l75 125h72zM252 629h-31l77 125h71z" />
    <glyph glyph-name="plusinferior" horiz-adv-x="406" 
d="M186 184h34v-118h140v-32h-140v-118h-34v118h-140v32h140v118z" />
    <glyph glyph-name="Ograve.sc" horiz-adv-x="648" 
d="M324 583c185 0 253 -133 253 -296c0 -161 -68 -296 -253 -296c-186 0 -253 135 -253 296c0 163 67 296 253 296zM324 30c158 0 208 115 208 257s-50 257 -208 257c-157 0 -208 -115 -208 -257s51 -257 208 -257zM387 629h-37l-163 125h78z" />
    <glyph glyph-name="Odieresis.sc" horiz-adv-x="648" 
d="M324 583c185 0 253 -133 253 -296c0 -161 -68 -296 -253 -296c-186 0 -253 135 -253 296c0 163 67 296 253 296zM324 30c158 0 208 115 208 257s-50 257 -208 257c-157 0 -208 -115 -208 -257s51 -257 208 -257zM213 639v78h61v-78h-61zM374 639v78h59v-78h-59z" />
    <glyph glyph-name="Ocircumflex.sc" horiz-adv-x="648" 
d="M324 583c185 0 253 -133 253 -296c0 -161 -68 -296 -253 -296c-186 0 -253 135 -253 296c0 163 67 296 253 296zM324 30c158 0 208 115 208 257s-50 257 -208 257c-157 0 -208 -115 -208 -257s51 -257 208 -257zM357 754l95 -125h-37l-92 93l-90 -93h-38l95 125h67z" />
    <glyph glyph-name="psuperior" horiz-adv-x="391" 
d="M101 700v-43c26 22 65 50 119 50c68 0 125 -47 125 -165c0 -117 -57 -164 -125 -164c-54 0 -93 27 -119 50v-165h-39v437h39zM216 674c-46 0 -88 -26 -115 -54v-156c27 -28 69 -53 115 -53c59 0 89 50 89 131c0 82 -30 132 -89 132z" />
    <glyph glyph-name="Obreve.sc" horiz-adv-x="648" 
d="M324 583c185 0 253 -133 253 -296c0 -161 -68 -296 -253 -296c-186 0 -253 135 -253 296c0 163 67 296 253 296zM324 30c158 0 208 115 208 257s-50 257 -208 257c-157 0 -208 -115 -208 -257s51 -257 208 -257zM323 629c-81 0 -128 38 -128 97h39c0 -44 35 -60 89 -60
s90 16 90 60h39c0 -59 -48 -97 -129 -97z" />
    <glyph glyph-name="qinferior" horiz-adv-x="391" 
d="M290 -272v165c-25 -22 -66 -50 -119 -50c-68 0 -125 47 -125 164c0 118 57 165 125 165c53 0 94 -28 119 -50v43h39v-437h-39zM176 -124c46 0 86 26 114 54v155c-28 28 -68 54 -114 54c-59 0 -89 -50 -89 -132c0 -81 30 -131 89 -131z" />
    <glyph glyph-name="qsuperior" horiz-adv-x="391" 
d="M290 263v165c-25 -23 -66 -50 -119 -50c-68 0 -125 47 -125 164c0 118 57 165 125 165c53 0 94 -28 119 -50v43h39v-437h-39zM176 411c46 0 86 26 114 54v155c-28 28 -68 54 -114 54c-59 0 -89 -50 -89 -132c0 -81 30 -131 89 -131z" />
    <glyph glyph-name="Oacute.sc" horiz-adv-x="648" 
d="M324 583c185 0 253 -133 253 -296c0 -161 -68 -296 -253 -296c-186 0 -253 135 -253 296c0 163 67 296 253 296zM324 30c158 0 208 115 208 257s-50 257 -208 257c-157 0 -208 -115 -208 -257s51 -257 208 -257zM297 629h-37l121 125h79z" />
    <glyph glyph-name="question.sc" horiz-adv-x="447" 
d="M158 0v79h57v-79h-57zM394 449c0 -90 -82 -138 -185 -163l-4 -122h-37l-5 148c109 23 188 57 188 134c0 66 -61 99 -128 99c-61 0 -116 -26 -158 -50l-24 29c39 26 109 59 184 59c83 0 169 -42 169 -134z" />
    <glyph glyph-name="OE.sc" horiz-adv-x="963" 
d="M902 0h-367v101c-39 -67 -106 -110 -211 -110c-186 0 -253 135 -253 296c0 163 67 296 253 296c105 0 172 -43 211 -110v101h361v-38h-318v-230h264v-38h-264v-230h324v-38zM324 30c158 0 208 115 208 257s-50 257 -208 257c-157 0 -208 -115 -208 -257s51 -257 208 -257
z" />
    <glyph glyph-name="questiondown.sc" horiz-adv-x="449" 
d="M53 125c0 90 83 138 184 163l5 122h36l6 -148c-109 -23 -188 -57 -188 -134c0 -66 60 -99 128 -99c61 0 115 26 157 50l25 -29c-38 -26 -110 -59 -185 -59c-80 0 -168 42 -168 134zM289 574v-79h-58v79h58z" />
    <glyph glyph-name="questiondowninferior" horiz-adv-x="333" 
d="M40 -57c0 68 61 102 136 120l3 85h31l5 -107c-80 -17 -134 -41 -134 -94c0 -45 40 -69 89 -69c42 0 81 19 111 36l21 -27c-27 -18 -80 -44 -136 -44c-63 0 -126 33 -126 100zM220 270v-62h-50v62h50z" />
    <glyph glyph-name="questiondownsuperior" horiz-adv-x="335" 
d="M40 478c0 68 61 102 136 120l3 85h31l5 -107c-80 -17 -134 -41 -134 -94c0 -45 40 -69 89 -69c42 0 81 19 111 36l21 -27c-27 -18 -80 -44 -136 -44c-63 0 -126 33 -126 100zM220 805v-62h-50v62h50z" />
    <glyph glyph-name="questioninferior" horiz-adv-x="333" 
d="M113 -150v62h51v-62h-51zM293 177c0 -68 -61 -102 -136 -120l-3 -85h-31l-4 107c79 17 133 41 133 94c0 45 -40 69 -88 69c-43 0 -82 -19 -112 -36l-21 27c28 18 80 44 136 44c63 0 126 -33 126 -100z" />
    <glyph glyph-name="questionsuperior" horiz-adv-x="334" 
d="M114 385v62h51v-62h-51zM294 712c0 -68 -61 -102 -136 -120l-3 -85h-31l-4 107c79 17 133 41 133 94c0 45 -40 69 -88 69c-43 0 -82 -19 -112 -36l-21 27c28 18 80 44 136 44c63 0 126 -33 126 -100z" />
    <glyph glyph-name="O.sc" horiz-adv-x="648" 
d="M324 583c185 0 253 -133 253 -296c0 -161 -68 -296 -253 -296c-186 0 -253 135 -253 296c0 163 67 296 253 296zM324 30c158 0 208 115 208 257s-50 257 -208 257c-157 0 -208 -115 -208 -257s51 -257 208 -257z" />
    <glyph glyph-name="Ntilde.sc" horiz-adv-x="644" 
d="M149 574l350 -514v514h43v-574h-47l-350 512v-512h-43v574h47zM218 642l-32 12c23 44 43 71 81 71c48 0 86 -49 118 -49c16 0 27 6 49 46l32 -12c-22 -44 -43 -71 -81 -71c-48 0 -86 49 -118 49c-16 0 -27 -6 -49 -46z" />
    <glyph glyph-name="Nsuperior" horiz-adv-x="474" 
d="M357 385l-243 362v-362h-41v420h43l243 -361v361h42v-420h-44z" />
    <glyph glyph-name="Ninferior" horiz-adv-x="474" 
d="M357 -150l-243 362v-362h-41v420h43l243 -360v360h42v-420h-44z" />
    <glyph glyph-name="Ncommaaccent.sc" horiz-adv-x="644" 
d="M149 574l350 -514v514h43v-574h-47l-350 512v-512h-43v574h47zM296 -148v81h60l11 -81l-57 -108l-22 20l37 88h-29z" />
    <glyph glyph-name="Ncaron.sc" horiz-adv-x="644" 
d="M495 0l-350 512v-512h-43v574h47l350 -514v514h43v-574h-47zM455 754l-95 -125h-67l-95 125h38l90 -93l92 93h37z" />
    <glyph glyph-name="Nacute.sc" horiz-adv-x="644" 
d="M495 0l-350 512v-512h-43v574h47l350 -514v514h43v-574h-47zM296 629h-38l121 125h80z" />
    <glyph glyph-name="N.sc" horiz-adv-x="644" 
d="M495 0l-350 512v-512h-43v574h47l350 -514v514h43v-574h-47z" />
    <glyph glyph-name="Msuperior" horiz-adv-x="545" 
d="M431 385v353l-143 -283h-30l-144 283v-353h-41v420h43l156 -306l157 306h43v-420h-41z" />
    <glyph glyph-name="Minferior" horiz-adv-x="545" 
d="M431 -150v353l-143 -283h-30l-144 283v-353h-41v420h43l156 -305l157 305h43v-420h-41z" />
    <glyph glyph-name="M.sc" horiz-adv-x="743" 
d="M598 0v502l-208 -406h-36l-209 408v-504h-43v574h47l223 -431l222 431h47v-574h-43z" />
    <glyph glyph-name="Lsuperior" horiz-adv-x="366" 
d="M335 385h-262v420h41v-385h221v-35z" />
    <glyph glyph-name="Lslash.sc" horiz-adv-x="491" 
d="M458 0h-352v236l-66 -34v45l66 34v293h43v-270l121 63v-45l-121 -63v-221h309v-38z" />
    <glyph glyph-name="Linferior" horiz-adv-x="366" 
d="M335 -150h-262v420h41v-385h221v-35z" />
    <glyph glyph-name="rinferior" horiz-adv-x="254" 
d="M101 165v-68c4 10 38 78 126 72v-37c-113 0 -126 -99 -126 -99v-183h-39v315h39z" />
    <glyph glyph-name="Ldot.sc" horiz-adv-x="489" 
d="M454 0h-352v574h43v-536h309v-38zM339 260v78h60v-78h-60z" />
    <glyph glyph-name="Lcommaaccent.sc" horiz-adv-x="487" 
d="M454 0h-352v574h43v-536h309v-38zM246 -148v81h60l11 -81l-57 -108l-21 20l37 88h-30z" />
    <glyph glyph-name="Lcaron.sc" horiz-adv-x="487" 
d="M454 0h-352v574h43v-536h309v-38zM196 493v81h60l11 -81l-57 -108l-21 20l37 88h-30z" />
    <glyph glyph-name="s_h" horiz-adv-x="1093" 
d="M634 729v-286c35 28 132 93 226 93c114 0 143 -78 143 -159v-377h-42v373c0 69 -22 125 -105 125c-86 0 -185 -67 -222 -99v-399h-42v697h-107c-82 0 -126 -51 -126 -124c0 -27 5 -49 16 -66c17 -7 33 -15 47 -22l-23 -33c-49 25 -109 46 -164 46
c-71 0 -128 -33 -128 -96c0 -78 97 -99 146 -112c125 -33 191 -78 191 -162c0 -100 -93 -139 -178 -139c-83 0 -163 35 -211 62l23 34c49 -28 122 -58 185 -58c66 0 139 30 139 100c0 79 -99 105 -163 123c-79 22 -173 50 -173 150c0 91 78 136 171 136c34 0 67 -6 97 -15
c-8 16 -11 35 -11 58c0 95 64 150 160 150h151z" />
    <glyph glyph-name="s_k" horiz-adv-x="995" 
d="M937 525l-178 -214l211 -311h-46l-191 279l-99 -120v-159h-42v697h-107c-82 0 -126 -51 -126 -124c0 -27 5 -49 16 -66c17 -7 33 -15 47 -22l-23 -33c-49 25 -109 46 -164 46c-71 0 -128 -33 -128 -96c0 -78 97 -99 146 -112c125 -33 191 -78 191 -162
c0 -100 -93 -139 -178 -139c-83 0 -163 35 -211 62l23 34c49 -28 122 -58 185 -58c66 0 139 30 139 100c0 79 -99 105 -163 123c-79 22 -173 50 -173 150c0 91 78 136 171 136c34 0 67 -6 97 -15c-8 16 -11 35 -11 58c0 95 64 150 160 150h151v-518l255 314h48z" />
    <glyph glyph-name="s_l" horiz-adv-x="740" 
d="M640 0h-42v697h-113c-82 0 -126 -51 -126 -124c0 -27 5 -49 16 -66c17 -7 33 -15 47 -22l-23 -33c-49 25 -109 46 -164 46c-71 0 -128 -33 -128 -96c0 -78 97 -99 146 -112c125 -33 191 -78 191 -162c0 -100 -93 -139 -178 -139c-83 0 -163 35 -211 62l23 34
c49 -28 122 -58 185 -58c66 0 139 30 139 100c0 79 -99 105 -163 123c-79 22 -173 50 -173 150c0 91 78 136 171 136c34 0 67 -6 97 -15c-8 16 -11 35 -11 58c0 95 64 150 160 150h157v-729z" />
    <glyph glyph-name="Lacute.sc" horiz-adv-x="487" 
d="M454 0h-352v574h44v-536h308v-38zM98 629h-37l121 125h79z" />
    <glyph glyph-name="L.sc" horiz-adv-x="487" 
d="M454 0h-352v574h43v-536h309v-38z" />
    <glyph glyph-name="Ksuperior" horiz-adv-x="426" 
d="M73 385v420h41v-248l219 248h48l-180 -203l202 -217h-50l-176 190l-63 -72v-118h-41z" />
    <glyph glyph-name="Kinferior" horiz-adv-x="426" 
d="M73 -150v420h41v-248l219 248h48l-180 -203l202 -217h-50l-176 190l-63 -71v-119h-41z" />
    <glyph glyph-name="Kcommaaccent.sc" horiz-adv-x="569" 
d="M102 0v574h43v-350l313 350h52l-249 -278l282 -296h-54l-254 267l-90 -101v-166h-43zM259 -148v81h60l11 -81l-58 -108l-21 20l37 88h-29z" />
    <glyph glyph-name="K.sc" horiz-adv-x="569" 
d="M102 0v574h43v-350l313 350h52l-249 -278l282 -296h-54l-254 267l-90 -101v-166h-43z" />
    <glyph glyph-name="Jsuperior" horiz-adv-x="187" 
d="M114 805v-396c0 -62 0 -82 -102 -107l-14 31c75 23 75 29 75 75v397h41z" />
    <glyph glyph-name="Jinferior" horiz-adv-x="187" 
d="M114 270v-396c0 -62 0 -82 -102 -107l-14 31c75 23 75 29 75 75v397h41z" />
    <glyph glyph-name="semicoloninferior" horiz-adv-x="189" 
d="M69 59v64h49v-64h-49zM69 -150v64h48l8 -66l-44 -74l-16 16l27 60h-23z" />
    <glyph glyph-name="semicolonsuperior" horiz-adv-x="189" 
d="M69 594v64h49v-64h-49zM69 385v64h48l8 -66l-44 -74l-16 16l27 60h-23z" />
    <glyph glyph-name="Jcircumflex.sc" horiz-adv-x="246" 
d="M144 574v-545c0 -80 0 -104 -131 -138l-15 35c103 32 103 38 103 103v545h43zM155 754l96 -125h-38l-91 93l-90 -93h-38l95 125h66z" />
    <glyph glyph-name="J.sc" horiz-adv-x="247" 
d="M145 574v-545c0 -80 0 -104 -131 -138l-15 35c103 32 103 38 103 103v545h43z" />
    <glyph glyph-name="seven.dnom" horiz-adv-x="339" 
d="M310 390c0 0 -163 -193 -163 -390h-43c0 178 146 369 158 385h-229v35h277v-30z" />
    <glyph glyph-name="seven.numr" horiz-adv-x="339" 
d="M310 670c0 0 -163 -193 -163 -390h-43c0 178 146 369 158 385h-229v35h277v-30z" />
    <glyph glyph-name="seven.onum" horiz-adv-x="491" 
d="M463 542c0 0 -261 -326 -261 -668h-48c0 302 229 626 253 660h-372v40h428v-32z" />
    <glyph glyph-name="seven.tnum" horiz-adv-x="600" 
d="M518 668c0 0 -261 -326 -261 -668h-48c0 302 229 626 253 660h-372v40h428v-32z" />
    <glyph glyph-name="Itilde.sc" horiz-adv-x="247" 
d="M15 642l-32 12c23 44 43 71 81 71c48 0 86 -49 118 -49c16 0 27 6 49 46l32 -12c-22 -44 -43 -71 -81 -71c-48 0 -86 49 -118 49c-16 0 -27 -6 -49 -46zM145 0h-43v574h43v-574z" />
    <glyph glyph-name="seveneighths.onum" horiz-adv-x="731" 
d="M398 88c0 54 51 82 95 98c-33 13 -72 36 -72 81c0 51 48 83 115 83c66 0 116 -32 116 -83c0 -46 -41 -69 -74 -81c44 -16 96 -44 96 -98c0 -59 -61 -94 -138 -94c-76 0 -138 35 -138 94zM484 574l-292 -574h-39l292 574h39zM635 89c0 45 -54 68 -100 83
c-48 -16 -98 -39 -98 -83c0 -41 44 -65 99 -65c54 0 99 24 99 65zM287 548c0 0 -142 -158 -142 -318h-39c0 141 121 293 137 313h-198v31h242v-26zM457 264c0 -39 48 -55 79 -65c30 9 78 26 78 65c0 32 -33 58 -78 58c-46 0 -79 -27 -79 -58z" />
    <glyph glyph-name="Isuperior" horiz-adv-x="187" 
d="M114 385h-41v420h41v-420z" />
    <glyph glyph-name="Iogonek.sc" horiz-adv-x="248" 
d="M42 -97c0 -44 50 -40 82 -40l-8 -38c-36 0 -119 0 -119 72c0 42 49 80 105 105v572h44v-574h-3c-38 -22 -101 -52 -101 -97z" />
    <glyph glyph-name="sinferior" horiz-adv-x="335" 
d="M176 28c76 -19 120 -46 120 -99c0 -60 -57 -86 -117 -86c-53 0 -108 22 -139 38l18 29c32 -17 80 -35 118 -35c41 0 81 16 81 53c0 43 -58 56 -99 67c-51 13 -112 32 -112 92c0 55 49 85 113 85c48 0 93 -17 123 -32l-19 -27c-30 15 -69 28 -103 28
c-43 0 -76 -18 -76 -52c0 -42 59 -53 92 -61z" />
    <glyph glyph-name="Imacron.sc" horiz-adv-x="246" 
d="M144 0h-42v574h42v-574zM-18 654v36h282v-36h-282z" />
    <glyph glyph-name="six.dnom" horiz-adv-x="405" 
d="M275 392c-94 0 -164 -69 -178 -175c15 17 55 50 122 50c92 0 141 -62 141 -133c0 -75 -56 -141 -149 -141c-107 0 -158 85 -158 188c0 138 91 246 221 246c32 0 57 -7 57 -7l-9 -33s-22 5 -47 5zM215 234c-62 0 -106 -38 -120 -65c2 -85 43 -141 116 -141
c72 0 108 54 108 106c0 47 -30 100 -104 100z" />
    <glyph glyph-name="six.numr" horiz-adv-x="405" 
d="M275 672c-94 0 -164 -69 -178 -175c15 17 55 50 122 50c92 0 141 -62 141 -133c0 -75 -56 -141 -149 -141c-107 0 -158 85 -158 188c0 138 91 246 221 246c32 0 57 -7 57 -7l-9 -33s-22 5 -47 5zM215 514c-62 0 -106 -38 -120 -65c2 -85 43 -141 116 -141
c72 0 108 54 108 106c0 47 -30 100 -104 100z" />
    <glyph glyph-name="six.onum" horiz-adv-x="604" 
d="M413 671c-128 0 -264 -98 -290 -317c24 31 89 91 198 91c148 0 222 -107 222 -223c0 -124 -86 -233 -227 -233c-165 0 -241 148 -242 288c-2 294 174 434 337 434c48 0 86 -11 86 -11l-11 -38s-33 9 -73 9zM323 405c-108 0 -184 -71 -204 -120v-8
c0 -123 57 -248 197 -248c121 0 183 98 183 194c0 85 -49 182 -176 182z" />
    <glyph glyph-name="six.tnum" horiz-adv-x="600" 
d="M410 671c-128 0 -264 -98 -290 -317c24 31 89 91 198 91c148 0 222 -107 222 -223c0 -124 -86 -233 -227 -233c-165 0 -241 148 -242 288c-2 294 174 434 337 434c48 0 86 -11 86 -11l-11 -38s-33 9 -73 9zM320 405c-108 0 -184 -71 -204 -120v-8
c0 -123 57 -248 197 -248c121 0 183 98 183 194c0 85 -49 182 -176 182z" />
    <glyph glyph-name="Iinferior" horiz-adv-x="187" 
d="M114 -150h-41v420h41v-420z" />
    <glyph glyph-name="Igrave.sc" horiz-adv-x="248" 
d="M146 0h-44v574h44v-574zM187 629h-37l-163 125h78z" />
    <glyph glyph-name="Idieresis.sc" horiz-adv-x="247" 
d="M145 0h-43v574h43v-574zM13 639v78h61v-78h-61zM173 639v78h60v-78h-60z" />
    <glyph glyph-name="slash.sc" horiz-adv-x="399" 
d="M362 648l-292 -722h-39l292 722h39z" />
    <glyph glyph-name="Icircumflex.sc" horiz-adv-x="247" 
d="M145 0h-43v574h43v-574zM156 754l96 -125h-38l-91 93l-90 -93h-38l95 125h66z" />
    <glyph glyph-name="spaceinferior" horiz-adv-x="188" 
 />
    <glyph glyph-name="spacesuperior" horiz-adv-x="188" 
 />
    <glyph glyph-name="Ibreve.sc" horiz-adv-x="247" 
d="M123 629c-81 0 -128 38 -128 97h39c0 -44 35 -60 89 -60s90 16 90 60h39c0 -59 -48 -97 -129 -97zM145 0h-43v574h43v-574z" />
    <glyph glyph-name="Iacute.sc" horiz-adv-x="248" 
d="M146 0h-44v574h44v-574zM98 629h-37l121 125h79z" />
    <glyph glyph-name="sterling.onum" horiz-adv-x="495" 
d="M81 216v36h93c-15 73 -84 110 -84 194c0 81 66 137 165 137c69 0 131 -29 176 -52l-23 -32c-56 27 -106 46 -154 46c-79 0 -121 -49 -121 -103c0 -72 70 -112 84 -190h145v-36h-142c-5 -83 -72 -157 -92 -178h293v-38h-350v33s101 82 106 183h-96z" />
    <glyph glyph-name="IJ.sc" horiz-adv-x="494" 
d="M145 0h-43v574h43v-574zM374 574v-545c0 -80 0 -104 -131 -138l-15 35c103 32 103 38 103 103v545h43z" />
    <glyph glyph-name="I.sc" horiz-adv-x="247" 
d="M145 0h-43v574h43v-574z" />
    <glyph glyph-name="Hsuperior" horiz-adv-x="463" 
d="M349 385v203h-235v-203h-41v420h41v-182h235v182h41v-420h-41z" />
    <glyph glyph-name="Hinferior" horiz-adv-x="463" 
d="M349 -150v203h-235v-203h-41v420h41v-182h235v182h41v-420h-41z" />
    <glyph glyph-name="Hbar.sc" horiz-adv-x="634" 
d="M487 0v282h-340v-282h-43v428h-66v33h66v113h43v-113h340v113h43v-113h65v-33h-65v-428h-43zM147 428v-108h340v108h-340z" />
    <glyph glyph-name="H.sc" horiz-adv-x="630" 
d="M485 0v282h-340v-282h-43v574h43v-254h340v254h43v-574h-43z" />
    <glyph glyph-name="Gsuperior" horiz-adv-x="462" 
d="M363 385v51c-37 -29 -83 -58 -140 -58c-88 0 -169 65 -169 217s81 217 171 217c68 0 126 -35 170 -67l-23 -29c-34 22 -88 59 -145 59c-75 0 -130 -65 -130 -180c0 -113 54 -181 130 -181c57 0 111 42 136 63v99h-127v35h168v-226h-41z" />
    <glyph glyph-name="three.dnom" horiz-adv-x="388" 
d="M39 34l21 30c15 -10 69 -36 124 -36c62 0 112 34 112 89c0 70 -82 96 -144 96h-21v36h24c60 0 121 26 121 79c0 40 -35 64 -88 64c-49 0 -88 -21 -110 -35l-18 27c11 9 64 43 132 43c82 0 125 -48 125 -98c0 -36 -24 -77 -87 -97c61 -14 107 -57 107 -115
c0 -62 -48 -124 -149 -124c-66 0 -126 28 -149 41z" />
    <glyph glyph-name="three.numr" horiz-adv-x="388" 
d="M39 314l21 30c15 -10 69 -36 124 -36c62 0 112 34 112 89c0 70 -82 96 -144 96h-21v36h24c60 0 121 26 121 79c0 40 -35 64 -88 64c-49 0 -88 -21 -110 -35l-18 27c11 9 64 43 132 43c82 0 125 -48 125 -98c0 -36 -24 -77 -87 -97c61 -14 107 -57 107 -115
c0 -62 -48 -124 -149 -124c-66 0 -126 28 -149 41z" />
    <glyph glyph-name="three.onum" horiz-adv-x="566" 
d="M47 -76l23 36c14 -11 103 -59 195 -59c106 0 192 63 192 162c0 126 -134 176 -237 176h-31v42h36c103 0 200 51 200 144c0 74 -62 118 -152 118c-78 0 -139 -34 -172 -58l-22 32c17 13 95 66 197 66c124 0 193 -77 193 -160c0 -58 -36 -130 -144 -165
c100 -22 177 -94 177 -194c0 -102 -79 -203 -233 -203c-97 0 -187 41 -222 63z" />
    <glyph glyph-name="three.tnum" horiz-adv-x="600" 
d="M62 52l23 36c14 -11 103 -59 195 -59c106 0 192 63 192 162c0 126 -134 176 -237 176h-31v42h36c103 0 200 51 200 144c0 74 -62 118 -152 118c-78 0 -139 -34 -172 -58l-22 32c17 13 95 66 197 66c124 0 193 -77 193 -160c0 -58 -36 -130 -144 -165
c100 -22 177 -94 177 -194c0 -102 -79 -203 -233 -203c-97 0 -187 41 -222 63z" />
    <glyph glyph-name="Ginferior" horiz-adv-x="463" 
d="M363 -150v52c-37 -30 -83 -59 -140 -59c-88 0 -169 65 -169 217s81 217 171 217c68 0 126 -35 170 -67l-23 -29c-34 22 -88 59 -145 59c-75 0 -130 -65 -130 -180c0 -113 54 -181 130 -181c57 0 111 43 136 64v98h-127v35h168v-226h-41z" />
    <glyph glyph-name="threeeighths.onum" horiz-adv-x="827" 
d="M494 88c0 54 51 82 95 98c-33 13 -72 36 -72 81c0 51 48 83 116 83c66 0 115 -32 115 -83c0 -46 -40 -69 -73 -81c44 -16 95 -45 95 -98c0 -59 -61 -94 -137 -94s-139 35 -139 94zM57 258l19 26c13 -9 61 -30 108 -30c53 0 97 28 97 72c0 56 -72 77 -125 77h-18v31h20
c52 0 104 21 104 64c0 32 -29 51 -75 51c-42 0 -77 -17 -95 -29l-17 24c10 8 56 36 116 36c71 0 109 -40 109 -81c0 -30 -21 -63 -75 -79c52 -12 93 -47 93 -94c0 -51 -42 -102 -130 -102c-59 0 -112 23 -131 34zM581 574l-293 -574h-38l292 574h39zM731 89
c0 45 -53 67 -99 83c-47 -16 -99 -39 -99 -83c0 -41 44 -65 100 -65c54 0 98 24 98 65zM553 264c0 -39 48 -55 79 -65c30 9 78 26 78 65c0 32 -33 58 -77 58c-47 0 -80 -27 -80 -58z" />
    <glyph glyph-name="threefifths" horiz-adv-x="923" 
d="M588 214l23 206h230v-35h-197l-13 -140c21 10 47 19 82 19c90 0 146 -61 146 -133c0 -70 -52 -138 -154 -138c-61 0 -109 26 -134 41l19 31c12 -8 62 -36 111 -36c60 0 115 40 115 102c0 54 -40 99 -110 99c-43 0 -79 -17 -96 -27zM54 314l21 30c15 -10 69 -36 124 -36
c62 0 112 34 112 89c0 70 -82 96 -144 96h-21v36h24c60 0 121 26 121 79c0 40 -35 64 -88 64c-49 0 -88 -21 -110 -35l-18 27c11 9 64 43 132 43c82 0 125 -48 125 -98c0 -36 -24 -77 -87 -97c61 -14 107 -57 107 -115c0 -62 -48 -124 -149 -124c-66 0 -126 28 -149 41z
M654 700l-336 -700h-43l336 700h43z" />
    <glyph glyph-name="threefifths.onum" horiz-adv-x="824" 
d="M523 175l21 169h200v-30h-171l-11 -113c18 9 40 16 70 16c79 0 128 -50 128 -109c0 -58 -45 -114 -134 -114c-54 0 -96 22 -118 34l17 27c10 -6 54 -29 97 -29c52 0 99 32 99 82c0 43 -34 79 -95 79c-37 0 -68 -13 -83 -22zM57 258l19 26c13 -9 61 -30 108 -30
c53 0 97 28 97 72c0 56 -72 77 -125 77h-18v31h20c52 0 104 21 104 64c0 32 -29 51 -75 51c-42 0 -77 -17 -95 -29l-17 24c10 8 56 36 116 36c71 0 109 -40 109 -81c0 -30 -21 -63 -75 -79c52 -12 93 -47 93 -94c0 -51 -42 -102 -130 -102c-59 0 -112 23 -131 34zM581 574
l-293 -574h-38l292 574h39z" />
    <glyph glyph-name="Gdotaccent.sc" horiz-adv-x="623" 
d="M500 0v73c-51 -41 -116 -82 -197 -82c-121 0 -232 87 -232 296s111 296 232 296c93 0 173 -49 229 -92l-28 -31c-42 30 -119 84 -200 84c-108 0 -188 -93 -188 -257c0 -162 80 -257 188 -257c83 0 160 61 196 91v146h-180v38h224v-305h-44zM277 639v78h61v-78h-61z" />
    <glyph glyph-name="Gcommaaccent.sc" horiz-adv-x="623" 
d="M500 0v73c-51 -41 -116 -82 -197 -82c-121 0 -232 87 -232 296s111 296 232 296c93 0 173 -49 229 -92l-28 -31c-42 30 -119 84 -200 84c-108 0 -188 -93 -188 -257c0 -162 80 -257 188 -257c83 0 160 61 196 91v146h-180v38h224v-305h-44zM292 -148v81h60l11 -81
l-57 -108l-22 20l38 88h-30z" />
    <glyph glyph-name="threequarters.onum" horiz-adv-x="801" 
d="M456 79v27l187 238h48v-235h60v-30h-60v-79h-37v79h-198zM57 258l19 26c13 -9 61 -30 108 -30c53 0 97 28 97 72c0 56 -72 77 -125 77h-18v31h20c52 0 104 21 104 64c0 32 -29 51 -75 51c-42 0 -77 -17 -95 -29l-17 24c10 8 56 36 116 36c71 0 109 -40 109 -81
c0 -30 -21 -63 -75 -79c52 -12 93 -47 93 -94c0 -51 -42 -102 -130 -102c-59 0 -112 23 -131 34zM581 574l-293 -574h-38l292 574h39zM497 109h157v204z" />
    <glyph glyph-name="Gbreve.sc" horiz-adv-x="623" 
d="M500 0v73c-51 -41 -116 -82 -197 -82c-121 0 -232 87 -232 296s111 296 232 296c93 0 173 -49 229 -92l-28 -31c-42 30 -119 84 -200 84c-108 0 -188 -93 -188 -257c0 -162 80 -257 188 -257c83 0 160 61 196 91v146h-180v38h224v-305h-44zM306 629
c-81 0 -128 38 -128 97h39c0 -44 35 -60 89 -60s90 16 90 60h39c0 -59 -48 -97 -129 -97z" />
    <glyph glyph-name="G.sc" horiz-adv-x="623" 
d="M500 0v73c-51 -41 -116 -82 -197 -82c-121 0 -232 87 -232 296s111 296 232 296c93 0 173 -49 229 -92l-28 -31c-42 30 -119 84 -200 84c-108 0 -188 -93 -188 -257c0 -162 80 -257 188 -257c83 0 160 61 196 91v146h-180v38h224v-305h-44z" />
    <glyph glyph-name="tinferior" horiz-adv-x="259" 
d="M30 134v31h46v79l40 12v-91h91v-31h-91v-222c0 -27 12 -35 31 -35c20 0 54 12 66 17l16 -30c-13 -5 -54 -21 -86 -21c-35 0 -67 15 -67 71v220h-46z" />
    <glyph glyph-name="Fsuperior" horiz-adv-x="378" 
d="M342 770h-228v-158h183v-34h-183v-193h-41v420h269v-35z" />
    <glyph glyph-name="Finferior" horiz-adv-x="378" 
d="M342 235h-228v-158h183v-34h-183v-193h-41v420h269v-35z" />
    <glyph glyph-name="F.sc" horiz-adv-x="506" 
d="M464 536h-319v-230h256v-38h-256v-268h-43v574h362v-38z" />
    <glyph glyph-name="two.dnom" horiz-adv-x="382" 
d="M330 35v-35h-284v31c0 89 69 126 141 173c54 35 101 68 101 117c0 41 -34 71 -93 71c-50 0 -96 -23 -116 -38l-21 28c30 20 78 45 139 45c79 0 132 -41 132 -106c0 -79 -78 -120 -152 -168c-54 -35 -87 -61 -87 -118h240z" />
    <glyph glyph-name="two.numr" horiz-adv-x="382" 
d="M330 315v-35h-284v31c0 89 69 126 141 173c54 35 101 68 101 117c0 41 -34 71 -93 71c-50 0 -96 -23 -116 -38l-21 28c30 20 78 45 139 45c79 0 132 -41 132 -106c0 -79 -78 -120 -152 -168c-54 -35 -87 -61 -87 -118h240z" />
    <glyph glyph-name="two.onum" horiz-adv-x="568" 
d="M63 0v46c0 109 102 164 201 213c101 49 186 89 186 169c0 76 -61 115 -154 115c-91 0 -156 -38 -189 -62l-25 33c52 36 120 69 212 69c114 0 200 -47 200 -155c0 -104 -98 -151 -212 -208c-111 -55 -174 -91 -174 -180h387v-40h-432z" />
    <glyph glyph-name="two.tnum" horiz-adv-x="600" 
d="M511 40v-40h-432v46c0 150 108 208 224 288c86 60 163 119 163 207c0 76 -59 130 -158 130c-83 0 -154 -38 -185 -62l-25 33c48 34 118 69 208 69c118 0 204 -63 204 -171c0 -130 -124 -199 -246 -284c-92 -64 -143 -109 -143 -216h390z" />
    <glyph glyph-name="twofifths" horiz-adv-x="941" 
d="M606 214l24 206h229v-35h-197l-13 -140c21 10 47 19 82 19c90 0 146 -61 146 -133c0 -70 -51 -138 -153 -138c-61 0 -109 26 -135 41l20 31c11 -8 61 -36 111 -36c59 0 114 40 114 102c0 54 -39 99 -110 99c-42 0 -78 -17 -95 -27zM347 315v-35h-284v31
c0 89 69 126 141 173c54 35 101 68 101 117c0 41 -34 71 -93 71c-50 0 -96 -23 -116 -38l-21 28c30 20 78 45 139 45c79 0 132 -41 132 -106c0 -79 -78 -120 -152 -168c-54 -35 -87 -61 -87 -118h240zM672 700l-336 -700h-43l336 700h43z" />
    <glyph glyph-name="twofifths.onum" horiz-adv-x="840" 
d="M539 175l20 169h201v-30h-172l-11 -113c18 8 41 16 71 16c78 0 128 -50 128 -109c0 -58 -45 -114 -135 -114c-53 0 -96 22 -118 34l17 27c11 -6 54 -29 97 -29c52 0 99 32 99 82c0 43 -33 79 -94 79c-37 0 -69 -13 -84 -22zM312 260v-30h-248v26c0 72 60 103 122 141
c47 29 89 56 89 95c0 33 -30 57 -81 57c-43 0 -83 -19 -101 -31l-18 24c26 17 67 38 121 38c70 0 116 -34 116 -88c0 -65 -69 -98 -133 -137c-47 -28 -75 -49 -75 -95h208zM596 574l-293 -574h-38l292 574h39z" />
    <glyph glyph-name="Eurosuperior" horiz-adv-x="465" 
d="M46 630v28h43c19 107 89 154 166 154c62 0 119 -33 163 -62l-23 -29c-34 22 -86 54 -139 54c-60 0 -107 -42 -124 -117h190v-28h-195c-1 -11 -1 -23 -1 -35c0 -14 0 -26 2 -38h194v-28h-189c17 -74 64 -114 123 -114c53 0 105 32 139 54l23 -29
c-44 -29 -101 -62 -163 -62c-76 0 -146 46 -166 151h-43v28h40c-1 12 -2 24 -2 38c0 12 0 24 1 35h-39z" />
    <glyph glyph-name="Euroinferior" horiz-adv-x="465" 
d="M46 95v28h43c19 107 89 154 166 154c62 0 119 -33 163 -62l-23 -29c-34 22 -86 54 -139 54c-60 0 -107 -42 -124 -117h190v-28h-195c-1 -11 -1 -23 -1 -35c0 -14 0 -26 2 -38h194v-28h-189c17 -73 64 -114 123 -114c53 0 105 32 139 54l23 -29c-44 -29 -101 -62 -163 -62
c-76 0 -146 46 -166 151h-43v28h40c-1 12 -2 24 -2 38c0 12 0 24 1 35h-39z" />
    <glyph glyph-name="Euro.onum" horiz-adv-x="636" 
d="M63 338v34h60c26 148 122 211 224 211c85 0 163 -46 220 -85l-25 -30c-45 30 -118 77 -194 77c-88 0 -157 -62 -180 -173h273v-34h-278c-2 -16 -3 -33 -3 -51c0 -20 1 -39 3 -56h278v-34h-272c24 -108 92 -168 179 -168c76 0 149 47 194 77l25 -30
c-57 -39 -135 -85 -220 -85c-101 0 -196 62 -223 206h-61v34h56c-2 17 -3 36 -3 56c0 18 1 35 2 51h-55z" />
    <glyph glyph-name="twothirds.onum" horiz-adv-x="836" 
d="M312 260v-30h-248v26c0 72 60 103 122 141c47 29 89 56 89 95c0 33 -30 57 -81 57c-43 0 -83 -19 -101 -31l-18 24c26 17 67 38 121 38c70 0 116 -34 116 -88c0 -65 -69 -98 -133 -137c-47 -28 -75 -49 -75 -95h208zM596 574l-293 -574h-38l292 574h39zM516 28l19 26
c14 -8 61 -29 108 -29c54 0 97 27 97 71c0 57 -72 77 -125 77h-18v32h21c51 0 104 20 104 63c0 32 -30 52 -75 52c-42 0 -78 -18 -96 -29l-17 23c11 8 56 36 116 36c72 0 110 -39 110 -80c0 -30 -22 -63 -76 -80c53 -11 93 -46 93 -94c0 -51 -42 -102 -130 -102
c-58 0 -111 24 -131 34z" />
    <glyph glyph-name="Eth.sc" horiz-adv-x="622" 
d="M551 287c0 -205 -107 -287 -275 -287h-171v267h-66v40h66v267h171c168 0 275 -82 275 -287zM506 287c0 168 -68 249 -231 249h-127v-229h157v-40h-157v-229h127c163 0 231 81 231 249z" />
    <glyph glyph-name="Esuperior" horiz-adv-x="393" 
d="M346 385h-273v420h269v-35h-228v-158h190v-34h-190v-158h232v-35z" />
    <glyph glyph-name="Eogonek.sc" horiz-adv-x="530" 
d="M365 -97c0 -44 51 -40 82 -40l-8 -38c-36 0 -119 0 -119 72c0 41 45 77 100 103h-318v574h362v-38h-319v-230h265v-38h-265v-230h324v-38h-3c-38 -22 -101 -52 -101 -97z" />
    <glyph glyph-name="Eng.sc" horiz-adv-x="644" 
d="M542 574v-546c0 -79 -1 -103 -131 -137l-15 35c84 25 99 35 102 71l-353 515v-512h-43v574h47l350 -514v514h43z" />
    <glyph glyph-name="Emacron.sc" horiz-adv-x="530" 
d="M469 0h-367v574h362v-38h-319v-230h265v-38h-265v-230h324v-38zM143 654v36h282v-36h-282z" />
    <glyph glyph-name="Einferior" horiz-adv-x="393" 
d="M346 -150h-273v420h269v-35h-228v-158h190v-34h-190v-158h232v-35z" />
    <glyph glyph-name="Egrave.sc" horiz-adv-x="530" 
d="M469 0h-367v574h362v-38h-319v-230h265v-38h-265v-230h324v-38zM348 629h-37l-163 125h78z" />
    <glyph glyph-name="uinferior" horiz-adv-x="392" 
d="M291 -150v47c-24 -17 -82 -54 -139 -54c-72 0 -92 46 -92 97v225h39v-219c0 -39 13 -70 62 -70s107 36 130 55v234h39v-315h-39z" />
    <glyph glyph-name="Edotaccent.sc" horiz-adv-x="530" 
d="M469 0h-367v574h362v-38h-319v-230h265v-38h-265v-230h324v-38zM254 639v78h61v-78h-61z" />
    <glyph glyph-name="Edieresis.sc" horiz-adv-x="530" 
d="M469 0h-367v574h362v-38h-319v-230h265v-38h-265v-230h324v-38zM174 639v78h61v-78h-61zM335 639v78h59v-78h-59z" />
    <glyph glyph-name="Ecircumflex.sc" horiz-adv-x="530" 
d="M469 0h-367v574h362v-38h-319v-230h265v-38h-265v-230h324v-38zM318 754l95 -125h-37l-92 93l-90 -93h-38l95 125h67z" />
    <glyph glyph-name="Ecaron.sc" horiz-adv-x="530" 
d="M469 0h-367v574h362v-38h-319v-230h265v-38h-265v-230h324v-38zM413 754l-95 -125h-67l-95 125h38l90 -93l92 93h37z" />
    <glyph glyph-name="uni021a.sc" horiz-adv-x="506" 
d="M473 536h-198v-536h-44v536h-198v38h440v-38zM222 -148v81h60l11 -81l-58 -108l-21 20l37 88h-29z" />
    <glyph glyph-name="Eacute.sc" horiz-adv-x="530" 
d="M469 0h-367v574h362v-38h-319v-230h265v-38h-265v-230h324v-38zM259 629h-37l121 125h79z" />
    <glyph glyph-name="E.sc" horiz-adv-x="530" 
d="M469 0h-367v574h362v-38h-319v-230h265v-38h-265v-230h324v-38z" />
    <glyph glyph-name="uni20A9.onum" horiz-adv-x="899" 
d="M72 336v34h73l-60 204h46l57 -204h181l57 204h47l57 -204h181l57 204h47l-60 -204h74v-34h-84l-32 -109h116v-34h-126l-56 -193h-51l-146 517l-145 -517h-51l-57 193h-125v34h115l-32 109h-83zM198 336l30 -109h102l30 109h-162zM540 336l30 -109h102l30 109h-162z
M238 193l41 -148l41 148h-82zM580 193l41 -148l41 148h-82z" />
    </font>
</defs>
</svg>
