<?xml version="1.0" standalone="no"?>
<!DOCTYPE svg PUBLIC "-//W3C//DTD SVG 1.1//EN" "http://www.w3.org/Graphics/SVG/1.1/DTD/svg11.dtd" >
<svg xmlns="http://www.w3.org/2000/svg" xmlns:xlink="http://www.w3.org/1999/xlink" version="1.1">
<metadata>
Created by FontForge 20170910 at Sun Nov  4 10:53:11 2012
 By Jimmy Wärting
Copyright (c) 2012 by Yellow Design Studio. All rights reserved.
</metadata>
<defs>
<font id="VerbBlack" horiz-adv-x="637" >
  <font-face 
    font-family="Verb Black"
    font-weight="900"
    font-stretch="normal"
    units-per-em="1000"
    panose-1="2 0 10 0 3 0 0 2 0 4"
    ascent="800"
    descent="-200"
    x-height="525"
    cap-height="700"
    bbox="-122 -312 1442 962"
    underline-thickness="50"
    underline-position="-100"
    stemh="95"
    stemv="185"
    unicode-range="U+0020-FB06"
  />
<missing-glyph horiz-adv-x="261" 
 />
    <glyph glyph-name="f_f" unicode="ff" horiz-adv-x="799" 
d="M410 391v134h71c1 136 54 204 175 204c77 0 152 -28 192 -46l-61 -123c-13 5 -61 19 -81 19c-18 0 -41 -3 -41 -46v-8h124v-134h-124v-391h-184v391h-71zM15 391v134h72c1 136 54 204 174 204c77 0 153 -28 193 -46l-61 -123c-14 5 -61 19 -81 19c-18 0 -42 -3 -42 -46
v-8h106v-134h-106v-391h-183v391h-72z" />
    <glyph glyph-name="f_i" unicode="fi" horiz-adv-x="687" 
d="M15 391v134h72c1 136 54 204 174 204c59 0 121 -23 152 -37l-40 -126c-17 5 -47 13 -61 13c-18 0 -42 -3 -42 -46v-8h125v-134h-125v-391h-183v391h-72zM638 0h-185v525h185v-525zM450 582v144h192v-144h-192z" />
    <glyph glyph-name="f_l" unicode="fl" horiz-adv-x="689" 
d="M15 391v134h72c1 136 54 204 174 204c59 0 121 -23 152 -37l-40 -126c-17 5 -47 13 -61 13c-18 0 -42 -3 -42 -46v-8h125v-134h-125v-391h-183v391h-72zM639 0h-185v729h185v-729z" />
    <glyph glyph-name="f_f_i" unicode="ffi" horiz-adv-x="1083" 
d="M15 391v134h72c1 136 54 204 174 204c77 0 153 -28 193 -46l-47 -123c-17 5 -71 19 -95 19c-18 0 -42 -3 -42 -46v-8h106v-134h-106v-391h-183v391h-72zM410 391v134h71c1 136 54 204 175 204c59 0 121 -23 151 -37l-40 -126c-16 5 -46 13 -61 13c-18 0 -41 -3 -41 -46
v-8h124v-134h-124v-391h-184v391h-71zM1033 0h-184v525h184v-525zM846 582v144h192v-144h-192z" />
    <glyph glyph-name="f_f_l" unicode="ffl" horiz-adv-x="1084" 
d="M15 391v134h72c1 136 54 204 174 204c77 0 153 -28 193 -46l-47 -123c-17 5 -71 19 -95 19c-18 0 -42 -3 -42 -46v-8h106v-134h-106v-391h-183v391h-72zM410 391v134h71c1 136 54 204 175 204c59 0 121 -23 151 -37l-40 -126c-16 5 -46 13 -61 13c-18 0 -41 -3 -41 -46
v-8h124v-134h-124v-391h-184v391h-71zM1034 0h-184v729h184v-729z" />
    <glyph glyph-name="f_f_b" unicode="ffb" horiz-adv-x="1437" 
d="M849 0v729h184v-256c45 37 94 63 170 63c126 0 207 -95 207 -274c0 -177 -81 -273 -207 -273c-76 0 -125 26 -170 61v-50h-184zM15 391v134h72c1 136 54 204 174 204c77 0 153 -28 193 -46l-47 -123c-17 5 -71 19 -95 19c-18 0 -42 -3 -42 -46v-8h106v-134h-106v-391
h-183v391h-72zM410 391v134h72c1 136 54 204 175 204c59 0 121 -23 151 -37l-40 -126c-16 5 -46 13 -61 13c-18 0 -41 -3 -41 -46v-8h124v-134h-124v-391h-184v391h-72zM1142 389c-34 0 -74 -16 -109 -57v-140c35 -41 75 -56 109 -56c54 0 82 42 82 127
c0 84 -28 126 -82 126z" />
    <glyph glyph-name="f_f_h" unicode="ffh" horiz-adv-x="1436" 
d="M1033 729v-259c51 33 116 66 196 66c113 0 162 -62 162 -168v-368h-185v324c0 41 -10 70 -54 70c-41 0 -89 -26 -119 -55v-339h-184v729h184zM15 391v134h72c1 136 54 204 174 204c77 0 153 -28 193 -46l-47 -123c-17 5 -71 19 -95 19c-18 0 -42 -3 -42 -46v-8h106v-134
h-106v-391h-183v391h-72zM410 391v134h71c1 136 54 204 175 204c59 0 121 -23 151 -37l-40 -126c-16 5 -46 13 -61 13c-18 0 -41 -3 -41 -46v-8h124v-134h-124v-391h-184v391h-71z" />
    <glyph glyph-name="f_b" unicode="fb" horiz-adv-x="1041" 
d="M453 0v729h185v-256c45 37 94 63 169 63c126 0 208 -95 208 -274c0 -177 -82 -273 -208 -273c-75 0 -124 26 -169 61v-50h-185zM15 391v134h72c1 136 54 204 174 204c59 0 121 -23 152 -37l-40 -126c-17 5 -47 13 -61 13c-18 0 -42 -3 -42 -46v-8h125v-134h-125v-391
h-183v391h-72zM746 389c-33 0 -73 -16 -108 -57v-140c35 -41 75 -56 108 -56c55 0 82 42 82 127c0 84 -27 126 -82 126z" />
    <glyph glyph-name="f_f_j" unicode="ffj" horiz-adv-x="1083" 
d="M15 391v134h72c1 136 54 204 174 204c77 0 153 -28 193 -46l-47 -123c-17 5 -71 19 -95 19c-18 0 -42 -3 -42 -46v-8h106v-134h-106v-391h-183v391h-72zM410 391v134h72c1 136 54 204 175 204c59 0 121 -23 151 -37l-40 -126c-16 5 -46 13 -61 13c-18 0 -41 -3 -41 -46
v-8h124v-134h-124v-391h-184v391h-72zM1033 525v-489c0 -150 0 -217 -243 -270l-58 132c116 39 116 53 116 123v504h185zM844 582v144h192v-144h-192z" />
    <glyph glyph-name="f_f_k" unicode="ffk" horiz-adv-x="1399" 
d="M1380 525l-177 -206l208 -319h-194l-125 189l-59 -69v-120h-184v729h184v-381l137 177h210zM15 391v134h72c1 136 54 204 174 204c77 0 153 -28 193 -46l-47 -123c-17 5 -71 19 -95 19c-18 0 -42 -3 -42 -46v-8h106v-134h-106v-391h-183v391h-72zM410 391v134h71
c1 136 54 204 175 204c59 0 121 -23 151 -37l-40 -126c-16 5 -46 13 -61 13c-18 0 -41 -3 -41 -46v-8h124v-134h-124v-391h-184v391h-71z" />
    <glyph glyph-name="f_f_t" unicode="fft" horiz-adv-x="1237" 
d="M15 391v134h72c1 136 54 204 174 204c77 0 153 -28 193 -46l-47 -123c-17 5 -71 19 -95 19c-18 0 -42 -3 -42 -46v-8h106v-134h-106v-391h-183v391h-72zM410 391v134h71c1 136 54 204 175 204c77 0 152 -28 192 -46l-61 -123c-13 5 -61 19 -81 19c-18 0 -41 -3 -41 -46
v-8h109v-134h-109v-391h-184v391h-71zM810 391v134h71v132l184 20v-152h141v-134h-141v-196c0 -43 24 -46 42 -46c23 0 60 17 71 22l64 -136c-39 -18 -108 -46 -186 -46c-121 0 -175 69 -175 207v195h-71z" />
    <glyph glyph-name="f_h" unicode="fh" horiz-adv-x="1041" 
d="M638 729v-259c50 33 115 66 195 66c114 0 163 -62 163 -168v-368h-185v324c0 41 -11 70 -54 70c-42 0 -89 -26 -119 -55v-339h-185v729h185zM15 391v134h72c1 136 54 204 174 204c59 0 121 -23 152 -37l-40 -126c-17 5 -47 13 -61 13c-18 0 -42 -3 -42 -46v-8h125v-134
h-125v-391h-183v391h-72z" />
    <glyph glyph-name="f_j" unicode="fj" horiz-adv-x="687" 
d="M15 391v134h72c1 136 54 204 174 204c59 0 121 -23 152 -37l-40 -126c-17 5 -47 13 -61 13c-18 0 -42 -3 -42 -46v-8h125v-134h-125v-391h-183v391h-72zM638 525v-489c0 -150 0 -217 -242 -270l-59 132c117 39 117 53 117 123v504h184zM449 582v144h192v-144h-192z" />
    <glyph glyph-name="f_k" unicode="fk" horiz-adv-x="1003" 
d="M985 525l-177 -207l207 -318h-194l-124 189l-59 -69v-120h-185v729h185v-380l137 176h210zM15 391v134h72c1 136 54 204 174 204c59 0 121 -23 152 -37l-40 -126c-17 5 -47 13 -61 13c-18 0 -42 -3 -42 -46v-8h125v-134h-125v-391h-183v391h-72z" />
    <glyph glyph-name="f_t" unicode="ft" horiz-adv-x="842" 
d="M15 391v134h72c1 136 54 204 174 204c77 0 153 -28 193 -46l-61 -123c-14 5 -61 19 -81 19c-18 0 -42 -3 -42 -46v-8h109v-134h-109v-391h-183v391h-72zM415 391v134h71v132l184 20v-152h141v-134h-141v-196c0 -43 23 -46 41 -46c23 0 60 17 72 22l63 -136
c-39 -18 -107 -46 -185 -46c-122 0 -175 69 -175 207v195h-71z" />
    <glyph glyph-name=".notdef" horiz-adv-x="261" 
 />
    <glyph glyph-name="space" unicode=" " horiz-adv-x="264" 
 />
    <glyph glyph-name="exclam" unicode="!" horiz-adv-x="294" 
d="M55 0v177h184v-177h-184zM260 700l-58 -463h-110l-57 463h225z" />
    <glyph glyph-name="quotedbl" unicode="&#x22;" horiz-adv-x="455" 
d="M425 700l-29 -282h-113l-29 282h171zM202 700l-29 -282h-114l-29 282h172z" />
    <glyph glyph-name="numbersign" unicode="#" horiz-adv-x="731" 
d="M372 0l22 144h-118l-22 -144h-141l22 144h-104v137h125l21 138h-105v138h126l22 143h140l-22 -143h118l22 143h141l-22 -143h104v-138h-125l-21 -138h104v-137h-125l-22 -144h-140zM317 419l-21 -138h118l21 138h-118z" />
    <glyph glyph-name="dollar" unicode="$" horiz-adv-x="670" 
d="M406 -100h-132v97c-101 16 -192 56 -247 92l84 136c60 -35 179 -78 249 -78c42 0 78 14 78 45c0 53 -101 53 -226 100c-75 29 -170 83 -170 205c0 110 78 200 232 212v92h132v-98c79 -13 157 -40 214 -69l-85 -138c-55 25 -153 57 -213 57c-42 0 -77 -13 -77 -44
c0 -54 102 -51 221 -98c72 -28 175 -78 175 -205c0 -113 -83 -203 -235 -215v-91z" />
    <glyph glyph-name="percent" unicode="%" horiz-adv-x="1019" 
d="M993 176c0 -114 -71 -187 -202 -187c-132 0 -202 73 -202 187s70 188 202 188c131 0 202 -74 202 -188zM860 176c0 52 -25 78 -69 78s-69 -26 -69 -78s25 -77 69 -77s69 25 69 77zM431 523c0 -114 -72 -187 -203 -187s-202 73 -202 187s71 188 202 188s203 -74 203 -188z
M297 523c0 52 -25 78 -69 78s-69 -26 -69 -78s25 -77 69 -77s69 25 69 77zM759 700l-360 -700h-140l360 700h140z" />
    <glyph glyph-name="ampersand" unicode="&#x26;" horiz-adv-x="739" 
d="M765 0h-210l-49 48c-59 -36 -131 -59 -218 -59c-143 0 -245 81 -245 190c0 88 66 145 138 190c-49 50 -88 100 -88 166c0 105 93 176 224 176c137 0 217 -78 217 -166c0 -78 -64 -137 -133 -188l97 -96c18 33 30 70 31 108h185c-10 -61 -40 -147 -99 -222zM304 124
c30 0 63 11 94 30l-116 116c-34 -28 -58 -55 -58 -85c0 -32 28 -61 80 -61zM257 528c0 -28 23 -56 51 -83c36 25 62 51 62 83c0 23 -16 55 -55 55s-58 -31 -58 -55z" />
    <glyph glyph-name="quotesingle" unicode="'" horiz-adv-x="232" 
d="M202 700l-29 -282h-114l-29 282h172z" />
    <glyph glyph-name="parenleft" unicode="(" horiz-adv-x="346" 
d="M47 125v445c0 149 1 216 245 269l45 -100c-95 -34 -99 -56 -99 -119v-544c0 -63 4 -85 99 -119l-45 -100c-244 53 -245 119 -245 268z" />
    <glyph glyph-name="parenright" unicode=")" horiz-adv-x="346" 
d="M299 570v-445c0 -149 0 -215 -244 -268l-46 100c95 34 99 56 99 119v544c0 63 -4 85 -99 119l46 100c244 -53 244 -120 244 -269z" />
    <glyph glyph-name="asterisk" unicode="*" horiz-adv-x="473" 
d="M161 300l53 157l-110 -124l-75 131l162 32l-162 33l75 131l110 -125l-53 157h151l-53 -157l109 125l75 -131l-154 -32l154 -33l-75 -131l-106 117l50 -150h-151z" />
    <glyph glyph-name="plus" unicode="+" horiz-adv-x="652" 
d="M257 576h137v-174h193v-137h-193v-174h-137v174h-193v137h193v174z" />
    <glyph glyph-name="comma" unicode="," horiz-adv-x="280" 
d="M47 0v194h183l11 -219l-148 -152l-48 61l84 116h-82z" />
    <glyph glyph-name="hyphen" unicode="-" horiz-adv-x="434" 
d="M387 211h-339v147h339v-147z" />
    <glyph glyph-name="period" unicode="." horiz-adv-x="277" 
d="M46 0v194h185v-194h-185z" />
    <glyph glyph-name="slash" unicode="/" horiz-adv-x="496" 
d="M479 790l-325 -880h-138l326 880h137z" />
    <glyph glyph-name="zero" unicode="0" horiz-adv-x="694" 
d="M348 711c204 0 310 -134 310 -361s-107 -361 -311 -361s-311 134 -311 361s108 361 312 361zM347 136c73 0 118 54 118 214c0 159 -44 213 -117 213s-118 -53 -118 -213c0 -159 44 -214 117 -214z" />
    <glyph glyph-name="one" unicode="1" horiz-adv-x="444" 
d="M379 0h-191v525l-120 -63l-75 123l203 115h183v-700z" />
    <glyph glyph-name="two" unicode="2" horiz-adv-x="631" 
d="M591 158v-158h-567v78c0 140 112 229 217 294c87 53 155 81 155 128c0 28 -26 53 -82 53c-68 0 -146 -42 -188 -66l-84 123c47 32 156 101 301 101c168 0 247 -93 247 -202c0 -139 -126 -207 -222 -258c-57 -31 -111 -62 -111 -93h334z" />
    <glyph glyph-name="three" unicode="3" horiz-adv-x="630" 
d="M9 85l84 129c98 -52 164 -65 211 -65c63 0 100 22 100 63c0 72 -115 75 -183 75h-30v159h35c57 0 149 4 149 61c0 28 -22 46 -71 46c-64 0 -142 -35 -186 -59l-78 119c34 24 139 98 295 98c163 0 232 -80 232 -172c0 -78 -47 -124 -107 -153c79 -26 138 -95 138 -177
c0 -108 -66 -220 -269 -220c-158 0 -277 70 -320 96z" />
    <glyph glyph-name="four" unicode="4" horiz-adv-x="703" 
d="M15 122v131l308 447h255v-420h105v-158h-105v-122h-192v122h-371zM209 280h177v264z" />
    <glyph glyph-name="five" unicode="5" horiz-adv-x="622" 
d="M51 344l38 356h475v-158h-315l-5 -86c28 7 57 11 91 11c176 0 256 -113 256 -235c0 -127 -87 -243 -278 -243c-139 0 -249 63 -297 95l83 138c36 -24 109 -70 187 -70c64 0 111 28 111 79c0 42 -33 82 -110 82c-51 0 -93 -17 -130 -36z" />
    <glyph glyph-name="six" unicode="6" horiz-adv-x="648" 
d="M473 556c-86 0 -181 -33 -224 -147c31 21 82 45 151 45c131 0 227 -85 227 -218c0 -134 -106 -247 -285 -247c-216 0 -309 147 -309 302c0 252 181 420 439 420c66 0 111 -11 111 -11l-44 -149s-30 5 -66 5zM337 313c-54 0 -92 -27 -110 -47c1 -93 61 -122 110 -122
c72 0 99 45 99 84c0 49 -38 85 -99 85z" />
    <glyph glyph-name="seven" unicode="7" horiz-adv-x="548" 
d="M537 552c0 0 -252 -298 -252 -552h-197c0 240 216 510 243 542h-312v158h518v-148z" />
    <glyph glyph-name="eight" unicode="8" horiz-adv-x="664" 
d="M25 193c0 99 70 153 148 189c-66 41 -103 90 -103 155c0 100 91 174 262 174c170 0 262 -74 262 -174c0 -65 -37 -114 -104 -155c79 -36 149 -90 149 -189c0 -125 -109 -204 -307 -204s-307 79 -307 204zM445 208c0 48 -51 77 -113 103c-63 -26 -113 -55 -113 -103
c0 -43 45 -76 113 -76s113 33 113 76zM257 518c0 -36 35 -58 75 -75c39 17 75 39 75 75c0 23 -24 55 -75 55s-75 -32 -75 -55z" />
    <glyph glyph-name="nine" unicode="9" horiz-adv-x="649" 
d="M177 144c86 0 182 32 224 147c-30 -21 -82 -45 -152 -45c-130 0 -227 85 -227 218c0 134 106 247 286 247c216 0 308 -147 308 -302c1 -252 -181 -420 -438 -420c-67 0 -112 11 -112 11l45 149s29 -5 66 -5zM313 387c54 0 92 27 110 48c-2 91 -62 121 -110 121
c-72 0 -99 -45 -99 -84c0 -49 38 -85 99 -85z" />
    <glyph glyph-name="colon" unicode=":" horiz-adv-x="290" 
d="M53 298v194h184v-194h-184zM53 0v194h184v-194h-184z" />
    <glyph glyph-name="semicolon" unicode=";" horiz-adv-x="294" 
d="M54 298v194h184v-194h-184zM54 0v194h183l11 -219l-148 -152l-48 61l84 116h-82z" />
    <glyph glyph-name="less" unicode="&#x3c;" horiz-adv-x="652" 
d="M50 395l522 202v-153l-322 -111l322 -112v-151l-522 202v123z" />
    <glyph glyph-name="equal" unicode="=" horiz-adv-x="652" 
d="M64 364v137h523v-137h-523zM64 168v137h523v-137h-523z" />
    <glyph glyph-name="greater" unicode="&#x3e;" horiz-adv-x="652" 
d="M601 272l-522 -202v151l320 112l-320 111v153l522 -202v-123z" />
    <glyph glyph-name="question" unicode="?" horiz-adv-x="556" 
d="M132 0v177h184v-177h-184zM527 521c0 -136 -120 -189 -238 -220l-9 -64h-112l-10 162c128 25 176 41 176 91c0 30 -23 63 -83 63c-52 0 -106 -24 -150 -52l-78 128c43 27 138 82 261 82c144 0 243 -75 243 -190z" />
    <glyph glyph-name="at" unicode="@" horiz-adv-x="949" 
d="M861 258c0 202 -118 371 -373 371c-260 0 -394 -165 -394 -376c0 -216 140 -375 363 -375c119 0 189 41 189 41l37 -47s-79 -51 -230 -51c-251 0 -420 182 -420 432c0 252 169 433 455 433c281 0 431 -182 432 -432c0 -143 -47 -289 -207 -289c-109 0 -144 77 -151 122
c-35 -32 -89 -65 -161 -65c-91 0 -159 57 -159 151c0 99 73 151 169 151c52 0 118 -15 150 -21v35c0 52 -20 71 -78 71c-44 0 -106 -13 -167 -38l-43 91c80 28 161 47 236 47c125 0 182 -53 182 -176v-148c0 -81 3 -140 57 -140c57 0 113 65 113 213zM444 122
c37 0 77 16 117 50v66c-26 5 -72 15 -106 15c-55 0 -80 -27 -80 -68c0 -44 29 -63 69 -63z" />
    <glyph glyph-name="A" unicode="A" horiz-adv-x="725" 
d="M517 0l-35 117h-240l-35 -117h-209l258 700h212l258 -700h-209zM361 520l-75 -254h151z" />
    <glyph glyph-name="B" unicode="B" horiz-adv-x="702" 
d="M680 189c0 -115 -80 -189 -268 -189h-351v700h307c184 0 274 -59 274 -170c0 -96 -69 -147 -111 -155c52 -8 149 -59 149 -186zM452 496c0 39 -31 58 -100 58h-99v-120h98c64 0 101 19 101 62zM490 222c0 55 -43 77 -130 77h-107v-153h116c82 0 121 26 121 76z" />
    <glyph glyph-name="C" unicode="C" horiz-adv-x="659" 
d="M647 611l-88 -141c-78 41 -144 69 -204 69c-83 0 -126 -75 -126 -189s43 -189 126 -189c60 0 126 28 204 69l88 -141c-99 -54 -199 -100 -317 -100c-174 0 -298 117 -298 361s124 361 298 361c118 0 218 -46 317 -100z" />
    <glyph glyph-name="D" unicode="D" horiz-adv-x="733" 
d="M700 350c0 -250 -128 -350 -367 -350h-272v700h272c239 0 367 -100 367 -350zM509 350c0 154 -73 188 -195 188h-61v-376h61c122 0 195 34 195 188z" />
    <glyph glyph-name="E" unicode="E" horiz-adv-x="627" 
d="M591 0h-530v700h524v-162h-332v-109h270v-158h-270v-109h338v-162z" />
    <glyph glyph-name="F" unicode="F" horiz-adv-x="599" 
d="M585 538h-332v-109h262v-159h-262v-270h-192v700h524v-162z" />
    <glyph glyph-name="G" unicode="G" horiz-adv-x="717" 
d="M493 0v60c-50 -42 -108 -71 -180 -71c-151 0 -281 117 -281 360c0 245 126 362 303 362c124 0 229 -47 331 -101l-87 -141c-83 41 -155 70 -219 70c-87 0 -131 -75 -131 -189s36 -199 129 -199c55 0 107 40 135 65v48h-147v150h327v-414h-180z" />
    <glyph glyph-name="H" unicode="H" horiz-adv-x="739" 
d="M486 0v288h-233v-288h-192v700h192v-254h233v254h192v-700h-192z" />
    <glyph glyph-name="I" unicode="I" horiz-adv-x="314" 
d="M253 0h-192v700h192v-700z" />
    <glyph glyph-name="J" unicode="J" horiz-adv-x="315" 
d="M254 700v-625c0 -150 0 -216 -245 -270l-63 141c116 38 116 55 116 118v636h192z" />
    <glyph glyph-name="K" unicode="K" horiz-adv-x="717" 
d="M61 0v700h192v-295l240 295h226l-279 -329l286 -371h-227l-177 232l-69 -82v-150h-192z" />
    <glyph glyph-name="L" unicode="L" horiz-adv-x="587" 
d="M574 0h-513v700h192v-538h321v-162z" />
    <glyph glyph-name="M" unicode="M" horiz-adv-x="866" 
d="M613 0v393l-130 -276h-100l-130 275v-392h-192v700h195l177 -376l176 376h196v-700h-192z" />
    <glyph glyph-name="N" unicode="N" horiz-adv-x="755" 
d="M500 0l-247 408v-408h-192v700h194l247 -410v410h192v-700h-194z" />
    <glyph glyph-name="O" unicode="O" horiz-adv-x="773" 
d="M386 711c253 0 356 -158 356 -361s-103 -361 -356 -361s-355 158 -355 361s102 361 355 361zM386 152c115 0 158 81 158 198c0 116 -43 198 -158 198s-158 -82 -158 -198c0 -117 43 -198 158 -198z" />
    <glyph glyph-name="P" unicode="P" horiz-adv-x="682" 
d="M668 465c0 -150 -92 -233 -293 -233h-122v-232h-192v700h314c201 0 293 -84 293 -235zM474 465c0 63 -49 77 -112 77h-109v-154h109c63 0 112 14 112 77z" />
    <glyph glyph-name="Q" unicode="Q" horiz-adv-x="773" 
d="M386 -11c-253 0 -355 158 -355 361s102 361 355 361s356 -158 356 -361c0 -140 -49 -258 -161 -318l107 -83l-125 -129zM386 152c115 0 158 81 158 198c0 116 -43 198 -158 198s-158 -82 -158 -198c0 -117 43 -198 158 -198z" />
    <glyph glyph-name="R" unicode="R" horiz-adv-x="716" 
d="M486 0l-153 254h-80v-254h-192v700h334c203 0 295 -74 295 -223c0 -113 -53 -182 -166 -210l167 -267h-205zM496 477c0 61 -48 74 -113 74h-130v-148h129c66 0 114 13 114 74z" />
    <glyph glyph-name="S" unicode="S" horiz-adv-x="652" 
d="M458 411c71 -28 174 -78 174 -205c0 -122 -95 -217 -272 -217c-134 0 -269 53 -342 100l84 136c61 -35 179 -78 249 -78c43 0 78 14 78 45c0 53 -102 52 -226 101c-75 27 -170 82 -170 204c0 119 91 214 268 214c111 0 231 -36 311 -77l-85 -138c-55 25 -153 57 -213 57
c-42 0 -78 -13 -78 -44c0 -54 103 -51 222 -98z" />
    <glyph glyph-name="T" unicode="T" horiz-adv-x="612" 
d="M599 538h-196v-538h-192v538h-199v162h587v-162z" />
    <glyph glyph-name="U" unicode="U" horiz-adv-x="728" 
d="M674 700v-400c0 -172 -54 -311 -310 -311s-310 139 -310 311v400h192v-418c0 -73 19 -130 118 -130c98 0 118 57 118 130v418h192z" />
    <glyph glyph-name="V" unicode="V" horiz-adv-x="722" 
d="M220 700l140 -475l141 475h223l-257 -700h-213l-258 700h224z" />
    <glyph glyph-name="W" unicode="W" horiz-adv-x="989" 
d="M603 0l-108 421l-108 -421h-186l-196 700h220l88 -429l107 429h151l106 -427l89 427h220l-196 -700h-187z" />
    <glyph glyph-name="X" unicode="X" horiz-adv-x="683" 
d="M5 700h221l115 -229l116 229h221l-218 -345l230 -355h-228l-121 220l-120 -220h-228l230 355z" />
    <glyph glyph-name="Y" unicode="Y" horiz-adv-x="682" 
d="M245 0v278l-250 422h216l130 -257l130 257h216l-251 -424l1 -276h-192z" />
    <glyph glyph-name="Z" unicode="Z" horiz-adv-x="653" 
d="M26 146l337 392h-315v162h567v-146l-336 -392h341v-162h-594v146z" />
    <glyph glyph-name="bracketleft" unicode="[" horiz-adv-x="375" 
d="M362 -143h-307v982h307v-104h-115v-774h115v-104z" />
    <glyph glyph-name="backslash" unicode="\" horiz-adv-x="496" 
d="M342 -90l-326 880h138l325 -880h-137z" />
    <glyph glyph-name="bracketright" unicode="]" horiz-adv-x="375" 
d="M319 -143h-306v104h115v774h-115v104h306v-982z" />
    <glyph glyph-name="asciicircum" unicode="^" horiz-adv-x="652" 
d="M408 313l-83 204l-83 -204h-197l186 387h189l186 -387h-198z" />
    <glyph glyph-name="underscore" unicode="_" horiz-adv-x="712" 
d="M665 -194h-618v129h618v-129z" />
    <glyph glyph-name="grave" unicode="`" horiz-adv-x="248" 
d="M287 586h-150l-176 143h199z" />
    <glyph glyph-name="a" unicode="a" horiz-adv-x="609" 
d="M380 0v57c-40 -36 -98 -68 -176 -68c-114 0 -186 76 -186 175c0 104 81 167 198 167c60 0 132 -16 164 -21v26c0 47 -20 62 -82 62c-49 0 -103 -11 -189 -36l-56 125c110 35 202 49 282 49c165 0 230 -58 230 -212v-324h-185zM266 129c34 0 75 11 114 43v51
c-25 5 -70 13 -102 13c-46 0 -74 -17 -74 -55c0 -35 25 -52 62 -52z" />
    <glyph glyph-name="b" unicode="b" 
d="M49 0v729h185v-256c45 37 94 63 169 63c126 0 208 -95 208 -274c0 -177 -82 -273 -208 -273c-75 0 -124 26 -169 61v-50h-185zM342 389c-34 0 -73 -16 -108 -57v-140c35 -41 74 -56 108 -56c55 0 82 42 82 127c0 84 -27 126 -82 126z" />
    <glyph glyph-name="c" unicode="c" horiz-adv-x="524" 
d="M513 475l-72 -136c-39 17 -94 40 -137 40c-60 0 -91 -47 -91 -116s31 -117 91 -117c43 0 98 23 137 40l72 -136c-51 -23 -148 -61 -241 -61c-128 0 -247 82 -247 274s119 273 247 273c93 0 190 -39 241 -61z" />
    <glyph glyph-name="d" unicode="d" 
d="M587 0h-185v50c-45 -35 -94 -61 -169 -61c-126 0 -207 96 -207 273c0 179 81 274 207 274c75 0 124 -26 169 -63v256h185v-729zM294 136c34 0 73 15 108 56v140c-35 41 -74 57 -108 57c-54 0 -82 -42 -82 -126c0 -85 28 -127 82 -127z" />
    <glyph glyph-name="e" unicode="e" horiz-adv-x="587" 
d="M552 224h-338c7 -67 36 -100 94 -100c51 0 121 25 191 59l66 -113c-38 -20 -149 -81 -277 -81c-147 0 -263 82 -263 271c0 173 100 276 274 276c177 0 263 -99 263 -235c0 -44 -10 -77 -10 -77zM301 407c-51 0 -77 -31 -86 -88h167c-1 56 -26 88 -81 88z" />
    <glyph glyph-name="f" unicode="f" horiz-adv-x="404" 
d="M15 391v134h72c1 136 54 204 174 204c77 0 153 -28 193 -46l-61 -123c-14 5 -61 19 -81 19c-18 0 -42 -3 -42 -46v-8h125v-134h-125v-391h-183v391h-72z" />
    <glyph glyph-name="g" unicode="g" 
d="M402 525h185v-508c0 -154 -74 -231 -245 -231c-86 0 -201 18 -293 45l35 144c63 -19 166 -42 218 -42c80 0 100 22 100 74v43c-45 -35 -94 -61 -169 -61c-126 0 -207 96 -207 273c0 179 81 274 207 274c75 0 124 -26 169 -63v52zM294 136c34 0 73 15 108 56v140
c-35 41 -74 57 -108 57c-54 0 -82 -42 -82 -126c0 -85 28 -127 82 -127z" />
    <glyph glyph-name="h" unicode="h" 
d="M234 729v-259c50 33 115 66 195 66c113 0 163 -62 163 -168v-368h-185v324c0 41 -11 70 -54 70c-42 0 -89 -26 -119 -55v-339h-185v729h185z" />
    <glyph glyph-name="i" unicode="i" horiz-adv-x="283" 
d="M234 0h-185v525h185v-525zM46 582v144h192v-144h-192z" />
    <glyph glyph-name="j" unicode="j" horiz-adv-x="283" 
d="M45 582v144h192v-144h-192zM234 525v-489c0 -150 0 -217 -242 -270l-59 132c116 39 116 53 116 123v504h185z" />
    <glyph glyph-name="k" unicode="k" horiz-adv-x="599" 
d="M581 525l-177 -207l207 -318h-194l-124 189l-59 -69v-120h-185v729h185v-380l137 176h210z" />
    <glyph glyph-name="l" unicode="l" horiz-adv-x="285" 
d="M235 0h-185v729h185v-729z" />
    <glyph glyph-name="m" unicode="m" horiz-adv-x="943" 
d="M234 525v-60c38 32 101 71 171 71c80 0 126 -33 146 -85c35 34 105 85 186 85c113 0 161 -62 161 -168v-368h-185v324c0 41 -6 70 -48 70c-37 0 -76 -29 -100 -56v-338h-183v324c0 41 -7 70 -50 70c-36 0 -74 -27 -98 -53v-341h-185v525h185z" />
    <glyph glyph-name="n" unicode="n" 
d="M234 525v-55c50 33 115 66 195 66c113 0 163 -62 163 -168v-368h-185v324c0 41 -11 70 -54 70c-42 0 -89 -26 -119 -55v-339h-185v525h185z" />
    <glyph glyph-name="o" unicode="o" horiz-adv-x="625" 
d="M600 262c0 -174 -102 -273 -287 -273c-186 0 -288 100 -288 274s102 273 288 273c185 0 287 -100 287 -274zM414 262c0 85 -32 134 -101 134c-70 0 -102 -48 -102 -133s32 -134 102 -134c69 0 101 48 101 133z" />
    <glyph glyph-name="p" unicode="p" 
d="M234 525v-52c45 37 94 63 169 63c126 0 208 -95 208 -274c0 -177 -82 -273 -208 -273c-75 0 -124 26 -169 61v-254h-185v729h185zM342 389c-34 0 -73 -16 -108 -57v-140c35 -41 74 -56 108 -56c55 0 82 42 82 127c0 84 -27 126 -82 126z" />
    <glyph glyph-name="q" unicode="q" 
d="M402 -204v254c-45 -35 -94 -61 -169 -61c-126 0 -207 96 -207 273c0 179 81 274 207 274c75 0 124 -26 169 -63v52h185v-729h-185zM294 136c34 0 73 15 108 56v140c-35 41 -74 57 -108 57c-54 0 -82 -42 -82 -126c0 -85 28 -127 82 -127z" />
    <glyph glyph-name="r" unicode="r" horiz-adv-x="442" 
d="M234 525v-108c13 32 63 123 195 114v-173c-176 0 -195 -169 -195 -169v-189h-185v525h185z" />
    <glyph glyph-name="s" unicode="s" horiz-adv-x="547" 
d="M345 328c87 -22 186 -63 186 -174c0 -98 -76 -165 -224 -165c-110 0 -229 37 -291 70l70 129c57 -28 159 -60 217 -60c31 0 42 9 42 19c0 25 -70 35 -136 51c-88 22 -182 68 -182 174c0 92 71 164 217 164c98 0 205 -32 264 -59l-70 -119c-50 19 -133 41 -183 41
c-29 0 -43 -8 -43 -20c0 -26 61 -33 133 -51z" />
    <glyph glyph-name="t" unicode="t" horiz-adv-x="446" 
d="M19 391v134h72v132l183 20v-152h142v-134h-142v-196c0 -43 24 -46 42 -46c23 0 60 17 71 22l64 -136c-39 -18 -107 -46 -186 -46c-121 0 -174 69 -174 207v195h-72z" />
    <glyph glyph-name="u" unicode="u" 
d="M403 0v55c-51 -34 -116 -66 -196 -66c-113 0 -162 62 -162 168v368h185v-324c0 -41 10 -70 54 -70c41 0 88 25 119 54v340h184v-525h-184z" />
    <glyph glyph-name="v" unicode="v" horiz-adv-x="599" 
d="M390 0h-182l-207 525h198l99 -325l101 325h198z" />
    <glyph glyph-name="w" unicode="w" horiz-adv-x="856" 
d="M519 0l-90 305l-90 -305h-172l-161 525h196l67 -323l86 323h148l86 -323l67 323h195l-161 -525h-171z" />
    <glyph glyph-name="x" unicode="x" horiz-adv-x="619" 
d="M410 0l-102 158l-100 -158h-216l202 262l-190 263h208l96 -153l97 153h209l-191 -262l203 -263h-216z" />
    <glyph glyph-name="y" unicode="y" horiz-adv-x="599" 
d="M2 525h198l100 -303l99 303h199l-286 -729h-197l91 205z" />
    <glyph glyph-name="z" unicode="z" horiz-adv-x="580" 
d="M27 0v126l258 248h-248v151h511v-126l-257 -248h257v-151h-521z" />
    <glyph glyph-name="braceleft" unicode="{" horiz-adv-x="395" 
d="M0 296v104c86 0 103 45 95 106l-12 93c-23 171 99 240 279 240h18v-100h-18c-84 0 -94 -72 -87 -127l9 -71c14 -124 -40 -175 -149 -193c109 -18 163 -69 149 -193l-9 -71c-7 -56 3 -127 87 -127h18v-100h-18c-180 0 -303 69 -279 240l13 93c8 61 -10 106 -96 106z" />
    <glyph glyph-name="bar" unicode="|" horiz-adv-x="245" 
d="M190 -123h-134v941h134v-941z" />
    <glyph glyph-name="braceright" unicode="}" horiz-adv-x="395" 
d="M395 400v-104c-86 0 -103 -45 -95 -106l12 -93c23 -171 -99 -240 -279 -240h-18v100h18c84 0 94 71 86 127l-8 71c-16 124 40 175 148 193c-108 18 -164 69 -148 193l8 71c8 55 -2 127 -86 127h-18v100h18c180 0 301 -69 278 -240l-12 -93c-8 -61 10 -106 96 -106z" />
    <glyph glyph-name="asciitilde" unicode="~" horiz-adv-x="652" 
d="M119 169l-104 42c40 98 96 173 193 173c100 0 159 -74 237 -74c28 0 54 9 87 66l104 -42c-39 -98 -96 -173 -194 -173c-93 0 -161 74 -237 74c-29 0 -52 -10 -86 -66z" />
    <glyph glyph-name="uni00A0" unicode="&#xa0;" horiz-adv-x="264" 
 />
    <glyph glyph-name="exclamdown" unicode="&#xa1;" horiz-adv-x="294" 
d="M55 523v177h184v-177h-184zM202 463l58 -463h-225l57 463h110z" />
    <glyph glyph-name="cent" unicode="&#xa2;" horiz-adv-x="564" 
d="M387 0h-131v78c-119 10 -223 93 -223 273s104 262 223 272v77h131v-90c60 -14 113 -36 147 -51l-72 -136c-42 18 -103 44 -150 44c-60 0 -91 -47 -91 -116s31 -117 91 -117c47 0 108 25 150 44l72 -136c-34 -16 -87 -38 -147 -52v-90z" />
    <glyph glyph-name="sterling" unicode="&#xa3;" horiz-adv-x="594" 
d="M52 243v106h81c-29 52 -69 104 -69 184c0 112 80 178 220 178c127 0 220 -57 280 -93l-82 -122c-58 33 -114 57 -159 57c-46 0 -67 -20 -67 -51c0 -48 47 -90 71 -153h161v-106h-152c-9 -42 -35 -72 -56 -85h273v-158h-512v128s105 24 117 115h-106z" />
    <glyph glyph-name="yen" unicode="&#xa5;" horiz-adv-x="736" 
d="M99 278v104h111l-188 318h216l130 -256l130 256h216l-189 -318h112v-104h-174v-44h174v-104h-174l1 -130h-192v130h-173v104h173v44h-173z" />
    <glyph glyph-name="brokenbar" unicode="&#xa6;" horiz-adv-x="247" 
d="M191 405h-134v413h134v-413zM191 -123h-134v413h134v-413z" />
    <glyph glyph-name="section" unicode="&#xa7;" horiz-adv-x="588" 
d="M219 135c-82 21 -187 63 -187 173c0 52 23 92 78 119c-36 28 -60 66 -60 120c0 92 73 164 219 164c98 0 203 -32 262 -59l-70 -119c-48 19 -135 41 -183 41c-33 0 -43 -10 -43 -21c0 -26 61 -31 135 -50c85 -20 186 -65 186 -172c0 -50 -22 -91 -78 -120
c35 -27 59 -65 59 -119c0 -92 -72 -164 -218 -164c-98 0 -204 32 -263 59l70 119c49 -19 135 -41 183 -41c33 0 43 10 43 20c0 27 -62 32 -133 50zM380 312c0 30 -64 42 -124 55c-38 -8 -48 -28 -48 -40c0 -31 68 -43 123 -56c42 10 49 31 49 41z" />
    <glyph glyph-name="dieresis" unicode="&#xa8;" horiz-adv-x="259" 
d="M-34 596v130h138v-130h-138zM156 596v130h137v-130h-137z" />
    <glyph glyph-name="copyright" unicode="&#xa9;" horiz-adv-x="780" 
d="M551 505l-31 -36c-27 21 -71 54 -134 54c-74 0 -124 -69 -124 -174c0 -104 50 -172 124 -172c63 0 107 32 134 52l31 -35c-37 -26 -91 -62 -167 -62c-94 0 -174 74 -174 217c0 144 80 218 174 218c76 0 130 -36 167 -62zM34 350c0 202 128 361 357 361s356 -159 356 -361
s-127 -361 -356 -361s-357 159 -357 361zM74 350c0 -182 112 -323 316 -323c205 0 318 141 318 323s-113 323 -318 323c-204 0 -316 -141 -316 -323z" />
    <glyph glyph-name="ordfeminine" unicode="&#xaa;" horiz-adv-x="418" 
d="M252 385v32c-26 -21 -62 -39 -110 -39c-74 0 -118 49 -118 106c0 61 50 101 127 101c37 0 80 -9 101 -13v12c0 25 -14 31 -49 31c-31 0 -65 -5 -120 -20l-37 82c71 21 130 30 181 30c107 0 149 -37 149 -132v-190h-124zM185 471c17 0 42 3 67 21v22c-16 3 -42 8 -60 8
c-26 0 -43 -6 -43 -26c0 -16 14 -25 36 -25z" />
    <glyph glyph-name="guillemotleft" unicode="&#xab;" horiz-adv-x="680" 
d="M633 357l-149 -91l149 -91v-170l-305 206v109l305 206v-169zM23 320l304 206v-169l-149 -91l149 -91v-170l-304 206v109z" />
    <glyph glyph-name="logicalnot" unicode="&#xac;" horiz-adv-x="652" 
d="M617 90h-146v175h-451v137h597v-312z" />
    <glyph glyph-name="registered" unicode="&#xae;" horiz-adv-x="460" 
d="M32 500c0 112 71 200 198 200c126 0 197 -88 197 -200s-71 -200 -197 -200c-127 0 -198 88 -198 200zM68 500c0 -94 52 -167 162 -167c109 0 161 73 161 167s-52 167 -161 167c-110 0 -162 -73 -162 -167zM317 545c0 -27 -21 -49 -50 -56l47 -87h-37l-44 85h-44v-85h-33
v201h93c42 0 68 -24 68 -58zM283 545c0 15 -7 28 -33 28h-61v-55h59c25 0 35 12 35 27z" />
    <glyph glyph-name="macron" unicode="&#xaf;" horiz-adv-x="317" 
d="M0 611v105h317v-105h-317z" />
    <glyph glyph-name="degree" unicode="&#xb0;" horiz-adv-x="411" 
d="M22 518c0 101 83 184 184 184s184 -83 184 -184s-83 -184 -184 -184s-184 83 -184 184zM127 518c0 -44 35 -79 79 -79s80 35 80 79s-36 80 -80 80s-79 -36 -79 -80z" />
    <glyph glyph-name="plusminus" unicode="&#xb1;" horiz-adv-x="652" 
d="M255 551h138v-124h194v-137h-194v-123h-138v123h-191v137h191v124zM64 0v116h523v-116h-523z" />
    <glyph glyph-name="twosuperior" unicode="&#xb2;" horiz-adv-x="416" 
d="M385 490v-105h-364v49c0 83 71 139 136 177c55 31 98 46 98 70c0 13 -15 26 -48 26c-42 0 -91 -26 -118 -40l-56 81c30 19 100 64 194 64c108 0 158 -59 158 -124c0 -85 -79 -125 -138 -153c-34 -15 -68 -34 -68 -45h206z" />
    <glyph glyph-name="threesuperior" unicode="&#xb3;" horiz-adv-x="411" 
d="M9 439l56 85c66 -35 106 -40 134 -40c37 0 57 10 57 30c0 39 -70 37 -111 37h-21v105h24c32 0 91 -1 91 30c0 13 -12 21 -41 21c-40 0 -90 -21 -118 -36l-51 79c21 16 90 62 191 62c104 0 147 -49 147 -105c0 -47 -30 -74 -66 -90c49 -16 85 -57 85 -105
c0 -65 -40 -134 -170 -134c-102 0 -179 45 -207 61z" />
    <glyph glyph-name="acute" unicode="&#xb4;" horiz-adv-x="248" 
d="M111 586h-150l127 143h199z" />
    <glyph glyph-name="mu" unicode="&#xb5;" horiz-adv-x="641" 
d="M56 -204v729h185v-333c1 -36 13 -61 54 -61c40 0 88 25 119 54v340h184v-525h-184v55c-47 -30 -104 -59 -173 -65v-194h-185z" />
    <glyph glyph-name="paragraph" unicode="&#xb6;" horiz-adv-x="758" 
d="M316 700h152v-885h-154v376c-153 0 -289 72 -289 255c0 182 123 254 291 254zM535 -186v886h154v-886h-154z" />
    <glyph glyph-name="periodcentered" unicode="&#xb7;" horiz-adv-x="280" 
d="M48 188v194h185v-194h-185z" />
    <glyph glyph-name="cedilla" unicode="&#xb8;" horiz-adv-x="190" 
d="M-13 -167l35 86c20 -10 35 -11 46 -11c23 0 43 7 43 32c0 28 -27 62 -27 62h79s40 -44 40 -95c0 -70 -57 -97 -122 -97c-29 0 -65 6 -94 23z" />
    <glyph glyph-name="onesuperior" unicode="&#xb9;" horiz-adv-x="302" 
d="M251 385h-128v304l-75 -37l-50 82l130 71h123v-420z" />
    <glyph glyph-name="ordmasculine" unicode="&#xba;" horiz-adv-x="416" 
d="M391 542c0 -105 -65 -164 -183 -164s-184 60 -184 165c0 104 65 164 184 164c118 0 183 -60 183 -165zM267 542c0 46 -18 72 -59 72s-60 -25 -60 -71s19 -72 60 -72s59 25 59 71z" />
    <glyph glyph-name="guillemotright" unicode="&#xbb;" horiz-adv-x="680" 
d="M351 320v-109l-304 -206v171l147 90l-147 91v168zM657 320v-109l-304 -206v171l147 90l-147 91v168z" />
    <glyph glyph-name="onequarter" unicode="&#xbc;" horiz-adv-x="934" 
d="M470 69v87l192 264h171v-246h66v-105h-66v-69h-130v69h-233zM654 700l-326 -700h-138l327 700h137zM272 280h-128v304l-75 -37l-50 82l131 71h122v-420zM601 174h102v146z" />
    <glyph glyph-name="onehalf" unicode="&#xbd;" horiz-adv-x="934" 
d="M272 280h-128v304l-75 -37l-50 82l131 71h122v-420zM654 700l-326 -700h-138l327 700h137zM891 105v-105h-363v49c0 83 71 139 136 177c55 31 97 46 97 70c0 13 -15 26 -47 26c-43 0 -92 -26 -118 -40l-56 81c29 19 100 64 193 64c109 0 158 -59 158 -124
c0 -85 -79 -125 -138 -153c-34 -15 -67 -34 -67 -45h205z" />
    <glyph glyph-name="threequarters" unicode="&#xbe;" horiz-adv-x="1016" 
d="M556 69v87l192 264h170v-246h67v-105h-67v-69h-128v69h-234zM24 334l56 85c65 -35 105 -40 134 -40c37 0 57 10 57 30c0 39 -71 37 -112 37h-20v105h23c33 0 92 -1 92 30c0 13 -12 21 -41 21c-40 0 -90 -21 -118 -36l-51 79c21 16 90 62 190 62c105 0 148 -48 148 -105
c0 -47 -30 -74 -66 -90c49 -16 85 -57 85 -105c0 -65 -40 -134 -171 -134c-102 0 -178 45 -206 61zM741 700l-327 -700h-137l326 700h138zM688 174h102v146z" />
    <glyph glyph-name="questiondown" unicode="&#xbf;" horiz-adv-x="556" 
d="M30 179c0 136 120 189 238 220l8 64h114l9 -162c-127 -25 -176 -42 -176 -91c0 -30 22 -63 83 -63c52 0 106 24 150 52l77 -129c-43 -26 -137 -81 -261 -81c-144 0 -242 75 -242 190zM425 700v-177h-184v177h184z" />
    <glyph glyph-name="Agrave" unicode="&#xc0;" horiz-adv-x="725" 
d="M517 0l-35 117h-240l-35 -117h-209l258 700h212l258 -700h-209zM480 737h-150l-176 143h199zM361 520l-75 -254h151z" />
    <glyph glyph-name="Aacute" unicode="&#xc1;" horiz-adv-x="725" 
d="M517 0l-35 117h-240l-35 -117h-209l258 700h212l258 -700h-209zM396 737h-151l126 143h199zM361 520l-75 -254h151z" />
    <glyph glyph-name="Acircumflex" unicode="&#xc2;" horiz-adv-x="725" 
d="M517 0l-35 117h-240l-35 -117h-209l258 700h212l258 -700h-209zM447 880l110 -143h-125l-70 67l-70 -67h-124l109 143h170zM361 520l-75 -254h151z" />
    <glyph glyph-name="Atilde" unicode="&#xc3;" horiz-adv-x="725" 
d="M517 0l-35 117h-240l-35 -117h-209l258 700h212l258 -700h-209zM239 740l-79 39c29 56 57 117 123 117c57 0 115 -47 148 -47c12 0 29 4 52 46l79 -39c-28 -56 -57 -117 -123 -117c-57 0 -115 47 -148 47c-12 0 -29 -4 -52 -46zM361 520l-75 -254h151z" />
    <glyph glyph-name="Adieresis" unicode="&#xc4;" horiz-adv-x="725" 
d="M517 0l-35 117h-240l-35 -117h-209l258 700h212l258 -700h-209zM361 520l-75 -254h151zM199 752v129h138v-129h-138zM389 752v129h138v-129h-138z" />
    <glyph glyph-name="Aring" unicode="&#xc5;" horiz-adv-x="725" 
d="M517 0l-35 117h-240l-35 -117h-209l258 700h212l258 -700h-209zM246 845c0 64 53 117 117 117c65 0 118 -53 118 -117c0 -65 -53 -118 -118 -118c-64 0 -117 53 -117 118zM361 520l-75 -254h151zM330 845c0 -19 15 -34 33 -34c19 0 34 15 34 34c0 18 -15 33 -34 33
c-18 0 -33 -15 -33 -33z" />
    <glyph glyph-name="AE" unicode="&#xc6;" horiz-adv-x="1097" 
d="M1062 0h-531v117h-264l-74 -117h-230l471 700h622v-162h-333v-109h272v-158h-272v-109h339v-162zM364 271h167v263z" />
    <glyph glyph-name="Ccedilla" unicode="&#xc7;" horiz-adv-x="659" 
d="M201 -167l34 86c21 -10 37 -11 46 -11c23 0 44 7 44 32c0 18 -11 38 -19 50c-161 10 -274 127 -274 360c0 244 124 361 298 361c118 0 218 -46 317 -100l-88 -141c-78 41 -144 69 -204 69c-83 0 -126 -75 -126 -189s43 -189 126 -189c60 0 126 28 204 69l88 -141
c-83 -46 -167 -85 -262 -96c11 -15 32 -48 32 -86c0 -70 -57 -97 -122 -97c-28 0 -66 6 -94 23z" />
    <glyph glyph-name="Egrave" unicode="&#xc8;" horiz-adv-x="627" 
d="M591 0h-530v700h524v-162h-332v-109h270v-158h-270v-109h338v-162zM444 737h-151l-174 143h198z" />
    <glyph glyph-name="Eacute" unicode="&#xc9;" horiz-adv-x="627" 
d="M591 0h-530v700h524v-162h-332v-109h270v-158h-270v-109h338v-162zM359 737h-150l127 143h198z" />
    <glyph glyph-name="Ecircumflex" unicode="&#xca;" horiz-adv-x="627" 
d="M591 0h-530v700h524v-162h-332v-109h270v-158h-270v-109h338v-162zM410 880l110 -143h-124l-70 67l-70 -67h-125l110 143h169z" />
    <glyph glyph-name="Edieresis" unicode="&#xcb;" horiz-adv-x="627" 
d="M591 0h-530v700h524v-162h-332v-109h270v-158h-270v-109h338v-162zM162 747v130h138v-130h-138zM352 747v130h138v-130h-138z" />
    <glyph glyph-name="Igrave" unicode="&#xcc;" horiz-adv-x="314" 
d="M253 0h-191v700h191v-700zM274 737h-150l-175 143h199z" />
    <glyph glyph-name="Iacute" unicode="&#xcd;" horiz-adv-x="314" 
d="M253 0h-192v700h192v-700zM190 737h-150l127 143h199z" />
    <glyph glyph-name="Icircumflex" unicode="&#xce;" horiz-adv-x="314" 
d="M253 0h-192v700h192v-700zM242 880l110 -143h-125l-70 67l-70 -67h-125l110 143h170z" />
    <glyph glyph-name="Idieresis" unicode="&#xcf;" horiz-adv-x="314" 
d="M252 0h-192v700h192v-700zM-7 746v129h138v-129h-138zM182 746v129h138v-129h-138z" />
    <glyph glyph-name="Eth" unicode="&#xd0;" horiz-adv-x="752" 
d="M718 350c0 -250 -128 -350 -366 -350h-272v277h-73v146h73v277h272c238 0 366 -100 366 -350zM528 350c0 154 -73 188 -195 188h-60v-115h130v-146h-130v-115h60c122 0 195 34 195 188z" />
    <glyph glyph-name="Ntilde" unicode="&#xd1;" horiz-adv-x="755" 
d="M500 0l-247 408v-408h-192v700h194l247 -410v410h192v-700h-194zM259 749l-78 39c29 56 57 117 123 117c57 0 115 -47 148 -47c12 0 29 4 52 46l79 -39c-28 -56 -57 -118 -123 -118c-57 0 -115 48 -148 48c-13 0 -29 -5 -53 -46z" />
    <glyph glyph-name="Ograve" unicode="&#xd2;" horiz-adv-x="773" 
d="M386 711c253 0 356 -158 356 -361s-103 -361 -356 -361s-355 158 -355 361s102 361 355 361zM386 152c115 0 158 81 158 198c0 116 -43 198 -158 198s-158 -82 -158 -198c0 -117 43 -198 158 -198zM503 737h-149l-176 143h199z" />
    <glyph glyph-name="Oacute" unicode="&#xd3;" horiz-adv-x="773" 
d="M386 711c253 0 356 -158 356 -361s-103 -361 -356 -361s-355 158 -355 361s102 361 355 361zM386 152c115 0 158 81 158 198c0 116 -43 198 -158 198s-158 -82 -158 -198c0 -117 43 -198 158 -198zM420 737h-151l126 143h199z" />
    <glyph glyph-name="Ocircumflex" unicode="&#xd4;" horiz-adv-x="773" 
d="M386 711c253 0 356 -158 356 -361s-103 -361 -356 -361s-355 158 -355 361s102 361 355 361zM386 152c115 0 158 81 158 198c0 116 -43 198 -158 198s-158 -82 -158 -198c0 -117 43 -198 158 -198zM471 880l110 -143h-125l-70 67l-70 -67h-124l110 143h169z" />
    <glyph glyph-name="Otilde" unicode="&#xd5;" horiz-adv-x="773" 
d="M386 711c253 0 356 -158 356 -361s-103 -361 -356 -361s-355 158 -355 361s102 361 355 361zM386 152c115 0 158 81 158 198c0 116 -43 198 -158 198s-158 -82 -158 -198c0 -117 43 -198 158 -198zM262 740l-78 39c29 56 57 117 123 117c57 0 115 -47 148 -47
c12 0 29 4 52 46l79 -39c-28 -56 -57 -117 -123 -117c-57 0 -115 47 -148 47c-13 0 -29 -4 -53 -46z" />
    <glyph glyph-name="Odieresis" unicode="&#xd6;" horiz-adv-x="773" 
d="M386 711c253 0 356 -158 356 -361s-103 -361 -356 -361s-355 158 -355 361s102 361 355 361zM386 152c115 0 158 81 158 198c0 116 -43 198 -158 198s-158 -82 -158 -198c0 -117 43 -198 158 -198zM223 747v130h138v-130h-138zM413 747v130h137v-130h-137z" />
    <glyph glyph-name="multiply" unicode="&#xd7;" horiz-adv-x="652" 
d="M561 457l-130 -121l131 -121l-101 -100l-134 124l-133 -123l-102 101l129 120l-130 121l100 100l134 -125l134 124z" />
    <glyph glyph-name="Oslash" unicode="&#xd8;" horiz-adv-x="773" 
d="M730 700l-73 -92c58 -65 84 -156 84 -258c0 -203 -102 -361 -355 -361c-77 0 -140 14 -191 40l-23 -29h-129l72 91c-58 65 -84 156 -84 259c0 203 102 361 355 361c77 0 140 -15 190 -41l24 30h130zM228 350c0 -38 4 -71 14 -100l223 280c-22 12 -48 18 -79 18
c-115 0 -158 -82 -158 -198zM386 152c115 0 158 81 158 198c0 37 -5 70 -14 99l-223 -280c21 -11 47 -17 79 -17z" />
    <glyph glyph-name="Ugrave" unicode="&#xd9;" horiz-adv-x="728" 
d="M674 700v-400c0 -172 -54 -311 -310 -311s-310 139 -310 311v400h192v-418c0 -73 19 -130 118 -130c98 0 118 57 118 130v418h192zM481 737h-149l-176 143h199z" />
    <glyph glyph-name="Uacute" unicode="&#xda;" horiz-adv-x="728" 
d="M674 700v-400c0 -172 -54 -311 -310 -311s-310 139 -310 311v400h192v-418c0 -73 19 -130 118 -130c98 0 118 57 118 130v418h192zM397 737h-150l126 143h199z" />
    <glyph glyph-name="Ucircumflex" unicode="&#xdb;" horiz-adv-x="728" 
d="M674 700v-400c0 -172 -54 -311 -310 -311s-310 139 -310 311v400h192v-418c0 -73 19 -130 118 -130c98 0 118 57 118 130v418h192zM449 880l110 -143h-125l-70 67l-71 -67h-123l109 143h170z" />
    <glyph glyph-name="Udieresis" unicode="&#xdc;" horiz-adv-x="728" 
d="M674 700v-400c0 -172 -54 -311 -310 -311s-310 139 -310 311v400h192v-418c0 -73 19 -130 118 -130c98 0 118 57 118 130v418h192zM201 747v130h137v-130h-137zM390 747v130h138v-130h-138z" />
    <glyph glyph-name="Yacute" unicode="&#xdd;" horiz-adv-x="682" 
d="M245 0v278l-250 422h216l130 -257l130 257h216l-251 -424l1 -276h-192zM374 737h-149l126 143h199z" />
    <glyph glyph-name="Thorn" unicode="&#xde;" horiz-adv-x="689" 
d="M668 361c0 -150 -92 -233 -293 -233h-122v-128h-192v700h192v-104h122c201 0 293 -84 293 -235zM474 361c0 63 -44 77 -138 77h-83v-154h83c94 0 138 15 138 77z" />
    <glyph glyph-name="germandbls" unicode="&#xdf;" horiz-adv-x="756" 
d="M382 711c263 0 333 -124 333 -230v-4l-76 -117c-35 16 -109 38 -144 38c-24 0 -35 -10 -35 -21c0 -24 46 -31 108 -49c71 -21 169 -62 169 -177c0 -94 -65 -162 -203 -162c-102 0 -212 37 -269 70l70 129c47 -26 140 -59 181 -59c20 0 35 8 35 20c0 21 -44 28 -111 50
c-76 25 -166 63 -166 173c0 92 63 164 199 164c12 0 24 -1 37 -2c-20 22 -58 37 -128 37c-139 0 -148 -58 -148 -114v-457h-185v478c0 112 73 233 333 233z" />
    <glyph glyph-name="agrave" unicode="&#xe0;" horiz-adv-x="609" 
d="M380 0v57c-40 -36 -98 -68 -176 -68c-114 0 -186 76 -186 175c0 104 81 167 198 167c60 0 132 -16 164 -21v26c0 47 -20 62 -82 62c-49 0 -103 -11 -189 -36l-56 125c110 35 202 49 282 49c165 0 230 -58 230 -212v-324h-185zM427 586h-151l-174 143h198zM266 129
c34 0 75 11 114 43v51c-25 5 -70 13 -102 13c-46 0 -74 -17 -74 -55c0 -35 25 -52 62 -52z" />
    <glyph glyph-name="aacute" unicode="&#xe1;" horiz-adv-x="609" 
d="M380 0v57c-40 -36 -98 -68 -176 -68c-114 0 -186 76 -186 175c0 104 81 167 198 167c60 0 132 -16 164 -21v26c0 47 -20 62 -82 62c-49 0 -103 -11 -189 -36l-56 125c110 35 202 49 282 49c165 0 230 -58 230 -212v-324h-185zM342 586h-150l126 143h199zM266 129
c34 0 75 11 114 43v51c-25 5 -70 13 -102 13c-46 0 -74 -17 -74 -55c0 -35 25 -52 62 -52z" />
    <glyph glyph-name="acircumflex" unicode="&#xe2;" horiz-adv-x="609" 
d="M380 0v57c-40 -36 -98 -68 -176 -68c-114 0 -186 76 -186 175c0 104 81 167 198 167c60 0 132 -16 164 -21v26c0 47 -20 62 -82 62c-49 0 -103 -11 -189 -36l-56 125c110 35 202 49 282 49c165 0 230 -58 230 -212v-324h-185zM394 729l109 -143h-125l-70 67l-69 -67h-125
l110 143h170zM266 129c34 0 75 11 114 43v51c-25 5 -70 13 -102 13c-46 0 -74 -17 -74 -55c0 -35 25 -52 62 -52z" />
    <glyph glyph-name="atilde" unicode="&#xe3;" horiz-adv-x="609" 
d="M380 0v57c-40 -36 -98 -68 -176 -68c-114 0 -186 76 -186 175c0 104 81 167 198 167c60 0 132 -16 164 -21v26c0 47 -20 62 -82 62c-49 0 -103 -11 -189 -36l-56 125c110 35 202 49 282 49c165 0 230 -58 230 -212v-324h-185zM186 589l-78 39c29 56 57 117 123 117
c57 0 115 -47 148 -47c12 0 29 4 52 46l79 -39c-28 -56 -57 -117 -123 -117c-57 0 -115 47 -148 47c-13 0 -29 -4 -53 -46zM266 129c34 0 75 11 114 43v51c-25 5 -70 13 -102 13c-46 0 -74 -17 -74 -55c0 -35 25 -52 62 -52z" />
    <glyph glyph-name="adieresis" unicode="&#xe4;" horiz-adv-x="609" 
d="M380 0v57c-40 -36 -98 -68 -176 -68c-114 0 -186 76 -186 175c0 104 81 167 198 167c60 0 132 -16 164 -21v26c0 47 -20 62 -82 62c-49 0 -103 -11 -189 -36l-56 125c110 35 202 49 282 49c165 0 230 -58 230 -212v-324h-185zM335 596v130h138v-130h-138zM145 596v130
h138v-130h-138zM266 129c34 0 75 11 114 43v51c-25 5 -70 13 -102 13c-46 0 -74 -17 -74 -55c0 -35 25 -52 62 -52z" />
    <glyph glyph-name="aring" unicode="&#xe5;" horiz-adv-x="609" 
d="M380 0v57c-40 -36 -98 -68 -176 -68c-114 0 -186 76 -186 175c0 104 81 167 198 167c60 0 132 -16 164 -21v26c0 47 -20 62 -82 62c-49 0 -103 -11 -189 -36l-56 125c110 35 202 49 282 49c165 0 230 -58 230 -212v-324h-185zM192 694c0 64 53 117 117 117
c65 0 118 -53 118 -117c0 -65 -53 -118 -118 -118c-64 0 -117 53 -117 118zM266 129c34 0 75 11 114 43v51c-25 5 -70 13 -102 13c-46 0 -74 -17 -74 -55c0 -35 25 -52 62 -52zM276 694c0 -19 15 -34 33 -34c19 0 34 15 34 34c0 18 -15 33 -34 33c-18 0 -33 -15 -33 -33z
" />
    <glyph glyph-name="ae" unicode="&#xe6;" horiz-adv-x="932" 
d="M896 224h-338c8 -67 35 -100 94 -100c51 0 121 25 192 59l64 -113c-37 -20 -147 -81 -276 -81c-92 0 -171 31 -218 101c-65 -71 -132 -101 -210 -101c-114 0 -186 76 -186 175c0 104 81 167 198 167c58 0 122 -14 156 -21c1 14 4 27 7 40c-4 36 -26 48 -81 48
c-49 0 -103 -11 -189 -36l-56 125c110 35 202 49 282 49c70 0 122 -11 158 -34c41 22 91 34 150 34c177 0 263 -99 263 -235c0 -44 -10 -77 -10 -77zM379 171c-4 16 -7 33 -8 51c-26 6 -65 14 -93 14c-46 0 -74 -17 -74 -55c0 -35 25 -52 62 -52c33 0 73 11 113 42zM644 407
c-51 0 -76 -31 -85 -88h166c-1 56 -26 88 -81 88z" />
    <glyph glyph-name="ccedilla" unicode="&#xe7;" horiz-adv-x="525" 
d="M125 -167l35 86c20 -10 36 -11 46 -11c23 0 44 7 44 32c0 19 -12 40 -21 52c-110 16 -204 100 -204 271c0 192 119 273 247 273c93 0 190 -39 241 -61l-72 -136c-39 17 -94 40 -137 40c-60 0 -91 -47 -91 -116s31 -117 91 -117c43 0 98 23 137 40l72 -136
c-44 -20 -122 -51 -203 -59c12 -15 31 -47 31 -84c0 -70 -57 -97 -122 -97c-29 0 -65 6 -94 23z" />
    <glyph glyph-name="egrave" unicode="&#xe8;" horiz-adv-x="587" 
d="M552 224h-338c7 -67 36 -100 94 -100c51 0 121 25 191 59l66 -113c-38 -20 -149 -81 -277 -81c-147 0 -263 82 -263 271c0 173 100 276 274 276c177 0 263 -99 263 -235c0 -44 -10 -77 -10 -77zM422 586h-150l-175 143h199zM301 407c-51 0 -77 -31 -86 -88h167
c-1 56 -26 88 -81 88z" />
    <glyph glyph-name="eacute" unicode="&#xe9;" horiz-adv-x="587" 
d="M552 224h-338c7 -67 36 -100 94 -100c51 0 121 25 191 59l66 -113c-38 -20 -149 -81 -277 -81c-147 0 -263 82 -263 271c0 173 100 276 274 276c177 0 263 -99 263 -235c0 -44 -10 -77 -10 -77zM338 586h-150l125 143h200zM301 407c-51 0 -77 -31 -86 -88h167
c-1 56 -26 88 -81 88z" />
    <glyph glyph-name="ecircumflex" unicode="&#xea;" horiz-adv-x="587" 
d="M552 224h-338c7 -67 36 -100 94 -100c51 0 121 25 191 59l66 -113c-38 -20 -149 -81 -277 -81c-147 0 -263 82 -263 271c0 173 100 276 274 276c177 0 263 -99 263 -235c0 -44 -10 -77 -10 -77zM389 729l110 -143h-125l-70 67l-69 -67h-125l110 143h169zM301 407
c-51 0 -77 -31 -86 -88h167c-1 56 -26 88 -81 88z" />
    <glyph glyph-name="edieresis" unicode="&#xeb;" horiz-adv-x="587" 
d="M552 224h-338c7 -67 36 -100 94 -100c51 0 121 25 191 59l66 -113c-38 -20 -149 -81 -277 -81c-147 0 -263 82 -263 271c0 173 100 276 274 276c177 0 263 -99 263 -235c0 -44 -10 -77 -10 -77zM141 596v130h138v-130h-138zM331 596v130h138v-130h-138zM301 407
c-51 0 -77 -31 -86 -88h167c-1 56 -26 88 -81 88z" />
    <glyph glyph-name="igrave" unicode="&#xec;" horiz-adv-x="283" 
d="M234 0h-185v525h185v-525zM259 586h-150l-176 143h199z" />
    <glyph glyph-name="iacute" unicode="&#xed;" horiz-adv-x="283" 
d="M234 0h-184v525h184v-525zM175 586h-150l127 143h199z" />
    <glyph glyph-name="icircumflex" unicode="&#xee;" horiz-adv-x="283" 
d="M234 0h-185v525h185v-525zM226 729l110 -143h-125l-70 67l-70 -67h-124l110 143h169z" />
    <glyph glyph-name="idieresis" unicode="&#xef;" horiz-adv-x="283" 
d="M234 0h-185v525h185v-525zM-22 596v130h138v-130h-138zM167 596v130h138v-130h-138z" />
    <glyph glyph-name="eth" unicode="&#xf0;" horiz-adv-x="642" 
d="M260 497h-143l49 59c-42 -2 -69 -8 -69 -8l-20 141s40 11 110 11c33 0 64 -3 93 -8l30 37h144l-59 -71c147 -66 221 -206 221 -362c0 -192 -113 -307 -304 -307c-179 0 -286 95 -286 244c0 147 104 243 241 243c114 0 161 -63 161 -63c-19 59 -65 104 -133 126zM432 232
c0 50 -24 104 -107 104c-84 0 -107 -55 -107 -104s23 -103 107 -103c83 0 107 53 107 103z" />
    <glyph glyph-name="ntilde" unicode="&#xf1;" 
d="M234 525v-55c50 33 115 66 195 66c113 0 163 -62 163 -168v-368h-185v324c0 41 -11 70 -54 70c-42 0 -89 -26 -119 -55v-339h-185v525h185zM196 588l-78 39c29 56 57 117 123 117c57 0 115 -47 148 -47c12 0 28 4 52 46l78 -39c-28 -56 -57 -118 -123 -118
c-56 0 -114 48 -147 48c-13 0 -29 -5 -53 -46z" />
    <glyph glyph-name="ograve" unicode="&#xf2;" horiz-adv-x="625" 
d="M600 262c0 -174 -102 -273 -287 -273c-186 0 -288 100 -288 274s102 273 288 273c185 0 287 -100 287 -274zM414 262c0 85 -32 134 -101 134c-70 0 -102 -48 -102 -133s32 -134 102 -134c69 0 101 48 101 133zM430 586h-150l-175 143h198z" />
    <glyph glyph-name="oacute" unicode="&#xf3;" horiz-adv-x="625" 
d="M600 262c0 -174 -102 -273 -287 -273c-186 0 -288 100 -288 274s102 273 288 273c185 0 287 -100 287 -274zM414 262c0 85 -32 134 -101 134c-70 0 -102 -48 -102 -133s32 -134 102 -134c69 0 101 48 101 133zM346 586h-151l127 143h198z" />
    <glyph glyph-name="ocircumflex" unicode="&#xf4;" horiz-adv-x="625" 
d="M600 262c0 -174 -102 -273 -287 -273c-186 0 -288 100 -288 274s102 273 288 273c185 0 287 -100 287 -274zM414 262c0 85 -32 134 -101 134c-70 0 -102 -48 -102 -133s32 -134 102 -134c69 0 101 48 101 133zM397 729l110 -143h-124l-70 67l-70 -67h-125l110 143h169z
" />
    <glyph glyph-name="otilde" unicode="&#xf5;" horiz-adv-x="625" 
d="M600 262c0 -174 -102 -273 -287 -273c-186 0 -288 100 -288 274s102 273 288 273c185 0 287 -100 287 -274zM414 262c0 85 -32 134 -101 134c-70 0 -102 -48 -102 -133s32 -134 102 -134c69 0 101 48 101 133zM190 588l-73 24c22 56 46 121 118 121c53 0 96 -34 145 -37
c14 -1 40 1 55 37l74 -24c-21 -48 -44 -121 -119 -121c-54 0 -99 35 -144 37c-18 1 -42 -4 -56 -37z" />
    <glyph glyph-name="odieresis" unicode="&#xf6;" horiz-adv-x="625" 
d="M600 262c0 -174 -102 -273 -287 -273c-186 0 -288 100 -288 274s102 273 288 273c185 0 287 -100 287 -274zM414 262c0 85 -32 134 -101 134c-70 0 -102 -48 -102 -133s32 -134 102 -134c69 0 101 48 101 133zM149 596v130h138v-130h-138zM339 596v130h138v-130h-138z
" />
    <glyph glyph-name="divide" unicode="&#xf7;" horiz-adv-x="652" 
d="M64 265v137h523v-137h-523zM241 523c0 45 39 81 85 81s84 -36 84 -81s-38 -82 -84 -82s-85 37 -85 82zM241 145c0 46 38 81 84 81c47 0 85 -35 85 -81c0 -45 -38 -81 -85 -81c-46 0 -84 36 -84 81z" />
    <glyph glyph-name="oslash" unicode="&#xf8;" horiz-adv-x="625" 
d="M583 525l-54 -64c46 -47 71 -114 71 -199c0 -174 -102 -273 -288 -273c-61 0 -112 11 -155 31l-17 -20h-105l57 67c-45 47 -68 113 -68 196c0 174 102 273 288 273c59 0 110 -11 152 -31l17 20h102zM414 262c0 21 -2 39 -6 56l-148 -176c14 -9 31 -13 52 -13
c70 0 102 48 102 133zM211 263c0 -19 1 -35 4 -50l146 172c-13 7 -30 11 -49 11c-70 0 -101 -48 -101 -133z" />
    <glyph glyph-name="ugrave" unicode="&#xf9;" 
d="M403 0v55c-51 -34 -116 -66 -196 -66c-113 0 -162 62 -162 168v368h185v-324c0 -41 10 -70 54 -70c41 0 88 25 119 54v340h184v-525h-184zM433 586h-150l-175 143h199z" />
    <glyph glyph-name="uacute" unicode="&#xfa;" 
d="M403 0v55c-51 -34 -116 -66 -196 -66c-113 0 -162 62 -162 168v368h185v-324c0 -41 10 -70 54 -70c41 0 88 25 119 54v340h184v-525h-184zM349 586h-150l126 143h199z" />
    <glyph glyph-name="ucircumflex" unicode="&#xfb;" 
d="M403 0v55c-51 -34 -116 -66 -196 -66c-113 0 -162 62 -162 168v368h185v-324c0 -41 10 -70 54 -70c41 0 88 25 119 54v340h184v-525h-184zM400 729l110 -143h-124l-70 67l-70 -67h-125l109 143h170z" />
    <glyph glyph-name="udieresis" unicode="&#xfc;" 
d="M403 0v55c-51 -34 -116 -66 -196 -66c-113 0 -162 62 -162 168v368h185v-324c0 -41 10 -70 54 -70c41 0 88 25 119 54v340h184v-525h-184zM342 596v130h138v-130h-138zM152 596v130h138v-130h-138z" />
    <glyph glyph-name="yacute" unicode="&#xfd;" horiz-adv-x="599" 
d="M2 525h198l100 -303l99 303h199l-286 -729h-197l91 205zM333 586h-151l127 143h198z" />
    <glyph glyph-name="thorn" unicode="&#xfe;" 
d="M403 -11c-75 0 -124 26 -169 61v-254h-185v933h185v-256c45 37 94 63 169 63c126 0 208 -95 208 -274c0 -177 -82 -273 -208 -273zM342 389c-34 0 -73 -16 -108 -57v-140c35 -41 74 -56 108 -56c55 0 82 42 82 127c0 84 -27 126 -82 126z" />
    <glyph glyph-name="ydieresis" unicode="&#xff;" horiz-adv-x="599" 
d="M2 525h198l100 -303l99 303h199l-286 -729h-197l91 205zM326 596v130h138v-130h-138zM136 596v130h138v-130h-138z" />
    <glyph glyph-name="Amacron" unicode="&#x100;" horiz-adv-x="725" 
d="M517 0l-35 117h-240l-35 -117h-209l258 700h212l258 -700h-209zM204 762v105h317v-105h-317zM361 520l-75 -254h151z" />
    <glyph glyph-name="amacron" unicode="&#x101;" horiz-adv-x="609" 
d="M380 0v57c-40 -36 -98 -68 -176 -68c-114 0 -186 76 -186 175c0 104 81 167 198 167c60 0 132 -16 164 -21v26c0 47 -20 62 -82 62c-49 0 -103 -11 -189 -36l-56 125c110 35 202 49 282 49c165 0 230 -58 230 -212v-324h-185zM150 612v104h317v-104h-317zM266 129
c34 0 75 11 114 43v51c-25 5 -70 13 -102 13c-46 0 -74 -17 -74 -55c0 -35 25 -52 62 -52z" />
    <glyph glyph-name="Abreve" unicode="&#x102;" horiz-adv-x="725" 
d="M517 0l-35 117h-240l-35 -117h-209l258 700h212l258 -700h-209zM361 737c-112 0 -178 51 -178 133h110c0 -22 26 -37 68 -37c44 0 69 15 69 37h110c0 -82 -65 -133 -179 -133zM361 520l-75 -254h151z" />
    <glyph glyph-name="abreve" unicode="&#x103;" horiz-adv-x="609" 
d="M380 0v57c-40 -36 -98 -68 -176 -68c-114 0 -186 76 -186 175c0 104 81 167 198 167c60 0 132 -16 164 -21v26c0 47 -20 62 -82 62c-49 0 -103 -11 -189 -36l-56 125c110 35 202 49 282 49c165 0 230 -58 230 -212v-324h-185zM309 586c-112 0 -177 51 -177 133h109
c0 -22 26 -37 68 -37c43 0 69 15 69 37h109c0 -82 -65 -133 -178 -133zM266 129c34 0 75 11 114 43v51c-25 5 -70 13 -102 13c-46 0 -74 -17 -74 -55c0 -35 25 -52 62 -52z" />
    <glyph glyph-name="Aogonek" unicode="&#x104;" horiz-adv-x="725" 
d="M517 0l-35 117h-240l-35 -117h-209l258 700h212l258 -700h-3c-36 -22 -90 -56 -90 -93c0 -38 55 -31 73 -31l-17 -77c-30 0 -170 -10 -170 91c0 48 42 83 96 110h-98zM361 520l-75 -254h151z" />
    <glyph glyph-name="aogonek" unicode="&#x105;" horiz-adv-x="609" 
d="M380 0v57c-40 -36 -98 -68 -176 -68c-114 0 -186 76 -186 175c0 104 81 167 198 167c60 0 132 -16 164 -21v26c0 47 -20 62 -82 62c-49 0 -103 -11 -189 -36l-56 125c110 35 202 49 282 49c165 0 230 -58 230 -212v-324h-3c-37 -22 -91 -56 -91 -93c0 -38 56 -31 73 -31
l-16 -77c-31 0 -172 -10 -172 91c0 48 43 83 98 110h-74zM266 129c34 0 75 11 114 43v51c-25 5 -70 13 -102 13c-46 0 -74 -17 -74 -55c0 -35 25 -52 62 -52z" />
    <glyph glyph-name="Cacute" unicode="&#x106;" horiz-adv-x="659" 
d="M647 611l-88 -141c-78 41 -144 69 -204 69c-83 0 -126 -75 -126 -189s43 -189 126 -189c60 0 126 28 204 69l88 -141c-99 -54 -199 -100 -317 -100c-174 0 -298 117 -298 361s124 361 298 361c118 0 218 -46 317 -100zM415 737h-149l126 143h199z" />
    <glyph glyph-name="cacute" unicode="&#x107;" horiz-adv-x="524" 
d="M513 475l-72 -136c-39 17 -94 40 -137 40c-60 0 -91 -47 -91 -116s31 -117 91 -117c43 0 98 23 137 40l72 -136c-51 -23 -148 -61 -241 -61c-128 0 -247 82 -247 274s119 273 247 273c93 0 190 -39 241 -61zM317 586h-150l127 143h199z" />
    <glyph glyph-name="Cdotaccent" unicode="&#x10a;" horiz-adv-x="659" 
d="M647 611l-88 -141c-78 41 -144 69 -204 69c-83 0 -126 -75 -126 -189s43 -189 126 -189c60 0 126 28 204 69l88 -141c-99 -54 -199 -100 -317 -100c-174 0 -298 117 -298 361s124 361 298 361c118 0 218 -46 317 -100zM280 747v130h138v-130h-138z" />
    <glyph glyph-name="cdotaccent" unicode="&#x10b;" horiz-adv-x="524" 
d="M513 475l-72 -136c-39 17 -94 40 -137 40c-60 0 -91 -47 -91 -116s31 -117 91 -117c43 0 98 23 137 40l72 -136c-51 -23 -148 -61 -241 -61c-128 0 -247 82 -247 274s119 273 247 273c93 0 190 -39 241 -61zM215 597v129h138v-129h-138z" />
    <glyph glyph-name="Ccaron" unicode="&#x10c;" horiz-adv-x="659" 
d="M647 611l-88 -141c-78 41 -144 69 -204 69c-83 0 -126 -75 -126 -189s43 -189 126 -189c60 0 126 28 204 69l88 -141c-99 -54 -199 -100 -317 -100c-174 0 -298 117 -298 361s124 361 298 361c118 0 218 -46 317 -100zM547 880l-110 -143h-170l-109 143h124l70 -67l70 67
h125z" />
    <glyph glyph-name="ccaron" unicode="&#x10d;" horiz-adv-x="524" 
d="M513 475l-72 -136c-39 17 -94 40 -137 40c-60 0 -91 -47 -91 -116s31 -117 91 -117c43 0 98 23 137 40l72 -136c-51 -23 -148 -61 -241 -61c-128 0 -247 82 -247 274s119 273 247 273c93 0 190 -39 241 -61zM478 729l-109 -143h-170l-110 143h125l70 -67l70 67h124z" />
    <glyph glyph-name="Dcaron" unicode="&#x10e;" horiz-adv-x="733" 
d="M700 350c0 -250 -128 -350 -367 -350h-272v700h272c239 0 367 -100 367 -350zM509 350c0 154 -73 188 -195 188h-61v-376h61c122 0 195 34 195 188zM575 880l-110 -143h-170l-110 143h125l69 -67l71 67h125z" />
    <glyph glyph-name="dcaron" unicode="&#x10f;" horiz-adv-x="718" 
d="M587 0h-185v50c-45 -35 -94 -61 -169 -61c-126 0 -207 96 -207 273c0 179 81 274 207 274c75 0 124 -26 169 -63v256h185v-729zM294 136c34 0 73 15 108 56v140c-35 41 -74 57 -108 57c-54 0 -82 -42 -82 -126c0 -85 28 -127 82 -127zM634 594v135h130l8 -152l-105 -107
l-33 42l58 82h-58z" />
    <glyph glyph-name="Dcroat" unicode="&#x110;" horiz-adv-x="752" 
d="M718 350c0 -250 -128 -350 -366 -350h-272v277h-73v146h73v277h272c238 0 366 -100 366 -350zM528 350c0 154 -73 188 -195 188h-60v-115h130v-146h-130v-115h60c122 0 195 34 195 188z" />
    <glyph glyph-name="dcroat" unicode="&#x111;" 
d="M233 570v104h169v55h185v-55h58v-104h-58v-570h-185v50c-45 -35 -94 -61 -169 -61c-126 0 -207 96 -207 273c0 179 81 274 207 274c75 0 124 -26 169 -63v97h-169zM294 136c34 0 73 15 108 56v140c-35 41 -74 57 -108 57c-54 0 -82 -42 -82 -126c0 -85 28 -127 82 -127z
" />
    <glyph glyph-name="Emacron" unicode="&#x112;" horiz-adv-x="627" 
d="M591 0h-530v700h524v-162h-332v-109h270v-158h-270v-109h338v-162zM167 762v105h317v-105h-317z" />
    <glyph glyph-name="emacron" unicode="&#x113;" horiz-adv-x="587" 
d="M552 224h-338c7 -67 36 -100 94 -100c51 0 121 25 191 59l66 -113c-38 -20 -149 -81 -277 -81c-147 0 -263 82 -263 271c0 173 100 276 274 276c177 0 263 -99 263 -235c0 -44 -10 -77 -10 -77zM145 611v105h317v-105h-317zM301 407c-51 0 -77 -31 -86 -88h167
c-1 56 -26 88 -81 88z" />
    <glyph glyph-name="Edotaccent" unicode="&#x116;" horiz-adv-x="627" 
d="M591 0h-530v700h524v-162h-332v-109h270v-158h-270v-109h338v-162zM257 747v130h138v-130h-138z" />
    <glyph glyph-name="edotaccent" unicode="&#x117;" horiz-adv-x="587" 
d="M552 224h-338c7 -67 36 -100 94 -100c51 0 121 25 191 59l66 -113c-38 -20 -149 -81 -277 -81c-147 0 -263 82 -263 271c0 173 100 276 274 276c177 0 263 -99 263 -235c0 -44 -10 -77 -10 -77zM236 596v130h137v-130h-137zM301 407c-51 0 -77 -31 -86 -88h167
c-1 56 -26 88 -81 88z" />
    <glyph glyph-name="Eogonek" unicode="&#x118;" horiz-adv-x="627" 
d="M497 -93c0 -38 55 -31 73 -31l-16 -77c-30 0 -171 -10 -171 91c0 48 42 83 97 110h-419v700h524v-162h-332v-109h270v-158h-270v-109h338v-162h-3c-37 -22 -91 -56 -91 -93z" />
    <glyph glyph-name="eogonek" unicode="&#x119;" horiz-adv-x="588" 
d="M292 -93c0 -38 56 -31 74 -31l-17 -77c-31 0 -171 -10 -171 91c0 43 33 75 79 101c-132 10 -232 93 -232 269c0 173 100 276 274 276c177 0 263 -99 263 -235c0 -44 -10 -77 -10 -77h-338c7 -67 36 -100 94 -100c51 0 121 25 191 59l66 -113c-29 -15 -98 -53 -184 -71
c-37 -22 -89 -56 -89 -92zM301 407c-51 0 -77 -31 -86 -88h167c-1 56 -26 88 -81 88z" />
    <glyph glyph-name="Ecaron" unicode="&#x11a;" horiz-adv-x="627" 
d="M591 0h-530v700h524v-162h-332v-109h270v-158h-270v-109h338v-162zM520 879l-110 -143h-169l-110 143h125l70 -67l70 67h124z" />
    <glyph glyph-name="ecaron" unicode="&#x11b;" horiz-adv-x="587" 
d="M552 224h-338c7 -67 36 -100 94 -100c51 0 121 25 191 59l66 -113c-38 -20 -149 -81 -277 -81c-147 0 -263 82 -263 271c0 173 100 276 274 276c177 0 263 -99 263 -235c0 -44 -10 -77 -10 -77zM499 729l-110 -143h-169l-110 143h125l69 -67l70 67h125zM301 407
c-51 0 -77 -31 -86 -88h167c-1 56 -26 88 -81 88z" />
    <glyph glyph-name="Gbreve" unicode="&#x11e;" horiz-adv-x="717" 
d="M493 0v60c-50 -42 -108 -71 -180 -71c-151 0 -281 117 -281 360c0 245 126 362 303 362c124 0 229 -47 331 -101l-87 -141c-83 41 -155 70 -219 70c-87 0 -131 -75 -131 -189s36 -199 129 -199c55 0 107 40 135 65v48h-147v150h327v-414h-180zM352 737
c-112 0 -177 51 -177 133h109c0 -22 26 -37 68 -37c43 0 69 15 69 37h110c0 -82 -66 -133 -179 -133z" />
    <glyph glyph-name="gbreve" unicode="&#x11f;" 
d="M318 586c-112 0 -178 51 -178 133h110c0 -22 26 -37 68 -37c44 0 69 15 69 37h110c0 -82 -65 -133 -179 -133zM402 525h185v-508c0 -154 -74 -231 -245 -231c-86 0 -201 18 -293 45l35 144c63 -19 166 -42 218 -42c80 0 100 22 100 74v43c-45 -35 -94 -61 -169 -61
c-126 0 -207 96 -207 273c0 179 81 274 207 274c75 0 124 -26 169 -63v52zM294 136c34 0 73 15 108 56v140c-35 41 -74 57 -108 57c-54 0 -82 -42 -82 -126c0 -85 28 -127 82 -127z" />
    <glyph glyph-name="Gdotaccent" unicode="&#x120;" horiz-adv-x="717" 
d="M493 0v60c-50 -42 -108 -71 -180 -71c-151 0 -281 117 -281 360c0 245 126 362 303 362c124 0 229 -47 331 -101l-87 -141c-83 41 -155 70 -219 70c-87 0 -131 -75 -131 -189s36 -199 129 -199c55 0 107 40 135 65v48h-147v150h327v-414h-180zM283 747v130h138v-130h-138
z" />
    <glyph glyph-name="gdotaccent" unicode="&#x121;" 
d="M249 596v130h138v-130h-138zM402 525h185v-508c0 -154 -74 -231 -245 -231c-86 0 -201 18 -293 45l35 144c63 -19 166 -42 218 -42c80 0 100 22 100 74v43c-45 -35 -94 -61 -169 -61c-126 0 -207 96 -207 273c0 179 81 274 207 274c75 0 124 -26 169 -63v52zM294 136
c34 0 73 15 108 56v140c-35 41 -74 57 -108 57c-54 0 -82 -42 -82 -126c0 -85 28 -127 82 -127z" />
    <glyph glyph-name="Gcommaaccent" unicode="&#x122;" horiz-adv-x="717" 
d="M493 0v60c-50 -42 -108 -71 -180 -71c-151 0 -281 117 -281 360c0 245 126 362 303 362c124 0 229 -47 331 -101l-87 -141c-83 41 -155 70 -219 70c-87 0 -131 -75 -131 -189s36 -199 129 -199c55 0 107 40 135 65v48h-147v150h327v-414h-180zM303 -188v135h130l8 -152
l-105 -107l-35 42l60 82h-58z" />
    <glyph glyph-name="gcommaaccent" unicode="&#x123;" 
d="M388 739v-143h-135l-9 157l111 116l35 -45l-62 -85h60zM402 525h185v-508c0 -154 -74 -231 -245 -231c-86 0 -201 18 -293 45l35 144c63 -19 166 -42 218 -42c80 0 100 22 100 74v43c-45 -35 -94 -61 -169 -61c-126 0 -207 96 -207 273c0 179 81 274 207 274
c75 0 124 -26 169 -63v52zM294 136c34 0 73 15 108 56v140c-35 41 -74 57 -108 57c-54 0 -82 -42 -82 -126c0 -85 28 -127 82 -127z" />
    <glyph glyph-name="Hbar" unicode="&#x126;" horiz-adv-x="770" 
d="M502 0v288h-233v-288h-192v512h-76v105h76v83h192v-83h233v83h192v-83h75v-105h-75v-512h-192zM269 512v-66h233v66h-233z" />
    <glyph glyph-name="hbar" unicode="&#x127;" 
d="M-9 570v104h58v55h185v-55h170v-104h-170v-100c50 33 115 66 196 66c112 0 161 -62 161 -168v-368h-184v324c0 41 -11 70 -55 70c-41 0 -88 -26 -118 -55v-339h-185v570h-58z" />
    <glyph glyph-name="Itilde" unicode="&#x128;" horiz-adv-x="314" 
d="M33 740l-78 39c29 56 57 117 123 117c57 0 115 -47 148 -47c12 0 28 4 52 46l78 -39c-28 -56 -57 -117 -123 -117c-56 0 -114 47 -147 47c-13 0 -29 -4 -53 -46zM252 0h-191v700h191v-700z" />
    <glyph glyph-name="itilde" unicode="&#x129;" horiz-adv-x="283" 
d="M18 589l-78 39c29 56 57 117 123 117c57 0 115 -47 148 -47c12 0 29 4 52 46l79 -39c-28 -56 -57 -117 -123 -117c-57 0 -115 47 -148 47c-13 0 -29 -4 -53 -46zM234 0h-185v525h185v-525z" />
    <glyph glyph-name="Imacron" unicode="&#x12a;" horiz-adv-x="314" 
d="M253 0h-192v700h192v-700zM-2 762v105h317v-105h-317z" />
    <glyph glyph-name="imacron" unicode="&#x12b;" horiz-adv-x="283" 
d="M234 0h-184v525h184v-525zM-17 611v105h317v-105h-317z" />
    <glyph glyph-name="Ibreve" unicode="&#x12c;" horiz-adv-x="314" 
d="M156 737c-112 0 -177 51 -177 133h110c0 -22 25 -37 67 -37c44 0 70 15 70 37h110c0 -82 -66 -133 -180 -133zM253 0h-192v700h192v-700z" />
    <glyph glyph-name="ibreve" unicode="&#x12d;" horiz-adv-x="283" 
d="M140 586c-111 0 -177 51 -177 133h110c0 -22 26 -37 67 -37c44 0 70 15 70 37h110c0 -82 -65 -133 -180 -133zM234 0h-185v525h185v-525z" />
    <glyph glyph-name="Iogonek" unicode="&#x12e;" horiz-adv-x="314" 
d="M158 -93c0 -38 55 -31 73 -31l-16 -77c-31 0 -171 -10 -171 91c0 48 42 83 97 110h-81v700h192v-700h-3c-37 -22 -91 -56 -91 -93z" />
    <glyph glyph-name="iogonek" unicode="&#x12f;" horiz-adv-x="283" 
d="M139 -93c0 -38 56 -31 74 -31l-16 -77c-31 0 -172 -10 -172 91c0 48 43 83 98 110h-74v525h185v-525h-3c-37 -22 -92 -56 -92 -93zM45 582v144h192v-144h-192z" />
    <glyph glyph-name="Idotaccent" unicode="&#x130;" horiz-adv-x="314" 
d="M253 0h-192v700h192v-700zM88 747v130h137v-130h-137z" />
    <glyph glyph-name="dotlessi" unicode="&#x131;" horiz-adv-x="283" 
d="M234 0h-185v525h185v-525z" />
    <glyph glyph-name="IJ" unicode="&#x132;" horiz-adv-x="629" 
d="M253 0h-192v700h192v-700zM583 700v-625c0 -150 0 -216 -246 -270l-63 141c117 38 117 55 117 118v636h192z" />
    <glyph glyph-name="ij" unicode="&#x133;" horiz-adv-x="567" 
d="M343 582v144h191v-144h-191zM531 525v-489c0 -150 0 -217 -242 -270l-59 132c117 39 117 53 117 123v504h184zM234 0h-185v525h185v-525zM46 582v144h192v-144h-192z" />
    <glyph glyph-name="Jcircumflex" unicode="&#x134;" horiz-adv-x="315" 
d="M254 700v-625c0 -150 0 -216 -245 -270l-63 141c116 38 116 55 116 118v636h192zM243 880l110 -143h-125l-70 67l-70 -67h-125l109 143h171z" />
    <glyph glyph-name="jcircumflex" unicode="&#x135;" horiz-adv-x="283" 
d="M234 525v-489c0 -150 0 -217 -242 -270l-59 132c116 39 116 53 116 123v504h185zM226 729l110 -143h-125l-70 67l-70 -67h-124l109 143h170z" />
    <glyph glyph-name="Kcommaaccent" unicode="&#x136;" horiz-adv-x="717" 
d="M61 0v700h192v-295l240 295h226l-279 -329l286 -371h-227l-177 232l-69 -82v-150h-192zM288 -188v135h130l8 -152l-106 -107l-34 42l59 82h-57z" />
    <glyph glyph-name="kcommaaccent" unicode="&#x137;" horiz-adv-x="599" 
d="M581 525l-177 -207l207 -318h-194l-124 189l-59 -69v-120h-185v729h185v-380l137 176h210zM238 -188v135h129l8 -152l-105 -107l-34 42l60 82h-58z" />
    <glyph glyph-name="kgreenlandic" unicode="&#x138;" horiz-adv-x="599" 
d="M581 525l-177 -207l207 -318h-194l-124 189l-59 -69v-120h-185v525h185v-176l137 176h210z" />
    <glyph glyph-name="Lacute" unicode="&#x139;" horiz-adv-x="588" 
d="M576 0h-515v700h192v-538h323v-162zM190 737h-150l127 143h199z" />
    <glyph glyph-name="lacute" unicode="&#x13a;" horiz-adv-x="285" 
d="M235 0h-184v729h184v-729zM176 769h-150l127 143h198z" />
    <glyph glyph-name="Lcommaaccent" unicode="&#x13b;" horiz-adv-x="587" 
d="M246 -188v135h130l8 -152l-105 -107l-35 42l60 82h-58zM574 0h-513v700h192v-538h321v-162z" />
    <glyph glyph-name="lcommaaccent" unicode="&#x13c;" horiz-adv-x="285" 
d="M80 -188v135h129l8 -152l-105 -107l-33 42l59 82h-58zM235 0h-185v729h185v-729z" />
    <glyph glyph-name="Lcaron" unicode="&#x13d;" horiz-adv-x="587" 
d="M300 565v135h130l8 -152l-106 -107l-33 42l59 82h-58zM574 0h-513v700h192v-538h321v-162z" />
    <glyph glyph-name="lcaron" unicode="&#x13e;" horiz-adv-x="365" 
d="M282 594v135h129l9 -152l-105 -107l-35 42l60 82h-58zM235 0h-185v729h185v-729z" />
    <glyph glyph-name="Ldot" unicode="&#x13f;" horiz-adv-x="588" 
d="M574 0h-513v700h192v-538h321v-162zM388 306v130h138v-130h-138z" />
    <glyph glyph-name="ldot" unicode="&#x140;" horiz-adv-x="420" 
d="M235 0h-185v729h185v-729zM282 306v130h138v-130h-138z" />
    <glyph glyph-name="Lslash" unicode="&#x141;" horiz-adv-x="606" 
d="M595 0h-514v214l-67 -37v167l67 37v319h192v-211l130 73v-167l-130 -73v-160h322v-162z" />
    <glyph glyph-name="lslash" unicode="&#x142;" horiz-adv-x="333" 
d="M260 0h-184v229l-60 -34v167l60 34v333h184v-230l59 34v-167l-59 -34v-332z" />
    <glyph glyph-name="Nacute" unicode="&#x143;" horiz-adv-x="755" 
d="M500 0l-247 408v-408h-192v700h194l247 -410v410h192v-700h-194zM416 737h-150l126 143h199z" />
    <glyph glyph-name="nacute" unicode="&#x144;" 
d="M234 525v-55c50 33 115 66 195 66c113 0 163 -62 163 -168v-368h-185v324c0 41 -11 70 -54 70c-42 0 -89 -26 -119 -55v-339h-185v525h185zM354 586h-151l126 143h199z" />
    <glyph glyph-name="Ncommaaccent" unicode="&#x145;" horiz-adv-x="755" 
d="M255 700l247 -410v410h192v-700h-194l-247 408v-408h-192v700h194zM321 -188v135h130l7 -152l-106 -107l-33 42l59 82h-57z" />
    <glyph glyph-name="ncommaaccent" unicode="&#x146;" 
d="M234 525v-55c50 33 115 66 195 66c113 0 163 -62 163 -168v-368h-185v324c0 41 -11 70 -54 70c-42 0 -89 -26 -119 -55v-339h-185v525h185zM257 -188v135h130l8 -152l-105 -107l-34 42l59 82h-58z" />
    <glyph glyph-name="Ncaron" unicode="&#x147;" horiz-adv-x="755" 
d="M255 700l247 -410v410h192v-700h-194l-247 408v-408h-192v700h194zM578 880l-110 -143h-170l-110 143h124l70 -67l71 67h125z" />
    <glyph glyph-name="ncaron" unicode="&#x148;" 
d="M234 525v-55c50 33 115 66 195 66c113 0 163 -62 163 -168v-368h-185v324c0 41 -11 70 -54 70c-42 0 -89 -26 -119 -55v-339h-185v525h185zM514 729l-110 -143h-170l-110 143h125l70 -67l71 67h124z" />
    <glyph glyph-name="napostrophe" unicode="&#x149;" horiz-adv-x="636" 
d="M234 525v-55c50 33 116 66 195 66c113 0 161 -62 161 -168v-368h-184v324c0 41 -11 70 -54 70c-40 0 -88 -25 -118 -54v-340h-185v525h185zM49 677v135h129l8 -152l-105 -107l-34 42l59 82h-57z" />
    <glyph glyph-name="Eng" unicode="&#x14a;" horiz-adv-x="755" 
d="M694 700v-657c0 -129 -17 -188 -245 -238l-63 141c74 22 100 36 110 59l-243 403v-408h-192v700h194l247 -410v410h192z" />
    <glyph glyph-name="eng" unicode="&#x14b;" 
d="M592 368v-332c0 -150 0 -217 -243 -270l-58 132c116 39 116 53 116 123v303c0 41 -11 70 -54 70c-42 0 -89 -26 -119 -55v-339h-185v525h185v-55c50 33 115 66 195 66c113 0 163 -62 163 -168z" />
    <glyph glyph-name="Omacron" unicode="&#x14c;" horiz-adv-x="773" 
d="M386 711c253 0 356 -158 356 -361s-103 -361 -356 -361s-355 158 -355 361s102 361 355 361zM386 152c115 0 158 81 158 198c0 116 -43 198 -158 198s-158 -82 -158 -198c0 -117 43 -198 158 -198zM228 762v105h317v-105h-317z" />
    <glyph glyph-name="omacron" unicode="&#x14d;" horiz-adv-x="625" 
d="M600 262c0 -174 -102 -273 -287 -273c-186 0 -288 100 -288 274s102 273 288 273c185 0 287 -100 287 -274zM414 262c0 85 -32 134 -101 134c-70 0 -102 -48 -102 -133s32 -134 102 -134c69 0 101 48 101 133zM154 611v105h317v-105h-317z" />
    <glyph glyph-name="Obreve" unicode="&#x14e;" horiz-adv-x="773" 
d="M386 711c253 0 356 -158 356 -361s-103 -361 -356 -361s-355 158 -355 361s102 361 355 361zM386 152c115 0 158 81 158 198c0 116 -43 198 -158 198s-158 -82 -158 -198c0 -117 43 -198 158 -198zM385 737c-111 0 -177 51 -177 133h109c0 -22 27 -37 68 -37
c44 0 69 15 69 37h110c0 -82 -65 -133 -179 -133z" />
    <glyph glyph-name="obreve" unicode="&#x14f;" horiz-adv-x="625" 
d="M600 262c0 -174 -102 -273 -287 -273c-186 0 -288 100 -288 274s102 273 288 273c185 0 287 -100 287 -274zM414 262c0 85 -32 134 -101 134c-70 0 -102 -48 -102 -133s32 -134 102 -134c69 0 101 48 101 133zM312 586c-112 0 -177 51 -177 133h109c0 -22 26 -37 68 -37
c43 0 69 15 69 37h110c0 -82 -66 -133 -179 -133z" />
    <glyph glyph-name="Ohungarumlaut" unicode="&#x150;" horiz-adv-x="773" 
d="M386 711c253 0 356 -158 356 -361s-103 -361 -356 -361s-355 158 -355 361s102 361 355 361zM386 152c115 0 158 81 158 198c0 116 -43 198 -158 198s-158 -82 -158 -198c0 -117 43 -198 158 -198zM520 737h-108l82 143h157zM327 737h-107l82 143h157z" />
    <glyph glyph-name="ohungarumlaut" unicode="&#x151;" horiz-adv-x="625" 
d="M600 262c0 -174 -102 -273 -287 -273c-186 0 -288 100 -288 274s102 273 288 273c185 0 287 -100 287 -274zM414 262c0 85 -32 134 -101 134c-70 0 -102 -48 -102 -133s32 -134 102 -134c69 0 101 48 101 133zM446 586h-107l82 143h156zM254 586h-108l82 143h158z" />
    <glyph glyph-name="OE" unicode="&#x152;" horiz-adv-x="1112" 
d="M1075 0h-529v16c-45 -17 -98 -27 -160 -27c-253 0 -355 158 -355 361s102 361 355 361c62 0 115 -10 160 -27v16h524v-162h-333v-109h271v-158h-271v-109h338v-162zM386 152c115 0 158 81 158 198c0 116 -43 198 -158 198s-158 -82 -158 -198c0 -117 43 -198 158 -198z
" />
    <glyph glyph-name="oe" unicode="&#x153;" horiz-adv-x="977" 
d="M942 224h-338c7 -67 34 -100 92 -100c53 0 123 25 192 59l65 -113c-37 -20 -148 -81 -276 -81c-67 0 -127 17 -173 53c-47 -35 -111 -53 -191 -53c-186 0 -288 100 -288 274s102 273 288 273c81 0 146 -19 193 -55c46 35 107 55 183 55c176 0 262 -99 262 -235
c0 -44 -9 -77 -9 -77zM414 262c0 85 -32 134 -101 134c-70 0 -102 -48 -102 -133s32 -134 102 -134c69 0 101 48 101 133zM690 407c-52 0 -77 -31 -85 -88h166c-2 56 -27 88 -81 88z" />
    <glyph glyph-name="Racute" unicode="&#x154;" horiz-adv-x="716" 
d="M486 0l-153 254h-80v-254h-192v700h334c203 0 295 -74 295 -223c0 -113 -53 -182 -166 -210l167 -267h-205zM496 477c0 61 -48 74 -113 74h-130v-148h129c66 0 114 13 114 74zM409 737h-151l126 143h200z" />
    <glyph glyph-name="racute" unicode="&#x155;" horiz-adv-x="442" 
d="M272 586h-150l127 143h198zM234 525v-108c13 32 63 123 195 114v-173c-176 0 -195 -169 -195 -169v-189h-185v525h185z" />
    <glyph glyph-name="Rcommaaccent" unicode="&#x156;" horiz-adv-x="716" 
d="M486 0l-153 254h-80v-254h-192v700h334c203 0 295 -74 295 -223c0 -113 -53 -182 -166 -210l167 -267h-205zM496 477c0 61 -48 74 -113 74h-130v-148h129c66 0 114 13 114 74zM292 -188v135h130l7 -152l-106 -107l-33 42l59 82h-57z" />
    <glyph glyph-name="rcommaaccent" unicode="&#x157;" horiz-adv-x="442" 
d="M78 -188v135h129l8 -152l-105 -107l-33 42l59 82h-58zM233 525v-108c13 32 64 123 195 114v-173c-176 0 -195 -169 -195 -169v-189h-184v525h184z" />
    <glyph glyph-name="Rcaron" unicode="&#x158;" horiz-adv-x="716" 
d="M486 0l-153 254h-80v-254h-192v700h334c203 0 295 -74 295 -223c0 -113 -53 -182 -166 -210l167 -267h-205zM570 880l-110 -143h-169l-110 143h124l70 -67l70 67h125zM496 477c0 61 -48 74 -113 74h-130v-148h129c66 0 114 13 114 74z" />
    <glyph glyph-name="rcaron" unicode="&#x159;" horiz-adv-x="442" 
d="M433 729l-110 -143h-169l-110 143h125l69 -67l70 67h125zM233 525v-108c14 32 64 123 196 114v-173c-177 0 -196 -169 -196 -169v-189h-184v525h184z" />
    <glyph glyph-name="Sacute" unicode="&#x15a;" horiz-adv-x="652" 
d="M358 737h-150l126 143h199zM458 411c71 -28 174 -78 174 -205c0 -122 -95 -217 -272 -217c-134 0 -269 53 -342 100l84 136c61 -35 179 -78 249 -78c43 0 78 14 78 45c0 53 -101 53 -226 100c-74 29 -170 83 -170 205c0 119 91 214 268 214c111 0 231 -36 311 -77
l-85 -138c-55 25 -153 57 -213 57c-42 0 -78 -13 -78 -44c0 -54 103 -51 222 -98z" />
    <glyph glyph-name="sacute" unicode="&#x15b;" horiz-adv-x="547" 
d="M307 586h-150l125 143h200zM345 328c87 -22 186 -63 186 -174c0 -98 -76 -165 -224 -165c-110 0 -229 37 -291 70l70 129c57 -28 159 -60 217 -60c31 0 42 9 42 19c0 25 -70 35 -136 51c-88 22 -182 68 -182 174c0 92 71 164 217 164c98 0 205 -32 264 -59l-70 -119
c-50 19 -133 41 -183 41c-29 0 -43 -8 -43 -20c0 -26 61 -33 133 -51z" />
    <glyph glyph-name="Scircumflex" unicode="&#x15c;" horiz-adv-x="652" 
d="M410 880l109 -143h-123l-71 67l-70 -67h-125l110 143h170zM458 411c71 -28 174 -78 174 -205c0 -122 -95 -217 -272 -217c-134 0 -269 53 -342 100l84 136c61 -35 179 -78 249 -78c43 0 78 14 78 45c0 53 -101 53 -226 100c-74 29 -170 83 -170 205c0 119 91 214 268 214
c111 0 231 -36 311 -77l-85 -138c-55 25 -153 57 -213 57c-42 0 -78 -13 -78 -44c0 -54 103 -51 222 -98z" />
    <glyph glyph-name="scircumflex" unicode="&#x15d;" horiz-adv-x="547" 
d="M359 729l110 -143h-125l-70 67l-69 -67h-125l110 143h169zM345 328c87 -22 186 -63 186 -174c0 -98 -76 -165 -224 -165c-110 0 -229 37 -291 70l70 129c57 -28 159 -60 217 -60c31 0 42 9 42 19c0 25 -70 35 -136 51c-88 22 -182 68 -182 174c0 92 71 164 217 164
c98 0 205 -32 264 -59l-70 -119c-50 19 -133 41 -183 41c-29 0 -43 -8 -43 -20c0 -26 61 -33 133 -51z" />
    <glyph glyph-name="Scedilla" unicode="&#x15e;" horiz-adv-x="653" 
d="M458 411c71 -28 174 -78 174 -205c0 -112 -80 -201 -231 -215c12 -15 31 -47 31 -84c0 -70 -57 -97 -122 -97c-29 0 -66 6 -94 23l34 86c21 -10 37 -11 47 -11c23 0 43 7 43 32c0 18 -11 38 -19 51c-121 9 -237 55 -303 98l84 136c61 -35 179 -78 249 -78
c43 0 78 14 78 45c0 53 -101 53 -226 100c-74 29 -170 83 -170 205c0 119 91 214 268 214c111 0 231 -36 311 -77l-85 -138c-55 25 -153 57 -213 57c-42 0 -78 -13 -78 -44c0 -54 103 -51 222 -98z" />
    <glyph glyph-name="scedilla" unicode="&#x15f;" horiz-adv-x="548" 
d="M345 328c87 -22 186 -63 186 -174c0 -87 -60 -149 -176 -162c12 -16 32 -48 32 -85c0 -70 -59 -97 -123 -97c-28 0 -65 6 -94 23l35 86c21 -10 35 -11 46 -11c23 0 43 7 43 32c0 18 -11 38 -18 50c-101 6 -204 39 -260 69l70 129c57 -28 159 -60 217 -60c31 0 42 9 42 19
c0 25 -70 35 -136 51c-88 22 -182 68 -182 174c0 92 71 164 217 164c98 0 205 -32 264 -59l-70 -119c-50 19 -133 41 -183 41c-29 0 -43 -8 -43 -20c0 -26 61 -33 133 -51z" />
    <glyph glyph-name="Scaron" unicode="&#x160;" horiz-adv-x="652" 
d="M520 880l-109 -143h-170l-110 143h125l69 -67l71 67h124zM458 411c71 -28 174 -78 174 -205c0 -122 -95 -217 -272 -217c-134 0 -269 53 -342 100l84 136c61 -35 179 -78 249 -78c43 0 78 14 78 45c0 53 -101 53 -226 100c-74 29 -170 83 -170 205c0 119 91 214 268 214
c111 0 231 -36 311 -77l-85 -138c-55 25 -153 57 -213 57c-42 0 -78 -13 -78 -44c0 -54 103 -51 222 -98z" />
    <glyph glyph-name="scaron" unicode="&#x161;" horiz-adv-x="547" 
d="M472 729l-110 -143h-170l-110 143h125l70 -67l70 67h125zM345 328c87 -22 186 -63 186 -174c0 -98 -76 -165 -224 -165c-110 0 -229 37 -291 70l70 129c57 -28 159 -60 217 -60c31 0 42 9 42 19c0 25 -70 35 -136 51c-88 22 -182 68 -182 174c0 92 71 164 217 164
c98 0 205 -32 264 -59l-70 -119c-50 19 -133 41 -183 41c-29 0 -43 -8 -43 -20c0 -26 61 -33 133 -51z" />
    <glyph glyph-name="Tcedilla" unicode="&#x162;" horiz-adv-x="612" 
d="M168 -167l35 86c21 -10 36 -11 47 -11c21 0 42 7 42 32s-20 53 -26 60h-55v538h-199v162h587v-162h-196v-538h-57c6 -7 38 -47 38 -93c0 -70 -57 -97 -122 -97c-28 0 -65 6 -94 23z" />
    <glyph glyph-name="tcedilla" unicode="&#x163;" horiz-adv-x="446" 
d="M19 391v134h71v132l184 20v-152h142v-134h-142v-196c0 -43 24 -46 42 -46c23 0 60 17 71 22l64 -136c-34 -16 -88 -38 -152 -44c11 -16 31 -48 31 -84c0 -70 -58 -97 -122 -97c-29 0 -66 6 -94 23l34 86c21 -10 36 -11 46 -11c23 0 43 7 43 32c0 20 -13 41 -20 53
c-88 17 -127 85 -127 203v195h-71z" />
    <glyph glyph-name="Tcaron" unicode="&#x164;" horiz-adv-x="612" 
d="M599 538h-196v-538h-192v538h-199v162h587v-162zM501 880l-110 -143h-171l-109 143h125l70 -67l70 67h125z" />
    <glyph glyph-name="tcaron" unicode="&#x165;" horiz-adv-x="446" 
d="M19 391v134h72v132l183 20v-152h142v-134h-142v-196c0 -43 24 -46 42 -46c23 0 60 17 71 22l64 -136c-39 -18 -107 -46 -186 -46c-121 0 -174 69 -174 207v195h-72zM319 677v135h129l9 -152l-105 -107l-34 42l59 82h-58z" />
    <glyph glyph-name="Tbar" unicode="&#x166;" horiz-adv-x="619" 
d="M128 202v105h88v231h-200v162h587v-162h-195v-231h86v-105h-86v-202h-192v202h-88z" />
    <glyph glyph-name="tbar" unicode="&#x167;" horiz-adv-x="446" 
d="M19 391v134h72v132l183 20v-152h142v-134h-142v-49h111v-104h-111v-43c0 -43 24 -46 42 -46c23 0 60 17 72 22l63 -136c-39 -18 -107 -46 -186 -46c-121 0 -174 69 -174 207v42h-51v104h51v49h-72z" />
    <glyph glyph-name="Utilde" unicode="&#x168;" horiz-adv-x="728" 
d="M240 740l-79 39c29 56 57 117 123 117c57 0 115 -47 148 -47c12 0 29 4 52 46l79 -39c-28 -56 -57 -117 -123 -117c-57 0 -115 47 -148 47c-12 0 -29 -4 -52 -46zM674 700v-400c0 -172 -54 -311 -310 -311s-310 139 -310 311v400h192v-418c0 -73 19 -130 118 -130
c98 0 118 57 118 130v418h192z" />
    <glyph glyph-name="utilde" unicode="&#x169;" 
d="M403 0v55c-51 -34 -116 -66 -196 -66c-113 0 -162 62 -162 168v368h185v-324c0 -41 10 -70 54 -70c41 0 88 25 119 54v340h184v-525h-184zM203 589l-78 39c29 56 57 117 123 117c56 0 115 -47 147 -47c13 0 29 4 53 46l78 -39c-28 -56 -57 -117 -123 -117
c-56 0 -115 47 -147 47c-13 0 -29 -4 -53 -46z" />
    <glyph glyph-name="Umacron" unicode="&#x16a;" horiz-adv-x="728" 
d="M674 700v-400c0 -172 -54 -311 -310 -311s-310 139 -310 311v400h192v-418c0 -73 19 -130 118 -130c98 0 118 57 118 130v418h192zM206 762v105h317v-105h-317z" />
    <glyph glyph-name="umacron" unicode="&#x16b;" 
d="M403 0v55c-51 -34 -116 -66 -196 -66c-113 0 -162 62 -162 168v368h185v-324c0 -41 10 -70 54 -70c41 0 88 25 119 54v340h184v-525h-184zM157 611v105h317v-105h-317z" />
    <glyph glyph-name="Ubreve" unicode="&#x16c;" horiz-adv-x="728" 
d="M362 737c-111 0 -177 51 -177 133h110c0 -22 26 -37 67 -37c45 0 70 15 70 37h110c0 -82 -65 -133 -180 -133zM674 700v-400c0 -172 -54 -311 -310 -311s-310 139 -310 311v400h192v-418c0 -73 19 -130 118 -130c98 0 118 57 118 130v418h192z" />
    <glyph glyph-name="ubreve" unicode="&#x16d;" 
d="M403 0v55c-51 -34 -116 -66 -196 -66c-113 0 -162 62 -162 168v368h185v-324c0 -41 10 -70 54 -70c41 0 88 25 119 54v340h184v-525h-184zM315 586c-113 0 -178 51 -178 133h110c0 -22 25 -37 68 -37s69 15 69 37h110c0 -82 -66 -133 -179 -133z" />
    <glyph glyph-name="Uring" unicode="&#x16e;" horiz-adv-x="728" 
d="M248 845c0 64 53 117 117 117c65 0 118 -53 118 -117c0 -65 -53 -118 -118 -118c-64 0 -117 53 -117 118zM332 845c0 -19 15 -34 33 -34c19 0 34 15 34 34c0 18 -15 33 -34 33c-18 0 -33 -15 -33 -33zM674 700v-400c0 -172 -54 -311 -310 -311s-310 139 -310 311v400h192
v-418c0 -73 19 -130 118 -130c98 0 118 57 118 130v418h192z" />
    <glyph glyph-name="uring" unicode="&#x16f;" 
d="M403 0v55c-51 -34 -116 -66 -196 -66c-113 0 -162 62 -162 168v368h185v-324c0 -41 10 -70 54 -70c41 0 88 25 119 54v340h184v-525h-184zM199 694c0 64 53 117 118 117c64 0 117 -53 117 -117c0 -65 -53 -118 -117 -118c-65 0 -118 53 -118 118zM283 694
c0 -19 15 -34 34 -34c18 0 33 15 33 34c0 18 -15 33 -33 33c-19 0 -34 -15 -34 -33z" />
    <glyph glyph-name="Uhungarumlaut" unicode="&#x170;" horiz-adv-x="728" 
d="M674 700v-400c0 -172 -54 -311 -310 -311s-310 139 -310 311v400h192v-418c0 -73 19 -130 118 -130c98 0 118 57 118 130v418h192zM498 737h-109l83 143h157zM305 737h-109l84 143h156z" />
    <glyph glyph-name="uhungarumlaut" unicode="&#x171;" 
d="M403 0v55c-51 -34 -116 -66 -196 -66c-113 0 -162 62 -162 168v368h185v-324c0 -41 10 -70 54 -70c41 0 88 25 119 54v340h184v-525h-184zM257 586h-108l82 143h158zM450 586h-109l83 143h157z" />
    <glyph glyph-name="Uogonek" unicode="&#x172;" horiz-adv-x="729" 
d="M385 -93c0 -38 57 -31 74 -31l-16 -77c-31 0 -172 -10 -172 91c0 42 33 74 78 100c-243 5 -295 141 -295 310v400h192v-418c0 -73 19 -130 118 -130c98 0 118 57 118 130v418h192v-400c0 -143 -38 -263 -196 -300c-37 -21 -93 -56 -93 -93z" />
    <glyph glyph-name="uogonek" unicode="&#x173;" 
d="M403 0v55c-51 -34 -116 -66 -196 -66c-113 0 -162 62 -162 168v368h185v-324c0 -41 10 -70 54 -70c41 0 88 25 119 54v340h184v-525h-4c-36 -22 -90 -56 -90 -93c0 -38 55 -31 73 -31l-17 -77c-29 0 -170 -10 -170 91c0 48 42 83 97 110h-73z" />
    <glyph glyph-name="Wcircumflex" unicode="&#x174;" horiz-adv-x="989" 
d="M603 0l-108 421l-108 -421h-186l-196 700h220l88 -429l107 429h151l106 -427l89 427h220l-196 -700h-187zM581 880l109 -143h-124l-70 67l-70 -67h-125l110 143h170z" />
    <glyph glyph-name="wcircumflex" unicode="&#x175;" horiz-adv-x="856" 
d="M519 0l-90 305l-90 -305h-172l-161 525h196l67 -323l86 323h148l86 -323l67 323h195l-161 -525h-171zM514 729l110 -143h-125l-70 67l-70 -67h-125l110 143h170z" />
    <glyph glyph-name="ycircumflex" unicode="&#x177;" horiz-adv-x="599" 
d="M2 525h198l100 -303l99 303h199l-286 -729h-197l91 205zM384 729l110 -143h-124l-70 67l-70 -67h-125l109 143h170z" />
    <glyph glyph-name="Ydieresis" unicode="&#x178;" horiz-adv-x="682" 
d="M245 0v278l-250 422h216l130 -257l130 257h216l-251 -424l1 -276h-192zM177 747v130h138v-130h-138zM368 747v130h137v-130h-137z" />
    <glyph glyph-name="Zacute" unicode="&#x179;" horiz-adv-x="653" 
d="M26 146l337 392h-315v162h567v-146l-336 -392h341v-162h-594v146zM365 737h-150l126 143h199z" />
    <glyph glyph-name="zacute" unicode="&#x17a;" horiz-adv-x="580" 
d="M548 525v-126l-257 -248h257v-151h-521v126l258 248h-248v151h511zM322 586h-151l126 143h199z" />
    <glyph glyph-name="Zdotaccent" unicode="&#x17b;" horiz-adv-x="653" 
d="M26 146l337 392h-315v162h567v-146l-336 -392h341v-162h-594v146zM263 747v130h138v-130h-138z" />
    <glyph glyph-name="zdotaccent" unicode="&#x17c;" horiz-adv-x="580" 
d="M27 0v126l258 248h-248v151h511v-126l-257 -248h257v-151h-521zM219 596v130h138v-130h-138z" />
    <glyph glyph-name="Zcaron" unicode="&#x17d;" horiz-adv-x="653" 
d="M26 146l337 392h-315v162h567v-146l-336 -392h341v-162h-594v146zM527 880l-110 -143h-171l-109 143h124l70 -67l71 67h125z" />
    <glyph glyph-name="zcaron" unicode="&#x17e;" horiz-adv-x="580" 
d="M27 0v126l258 248h-248v151h511v-126l-257 -248h257v-151h-521zM483 729l-110 -143h-170l-109 143h124l70 -67l70 67h125z" />
    <glyph glyph-name="longs" unicode="&#x17f;" horiz-adv-x="339" 
d="M15 391v134h72c1 136 54 204 174 204c77 0 153 -28 193 -46l-61 -127c-14 5 -61 19 -81 19c-18 0 -42 -3 -42 -46v-529h-183v391h-72z" />
    <glyph glyph-name="florin" unicode="&#x192;" horiz-adv-x="617" 
d="M94 391l29 134h73l1 3c30 129 74 201 218 201c80 0 165 -36 190 -46l-83 -126c-26 9 -67 24 -95 19c-21 -4 -37 -17 -45 -49l-1 -2h139l-28 -134h-142l-141 -595h-185l140 595h-70z" />
    <glyph glyph-name="AEacute" unicode="&#x1fc;" horiz-adv-x="1097" 
d="M1062 0h-531v117h-264l-74 -117h-230l471 700h622v-162h-333v-109h272v-158h-272v-109h339v-162zM621 737h-151l126 143h200zM364 271h167v263z" />
    <glyph glyph-name="aeacute" unicode="&#x1fd;" horiz-adv-x="932" 
d="M896 224h-338c8 -67 35 -100 94 -100c51 0 121 25 192 59l64 -113c-37 -20 -147 -81 -276 -81c-92 0 -171 31 -218 101c-65 -71 -132 -101 -210 -101c-114 0 -186 76 -186 175c0 104 81 167 198 167c58 0 122 -14 156 -21c1 14 4 27 7 40c-4 36 -26 48 -81 48
c-49 0 -103 -11 -189 -36l-56 125c110 35 202 49 282 49c70 0 122 -11 158 -34c41 22 91 34 150 34c177 0 263 -99 263 -235c0 -44 -10 -77 -10 -77zM496 586h-150l126 143h199zM379 171c-4 16 -7 33 -8 51c-26 6 -65 14 -93 14c-46 0 -74 -17 -74 -55c0 -35 25 -52 62 -52
c33 0 73 11 113 42zM644 407c-51 0 -76 -31 -85 -88h166c-1 56 -26 88 -81 88z" />
    <glyph glyph-name="Oslashacute" unicode="&#x1fe;" horiz-adv-x="773" 
d="M730 700l-73 -92c58 -65 84 -156 84 -258c0 -203 -102 -361 -355 -361c-77 0 -140 14 -191 40l-23 -29h-129l72 91c-58 65 -84 156 -84 259c0 203 102 361 355 361c77 0 140 -15 190 -41l24 30h130zM228 350c0 -38 4 -71 14 -100l223 280c-22 12 -48 18 -79 18
c-115 0 -158 -82 -158 -198zM386 152c115 0 158 81 158 198c0 37 -5 70 -14 99l-223 -280c21 -11 47 -17 79 -17zM420 737h-151l126 143h199z" />
    <glyph glyph-name="oslashacute" unicode="&#x1ff;" horiz-adv-x="625" 
d="M583 525l-54 -64c46 -47 71 -114 71 -199c0 -174 -102 -273 -288 -273c-61 0 -112 11 -155 31l-17 -20h-105l57 67c-45 47 -68 113 -68 196c0 174 102 273 288 273c59 0 110 -11 152 -31l17 20h102zM337 586h-150l126 143h199zM414 262c0 21 -2 39 -6 56l-148 -176
c14 -9 31 -13 52 -13c70 0 102 48 102 133zM211 263c0 -19 1 -35 4 -50l146 172c-13 7 -30 11 -49 11c-70 0 -101 -48 -101 -133z" />
    <glyph glyph-name="Scommaaccent" unicode="&#x218;" horiz-adv-x="652" 
d="M268 -188v135h130l8 -152l-106 -107l-33 42l58 82h-57zM458 411c71 -28 174 -78 174 -205c0 -122 -95 -217 -272 -217c-134 0 -269 53 -342 100l84 136c61 -35 179 -78 249 -78c43 0 78 14 78 45c0 53 -101 53 -226 100c-74 29 -170 83 -170 205c0 119 91 214 268 214
c111 0 231 -36 311 -77l-85 -138c-55 25 -153 57 -213 57c-42 0 -78 -13 -78 -44c0 -54 103 -51 222 -98z" />
    <glyph glyph-name="scommaaccent" unicode="&#x219;" horiz-adv-x="547" 
d="M204 -188v135h129l8 -152l-105 -107l-34 42l59 82h-57zM345 328c87 -22 186 -63 186 -174c0 -98 -76 -165 -224 -165c-110 0 -229 37 -291 70l70 129c57 -28 159 -60 217 -60c31 0 42 9 42 19c0 25 -70 35 -136 51c-88 22 -182 68 -182 174c0 92 71 164 217 164
c98 0 205 -32 264 -59l-70 -119c-50 19 -133 41 -183 41c-29 0 -43 -8 -43 -20c0 -26 61 -33 133 -51z" />
    <glyph glyph-name="uni021a" unicode="&#x21a;" horiz-adv-x="612" 
d="M243 -188v135h130l8 -152l-105 -107l-34 42l59 82h-58zM599 538h-196v-538h-192v538h-199v162h587v-162z" />
    <glyph glyph-name="uni021b" unicode="&#x21b;" horiz-adv-x="446" 
d="M19 391v134h72v132l183 20v-152h142v-134h-142v-196c0 -43 24 -46 42 -46c23 0 60 17 71 22l64 -136c-39 -18 -107 -46 -186 -46c-121 0 -174 69 -174 207v195h-72zM135 -188v135h130l8 -152l-106 -107l-33 42l58 82h-57z" />
    <glyph glyph-name="hsuperior" unicode="&#x2b0;" horiz-adv-x="423" 
d="M163 822v-153c32 20 72 38 122 38c71 0 102 -36 102 -102v-220h-124v190c0 22 -6 38 -31 38c-23 0 -49 -12 -69 -29v-199h-124v437h124z" />
    <glyph glyph-name="jsuperior" unicode="&#x2b2;" horiz-adv-x="202" 
d="M36 729v92h129v-92h-129zM163 700v-287c0 -95 0 -138 -158 -171l-39 87c73 24 73 33 73 74v297h124z" />
    <glyph glyph-name="wsuperior" unicode="&#x2b7;" horiz-adv-x="543" 
d="M325 385l-54 174l-54 -174h-114l-101 315h131l38 -183l51 183h98l50 -183l39 183h131l-100 -315h-115z" />
    <glyph glyph-name="ysuperior" unicode="&#x2b8;" horiz-adv-x="370" 
d="M-6 700h134l58 -168l58 168h132l-179 -437h-131l56 123z" />
    <glyph glyph-name="circumflex" unicode="&#x2c6;" horiz-adv-x="303" 
d="M236 729l110 -143h-124l-70 67l-70 -67h-125l110 143h169z" />
    <glyph glyph-name="caron" unicode="&#x2c7;" horiz-adv-x="303" 
d="M346 729l-110 -143h-169l-110 143h125l70 -67l70 67h124z" />
    <glyph glyph-name="breve" unicode="&#x2d8;" horiz-adv-x="288" 
d="M143 586c-112 0 -177 51 -177 133h110c0 -22 25 -37 67 -37c43 0 70 15 70 37h110c0 -82 -66 -133 -180 -133z" />
    <glyph glyph-name="dotaccent" unicode="&#x2d9;" horiz-adv-x="103" 
d="M-18 596v130h138v-130h-138z" />
    <glyph glyph-name="ring" unicode="&#x2da;" horiz-adv-x="214" 
d="M-11 694c0 64 53 117 118 117c64 0 117 -53 117 -117c0 -65 -53 -118 -117 -118c-65 0 -118 53 -118 118zM73 694c0 -19 15 -34 34 -34c18 0 33 15 33 34c0 18 -15 33 -33 33c-19 0 -34 -15 -34 -33z" />
    <glyph glyph-name="ogonek" unicode="&#x2db;" horiz-adv-x="173" 
d="M80 -93c0 -38 55 -31 73 -31l-16 -77c-30 0 -171 -10 -171 91c0 55 56 93 121 121l86 -10c-37 -22 -93 -57 -93 -94z" />
    <glyph glyph-name="tilde" unicode="&#x2dc;" horiz-adv-x="309" 
d="M32 589l-78 39c29 56 57 117 123 117c56 0 114 -47 147 -47c13 0 29 4 53 46l78 -39c-28 -56 -57 -117 -123 -117c-57 0 -115 47 -148 47c-12 0 -28 -4 -52 -46z" />
    <glyph glyph-name="hungarumlaut" unicode="&#x2dd;" horiz-adv-x="356" 
d="M262 586h-108l82 143h158zM70 586h-109l84 143h156z" />
    <glyph glyph-name="xsuperior" unicode="&#x2e3;" horiz-adv-x="401" 
d="M260 385l-59 91l-59 -91h-145l127 157l-120 158h140l56 -89l57 89h140l-119 -158l126 -157h-144z" />
    <glyph glyph-name="pi" unicode="&#x3c0;" horiz-adv-x="598" 
d="M580 525v-156h-80v-369h-156v369h-88v-369h-158v369h-80v156h562z" />
    <glyph glyph-name="Wgrave" unicode="&#x1e80;" horiz-adv-x="989" 
d="M603 0l-108 421l-108 -421h-186l-196 700h220l88 -429l107 429h151l106 -427l89 427h220l-196 -700h-187zM613 737h-151l-174 143h199z" />
    <glyph glyph-name="wgrave" unicode="&#x1e81;" horiz-adv-x="856" 
d="M519 0l-90 305l-90 -305h-172l-161 525h196l67 -323l86 323h148l86 -323l67 323h195l-161 -525h-171zM546 586h-150l-175 143h199z" />
    <glyph glyph-name="Wacute" unicode="&#x1e82;" horiz-adv-x="989" 
d="M603 0l-108 421l-108 -421h-186l-196 700h220l88 -429l107 429h151l106 -427l89 427h220l-196 -700h-187zM528 737h-150l127 143h199z" />
    <glyph glyph-name="wacute" unicode="&#x1e83;" horiz-adv-x="856" 
d="M519 0l-90 305l-90 -305h-172l-161 525h196l67 -323l86 323h148l86 -323l67 323h195l-161 -525h-171zM463 586h-151l126 143h200z" />
    <glyph glyph-name="Wdieresis" unicode="&#x1e84;" horiz-adv-x="989" 
d="M603 0l-108 421l-108 -421h-186l-196 700h220l88 -429l107 429h151l106 -427l89 427h220l-196 -700h-187zM331 747v130h138v-130h-138zM522 747v130h137v-130h-137z" />
    <glyph glyph-name="wdieresis" unicode="&#x1e85;" horiz-adv-x="856" 
d="M519 0l-90 305l-90 -305h-172l-161 525h196l67 -323l86 323h148l86 -323l67 323h195l-161 -525h-171zM266 596v130h138v-130h-138zM455 596v130h138v-130h-138z" />
    <glyph glyph-name="Ygrave" unicode="&#x1ef2;" horiz-adv-x="682" 
d="M245 0v278l-250 422h216l130 -257l130 257h216l-251 -424l1 -276h-192zM459 737h-150l-175 143h199z" />
    <glyph glyph-name="ygrave" unicode="&#x1ef3;" horiz-adv-x="599" 
d="M2 525h198l100 -303l99 303h199l-286 -729h-197l91 205zM417 586h-150l-175 143h198z" />
    <glyph glyph-name="endash" unicode="&#x2013;" horiz-adv-x="564" 
d="M515 212h-467v145h467v-145z" />
    <glyph glyph-name="emdash" unicode="&#x2014;" horiz-adv-x="673" 
d="M624 212h-576v145h576v-145z" />
    <glyph glyph-name="quoteleft" unicode="&#x2018;" horiz-adv-x="275" 
d="M229 543v-194h-183l-11 220l149 151l47 -60l-83 -117h81z" />
    <glyph glyph-name="quoteright" unicode="&#x2019;" horiz-adv-x="261" 
d="M41 506v194h183l11 -220l-148 -151l-48 60l84 117h-82z" />
    <glyph glyph-name="quotesinglbase" unicode="&#x201a;" horiz-adv-x="280" 
d="M47 0v194h183l11 -219l-148 -152l-48 61l84 116h-82z" />
    <glyph glyph-name="quotedblleft" unicode="&#x201c;" horiz-adv-x="527" 
d="M229 543v-194h-183l-11 220l149 151l47 -60l-83 -117h81zM481 543v-194h-184l-11 220l150 151l47 -60l-83 -117h81z" />
    <glyph glyph-name="quotedblright" unicode="&#x201d;" horiz-adv-x="513" 
d="M293 506v194h184l11 -220l-150 -151l-47 60l83 117h-81zM41 506v194h183l11 -220l-148 -151l-48 60l84 117h-82z" />
    <glyph glyph-name="quotedblbase" unicode="&#x201e;" horiz-adv-x="532" 
d="M299 0v194h184l11 -219l-150 -152l-47 61l83 116h-81zM47 0v194h183l11 -219l-148 -152l-48 61l84 116h-82z" />
    <glyph glyph-name="dagger" unicode="&#x2020;" horiz-adv-x="619" 
d="M24 358v146l217 -17v213h138v-213l216 17v-146l-216 17v-579h-138v579z" />
    <glyph glyph-name="daggerdbl" unicode="&#x2021;" horiz-adv-x="636" 
d="M32 358v146l216 -17v213h138v-213l217 17v-146l-217 17v-150l217 17v-146l-217 17v-317h-138v317l-216 -17v146l216 -17v150z" />
    <glyph glyph-name="bullet" unicode="&#x2022;" horiz-adv-x="477" 
d="M61 285c0 98 79 178 178 178c98 0 178 -80 178 -178c0 -99 -80 -177 -178 -177c-99 0 -178 78 -178 177z" />
    <glyph glyph-name="ellipsis" unicode="&#x2026;" horiz-adv-x="817" 
d="M46 0v194h185v-194h-185zM316 0v194h185v-194h-185zM586 0v194h185v-194h-185z" />
    <glyph glyph-name="perthousand" unicode="&#x2030;" horiz-adv-x="1467" 
d="M431 523c0 -114 -72 -187 -203 -187s-202 73 -202 187s71 188 202 188s203 -74 203 -188zM297 523c0 52 -25 78 -69 78s-69 -26 -69 -78s25 -77 69 -77s69 25 69 77zM993 176c0 -114 -71 -187 -202 -187c-132 0 -202 73 -202 187s70 188 202 188c131 0 202 -74 202 -188z
M860 176c0 52 -25 78 -69 78s-69 -26 -69 -78s25 -77 69 -77s69 25 69 77zM1442 176c0 -114 -72 -187 -203 -187c-130 0 -202 73 -202 187s72 188 202 188c131 0 203 -74 203 -188zM1309 176c0 52 -26 78 -70 78s-68 -26 -68 -78s24 -77 68 -77s70 25 70 77zM759 700
l-360 -700h-140l360 700h140z" />
    <glyph glyph-name="guilsinglleft" unicode="&#x2039;" horiz-adv-x="374" 
d="M23 320l304 206v-169l-149 -91l149 -91v-170l-304 206v109z" />
    <glyph glyph-name="guilsinglright" unicode="&#x203a;" horiz-adv-x="374" 
d="M351 320v-109l-304 -206v171l147 90l-147 91v168z" />
    <glyph glyph-name="fraction" unicode="&#x2044;" horiz-adv-x="220" 
d="M342 700l-327 -700h-137l326 700h138z" />
    <glyph glyph-name="zerosuperior" unicode="&#x2070;" horiz-adv-x="452" 
d="M226 812c131 0 199 -82 199 -217c0 -136 -69 -217 -200 -217c-130 0 -198 81 -198 217c0 135 69 217 199 217zM225 476c43 0 71 25 71 119c0 93 -27 119 -70 119s-71 -26 -71 -119c0 -94 27 -119 70 -119z" />
    <glyph glyph-name="foursuperior" unicode="&#x2074;" horiz-adv-x="462" 
d="M14 454v87l191 264h171v-246h66v-105h-66v-69h-128v69h-234zM146 559h102v146z" />
    <glyph glyph-name="fivesuperior" unicode="&#x2075;" horiz-adv-x="414" 
d="M40 590l24 215h306v-105h-198l-2 -39c17 4 35 6 55 6c112 0 163 -68 163 -141c0 -77 -55 -148 -177 -148c-91 0 -162 41 -193 60l56 92c23 -16 69 -43 119 -43c38 0 65 12 65 38c0 20 -19 41 -66 41c-30 0 -56 -9 -81 -21z" />
    <glyph glyph-name="sixsuperior" unicode="&#x2076;" horiz-adv-x="426" 
d="M306 710c-52 0 -108 -17 -135 -75c19 11 49 23 90 23c82 0 144 -50 144 -130c0 -81 -68 -150 -183 -150c-138 0 -197 88 -197 184c0 144 112 250 280 250c43 0 72 -7 72 -7l-29 -99s-19 4 -42 4zM218 565c-32 0 -54 -13 -65 -23c2 -53 39 -62 65 -62c44 0 59 24 59 42
c0 26 -23 43 -59 43z" />
    <glyph glyph-name="sevensuperior" unicode="&#x2077;" horiz-adv-x="359" 
d="M348 706c0 0 -157 -176 -157 -321h-132c0 138 135 295 152 315h-194v105h331v-99z" />
    <glyph glyph-name="eightsuperior" unicode="&#x2078;" horiz-adv-x="438" 
d="M22 502c0 59 42 91 91 113c-42 26 -63 56 -63 92c0 60 58 105 169 105c110 0 168 -45 168 -105c0 -36 -22 -66 -63 -92c48 -22 91 -54 91 -113c0 -75 -69 -124 -196 -124c-129 0 -197 49 -197 124zM285 513c0 24 -30 40 -67 55c-37 -15 -67 -31 -67 -55
c0 -22 27 -40 68 -40c40 0 66 18 66 40zM175 694c0 -18 20 -30 43 -39c24 9 44 21 44 39c0 10 -14 26 -43 26c-31 0 -44 -16 -44 -26z" />
    <glyph glyph-name="ninesuperior" unicode="&#x2079;" horiz-adv-x="426" 
d="M119 480c52 0 107 17 135 74c-19 -11 -50 -22 -90 -22c-81 0 -143 50 -143 130c0 81 67 150 182 150c138 0 197 -89 197 -185c0 -143 -111 -249 -280 -249c-43 0 -71 7 -71 7l29 99s18 -4 41 -4zM207 625c31 0 54 12 65 22c-2 53 -40 63 -66 63c-43 0 -58 -24 -58 -43
c0 -26 23 -42 59 -42z" />
    <glyph glyph-name="plussuperior" unicode="&#x207a;" horiz-adv-x="372" 
d="M141 732h92v-101h119v-91h-119v-102h-92v102h-120v91h120v101z" />
    <glyph glyph-name="parenleftsuperior" unicode="&#x207d;" horiz-adv-x="244" 
d="M39 470v248c0 94 0 137 160 170l30 -65c-59 -20 -62 -34 -62 -70v-318c0 -36 3 -51 62 -70l-30 -66c-160 33 -160 76 -160 171z" />
    <glyph glyph-name="parenrightsuperior" unicode="&#x207e;" horiz-adv-x="244" 
d="M205 718v-248c0 -95 -1 -138 -159 -171l-31 66c59 19 62 34 62 70v318c0 36 -3 50 -62 70l31 65c158 -33 159 -76 159 -170z" />
    <glyph glyph-name="nsuperior" unicode="&#x207f;" horiz-adv-x="423" 
d="M163 700v-31c32 20 72 38 122 38c71 0 102 -36 102 -102v-220h-124v190c0 22 -6 38 -31 38c-23 0 -49 -12 -69 -29v-199h-124v315h124z" />
    <glyph glyph-name="zeroinferior" unicode="&#x2080;" horiz-adv-x="452" 
d="M226 277c131 0 199 -82 199 -217c0 -136 -69 -217 -200 -217c-130 0 -198 81 -198 217c0 135 69 217 199 217zM225 -59c43 0 71 25 71 119c0 93 -27 119 -70 119s-71 -26 -71 -119c0 -94 27 -119 70 -119z" />
    <glyph glyph-name="oneinferior" unicode="&#x2081;" horiz-adv-x="303" 
d="M252 -150h-128v304l-75 -37l-50 82l130 71h123v-420z" />
    <glyph glyph-name="twoinferior" unicode="&#x2082;" horiz-adv-x="416" 
d="M385 -45v-105h-364v49c0 83 71 139 136 177c55 31 98 46 98 70c0 13 -15 26 -48 26c-42 0 -91 -26 -118 -40l-56 81c30 19 100 64 194 64c108 0 158 -59 158 -124c0 -85 -79 -125 -138 -153c-34 -15 -68 -34 -68 -45h206z" />
    <glyph glyph-name="threeinferior" unicode="&#x2083;" horiz-adv-x="412" 
d="M10 -96l56 85c66 -35 106 -40 134 -40c37 0 57 10 57 30c0 39 -70 37 -111 37h-21v105h24c32 0 91 -1 91 30c0 13 -12 21 -41 21c-40 0 -90 -21 -118 -36l-51 79c21 16 90 62 191 62c104 0 147 -49 147 -105c0 -47 -30 -74 -66 -90c49 -16 85 -57 85 -105
c0 -65 -40 -134 -170 -134c-102 0 -179 45 -207 61z" />
    <glyph glyph-name="fourinferior" unicode="&#x2084;" horiz-adv-x="463" 
d="M15 -81v87l191 264h171v-246h66v-105h-66v-69h-128v69h-234zM147 24h102v146z" />
    <glyph glyph-name="fiveinferior" unicode="&#x2085;" horiz-adv-x="414" 
d="M40 55l24 215h306v-105h-198l-2 -39c17 4 35 6 55 6c112 0 163 -68 163 -141c0 -77 -55 -148 -177 -148c-91 0 -162 41 -193 60l56 92c23 -16 69 -43 119 -43c38 0 65 12 65 38c0 20 -19 41 -66 41c-30 0 -56 -9 -81 -21z" />
    <glyph glyph-name="sixinferior" unicode="&#x2086;" horiz-adv-x="426" 
d="M306 175c-52 0 -108 -17 -135 -75c19 11 49 23 90 23c82 0 144 -50 144 -130c0 -81 -68 -150 -183 -150c-138 0 -197 88 -197 184c0 144 112 250 280 250c43 0 72 -7 72 -7l-29 -99s-19 4 -42 4zM218 30c-32 0 -54 -13 -65 -23c2 -52 39 -62 65 -62c44 0 59 24 59 42
c0 26 -23 43 -59 43z" />
    <glyph glyph-name="seveninferior" unicode="&#x2087;" horiz-adv-x="359" 
d="M348 171c0 0 -157 -176 -157 -321h-132c0 139 135 295 152 315h-194v105h331v-99z" />
    <glyph glyph-name="eightinferior" unicode="&#x2088;" horiz-adv-x="438" 
d="M22 -33c0 59 42 91 91 113c-42 26 -63 56 -63 92c0 60 58 105 169 105c110 0 168 -45 168 -105c0 -36 -22 -66 -63 -92c48 -22 91 -54 91 -113c0 -75 -69 -124 -196 -124c-129 0 -197 49 -197 124zM285 -22c0 24 -30 40 -67 55c-37 -15 -67 -31 -67 -55
c0 -22 27 -40 68 -40c40 0 66 18 66 40zM175 159c0 -18 20 -30 43 -39c24 9 44 21 44 39c0 10 -14 26 -43 26c-31 0 -44 -16 -44 -26z" />
    <glyph glyph-name="nineinferior" unicode="&#x2089;" horiz-adv-x="425" 
d="M118 -55c52 0 107 17 135 74c-19 -11 -50 -22 -90 -22c-81 0 -143 50 -143 130c0 81 67 150 182 150c138 0 197 -89 197 -185c0 -143 -111 -249 -280 -249c-43 0 -71 7 -71 7l29 99s18 -4 41 -4zM206 90c31 0 54 12 65 22c-2 53 -40 63 -66 63c-43 0 -58 -24 -58 -43
c0 -26 23 -42 59 -42z" />
    <glyph glyph-name="parenleftinferior" unicode="&#x208d;" horiz-adv-x="244" 
d="M39 -65v248c0 94 0 137 160 170l30 -65c-59 -20 -62 -34 -62 -70v-318c0 -36 3 -51 62 -70l-30 -66c-160 33 -160 76 -160 171z" />
    <glyph glyph-name="parenrightinferior" unicode="&#x208e;" horiz-adv-x="244" 
d="M205 183v-248c0 -95 -1 -138 -159 -171l-31 66c59 19 62 34 62 70v318c0 36 -3 50 -62 70l31 65c158 -33 159 -76 159 -170z" />
    <glyph glyph-name="colonmonetary" unicode="&#x20a1;" horiz-adv-x="571" 
d="M234 0h-74l22 97c-82 34 -143 116 -143 254c0 192 118 273 246 273c6 0 13 0 19 -1l18 77h74l-20 -86l23 -5l21 91h75l-26 -113c28 -10 52 -20 71 -28l-72 -136c-43 18 -104 44 -151 44c-60 0 -90 -47 -90 -116s30 -117 90 -117c47 0 108 25 151 44l72 -136
c-42 -19 -113 -48 -188 -60l-19 -82h-75l18 77c-8 0 -16 1 -24 2z" />
    <glyph glyph-name="lira" unicode="&#x20a4;" horiz-adv-x="597" 
d="M54 334v86h40c-16 32 -29 68 -29 113c0 112 80 178 220 178c127 0 220 -57 281 -93l-83 -122c-57 33 -113 57 -159 57c-45 0 -66 -20 -66 -51c0 -28 15 -53 33 -82h198v-86h-155c3 -12 5 -24 7 -37h148v-85h-162c-12 -26 -30 -44 -46 -54h274v-158h-512v128s80 19 108 84
h-97v85h102c-4 13 -9 25 -15 37h-87z" />
    <glyph glyph-name="peseta" unicode="&#x20a7;" horiz-adv-x="733" 
d="M48 430v70h27v200h314c185 0 277 -71 291 -200h28v-70h-28c-14 -128 -107 -198 -291 -198h-122v-232h-192v430h-27zM376 388c49 0 88 8 104 42h-213v-42h109zM267 542v-42h213c-16 33 -55 42 -104 42h-109z" />
    <glyph glyph-name="uni20A9" unicode="&#x20a9;" horiz-adv-x="1066" 
d="M641 0l-108 421l-108 -421h-186l-68 240h-134v104h105l-18 65h-88v105h59l-52 186h220l38 -186h110l47 186h150l46 -186h111l38 186h221l-52 -186h57v-105h-87l-18 -65h105v-104h-134l-67 -240h-187zM743 409h-63l35 -139zM385 409h-62l28 -135z" />
    <glyph glyph-name="Euro" unicode="&#x20ac;" horiz-adv-x="736" 
d="M31 369v93h69c32 168 142 249 288 249c117 0 218 -46 317 -100l-88 -141c-78 41 -145 69 -204 69c-51 0 -87 -29 -107 -77h193v-93h-212v-43h212v-93h-191c20 -46 55 -72 105 -72c59 0 126 28 204 69l88 -141c-99 -54 -200 -100 -317 -100c-144 0 -253 79 -287 244h-70
v93h59v43h-59z" />
    <glyph glyph-name="uni2116" unicode="&#x2116;" horiz-adv-x="1235" 
d="M506 0l-247 409v-409h-192v700h194l247 -410v410h192v-700h-194zM1204 480c0 -135 -82 -211 -229 -211s-229 76 -229 211c0 134 82 211 229 211s229 -77 229 -211zM792 128v104h368v-104h-368zM1042 480c0 58 -19 87 -67 87s-67 -29 -67 -87s19 -87 67 -87s67 29 67 87z
" />
    <glyph glyph-name="uni2117" unicode="&#x2117;" horiz-adv-x="780" 
d="M567 432c0 -95 -61 -129 -146 -129h-90v-164h-50v421h140c85 0 146 -33 146 -128zM517 432c0 65 -42 86 -95 86h-91v-172h91c53 0 95 21 95 86zM34 350c0 202 128 361 357 361s356 -159 356 -361s-127 -361 -356 -361s-357 159 -357 361zM74 350
c0 -182 112 -323 316 -323c205 0 318 141 318 323s-113 323 -318 323c-204 0 -316 -141 -316 -323z" />
    <glyph glyph-name="servicemark" unicode="&#x2120;" horiz-adv-x="625" 
d="M507 476v126l-50 -89h-42l-51 91v-128h-67v224h70l68 -119l69 119h71v-224h-68zM197 609c28 -8 71 -24 71 -66c0 -39 -39 -71 -104 -71c-51 0 -101 19 -130 34l30 45c24 -11 69 -24 101 -24c17 0 34 3 34 12c0 14 -43 12 -92 28c-27 8 -67 24 -67 66c0 39 34 71 99 71
c47 0 90 -17 119 -30l-31 -45c-23 9 -56 20 -86 20c-17 0 -32 -3 -32 -12c0 -14 37 -12 88 -28z" />
    <glyph glyph-name="trademark" unicode="&#x2122;" horiz-adv-x="627" 
d="M504 476v126l-50 -89h-41l-52 92v-129h-67v224h71l68 -120l68 120h71v-224h-68zM269 644h-77v-168h-68v168h-75v56h220v-56z" />
    <glyph glyph-name="Omega" unicode="&#x2126;" horiz-adv-x="783" 
d="M392 711c237 0 354 -157 354 -332c0 -112 -54 -198 -115 -221h94v-158h-304v164c96 19 131 106 131 191c0 112 -45 193 -160 193s-160 -81 -160 -192c0 -89 37 -171 131 -192v-164h-304v158h93c-60 23 -114 109 -114 221c0 175 117 332 354 332z" />
    <glyph glyph-name="onethird" unicode="&#x2153;" horiz-adv-x="935" 
d="M272 280h-128v304l-75 -37l-50 82l131 71h122v-420zM654 700l-326 -700h-138l327 700h137zM521 54l55 85c66 -35 107 -40 135 -40c36 0 58 10 58 30c0 39 -72 37 -113 37h-19v105h23c33 0 90 -1 90 30c0 13 -11 21 -39 21c-41 0 -91 -21 -118 -36l-53 79
c23 16 91 62 192 62c104 0 147 -48 147 -105c0 -47 -29 -74 -66 -90c49 -16 86 -57 86 -105c0 -65 -41 -134 -172 -134c-102 0 -178 45 -206 61z" />
    <glyph glyph-name="twothirds" unicode="&#x2154;" horiz-adv-x="1048" 
d="M396 385v-105h-363v49c0 83 71 139 136 177c54 31 97 46 97 70c0 13 -15 26 -47 26c-43 0 -92 -26 -118 -40l-56 81c29 19 100 64 193 64c109 0 158 -59 158 -124c0 -85 -79 -125 -138 -153c-34 -15 -67 -34 -67 -45h205zM775 700l-327 -700h-137l326 700h138zM641 54
l56 85c66 -35 107 -40 134 -40c37 0 58 10 58 30c0 39 -71 37 -112 37h-19v105h23c33 0 90 -1 90 30c0 13 -11 21 -40 21c-40 0 -91 -21 -118 -36l-52 79c23 16 90 62 191 62c104 0 147 -48 147 -105c0 -47 -29 -74 -66 -90c49 -16 87 -57 87 -105c0 -65 -42 -134 -172 -134
c-102 0 -179 45 -207 61z" />
    <glyph glyph-name="oneeighth" unicode="&#x215b;" horiz-adv-x="942" 
d="M515 117c0 59 43 91 91 113c-41 26 -62 55 -62 92c0 60 57 105 168 105s168 -45 168 -105c0 -36 -22 -66 -63 -92c48 -22 91 -54 91 -113c0 -75 -68 -124 -196 -124c-129 0 -197 49 -197 124zM654 700l-326 -700h-138l327 700h137zM272 280h-128v304l-75 -37l-50 82
l131 71h122v-420zM778 128c0 24 -29 40 -67 55c-37 -15 -66 -31 -66 -55c0 -22 26 -40 67 -40s66 18 66 40zM669 309c0 -18 19 -30 43 -39c23 9 43 21 43 39c0 10 -13 26 -43 26c-31 0 -43 -16 -43 -26z" />
    <glyph glyph-name="threeeighths" unicode="&#x215c;" horiz-adv-x="1023" 
d="M602 117c0 59 42 91 91 113c-42 26 -63 56 -63 92c0 60 58 105 168 105c111 0 168 -45 168 -105c0 -37 -21 -66 -63 -92c49 -22 92 -54 92 -113c0 -75 -69 -124 -197 -124s-196 49 -196 124zM24 334l56 85c65 -35 105 -40 134 -40c37 0 57 10 57 30c0 39 -71 37 -112 37
h-20v105h23c33 0 92 -1 92 30c0 13 -12 21 -41 21c-40 0 -90 -21 -118 -36l-51 79c21 16 90 62 190 62c105 0 148 -48 148 -105c0 -47 -30 -74 -66 -90c49 -16 85 -57 85 -105c0 -65 -40 -134 -171 -134c-101 0 -178 45 -206 61zM741 700l-326 -700h-138l326 700h138z
M865 128c0 24 -29 40 -67 55c-38 -16 -67 -31 -67 -55c0 -22 26 -40 67 -40c42 0 67 18 67 40zM755 309c0 -18 19 -30 43 -39c23 9 43 21 43 39c0 10 -12 26 -43 26c-30 0 -43 -16 -43 -26z" />
    <glyph glyph-name="fiveeighths" unicode="&#x215d;" horiz-adv-x="1010" 
d="M589 117c0 59 42 91 91 113c-42 26 -63 56 -63 92c0 60 58 105 169 105c110 0 168 -45 168 -105c0 -36 -22 -66 -63 -92c48 -22 91 -54 91 -113c0 -75 -68 -124 -196 -124s-197 49 -197 124zM49 485l24 215h306v-105h-198l-2 -39c17 4 35 6 55 6c112 0 163 -68 163 -141
c0 -77 -55 -148 -177 -148c-91 0 -162 41 -193 60l56 92c23 -16 69 -43 119 -43c38 0 65 12 65 38c0 20 -19 41 -66 41c-30 0 -56 -9 -81 -21zM729 700l-327 -700h-137l326 700h138zM853 128c0 24 -30 40 -68 55c-37 -15 -66 -31 -66 -55c0 -22 26 -40 67 -40
c40 0 67 18 67 40zM742 309c0 -18 20 -30 43 -39c24 9 44 21 44 39c0 10 -13 26 -43 26s-44 -16 -44 -26z" />
    <glyph glyph-name="seveneighths" unicode="&#x215e;" horiz-adv-x="917" 
d="M498 117c0 59 42 91 91 113c-42 26 -63 56 -63 92c0 60 58 105 168 105c111 0 168 -45 168 -105c0 -37 -21 -66 -63 -92c49 -22 92 -54 92 -113c0 -75 -68 -124 -197 -124c-128 0 -196 49 -196 124zM637 700l-326 -700h-138l327 700h137zM359 601
c0 0 -157 -176 -157 -321h-132c0 138 135 295 152 315h-194v105h331v-99zM761 128c0 24 -29 40 -67 55c-37 -15 -66 -31 -66 -55c0 -22 25 -40 66 -40c42 0 67 18 67 40zM651 309c0 -18 19 -30 43 -39c23 9 43 21 43 39c0 10 -12 26 -43 26c-30 0 -43 -16 -43 -26z" />
    <glyph glyph-name="partialdiff" unicode="&#x2202;" horiz-adv-x="657" 
d="M432 413c-26 88 -114 143 -245 143c-51 0 -86 -8 -86 -8l-20 141s41 11 111 11c285 0 428 -186 428 -404c0 -192 -112 -307 -304 -307c-179 0 -286 95 -286 244c0 147 105 243 241 243c114 0 161 -63 161 -63zM436 232c0 50 -23 104 -107 104s-107 -55 -107 -104
s23 -103 107 -103c83 0 107 53 107 103z" />
    <glyph glyph-name="Delta" unicode="&#x2206;" horiz-adv-x="768" 
d="M749 0h-730l264 700h200zM525 158l-141 359l-143 -359h284z" />
    <glyph glyph-name="product" unicode="&#x220f;" horiz-adv-x="745" 
d="M719 700v-158h-88v-542h-192v542h-133v-542h-192v542h-87v158h692z" />
    <glyph glyph-name="summation" unicode="&#x2211;" horiz-adv-x="619" 
d="M31 700h545v-158h-258l193 -192l-193 -192h258v-158h-545v78l261 272l-261 273v77z" />
    <glyph glyph-name="minus" unicode="&#x2212;" horiz-adv-x="652" 
d="M64 265v137h523v-137h-523z" />
    <glyph glyph-name="radical" unicode="&#x221a;" horiz-adv-x="671" 
d="M683 700l-291 -700h-221l-174 340h196l84 -177l214 537h192z" />
    <glyph glyph-name="infinity" unicode="&#x221e;" horiz-adv-x="913" 
d="M233 443c91 0 156 -48 225 -110c68 62 131 110 222 110c120 0 193 -77 193 -185s-73 -185 -193 -185c-89 0 -150 47 -222 111c-72 -64 -135 -111 -225 -111c-120 0 -193 78 -193 185s73 185 193 185zM660 325c-40 0 -70 -21 -122 -68c48 -44 79 -66 122 -66
c42 0 80 22 80 67s-38 67 -80 67zM253 191c42 0 74 23 122 66c-52 46 -81 68 -122 68c-43 0 -79 -22 -79 -67s37 -67 79 -67z" />
    <glyph glyph-name="integral" unicode="&#x222b;" horiz-adv-x="398" 
d="M103 93v522c0 173 75 224 274 224h17v-100h-20c-78 0 -79 -78 -79 -136v-522c0 -174 -75 -224 -274 -224h-17v100h20c78 0 79 78 79 136z" />
    <glyph glyph-name="approxequal" unicode="&#x2248;" horiz-adv-x="652" 
d="M153 358l-87 35c33 80 80 143 162 143c84 0 134 -62 200 -62c25 0 46 8 74 55l87 -35c-34 -81 -81 -143 -163 -143c-78 0 -136 62 -201 62c-25 0 -44 -8 -72 -55zM153 165l-87 35c33 80 80 143 162 143c84 0 134 -62 200 -62c25 0 46 7 74 54l87 -34
c-34 -81 -81 -143 -163 -143c-78 0 -136 62 -201 62c-25 0 -44 -8 -72 -55z" />
    <glyph glyph-name="notequal" unicode="&#x2260;" horiz-adv-x="652" 
d="M64 364v137h263l55 130l115 -43l-37 -87h127v-137h-184l-25 -59h209v-137h-267l-54 -130l-114 43l36 87h-124v137h182l24 59h-206z" />
    <glyph glyph-name="lessequal" unicode="&#x2264;" horiz-adv-x="652" 
d="M580 440l-267 -76l267 -77v-150l-522 175v106l522 175v-153zM58 0v116h522v-116h-522z" />
    <glyph glyph-name="greaterequal" unicode="&#x2265;" horiz-adv-x="652" 
d="M594 418v-106l-522 -175v150l266 77l-266 76v153zM594 116v-116h-522v116h522z" />
    <glyph glyph-name="uni2318" unicode="&#x2318;" horiz-adv-x="755" 
d="M559 40c-84 0 -153 65 -153 144v46h-58v-46c0 -79 -69 -144 -154 -144s-154 65 -154 144c0 80 69 144 154 144h54v47h-54c-85 0 -154 65 -154 144c0 80 69 144 154 144s154 -64 154 -144v-46h58v46c0 80 69 144 153 144c86 0 154 -64 154 -144c0 -79 -68 -144 -154 -144
h-53v-47h53c86 0 154 -64 154 -144c0 -79 -68 -144 -154 -144zM559 230h-53v-46c0 -26 23 -46 53 -46c29 0 54 20 54 46c0 25 -25 46 -54 46zM248 230h-54c-31 0 -54 -21 -54 -46c0 -26 23 -46 54 -46c29 0 54 20 54 46v46zM348 375v-47h58v47h-58zM506 519v-46h53
c29 0 54 20 54 46c0 25 -25 46 -54 46c-30 0 -53 -21 -53 -46zM194 473h54v46c0 25 -25 46 -54 46c-31 0 -54 -21 -54 -46c0 -26 23 -46 54 -46z" />
    <glyph glyph-name="lozenge" unicode="&#x25ca;" horiz-adv-x="602" 
d="M393 0h-186l-185 350l185 350h186l187 -350zM406 350l-106 196l-106 -196l106 -197z" />
    <glyph glyph-name="commaaccent" unicode="&#xf6c3;" horiz-adv-x="150" 
d="M5 -188v135h130l7 -152l-105 -107l-34 42l59 82h-57z" />
    <glyph glyph-name="centinferior" unicode="&#xf6df;" horiz-adv-x="364" 
d="M258 -150h-87v47c-78 4 -147 52 -147 163c0 112 69 160 147 163v47h87v-56c35 -8 65 -19 86 -28l-48 -90c-27 11 -66 24 -93 24c-37 0 -53 -25 -53 -60s16 -60 53 -60c27 0 66 13 93 24l48 -91c-21 -8 -52 -19 -86 -27v-56z" />
    <glyph glyph-name="centsuperior" unicode="&#xf6e0;" horiz-adv-x="365" 
d="M259 385h-87v46c-78 4 -147 53 -147 164c0 112 69 160 147 163v47h87v-56c35 -8 65 -19 86 -28l-48 -90c-27 11 -66 24 -93 24c-37 0 -53 -25 -53 -60s16 -60 53 -60c27 0 66 13 93 24l48 -91c-21 -8 -52 -20 -86 -28v-55z" />
    <glyph glyph-name="commainferior" unicode="&#xf6e1;" horiz-adv-x="202" 
d="M38 -150v125h123l7 -142l-98 -94l-32 40l55 71h-55z" />
    <glyph glyph-name="commasuperior" unicode="&#xf6e2;" horiz-adv-x="203" 
d="M39 385v125h123l7 -142l-98 -94l-32 40l55 71h-55z" />
    <glyph glyph-name="dollarinferior" unicode="&#xf6e3;" horiz-adv-x="423" 
d="M258 -210h-87v59c-64 10 -122 34 -157 56l57 90c38 -20 113 -47 157 -47c24 0 44 6 44 19c0 28 -64 25 -144 54c-46 18 -104 51 -104 123c0 66 48 124 147 132v55h87v-59c51 -8 101 -26 138 -43l-57 -91c-35 14 -97 34 -135 34c-24 0 -45 -5 -45 -19
c0 -29 66 -25 142 -55c43 -17 106 -46 106 -122c0 -68 -51 -124 -149 -132v-54z" />
    <glyph glyph-name="dollarsuperior" unicode="&#xf6e4;" horiz-adv-x="423" 
d="M258 325h-87v58c-64 11 -122 35 -157 57l57 90c38 -20 113 -47 157 -47c24 0 44 6 44 19c0 28 -64 25 -144 54c-46 18 -104 51 -104 123c0 66 48 124 147 132v55h87v-59c51 -8 101 -26 138 -43l-57 -91c-35 14 -97 34 -135 34c-24 0 -45 -5 -45 -19c0 -29 66 -25 142 -55
c43 -17 106 -46 106 -122c0 -68 -51 -125 -149 -132v-54z" />
    <glyph glyph-name="periodinferior" unicode="&#xf6e7;" horiz-adv-x="199" 
d="M38 -150v125h122v-125h-122z" />
    <glyph glyph-name="periodsuperior" unicode="&#xf6e8;" horiz-adv-x="199" 
d="M38 385v125h122v-125h-122z" />
    <glyph glyph-name="asuperior" unicode="&#xf6e9;" horiz-adv-x="404" 
d="M244 385v32c-26 -21 -62 -39 -110 -39c-74 0 -118 49 -118 106c0 61 50 101 127 101c37 0 80 -9 101 -13v12c0 25 -14 31 -49 31c-31 0 -65 -5 -120 -20l-37 82c71 21 130 30 181 30c107 0 149 -37 149 -132v-190h-124zM177 471c17 0 42 3 67 21v22c-16 3 -42 8 -60 8
c-26 0 -43 -6 -43 -26c0 -16 14 -25 36 -25z" />
    <glyph glyph-name="bsuperior" unicode="&#xf6ea;" horiz-adv-x="419" 
d="M39 385v437h124v-151c30 22 58 36 105 36c81 0 131 -59 131 -165c0 -104 -50 -164 -131 -164c-47 0 -75 14 -105 35v-28h-124zM228 609c-20 0 -43 -7 -65 -30v-74c22 -23 45 -29 65 -29c31 0 47 21 47 67c0 45 -16 66 -47 66z" />
    <glyph glyph-name="dsuperior" unicode="&#xf6eb;" horiz-adv-x="419" 
d="M380 385h-124v28c-29 -21 -59 -35 -105 -35c-80 0 -131 60 -131 164c0 106 51 165 131 165c46 0 76 -15 105 -36v151h124v-437zM193 476c19 0 41 6 63 29v74c-22 23 -44 30 -63 30c-31 0 -48 -21 -48 -66c0 -46 17 -67 48 -67z" />
    <glyph glyph-name="esuperior" unicode="&#xf6ec;" horiz-adv-x="383" 
d="M356 518h-210c5 -35 20 -50 54 -50c32 0 74 12 121 34l43 -75c-23 -12 -95 -49 -177 -49c-94 0 -168 48 -168 163c0 103 62 166 175 166c114 0 168 -61 168 -142c0 -27 -6 -47 -6 -47zM194 622c-28 0 -42 -15 -48 -43h96c-2 26 -16 43 -48 43z" />
    <glyph glyph-name="isuperior" unicode="&#xf6ed;" horiz-adv-x="202" 
d="M163 385h-124v315h124v-315zM37 729v92h128v-92h-128z" />
    <glyph glyph-name="lsuperior" unicode="&#xf6ee;" horiz-adv-x="202" 
d="M163 385h-124v437h124v-437z" />
    <glyph glyph-name="msuperior" unicode="&#xf6ef;" horiz-adv-x="616" 
d="M163 700v-34c23 19 63 41 107 41c49 0 78 -17 92 -49c23 21 67 49 116 49c71 0 102 -36 102 -102v-220h-124v190c0 22 -2 38 -27 38c-20 0 -43 -14 -57 -28v-200h-124v190c0 22 -3 38 -28 38c-21 0 -43 -15 -57 -29v-199h-124v315h124z" />
    <glyph glyph-name="osuperior" unicode="&#xf6f0;" horiz-adv-x="405" 
d="M386 542c0 -105 -65 -164 -183 -164s-184 60 -184 165c0 104 65 164 184 164c118 0 183 -60 183 -165zM262 542c0 46 -18 72 -59 72s-60 -25 -60 -71s19 -72 60 -72s59 25 59 71z" />
    <glyph glyph-name="rsuperior" unicode="&#xf6f1;" horiz-adv-x="295" 
d="M163 700v-65c9 22 41 74 122 69v-116c-110 0 -122 -101 -122 -101v-102h-124v315h124z" />
    <glyph glyph-name="ssuperior" unicode="&#xf6f2;" horiz-adv-x="362" 
d="M229 586c53 -13 116 -38 116 -107c0 -58 -47 -101 -144 -101c-69 0 -146 23 -186 43l43 78c36 -16 101 -36 135 -36c24 0 28 8 28 10c0 14 -37 15 -83 26c-55 13 -117 41 -117 106c0 56 45 102 140 102c64 0 132 -21 170 -36l-43 -72c-30 10 -83 24 -114 24
c-21 0 -29 -5 -29 -11c0 -14 38 -16 84 -26z" />
    <glyph glyph-name="tsuperior" unicode="&#xf6f3;" horiz-adv-x="299" 
d="M12 611v89h44v79l125 12v-91h87v-89h-87v-99c0 -26 13 -27 24 -27c14 0 36 10 43 12l42 -90c-25 -11 -69 -29 -120 -29c-80 0 -114 46 -114 133v100h-44z" />
    <glyph glyph-name="apple" unicode="&#xf8ff;" horiz-adv-x="857" 
d="M745 327c-13 -5 -13 -16 -3 -23l28 -20c11 -7 10 -15 -3 -18l-34 -6c-14 -2 -16 -12 -7 -22l24 -24c8 -9 6 -17 -8 -17l-35 2c-13 0 -18 -9 -10 -20l18 -30c7 -11 2 -17 -11 -15l-34 9c-12 4 -19 -5 -15 -17l11 -33c5 -12 -1 -18 -13 -12l-31 15c-11 6 -20 0 -19 -14
l5 -33c1 -14 -5 -17 -15 -9l-28 21c-10 8 -20 3 -21 -10l-2 -34c-1 -13 -9 -15 -17 -6l-23 27c-9 9 -18 8 -22 -5l-10 -33c-3 -13 -12 -13 -18 -2l-17 30c-6 12 -15 12 -23 0l-15 -30c-6 -11 -15 -11 -18 2l-10 33c-4 13 -13 14 -22 5l-23 -27c-8 -9 -15 -7 -17 6l-2 34
c-1 13 -11 18 -22 10l-26 -21c-11 -8 -19 -5 -16 9l5 33c1 14 -8 20 -20 14l-30 -15c-12 -6 -18 0 -13 12l11 33c5 12 -3 21 -15 17l-34 -9c-13 -2 -18 4 -11 15l19 30c7 11 2 20 -11 20l-35 -2c-14 0 -16 8 -8 17l25 24c8 10 6 20 -8 22l-33 6c-14 3 -15 11 -4 18l28 20
c3 2 5 5 6 6c6 5 13 2 18 -6l16 -31c6 -12 14 -10 18 2l9 34c4 12 14 14 22 4l23 -26c9 -10 16 -7 17 6l2 34c2 13 11 17 21 9l28 -21c11 -8 18 -4 15 9l-4 34c-2 13 7 19 18 13l31 -14c12 -6 18 0 14 12l-11 33c-5 12 2 20 14 16l7 -1c26 -50 49 -145 49 -205
c-8 -10 -17 -18 -46 -18h-4c0 14 -5 26 -16 35c7 -8 9 -17 9 -27v-7c-11 1 -16 8 -16 19c0 27 -18 49 -51 49c-27 0 -47 -23 -47 -54c0 -38 33 -65 92 -65c144 0 278 190 278 319c0 38 -26 67 -64 67c-30 0 -60 -24 -60 -58s21 -54 58 -58c-8 -32 -15 -60 -29 -85
c-8 62 -29 119 -58 150c29 -38 47 -97 52 -161l-14 -20c0 100 -36 197 -89 224c-3 6 2 13 12 15l34 6c12 2 14 10 3 17l-29 19c-10 9 -9 18 3 23l31 14c14 4 14 13 0 18l-31 13c-9 4 -11 8 -10 14c4 2 6 4 7 8l17 30c6 12 15 11 18 -1l10 -33c4 -13 13 -16 22 -5l23 26
c8 10 16 8 17 -5l2 -35c1 -14 11 -17 21 -9l28 21c10 8 16 3 15 -10l-5 -34c-1 -13 8 -19 19 -13l31 16c12 5 18 0 13 -14l-11 -31c-4 -13 3 -21 15 -17l34 7c13 4 18 -2 11 -14l-18 -29c-8 -11 -3 -21 10 -20l35 2c14 0 16 -8 8 -17l-24 -26c-9 -9 -7 -19 7 -21l34 -6
c13 -3 14 -10 3 -19l-28 -19c-10 -7 -10 -17 3 -22l31 -13c12 -5 12 -13 0 -18zM364 124c144 0 278 189 278 319c0 19 -7 37 -20 49c8 -12 12 -25 12 -41c0 -66 -34 -146 -85 -210c-52 -64 -122 -113 -196 -113c-19 0 -36 3 -49 9c14 -9 35 -13 60 -13z" />
    <glyph glyph-name="s_t" unicode="&#xfb06;" horiz-adv-x="989" 
d="M562 391v134h71v15c0 76 -22 111 -87 111c-51 0 -95 -34 -95 -94c0 -25 3 -45 10 -62c17 -6 33 -12 47 -18l-70 -119c-50 19 -133 41 -183 41c-29 0 -43 -8 -43 -20c0 -26 61 -33 133 -51c87 -22 186 -63 186 -174c0 -98 -76 -165 -224 -165c-110 0 -229 37 -291 70
l70 129c57 -28 159 -60 217 -60c31 0 42 9 42 19c0 25 -70 35 -136 51c-88 22 -182 68 -182 174c0 92 71 164 217 164c43 0 89 -6 131 -16c-4 14 -6 30 -6 47c0 93 76 162 207 162c155 0 241 -74 241 -200v-4h141v-134h-141v-196c0 -43 22 -46 40 -46c25 0 62 17 73 22
l63 -136c-39 -18 -108 -46 -186 -46c-121 0 -174 69 -174 207v195h-71z" />
    <glyph glyph-name="eight.numr" horiz-adv-x="440" 
d="M23 397c0 59 42 91 91 113c-42 26 -63 56 -63 92c0 60 58 105 169 105c110 0 168 -45 168 -105c0 -36 -22 -66 -63 -92c48 -22 91 -54 91 -113c0 -75 -69 -124 -196 -124c-129 0 -197 49 -197 124zM286 408c0 24 -30 40 -67 55c-37 -15 -67 -31 -67 -55
c0 -22 27 -40 68 -40c40 0 66 18 66 40zM176 589c0 -18 20 -30 43 -39c24 9 44 21 44 39c0 10 -14 26 -43 26c-31 0 -44 -16 -44 -26z" />
    <glyph glyph-name="Qsuperior" horiz-adv-x="507" 
d="M254 378c-161 0 -227 95 -227 217s66 217 227 217s227 -95 227 -217c0 -81 -29 -149 -95 -187l65 -48l-83 -86zM254 487c69 0 96 44 96 108s-27 108 -96 108s-96 -44 -96 -108s27 -108 96 -108z" />
    <glyph glyph-name="f_f.calt" horiz-adv-x="799" 
d="M15 391v134h72c1 136 54 204 174 204c77 0 153 -28 193 -46l-47 -123c-17 5 -71 19 -95 19c-18 0 -42 -3 -42 -46v-8h106v-134h-106v-391h-183v391h-72zM410 391v134h71c1 136 54 204 175 204c59 0 121 -23 151 -37l-40 -126c-16 5 -46 13 -61 13c-18 0 -41 -3 -41 -46
v-8h125v-134h-125v-391h-184v391h-71z" />
    <glyph glyph-name="f_f.ss01" horiz-adv-x="779" 
d="M15 391v134h72c3 128 62 194 188 194c88 0 176 -24 228 -42c29 34 72 52 133 52c77 0 153 -28 193 -46l-61 -123c-14 5 -61 19 -81 19c-18 0 -41 -3 -41 -46v-8h124v-134h-124v-391h-184v391h-192v-391h-183v391h-72zM270 533v-8h192c0 12 0 24 1 35
c-25 4 -101 19 -140 19c-22 0 -53 -3 -53 -46z" />
    <glyph glyph-name="f_f_b.ss01" horiz-adv-x="1425" 
d="M15 391v134h72c3 128 62 194 188 194c90 0 180 -25 231 -43c31 35 78 53 144 53c68 0 137 -14 188 -29v29h184v-255c45 36 94 62 168 62c127 0 209 -95 209 -274c0 -177 -82 -273 -209 -273c-74 0 -123 26 -168 61v-50h-184v560c-25 4 -101 19 -140 19
c-22 0 -52 -3 -52 -46v-8h124v-134h-124v-391h-184v391h-192v-391h-183v391h-72zM1130 389c-32 0 -72 -15 -108 -56v-142c36 -40 75 -55 108 -55c54 0 82 42 82 127c0 84 -28 126 -82 126zM462 525c0 12 0 24 1 35c-25 4 -101 19 -140 19c-22 0 -53 -3 -53 -46v-8h192z" />
    <glyph glyph-name="f_f_h.ss01" horiz-adv-x="1424" 
d="M15 391v134h72c3 128 62 194 188 194c90 0 180 -25 231 -43c31 35 78 53 144 53c68 0 137 -14 188 -29v29h184v-259c50 33 116 66 195 66c114 0 162 -62 162 -168v-368h-185v324c0 41 -10 70 -54 70c-41 0 -87 -25 -118 -54v-340h-184v560c-25 4 -101 19 -140 19
c-22 0 -52 -3 -52 -46v-8h124v-134h-124v-391h-184v391h-192v-391h-183v391h-72zM462 525c0 12 0 24 1 35c-25 4 -101 19 -140 19c-22 0 -53 -3 -53 -46v-8h192z" />
    <glyph glyph-name="f_f_i.ss01" horiz-adv-x="1036" 
d="M15 391v134h72c3 128 62 194 188 194c91 0 181 -26 233 -44c32 36 81 54 150 54c105 0 207 -28 261 -46l-59 -123c-28 4 -110 19 -153 19c-25 0 -61 -3 -61 -46v-8h343v-525h-185v391h-158v-391h-184v391h-192v-391h-183v391h-72zM462 525c0 12 1 24 2 35
c-25 4 -102 19 -141 19c-22 0 -53 -3 -53 -46v-8h192z" />
    <glyph glyph-name="f_f_j.ss01" horiz-adv-x="1036" 
d="M15 391v134h72c3 128 62 194 188 194c91 0 181 -26 233 -44c32 36 81 54 150 54c105 0 207 -28 261 -46l-59 -121c-28 4 -110 19 -153 19c-25 0 -61 -3 -61 -46v-10h343v-489c0 -150 0 -217 -242 -270l-59 132c116 39 116 53 116 123v370h-158v-391h-184v391h-192v-391
h-183v391h-72zM462 525c0 12 1 24 2 35c-25 4 -102 19 -141 19c-22 0 -53 -3 -53 -46v-8h192z" />
    <glyph glyph-name="f_f_k.ss01" horiz-adv-x="1387" 
d="M15 391v134h72c3 128 62 194 188 194c90 0 180 -25 231 -43c31 35 78 53 144 53c68 0 137 -14 188 -29v29h184v-381l137 177h210l-177 -207l207 -318h-195l-123 188l-59 -68v-120h-184v560c-25 4 -101 19 -140 19c-22 0 -52 -3 -52 -46v-8h124v-134h-124v-391h-184v391
h-192v-391h-183v391h-72zM462 525c0 12 0 24 1 35c-25 4 -101 19 -140 19c-22 0 -53 -3 -53 -46v-8h192z" />
    <glyph glyph-name="f.calt" horiz-adv-x="404" 
d="M15 391v134h72c1 136 54 204 174 204c59 0 121 -23 152 -37l-40 -126c-17 5 -47 13 -61 13c-18 0 -42 -3 -42 -46v-8h125v-134h-125v-391h-183v391h-72z" />
    <glyph glyph-name="f_f_l.ss01" horiz-adv-x="1077" 
d="M15 391v134h72c3 128 62 194 188 194c90 0 180 -25 231 -43c31 35 78 53 144 53c68 0 137 -14 188 -29v29h184v-729h-184v560c-25 4 -101 19 -140 19c-22 0 -52 -3 -52 -46v-8h124v-134h-124v-391h-184v391h-192v-391h-183v391h-72zM270 525h192c0 12 0 24 1 35
c-25 4 -101 19 -140 19c-22 0 -53 -3 -53 -46v-8z" />
    <glyph glyph-name="f_f_t.ss01" horiz-adv-x="1195" 
d="M15 391v134h72c3 128 62 194 188 194c87 0 174 -24 226 -42c29 35 72 52 133 52c77 0 153 -28 193 -46l-61 -123c-13 5 -61 19 -81 19c-18 0 -41 -3 -41 -46v-8h196v132l184 20v-152h141v-134h-141v-196c0 -43 23 -46 41 -46c24 0 61 17 72 22l63 -136
c-39 -18 -107 -46 -185 -46c-122 0 -175 69 -175 207v195h-196v-391h-184v391h-190v-391h-183v391h-72zM460 525c0 12 0 24 1 35c-27 5 -100 19 -138 19c-22 0 -53 -3 -53 -46v-8h190z" />
    <glyph glyph-name="f_h.ss01" horiz-adv-x="1049" 
d="M15 391v134h72c1 135 59 204 188 204c68 0 136 -15 188 -30v30h184v-259c50 33 115 66 195 66c113 0 162 -62 162 -168v-368h-185v324c0 41 -10 70 -54 70c-41 0 -87 -25 -118 -54v-340h-184v560c-25 4 -101 19 -140 19c-22 0 -53 -3 -53 -46v-8h125v-134h-125v-391h-183
v391h-72z" />
    <glyph glyph-name="exclamsuperior" horiz-adv-x="220" 
d="M50 385v113h123v-113h-123zM186 805l-39 -274h-74l-38 274h151z" />
    <glyph glyph-name="f_i.ss01" horiz-adv-x="661" 
d="M15 391v134h72c1 135 62 204 196 204c105 0 207 -28 261 -46l-59 -123c-28 4 -110 19 -153 19c-26 0 -62 -3 -62 -46v-8h344v-525h-185v391h-159v-391h-183v391h-72z" />
    <glyph glyph-name="f_j.ss01" horiz-adv-x="661" 
d="M15 391v134h72c1 135 62 204 196 204c105 0 207 -28 261 -46l-59 -123c-28 4 -110 19 -153 19c-26 0 -62 -3 -62 -46v-8h344v-489c0 -150 0 -217 -242 -270l-59 132c116 39 116 53 116 123v370h-159v-391h-183v391h-72z" />
    <glyph glyph-name="f_k.ss01" horiz-adv-x="1011" 
d="M15 391v134h72c1 135 59 204 188 204c68 0 136 -15 188 -30v30h184v-381l137 177h210l-177 -207l207 -318h-195l-124 189l-58 -68v-121h-184v560c-25 4 -101 19 -140 19c-22 0 -53 -3 -53 -46v-8h125v-134h-125v-391h-183v391h-72z" />
    <glyph glyph-name="exclaminferior" horiz-adv-x="219" 
d="M49 -150v113h123v-113h-123zM185 270l-39 -274h-74l-38 274h151z" />
    <glyph glyph-name="f_l.ss01" horiz-adv-x="702" 
d="M15 391v134h72c1 135 59 204 188 204c68 0 136 -15 188 -30v30h184v-729h-184v560c-25 4 -101 19 -140 19c-22 0 -53 -3 -53 -46v-8h125v-134h-125v-391h-183v391h-72z" />
    <glyph glyph-name="f_t.ss01" horiz-adv-x="822" 
d="M15 391v134h72c1 136 54 204 174 204c77 0 153 -28 193 -46l-61 -123c-14 5 -61 19 -81 19c-18 0 -42 -3 -42 -46v-8h196v132l184 20v-152h142v-134h-142v-196c0 -43 24 -46 41 -46c24 0 61 17 73 22l63 -136c-39 -18 -108 -46 -186 -46c-121 0 -175 69 -175 207v195
h-196v-391h-183v391h-72z" />
    <glyph glyph-name="finferior" horiz-adv-x="273" 
d="M19 76v89h44c2 79 37 122 114 122c51 0 99 -17 125 -29l-41 -78c-8 2 -37 11 -49 11c-11 0 -24 -1 -24 -26h76v-89h-76v-226h-125v226h-44z" />
    <glyph glyph-name="exclamdownsuperior" horiz-adv-x="219" 
d="M49 692v113h123v-113h-123zM146 659l39 -274h-151l38 274h74z" />
    <glyph glyph-name="five.dnom" horiz-adv-x="415" 
d="M40 205l24 215h306v-105h-198l-2 -39c17 4 35 6 55 6c113 0 163 -68 163 -141c0 -77 -55 -148 -177 -148c-91 0 -162 41 -193 60l56 92c23 -16 69 -43 119 -43c38 0 65 12 65 38c0 20 -19 41 -66 41c-30 0 -56 -9 -81 -21z" />
    <glyph glyph-name="five.numr" horiz-adv-x="415" 
d="M40 485l24 215h306v-105h-198l-2 -39c17 4 35 6 55 6c113 0 163 -68 163 -141c0 -77 -55 -148 -177 -148c-91 0 -162 41 -193 60l56 92c23 -16 69 -43 119 -43c38 0 65 12 65 38c0 20 -19 41 -66 41c-30 0 -56 -9 -81 -21z" />
    <glyph glyph-name="five.onum" horiz-adv-x="614" 
d="M47 218l38 356h475v-158h-315l-5 -86c28 7 57 11 91 11c176 0 256 -113 256 -235c0 -127 -87 -243 -278 -243c-139 0 -248 63 -297 95l83 138c36 -24 109 -70 187 -70c64 0 111 28 111 79c0 42 -33 82 -109 82c-51 0 -94 -17 -131 -36z" />
    <glyph glyph-name="five.tnum" horiz-adv-x="705" 
d="M93 344l38 356h475v-158h-315l-5 -86c28 7 57 11 91 11c176 0 256 -113 256 -235c0 -127 -87 -243 -278 -243c-139 0 -248 63 -297 95l83 138c36 -24 109 -70 187 -70c64 0 111 28 111 79c0 42 -33 82 -110 82c-51 0 -93 -17 -130 -36z" />
    <glyph glyph-name="exclamdowninferior" horiz-adv-x="219" 
d="M49 157v113h123v-113h-123zM146 124l39 -274h-151l38 274h74z" />
    <glyph glyph-name="fiveeighths.onum" horiz-adv-x="866" 
d="M505 95c0 48 38 75 80 94c-35 20 -55 44 -55 75c0 50 51 86 143 86s142 -37 142 -86c0 -34 -24 -57 -55 -75c42 -18 80 -46 80 -94c0 -61 -61 -101 -167 -101c-107 0 -168 40 -168 101zM45 398l22 176h257v-83h-173l-3 -37c16 3 32 6 51 6c96 0 140 -55 140 -116
c0 -62 -48 -120 -152 -120c-76 0 -134 32 -161 48l45 72c18 -13 60 -35 103 -35c35 0 62 12 62 35c0 19 -19 36 -63 36c-28 0 -51 -8 -71 -17zM622 574l-285 -574h-109l286 574h108zM736 104c0 23 -32 37 -63 48c-35 -13 -64 -26 -64 -48c0 -20 26 -35 64 -35
c37 0 63 15 63 35zM629 251c0 -16 20 -25 43 -33c22 8 44 17 44 33c0 11 -14 27 -43 27s-44 -16 -44 -27z" />
    <glyph glyph-name="exclamdown.sc" horiz-adv-x="277" 
d="M54 418v156h168v-156h-168zM188 374l53 -374h-206l53 374h100z" />
    <glyph glyph-name="fivesixths" horiz-adv-x="981" 
d="M851 325c-52 0 -107 -17 -135 -74c19 11 50 22 91 22c81 0 143 -50 143 -130c0 -81 -68 -150 -183 -150c-137 0 -197 88 -197 184c0 144 112 250 280 250c44 0 72 -7 72 -7l-29 -99s-18 4 -42 4zM49 485l24 215h306v-105h-198l-2 -39c17 4 35 6 55 6
c112 0 163 -68 163 -141c0 -77 -55 -148 -177 -148c-91 0 -162 41 -193 60l56 92c23 -16 69 -43 119 -43c38 0 65 12 65 38c0 20 -19 41 -66 41c-30 0 -56 -9 -81 -21zM729 700l-327 -700h-137l326 700h138zM763 180c-32 0 -53 -12 -64 -23c1 -53 39 -62 65 -62
c43 0 59 24 59 42c0 26 -24 43 -60 43z" />
    <glyph glyph-name="fivesixths.onum" horiz-adv-x="840" 
d="M727 270c-48 0 -99 -16 -122 -66c17 9 44 19 82 19c72 0 125 -41 125 -106c0 -66 -58 -123 -156 -123c-115 0 -167 73 -167 151c0 118 95 205 237 205c37 0 62 -6 62 -6l-23 -77s-17 3 -38 3zM45 398l22 176h257v-83h-173l-3 -37c16 3 32 6 51 6c96 0 140 -55 140 -116
c0 -62 -48 -120 -152 -120c-76 0 -134 32 -161 48l45 72c18 -13 60 -35 103 -35c35 0 62 12 62 35c0 19 -19 36 -63 36c-28 0 -51 -8 -71 -17zM622 574l-285 -574h-109l286 574h108zM654 151c-32 0 -53 -13 -63 -22c2 -42 36 -54 63 -54c41 0 57 20 57 38
c0 22 -22 38 -57 38z" />
    <glyph glyph-name="exclam.sc" horiz-adv-x="276" 
d="M54 0v156h168v-156h-168zM241 574l-53 -374h-100l-53 374h206z" />
    <glyph glyph-name="einferior" horiz-adv-x="383" 
d="M356 -17h-210c5 -34 20 -50 54 -50c32 0 74 12 121 34l43 -75c-23 -12 -95 -49 -177 -49c-94 0 -168 48 -168 163c0 103 62 166 175 166c114 0 168 -61 168 -142c0 -27 -6 -47 -6 -47zM194 87c-28 0 -42 -15 -48 -43h96c-2 26 -16 43 -48 43z" />
    <glyph glyph-name="eight.tnum" horiz-adv-x="705" 
d="M45 193c0 98 70 153 148 190c-65 41 -102 89 -102 154c0 100 90 174 261 174s262 -74 262 -174c0 -65 -37 -113 -103 -154c78 -37 148 -92 148 -190c0 -125 -109 -204 -307 -204s-307 79 -307 204zM466 208c0 48 -51 77 -114 103c-63 -26 -113 -55 -113 -103
c0 -43 46 -76 113 -76c68 0 114 33 114 76zM277 518c0 -36 36 -57 75 -74c40 17 76 38 76 74c0 23 -25 55 -76 55s-75 -32 -75 -55z" />
    <glyph glyph-name="four.dnom" horiz-adv-x="462" 
d="M14 69v87l191 264h172v-246h66v-105h-66v-69h-129v69h-234zM146 174h102v146z" />
    <glyph glyph-name="four.numr" horiz-adv-x="462" 
d="M14 349v87l191 264h172v-246h66v-105h-66v-69h-129v69h-234zM146 454h102v146z" />
    <glyph glyph-name="four.onum" horiz-adv-x="699" 
d="M13 -4v131l308 447h255v-420h105v-158h-105v-122h-192v122h-371zM207 154h177v264z" />
    <glyph glyph-name="four.tnum" horiz-adv-x="705" 
d="M25 122v131l307 447h243v-420h96v-158h-96v-122h-188v122h-362zM209 280h178v266z" />
    <glyph glyph-name="fourfifths" horiz-adv-x="1078" 
d="M24 349v87l191 264h171v-246h67v-105h-67v-69h-128v69h-234zM696 205l23 215h307v-105h-198l-3 -39c17 4 35 6 55 6c113 0 163 -68 163 -141c0 -77 -56 -148 -178 -148c-90 0 -161 41 -191 60l54 92c25 -16 70 -43 119 -43c38 0 66 12 66 38c0 20 -20 41 -65 41
c-32 0 -57 -9 -82 -21zM794 700l-326 -700h-138l327 700h137zM156 454h102v146z" />
    <glyph glyph-name="fourfifths.onum" horiz-adv-x="922" 
d="M24 288v68l169 218h136v-205h57v-81h-57v-58h-102v58h-203zM596 169l20 175h258v-82h-173l-3 -38c16 3 32 6 51 6c97 0 140 -55 140 -115c0 -63 -47 -121 -151 -121c-76 0 -134 33 -161 49l44 71c19 -13 59 -35 103 -35c36 0 63 12 63 35c0 19 -20 37 -63 37
c-28 0 -51 -8 -72 -18zM678 574l-285 -574h-109l285 574h109zM130 369h97v131z" />
    <glyph glyph-name="eight.onum" horiz-adv-x="664" 
d="M25 193c0 98 69 153 148 190c-66 41 -103 89 -103 154c0 100 91 174 262 174c170 0 262 -74 262 -174c0 -65 -37 -113 -103 -154c78 -37 148 -92 148 -190c0 -125 -109 -204 -307 -204s-307 79 -307 204zM445 208c0 48 -51 77 -113 103c-63 -26 -113 -55 -113 -103
c0 -43 45 -76 113 -76s113 33 113 76zM257 518c0 -36 35 -57 75 -74c39 17 75 38 75 74c0 23 -24 55 -75 55s-75 -32 -75 -55z" />
    <glyph glyph-name="eight.dnom" horiz-adv-x="440" 
d="M23 117c0 59 42 91 91 113c-42 26 -63 56 -63 92c0 60 58 105 169 105c110 0 168 -45 168 -105c0 -36 -22 -66 -63 -92c48 -22 91 -54 91 -113c0 -75 -69 -124 -196 -124c-129 0 -197 49 -197 124zM286 128c0 24 -30 40 -67 55c-37 -15 -67 -31 -67 -55
c0 -22 27 -40 68 -40c40 0 66 18 66 40zM176 309c0 -18 20 -30 43 -39c24 9 44 21 44 39c0 10 -14 26 -43 26c-31 0 -44 -16 -44 -26z" />
    <glyph glyph-name="dollar.onum" horiz-adv-x="603" 
d="M366 -82h-121v81c-88 14 -168 47 -216 76l77 124c52 -28 157 -63 216 -63c35 0 63 8 63 24c0 38 -88 33 -198 74c-63 22 -145 69 -145 168c0 91 67 168 203 179v76h121v-81c70 -11 138 -33 188 -58l-78 -127c-48 20 -133 47 -186 47c-34 0 -62 -6 -62 -24
c0 -39 90 -33 195 -74c60 -23 148 -63 148 -167c0 -92 -70 -170 -205 -180v-75z" />
    <glyph glyph-name="frenchfranc" horiz-adv-x="655" 
d="M32 92v104h70v504h525v-162h-333v-109h261v-159h-261v-74h180v-104h-180v-92h-192v92h-70z" />
    <glyph glyph-name="frenchfranc.onum" horiz-adv-x="583" 
d="M31 68v94h61v412h465v-148h-288v-68h225v-143h-225v-53h156v-94h-156v-68h-177v68h-61z" />
    <glyph glyph-name="frenchfrancinferior" horiz-adv-x="422" 
d="M23 -99v68h44v301h337v-107h-208v-51h164v-105h-164v-38h114v-68h-114v-51h-129v51h-44z" />
    <glyph glyph-name="frenchfrancsuperior" horiz-adv-x="423" 
d="M23 436v68h44v301h337v-107h-208v-51h164v-105h-164v-38h114v-68h-114v-51h-129v51h-44z" />
    <glyph glyph-name="fsuperior" horiz-adv-x="273" 
d="M19 611v89h44c2 79 37 122 114 122c51 0 99 -17 125 -29l-41 -78c-8 2 -37 11 -49 11c-11 0 -24 -1 -24 -26h76v-89h-76v-226h-125v226h-44z" />
    <glyph glyph-name="dinferior" horiz-adv-x="419" 
d="M380 -150h-124v29c-29 -21 -59 -36 -105 -36c-80 0 -131 60 -131 164c0 106 51 165 131 165c46 0 76 -15 105 -36v151h124v-437zM193 -59c19 0 41 7 63 30v73c-22 23 -44 30 -63 30c-31 0 -48 -21 -48 -66c0 -46 17 -67 48 -67z" />
    <glyph glyph-name="csuperior" horiz-adv-x="344" 
d="M332 669l-48 -90c-26 10 -61 23 -87 23c-36 0 -52 -25 -52 -59c0 -36 16 -60 52 -60c26 0 61 12 87 23l48 -90c-33 -14 -97 -38 -157 -38c-81 0 -156 48 -156 165c0 116 75 164 156 164c60 0 124 -24 157 -38z" />
    <glyph glyph-name="copyright.sc" horiz-adv-x="656" 
d="M463 414l-26 -29c-23 17 -59 44 -112 44c-62 0 -104 -57 -104 -143c0 -85 42 -141 104 -141c53 0 89 26 112 43l26 -29c-31 -21 -76 -51 -139 -51c-79 0 -146 61 -146 178c0 118 67 179 146 179c63 0 108 -30 139 -51zM31 287c0 166 107 296 299 296
c191 0 296 -130 296 -296s-105 -296 -296 -296c-192 0 -299 130 -299 296zM65 287c0 -149 93 -265 264 -265c170 0 265 116 265 265s-95 265 -265 265c-171 0 -264 -116 -264 -265z" />
    <glyph glyph-name="colonsuperior" horiz-adv-x="215" 
d="M46 558v125h123v-125h-123zM46 385v125h123v-125h-123z" />
    <glyph glyph-name="colonmonetarysuperior" horiz-adv-x="369" 
d="M154 385h-49l14 58c-52 20 -91 68 -91 152c0 117 75 164 156 164h11l11 46h50l-13 -52l13 -3l14 55h49l-17 -67c18 -6 34 -12 46 -17l-48 -90c-28 11 -66 24 -94 24c-36 0 -52 -25 -52 -60s16 -60 52 -60c28 0 66 13 94 24l48 -91c-27 -11 -72 -27 -119 -34l-12 -49h-50
l11 46c-4 0 -8 0 -13 1z" />
    <glyph glyph-name="germandblsinferior" horiz-adv-x="503" 
d="M255 277c174 0 216 -82 216 -139v-2l-44 -72c-22 10 -71 24 -94 24c-14 0 -21 -5 -21 -11c0 -14 27 -16 67 -27c43 -12 107 -37 107 -106c0 -58 -41 -101 -132 -101c-64 0 -136 23 -173 43l43 78c29 -16 92 -35 112 -35c17 0 25 6 25 9c0 14 -29 13 -69 26
c-49 16 -105 41 -105 106c0 56 39 102 127 102h8c-14 7 -35 12 -67 12c-90 0 -92 -37 -92 -63v-271h-124v286c0 60 44 141 216 141z" />
    <glyph glyph-name="germandblssuperior" horiz-adv-x="504" 
d="M255 812c174 0 216 -82 216 -139v-2l-44 -72c-22 10 -71 24 -94 24c-14 0 -21 -5 -21 -11c0 -14 27 -16 67 -27c43 -12 107 -37 107 -106c0 -58 -41 -101 -132 -101c-64 0 -136 23 -173 43l43 78c29 -16 92 -35 112 -35c17 0 25 6 25 9c0 14 -29 13 -69 26
c-49 16 -105 41 -105 106c0 56 39 102 127 102h8c-14 7 -35 12 -67 12c-90 0 -92 -37 -92 -63v-271h-124v286c0 60 44 141 216 141z" />
    <glyph glyph-name="ginferior" horiz-adv-x="420" 
d="M257 165h124v-300c0 -94 -45 -143 -158 -143c-55 0 -129 11 -188 27l24 93c37 -12 104 -27 136 -27c51 0 62 14 62 44v20c-29 -21 -59 -36 -105 -36c-80 0 -131 60 -131 164c0 106 51 165 131 165c46 0 76 -15 105 -36v29zM194 -59c19 0 41 7 63 30v73
c-22 23 -44 30 -63 30c-31 0 -48 -21 -48 -66c0 -46 17 -67 48 -67z" />
    <glyph glyph-name="colonmonetaryinferior" horiz-adv-x="366" 
d="M151 -150h-49l14 58c-52 21 -91 69 -91 152c0 117 75 164 156 164h11l11 46h50l-13 -52l13 -3l14 55h49l-16 -67l45 -17l-48 -90c-28 11 -66 24 -94 24c-36 0 -52 -25 -52 -60s16 -60 52 -60c28 0 66 13 94 24l48 -91c-27 -10 -72 -26 -119 -33l-12 -50h-50l11 46
c-4 0 -8 1 -13 1z" />
    <glyph glyph-name="colonmonetary.onum" horiz-adv-x="506" 
d="M211 0h-66l18 78c-74 27 -128 94 -128 210c0 159 103 224 215 224h14l15 62h67l-17 -70c7 -1 14 -2 20 -4l18 74h66l-21 -91c25 -8 47 -16 64 -23l-65 -124c-40 15 -92 32 -130 32c-51 0 -75 -33 -75 -80s24 -81 75 -81c38 0 90 17 130 32l65 -124
c-37 -15 -97 -37 -162 -47l-16 -68h-67l15 63c-7 0 -14 0 -20 1z" />
    <glyph glyph-name="coloninferior" horiz-adv-x="215" 
d="M46 23v125h123v-125h-123zM46 -150v125h123v-125h-123z" />
    <glyph glyph-name="gsuperior" horiz-adv-x="420" 
d="M257 700h124v-300c0 -94 -45 -143 -158 -143c-55 0 -129 11 -188 27l24 93c37 -12 104 -27 136 -27c51 0 62 14 62 44v19c-29 -21 -59 -35 -105 -35c-80 0 -131 60 -131 164c0 106 51 165 131 165c46 0 76 -15 105 -36v29zM194 476c19 0 41 6 63 29v74
c-22 23 -44 30 -63 30c-31 0 -48 -21 -48 -66c0 -46 17 -67 48 -67z" />
    <glyph glyph-name="cinferior" horiz-adv-x="343" 
d="M332 134l-48 -90c-26 10 -61 23 -87 23c-36 0 -52 -25 -52 -59c0 -36 16 -60 52 -60c26 0 61 12 87 23l48 -90c-33 -14 -97 -38 -157 -38c-81 0 -156 48 -156 165c0 116 75 164 156 164c60 0 124 -24 157 -38z" />
    <glyph glyph-name="cent.onum" horiz-adv-x="501" 
d="M347 0h-120v63c-105 8 -196 75 -196 225s91 216 196 223v63h120v-74c50 -11 95 -28 125 -40l-65 -124c-40 15 -92 32 -130 32c-51 0 -75 -33 -75 -80s24 -81 75 -81c38 0 90 17 130 32l65 -124c-30 -12 -75 -29 -125 -40v-75z" />
    <glyph glyph-name="c_t" horiz-adv-x="970" 
d="M543 391v134h71v15c0 76 -21 111 -82 111c-47 0 -88 -34 -88 -94c0 -25 6 -45 19 -62c19 -7 35 -14 49 -20l-72 -136c-39 17 -94 40 -137 40c-60 0 -91 -47 -91 -116s31 -117 91 -117c43 0 98 23 137 40l72 -136c-51 -23 -148 -61 -240 -61c-129 0 -247 82 -247 274
s118 273 246 273c33 0 67 -5 99 -13c-5 13 -7 27 -7 44c0 93 73 162 199 162c151 0 236 -74 236 -200v-4h141v-134h-141v-196c0 -43 23 -46 41 -46c23 0 60 17 72 22l63 -136c-39 -18 -107 -46 -185 -46c-122 0 -175 69 -175 207v195h-71z" />
    <glyph glyph-name="c_l" horiz-adv-x="808" 
d="M758 0h-184v651h-29c-59 0 -101 -30 -101 -88c0 -26 8 -50 22 -69l46 -19l-72 -136c-39 17 -94 40 -137 40c-60 0 -91 -47 -91 -116s31 -117 91 -117c43 0 98 23 137 40l72 -136c-51 -23 -148 -61 -240 -61c-129 0 -247 82 -247 274s118 273 246 273c34 0 70 -6 103 -14
c-7 17 -11 36 -11 58c0 87 61 149 186 149h209v-729z" />
    <glyph glyph-name="c_k" horiz-adv-x="1123" 
d="M1104 525l-176 -206l207 -319h-194l-125 188l-58 -68v-120h-185v651h-28c-59 0 -101 -30 -101 -88c0 -26 8 -50 22 -69l46 -19l-72 -136c-39 17 -94 40 -137 40c-60 0 -91 -47 -91 -116s31 -117 91 -117c43 0 98 23 137 40l72 -136c-51 -23 -148 -61 -240 -61
c-129 0 -247 82 -247 274s118 273 246 273c34 0 70 -6 103 -14c-7 17 -11 36 -11 58c0 87 61 149 186 149h209v-380l136 176h210z" />
    <glyph glyph-name="c_h" horiz-adv-x="1161" 
d="M512 475l-72 -136c-39 17 -94 40 -137 40c-60 0 -91 -47 -91 -116s31 -117 91 -117c43 0 98 23 137 40l72 -136c-51 -23 -148 -61 -240 -61c-129 0 -247 82 -247 274s118 273 246 273c34 0 70 -6 103 -14c-7 17 -11 36 -11 58c0 87 61 149 186 149h209v-259
c50 33 115 66 195 66c113 0 162 -62 162 -168v-368h-184v324c0 41 -11 70 -55 70c-41 0 -89 -25 -118 -55v-339h-185v651h-28c-59 0 -101 -30 -101 -88c0 -26 8 -50 22 -69z" />
    <glyph glyph-name="hinferior" horiz-adv-x="423" 
d="M163 287v-153c32 20 72 38 122 38c71 0 102 -36 102 -102v-220h-124v190c0 22 -6 38 -31 38c-23 0 -49 -12 -69 -29v-199h-124v437h124z" />
    <glyph glyph-name="brokenbar.sc" horiz-adv-x="242" 
d="M182 332h-122v339h122v-339zM182 -101h-122v339h122v-339z" />
    <glyph glyph-name="bracketrightsuperior" horiz-adv-x="265" 
d="M218 299h-200v68h71v453h-71v68h200v-589z" />
    <glyph glyph-name="bracketrightinferior" horiz-adv-x="265" 
d="M218 -236h-200v68h71v453h-71v68h200v-589z" />
    <glyph glyph-name="bracketright.sc" horiz-adv-x="355" 
d="M296 -117h-275v93h99v619h-99v93h275v-805z" />
    <glyph glyph-name="bracketleftsuperior" horiz-adv-x="265" 
d="M247 299h-200v589h200v-68h-71v-453h71v-68z" />
    <glyph glyph-name="bracketleftinferior" horiz-adv-x="265" 
d="M247 -236h-200v589h200v-68h-71v-453h71v-68z" />
    <glyph glyph-name="bracketleft.sc" horiz-adv-x="355" 
d="M333 -117h-274v805h274v-93h-98v-619h98v-93z" />
    <glyph glyph-name="bracerightsuperior" horiz-adv-x="273" 
d="M263 627v-66c-55 0 -64 -28 -59 -62l7 -56c13 -105 -65 -144 -179 -144h-12v66h12c49 0 55 41 50 70l-5 40c-10 77 25 107 94 118c-69 11 -104 42 -94 119l5 41c5 29 -1 70 -50 70h-12v65h12c114 0 192 -38 179 -144l-7 -55c-5 -34 4 -62 59 -62z" />
    <glyph glyph-name="bracerightinferior" horiz-adv-x="273" 
d="M263 92v-66c-55 0 -64 -28 -59 -62l7 -56c13 -105 -65 -144 -179 -144h-12v66h12c49 0 55 41 50 70l-5 40c-10 77 25 107 94 118c-69 11 -104 42 -94 119l5 41c5 29 -1 70 -50 70h-12v65h12c114 0 192 -38 179 -144l-7 -55c-5 -34 4 -62 59 -62z" />
    <glyph glyph-name="iinferior" horiz-adv-x="202" 
d="M163 -150h-124v315h124v-315zM37 194v92h128v-92h-128z" />
    <glyph glyph-name="braceright.sc" horiz-adv-x="376" 
d="M359 331v-91c-76 0 -89 -40 -82 -85l11 -75c21 -144 -91 -197 -247 -197h-16v89h16c68 0 76 57 70 96l-8 56c-15 104 34 146 129 161c-95 15 -144 57 -129 162l8 55c6 40 -2 96 -70 96h-16v90h16c156 0 267 -53 247 -197l-11 -76c-7 -45 6 -84 82 -84z" />
    <glyph glyph-name="braceleftsuperior" horiz-adv-x="274" 
d="M11 561v66c55 0 65 28 60 61l-8 56c-15 105 65 144 178 144h12v-65h-12c-48 0 -53 -41 -49 -70l6 -41c11 -77 -26 -108 -95 -119c70 -11 106 -41 95 -118l-6 -40c-4 -29 1 -70 49 -70h12v-66h-12c-113 0 -194 39 -178 145l8 55c5 33 -5 62 -60 62z" />
    <glyph glyph-name="braceleftinferior" horiz-adv-x="274" 
d="M11 26v66c55 0 65 28 60 61l-8 56c-15 105 65 144 178 144h12v-65h-12c-48 0 -53 -41 -49 -70l6 -41c11 -77 -26 -108 -95 -119c70 -11 106 -41 95 -118l-6 -40c-4 -29 1 -70 49 -70h12v-66h-12c-113 0 -194 39 -178 145l8 55c5 33 -5 62 -60 62z" />
    <glyph glyph-name="braceleft.sc" horiz-adv-x="376" 
d="M16 240v91c76 0 88 39 82 83l-10 77c-19 144 89 197 246 197h16v-90h-16c-69 0 -76 -56 -70 -97l8 -54c14 -105 -36 -147 -130 -162c94 -15 144 -57 130 -161l-8 -55c-6 -40 1 -97 70 -97h16v-89h-16c-157 0 -266 53 -246 197l11 76c7 44 -7 84 -83 84z" />
    <glyph glyph-name="binferior" horiz-adv-x="419" 
d="M39 -150v437h124v-151c30 22 58 36 105 36c81 0 131 -59 131 -165c0 -104 -50 -164 -131 -164c-47 0 -75 15 -105 36v-29h-124zM228 74c-20 0 -43 -7 -65 -30v-73c22 -23 45 -30 65 -30c31 0 47 21 47 67c0 45 -16 66 -47 66z" />
    <glyph glyph-name="bar.sc" horiz-adv-x="241" 
d="M182 -101h-122v772h122v-772z" />
    <glyph glyph-name="backslash.sc" horiz-adv-x="443" 
d="M302 -74l-282 722h125l283 -722h-126z" />
    <glyph glyph-name="at.sc" horiz-adv-x="778" 
d="M375 -98c95 0 152 33 152 33l31 -40s-64 -42 -187 -42c-202 0 -339 148 -339 354c0 208 137 356 369 356c228 0 351 -150 351 -355c1 -115 -34 -239 -170 -239c-91 0 -121 65 -127 102c-28 -27 -70 -53 -128 -53c-77 0 -130 50 -130 124c0 80 58 124 138 124
c43 0 94 -11 119 -16v24c0 40 -16 54 -59 54c-34 0 -85 -10 -136 -30l-37 81c67 23 134 39 197 39c107 0 153 -45 153 -148v-112c0 -71 3 -117 43 -117c46 0 86 55 86 171c0 163 -95 301 -300 301c-209 0 -318 -133 -318 -306c0 -176 112 -305 292 -305zM366 108
c26 0 57 10 88 38v47c-19 4 -54 11 -79 11c-39 0 -58 -19 -58 -50c0 -32 21 -46 49 -46z" />
    <glyph glyph-name="asterisksuperior" horiz-adv-x="301" 
d="M100 562l36 94l-68 -77l-50 86l103 16l-103 17l50 86l68 -78l-36 94h100l-35 -94l67 78l51 -86l-98 -16l98 -17l-51 -86l-65 72l33 -89h-100z" />
    <glyph glyph-name="jinferior" horiz-adv-x="202" 
d="M36 194v92h129v-92h-129zM163 165v-287c0 -95 0 -138 -158 -171l-39 87c73 24 73 33 73 74v297h124z" />
    <glyph glyph-name="asteriskinferior" horiz-adv-x="302" 
d="M101 27l36 94l-68 -77l-50 86l103 16l-103 17l50 86l68 -78l-36 94h100l-35 -94l67 78l51 -86l-98 -16l98 -17l-51 -86l-65 72l33 -89h-100z" />
    <glyph glyph-name="ampersandsuperior" horiz-adv-x="479" 
d="M483 385h-139l-29 27c-37 -21 -82 -34 -137 -34c-92 0 -156 50 -156 115c0 52 40 87 86 114c-31 29 -55 58 -55 96c0 63 59 109 144 109c90 0 141 -50 141 -103c0 -46 -40 -81 -83 -112l55 -51c11 18 17 38 18 60h123c-6 -37 -26 -88 -63 -133zM189 468c16 0 34 5 52 13
l-65 61c-20 -15 -33 -30 -33 -46s17 -28 46 -28zM163 698c0 -14 12 -29 29 -44c21 14 35 28 35 45c0 11 -8 28 -31 28s-33 -17 -33 -29z" />
    <glyph glyph-name="ampersandinferior" horiz-adv-x="480" 
d="M483 -150h-139l-29 27c-37 -21 -82 -34 -137 -34c-92 0 -156 50 -156 115c0 52 40 87 86 114c-31 29 -55 58 -55 96c0 63 59 109 144 109c90 0 141 -50 141 -103c0 -46 -40 -81 -83 -112l55 -51c11 18 17 38 18 60h123c-6 -37 -26 -88 -63 -132zM189 -67c16 0 34 5 52 14
l-65 60c-20 -15 -33 -30 -33 -46s17 -28 46 -28zM163 163c0 -14 12 -29 29 -44c21 14 35 28 35 45c0 11 -8 28 -31 28s-33 -17 -33 -29z" />
    <glyph glyph-name="ampersand.sc" horiz-adv-x="651" 
d="M661 0h-191l-41 37c-51 -28 -113 -46 -188 -46c-127 0 -216 68 -216 158c0 70 56 117 119 154c-43 39 -76 79 -76 131c0 86 81 149 199 149c124 0 195 -68 195 -140c0 -63 -55 -111 -115 -153l76 -70c15 25 25 53 26 83h168c-8 -51 -35 -121 -87 -182zM255 114
c23 0 48 6 72 18l-89 84c-27 -21 -45 -42 -45 -63c0 -23 22 -39 62 -39zM218 428c0 -20 19 -40 42 -60c30 18 50 37 50 60c0 15 -12 38 -45 38c-31 0 -47 -23 -47 -38z" />
    <glyph glyph-name="kinferior" horiz-adv-x="396" 
d="M385 165l-112 -124l130 -191h-131l-74 108l-35 -38v-70h-124v437h124v-221l80 99h142z" />
    <glyph glyph-name="ksuperior" horiz-adv-x="396" 
d="M385 700l-112 -124l130 -191h-131l-74 108l-35 -39v-69h-124v437h124v-221l80 99h142z" />
    <glyph glyph-name="ainferior" horiz-adv-x="403" 
d="M244 -150v32c-26 -21 -62 -39 -110 -39c-74 0 -118 49 -118 106c0 61 50 101 127 101c37 0 80 -9 101 -13v12c0 25 -14 31 -49 31c-31 0 -65 -5 -120 -20l-37 82c71 21 130 30 181 30c107 0 149 -37 149 -132v-190h-124zM177 -64c17 0 42 4 67 22v22c-16 3 -42 7 -60 7
c-26 0 -43 -6 -43 -26c0 -16 14 -25 36 -25z" />
    <glyph glyph-name="Zsuperior" horiz-adv-x="435" 
d="M26 482l206 216h-192v107h361v-97l-206 -216h209v-107h-378v97z" />
    <glyph glyph-name="Zinferior" horiz-adv-x="435" 
d="M26 -53l206 216h-192v107h361v-97l-206 -216h209v-107h-378v97z" />
    <glyph glyph-name="Zdotaccent.sc" horiz-adv-x="584" 
d="M28 143l292 286h-274v145h499v-143l-291 -286h296v-145h-522v143zM226 621v130h137v-130h-137z" />
    <glyph glyph-name="Zcaron.sc" horiz-adv-x="584" 
d="M28 143l292 286h-274v145h499v-143l-291 -286h296v-145h-522v143zM490 754l-110 -143h-170l-110 143h125l70 -67l70 67h125z" />
    <glyph glyph-name="Zacute.sc" horiz-adv-x="584" 
d="M28 143l292 286h-274v145h499v-143l-291 -286h296v-145h-522v143zM329 611h-150l125 143h200z" />
    <glyph glyph-name="Z.sc" horiz-adv-x="583" 
d="M27 134l285 292h-267v148h499v-133l-284 -293h289v-148h-522v134z" />
    <glyph glyph-name="linferior" horiz-adv-x="202" 
d="M163 -150h-124v437h124v-437z" />
    <glyph glyph-name="Ysuperior" horiz-adv-x="424" 
d="M149 385v165l-158 255h145l76 -146l77 146h145l-158 -255l1 -165h-128z" />
    <glyph glyph-name="lira.onum" horiz-adv-x="530" 
d="M49 275v72h31c-13 25 -23 53 -23 88c0 94 72 148 195 148c113 0 196 -49 249 -81l-75 -111c-49 27 -98 47 -137 47c-37 0 -54 -10 -54 -31c0 -20 11 -39 26 -60h173v-72h-134c3 -8 5 -16 6 -25h128v-71h-139c-10 -17 -24 -28 -37 -34h234v-145h-453v116s74 10 97 63h-87
v71h86c-3 8 -7 17 -12 25h-74z" />
    <glyph glyph-name="lirainferior" horiz-adv-x="390" 
d="M38 52v49h26c-10 19 -18 41 -18 68c0 68 51 108 140 108c83 0 142 -36 180 -59l-54 -80c-35 19 -71 34 -99 34c-26 0 -39 -9 -39 -24c0 -16 10 -30 21 -47h124v-49h-97c2 -7 4 -13 5 -20h92v-49h-99c-7 -13 -18 -22 -28 -28h168v-105h-328v84s56 8 71 49h-65v49h64l-9 20
h-55z" />
    <glyph glyph-name="lirasuperior" horiz-adv-x="390" 
d="M38 587v49h26c-10 19 -18 41 -18 68c0 68 51 108 140 108c83 0 142 -36 180 -59l-54 -80c-35 19 -71 34 -99 34c-26 0 -39 -9 -39 -24c0 -16 10 -30 21 -47h124v-49h-97c2 -7 4 -13 5 -20h92v-49h-99c-7 -14 -18 -23 -28 -28h168v-105h-328v84s56 8 71 49h-65v49h64
l-9 20h-55z" />
    <glyph glyph-name="Yinferior" horiz-adv-x="424" 
d="M148 -150v165l-158 255h145l76 -146l77 146h145l-158 -255l1 -165h-128z" />
    <glyph glyph-name="Ygrave.sc" horiz-adv-x="604" 
d="M215 0v225l-218 349h198l106 -202l108 202h198l-217 -347l1 -227h-176zM424 611h-151l-174 143h198z" />
    <glyph glyph-name="Ydieresis.sc" horiz-adv-x="604" 
d="M215 0v225l-218 349h198l106 -202l108 202h198l-217 -347l1 -227h-176zM329 621v130h138v-130h-138zM139 621v130h138v-130h-138z" />
    <glyph glyph-name="Yacute.sc" horiz-adv-x="604" 
d="M215 0v225l-218 349h198l106 -202l108 202h198l-217 -347l1 -227h-176zM335 611h-150l126 143h199z" />
    <glyph glyph-name="Y.sc" horiz-adv-x="604" 
d="M215 0v225l-218 349h198l106 -202l108 202h198l-217 -347l1 -227h-176z" />
    <glyph glyph-name="Xsuperior" horiz-adv-x="447" 
d="M7 805h149l67 -132l68 132h148l-136 -207l144 -213h-153l-71 128l-72 -128h-152l145 213z" />
    <glyph glyph-name="Xinferior" horiz-adv-x="447" 
d="M7 270h149l67 -132l68 132h148l-136 -207l144 -213h-153l-71 128l-72 -128h-152l145 213z" />
    <glyph glyph-name="minferior" horiz-adv-x="616" 
d="M163 165v-34c23 19 63 41 107 41c49 0 78 -17 92 -49c23 21 67 49 116 49c71 0 102 -36 102 -102v-220h-124v190c0 22 -2 38 -27 38c-20 0 -43 -14 -57 -28v-200h-124v190c0 22 -3 38 -28 38c-21 0 -43 -15 -57 -29v-199h-124v315h124z" />
    <glyph glyph-name="X.sc" horiz-adv-x="609" 
d="M7 574h203l94 -180l94 180h205l-190 -282l201 -292h-211l-99 175l-99 -175h-209l198 293z" />
    <glyph glyph-name="Wsuperior" horiz-adv-x="631" 
d="M380 385l-65 242l-65 -242h-123l-124 420h147l52 -243l64 243h99l64 -245l52 245h147l-123 -420h-125z" />
    <glyph glyph-name="Winferior" horiz-adv-x="630" 
d="M379 -150l-65 242l-65 -242h-123l-124 420h147l52 -243l64 243h99l64 -245l52 245h147l-123 -420h-125z" />
    <glyph glyph-name="Wgrave.sc" horiz-adv-x="878" 
d="M530 0l-91 340l-89 -340h-171l-171 574h203l72 -339l88 339h136l87 -340l74 340h202l-170 -574h-170zM558 611h-150l-175 143h198z" />
    <glyph glyph-name="Wdieresis.sc" horiz-adv-x="878" 
d="M530 0l-91 340l-89 -340h-171l-171 574h203l72 -339l88 339h136l87 -340l74 340h202l-170 -574h-170zM277 621v130h138v-130h-138zM466 621v130h137v-130h-137z" />
    <glyph glyph-name="Wcircumflex.sc" horiz-adv-x="878" 
d="M530 0l-91 340l-89 -340h-171l-171 574h203l72 -339l88 339h136l87 -340l74 340h202l-170 -574h-170zM525 754l110 -143h-125l-70 67l-70 -67h-125l110 143h170z" />
    <glyph glyph-name="Wacute.sc" horiz-adv-x="878" 
d="M530 0l-91 340l-89 -340h-171l-171 574h203l72 -339l88 339h136l87 -340l74 340h202l-170 -574h-170zM472 611h-150l127 143h198z" />
    <glyph glyph-name="W.sc" horiz-adv-x="878" 
d="M530 0l-91 340l-89 -340h-171l-171 574h203l72 -339l88 339h136l87 -340l74 340h202l-170 -574h-170z" />
    <glyph glyph-name="Vsuperior" horiz-adv-x="460" 
d="M147 805l83 -274l83 274h150l-161 -420h-143l-162 420h150z" />
    <glyph glyph-name="Vinferior" horiz-adv-x="460" 
d="M147 270l83 -273l83 273h150l-161 -420h-143l-162 420h150z" />
    <glyph glyph-name="nine.dnom" horiz-adv-x="427" 
d="M119 95c52 0 106 17 134 73c-19 -11 -50 -21 -89 -21c-81 0 -143 50 -143 130c0 81 67 150 182 150c138 0 197 -89 197 -185c0 -143 -111 -249 -280 -249c-43 0 -71 7 -71 7l29 99s18 -4 41 -4zM207 240c30 0 52 11 64 21c-1 54 -39 64 -65 64c-43 0 -58 -24 -58 -43
c0 -26 23 -42 59 -42z" />
    <glyph glyph-name="nine.numr" horiz-adv-x="427" 
d="M119 375c52 0 106 17 134 73c-19 -11 -50 -21 -89 -21c-81 0 -143 50 -143 130c0 81 67 150 182 150c138 0 197 -89 197 -185c0 -143 -111 -249 -280 -249c-43 0 -71 7 -71 7l29 99s18 -4 41 -4zM207 520c30 0 52 11 64 21c-1 54 -39 64 -65 64c-43 0 -58 -24 -58 -43
c0 -26 23 -42 59 -42z" />
    <glyph glyph-name="nine.onum" horiz-adv-x="639" 
d="M174 8c85 0 181 32 223 146c-30 -21 -81 -44 -151 -44c-130 0 -227 85 -227 218c0 134 106 247 286 247c216 0 308 -147 308 -302c0 -252 -181 -420 -438 -420c-67 0 -112 11 -112 11l45 149s29 -5 66 -5zM310 251c53 0 91 26 109 47c-1 92 -61 122 -109 122
c-72 0 -99 -45 -99 -84c0 -49 38 -85 99 -85z" />
    <glyph glyph-name="nine.tnum" horiz-adv-x="705" 
d="M203 144c85 0 181 32 223 146c-30 -21 -82 -44 -150 -44c-130 0 -227 85 -227 218c0 134 106 247 286 247c215 0 308 -147 308 -302c0 -252 -181 -420 -439 -420c-66 0 -111 11 -111 11l44 149s30 -5 66 -5zM340 387c53 0 91 26 109 47c-1 92 -61 122 -109 122
c-72 0 -99 -45 -99 -84c0 -49 37 -85 99 -85z" />
    <glyph glyph-name="V.sc" horiz-adv-x="648" 
d="M208 574l115 -377l117 377h205l-224 -574h-195l-223 574h205z" />
    <glyph glyph-name="Utilde.sc" horiz-adv-x="644" 
d="M198 614l-78 39c29 56 57 117 123 117c57 0 115 -47 148 -47c12 0 28 4 52 46l79 -39c-29 -56 -57 -117 -123 -117c-57 0 -115 47 -148 47c-13 0 -29 -4 -53 -46zM596 574v-320c0 -146 -46 -263 -274 -263s-274 117 -274 263v320h176v-337c0 -55 16 -97 98 -97
c81 0 98 42 98 97v337h176z" />
    <glyph glyph-name="ninferior" horiz-adv-x="423" 
d="M163 165v-31c32 20 72 38 122 38c71 0 102 -36 102 -102v-220h-124v190c0 22 -6 38 -31 38c-23 0 -49 -12 -69 -29v-199h-124v315h124z" />
    <glyph glyph-name="Usuperior" horiz-adv-x="482" 
d="M439 805v-234c0 -107 -33 -193 -198 -193c-166 0 -199 86 -199 193v234h128v-248c0 -39 11 -70 71 -70c58 0 70 31 70 70v248h128z" />
    <glyph glyph-name="Uring.sc" horiz-adv-x="644" 
d="M204 719c0 64 52 117 117 117s117 -53 117 -117c0 -65 -52 -118 -117 -118s-117 53 -117 118zM288 719c0 -19 14 -34 33 -34s34 15 34 34c0 18 -15 33 -34 33s-33 -15 -33 -33zM596 574v-320c0 -146 -46 -263 -274 -263s-274 117 -274 263v320h176v-337
c0 -55 16 -97 98 -97c81 0 98 42 98 97v337h176z" />
    <glyph glyph-name="Uogonek.sc" horiz-adv-x="644" 
d="M329 -93c0 -38 56 -31 73 -31l-16 -77c-31 0 -171 -10 -171 91c0 43 34 76 81 102c-206 8 -248 121 -248 262v320h176v-337c0 -55 16 -97 98 -97c81 0 97 42 97 97v337h176v-320c0 -122 -32 -223 -174 -254c-37 -21 -92 -56 -92 -93z" />
    <glyph glyph-name="Umacron.sc" horiz-adv-x="644" 
d="M596 574v-320c0 -146 -46 -263 -274 -263s-274 117 -274 263v320h176v-337c0 -55 16 -97 98 -97c81 0 98 42 98 97v337h176zM163 636v105h318v-105h-318z" />
    <glyph glyph-name="numbersign.onum" horiz-adv-x="643" 
d="M323 0l18 112h-97l-18 -112h-128l18 112h-87v125h107l16 100h-87v125h108l18 112h129l-18 -112h95l18 112h128l-18 -112h88v-125h-108l-16 -100h88v-125h-108l-18 -112h-128zM281 337l-16 -100h96l16 100h-96z" />
    <glyph glyph-name="numbersigninferior" horiz-adv-x="469" 
d="M236 -150l13 82h-69l-13 -82h-94l13 82h-63v91h78l12 74h-63v92h78l13 81h93l-13 -81h69l13 81h93l-13 -81h63v-92h-78l-12 -74h64v-91h-78l-13 -82h-93zM206 97l-12 -74h69l12 74h-69z" />
    <glyph glyph-name="numbersignsuperior" horiz-adv-x="470" 
d="M236 385l13 82h-69l-13 -82h-94l13 82h-63v91h78l12 74h-63v92h78l13 81h93l-13 -81h69l13 81h93l-13 -81h63v-92h-78l-12 -74h64v-91h-78l-13 -82h-93zM206 632l-12 -74h69l12 74h-69z" />
    <glyph glyph-name="Uinferior" horiz-adv-x="482" 
d="M439 270v-234c0 -107 -33 -193 -198 -193c-166 0 -199 86 -199 193v234h128v-248c0 -39 11 -70 71 -70c58 0 70 31 70 70v248h128z" />
    <glyph glyph-name="Uhungarumlaut.sc" horiz-adv-x="644" 
d="M596 574v-320c0 -146 -46 -263 -274 -263s-274 117 -274 263v320h176v-337c0 -55 16 -97 98 -97c81 0 98 42 98 97v337h176zM456 611h-109l83 143h157zM263 611h-109l83 143h157z" />
    <glyph glyph-name="Ugrave.sc" horiz-adv-x="644" 
d="M596 574v-320c0 -146 -46 -263 -274 -263s-274 117 -274 263v320h176v-337c0 -55 16 -97 98 -97c81 0 98 42 98 97v337h176zM439 611h-150l-175 143h199z" />
    <glyph glyph-name="Udieresis.sc" horiz-adv-x="644" 
d="M596 574v-320c0 -146 -46 -263 -274 -263s-274 117 -274 263v320h176v-337c0 -55 16 -97 98 -97c81 0 98 42 98 97v337h176zM159 621v130h137v-130h-137zM348 621v130h137v-130h-137z" />
    <glyph glyph-name="Ucircumflex.sc" horiz-adv-x="644" 
d="M596 574v-320c0 -146 -46 -263 -274 -263s-274 117 -274 263v320h176v-337c0 -55 16 -97 98 -97c81 0 98 42 98 97v337h176zM407 754l110 -143h-125l-71 67l-70 -67h-124l109 143h171z" />
    <glyph glyph-name="Ubreve.sc" horiz-adv-x="644" 
d="M320 611c-111 0 -177 51 -177 133h110c0 -22 25 -37 67 -37c45 0 70 15 70 37h110c0 -82 -66 -133 -180 -133zM596 574v-320c0 -146 -46 -263 -274 -263s-274 117 -274 263v320h176v-337c0 -55 16 -97 98 -97c81 0 98 42 98 97v337h176z" />
    <glyph glyph-name="Uacute.sc" horiz-adv-x="644" 
d="M596 574v-320c0 -146 -46 -263 -274 -263s-274 117 -274 263v320h176v-337c0 -55 16 -97 98 -97c81 0 98 42 98 97v337h176zM355 611h-150l126 143h199z" />
    <glyph glyph-name="U.sc" horiz-adv-x="644" 
d="M596 574v-320c0 -146 -46 -263 -274 -263s-274 117 -274 263v320h176v-337c0 -55 16 -97 98 -97c81 0 98 42 98 97v337h176z" />
    <glyph glyph-name="Tsuperior" horiz-adv-x="398" 
d="M387 698h-123v-313h-129v313h-123v107h375v-107z" />
    <glyph glyph-name="oinferior" horiz-adv-x="404" 
d="M385 7c0 -105 -65 -164 -183 -164s-184 60 -184 165c0 104 65 164 184 164c118 0 183 -60 183 -165zM261 7c0 46 -18 72 -59 72s-60 -25 -60 -71s19 -72 60 -72s59 25 59 71z" />
    <glyph glyph-name="Tinferior" horiz-adv-x="398" 
d="M387 163h-123v-313h-129v313h-123v107h375v-107z" />
    <glyph glyph-name="Thorn.sc" horiz-adv-x="614" 
d="M592 296c0 -122 -79 -195 -258 -195h-103v-101h-176v574h176v-82h103c179 0 258 -74 258 -196zM414 296c0 44 -36 51 -117 51h-66v-103h66c81 0 117 8 117 52z" />
    <glyph glyph-name="one.dnom" horiz-adv-x="302" 
d="M252 0h-129v304l-74 -37l-51 82l131 71h123v-420z" />
    <glyph glyph-name="one.numr" horiz-adv-x="302" 
d="M252 280h-129v304l-74 -37l-51 82l131 71h123v-420z" />
    <glyph glyph-name="one.onum" horiz-adv-x="443" 
d="M384 0h-192v399l-120 -63l-74 123l203 115h183v-574z" />
    <glyph glyph-name="one.tnum" horiz-adv-x="705" 
d="M61 0v158h205v367l-131 -67l-74 124l215 118h182v-542h206v-158h-603z" />
    <glyph glyph-name="Tcedilla.sc" horiz-adv-x="544" 
d="M136 -168l34 86c21 -10 36 -11 46 -11c23 0 43 7 43 32s-21 55 -25 61h-49v426h-171v148h516v-148h-168v-426h-49c4 -5 39 -46 39 -94c0 -70 -57 -97 -122 -97c-29 0 -66 6 -94 23z" />
    <glyph glyph-name="oneeighth.onum" horiz-adv-x="804" 
d="M439 95c0 48 37 76 79 94c-35 20 -56 44 -56 75c0 50 51 86 144 86c92 0 142 -37 142 -86c0 -34 -24 -57 -55 -75c42 -18 79 -46 79 -94c0 -61 -61 -101 -166 -101c-108 0 -167 40 -167 101zM555 574l-285 -574h-110l286 574h109zM225 230h-101v253l-65 -31l-40 65
l110 57h96v-344zM671 104c0 23 -33 38 -65 49c-36 -13 -65 -27 -65 -49c0 -20 26 -35 65 -35c38 0 65 15 65 35zM562 251c0 -16 19 -25 42 -32c23 7 45 16 45 32c0 11 -14 27 -43 27s-44 -16 -44 -27z" />
    <glyph glyph-name="onefifth" horiz-adv-x="944" 
d="M556 205l24 215h306v-105h-198l-2 -39c17 4 34 6 54 6c113 0 164 -68 164 -141c0 -77 -56 -148 -178 -148c-90 0 -161 41 -192 60l55 92c24 -16 69 -43 119 -43c38 0 65 12 65 38c0 20 -19 41 -65 41c-31 0 -56 -9 -81 -21zM654 700l-326 -700h-138l327 700h137zM272 280
h-128v304l-75 -37l-50 82l131 71h122v-420z" />
    <glyph glyph-name="onefifth.onum" horiz-adv-x="804" 
d="M474 169l20 175h258v-82h-173l-3 -38c16 3 32 6 51 6c95 0 140 -55 140 -115c0 -63 -48 -121 -152 -121c-76 0 -134 33 -161 49l45 71c19 -13 59 -35 102 -35c36 0 63 12 63 35c0 19 -19 37 -62 37c-29 0 -52 -8 -73 -18zM555 574l-285 -574h-110l286 574h109zM225 230
h-101v253l-65 -31l-40 65l110 57h96v-344z" />
    <glyph glyph-name="Tcaron.sc" horiz-adv-x="544" 
d="M530 426h-168v-426h-177v426h-171v148h516v-148zM467 754l-110 -143h-170l-110 143h124l70 -67l71 67h125z" />
    <glyph glyph-name="onehalf.onum" horiz-adv-x="798" 
d="M225 230h-101v253l-65 -31l-40 65l110 57h96v-344zM555 574l-285 -574h-110l286 574h109zM759 83v-83h-307v39c0 69 62 114 118 145c48 26 85 39 85 61c0 11 -15 22 -46 22c-38 0 -81 -20 -104 -32l-44 63c26 16 85 52 163 52c91 0 135 -47 135 -101
c0 -69 -69 -102 -123 -126c-32 -14 -61 -29 -61 -40h184z" />
    <glyph glyph-name="Tbar.sc" horiz-adv-x="550" 
d="M115 161v94h73v171h-171v148h516v-148h-168v-171h73v-94h-73v-161h-177v161h-73z" />
    <glyph glyph-name="T.sc" horiz-adv-x="544" 
d="M530 426h-168v-426h-177v426h-171v148h516v-148z" />
    <glyph glyph-name="onequarter.onum" horiz-adv-x="794" 
d="M602 0v58h-202v68l168 218h136v-204h58v-82h-58v-58h-102zM555 574l-285 -574h-110l286 574h109zM225 230h-101v253l-65 -31l-40 65l110 57h96v-344zM507 140h95v128z" />
    <glyph glyph-name="onesixth" horiz-adv-x="914" 
d="M778 325c-52 0 -108 -17 -135 -75c19 11 49 23 90 23c82 0 144 -50 144 -130c0 -81 -68 -150 -183 -150c-138 0 -198 88 -198 184c0 144 112 250 281 250c43 0 72 -7 72 -7l-30 -99s-18 4 -41 4zM654 700l-326 -700h-138l327 700h137zM272 280h-128v304l-75 -37l-50 82
l131 71h122v-420zM690 180c-32 0 -54 -12 -65 -23c1 -53 39 -62 65 -62c43 0 59 24 59 42c0 26 -24 43 -59 43z" />
    <glyph glyph-name="onesixth.onum" horiz-adv-x="778" 
d="M660 270c-49 0 -99 -16 -123 -67c17 10 44 20 82 20c73 0 125 -41 125 -106c0 -66 -57 -123 -155 -123c-116 0 -167 73 -167 151c0 118 95 205 237 205c37 0 61 -6 61 -6l-23 -77s-16 3 -37 3zM555 574l-285 -574h-110l286 574h109zM225 230h-101v253l-65 -31l-40 65
l110 57h96v-344zM587 151c-32 0 -54 -13 -63 -22c1 -42 34 -54 62 -54c41 0 57 20 57 38c0 22 -21 38 -56 38z" />
    <glyph glyph-name="Ssuperior" horiz-adv-x="436" 
d="M307 634c43 -17 107 -49 107 -120c0 -76 -58 -136 -172 -136c-89 0 -174 33 -221 62l57 90c38 -20 113 -47 157 -47c25 0 44 6 44 19c0 28 -67 24 -144 54c-47 17 -104 54 -104 122c0 74 56 134 169 134c75 0 151 -23 202 -48l-57 -91c-33 14 -96 34 -135 34
c-24 0 -45 -5 -45 -20c0 -27 63 -24 142 -53z" />
    <glyph glyph-name="Sinferior" horiz-adv-x="436" 
d="M306 99c43 -17 107 -49 107 -120c0 -76 -58 -136 -172 -136c-89 0 -174 33 -221 62l57 90c38 -20 113 -47 157 -47c25 0 44 6 44 19c0 28 -67 24 -144 54c-47 17 -104 54 -104 122c0 74 56 134 169 134c75 0 151 -23 202 -48l-57 -91c-33 14 -96 34 -135 34
c-24 0 -45 -5 -45 -20c0 -27 63 -24 142 -53z" />
    <glyph glyph-name="onethird.onum" horiz-adv-x="797" 
d="M225 230h-101v253l-65 -31l-40 65l110 57h96v-344zM555 574l-285 -574h-110l286 574h109zM444 43l44 67c52 -27 88 -33 116 -33c35 0 56 10 56 29c0 33 -62 32 -101 32h-17v83h21c31 0 82 0 82 27c0 12 -13 19 -41 19c-36 0 -78 -17 -102 -29l-41 62c18 13 75 50 160 50
c87 0 125 -39 125 -85c0 -39 -24 -61 -60 -75c44 -13 77 -46 77 -87c0 -53 -36 -109 -146 -109c-85 0 -150 36 -173 49z" />
    <glyph glyph-name="Scommaaccent.sc" horiz-adv-x="580" 
d="M233 -188v135h129l8 -152l-105 -107l-34 42l60 82h-58zM412 340c64 -25 149 -67 149 -167c0 -99 -81 -182 -241 -182c-118 0 -238 46 -302 84l77 124c54 -29 156 -64 220 -64c30 0 59 7 59 27c0 35 -98 35 -199 74c-64 25 -144 68 -144 167s78 180 237 180
c99 0 204 -30 277 -65l-79 -127c-51 21 -133 47 -191 47c-30 0 -57 -6 -57 -26c0 -36 93 -33 194 -72z" />
    <glyph glyph-name="Scircumflex.sc" horiz-adv-x="580" 
d="M376 754l109 -143h-124l-71 67l-70 -67h-124l110 143h170zM412 340c64 -25 149 -67 149 -167c0 -99 -81 -182 -241 -182c-118 0 -238 46 -302 84l77 124c54 -29 156 -64 220 -64c30 0 59 7 59 27c0 35 -98 35 -199 74c-64 25 -144 68 -144 167s78 180 237 180
c99 0 204 -30 277 -65l-79 -127c-51 21 -133 47 -191 47c-30 0 -57 -6 -57 -26c0 -36 93 -33 194 -72z" />
    <glyph glyph-name="Scedilla.sc" horiz-adv-x="581" 
d="M412 340c64 -25 149 -67 149 -167c0 -89 -66 -165 -195 -179c10 -14 33 -49 33 -88c0 -70 -57 -97 -122 -97c-29 0 -66 6 -94 23l34 86c21 -10 37 -11 47 -11c23 0 43 7 43 32c0 20 -13 42 -21 54c-106 7 -210 47 -268 82l77 124c54 -29 156 -64 220 -64c30 0 59 7 59 27
c0 35 -98 35 -199 74c-64 25 -144 68 -144 167s78 180 237 180c99 0 204 -30 277 -65l-79 -127c-51 21 -133 47 -191 47c-30 0 -57 -6 -57 -26c0 -36 93 -33 194 -72z" />
    <glyph glyph-name="Scaron.sc" horiz-adv-x="580" 
d="M484 754l-109 -143h-170l-110 143h124l70 -67l71 67h124zM412 340c64 -25 149 -67 149 -167c0 -99 -81 -182 -241 -182c-118 0 -238 46 -302 84l77 124c54 -29 156 -64 220 -64c30 0 59 7 59 27c0 35 -98 35 -199 74c-64 25 -144 68 -144 167s78 180 237 180
c99 0 204 -30 277 -65l-79 -127c-51 21 -133 47 -191 47c-30 0 -57 -6 -57 -26c0 -36 93 -33 194 -72z" />
    <glyph glyph-name="Sacute.sc" horiz-adv-x="580" 
d="M323 611h-150l126 143h199zM412 340c64 -25 149 -67 149 -167c0 -99 -81 -182 -241 -182c-118 0 -238 46 -302 84l77 124c54 -29 156 -64 220 -64c30 0 59 7 59 27c0 35 -98 35 -199 74c-64 25 -144 68 -144 167s78 180 237 180c99 0 204 -30 277 -65l-79 -127
c-51 21 -133 47 -191 47c-30 0 -57 -6 -57 -26c0 -36 93 -33 194 -72z" />
    <glyph glyph-name="S.sc" horiz-adv-x="580" 
d="M412 340c64 -25 149 -67 149 -167c0 -99 -81 -182 -241 -182c-118 0 -238 46 -302 84l77 124c54 -29 156 -64 220 -64c30 0 59 7 59 27c0 35 -98 35 -199 74c-64 25 -144 68 -144 167s78 180 237 180c99 0 204 -30 277 -65l-79 -127c-51 21 -133 47 -191 47
c-30 0 -57 -6 -57 -26c0 -36 93 -33 194 -72z" />
    <glyph glyph-name="Rsuperior" horiz-adv-x="480" 
d="M316 385l-93 148h-45v-148h-128v420h215c131 0 187 -47 187 -137c0 -66 -31 -109 -100 -126l101 -157h-137zM323 668c0 34 -28 39 -67 39h-78v-76h77c40 0 68 5 68 37z" />
    <glyph glyph-name="Rinferior" horiz-adv-x="480" 
d="M316 -150l-93 148h-45v-148h-128v420h215c131 0 187 -47 187 -137c0 -66 -31 -109 -100 -126l101 -157h-137zM323 133c0 34 -28 39 -67 39h-78v-76h77c40 0 68 5 68 37z" />
    <glyph glyph-name="paragraph.sc" horiz-adv-x="677" 
d="M278 574h140v-726h-142v294c-133 0 -254 59 -254 217c0 156 110 215 256 215zM472 -153v727h142v-727h-142z" />
    <glyph glyph-name="Rcommaaccent.sc" horiz-adv-x="638" 
d="M424 0l-128 202h-65v-202h-176v574h297c181 0 259 -64 259 -186c0 -92 -43 -150 -140 -174l141 -214h-188zM250 -188v135h129l8 -152l-105 -107l-34 42l59 82h-57zM432 388c0 43 -39 51 -91 51h-110v-102h109c53 0 92 6 92 51z" />
    <glyph glyph-name="parenleft.sc" horiz-adv-x="331" 
d="M51 117v336c0 131 0 190 220 235l41 -90c-82 -27 -85 -47 -85 -97v-431c0 -50 3 -71 85 -97l-41 -90c-220 45 -220 104 -220 234z" />
    <glyph glyph-name="Rcaron.sc" horiz-adv-x="638" 
d="M424 0l-128 202h-65v-202h-176v574h297c181 0 259 -64 259 -186c0 -92 -43 -150 -140 -174l141 -214h-188zM528 754l-110 -143h-170l-109 143h125l70 -67l70 67h124zM432 388c0 43 -39 51 -91 51h-110v-102h109c53 0 92 6 92 51z" />
    <glyph glyph-name="Racute.sc" horiz-adv-x="638" 
d="M424 0l-128 202h-65v-202h-176v574h297c181 0 259 -64 259 -186c0 -92 -43 -150 -140 -174l141 -214h-188zM367 611h-151l126 143h199zM432 388c0 43 -39 51 -91 51h-110v-102h109c53 0 92 6 92 51z" />
    <glyph glyph-name="R.sc" horiz-adv-x="638" 
d="M424 0l-128 202h-65v-202h-176v574h297c181 0 259 -64 259 -186c0 -92 -43 -150 -140 -174l141 -214h-188zM432 388c0 43 -39 51 -91 51h-110v-102h109c53 0 92 6 92 51z" />
    <glyph glyph-name="parenright.sc" horiz-adv-x="330" 
d="M280 453v-336c0 -130 0 -189 -219 -234l-42 90c82 26 85 47 85 97v431c0 50 -3 70 -85 97l42 90c219 -45 219 -104 219 -235z" />
    <glyph glyph-name="f_b.ss01" horiz-adv-x="1050" 
d="M15 391v134h72c1 135 59 204 188 204c68 0 136 -15 188 -30v30h184v-255c45 36 93 62 168 62c127 0 209 -95 209 -274c0 -177 -82 -273 -209 -273c-75 0 -123 26 -168 61v-50h-184v560c-25 4 -101 19 -140 19c-22 0 -53 -3 -53 -46v-8h125v-134h-125v-391h-183v391h-72z
M755 389c-32 0 -72 -15 -108 -56v-142c36 -40 75 -55 108 -55c54 0 82 42 82 127c0 84 -28 126 -82 126z" />
    <glyph glyph-name="Qinferior" horiz-adv-x="507" 
d="M254 -157c-161 0 -227 95 -227 217s66 217 227 217s227 -95 227 -217c0 -80 -29 -149 -95 -186l65 -49l-83 -86zM254 -48c69 0 96 44 96 108s-27 108 -96 108s-96 -44 -96 -108s27 -108 96 -108z" />
    <glyph glyph-name="Q.sc" horiz-adv-x="682" 
d="M341 -9c-223 0 -313 131 -313 296c0 166 90 296 313 296s313 -130 313 -296c0 -110 -40 -205 -132 -256l90 -65l-116 -118zM341 140c96 0 132 60 132 147s-36 147 -132 147s-133 -60 -133 -147s37 -147 133 -147z" />
    <glyph glyph-name="Psuperior" horiz-adv-x="454" 
d="M438 661c0 -89 -55 -141 -186 -141h-74v-135h-128v420h202c131 0 186 -54 186 -144zM309 661c0 33 -28 39 -66 39h-65v-77h65c38 0 66 6 66 38z" />
    <glyph glyph-name="percent.onum" horiz-adv-x="897" 
d="M872 144c0 -92 -62 -153 -177 -153c-116 0 -178 61 -178 153s62 154 178 154c115 0 177 -62 177 -154zM751 144c0 36 -22 55 -56 55c-36 0 -57 -19 -57 -55c0 -37 21 -54 57 -54c34 0 56 17 56 54zM668 574l-312 -574h-128l312 574h128zM381 429
c0 -92 -63 -153 -177 -153c-116 0 -179 61 -179 153s63 154 179 154c114 0 177 -62 177 -154zM259 429c0 36 -22 55 -55 55c-36 0 -57 -19 -57 -55c0 -37 21 -54 57 -54c33 0 55 17 55 54z" />
    <glyph glyph-name="percentinferior" horiz-adv-x="636" 
d="M269 164c0 -69 -43 -112 -129 -112s-129 43 -129 112s43 113 129 113s129 -44 129 -113zM181 164c0 28 -14 41 -41 41c-26 0 -39 -13 -39 -41c0 -29 13 -40 39 -40c27 0 41 11 41 40zM478 270l-230 -427h-93l229 427h94zM625 -44c0 -70 -43 -113 -128 -113
c-87 0 -129 43 -129 113c0 69 42 112 129 112c85 0 128 -43 128 -112zM537 -44c0 28 -14 40 -40 40c-27 0 -41 -12 -41 -40c0 -29 14 -41 41 -41c26 0 40 12 40 41z" />
    <glyph glyph-name="percentsuperior" horiz-adv-x="636" 
d="M269 699c0 -69 -43 -112 -129 -112s-129 43 -129 112s43 113 129 113s129 -44 129 -113zM181 699c0 28 -14 41 -41 41c-26 0 -39 -13 -39 -41c0 -29 13 -40 39 -40c27 0 41 11 41 40zM478 805l-230 -427h-93l229 427h94zM625 491c0 -70 -43 -113 -128 -113
c-87 0 -129 43 -129 113c0 69 42 112 129 112c85 0 128 -43 128 -112zM537 491c0 28 -14 40 -40 40c-27 0 -41 -12 -41 -40c0 -29 14 -41 41 -41c26 0 40 12 40 41z" />
    <glyph glyph-name="Pinferior" horiz-adv-x="454" 
d="M438 126c0 -89 -55 -141 -186 -141h-74v-135h-128v420h202c131 0 186 -54 186 -144zM309 126c0 33 -28 39 -66 39h-65v-77h65c38 0 66 6 66 38z" />
    <glyph glyph-name="P.sc" horiz-adv-x="605" 
d="M592 378c0 -123 -79 -195 -258 -195h-103v-183h-176v574h279c179 0 258 -74 258 -196zM414 378c0 43 -40 51 -92 51h-91v-103h91c52 0 92 8 92 52z" />
    <glyph glyph-name="Otilde.sc" horiz-adv-x="682" 
d="M341 583c223 0 313 -130 313 -296c0 -165 -90 -296 -313 -296s-313 131 -313 296c0 166 90 296 313 296zM341 140c96 0 132 60 132 147s-36 147 -132 147s-133 -60 -133 -147s37 -147 133 -147zM218 614l-78 39c29 56 57 117 123 117c56 0 115 -47 147 -47
c13 0 29 4 53 46l78 -39c-28 -56 -57 -117 -123 -117c-56 0 -115 47 -147 47c-13 0 -29 -4 -53 -46z" />
    <glyph glyph-name="Osuperior" horiz-adv-x="507" 
d="M254 812c161 0 227 -95 227 -217s-66 -217 -227 -217s-227 95 -227 217s66 217 227 217zM254 487c69 0 95 44 95 108s-26 108 -95 108c-70 0 -96 -44 -96 -108s26 -108 96 -108z" />
    <glyph glyph-name="Oslashacute.sc" horiz-adv-x="682" 
d="M644 574l-64 -76c51 -53 74 -128 74 -211c0 -165 -90 -296 -313 -296c-66 0 -121 11 -165 32l-19 -23h-118l64 75c-52 53 -75 128 -75 212c0 166 90 296 313 296c67 0 122 -12 166 -33l20 24h117zM374 611h-149l126 143h199zM208 287c0 -28 3 -53 12 -74l180 211
c-17 7 -36 10 -59 10c-96 0 -133 -60 -133 -147zM341 140c96 0 132 60 132 147c0 27 -3 51 -11 72l-179 -210c16 -6 36 -9 58 -9z" />
    <glyph glyph-name="perthousand.onum" horiz-adv-x="1291" 
d="M382 429c0 -92 -63 -153 -177 -153c-116 0 -179 61 -179 153s63 154 179 154c114 0 177 -62 177 -154zM260 429c0 36 -22 55 -55 55c-36 0 -57 -19 -57 -55c0 -37 21 -54 57 -54c33 0 55 17 55 54zM873 144c0 -92 -62 -153 -177 -153c-116 0 -178 61 -178 153
s62 154 178 154c115 0 177 -62 177 -154zM752 144c0 36 -22 55 -56 55c-36 0 -57 -19 -57 -55c0 -37 21 -54 57 -54c34 0 56 17 56 54zM1266 144c0 -92 -61 -153 -177 -153s-179 61 -179 153s63 154 179 154s177 -62 177 -154zM1144 144c0 36 -20 55 -55 55
c-36 0 -57 -19 -57 -55c0 -37 21 -54 57 -54c35 0 55 17 55 54zM669 574l-312 -574h-128l312 574h128z" />
    <glyph glyph-name="Omacron.sc" horiz-adv-x="682" 
d="M341 583c223 0 313 -130 313 -296c0 -165 -90 -296 -313 -296s-313 131 -313 296c0 166 90 296 313 296zM341 140c96 0 132 60 132 147s-36 147 -132 147s-133 -60 -133 -147s37 -147 133 -147zM182 636v105h317v-105h-317z" />
    <glyph glyph-name="peseta.onum" horiz-adv-x="650" 
d="M45 357v42h24v175h278c168 0 248 -66 257 -175h24v-42h-24c-9 -110 -89 -174 -257 -174h-102v-183h-176v357h-24zM335 326c42 0 76 5 88 31h-178v-31h90zM245 429v-30h178c-12 25 -46 30 -88 30h-90z" />
    <glyph glyph-name="pesetainferior" horiz-adv-x="465" 
d="M34 110v33h17v127h202c122 0 179 -48 186 -127h18v-33h-18c-6 -79 -63 -125 -186 -125h-73v-135h-129v260h-17zM244 88c29 0 54 4 63 22h-127v-22h64zM180 165v-22h127c-9 18 -34 22 -63 22h-64z" />
    <glyph glyph-name="pesetasuperior" horiz-adv-x="465" 
d="M34 645v33h17v127h202c122 0 179 -48 186 -127h18v-33h-18c-6 -79 -63 -125 -186 -125h-73v-135h-129v260h-17zM244 623c29 0 54 4 63 22h-127v-22h64zM180 700v-22h127c-9 18 -34 22 -63 22h-64z" />
    <glyph glyph-name="Oinferior" horiz-adv-x="507" 
d="M254 277c161 0 227 -95 227 -217s-66 -217 -227 -217s-227 95 -227 217s66 217 227 217zM254 -48c69 0 95 44 95 108s-26 108 -95 108c-70 0 -96 -44 -96 -108s26 -108 96 -108z" />
    <glyph glyph-name="pinferior" horiz-adv-x="419" 
d="M163 165v-29c30 21 58 36 105 36c81 0 131 -59 131 -165c0 -104 -50 -164 -131 -164c-47 0 -75 15 -105 36v-151h-124v437h124zM228 74c-20 0 -43 -7 -65 -30v-73c22 -23 45 -30 65 -30c31 0 47 21 47 67c0 45 -16 66 -47 66z" />
    <glyph glyph-name="Ohungarumlaut.sc" horiz-adv-x="682" 
d="M341 583c223 0 313 -130 313 -296c0 -165 -90 -296 -313 -296s-313 131 -313 296c0 166 90 296 313 296zM341 140c96 0 132 60 132 147s-36 147 -132 147s-133 -60 -133 -147s37 -147 133 -147zM475 611h-108l82 143h158zM283 611h-109l83 143h157z" />
    <glyph glyph-name="plusinferior" horiz-adv-x="372" 
d="M141 197h92v-101h119v-91h-119v-102h-92v102h-120v91h120v101z" />
    <glyph glyph-name="Ograve.sc" horiz-adv-x="682" 
d="M341 583c223 0 313 -130 313 -296c0 -165 -90 -296 -313 -296s-313 131 -313 296c0 166 90 296 313 296zM341 140c96 0 132 60 132 147s-36 147 -132 147s-133 -60 -133 -147s37 -147 133 -147zM459 611h-150l-175 143h199z" />
    <glyph glyph-name="Odieresis.sc" horiz-adv-x="682" 
d="M341 583c223 0 313 -130 313 -296c0 -165 -90 -296 -313 -296s-313 131 -313 296c0 166 90 296 313 296zM341 140c96 0 132 60 132 147s-36 147 -132 147s-133 -60 -133 -147s37 -147 133 -147zM178 621v130h138v-130h-138zM368 621v130h137v-130h-137z" />
    <glyph glyph-name="Ocircumflex.sc" horiz-adv-x="682" 
d="M341 583c223 0 313 -130 313 -296c0 -165 -90 -296 -313 -296s-313 131 -313 296c0 166 90 296 313 296zM341 140c96 0 132 60 132 147s-36 147 -132 147s-133 -60 -133 -147s37 -147 133 -147zM427 754l109 -143h-124l-71 67l-70 -67h-125l110 143h171z" />
    <glyph glyph-name="psuperior" horiz-adv-x="419" 
d="M163 700v-29c30 21 58 36 105 36c81 0 131 -59 131 -165c0 -104 -50 -164 -131 -164c-47 0 -75 14 -105 35v-150h-124v437h124zM228 609c-20 0 -43 -7 -65 -30v-74c22 -23 45 -29 65 -29c31 0 47 21 47 67c0 45 -16 66 -47 66z" />
    <glyph glyph-name="Obreve.sc" horiz-adv-x="682" 
d="M341 583c223 0 313 -130 313 -296c0 -165 -90 -296 -313 -296s-313 131 -313 296c0 166 90 296 313 296zM341 140c96 0 132 60 132 147s-36 147 -132 147s-133 -60 -133 -147s37 -147 133 -147zM340 611c-112 0 -177 51 -177 133h110c0 -22 25 -37 67 -37
c44 0 70 15 70 37h110c0 -82 -66 -133 -180 -133z" />
    <glyph glyph-name="qinferior" horiz-adv-x="419" 
d="M256 -272v151c-29 -21 -59 -36 -105 -36c-80 0 -131 60 -131 164c0 106 51 165 131 165c46 0 76 -15 105 -36v29h124v-437h-124zM193 -59c19 0 41 7 63 30v73c-22 23 -44 30 -63 30c-31 0 -48 -21 -48 -66c0 -46 17 -67 48 -67z" />
    <glyph glyph-name="qsuperior" horiz-adv-x="419" 
d="M256 263v150c-29 -21 -59 -35 -105 -35c-80 0 -131 60 -131 164c0 106 51 165 131 165c46 0 76 -15 105 -36v29h124v-437h-124zM193 476c19 0 41 6 63 29v74c-22 23 -44 30 -63 30c-31 0 -48 -21 -48 -66c0 -46 17 -67 48 -67z" />
    <glyph glyph-name="Oacute.sc" horiz-adv-x="682" 
d="M341 583c223 0 313 -130 313 -296c0 -165 -90 -296 -313 -296s-313 131 -313 296c0 166 90 296 313 296zM341 140c96 0 132 60 132 147s-36 147 -132 147s-133 -60 -133 -147s37 -147 133 -147zM374 611h-149l126 143h199z" />
    <glyph glyph-name="question.sc" horiz-adv-x="492" 
d="M113 0v156h168v-156h-168zM465 424c0 -116 -106 -158 -208 -184l-8 -40h-103l-9 129c111 20 151 31 151 65c0 18 -18 44 -68 44c-44 0 -91 -19 -129 -41l-71 118c39 21 122 68 231 68c128 0 214 -65 214 -159z" />
    <glyph glyph-name="OE.sc" horiz-adv-x="976" 
d="M943 0h-469v10c-38 -12 -82 -19 -133 -19c-223 0 -313 131 -313 296c0 166 90 296 313 296c51 0 95 -7 133 -20v11h464v-148h-288v-67h234v-144h-234v-67h293v-148zM341 140c96 0 132 60 132 147s-36 147 -132 147s-133 -60 -133 -147s37 -147 133 -147z" />
    <glyph glyph-name="questiondown.sc" horiz-adv-x="493" 
d="M28 150c0 116 107 158 208 183l8 41h103l9 -130c-111 -19 -150 -30 -150 -64c0 -18 17 -44 67 -44c45 0 91 19 128 41l72 -118c-38 -21 -122 -68 -231 -68c-128 0 -214 65 -214 159zM380 574v-156h-168v156h168z" />
    <glyph glyph-name="questiondowninferior" horiz-adv-x="338" 
d="M12 -40c0 83 77 115 152 134l6 30h74l7 -95c-81 -15 -109 -23 -109 -49c0 -12 12 -32 48 -32c32 0 66 14 93 31l52 -86c-27 -15 -88 -50 -167 -50c-94 0 -156 48 -156 117zM268 270v-113h-122v113h122z" />
    <glyph glyph-name="questiondownsuperior" horiz-adv-x="338" 
d="M12 495c0 83 77 115 152 134l6 30h74l7 -95c-81 -15 -109 -23 -109 -49c0 -12 12 -32 48 -32c32 0 66 14 93 31l52 -86c-27 -15 -88 -50 -167 -50c-94 0 -156 48 -156 117zM268 805v-113h-122v113h122z" />
    <glyph glyph-name="questioninferior" horiz-adv-x="338" 
d="M70 -150v113h124v-113h-124zM326 160c0 -83 -76 -115 -151 -134l-6 -30h-74l-6 95c79 15 108 23 108 49c0 12 -12 32 -48 32c-32 0 -66 -14 -93 -31l-52 86c27 15 88 50 167 50c92 0 155 -48 155 -117z" />
    <glyph glyph-name="questionsuperior" horiz-adv-x="338" 
d="M70 385v113h124v-113h-124zM326 695c0 -83 -76 -115 -151 -134l-6 -30h-74l-6 95c79 15 108 23 108 49c0 12 -12 32 -48 32c-32 0 -66 -14 -93 -31l-52 86c27 15 88 50 167 50c92 0 155 -48 155 -117z" />
    <glyph glyph-name="O.sc" horiz-adv-x="682" 
d="M341 583c223 0 313 -130 313 -296c0 -165 -90 -296 -313 -296s-313 131 -313 296c0 166 90 296 313 296zM341 140c96 0 132 60 132 147s-36 147 -132 147s-133 -60 -133 -147s37 -147 133 -147z" />
    <glyph glyph-name="Ntilde.sc" horiz-adv-x="668" 
d="M436 0l-205 327v-327h-176v574h180l203 -324v324h176v-574h-178zM217 614l-78 39c29 56 57 117 123 117c56 0 114 -47 147 -47c13 0 29 4 53 46l78 -39c-28 -56 -57 -117 -123 -117c-57 0 -115 47 -148 47c-12 0 -28 -4 -52 -46z" />
    <glyph glyph-name="Nsuperior" horiz-adv-x="507" 
d="M325 385l-147 234v-234h-128v420h129l148 -234v234h129v-420h-131z" />
    <glyph glyph-name="Ninferior" horiz-adv-x="507" 
d="M325 -150l-147 234v-234h-128v420h129l148 -234v234h129v-420h-131z" />
    <glyph glyph-name="Ncommaaccent.sc" horiz-adv-x="668" 
d="M235 574l203 -324v324h176v-574h-178l-205 327v-327h-176v574h180zM270 -188v135h129l8 -152l-105 -107l-34 42l59 82h-57z" />
    <glyph glyph-name="Ncaron.sc" horiz-adv-x="668" 
d="M235 574l203 -324v324h176v-574h-178l-205 327v-327h-176v574h180zM534 754l-109 -143h-170l-110 143h125l70 -67l71 67h123z" />
    <glyph glyph-name="Nacute.sc" horiz-adv-x="668" 
d="M436 0l-205 327v-327h-176v574h180l203 -324v324h176v-574h-178zM368 611h-150l126 143h200z" />
    <glyph glyph-name="N.sc" horiz-adv-x="668" 
d="M436 0l-205 327v-327h-176v574h180l203 -324v324h176v-574h-178z" />
    <glyph glyph-name="Msuperior" horiz-adv-x="576" 
d="M397 385v224l-76 -154h-67l-76 154v-224h-128v420h130l107 -216l108 216h131v-420h-129z" />
    <glyph glyph-name="Minferior" horiz-adv-x="576" 
d="M397 -150v224l-76 -154h-67l-76 154v-224h-128v420h130l107 -216l108 216h131v-420h-129z" />
    <glyph glyph-name="M.sc" horiz-adv-x="765" 
d="M535 0v317l-110 -221h-83l-111 223v-319h-176v574h180l149 -296l148 296h179v-574h-176z" />
    <glyph glyph-name="Lsuperior" horiz-adv-x="390" 
d="M379 385h-329v420h128v-313h201v-107z" />
    <glyph glyph-name="Lslash.sc" horiz-adv-x="540" 
d="M527 0h-454v168l-59 -32v151l59 32v255h176v-160l113 61v-151l-113 -61v-115h278v-148z" />
    <glyph glyph-name="Linferior" horiz-adv-x="390" 
d="M379 -150h-329v420h128v-313h201v-107z" />
    <glyph glyph-name="rinferior" horiz-adv-x="295" 
d="M163 165v-65c9 22 41 74 122 69v-116c-110 0 -122 -101 -122 -101v-102h-124v315h124z" />
    <glyph glyph-name="Ldot.sc" horiz-adv-x="524" 
d="M510 0h-455v574h176v-429h279v-145zM337 245v130h137v-130h-137z" />
    <glyph glyph-name="Lcommaaccent.sc" horiz-adv-x="522" 
d="M510 0h-455v574h176v-429h279v-145zM211 -188v135h129l8 -152l-105 -107l-33 42l59 82h-58z" />
    <glyph glyph-name="Lcaron.sc" horiz-adv-x="523" 
d="M510 0h-455v574h176v-429h279v-145zM264 439v135h129l9 -152l-106 -107l-33 42l59 82h-58z" />
    <glyph glyph-name="s_h" horiz-adv-x="1184" 
d="M781 729v-259c50 33 115 66 196 66c112 0 162 -62 162 -168v-368h-185v324c0 41 -11 70 -54 70c-42 0 -88 -25 -119 -55v-339h-185v651h-45c-60 0 -100 -29 -100 -89c0 -27 7 -52 20 -70c14 -5 26 -10 37 -15l-70 -119c-50 19 -133 41 -183 41c-29 0 -43 -8 -43 -20
c0 -26 61 -33 133 -51c87 -22 186 -63 186 -174c0 -98 -76 -165 -224 -165c-110 0 -229 37 -291 70l70 129c57 -28 159 -60 217 -60c31 0 42 9 42 19c0 25 -70 35 -136 51c-88 22 -182 68 -182 174c0 92 71 164 217 164c46 0 94 -7 138 -17c-8 18 -13 37 -13 61
c0 87 63 149 194 149h218z" />
    <glyph glyph-name="s_k" horiz-adv-x="1146" 
d="M1129 525l-178 -207l207 -318h-194l-124 188l-59 -68v-120h-185v651h-45c-60 0 -100 -29 -100 -89c0 -27 7 -52 20 -70c14 -5 26 -10 37 -15l-70 -119c-50 19 -133 41 -183 41c-29 0 -43 -8 -43 -20c0 -26 61 -33 133 -51c87 -22 186 -63 186 -174
c0 -98 -76 -165 -224 -165c-110 0 -229 37 -291 70l70 129c57 -28 159 -60 217 -60c31 0 42 9 42 19c0 25 -70 35 -136 51c-88 22 -182 68 -182 174c0 92 71 164 217 164c46 0 94 -7 138 -17c-8 18 -13 37 -13 61c0 87 63 149 194 149h218v-382l138 178h210z" />
    <glyph glyph-name="s_l" horiz-adv-x="832" 
d="M782 0h-185v651h-46c-60 0 -100 -29 -100 -89c0 -27 7 -52 20 -70c14 -5 26 -10 37 -15l-70 -119c-50 19 -133 41 -183 41c-29 0 -43 -8 -43 -20c0 -26 61 -33 133 -51c87 -22 186 -63 186 -174c0 -98 -76 -165 -224 -165c-110 0 -229 37 -291 70l70 129
c57 -28 159 -60 217 -60c31 0 42 9 42 19c0 25 -70 35 -136 51c-88 22 -182 68 -182 174c0 92 71 164 217 164c46 0 94 -7 138 -17c-8 18 -13 37 -13 61c0 87 63 149 194 149h219v-729z" />
    <glyph glyph-name="Lacute.sc" horiz-adv-x="523" 
d="M509 0h-454v574h177v-429h277v-145zM176 611h-150l127 143h198z" />
    <glyph glyph-name="L.sc" horiz-adv-x="523" 
d="M510 0h-455v574h176v-426h279v-148z" />
    <glyph glyph-name="Ksuperior" horiz-adv-x="478" 
d="M50 385v420h128v-171l146 171h150l-175 -197l179 -223h-153l-105 134l-42 -48v-86h-128z" />
    <glyph glyph-name="Kinferior" horiz-adv-x="478" 
d="M50 -150v420h128v-171l146 171h150l-175 -197l179 -223h-153l-105 134l-42 -47v-87h-128z" />
    <glyph glyph-name="Kcommaaccent.sc" horiz-adv-x="639" 
d="M55 0v574h176v-235l202 235h207l-241 -270l246 -304h-209l-146 183l-59 -67v-116h-176zM248 -188v135h129l9 -152l-106 -107l-34 42l59 82h-57z" />
    <glyph glyph-name="K.sc" horiz-adv-x="639" 
d="M55 0v574h176v-235l202 235h207l-241 -270l246 -304h-209l-145 182l-60 -67v-115h-176z" />
    <glyph glyph-name="Jsuperior" horiz-adv-x="228" 
d="M178 805v-372c0 -94 0 -138 -160 -170l-41 93c73 23 73 34 73 70v379h128z" />
    <glyph glyph-name="Jinferior" horiz-adv-x="228" 
d="M178 270v-372c0 -94 0 -138 -160 -170l-41 93c73 23 73 34 73 70v379h128z" />
    <glyph glyph-name="semicoloninferior" horiz-adv-x="210" 
d="M42 23v125h123v-125h-123zM42 -150v125h123l7 -142l-98 -94l-32 40l55 71h-55z" />
    <glyph glyph-name="semicolonsuperior" horiz-adv-x="210" 
d="M42 558v125h123v-125h-123zM42 385v125h123l7 -142l-98 -94l-32 40l55 71h-55z" />
    <glyph glyph-name="Jcircumflex.sc" horiz-adv-x="286" 
d="M231 574v-507c0 -130 0 -190 -220 -235l-57 128c101 32 101 47 101 97v517h176zM227 754l110 -143h-124l-70 67l-70 -67h-125l110 143h169z" />
    <glyph glyph-name="J.sc" horiz-adv-x="286" 
d="M231 574v-507c0 -130 0 -190 -220 -235l-57 128c101 32 101 47 101 97v517h176z" />
    <glyph glyph-name="seven.dnom" horiz-adv-x="359" 
d="M347 321c0 0 -156 -176 -156 -321h-133c0 138 136 295 153 315h-194v105h330v-99z" />
    <glyph glyph-name="seven.numr" horiz-adv-x="359" 
d="M347 601c0 0 -156 -176 -156 -321h-133c0 138 136 295 153 315h-194v105h330v-99z" />
    <glyph glyph-name="seven.onum" horiz-adv-x="544" 
d="M535 426c0 0 -251 -298 -251 -552h-198c0 240 216 510 243 542h-312v158h518v-148z" />
    <glyph glyph-name="seven.tnum" horiz-adv-x="705" 
d="M617 552c0 0 -252 -298 -252 -552h-197c0 240 216 510 243 542h-313v158h519v-148z" />
    <glyph glyph-name="Itilde.sc" horiz-adv-x="285" 
d="M19 614l-78 39c29 56 57 117 123 117c57 0 115 -47 148 -47c12 0 28 4 52 46l78 -39c-28 -56 -57 -117 -123 -117c-56 0 -114 47 -147 47c-13 0 -29 -4 -53 -46zM231 0h-176v574h176v-574z" />
    <glyph glyph-name="seveneighths.onum" horiz-adv-x="787" 
d="M427 95c0 48 37 75 80 94c-35 20 -55 44 -55 75c0 50 49 86 142 86c92 0 143 -37 143 -86c0 -33 -24 -57 -55 -75c42 -18 79 -46 79 -94c0 -61 -60 -101 -167 -101s-167 40 -167 101zM544 574l-285 -574h-109l284 574h110zM307 496c0 0 -137 -145 -137 -266h-105
c0 117 121 248 133 261h-172v83h281v-78zM658 104c0 23 -32 38 -64 49c-35 -13 -64 -27 -64 -49c0 -20 26 -35 64 -35c37 0 64 15 64 35zM550 251c0 -16 21 -25 44 -32c22 7 43 16 43 32c0 11 -15 27 -43 27s-44 -16 -44 -27z" />
    <glyph glyph-name="Isuperior" horiz-adv-x="229" 
d="M178 385h-128v420h128v-420z" />
    <glyph glyph-name="Iogonek.sc" horiz-adv-x="286" 
d="M137 -93c0 -38 55 -31 73 -31l-16 -77c-31 0 -171 -10 -171 91c0 48 42 83 97 110h-66v574h177v-574h-3c-37 -22 -91 -56 -91 -93z" />
    <glyph glyph-name="sinferior" horiz-adv-x="362" 
d="M229 51c53 -13 116 -38 116 -107c0 -58 -47 -101 -144 -101c-69 0 -146 23 -186 43l43 78c36 -16 101 -36 135 -36c24 0 28 8 28 10c0 14 -37 15 -83 26c-55 13 -117 41 -117 106c0 56 45 102 140 102c64 0 132 -21 170 -36l-43 -72c-30 10 -83 24 -114 24
c-21 0 -29 -5 -29 -11c0 -14 38 -16 84 -26z" />
    <glyph glyph-name="Imacron.sc" horiz-adv-x="285" 
d="M230 0h-175v574h175v-574zM-16 636v105h317v-105h-317z" />
    <glyph glyph-name="six.dnom" horiz-adv-x="428" 
d="M308 325c-52 0 -108 -17 -135 -75c19 11 49 23 90 23c82 0 144 -50 144 -130c0 -81 -68 -150 -183 -150c-138 0 -198 88 -198 184c0 144 112 250 281 250c43 0 72 -7 72 -7l-29 -99s-19 4 -42 4zM220 180c-32 0 -54 -12 -65 -23c1 -53 39 -62 65 -62c43 0 59 24 59 42
c0 26 -24 43 -59 43z" />
    <glyph glyph-name="six.numr" horiz-adv-x="428" 
d="M308 605c-52 0 -108 -17 -135 -75c19 11 49 23 90 23c82 0 144 -50 144 -130c0 -81 -68 -150 -183 -150c-138 0 -198 88 -198 184c0 144 112 250 281 250c43 0 72 -7 72 -7l-29 -99s-19 4 -42 4zM220 460c-32 0 -54 -12 -65 -23c1 -53 39 -62 65 -62c43 0 59 24 59 42
c0 26 -24 43 -59 43z" />
    <glyph glyph-name="six.onum" horiz-adv-x="648" 
d="M473 556c-86 0 -181 -33 -224 -147c31 21 82 45 151 45c131 0 227 -85 227 -218c0 -134 -106 -247 -285 -247c-216 0 -309 147 -309 302c0 252 181 420 439 420c66 0 111 -11 111 -11l-44 -149s-30 5 -66 5zM337 313c-54 0 -92 -27 -110 -47c1 -93 61 -122 110 -122
c72 0 99 45 99 84c0 49 -38 85 -99 85z" />
    <glyph glyph-name="six.tnum" horiz-adv-x="705" 
d="M499 556c-86 0 -181 -33 -223 -146c31 21 81 44 151 44c130 0 227 -85 227 -218c0 -134 -106 -247 -286 -247c-215 0 -308 147 -308 302c0 252 181 420 438 420c67 0 112 -11 112 -11l-45 -149s-29 5 -66 5zM363 313c-53 0 -91 -27 -109 -47c1 -93 60 -122 109 -122
c72 0 99 45 99 84c0 49 -38 85 -99 85z" />
    <glyph glyph-name="Iinferior" horiz-adv-x="229" 
d="M178 -150h-128v420h128v-420z" />
    <glyph glyph-name="Igrave.sc" horiz-adv-x="286" 
d="M231 0h-177v574h177v-574zM260 611h-150l-175 143h199z" />
    <glyph glyph-name="Idieresis.sc" horiz-adv-x="285" 
d="M231 0h-176v574h176v-574zM-21 621v130h138v-130h-138zM169 621v130h138v-130h-138z" />
    <glyph glyph-name="slash.sc" horiz-adv-x="444" 
d="M423 648l-283 -722h-125l282 722h126z" />
    <glyph glyph-name="Icircumflex.sc" horiz-adv-x="285" 
d="M231 0h-176v574h176v-574zM228 754l110 -143h-125l-70 67l-70 -67h-125l110 143h170z" />
    <glyph glyph-name="spaceinferior" horiz-adv-x="144" 
 />
    <glyph glyph-name="spacesuperior" horiz-adv-x="144" 
 />
    <glyph glyph-name="Ibreve.sc" horiz-adv-x="285" 
d="M141 611c-112 0 -177 51 -177 133h110c0 -22 25 -37 67 -37c44 0 70 15 70 37h110c0 -82 -66 -133 -180 -133zM230 0h-176v574h176v-574z" />
    <glyph glyph-name="Iacute.sc" horiz-adv-x="286" 
d="M232 0h-177v574h177v-574zM176 611h-150l127 143h198z" />
    <glyph glyph-name="sterling.onum" horiz-adv-x="529" 
d="M48 197v94h64c-25 40 -56 82 -56 144c0 94 71 148 195 148c113 0 196 -49 249 -81l-75 -111c-49 27 -98 47 -137 47c-37 0 -54 -10 -54 -31c0 -36 38 -68 59 -116h140v-94h-131c-9 -26 -27 -43 -45 -52h233v-145h-452v116s90 11 102 81h-92z" />
    <glyph glyph-name="IJ.sc" horiz-adv-x="572" 
d="M231 0h-176v574h176v-574zM523 574v-507c0 -130 0 -190 -220 -235l-57 128c101 32 101 47 101 97v517h176z" />
    <glyph glyph-name="I.sc" horiz-adv-x="285" 
d="M231 0h-176v574h176v-574z" />
    <glyph glyph-name="Hsuperior" horiz-adv-x="496" 
d="M317 385v168h-139v-168h-128v420h128v-147h139v147h128v-420h-128z" />
    <glyph glyph-name="Hinferior" horiz-adv-x="496" 
d="M317 -150v168h-139v-168h-128v420h128v-147h139v147h128v-420h-128z" />
    <glyph glyph-name="Hbar.sc" horiz-adv-x="683" 
d="M438 0v229h-193v-229h-176v419h-66v94h66v61h176v-61h193v61h176v-61h66v-94h-66v-419h-176zM245 419v-46h193v46h-193z" />
    <glyph glyph-name="H.sc" horiz-adv-x="654" 
d="M424 0v229h-193v-229h-176v574h176v-201h193v201h176v-574h-176z" />
    <glyph glyph-name="Gsuperior" horiz-adv-x="474" 
d="M317 385v35c-31 -25 -66 -42 -111 -42c-95 0 -178 72 -178 216c0 146 79 218 193 218c79 0 145 -27 212 -60l-58 -94c-54 26 -98 39 -137 39c-53 0 -78 -41 -78 -102s20 -108 77 -108c32 0 63 20 80 34v17h-90v99h210v-252h-120z" />
    <glyph glyph-name="three.dnom" horiz-adv-x="412" 
d="M9 54l56 85c66 -35 106 -40 135 -40c36 0 57 10 57 30c0 39 -71 37 -112 37h-20v105h23c33 0 91 -1 91 30c0 13 -11 21 -41 21c-40 0 -89 -21 -117 -36l-52 79c22 16 91 62 191 62c105 0 148 -48 148 -105c0 -47 -30 -74 -66 -90c48 -16 85 -57 85 -105
c0 -65 -40 -134 -171 -134c-102 0 -179 45 -207 61z" />
    <glyph glyph-name="three.numr" horiz-adv-x="412" 
d="M9 334l56 85c66 -35 106 -40 135 -40c36 0 57 10 57 30c0 39 -71 37 -112 37h-20v105h23c33 0 91 -1 91 30c0 13 -11 21 -41 21c-40 0 -89 -21 -117 -36l-52 79c22 16 91 62 191 62c105 0 148 -48 148 -105c0 -47 -30 -74 -66 -90c48 -16 85 -57 85 -105
c0 -65 -40 -134 -171 -134c-102 0 -179 45 -207 61z" />
    <glyph glyph-name="three.onum" horiz-adv-x="620" 
d="M5 -43l84 129c98 -52 164 -65 211 -65c63 0 100 22 100 63c0 72 -115 75 -183 75h-30v159h35c57 0 149 4 149 61c0 28 -22 46 -71 46c-64 0 -142 -35 -186 -59l-78 119c34 24 139 98 295 98c163 0 232 -80 232 -172c0 -78 -47 -124 -107 -153c79 -26 138 -95 138 -177
c0 -108 -66 -220 -269 -220c-158 0 -277 70 -320 96z" />
    <glyph glyph-name="three.tnum" horiz-adv-x="705" 
d="M46 85l84 129c98 -52 164 -65 211 -65c63 0 101 22 101 63c0 72 -116 75 -184 75h-30v159h35c57 0 149 4 149 61c0 28 -22 46 -71 46c-64 0 -142 -35 -185 -59l-78 119c33 24 138 98 295 98c162 0 231 -80 231 -172c0 -78 -46 -124 -107 -153c79 -26 138 -95 138 -177
c0 -108 -66 -220 -269 -220c-158 0 -277 70 -320 96z" />
    <glyph glyph-name="Ginferior" horiz-adv-x="474" 
d="M317 -150v35c-31 -25 -66 -42 -111 -42c-95 0 -178 72 -178 216c0 146 79 218 193 218c79 0 145 -27 212 -60l-58 -94c-54 26 -98 39 -137 39c-53 0 -78 -41 -78 -102s20 -108 77 -108c32 0 63 21 80 35v16h-90v99h210v-252h-120z" />
    <glyph glyph-name="threeeighths.onum" horiz-adv-x="879" 
d="M519 95c0 48 37 75 80 94c-35 20 -55 44 -55 75c0 50 49 86 142 86c92 0 143 -37 143 -86c0 -33 -24 -57 -55 -75c42 -18 79 -46 79 -94c0 -61 -60 -101 -167 -101s-167 40 -167 101zM25 273l44 67c52 -28 89 -34 116 -34c35 0 57 11 57 29c0 33 -64 33 -101 33h-17v83
h19c32 0 83 0 83 27c0 12 -13 19 -41 19c-35 0 -78 -17 -101 -29l-42 62c18 12 75 50 160 50c88 0 126 -40 126 -86c0 -38 -26 -61 -60 -74c44 -13 77 -47 77 -87c0 -53 -36 -109 -147 -109c-84 0 -150 35 -173 49zM636 574l-285 -574h-109l285 574h109zM750 104
c0 23 -32 38 -64 49c-35 -13 -64 -27 -64 -49c0 -20 25 -35 64 -35c37 0 64 15 64 35zM642 251c0 -16 21 -25 44 -32c22 7 43 16 43 32c0 11 -15 27 -43 27c-29 0 -44 -16 -44 -27z" />
    <glyph glyph-name="threefifths" horiz-adv-x="1025" 
d="M642 205l23 215h307v-105h-198l-3 -39c18 4 35 6 56 6c113 0 163 -68 163 -141c0 -77 -56 -148 -178 -148c-91 0 -162 41 -192 60l55 92c24 -16 70 -43 119 -43c38 0 66 12 66 38c0 20 -20 41 -65 41c-32 0 -58 -9 -82 -21zM24 334l56 85c65 -35 105 -40 134 -40
c37 0 57 10 57 30c0 39 -71 37 -112 37h-20v105h23c33 0 92 -1 92 30c0 13 -12 21 -41 21c-40 0 -90 -21 -118 -36l-51 79c21 16 90 62 190 62c105 0 148 -48 148 -105c0 -47 -30 -74 -66 -90c49 -16 85 -57 85 -105c0 -65 -40 -134 -171 -134c-102 0 -178 45 -206 61z
M741 700l-327 -700h-137l326 700h138z" />
    <glyph glyph-name="threefifths.onum" horiz-adv-x="879" 
d="M553 169l21 175h258v-82h-173l-3 -38c16 3 32 6 51 6c96 0 140 -55 140 -115c0 -63 -48 -121 -151 -121c-76 0 -135 33 -161 49l44 71c19 -13 59 -35 102 -35c36 0 63 12 63 35c0 19 -19 37 -62 37c-29 0 -52 -8 -72 -18zM25 273l44 67c52 -28 89 -34 116 -34
c35 0 57 11 57 29c0 33 -64 33 -101 33h-17v83h19c32 0 83 0 83 27c0 12 -13 19 -41 19c-35 0 -78 -17 -101 -29l-42 62c18 12 75 50 160 50c88 0 126 -40 126 -86c0 -38 -26 -61 -60 -74c44 -13 77 -47 77 -87c0 -53 -36 -109 -147 -109c-84 0 -150 35 -173 49zM636 574
l-285 -574h-109l285 574h109z" />
    <glyph glyph-name="Gdotaccent.sc" horiz-adv-x="633" 
d="M428 0v47c-43 -34 -92 -56 -153 -56c-132 0 -246 97 -246 295c0 199 110 297 267 297c108 0 201 -37 292 -82l-80 -129c-74 35 -135 53 -189 53c-74 0 -109 -56 -109 -138s28 -148 108 -148c44 0 86 29 110 48v21h-123v137h288v-345h-165zM243 621v130h138v-130h-138z
" />
    <glyph glyph-name="Gcommaaccent.sc" horiz-adv-x="633" 
d="M428 0v47c-43 -34 -92 -56 -153 -56c-132 0 -246 97 -246 295c0 199 110 297 267 297c108 0 201 -37 292 -82l-80 -129c-74 35 -135 53 -189 53c-74 0 -109 -56 -109 -138s28 -148 108 -148c44 0 86 29 110 48v21h-123v137h288v-345h-165zM261 -188v135h129l8 -152
l-105 -107l-34 42l60 82h-58z" />
    <glyph glyph-name="threequarters.onum" horiz-adv-x="869" 
d="M682 0v58h-203v68l171 218h134v-204h58v-82h-58v-58h-102zM25 273l44 67c52 -28 89 -34 116 -34c35 0 57 11 57 29c0 33 -64 33 -101 33h-17v83h19c32 0 83 0 83 27c0 12 -13 19 -41 19c-35 0 -78 -17 -101 -29l-42 62c18 12 75 50 160 50c88 0 126 -40 126 -86
c0 -38 -26 -61 -60 -74c44 -13 77 -47 77 -87c0 -53 -36 -109 -147 -109c-84 0 -150 35 -173 49zM636 574l-285 -574h-109l285 574h109zM587 140h95v128z" />
    <glyph glyph-name="Gbreve.sc" horiz-adv-x="633" 
d="M428 0v47c-43 -34 -92 -56 -153 -56c-132 0 -246 97 -246 295c0 199 110 297 267 297c108 0 201 -37 292 -82l-80 -129c-74 35 -135 53 -189 53c-74 0 -109 -56 -109 -138s28 -148 108 -148c44 0 86 29 110 48v21h-123v137h288v-345h-165zM310 611
c-112 0 -177 51 -177 133h110c0 -22 25 -37 67 -37c44 0 70 15 70 37h110c0 -82 -66 -133 -180 -133z" />
    <glyph glyph-name="G.sc" horiz-adv-x="633" 
d="M428 0v47c-43 -34 -92 -56 -153 -56c-132 0 -246 97 -246 295c0 199 110 297 267 297c108 0 201 -37 292 -82l-80 -129c-74 35 -135 53 -189 53c-74 0 -109 -56 -109 -138s28 -148 108 -148c44 0 86 29 110 48v21h-123v137h288v-345h-165z" />
    <glyph glyph-name="tinferior" horiz-adv-x="299" 
d="M12 76v89h44v79l125 12v-91h87v-89h-87v-99c0 -26 13 -27 24 -27c14 0 36 10 43 12l42 -90c-25 -11 -69 -29 -120 -29c-80 0 -114 46 -114 133v100h-44z" />
    <glyph glyph-name="Fsuperior" horiz-adv-x="402" 
d="M386 698h-208v-51h164v-105h-164v-157h-128v420h336v-107z" />
    <glyph glyph-name="Finferior" horiz-adv-x="402" 
d="M386 163h-208v-51h164v-105h-164v-157h-128v420h336v-107z" />
    <glyph glyph-name="F.sc" horiz-adv-x="534" 
d="M520 429h-289v-71h227v-143h-227v-215h-176v574h465v-145z" />
    <glyph glyph-name="two.dnom" horiz-adv-x="417" 
d="M384 105v-105h-363v49c0 83 70 139 135 177c55 31 98 46 98 70c0 13 -15 26 -48 26c-42 0 -91 -26 -117 -40l-56 81c29 19 100 64 193 64c109 0 158 -59 158 -124c0 -85 -79 -125 -138 -153c-34 -15 -68 -34 -68 -45h206z" />
    <glyph glyph-name="two.numr" horiz-adv-x="417" 
d="M384 385v-105h-363v49c0 83 70 139 135 177c55 31 98 46 98 70c0 13 -15 26 -48 26c-42 0 -91 -26 -117 -40l-56 81c29 19 100 64 193 64c109 0 158 -59 158 -124c0 -85 -79 -125 -138 -153c-34 -15 -68 -34 -68 -45h206z" />
    <glyph glyph-name="two.onum" horiz-adv-x="616" 
d="M27 0v76c0 117 96 181 202 228c82 37 159 60 159 94c0 21 -22 34 -65 34c-92 0 -179 -56 -197 -65l-82 118c53 35 151 98 297 98c154 0 234 -70 234 -175c0 -131 -125 -186 -254 -237l-42 -18h297v-153h-549z" />
    <glyph glyph-name="two.tnum" horiz-adv-x="705" 
d="M627 158v-158h-566v78c0 140 112 229 217 294c86 53 155 81 155 128c0 28 -26 53 -82 53c-68 0 -146 -42 -188 -66l-84 123c47 32 155 101 300 101c168 0 247 -93 247 -202c0 -139 -125 -207 -221 -258c-57 -31 -111 -62 -111 -93h333z" />
    <glyph glyph-name="twofifths" horiz-adv-x="1052" 
d="M675 205l24 215h306v-105h-199l-2 -39c17 4 34 6 55 6c113 0 163 -68 163 -141c0 -77 -55 -148 -177 -148c-91 0 -161 41 -193 60l56 92c24 -16 69 -43 119 -43c37 0 65 12 65 38c0 20 -19 41 -65 41c-31 0 -56 -9 -81 -21zM395 385v-105h-364v49c0 83 71 139 136 177
c55 31 97 46 97 70c0 13 -14 26 -47 26c-42 0 -92 -26 -118 -40l-56 81c29 19 100 64 193 64c109 0 159 -59 159 -124c0 -85 -79 -125 -138 -153c-34 -15 -68 -34 -68 -45h206zM773 700l-326 -700h-138l327 700h137z" />
    <glyph glyph-name="twofifths.onum" horiz-adv-x="900" 
d="M578 169l20 175h258v-82h-173l-3 -38c16 4 32 6 51 6c95 0 140 -55 140 -115c0 -63 -48 -121 -153 -121c-74 0 -133 33 -160 49l44 71c20 -13 60 -35 103 -35c35 0 62 12 62 35c0 19 -18 37 -61 37c-29 0 -52 -8 -73 -18zM336 312v-82h-307v39c0 69 61 114 118 145
c48 26 86 39 86 60c0 12 -16 23 -47 23c-37 0 -80 -20 -102 -32l-44 63c25 16 83 52 161 52c92 0 135 -47 135 -101c0 -70 -69 -102 -122 -126c-33 -14 -61 -30 -61 -41h183zM659 574l-286 -574h-108l285 574h109z" />
    <glyph glyph-name="Eurosuperior" horiz-adv-x="464" 
d="M18 608v49h42c19 103 89 155 184 155c75 0 138 -28 203 -59l-58 -95c-50 25 -93 39 -128 39c-31 0 -52 -15 -64 -40h117v-49h-128v-29h128v-48h-116c12 -24 33 -38 63 -38c35 0 78 13 128 39l58 -95c-65 -31 -128 -59 -203 -59c-94 0 -163 51 -183 153h-43v48h37v29h-37z
" />
    <glyph glyph-name="Euroinferior" horiz-adv-x="464" 
d="M18 73v49h42c19 103 89 155 184 155c75 0 138 -28 203 -59l-58 -95c-50 25 -93 39 -128 39c-31 0 -52 -15 -64 -40h117v-49h-128v-29h128v-48h-116c12 -24 33 -38 63 -38c35 0 78 13 128 39l58 -95c-65 -31 -128 -59 -203 -59c-94 0 -163 51 -183 153h-43v48h37v29h-37z
" />
    <glyph glyph-name="Euro.onum" horiz-adv-x="650" 
d="M29 302v72h59c27 140 124 209 253 209c104 0 192 -37 280 -82l-79 -128c-70 34 -127 52 -177 52c-42 0 -70 -19 -87 -51h161v-72h-178v-34h178v-72h-158c17 -30 44 -47 84 -47c50 0 107 18 177 52l79 -129c-88 -44 -176 -81 -280 -81c-128 0 -224 67 -253 205h-59v72h51
v34h-51z" />
    <glyph glyph-name="twothirds.onum" horiz-adv-x="897" 
d="M339 312v-82h-308v39c0 69 62 114 119 145c48 26 85 39 85 60c0 12 -15 23 -47 23c-36 0 -79 -20 -101 -32l-45 63c25 16 84 52 162 52c91 0 135 -47 135 -101c0 -70 -69 -102 -123 -126c-32 -14 -61 -30 -61 -41h184zM661 574l-285 -574h-109l286 574h108zM551 43l44 67
c52 -27 88 -33 116 -33c35 0 56 10 56 29c0 33 -63 32 -102 32h-16v83h19c32 0 83 0 83 27c0 12 -12 19 -40 19c-36 0 -79 -17 -102 -29l-42 62c19 13 76 50 160 50c88 0 126 -39 126 -85c0 -39 -26 -61 -60 -75c44 -13 77 -46 77 -87c0 -53 -36 -109 -146 -109
c-85 0 -151 36 -173 49z" />
    <glyph glyph-name="Eth.sc" horiz-adv-x="668" 
d="M638 287c0 -205 -111 -287 -322 -287h-242v221h-63v133h63v220h242c211 0 322 -82 322 -287zM464 287c0 119 -63 139 -166 139h-47v-72h110v-133h-110v-73h47c103 0 166 20 166 139z" />
    <glyph glyph-name="Esuperior" horiz-adv-x="420" 
d="M390 385h-340v420h336v-107h-208v-50h170v-105h-170v-51h212v-107z" />
    <glyph glyph-name="Eogonek.sc" horiz-adv-x="557" 
d="M430 -93c0 -38 56 -31 73 -31l-16 -77c-31 0 -172 -10 -172 91c0 48 43 83 98 110h-358v574h465v-145h-289v-70h235v-144h-235v-70h293v-145h-3c-37 -22 -91 -56 -91 -93z" />
    <glyph glyph-name="Eng.sc" horiz-adv-x="668" 
d="M614 574v-537c0 -111 -15 -163 -220 -205l-57 128c64 17 87 30 97 45l-203 294v-299h-176v574h180l203 -298v298h176z" />
    <glyph glyph-name="Emacron.sc" horiz-adv-x="557" 
d="M524 0h-469v574h465v-145h-289v-70h235v-144h-235v-70h293v-145zM131 636v105h317v-105h-317z" />
    <glyph glyph-name="Einferior" horiz-adv-x="420" 
d="M390 -150h-340v420h336v-107h-208v-50h170v-105h-170v-51h212v-107z" />
    <glyph glyph-name="Egrave.sc" horiz-adv-x="557" 
d="M524 0h-469v574h465v-145h-289v-70h235v-144h-235v-70h293v-145zM407 611h-150l-175 143h199z" />
    <glyph glyph-name="uinferior" horiz-adv-x="423" 
d="M260 -150v31c-32 -20 -71 -38 -120 -38c-72 0 -104 36 -104 102v220h124v-190c0 -23 6 -38 32 -38c23 0 50 12 68 29v199h124v-315h-124z" />
    <glyph glyph-name="Edotaccent.sc" horiz-adv-x="557" 
d="M524 0h-469v574h465v-145h-289v-70h235v-144h-235v-70h293v-145zM221 621v130h138v-130h-138z" />
    <glyph glyph-name="Edieresis.sc" horiz-adv-x="557" 
d="M524 0h-469v574h465v-145h-289v-70h235v-144h-235v-70h293v-145zM126 621v130h138v-130h-138zM316 621v130h137v-130h-137z" />
    <glyph glyph-name="Ecircumflex.sc" horiz-adv-x="557" 
d="M524 0h-469v574h465v-145h-289v-70h235v-144h-235v-70h293v-145zM375 754l109 -143h-124l-71 67l-70 -67h-124l109 143h171z" />
    <glyph glyph-name="Ecaron.sc" horiz-adv-x="557" 
d="M524 0h-469v574h465v-145h-289v-70h235v-144h-235v-70h293v-145zM484 754l-109 -143h-171l-109 143h124l70 -67l71 67h124z" />
    <glyph glyph-name="uni021a.sc" horiz-adv-x="544" 
d="M530 426h-168v-426h-177v426h-171v148h516v-148zM210 -188v135h129l8 -152l-106 -107l-33 42l59 82h-57z" />
    <glyph glyph-name="Eacute.sc" horiz-adv-x="557" 
d="M524 0h-469v574h465v-145h-289v-70h235v-144h-235v-70h293v-145zM323 611h-150l126 143h199z" />
    <glyph glyph-name="E.sc" horiz-adv-x="557" 
d="M524 0h-469v574h465v-145h-289v-70h235v-144h-235v-70h293v-145z" />
    <glyph glyph-name="uni20A9.onum" horiz-adv-x="942" 
d="M561 0l-90 332l-91 -332h-170l-61 205h-114v95h86l-16 53h-70v94h42l-37 127h201l27 -127h101l34 127h136l33 -127h101l27 127h202l-38 -127h42v-94h-70l-16 -53h86v-95h-114l-61 -205h-170zM653 353h-56l31 -116zM344 353h-55l25 -115z" />
    <glyph glyph-name="uni20A9inferior" horiz-adv-x="688" 
d="M409 -150l-65 241l-65 -241h-123l-45 153h-82v68h62l-13 42h-50v68h30l-26 89h146l19 -89h74l24 89h98l23 -89h75l19 89h146l-26 -89h29v-68h-49l-12 -42h61v-68h-81l-45 -153h-124zM476 113h-42l23 -89zM253 113h-42l19 -88z" />
    <glyph glyph-name="uni20A9superior" horiz-adv-x="689" 
d="M409 385l-65 241l-65 -241h-123l-45 153h-82v68h62l-13 42h-50v68h30l-26 89h146l19 -89h74l24 89h98l23 -89h75l19 89h146l-26 -89h29v-68h-49l-12 -42h61v-68h-81l-45 -153h-124zM476 648h-42l23 -89zM253 648h-42l19 -88z" />
    <glyph glyph-name="Dsuperior" horiz-adv-x="488" 
d="M459 595c0 -150 -81 -210 -233 -210h-176v420h176c152 0 233 -60 233 -210zM332 595c0 88 -46 103 -119 103h-34v-206h34c73 0 119 15 119 103z" />
    <glyph glyph-name="uni2116.onum" horiz-adv-x="1060" 
d="M440 0l-206 326v-326h-176v574h179l204 -326v326h176v-574h-177zM1028 392c0 -112 -67 -175 -187 -175c-119 0 -185 63 -185 175c0 111 66 175 185 175c120 0 187 -64 187 -175zM680 96v94h325v-94h-325zM895 392c0 41 -14 61 -54 61c-37 0 -54 -20 -54 -61
s17 -62 54 -62c40 0 54 21 54 62z" />
    </font>
</defs>
</svg>
