<?xml version="1.0" standalone="no"?>
<!DOCTYPE svg PUBLIC "-//W3C//DTD SVG 1.1//EN" "http://www.w3.org/Graphics/SVG/1.1/DTD/svg11.dtd" >
<svg xmlns="http://www.w3.org/2000/svg" xmlns:xlink="http://www.w3.org/1999/xlink" version="1.1">
<metadata>
Created by FontForge 20170910 at Sun Nov  4 10:53:08 2012
 By Jimmy Wärting
Copyright (c) 2012 by Yellow Design Studio. All rights reserved.
</metadata>
<defs>
<font id="VerbRegular" horiz-adv-x="607" >
  <font-face 
    font-family="Verb Regular"
    font-weight="400"
    font-stretch="normal"
    units-per-em="1000"
    panose-1="2 0 5 0 3 0 0 2 0 4"
    ascent="800"
    descent="-200"
    x-height="525"
    cap-height="700"
    bbox="-120 -280 1374 948"
    underline-thickness="50"
    underline-position="-100"
    stemh="56"
    stemv="83"
    unicode-range="U+0020-FB06"
  />
<missing-glyph horiz-adv-x="267" 
 />
    <glyph glyph-name="f_f" unicode="ff" horiz-adv-x="706" 
d="M33 461v64h73v72c0 101 49 132 118 132c52 0 126 -24 155 -35l-31 -61c-21 7 -84 24 -111 24c-28 0 -49 -11 -49 -56v-76h136v-64h-136v-461h-82v461h-73zM386 461v64h74v72c0 101 48 132 117 132c52 0 127 -24 155 -35l-30 -61c-21 7 -84 24 -111 24
c-28 0 -50 -11 -50 -56v-76h142v-64h-142v-461h-81v461h-74z" />
    <glyph glyph-name="f_i" unicode="fi" horiz-adv-x="598" 
d="M33 461v64h73v72c0 101 50 132 115 132c45 0 104 -19 126 -27l-24 -62c-18 5 -64 17 -86 17c-28 0 -49 -11 -49 -56v-76h141v-64h-141v-461h-82v461h-73zM516 0h-82v525h82v-525zM430 629v97h92v-97h-92z" />
    <glyph glyph-name="f_l" unicode="fl" 
d="M33 461v64h73v72c0 101 50 132 115 132c45 0 104 -19 126 -27l-24 -62c-18 5 -64 17 -86 17c-28 0 -49 -11 -49 -56v-76h141v-64h-141v-461h-82v461h-73zM521 0h-83v729h83v-729z" />
    <glyph glyph-name="f_f_i" unicode="ffi" horiz-adv-x="951" 
d="M33 461v64h73v72c0 101 49 132 118 132c52 0 126 -24 155 -35l-27 -61c-22 7 -87 24 -115 24s-49 -11 -49 -56v-76h136v-64h-136v-461h-82v461h-73zM386 461v64h74v72c0 101 50 132 114 132c46 0 104 -19 127 -27l-25 -62c-17 5 -64 17 -85 17c-28 0 -50 -11 -50 -56v-76
h142v-64h-142v-461h-81v461h-74zM870 0h-83v525h83v-525zM784 629v97h92v-97h-92z" />
    <glyph glyph-name="f_f_l" unicode="ffl" horiz-adv-x="960" 
d="M33 461v64h73v72c0 101 49 132 118 132c52 0 126 -24 155 -35l-27 -61c-22 7 -87 24 -115 24s-49 -11 -49 -56v-76h136v-64h-136v-461h-82v461h-73zM386 461v64h74v72c0 101 50 132 114 132c46 0 104 -19 127 -27l-25 -62c-17 5 -64 17 -85 17c-28 0 -50 -11 -50 -56v-76
h142v-64h-142v-461h-81v461h-74zM875 0h-83v729h83v-729z" />
    <glyph glyph-name="f_f_b" unicode="ffb" horiz-adv-x="1310" 
d="M787 0v729h83v-272c41 37 103 79 186 79c110 0 200 -80 200 -274c0 -193 -90 -273 -200 -273c-83 0 -145 41 -186 79v-68h-83zM1040 467c-68 0 -129 -38 -170 -85v-240c41 -46 102 -84 170 -84c87 0 131 77 131 204c0 128 -44 205 -131 205zM33 461v64h73v72
c0 101 49 132 118 132c52 0 126 -24 155 -35l-27 -61c-22 7 -87 24 -115 24s-49 -11 -49 -56v-76h136v-64h-136v-461h-82v461h-73zM386 461v64h74v72c0 101 50 132 114 132c46 0 104 -19 127 -27l-25 -62c-17 5 -64 17 -85 17c-28 0 -50 -11 -50 -56v-76h142v-64h-142v-461
h-81v461h-74z" />
    <glyph glyph-name="f_f_h" unicode="ffh" horiz-adv-x="1313" 
d="M870 729v-278c39 28 127 85 217 85c114 0 149 -74 149 -162v-374h-83v359c0 61 -19 109 -90 109c-73 0 -158 -55 -193 -86v-382h-83v729h83zM33 461v64h73v72c0 101 49 132 118 132c52 0 126 -24 155 -35l-27 -61c-22 7 -87 24 -115 24s-49 -11 -49 -56v-76h136v-64h-136
v-461h-82v461h-73zM386 461v64h74v72c0 101 50 132 114 132c46 0 104 -19 127 -27l-25 -62c-17 5 -64 17 -85 17c-28 0 -50 -11 -50 -56v-76h142v-64h-142v-461h-81v461h-74z" />
    <glyph glyph-name="f_b" unicode="fb" horiz-adv-x="956" 
d="M434 0v729h82v-272c41 37 103 79 186 79c110 0 200 -80 200 -274c0 -193 -90 -273 -200 -273c-83 0 -145 41 -186 79v-68h-82zM686 467c-68 0 -129 -38 -170 -85v-240c41 -46 102 -84 170 -84c87 0 131 77 131 204c0 128 -44 205 -131 205zM33 461v64h73v72
c0 101 50 132 115 132c45 0 104 -19 126 -27l-24 -62c-18 5 -64 17 -86 17c-28 0 -49 -11 -49 -56v-76h141v-64h-141v-461h-82v461h-73z" />
    <glyph glyph-name="f_f_j" unicode="ffj" horiz-adv-x="951" 
d="M33 461v64h73v72c0 101 49 132 118 132c52 0 126 -24 155 -35l-27 -61c-22 7 -87 24 -115 24s-49 -11 -49 -56v-76h136v-64h-136v-461h-82v461h-73zM386 461v64h74v72c0 101 50 132 114 132c46 0 104 -19 127 -27l-25 -62c-17 5 -64 17 -85 17c-28 0 -50 -11 -50 -56v-76
h142v-64h-142v-461h-81v461h-74zM870 525v-545c0 -110 0 -148 -173 -193l-27 63c117 38 117 48 117 126v549h83zM783 629v97h92v-97h-92z" />
    <glyph glyph-name="f_f_k" unicode="ffk" horiz-adv-x="1232" 
d="M1186 525l-178 -212l210 -313h-88l-172 253l-88 -105v-148h-83v729h83v-479l221 275h95zM33 461v64h73v72c0 101 49 132 118 132c52 0 126 -24 155 -35l-27 -61c-22 7 -87 24 -115 24s-49 -11 -49 -56v-76h136v-64h-136v-461h-82v461h-73zM386 461v64h74v72
c0 101 50 132 114 132c46 0 104 -19 127 -27l-25 -62c-17 5 -64 17 -85 17c-28 0 -50 -11 -50 -56v-76h142v-64h-142v-461h-81v461h-74z" />
    <glyph glyph-name="f_f_t" unicode="fft" horiz-adv-x="1087" 
d="M33 461v64h73v72c0 101 49 132 118 132c52 0 126 -24 155 -35l-27 -61c-22 7 -87 24 -115 24s-49 -11 -49 -56v-76h136v-64h-136v-461h-82v461h-73zM386 461v64h74v72c0 101 48 132 117 132c52 0 127 -24 155 -35l-30 -61c-21 7 -84 24 -111 24c-28 0 -50 -11 -50 -56
v-76h137v-64h-137v-461h-81v461h-74zM738 461v64h73v132l82 20v-152h144v-64h-144v-344c0 -44 21 -55 49 -55c30 0 82 19 100 27l31 -63c-24 -11 -88 -37 -144 -37c-68 0 -118 31 -118 132v340h-73z" />
    <glyph glyph-name="f_h" unicode="fh" horiz-adv-x="959" 
d="M516 729v-278c39 28 127 85 217 85c114 0 149 -74 149 -162v-374h-83v359c0 61 -18 109 -90 109c-73 0 -158 -55 -193 -86v-382h-82v729h82zM33 461v64h73v72c0 101 50 132 115 132c45 0 104 -19 126 -27l-24 -62c-18 5 -64 17 -86 17c-28 0 -49 -11 -49 -56v-76h141v-64
h-141v-461h-82v461h-73z" />
    <glyph glyph-name="f_j" unicode="fj" horiz-adv-x="598" 
d="M33 461v64h73v72c0 101 50 132 115 132c45 0 104 -19 126 -27l-24 -62c-18 5 -64 17 -86 17c-28 0 -49 -11 -49 -56v-76h141v-64h-141v-461h-82v461h-73zM516 525v-545c0 -110 0 -148 -172 -193l-28 63c118 38 118 48 118 126v549h82zM429 629v97h92v-97h-92z" />
    <glyph glyph-name="f_k" unicode="fk" horiz-adv-x="879" 
d="M832 525l-177 -211l209 -314h-88l-172 253l-88 -105v-148h-82v729h82v-481l222 277h94zM33 461v64h73v72c0 101 50 132 115 132c45 0 104 -19 126 -27l-24 -62c-18 5 -64 17 -86 17c-28 0 -49 -11 -49 -56v-76h141v-64h-141v-461h-82v461h-73z" />
    <glyph glyph-name="f_t" unicode="ft" horiz-adv-x="737" 
d="M33 461v64h73v72c0 101 49 132 118 132c52 0 126 -24 155 -35l-31 -61c-21 7 -84 24 -111 24c-28 0 -49 -11 -49 -56v-76h136v-64h-136v-461h-82v461h-73zM388 461v64h73v132l82 20v-152h144v-64h-144v-344c0 -44 21 -55 49 -55c30 0 82 19 100 27l31 -63
c-24 -11 -88 -37 -144 -37c-68 0 -118 31 -118 132v340h-73z" />
    <glyph glyph-name=".notdef" horiz-adv-x="267" 
 />
    <glyph glyph-name="space" unicode=" " horiz-adv-x="282" 
 />
    <glyph glyph-name="exclam" unicode="!" horiz-adv-x="265" 
d="M85 0v115h96v-115h-96zM183 700l-25 -491h-51l-24 491h100z" />
    <glyph glyph-name="quotedbl" unicode="&#x22;" horiz-adv-x="408" 
d="M343 700l-16 -259h-56l-16 259h88zM154 700l-15 -259h-57l-16 259h88z" />
    <glyph glyph-name="numbersign" unicode="#" horiz-adv-x="752" 
d="M417 0l28 179h-193l-28 -179h-69l28 179h-134v66h144l33 209h-135v66h146l28 180h68l-28 -180h193l28 180h68l-28 -180h135v-66h-145l-33 -209h136v-66h-146l-28 -179h-68zM295 454l-33 -209h193l33 209h-193z" />
    <glyph glyph-name="dollar" unicode="$" horiz-adv-x="615" 
d="M342 -100h-64v93c-89 11 -176 48 -230 81l41 64c48 -28 121 -58 189 -70v258l-12 4c-95 31 -202 73 -202 195c0 114 92 182 214 186v90h64v-94c72 -9 147 -35 198 -62l-40 -64c-46 23 -105 43 -158 51v-237c99 -30 225 -81 225 -214c0 -123 -104 -188 -225 -192v-89z
M479 175c0 66 -57 99 -137 129v-241c71 3 137 39 137 112zM154 530c0 -64 52 -89 124 -114v221c-66 -4 -124 -37 -124 -107z" />
    <glyph glyph-name="percent" unicode="%" horiz-adv-x="995" 
d="M949 176c0 -123 -73 -187 -182 -187c-108 0 -180 64 -180 187s72 188 180 188c109 0 182 -65 182 -188zM879 176c0 84 -41 131 -112 131c-69 0 -111 -47 -111 -131s42 -129 111 -129c71 0 112 45 112 129zM407 523c0 -123 -74 -187 -182 -187c-107 0 -180 64 -180 187
s73 188 180 188c108 0 182 -65 182 -188zM337 523c0 84 -41 131 -112 131c-70 0 -111 -47 -111 -131s41 -129 111 -129c71 0 112 45 112 129zM716 700l-368 -700h-71l368 700h71z" />
    <glyph glyph-name="ampersand" unicode="&#x26;" horiz-adv-x="699" 
d="M693 0h-103l-80 81c-53 -54 -125 -92 -219 -92c-123 0 -220 69 -220 183c0 98 73 155 148 205c-48 50 -97 106 -97 181c0 106 93 153 177 153c91 0 166 -55 166 -148c0 -86 -66 -143 -136 -194l172 -175c32 56 51 119 58 175h85c-8 -63 -35 -154 -88 -231zM293 56
c68 0 123 32 165 78l-189 193c-62 -44 -115 -88 -115 -149c0 -49 35 -122 139 -122zM201 556c0 -56 43 -101 80 -138c58 39 106 80 106 141c0 45 -26 87 -89 87s-97 -41 -97 -90z" />
    <glyph glyph-name="quotesingle" unicode="'" horiz-adv-x="219" 
d="M154 700l-15 -259h-57l-16 259h88z" />
    <glyph glyph-name="parenleft" unicode="(" horiz-adv-x="312" 
d="M81 43v610c0 104 4 142 174 186l24 -55c-111 -37 -112 -49 -112 -123v-626c0 -74 1 -86 112 -123l-24 -55c-170 44 -174 82 -174 186z" />
    <glyph glyph-name="parenright" unicode=")" horiz-adv-x="312" 
d="M231 653v-610c0 -104 -4 -142 -174 -186l-25 55c112 37 113 49 113 123v626c0 74 -1 86 -113 123l25 55c170 -44 174 -82 174 -186z" />
    <glyph glyph-name="asterisk" unicode="*" horiz-adv-x="483" 
d="M204 326l21 155l-127 -97l-38 65l148 60l-148 61l38 65l127 -99l-21 156h75l-21 -155l126 97l38 -65l-147 -60l147 -61l-38 -64l-125 95l20 -153h-75z" />
    <glyph glyph-name="plus" unicode="+" horiz-adv-x="615" 
d="M273 560h67v-194h218v-66h-218v-193h-67v193h-217v66h217v194z" />
    <glyph glyph-name="comma" unicode="," horiz-adv-x="246" 
d="M74 0v120h94l11 -127l-83 -128l-28 32l50 103h-44z" />
    <glyph glyph-name="hyphen" unicode="-" horiz-adv-x="435" 
d="M360 249h-284v72h284v-72z" />
    <glyph glyph-name="period" unicode="." horiz-adv-x="244" 
d="M74 0v120h96v-120h-96z" />
    <glyph glyph-name="slash" unicode="/" horiz-adv-x="449" 
d="M425 790l-333 -880h-68l333 880h68z" />
    <glyph glyph-name="zero" unicode="0" horiz-adv-x="657" 
d="M329 711c174 0 263 -131 263 -361c0 -231 -89 -361 -263 -361s-264 130 -264 361c0 230 90 361 264 361zM329 59c123 0 175 110 175 291c0 180 -52 291 -175 291s-177 -110 -177 -291s54 -291 177 -291z" />
    <glyph glyph-name="one" unicode="1" horiz-adv-x="369" 
d="M272 0h-86v613l-125 -65l-37 59l169 93h79v-700z" />
    <glyph glyph-name="two" unicode="2" horiz-adv-x="584" 
d="M522 74v-74h-471v55c0 147 109 214 222 290c86 58 161 108 161 184c0 62 -50 108 -136 108c-79 0 -152 -39 -186 -63l-42 59c48 33 129 78 234 78c133 0 217 -72 217 -180c0 -133 -125 -201 -239 -277c-82 -54 -134 -95 -134 -180h374z" />
    <glyph glyph-name="three" unicode="3" horiz-adv-x="592" 
d="M39 61l40 63c38 -23 121 -61 200 -61c94 0 166 51 166 134c0 110 -129 147 -222 147h-31v75h36c90 0 186 38 186 121c0 61 -51 97 -129 97c-74 0 -140 -34 -176 -58l-38 57c22 16 107 75 225 75c135 0 204 -78 204 -164c0 -63 -39 -128 -134 -161
c94 -23 166 -94 166 -189c0 -104 -75 -208 -243 -208c-114 0 -213 49 -250 72z" />
    <glyph glyph-name="four" unicode="4" horiz-adv-x="631" 
d="M35 155v64l337 481h112v-472h107v-73h-107v-155h-87v155h-362zM126 228h271v393z" />
    <glyph glyph-name="five" unicode="5" horiz-adv-x="580" 
d="M79 355l38 345h381v-74h-312l-18 -208c33 16 73 27 123 27c148 0 235 -104 235 -225c0 -118 -83 -231 -249 -231c-104 0 -185 45 -228 71l40 65c21 -14 99 -61 178 -61c91 0 171 61 171 156c0 82 -59 152 -164 152c-66 0 -119 -27 -149 -44z" />
    <glyph glyph-name="six" unicode="6" horiz-adv-x="616" 
d="M430 638c-116 0 -242 -77 -273 -268c27 29 88 77 186 77c143 0 224 -100 224 -221c0 -127 -92 -237 -244 -237c-179 0 -260 148 -261 292c-1 282 176 430 366 430c53 0 93 -11 93 -11l-20 -70s-32 8 -71 8zM327 379c-92 0 -156 -57 -177 -98v-7c0 -114 58 -212 172 -212
c107 0 159 83 159 162c0 75 -46 155 -154 155z" />
    <glyph glyph-name="seven" unicode="7" horiz-adv-x="509" 
d="M485 635c0 0 -258 -318 -258 -635h-91c0 285 227 593 251 626h-355v74h453v-65z" />
    <glyph glyph-name="eight" unicode="8" horiz-adv-x="629" 
d="M55 181c0 107 88 163 169 197c-62 28 -128 76 -128 164c0 103 89 169 218 169c128 0 218 -66 218 -169c0 -88 -66 -136 -128 -164c81 -34 170 -90 170 -197c0 -122 -112 -192 -260 -192s-259 70 -259 192zM485 184c0 85 -88 129 -171 160c-84 -31 -171 -75 -171 -160
c0 -78 76 -126 171 -126s171 48 171 126zM181 535c0 -72 78 -106 133 -125c54 19 133 53 133 125c0 58 -54 108 -133 108c-78 0 -133 -50 -133 -108z" />
    <glyph glyph-name="nine" unicode="9" horiz-adv-x="617" 
d="M187 62c116 0 243 77 274 269c-26 -29 -88 -79 -187 -79c-143 0 -224 101 -224 222c0 127 92 237 245 237c179 0 259 -148 260 -292c2 -282 -176 -430 -366 -430c-53 0 -93 11 -93 11l21 70s31 -8 70 -8zM291 321c93 0 157 59 177 100v4c0 115 -58 213 -172 213
c-107 0 -159 -83 -159 -163c0 -74 45 -154 154 -154z" />
    <glyph glyph-name="colon" unicode=":" horiz-adv-x="251" 
d="M77 341v120h97v-120h-97zM77 0v120h97v-120h-97z" />
    <glyph glyph-name="semicolon" unicode=";" horiz-adv-x="264" 
d="M83 341v120h95v-120h-95zM83 0v120h94l11 -127l-83 -128l-28 32l50 103h-44z" />
    <glyph glyph-name="less" unicode="&#x3c;" horiz-adv-x="615" 
d="M42 365l501 210v-78l-410 -164l410 -163v-77l-501 210v62z" />
    <glyph glyph-name="equal" unicode="=" horiz-adv-x="615" 
d="M56 391v66h502v-66h-502zM56 211v66h502v-66h-502z" />
    <glyph glyph-name="greater" unicode="&#x3e;" horiz-adv-x="615" 
d="M572 303l-502 -210v77l411 163l-411 164v78l502 -210v-62z" />
    <glyph glyph-name="question" unicode="?" horiz-adv-x="514" 
d="M165 0v115h96v-115h-96zM467 541c0 -116 -100 -173 -218 -204l-6 -128h-60l-7 176c126 27 206 63 206 146c0 68 -58 106 -131 106c-66 0 -126 -30 -173 -58l-41 58c44 30 129 74 224 74c107 0 206 -57 206 -170z" />
    <glyph glyph-name="at" unicode="@" horiz-adv-x="970" 
d="M475 -136c122 0 192 45 192 45l27 -35s-74 -53 -219 -53c-251 0 -417 188 -417 432c0 245 168 433 442 433s418 -181 419 -432c0 -155 -65 -276 -190 -276c-96 0 -121 69 -126 117c-36 -33 -94 -72 -168 -72c-71 0 -148 39 -148 147c0 105 74 151 154 151
c51 0 124 -18 161 -25v55c0 67 -20 98 -95 98c-51 0 -111 -19 -162 -41l-28 52c65 26 138 45 199 45c97 0 153 -43 153 -150v-204c0 -59 1 -124 70 -124c52 0 135 54 135 228c0 218 -120 387 -375 387c-256 0 -394 -178 -394 -389c0 -218 145 -389 370 -389zM450 79
c61 0 110 31 152 72v103c-32 5 -91 20 -138 20c-80 0 -108 -49 -108 -101c0 -67 42 -94 94 -94z" />
    <glyph glyph-name="A" unicode="A" horiz-adv-x="686" 
d="M567 0l-62 171h-324l-62 -171h-94l271 700h94l271 -700h-94zM343 620l-137 -378h273z" />
    <glyph glyph-name="B" unicode="B" horiz-adv-x="675" 
d="M620 187c0 -116 -78 -187 -232 -187h-292v700h244c155 0 242 -61 242 -171c0 -100 -74 -150 -121 -158c57 -8 159 -52 159 -184zM497 517c0 66 -48 113 -157 113h-157v-229h152c92 0 162 36 162 116zM535 200c0 89 -68 134 -193 134h-159v-264h196c107 0 156 55 156 130z
" />
    <glyph glyph-name="C" unicode="C" horiz-adv-x="647" 
d="M607 608l-45 -62c-58 37 -137 87 -217 87c-113 0 -193 -104 -193 -283s80 -283 193 -283c80 0 159 50 217 87l45 -62c-74 -50 -166 -103 -269 -103c-147 0 -275 108 -275 361c0 252 128 361 275 361c103 0 195 -53 269 -103z" />
    <glyph glyph-name="D" unicode="D" horiz-adv-x="705" 
d="M643 350c0 -250 -126 -350 -330 -350h-217v700h217c204 0 330 -100 330 -350zM554 350c0 192 -78 275 -247 275h-124v-550h124c169 0 247 82 247 275z" />
    <glyph glyph-name="E" unicode="E" horiz-adv-x="600" 
d="M546 0h-450v700h444v-75h-357v-238h295v-74h-295v-238h363v-75z" />
    <glyph glyph-name="F" unicode="F" horiz-adv-x="572" 
d="M540 625h-357v-238h285v-74h-285v-313h-87v700h444v-75z" />
    <glyph glyph-name="G" unicode="G" horiz-adv-x="704" 
d="M548 0v82c-56 -49 -127 -93 -215 -93c-142 0 -270 108 -270 361c0 252 128 361 277 361c110 0 205 -56 280 -109l-46 -63c-58 37 -142 94 -228 94c-114 0 -194 -104 -194 -283c0 -177 78 -286 194 -286c85 0 164 66 202 100v146h-192v72h276v-382h-84z" />
    <glyph glyph-name="H" unicode="H" horiz-adv-x="714" 
d="M532 0v330h-349v-330h-87v700h87v-296h349v296h86v-700h-86z" />
    <glyph glyph-name="I" unicode="I" horiz-adv-x="278" 
d="M183 0h-87v700h87v-700z" />
    <glyph glyph-name="J" unicode="J" horiz-adv-x="278" 
d="M183 700v-655c0 -110 0 -148 -174 -193l-30 67c118 38 118 48 118 123v658h86z" />
    <glyph glyph-name="K" unicode="K" horiz-adv-x="657" 
d="M96 0v700h87v-394l329 394h102l-285 -337l315 -363h-105l-261 303l-95 -113v-190h-87z" />
    <glyph glyph-name="L" unicode="L" horiz-adv-x="555" 
d="M529 0h-433v700h87v-625h346v-75z" />
    <glyph glyph-name="M" unicode="M" horiz-adv-x="844" 
d="M662 0v558l-212 -441h-55l-212 438v-555h-87v700h90l236 -489l235 489h91v-700h-86z" />
    <glyph glyph-name="N" unicode="N" horiz-adv-x="730" 
d="M545 0l-362 572v-572h-87v700h89l363 -573v573h86v-700h-89z" />
    <glyph glyph-name="O" unicode="O" horiz-adv-x="740" 
d="M369 711c224 0 308 -162 308 -361c0 -198 -84 -361 -308 -361c-223 0 -307 163 -307 361c0 199 84 361 307 361zM369 64c165 0 219 127 219 286s-54 286 -219 286c-163 0 -218 -127 -218 -286s55 -286 218 -286z" />
    <glyph glyph-name="P" unicode="P" horiz-adv-x="646" 
d="M608 486c0 -158 -110 -214 -261 -214h-164v-272h-87v700h251c151 0 261 -56 261 -214zM519 486c0 105 -75 140 -171 140h-165v-281h165c96 0 171 35 171 141z" />
    <glyph glyph-name="Q" unicode="Q" horiz-adv-x="740" 
d="M369 -11c-223 0 -307 163 -307 361c0 199 84 361 307 361c224 0 308 -162 308 -361c0 -167 -60 -309 -213 -350l118 -94l-59 -60zM369 64c165 0 219 127 219 286s-54 286 -219 286c-163 0 -218 -127 -218 -286s55 -286 218 -286z" />
    <glyph glyph-name="R" unicode="R" horiz-adv-x="686" 
d="M536 0l-183 297h-170v-297h-87v700h272c153 0 262 -53 262 -202c0 -125 -78 -182 -190 -197l191 -301h-95zM542 498c0 96 -74 131 -172 131h-187v-261h182c103 0 177 34 177 130z" />
    <glyph glyph-name="S" unicode="S" horiz-adv-x="613" 
d="M345 394c98 -33 221 -80 221 -213c0 -127 -112 -192 -237 -192c-106 0 -217 46 -282 85l40 64c62 -35 162 -75 242 -75c76 0 148 36 148 112c0 86 -95 115 -213 155c-95 31 -202 73 -202 195c0 118 98 186 225 186c86 0 187 -32 251 -66l-40 -64c-60 31 -148 56 -208 56
c-72 0 -138 -32 -138 -107c0 -83 88 -101 193 -136z" />
    <glyph glyph-name="T" unicode="T" horiz-adv-x="576" 
d="M551 625h-220v-625h-86v625h-220v75h526v-75z" />
    <glyph glyph-name="U" unicode="U" horiz-adv-x="704" 
d="M615 700v-444c0 -150 -60 -267 -262 -267c-203 0 -263 117 -263 267v444h87v-447c0 -105 31 -189 176 -189c144 0 176 84 176 189v447h86z" />
    <glyph glyph-name="V" unicode="V" horiz-adv-x="683" 
d="M122 700l219 -610l221 610h97l-270 -700h-94l-271 700h98z" />
    <glyph glyph-name="W" unicode="W" horiz-adv-x="942" 
d="M623 0l-152 578l-152 -578h-92l-194 700h97l147 -597l154 597h80l154 -596l148 596h96l-194 -700h-92z" />
    <glyph glyph-name="X" unicode="X" horiz-adv-x="624" 
d="M34 700h100l178 -297l179 297h99l-230 -352l242 -348h-103l-187 289l-187 -289h-103l241 348z" />
    <glyph glyph-name="Y" unicode="Y" horiz-adv-x="635" 
d="M274 0v278l-256 422h98l202 -355l201 355h98l-257 -423v-277h-86z" />
    <glyph glyph-name="Z" unicode="Z" horiz-adv-x="621" 
d="M42 69l417 556h-394v75h502v-68l-417 -557h422v-75h-530v69z" />
    <glyph glyph-name="bracketleft" unicode="[" horiz-adv-x="342" 
d="M308 -144h-220v983h220v-58h-133v-867h133v-58z" />
    <glyph glyph-name="backslash" unicode="\" horiz-adv-x="449" 
d="M357 -90l-333 880h68l333 -880h-68z" />
    <glyph glyph-name="bracketright" unicode="]" horiz-adv-x="342" 
d="M254 -144h-220v58h134v867h-134v58h220v-983z" />
    <glyph glyph-name="asciicircum" unicode="^" horiz-adv-x="615" 
d="M447 347l-140 281l-142 -281h-91l191 353h84l191 -353h-93z" />
    <glyph glyph-name="underscore" unicode="_" horiz-adv-x="707" 
d="M631 -146h-556v63h556v-63z" />
    <glyph glyph-name="grave" unicode="`" horiz-adv-x="214" 
d="M225 599h-70l-166 130h112z" />
    <glyph glyph-name="a" unicode="a" horiz-adv-x="577" 
d="M417 0v70c-40 -37 -107 -81 -195 -81c-86 0 -176 47 -176 168c0 119 86 171 182 171c61 0 148 -21 189 -28v59c0 74 -24 110 -110 110c-58 0 -122 -20 -195 -44l-30 61c89 32 167 50 236 50c115 0 182 -48 182 -174v-362h-83zM242 58c71 0 127 33 175 77v115
c-36 7 -104 23 -158 23c-96 0 -128 -52 -128 -112c0 -74 47 -103 111 -103z" />
    <glyph glyph-name="b" unicode="b" horiz-adv-x="603" 
d="M81 0v729h83v-272c41 37 103 79 185 79c111 0 200 -80 200 -274c0 -193 -89 -273 -200 -273c-82 0 -144 41 -185 79v-68h-83zM333 467c-67 0 -128 -38 -169 -85v-240c41 -46 102 -84 169 -84c87 0 132 77 132 204c0 128 -45 205 -132 205z" />
    <glyph glyph-name="c" unicode="c" horiz-adv-x="522" 
d="M484 467l-38 -62c-27 15 -95 59 -158 59c-85 0 -149 -77 -149 -201s64 -202 149 -202c63 0 131 44 158 58l38 -61c-40 -23 -119 -69 -203 -69c-118 0 -228 91 -228 274s110 273 228 273c84 0 163 -46 203 -69z" />
    <glyph glyph-name="d" unicode="d" horiz-adv-x="603" 
d="M522 0h-83v68c-41 -38 -103 -79 -185 -79c-111 0 -200 80 -200 273c0 194 89 274 200 274c82 0 144 -42 185 -79v272h83v-729zM270 58c66 0 127 38 169 84v240c-42 47 -103 85 -169 85c-87 0 -132 -77 -132 -205c0 -127 45 -204 132 -204z" />
    <glyph glyph-name="e" unicode="e" horiz-adv-x="575" 
d="M513 241h-375c7 -115 66 -186 151 -186c71 0 147 42 196 71l38 -55c-48 -28 -136 -82 -239 -82c-126 0 -231 91 -231 273c0 177 102 274 244 274c147 0 223 -96 223 -227c0 -39 -7 -68 -7 -68zM296 472c-91 0 -148 -68 -157 -177h298c3 123 -52 177 -141 177z" />
    <glyph glyph-name="f" unicode="f" horiz-adv-x="352" 
d="M33 461v64h74v72c0 101 48 132 117 132c52 0 127 -24 155 -35l-30 -61c-21 7 -84 24 -111 24c-28 0 -50 -11 -50 -56v-76h142v-64h-142v-461h-81v461h-74z" />
    <glyph glyph-name="g" unicode="g" horiz-adv-x="603" 
d="M439 525h83v-555c0 -137 -83 -184 -200 -184c-70 0 -167 16 -245 38l18 70c75 -22 160 -39 216 -39c85 0 128 31 128 112v101c-41 -38 -103 -79 -185 -79c-111 0 -200 80 -200 273c0 194 89 274 200 274c82 0 144 -42 185 -79v68zM270 58c66 0 127 38 169 84v240
c-42 47 -103 85 -169 85c-87 0 -132 -77 -132 -205c0 -127 45 -204 132 -204z" />
    <glyph glyph-name="h" unicode="h" 
d="M164 729v-278c38 29 127 85 216 85c115 0 150 -74 150 -162v-374h-83v359c0 61 -19 109 -91 109c-73 0 -157 -55 -192 -86v-382h-83v729h83z" />
    <glyph glyph-name="i" unicode="i" horiz-adv-x="245" 
d="M163 0h-83v525h83v-525zM77 629v97h92v-97h-92z" />
    <glyph glyph-name="j" unicode="j" horiz-adv-x="245" 
d="M77 629v97h92v-97h-92zM165 525v-545c0 -110 0 -148 -173 -193l-28 63c118 38 118 48 118 126v549h83z" />
    <glyph glyph-name="k" unicode="k" horiz-adv-x="526" 
d="M479 525l-177 -212l210 -313h-89l-171 253l-88 -105v-148h-83v729h83v-479l221 275h94z" />
    <glyph glyph-name="l" unicode="l" horiz-adv-x="254" 
d="M168 0h-82v729h82v-729z" />
    <glyph glyph-name="m" unicode="m" horiz-adv-x="920" 
d="M164 525v-77c39 35 113 88 193 88c91 0 125 -52 138 -98c34 34 115 98 203 98c111 0 145 -74 145 -162v-374h-83v359c0 59 -17 109 -86 109c-67 0 -136 -54 -172 -93v-375h-82v359c0 59 -17 109 -87 109c-64 0 -131 -51 -169 -89v-379h-83v525h83z" />
    <glyph glyph-name="n" unicode="n" 
d="M164 525v-74c38 29 127 85 216 85c115 0 150 -74 150 -162v-374h-83v359c0 61 -19 109 -91 109c-73 0 -157 -55 -192 -86v-382h-83v525h83z" />
    <glyph glyph-name="o" unicode="o" horiz-adv-x="600" 
d="M548 262c0 -170 -87 -273 -247 -273c-161 0 -248 103 -248 273s87 274 248 274c160 0 247 -104 247 -274zM463 262c0 125 -48 207 -162 207c-115 0 -163 -82 -163 -207s48 -206 163 -206c114 0 162 81 162 206z" />
    <glyph glyph-name="p" unicode="p" horiz-adv-x="603" 
d="M164 525v-68c41 37 103 79 185 79c111 0 200 -80 200 -274c0 -193 -89 -273 -200 -273c-82 0 -144 41 -185 79v-272h-83v729h83zM333 467c-67 0 -128 -38 -169 -85v-240c41 -46 102 -84 169 -84c87 0 132 77 132 204c0 128 -45 205 -132 205z" />
    <glyph glyph-name="q" unicode="q" horiz-adv-x="603" 
d="M439 -204v272c-41 -38 -103 -79 -185 -79c-111 0 -200 80 -200 273c0 194 89 274 200 274c82 0 144 -42 185 -79v68h83v-729h-83zM270 58c66 0 127 38 169 84v240c-42 47 -103 85 -169 85c-87 0 -132 -77 -132 -205c0 -127 45 -204 132 -204z" />
    <glyph glyph-name="r" unicode="r" horiz-adv-x="387" 
d="M164 525v-112c7 18 60 128 199 118v-79c-179 0 -199 -165 -199 -165v-287h-83v525h83z" />
    <glyph glyph-name="s" unicode="s" horiz-adv-x="512" 
d="M279 301c114 -30 190 -74 190 -166c0 -99 -89 -146 -191 -146c-91 0 -182 35 -234 64l37 61c51 -27 132 -58 193 -58c58 0 112 26 112 76c0 65 -90 85 -156 103c-81 22 -175 55 -175 157c0 91 76 144 184 144c79 0 158 -29 207 -53l-36 -58c-49 23 -116 44 -169 44
c-61 0 -104 -27 -104 -73c0 -64 87 -81 142 -95z" />
    <glyph glyph-name="t" unicode="t" horiz-adv-x="383" 
d="M34 461v64h74v132l81 20v-152h145v-64h-145v-344c0 -44 22 -55 50 -55c30 0 82 19 100 27l31 -63c-24 -11 -89 -37 -145 -37c-67 0 -117 31 -117 132v340h-74z" />
    <glyph glyph-name="u" unicode="u" 
d="M443 0v73c-39 -29 -128 -84 -217 -84c-114 0 -149 73 -149 161v375h83v-359c0 -61 19 -109 91 -109s156 54 192 86v382h83v-525h-83z" />
    <glyph glyph-name="v" unicode="v" horiz-adv-x="557" 
d="M319 0h-80l-212 525h91l161 -440l161 440h91z" />
    <glyph glyph-name="w" unicode="w" horiz-adv-x="813" 
d="M535 0l-128 425l-129 -425h-82l-164 525h88l121 -439l128 439h76l128 -439l121 439h88l-166 -525h-81z" />
    <glyph glyph-name="x" unicode="x" horiz-adv-x="575" 
d="M454 0l-167 218l-166 -218h-102l219 263l-208 262h98l160 -213l158 213h99l-209 -261l220 -264h-102z" />
    <glyph glyph-name="y" unicode="y" horiz-adv-x="557" 
d="M27 525h90l161 -427l161 427h91l-294 -729h-91l92 207z" />
    <glyph glyph-name="z" unicode="z" horiz-adv-x="513" 
d="M43 0v64l320 391h-310v70h413v-64l-318 -391h318v-70h-423z" />
    <glyph glyph-name="braceleft" unicode="{" horiz-adv-x="394" 
d="M27 312v71c69 0 110 31 97 123l-12 93c-21 152 55 240 231 240h18v-57h-18c-131 0 -155 -82 -144 -170l12 -91c13 -101 -23 -155 -106 -174c83 -18 119 -72 106 -172l-12 -91c-11 -88 13 -170 144 -170h18v-57h-18c-176 0 -252 87 -231 240l13 93c12 92 -29 122 -98 122z
" />
    <glyph glyph-name="bar" unicode="|" horiz-adv-x="243" 
d="M155 -123h-66v941h66v-941z" />
    <glyph glyph-name="braceright" unicode="}" horiz-adv-x="394" 
d="M366 383v-71c-68 0 -109 -30 -96 -122l13 -93c21 -153 -56 -240 -231 -240h-19v57h19c131 0 154 82 142 170l-12 91c-13 100 23 154 106 172c-83 19 -119 73 -106 174l12 91c12 88 -11 170 -142 170h-19v57h19c175 0 251 -88 230 -240l-13 -93c-12 -92 29 -123 97 -123z
" />
    <glyph glyph-name="asciitilde" unicode="~" horiz-adv-x="615" 
d="M89 206l-56 23c37 80 89 117 154 117c99 0 160 -74 244 -74c30 0 62 10 94 67l56 -22c-37 -80 -90 -118 -155 -118c-97 0 -160 74 -243 74c-32 0 -61 -10 -94 -67z" />
    <glyph glyph-name="uni00A0" unicode="&#xa0;" horiz-adv-x="282" 
 />
    <glyph glyph-name="exclamdown" unicode="&#xa1;" horiz-adv-x="265" 
d="M85 584v116h96v-116h-96zM158 491l25 -491h-100l23 491h52z" />
    <glyph glyph-name="cent" unicode="&#xa2;" horiz-adv-x="559" 
d="M339 0h-65v77c-112 8 -213 99 -213 274s101 265 213 272v77h65v-81c69 -14 129 -51 164 -71l-39 -61c-24 13 -73 46 -125 59v-392c52 14 101 46 125 60l39 -61c-35 -20 -95 -58 -164 -71v-82zM147 351c0 -113 53 -188 127 -200v399c-74 -12 -127 -86 -127 -199z" />
    <glyph glyph-name="sterling" unicode="&#xa3;" horiz-adv-x="557" 
d="M73 259v58h103c-22 78 -91 126 -91 224c0 102 76 170 196 170c92 0 169 -41 223 -70l-41 -60c-63 33 -120 56 -172 56c-80 0 -121 -50 -121 -107c0 -78 72 -126 91 -213h164v-58h-160c-7 -88 -70 -163 -94 -185h321v-74h-430v61s114 82 121 198h-110z" />
    <glyph glyph-name="yen" unicode="&#xa5;" horiz-adv-x="669" 
d="M97 297v57h148l-210 346h98l202 -355l201 355h98l-211 -346h148v-57h-182l-12 -20v-52h194v-57h-194v-168h-86v168h-194v57h194v54l-11 18h-183z" />
    <glyph glyph-name="brokenbar" unicode="&#xa6;" horiz-adv-x="245" 
d="M156 405h-66v413h66v-413zM156 -123h-66v413h66v-413z" />
    <glyph glyph-name="section" unicode="&#xa7;" horiz-adv-x="550" 
d="M248 163c-115 31 -190 75 -190 164c0 61 36 98 98 119c-45 24 -78 60 -78 120c0 92 77 145 185 145c80 0 157 -29 207 -53l-36 -58c-48 23 -115 44 -168 44c-61 0 -107 -27 -107 -73c0 -64 89 -81 145 -95c111 -28 189 -75 189 -164c0 -63 -39 -100 -99 -120
c44 -24 78 -60 78 -120c0 -91 -76 -144 -185 -144c-79 0 -157 28 -207 53l36 58c49 -23 116 -45 170 -45c59 0 104 27 104 74c0 64 -87 80 -142 95zM254 410l-14 3c-59 -6 -102 -33 -102 -79c0 -66 92 -87 158 -105l14 -4c60 6 103 34 103 79c0 67 -93 88 -159 106z" />
    <glyph glyph-name="dieresis" unicode="&#xa8;" horiz-adv-x="231" 
d="M-10 609v93h83v-93h-83zM159 609v93h82v-93h-82z" />
    <glyph glyph-name="copyright" unicode="&#xa9;" horiz-adv-x="836" 
d="M579 505l-31 -36c-27 21 -71 54 -134 54c-74 0 -124 -69 -124 -174c0 -104 50 -172 124 -172c63 0 107 32 134 52l31 -35c-37 -26 -91 -62 -167 -62c-94 0 -174 74 -174 217c0 144 80 218 174 218c76 0 130 -36 167 -62zM62 350c0 202 128 361 357 361s356 -159 356 -361
s-127 -361 -356 -361s-357 159 -357 361zM102 350c0 -182 112 -323 316 -323c205 0 318 141 318 323s-113 323 -318 323c-204 0 -316 -141 -316 -323z" />
    <glyph glyph-name="ordfeminine" unicode="&#xaa;" horiz-adv-x="424" 
d="M288 385v41c-25 -23 -68 -48 -122 -48c-56 0 -111 32 -111 102c0 69 53 103 117 103c37 0 90 -12 116 -17v31c0 41 -16 61 -66 61c-36 0 -76 -12 -123 -26l-21 45c58 19 109 30 153 30c77 0 120 -31 120 -109v-213h-63zM184 429c40 0 74 16 104 42v60
c-22 4 -63 13 -93 13c-55 0 -75 -27 -75 -60c0 -39 27 -55 64 -55z" />
    <glyph glyph-name="guillemotleft" unicode="&#xab;" horiz-adv-x="686" 
d="M318 306l305 222v-83l-231 -166l231 -165v-83l-305 221v54zM38 306l305 222v-83l-231 -166l231 -165v-83l-305 221v54z" />
    <glyph glyph-name="logicalnot" unicode="&#xac;" horiz-adv-x="615" 
d="M594 90h-74v210h-503v66h577v-276z" />
    <glyph glyph-name="registered" unicode="&#xae;" horiz-adv-x="514" 
d="M59 500c0 112 71 200 198 200c126 0 197 -88 197 -200s-71 -200 -197 -200c-127 0 -198 88 -198 200zM95 500c0 -94 52 -167 162 -167c109 0 161 73 161 167s-52 167 -161 167c-110 0 -162 -73 -162 -167zM344 545c0 -27 -21 -49 -50 -56l47 -87h-37l-44 85h-44v-85h-33
v201h93c42 0 68 -24 68 -58zM310 545c0 15 -7 28 -33 28h-61v-55h59c25 0 35 12 35 27z" />
    <glyph glyph-name="macron" unicode="&#xaf;" horiz-adv-x="292" 
d="M0 624v55h292v-55h-292z" />
    <glyph glyph-name="degree" unicode="&#xb0;" horiz-adv-x="437" 
d="M52 534c0 91 75 166 167 166c91 0 166 -75 166 -166c0 -92 -75 -167 -166 -167c-92 0 -167 75 -167 167zM107 534c0 -62 50 -112 112 -112c61 0 112 50 112 112c0 61 -51 112 -112 112c-62 0 -112 -51 -112 -112z" />
    <glyph glyph-name="plusminus" unicode="&#xb1;" horiz-adv-x="615" 
d="M271 530h68v-162h219v-66h-219v-162h-68v162h-215v66h215v162zM56 0v60h502v-60h-502z" />
    <glyph glyph-name="twosuperior" unicode="&#xb2;" horiz-adv-x="392" 
d="M346 440v-55h-307v36c0 87 69 130 139 174c55 34 100 62 100 104c0 33 -28 58 -80 58c-47 0 -94 -24 -116 -39l-31 43c30 20 84 51 154 51c88 0 140 -46 140 -111c0 -81 -78 -122 -148 -164c-48 -29 -82 -53 -82 -97h231z" />
    <glyph glyph-name="threesuperior" unicode="&#xb3;" horiz-adv-x="394" 
d="M30 425l31 45c30 -17 80 -37 127 -37c55 0 96 27 96 72c0 61 -78 79 -134 79h-21v56h24c52 0 112 18 112 65c0 32 -28 52 -74 52c-47 0 -89 -21 -113 -35l-27 41c14 11 71 49 149 49c88 0 131 -48 131 -100c0 -39 -26 -76 -81 -95c58 -15 101 -57 101 -112
c0 -63 -46 -127 -155 -127c-77 0 -141 33 -166 47z" />
    <glyph glyph-name="acute" unicode="&#xb4;" horiz-adv-x="214" 
d="M58 599h-69l122 130h114z" />
    <glyph glyph-name="mu" unicode="&#xb5;" 
d="M88 -204v729h83v-359c0 -61 18 -109 90 -109s157 54 193 86v382h82v-525h-82v73c-40 -29 -128 -84 -218 -84c-26 0 -47 4 -65 11v-204h-83z" />
    <glyph glyph-name="paragraph" unicode="&#xb6;" horiz-adv-x="644" 
d="M289 700h73v-885h-75v454c-147 0 -248 72 -248 215c0 144 88 216 250 216zM472 -186v886h75v-886h-75z" />
    <glyph glyph-name="periodcentered" unicode="&#xb7;" horiz-adv-x="248" 
d="M76 224v121h96v-121h-96z" />
    <glyph glyph-name="cedilla" unicode="&#xb8;" horiz-adv-x="173" 
d="M-4 -153l21 50c21 -10 33 -14 51 -14c32 0 56 13 56 46c0 37 -31 73 -31 73h43s40 -42 40 -91c0 -53 -42 -83 -101 -83c-27 0 -53 6 -79 19z" />
    <glyph glyph-name="onesuperior" unicode="&#xb9;" horiz-adv-x="258" 
d="M192 385h-66v357l-78 -39l-28 44l111 58h61v-420z" />
    <glyph glyph-name="ordmasculine" unicode="&#xba;" horiz-adv-x="431" 
d="M375 542c0 -102 -57 -164 -160 -164c-104 0 -160 62 -160 164c0 103 56 165 160 165c103 0 160 -62 160 -165zM311 542c0 70 -29 115 -96 115c-68 0 -96 -45 -96 -115c0 -69 28 -114 96 -114c67 0 96 44 96 114z" />
    <glyph glyph-name="guillemotright" unicode="&#xbb;" horiz-adv-x="686" 
d="M368 252l-306 -221v83l231 165l-231 166v83l306 -222v-54zM648 306v-54l-306 -221v83l231 165l-231 166v83z" />
    <glyph glyph-name="onequarter" unicode="&#xbc;" horiz-adv-x="817" 
d="M640 0v89h-229v47l209 284h87v-277h68v-54h-68v-89h-67zM565 700l-333 -700h-70l333 700h70zM204 280h-66v357l-78 -39l-28 44l111 58h61v-420zM480 143h160v222z" />
    <glyph glyph-name="onehalf" unicode="&#xbd;" horiz-adv-x="840" 
d="M204 280h-66v357l-78 -39l-28 44l111 58h61v-420zM565 700l-333 -700h-70l333 700h70zM784 55v-55h-307v36c0 87 70 130 140 174c54 34 100 62 100 104c0 33 -29 58 -80 58c-48 0 -95 -24 -117 -39l-31 43c30 20 84 51 155 51c87 0 139 -46 139 -111
c0 -81 -78 -122 -148 -164c-48 -29 -81 -53 -81 -97h230z" />
    <glyph glyph-name="threequarters" unicode="&#xbe;" horiz-adv-x="929" 
d="M523 89v47l209 284h87v-277h67v-54h-67v-89h-66v89h-230zM45 320l31 45c29 -17 79 -37 127 -37c54 0 96 27 96 72c0 61 -79 79 -135 79h-21v56h24c52 0 113 18 113 65c0 32 -29 52 -75 52s-88 -21 -112 -35l-28 41c14 11 72 49 149 49c89 0 132 -48 132 -100
c0 -39 -26 -76 -81 -95c57 -15 100 -57 100 -112c0 -63 -45 -127 -155 -127c-76 0 -141 33 -165 47zM678 700l-333 -700h-70l333 700h70zM593 143h160v222z" />
    <glyph glyph-name="questiondown" unicode="&#xbf;" horiz-adv-x="512" 
d="M46 159c0 116 101 173 219 203l6 129h60l7 -176c-125 -28 -205 -63 -205 -146c0 -68 56 -106 131 -106c65 0 125 29 173 58l40 -58c-43 -30 -128 -74 -224 -74c-107 0 -207 57 -207 170zM349 700v-116h-96v116h96z" />
    <glyph glyph-name="Agrave" unicode="&#xc0;" horiz-adv-x="686" 
d="M567 0l-62 171h-324l-62 -171h-94l271 700h94l271 -700h-94zM343 620l-137 -378h273zM422 750h-70l-166 130h112z" />
    <glyph glyph-name="Aacute" unicode="&#xc1;" horiz-adv-x="686" 
d="M567 0l-62 171h-324l-62 -171h-94l271 700h94l271 -700h-94zM343 620l-137 -378h273zM335 750h-70l122 130h113z" />
    <glyph glyph-name="Acircumflex" unicode="&#xc2;" horiz-adv-x="686" 
d="M567 0l-62 171h-324l-62 -171h-94l271 700h94l271 -700h-94zM343 620l-137 -378h273zM391 880l100 -130h-63l-85 85l-84 -85h-63l98 130h97z" />
    <glyph glyph-name="Atilde" unicode="&#xc3;" horiz-adv-x="686" 
d="M567 0l-62 171h-324l-62 -171h-94l271 700h94l271 -700h-94zM343 620l-137 -378h273zM231 760l-46 20c25 47 47 84 93 84c51 0 95 -49 127 -49c15 0 27 6 50 46l45 -19c-24 -48 -47 -85 -93 -85c-50 0 -94 49 -126 49c-15 0 -28 -6 -50 -46z" />
    <glyph glyph-name="Adieresis" unicode="&#xc4;" horiz-adv-x="686" 
d="M567 0l-62 171h-324l-62 -171h-94l271 700h94l271 -700h-94zM343 620l-137 -378h273zM218 761v93h83v-93h-83zM386 761v93h83v-93h-83z" />
    <glyph glyph-name="Aring" unicode="&#xc5;" horiz-adv-x="686" 
d="M567 0l-62 171h-324l-62 -171h-94l271 700h94l271 -700h-94zM343 620l-137 -378h273zM241 843c0 58 45 105 103 105s104 -47 104 -105c0 -57 -46 -103 -104 -103s-103 46 -103 103zM288 843c0 -31 24 -56 56 -56s57 25 57 56c0 32 -25 57 -57 57s-56 -25 -56 -57z" />
    <glyph glyph-name="AE" unicode="&#xc6;" horiz-adv-x="1007" 
d="M951 0h-450v171h-294l-114 -171h-102l481 700h472v-75h-357v-238h296v-74h-296v-238h364v-75zM256 244h245v366z" />
    <glyph glyph-name="Ccedilla" unicode="&#xc7;" horiz-adv-x="647" 
d="M219 -153l20 50c22 -10 34 -14 51 -14c32 0 56 13 56 46c0 23 -12 46 -21 60c-141 6 -262 115 -262 361c0 252 128 361 275 361c103 0 195 -53 269 -103l-45 -62c-58 37 -137 87 -217 87c-113 0 -193 -104 -193 -283s80 -283 193 -283c80 0 159 50 217 87l45 -62
c-67 -45 -148 -92 -239 -101c12 -16 32 -45 32 -80c0 -53 -43 -83 -102 -83c-26 0 -54 6 -79 19z" />
    <glyph glyph-name="Egrave" unicode="&#xc8;" horiz-adv-x="600" 
d="M546 0h-450v700h444v-75h-357v-238h295v-74h-295v-238h363v-75zM400 750h-70l-166 130h113z" />
    <glyph glyph-name="Eacute" unicode="&#xc9;" horiz-adv-x="600" 
d="M546 0h-450v700h444v-75h-357v-238h295v-74h-295v-238h363v-75zM312 750h-69l123 130h113z" />
    <glyph glyph-name="Ecircumflex" unicode="&#xca;" horiz-adv-x="600" 
d="M546 0h-450v700h444v-75h-357v-238h295v-74h-295v-238h363v-75zM368 880l100 -130h-62l-85 85l-85 -85h-62l99 130h95z" />
    <glyph glyph-name="Edieresis" unicode="&#xcb;" horiz-adv-x="600" 
d="M546 0h-450v700h444v-75h-357v-238h295v-74h-295v-238h363v-75zM195 760v93h83v-93h-83zM364 760v93h82v-93h-82z" />
    <glyph glyph-name="Igrave" unicode="&#xcc;" horiz-adv-x="278" 
d="M183 0h-86v700h86v-700zM218 750h-69l-167 130h113z" />
    <glyph glyph-name="Iacute" unicode="&#xcd;" horiz-adv-x="278" 
d="M182 0h-87v700h87v-700zM130 750h-69l122 130h114z" />
    <glyph glyph-name="Icircumflex" unicode="&#xce;" horiz-adv-x="278" 
d="M182 0h-86v700h86v-700zM187 880l100 -130h-63l-85 85l-84 -85h-63l99 130h96z" />
    <glyph glyph-name="Idieresis" unicode="&#xcf;" horiz-adv-x="278" 
d="M182 0h-86v700h86v-700zM14 759v93h83v-93h-83zM182 759v93h82v-93h-82z" />
    <glyph glyph-name="Eth" unicode="&#xd0;" horiz-adv-x="712" 
d="M648 350c0 -250 -125 -350 -330 -350h-215v314h-75v72h75v314h215c205 0 330 -100 330 -350zM560 350c0 192 -77 275 -246 275h-125v-239h168v-72h-168v-239h125c169 0 246 82 246 275z" />
    <glyph glyph-name="Ntilde" unicode="&#xd1;" horiz-adv-x="730" 
d="M185 700l363 -573v573h86v-700h-89l-362 572v-572h-87v700h89zM259 762l-45 20c24 48 47 84 93 84c50 0 94 -48 126 -48c15 0 28 5 50 46l45 -20c-23 -47 -47 -84 -93 -84c-50 0 -94 48 -126 48c-15 0 -28 -5 -50 -46z" />
    <glyph glyph-name="Ograve" unicode="&#xd2;" horiz-adv-x="740" 
d="M369 711c224 0 308 -162 308 -361c0 -198 -84 -361 -308 -361c-223 0 -307 163 -307 361c0 199 84 361 307 361zM369 64c165 0 219 127 219 286s-54 286 -219 286c-163 0 -218 -127 -218 -286s55 -286 218 -286zM448 750h-69l-167 130h113z" />
    <glyph glyph-name="Oacute" unicode="&#xd3;" horiz-adv-x="740" 
d="M369 711c224 0 308 -162 308 -361c0 -198 -84 -361 -308 -361c-223 0 -307 163 -307 361c0 199 84 361 307 361zM369 64c165 0 219 127 219 286s-54 286 -219 286c-163 0 -218 -127 -218 -286s55 -286 218 -286zM361 750h-70l122 130h114z" />
    <glyph glyph-name="Ocircumflex" unicode="&#xd4;" horiz-adv-x="740" 
d="M369 711c224 0 308 -162 308 -361c0 -198 -84 -361 -308 -361c-223 0 -307 163 -307 361c0 199 84 361 307 361zM369 64c165 0 219 127 219 286s-54 286 -219 286c-163 0 -218 -127 -218 -286s55 -286 218 -286zM417 880l100 -130h-63l-85 85l-84 -85h-63l100 130h95z
" />
    <glyph glyph-name="Otilde" unicode="&#xd5;" horiz-adv-x="740" 
d="M369 711c224 0 308 -162 308 -361c0 -198 -84 -361 -308 -361c-223 0 -307 163 -307 361c0 199 84 361 307 361zM369 64c165 0 219 127 219 286s-54 286 -219 286c-163 0 -218 -127 -218 -286s55 -286 218 -286zM257 760l-45 20c24 47 47 84 93 84c50 0 94 -49 126 -49
c15 0 28 6 50 46l45 -19c-23 -48 -47 -85 -93 -85c-50 0 -94 49 -126 49c-15 0 -28 -6 -50 -46z" />
    <glyph glyph-name="Odieresis" unicode="&#xd6;" horiz-adv-x="740" 
d="M369 711c224 0 308 -162 308 -361c0 -198 -84 -361 -308 -361c-223 0 -307 163 -307 361c0 199 84 361 307 361zM369 64c165 0 219 127 219 286s-54 286 -219 286c-163 0 -218 -127 -218 -286s55 -286 218 -286zM244 760v93h83v-93h-83zM413 760v93h82v-93h-82z" />
    <glyph glyph-name="multiply" unicode="&#xd7;" horiz-adv-x="615" 
d="M508 470l-150 -136l151 -136l-48 -47l-154 138l-151 -137l-49 48l149 135l-151 137l48 48l154 -140l152 138z" />
    <glyph glyph-name="Oslash" unicode="&#xd8;" horiz-adv-x="738" 
d="M666 700l-65 -87c53 -66 76 -160 76 -263c0 -198 -84 -361 -308 -361c-81 0 -144 21 -191 58l-35 -47h-70l65 87c-54 66 -76 160 -76 263c0 199 83 361 307 361c81 0 144 -22 191 -58l35 47h71zM369 64c164 0 219 127 219 286c0 74 -12 140 -41 191l-320 -428
c34 -31 80 -49 142 -49zM151 350c0 -74 11 -141 40 -191l320 428c-34 31 -80 49 -142 49c-164 0 -218 -127 -218 -286z" />
    <glyph glyph-name="Ugrave" unicode="&#xd9;" horiz-adv-x="704" 
d="M615 700v-444c0 -150 -60 -267 -262 -267c-203 0 -263 117 -263 267v444h87v-447c0 -105 31 -189 176 -189c144 0 176 84 176 189v447h86zM432 750h-69l-167 130h113z" />
    <glyph glyph-name="Uacute" unicode="&#xda;" horiz-adv-x="704" 
d="M615 700v-444c0 -150 -60 -267 -262 -267c-203 0 -263 117 -263 267v444h87v-447c0 -105 31 -189 176 -189c144 0 176 84 176 189v447h86zM344 750h-69l122 130h114z" />
    <glyph glyph-name="Ucircumflex" unicode="&#xdb;" horiz-adv-x="704" 
d="M615 700v-444c0 -150 -60 -267 -262 -267c-203 0 -263 117 -263 267v444h87v-447c0 -105 31 -189 176 -189c144 0 176 84 176 189v447h86zM401 880l100 -130h-63l-85 85l-85 -85h-62l99 130h96z" />
    <glyph glyph-name="Udieresis" unicode="&#xdc;" horiz-adv-x="704" 
d="M615 700v-444c0 -150 -60 -267 -262 -267c-203 0 -263 117 -263 267v444h87v-447c0 -105 31 -189 176 -189c144 0 176 84 176 189v447h86zM227 760v93h82v-93h-82zM396 760v93h82v-93h-82z" />
    <glyph glyph-name="Yacute" unicode="&#xdd;" horiz-adv-x="635" 
d="M274 0v278l-256 422h98l202 -355l201 355h98l-257 -423v-277h-86zM309 750h-69l122 130h113z" />
    <glyph glyph-name="Thorn" unicode="&#xde;" horiz-adv-x="657" 
d="M608 362c0 -158 -110 -215 -261 -215h-164v-147h-87v700h87v-125h164c151 0 261 -55 261 -213zM519 362c0 106 -74 139 -178 139h-158v-281h158c104 0 178 37 178 142z" />
    <glyph glyph-name="germandbls" unicode="&#xdf;" horiz-adv-x="644" 
d="M329 711c151 0 248 -59 248 -224v-4l-53 -45c-24 12 -81 34 -127 34c-50 0 -88 -28 -88 -75c0 -65 70 -80 124 -96c97 -30 167 -74 167 -166c0 -99 -77 -146 -171 -146c-81 0 -164 35 -211 64l34 58c45 -27 117 -58 168 -58c50 0 97 26 97 78c0 65 -73 85 -134 104
c-71 23 -156 55 -156 157c0 91 68 144 164 144c36 0 70 -7 102 -17c-11 94 -69 125 -164 125c-106 0 -165 -38 -165 -160v-484h-83v486c0 167 99 225 248 225z" />
    <glyph glyph-name="agrave" unicode="&#xe0;" horiz-adv-x="577" 
d="M417 0v70c-40 -37 -107 -81 -195 -81c-86 0 -176 47 -176 168c0 119 86 171 182 171c61 0 148 -21 189 -28v59c0 74 -24 110 -110 110c-58 0 -122 -20 -195 -44l-30 61c89 32 167 50 236 50c115 0 182 -48 182 -174v-362h-83zM242 58c71 0 127 33 175 77v115
c-36 7 -104 23 -158 23c-96 0 -128 -52 -128 -112c0 -74 47 -103 111 -103zM370 599h-70l-165 130h112z" />
    <glyph glyph-name="aacute" unicode="&#xe1;" horiz-adv-x="577" 
d="M417 0v70c-40 -37 -107 -81 -195 -81c-86 0 -176 47 -176 168c0 119 86 171 182 171c61 0 148 -21 189 -28v59c0 74 -24 110 -110 110c-58 0 -122 -20 -195 -44l-30 61c89 32 167 50 236 50c115 0 182 -48 182 -174v-362h-83zM242 58c71 0 127 33 175 77v115
c-36 7 -104 23 -158 23c-96 0 -128 -52 -128 -112c0 -74 47 -103 111 -103zM283 599h-70l123 130h113z" />
    <glyph glyph-name="acircumflex" unicode="&#xe2;" horiz-adv-x="576" 
d="M417 0v70c-40 -37 -107 -81 -195 -81c-86 0 -176 47 -176 168c0 119 86 171 182 171c61 0 148 -21 189 -28v59c0 74 -24 110 -110 110c-58 0 -122 -20 -195 -44l-30 61c89 32 167 50 236 50c115 0 182 -48 182 -174v-362h-83zM242 58c71 0 127 33 175 77v115
c-36 7 -104 23 -158 23c-96 0 -128 -52 -128 -112c0 -74 47 -103 111 -103zM340 729l99 -130h-63l-85 85l-84 -85h-63l99 130h97z" />
    <glyph glyph-name="atilde" unicode="&#xe3;" horiz-adv-x="577" 
d="M417 0v70c-40 -37 -107 -81 -195 -81c-86 0 -176 47 -176 168c0 119 86 171 182 171c61 0 148 -21 189 -28v59c0 74 -24 110 -110 110c-58 0 -122 -20 -195 -44l-30 61c89 32 167 50 236 50c115 0 182 -48 182 -174v-362h-83zM242 58c71 0 127 33 175 77v115
c-36 7 -104 23 -158 23c-96 0 -128 -52 -128 -112c0 -74 47 -103 111 -103zM179 609l-45 20c24 47 47 84 93 84c50 0 94 -49 126 -49c15 0 28 6 50 46l45 -19c-23 -48 -47 -85 -93 -85c-50 0 -94 49 -126 49c-15 0 -28 -6 -50 -46z" />
    <glyph glyph-name="adieresis" unicode="&#xe4;" horiz-adv-x="577" 
d="M417 0v70c-40 -37 -107 -81 -195 -81c-86 0 -176 47 -176 168c0 119 86 171 182 171c61 0 148 -21 189 -28v59c0 74 -24 110 -110 110c-58 0 -122 -20 -195 -44l-30 61c89 32 167 50 236 50c115 0 182 -48 182 -174v-362h-83zM242 58c71 0 127 33 175 77v115
c-36 7 -104 23 -158 23c-96 0 -128 -52 -128 -112c0 -74 47 -103 111 -103zM166 609v93h83v-93h-83zM334 609v93h82v-93h-82z" />
    <glyph glyph-name="aring" unicode="&#xe5;" horiz-adv-x="577" 
d="M417 0v70c-40 -37 -107 -81 -195 -81c-86 0 -176 47 -176 168c0 119 86 171 182 171c61 0 148 -21 189 -28v59c0 74 -24 110 -110 110c-58 0 -122 -20 -195 -44l-30 61c89 32 167 50 236 50c115 0 182 -48 182 -174v-362h-83zM242 58c71 0 127 33 175 77v115
c-36 7 -104 23 -158 23c-96 0 -128 -52 -128 -112c0 -74 47 -103 111 -103zM188 692c0 58 45 105 103 105s104 -47 104 -105c0 -57 -46 -103 -104 -103s-103 46 -103 103zM235 692c0 -31 24 -56 56 -56s57 25 57 56c0 32 -25 57 -57 57s-56 -25 -56 -57z" />
    <glyph glyph-name="ae" unicode="&#xe6;" horiz-adv-x="921" 
d="M859 241h-375c7 -115 66 -186 151 -186c71 0 147 42 197 71l37 -55c-47 -28 -135 -82 -239 -82c-78 0 -147 34 -189 103c-58 -60 -133 -103 -219 -103s-176 47 -176 168c0 119 86 171 182 171c60 0 132 -21 172 -31c3 29 8 56 16 81c-4 61 -31 91 -109 91
c-58 0 -122 -20 -195 -44l-30 61c89 32 167 50 236 50c73 0 126 -20 155 -65c43 42 102 65 170 65c148 0 224 -96 224 -227c0 -39 -8 -68 -8 -68zM418 139c-11 31 -18 66 -19 106c-38 10 -94 28 -140 28c-96 0 -128 -52 -128 -112c0 -74 47 -103 111 -103
c70 0 126 34 176 81zM642 472c-91 0 -148 -68 -157 -177h298c3 123 -52 177 -141 177z" />
    <glyph glyph-name="ccedilla" unicode="&#xe7;" horiz-adv-x="523" 
d="M151 -153l21 50c20 -10 33 -14 51 -14c32 0 56 13 56 46c0 24 -13 48 -22 61c-109 11 -204 102 -204 273c0 183 110 273 228 273c84 0 163 -46 203 -69l-38 -62c-27 15 -95 59 -158 59c-85 0 -149 -77 -149 -201s64 -202 149 -202c63 0 131 44 158 58l38 -61
c-37 -21 -107 -62 -183 -68c12 -16 30 -45 30 -79c0 -53 -43 -83 -101 -83c-27 0 -54 6 -79 19z" />
    <glyph glyph-name="egrave" unicode="&#xe8;" horiz-adv-x="575" 
d="M513 241h-375c7 -115 66 -186 151 -186c71 0 147 42 196 71l38 -55c-48 -28 -136 -82 -239 -82c-126 0 -231 91 -231 273c0 177 102 274 244 274c147 0 223 -96 223 -227c0 -39 -7 -68 -7 -68zM296 472c-91 0 -148 -68 -157 -177h298c3 123 -52 177 -141 177zM375 599
h-69l-166 130h113z" />
    <glyph glyph-name="eacute" unicode="&#xe9;" horiz-adv-x="575" 
d="M513 241h-375c7 -115 66 -186 151 -186c71 0 147 42 196 71l38 -55c-48 -28 -136 -82 -239 -82c-126 0 -231 91 -231 273c0 177 102 274 244 274c147 0 223 -96 223 -227c0 -39 -7 -68 -7 -68zM296 472c-91 0 -148 -68 -157 -177h298c3 123 -52 177 -141 177zM289 599
h-70l122 130h114z" />
    <glyph glyph-name="ecircumflex" unicode="&#xea;" horiz-adv-x="575" 
d="M513 241h-375c7 -115 66 -186 151 -186c71 0 147 42 196 71l38 -55c-48 -28 -136 -82 -239 -82c-126 0 -231 91 -231 273c0 177 102 274 244 274c147 0 223 -96 223 -227c0 -39 -7 -68 -7 -68zM296 472c-91 0 -148 -68 -157 -177h298c3 123 -52 177 -141 177zM345 729
l100 -130h-63l-85 85l-84 -85h-63l99 130h96z" />
    <glyph glyph-name="edieresis" unicode="&#xeb;" horiz-adv-x="575" 
d="M513 241h-375c7 -115 66 -186 151 -186c71 0 147 42 196 71l38 -55c-48 -28 -136 -82 -239 -82c-126 0 -231 91 -231 273c0 177 102 274 244 274c147 0 223 -96 223 -227c0 -39 -7 -68 -7 -68zM296 472c-91 0 -148 -68 -157 -177h298c3 123 -52 177 -141 177zM172 609v93
h83v-93h-83zM340 609v93h82v-93h-82z" />
    <glyph glyph-name="igrave" unicode="&#xec;" horiz-adv-x="245" 
d="M164 0h-83v525h83v-525zM201 599h-70l-166 130h112z" />
    <glyph glyph-name="iacute" unicode="&#xed;" horiz-adv-x="245" 
d="M164 0h-83v525h83v-525zM114 599h-69l122 130h114z" />
    <glyph glyph-name="icircumflex" unicode="&#xee;" horiz-adv-x="245" 
d="M164 0h-83v525h83v-525zM170 729l100 -130h-63l-85 85l-84 -85h-63l100 130h95z" />
    <glyph glyph-name="idieresis" unicode="&#xef;" horiz-adv-x="245" 
d="M164 0h-83v525h83v-525zM-3 609v93h83v-93h-83zM166 609v93h82v-93h-82z" />
    <glyph glyph-name="eth" unicode="&#xf0;" horiz-adv-x="610" 
d="M237 557h-84l87 72c-13 2 -27 3 -42 3c-43 0 -76 -9 -76 -9l-14 65s37 12 92 12c38 0 74 -6 107 -16l56 45h86l-86 -70c120 -65 192 -204 192 -377c0 -219 -114 -293 -250 -293c-156 0 -251 96 -251 243s94 244 231 244c129 0 179 -79 179 -79c-20 81 -72 172 -162 213z
M470 233c0 108 -56 176 -164 176c-111 0 -165 -75 -165 -177c0 -104 56 -176 165 -176c105 0 164 67 164 177z" />
    <glyph glyph-name="ntilde" unicode="&#xf1;" 
d="M164 525v-74c38 29 127 85 216 85c115 0 150 -74 150 -162v-374h-83v359c0 61 -19 109 -91 109c-73 0 -157 -55 -192 -86v-382h-83v525h83zM192 601l-45 20c25 48 47 84 93 84c51 0 94 -48 127 -48c15 0 27 5 50 46l45 -20c-24 -47 -47 -84 -93 -84c-51 0 -94 48 -127 48
c-15 0 -27 -5 -50 -46z" />
    <glyph glyph-name="ograve" unicode="&#xf2;" horiz-adv-x="600" 
d="M548 262c0 -170 -87 -273 -247 -273c-161 0 -248 103 -248 273s87 274 248 274c160 0 247 -104 247 -274zM463 262c0 125 -48 207 -162 207c-115 0 -163 -82 -163 -207s48 -206 163 -206c114 0 162 81 162 206zM379 599h-69l-167 130h113z" />
    <glyph glyph-name="oacute" unicode="&#xf3;" horiz-adv-x="600" 
d="M548 262c0 -170 -87 -273 -247 -273c-161 0 -248 103 -248 273s87 274 248 274c160 0 247 -104 247 -274zM463 262c0 125 -48 207 -162 207c-115 0 -163 -82 -163 -207s48 -206 163 -206c114 0 162 81 162 206zM292 599h-70l123 130h113z" />
    <glyph glyph-name="ocircumflex" unicode="&#xf4;" horiz-adv-x="600" 
d="M548 262c0 -170 -87 -273 -247 -273c-161 0 -248 103 -248 273s87 274 248 274c160 0 247 -104 247 -274zM463 262c0 125 -48 207 -162 207c-115 0 -163 -82 -163 -207s48 -206 163 -206c114 0 162 81 162 206zM348 729l100 -130h-62l-85 85l-85 -85h-62l99 130h95z" />
    <glyph glyph-name="otilde" unicode="&#xf5;" horiz-adv-x="600" 
d="M548 262c0 -170 -87 -273 -247 -273c-161 0 -248 103 -248 273s87 274 248 274c160 0 247 -104 247 -274zM463 262c0 125 -48 207 -162 207c-115 0 -163 -82 -163 -207s48 -206 163 -206c114 0 162 81 162 206zM188 609l-43 15c21 47 41 85 88 85s92 -39 130 -40
c15 -1 31 2 49 38l45 -15c-22 -45 -42 -86 -89 -86s-93 40 -129 41c-18 0 -32 -3 -51 -38z" />
    <glyph glyph-name="odieresis" unicode="&#xf6;" horiz-adv-x="600" 
d="M548 262c0 -170 -87 -273 -247 -273c-161 0 -248 103 -248 273s87 274 248 274c160 0 247 -104 247 -274zM463 262c0 125 -48 207 -162 207c-115 0 -163 -82 -163 -207s48 -206 163 -206c114 0 162 81 162 206zM175 609v93h83v-93h-83zM344 609v93h82v-93h-82z" />
    <glyph glyph-name="divide" unicode="&#xf7;" horiz-adv-x="615" 
d="M56 300v66h502v-66h-502zM249 504c0 30 27 54 59 54c31 0 58 -24 58 -54s-27 -55 -58 -55c-32 0 -59 25 -59 55zM249 163c0 31 27 55 59 55c31 0 58 -24 58 -55c0 -30 -27 -54 -58 -54c-32 0 -59 24 -59 54z" />
    <glyph glyph-name="oslash" unicode="&#xf8;" horiz-adv-x="598" 
d="M534 525l-50 -64c40 -47 62 -115 62 -199c0 -170 -87 -273 -247 -273c-61 0 -111 14 -149 41l-24 -30h-63l50 64c-40 47 -61 114 -61 198c0 170 86 274 247 274c60 0 110 -15 148 -42l25 31h62zM462 262c0 53 -9 99 -28 134l-238 -307c25 -21 59 -33 103 -33
c114 0 163 81 163 206zM137 262c0 -53 8 -98 27 -132l238 305c-26 22 -60 34 -103 34c-114 0 -162 -82 -162 -207z" />
    <glyph glyph-name="ugrave" unicode="&#xf9;" 
d="M443 0v73c-39 -29 -128 -84 -217 -84c-114 0 -149 73 -149 161v375h83v-359c0 -61 19 -109 91 -109s156 54 192 86v382h83v-525h-83zM380 599h-70l-166 130h112z" />
    <glyph glyph-name="uacute" unicode="&#xfa;" 
d="M443 0v73c-39 -29 -128 -84 -217 -84c-114 0 -149 73 -149 161v375h83v-359c0 -61 19 -109 91 -109s156 54 192 86v382h83v-525h-83zM293 599h-70l122 130h113z" />
    <glyph glyph-name="ucircumflex" unicode="&#xfb;" 
d="M443 0v73c-39 -29 -128 -84 -217 -84c-114 0 -149 73 -149 161v375h83v-359c0 -61 19 -109 91 -109s156 54 192 86v382h83v-525h-83zM349 729l100 -130h-63l-85 85l-84 -85h-63l98 130h97z" />
    <glyph glyph-name="udieresis" unicode="&#xfc;" 
d="M443 0v73c-39 -29 -128 -84 -217 -84c-114 0 -149 73 -149 161v375h83v-359c0 -61 19 -109 91 -109s156 54 192 86v382h83v-525h-83zM344 609v93h83v-93h-83zM176 609v93h83v-93h-83z" />
    <glyph glyph-name="yacute" unicode="&#xfd;" horiz-adv-x="557" 
d="M27 525h90l161 -427l161 427h91l-294 -729h-91l92 207zM270 599h-70l123 130h113z" />
    <glyph glyph-name="thorn" unicode="&#xfe;" horiz-adv-x="603" 
d="M349 -11c-82 0 -144 41 -185 79v-272h-83v933h83v-272c41 37 103 79 185 79c111 0 200 -80 200 -274c0 -193 -89 -273 -200 -273zM333 467c-67 0 -128 -38 -169 -85v-240c41 -46 102 -84 169 -84c87 0 132 77 132 204c0 128 -45 205 -132 205z" />
    <glyph glyph-name="ydieresis" unicode="&#xff;" horiz-adv-x="557" 
d="M27 525h90l161 -427l161 427h91l-294 -729h-91l92 207zM153 609v93h83v-93h-83zM322 609v93h82v-93h-82z" />
    <glyph glyph-name="Amacron" unicode="&#x100;" horiz-adv-x="686" 
d="M567 0l-62 171h-324l-62 -171h-94l271 700h94l271 -700h-94zM343 620l-137 -378h273zM197 775v55h292v-55h-292z" />
    <glyph glyph-name="amacron" unicode="&#x101;" horiz-adv-x="577" 
d="M417 0v70c-40 -37 -107 -81 -195 -81c-86 0 -176 47 -176 168c0 119 86 171 182 171c61 0 148 -21 189 -28v59c0 74 -24 110 -110 110c-58 0 -122 -20 -195 -44l-30 61c89 32 167 50 236 50c115 0 182 -48 182 -174v-362h-83zM242 58c71 0 127 33 175 77v115
c-36 7 -104 23 -158 23c-96 0 -128 -52 -128 -112c0 -74 47 -103 111 -103zM145 625v55h292v-55h-292z" />
    <glyph glyph-name="Abreve" unicode="&#x102;" horiz-adv-x="686" 
d="M567 0l-62 171h-324l-62 -171h-94l271 700h94l271 -700h-94zM343 620l-137 -378h273zM342 750c-90 0 -142 41 -142 107h59c0 -38 32 -53 83 -53s84 15 84 53h59c0 -66 -53 -107 -143 -107z" />
    <glyph glyph-name="abreve" unicode="&#x103;" horiz-adv-x="577" 
d="M417 0v70c-40 -37 -107 -81 -195 -81c-86 0 -176 47 -176 168c0 119 86 171 182 171c61 0 148 -21 189 -28v59c0 74 -24 110 -110 110c-58 0 -122 -20 -195 -44l-30 61c89 32 167 50 236 50c115 0 182 -48 182 -174v-362h-83zM242 58c71 0 127 33 175 77v115
c-36 7 -104 23 -158 23c-96 0 -128 -52 -128 -112c0 -74 47 -103 111 -103zM292 599c-90 0 -142 41 -142 107h59c0 -38 32 -53 83 -53s84 15 84 53h59c0 -66 -53 -107 -143 -107z" />
    <glyph glyph-name="Aogonek" unicode="&#x104;" horiz-adv-x="686" 
d="M567 0l-62 171h-324l-62 -171h-94l271 700h94l271 -700h-3c-37 -22 -98 -53 -98 -96c0 -42 52 -37 80 -37l-11 -50c-34 0 -133 -2 -133 78c0 43 43 79 98 105h-27zM343 620l-137 -378h273z" />
    <glyph glyph-name="aogonek" unicode="&#x105;" horiz-adv-x="576" 
d="M417 0v70c-40 -37 -107 -81 -195 -81c-86 0 -176 47 -176 168c0 119 86 171 182 171c61 0 148 -21 189 -28v59c0 74 -24 110 -110 110c-58 0 -122 -20 -195 -44l-30 61c89 32 167 50 236 50c115 0 182 -48 182 -174v-362h-3c-38 -22 -98 -53 -98 -96c0 -42 52 -37 79 -37
l-10 -50c-35 0 -134 -2 -134 78c0 43 45 79 100 105h-17zM242 58c71 0 127 33 175 77v115c-36 7 -104 23 -158 23c-96 0 -128 -52 -128 -112c0 -74 47 -103 111 -103z" />
    <glyph glyph-name="Cacute" unicode="&#x106;" horiz-adv-x="647" 
d="M607 608l-45 -62c-58 37 -137 87 -217 87c-113 0 -193 -104 -193 -283s80 -283 193 -283c80 0 159 50 217 87l45 -62c-74 -50 -166 -103 -269 -103c-147 0 -275 108 -275 361c0 252 128 361 275 361c103 0 195 -53 269 -103zM370 750h-69l122 130h113z" />
    <glyph glyph-name="cacute" unicode="&#x107;" horiz-adv-x="522" 
d="M484 467l-38 -62c-27 15 -95 59 -158 59c-85 0 -149 -77 -149 -201s64 -202 149 -202c63 0 131 44 158 58l38 -61c-40 -23 -119 -69 -203 -69c-118 0 -228 91 -228 274s110 273 228 273c84 0 163 -46 203 -69zM275 599h-69l122 130h114z" />
    <glyph glyph-name="Cdotaccent" unicode="&#x10a;" horiz-adv-x="647" 
d="M607 608l-45 -62c-58 37 -137 87 -217 87c-113 0 -193 -104 -193 -283s80 -283 193 -283c80 0 159 50 217 87l45 -62c-74 -50 -166 -103 -269 -103c-147 0 -275 108 -275 361c0 252 128 361 275 361c103 0 195 -53 269 -103zM304 760v93h83v-93h-83z" />
    <glyph glyph-name="cdotaccent" unicode="&#x10b;" horiz-adv-x="522" 
d="M484 467l-38 -62c-27 15 -95 59 -158 59c-85 0 -149 -77 -149 -201s64 -202 149 -202c63 0 131 44 158 58l38 -61c-40 -23 -119 -69 -203 -69c-118 0 -228 91 -228 274s110 273 228 273c84 0 163 -46 203 -69zM242 610v92h83v-92h-83z" />
    <glyph glyph-name="Ccaron" unicode="&#x10c;" horiz-adv-x="647" 
d="M607 608l-45 -62c-58 37 -137 87 -217 87c-113 0 -193 -104 -193 -283s80 -283 193 -283c80 0 159 50 217 87l45 -62c-74 -50 -166 -103 -269 -103c-147 0 -275 108 -275 361c0 252 128 361 275 361c103 0 195 -53 269 -103zM502 880l-100 -130h-95l-99 130h62l85 -86
l85 86h62z" />
    <glyph glyph-name="ccaron" unicode="&#x10d;" horiz-adv-x="522" 
d="M484 467l-38 -62c-27 15 -95 59 -158 59c-85 0 -149 -77 -149 -201s64 -202 149 -202c63 0 131 44 158 58l38 -61c-40 -23 -119 -69 -203 -69c-118 0 -228 91 -228 274s110 273 228 273c84 0 163 -46 203 -69zM431 729l-99 -130h-96l-100 130h63l84 -86l85 86h63z" />
    <glyph glyph-name="Dcaron" unicode="&#x10e;" horiz-adv-x="705" 
d="M643 350c0 -250 -126 -350 -330 -350h-217v700h217c204 0 330 -100 330 -350zM554 350c0 192 -78 275 -247 275h-124v-550h124c169 0 247 82 247 275zM518 880l-100 -130h-97l-99 130h63l84 -86l86 86h63z" />
    <glyph glyph-name="dcaron" unicode="&#x10f;" horiz-adv-x="631" 
d="M522 0h-83v68c-41 -38 -103 -79 -185 -79c-111 0 -200 80 -200 273c0 194 89 274 200 274c82 0 144 -42 185 -79v272h83v-729zM270 58c66 0 127 38 169 84v240c-42 47 -103 85 -169 85c-87 0 -132 -77 -132 -205c0 -127 45 -204 132 -204zM582 632v97h80l10 -101
l-71 -108l-24 26l43 86h-38z" />
    <glyph glyph-name="Dcroat" unicode="&#x110;" horiz-adv-x="712" 
d="M648 350c0 -250 -125 -350 -330 -350h-215v314h-75v72h75v314h215c205 0 330 -100 330 -350zM560 350c0 192 -77 275 -246 275h-125v-239h168v-72h-168v-239h125c169 0 246 82 246 275z" />
    <glyph glyph-name="dcroat" unicode="&#x111;" horiz-adv-x="603" 
d="M270 594v56h169v79h83v-79h65v-56h-65v-594h-83v68c-41 -38 -103 -79 -185 -79c-111 0 -200 80 -200 273c0 194 89 274 200 274c82 0 144 -42 185 -79v137h-169zM270 58c66 0 127 38 169 84v240c-42 47 -103 85 -169 85c-87 0 -132 -77 -132 -205
c0 -127 45 -204 132 -204z" />
    <glyph glyph-name="Emacron" unicode="&#x112;" horiz-adv-x="600" 
d="M546 0h-450v700h444v-75h-357v-238h295v-74h-295v-238h363v-75zM175 775v55h292v-55h-292z" />
    <glyph glyph-name="emacron" unicode="&#x113;" horiz-adv-x="575" 
d="M513 241h-375c7 -115 66 -186 151 -186c71 0 147 42 196 71l38 -55c-48 -28 -136 -82 -239 -82c-126 0 -231 91 -231 273c0 177 102 274 244 274c147 0 223 -96 223 -227c0 -39 -7 -68 -7 -68zM296 472c-91 0 -148 -68 -157 -177h298c3 123 -52 177 -141 177zM152 624v55
h292v-55h-292z" />
    <glyph glyph-name="Edotaccent" unicode="&#x116;" horiz-adv-x="600" 
d="M546 0h-450v700h444v-75h-357v-238h295v-74h-295v-238h363v-75zM280 760v93h83v-93h-83z" />
    <glyph glyph-name="edotaccent" unicode="&#x117;" horiz-adv-x="575" 
d="M513 241h-375c7 -115 66 -186 151 -186c71 0 147 42 196 71l38 -55c-48 -28 -136 -82 -239 -82c-126 0 -231 91 -231 273c0 177 102 274 244 274c147 0 223 -96 223 -227c0 -39 -7 -68 -7 -68zM296 472c-91 0 -148 -68 -157 -177h298c3 123 -52 177 -141 177zM256 609v93
h82v-93h-82z" />
    <glyph glyph-name="Eogonek" unicode="&#x118;" horiz-adv-x="600" 
d="M445 -96c0 -42 52 -37 80 -37l-11 -50c-34 0 -133 -2 -133 78c0 43 43 79 98 105h-383v700h444v-75h-357v-238h295v-74h-295v-238h363v-75h-3c-37 -22 -98 -53 -98 -96z" />
    <glyph glyph-name="eogonek" unicode="&#x119;" horiz-adv-x="575" 
d="M265 -96c0 -42 52 -37 80 -37l-11 -50c-35 0 -133 -2 -133 78c0 37 33 69 78 94c-124 3 -226 93 -226 273c0 177 102 274 244 274c147 0 223 -96 223 -227c0 -39 -7 -68 -7 -68h-375c7 -115 66 -186 151 -186c71 0 147 42 196 71l38 -55c-36 -21 -93 -56 -162 -72
c-38 -22 -96 -53 -96 -95zM296 472c-91 0 -148 -68 -157 -177h298c3 123 -52 177 -141 177z" />
    <glyph glyph-name="Ecaron" unicode="&#x11a;" horiz-adv-x="600" 
d="M546 0h-450v700h444v-75h-357v-238h295v-74h-295v-238h363v-75zM468 872l-100 -130h-95l-99 130h62l85 -85l85 85h62z" />
    <glyph glyph-name="ecaron" unicode="&#x11b;" horiz-adv-x="575" 
d="M513 241h-375c7 -115 66 -186 151 -186c71 0 147 42 196 71l38 -55c-48 -28 -136 -82 -239 -82c-126 0 -231 91 -231 273c0 177 102 274 244 274c147 0 223 -96 223 -227c0 -39 -7 -68 -7 -68zM296 472c-91 0 -148 -68 -157 -177h298c3 123 -52 177 -141 177zM445 729
l-100 -130h-96l-99 130h63l84 -86l85 86h63z" />
    <glyph glyph-name="Gbreve" unicode="&#x11e;" horiz-adv-x="704" 
d="M548 0v82c-56 -49 -127 -93 -215 -93c-142 0 -270 108 -270 361c0 252 128 361 277 361c110 0 205 -56 280 -109l-46 -63c-58 37 -142 94 -228 94c-114 0 -194 -104 -194 -283c0 -177 78 -286 194 -286c85 0 164 66 202 100v146h-192v72h276v-382h-84zM347 750
c-89 0 -142 41 -142 107h59c0 -38 33 -53 83 -53c51 0 84 15 84 53h60c0 -66 -53 -107 -144 -107z" />
    <glyph glyph-name="gbreve" unicode="&#x11f;" horiz-adv-x="603" 
d="M301 599c-90 0 -143 41 -143 107h59c0 -38 33 -53 84 -53s84 15 84 53h59c0 -66 -53 -107 -143 -107zM439 525h83v-555c0 -137 -83 -184 -200 -184c-70 0 -167 16 -245 38l18 70c75 -22 160 -39 216 -39c85 0 128 31 128 112v101c-41 -38 -103 -79 -185 -79
c-111 0 -200 80 -200 273c0 194 89 274 200 274c82 0 144 -42 185 -79v68zM270 58c66 0 127 38 169 84v240c-42 47 -103 85 -169 85c-87 0 -132 -77 -132 -205c0 -127 45 -204 132 -204z" />
    <glyph glyph-name="Gdotaccent" unicode="&#x120;" horiz-adv-x="704" 
d="M548 0v82c-56 -49 -127 -93 -215 -93c-142 0 -270 108 -270 361c0 252 128 361 277 361c110 0 205 -56 280 -109l-46 -63c-58 37 -142 94 -228 94c-114 0 -194 -104 -194 -283c0 -177 78 -286 194 -286c85 0 164 66 202 100v146h-192v72h276v-382h-84zM306 760v93h83v-93
h-83z" />
    <glyph glyph-name="gdotaccent" unicode="&#x121;" horiz-adv-x="603" 
d="M258 609v93h83v-93h-83zM439 525h83v-555c0 -137 -83 -184 -200 -184c-70 0 -167 16 -245 38l18 70c75 -22 160 -39 216 -39c85 0 128 31 128 112v101c-41 -38 -103 -79 -185 -79c-111 0 -200 80 -200 273c0 194 89 274 200 274c82 0 144 -42 185 -79v68zM270 58
c66 0 127 38 169 84v240c-42 47 -103 85 -169 85c-87 0 -132 -77 -132 -205c0 -127 45 -204 132 -204z" />
    <glyph glyph-name="Gcommaaccent" unicode="&#x122;" horiz-adv-x="704" 
d="M548 0v82c-56 -49 -127 -93 -215 -93c-142 0 -270 108 -270 361c0 252 128 361 277 361c110 0 205 -56 280 -109l-46 -63c-58 37 -142 94 -228 94c-114 0 -194 -104 -194 -283c0 -177 78 -286 194 -286c85 0 164 66 202 100v146h-192v72h276v-382h-84zM327 -160v97h80
l10 -101l-71 -108l-25 26l44 86h-38z" />
    <glyph glyph-name="gcommaaccent" unicode="&#x123;" horiz-adv-x="603" 
d="M341 707v-98h-80l-11 102l73 111l25 -27l-44 -88h37zM439 525h83v-555c0 -137 -83 -184 -200 -184c-70 0 -167 16 -245 38l18 70c75 -22 160 -39 216 -39c85 0 128 31 128 112v101c-41 -38 -103 -79 -185 -79c-111 0 -200 80 -200 273c0 194 89 274 200 274
c82 0 144 -42 185 -79v68zM270 58c66 0 127 38 169 84v240c-42 47 -103 85 -169 85c-87 0 -132 -77 -132 -205c0 -127 45 -204 132 -204z" />
    <glyph glyph-name="Hbar" unicode="&#x126;" horiz-adv-x="727" 
d="M539 0v330h-350v-330h-86v520h-76v55h76v125h86v-125h350v125h86v-125h75v-55h-75v-520h-86zM189 520v-116h350v116h-350z" />
    <glyph glyph-name="hbar" unicode="&#x127;" 
d="M16 594v56h66v79h82v-79h170v-56h-170v-143c39 28 127 85 218 85c113 0 148 -74 148 -162v-374h-83v359c0 61 -18 109 -90 109c-73 0 -157 -55 -193 -86v-382h-82v594h-66z" />
    <glyph glyph-name="Itilde" unicode="&#x128;" horiz-adv-x="278" 
d="M26 760l-45 20c25 47 47 84 93 84c51 0 94 -49 127 -49c15 0 27 6 50 46l45 -19c-24 -48 -47 -85 -93 -85c-51 0 -94 49 -127 49c-15 0 -27 -6 -50 -46zM182 0h-86v700h86v-700z" />
    <glyph glyph-name="itilde" unicode="&#x129;" horiz-adv-x="245" 
d="M10 609l-45 20c24 47 47 84 93 84c50 0 94 -49 126 -49c15 0 28 6 50 46l45 -19c-23 -48 -47 -85 -93 -85c-50 0 -94 49 -126 49c-15 0 -28 -6 -50 -46zM164 0h-83v525h83v-525z" />
    <glyph glyph-name="Imacron" unicode="&#x12a;" horiz-adv-x="278" 
d="M182 0h-86v700h86v-700zM-7 775v55h292v-55h-292z" />
    <glyph glyph-name="imacron" unicode="&#x12b;" horiz-adv-x="245" 
d="M163 0h-82v525h82v-525zM-24 624v55h292v-55h-292z" />
    <glyph glyph-name="Ibreve" unicode="&#x12c;" horiz-adv-x="278" 
d="M139 750c-90 0 -142 41 -142 107h59c0 -38 32 -53 83 -53s84 15 84 53h59c0 -66 -53 -107 -143 -107zM182 0h-86v700h86v-700z" />
    <glyph glyph-name="ibreve" unicode="&#x12d;" horiz-adv-x="245" 
d="M122 599c-90 0 -142 41 -142 107h59c0 -38 33 -53 83 -53c51 0 84 15 84 53h60c0 -66 -53 -107 -144 -107zM164 0h-83v525h83v-525z" />
    <glyph glyph-name="Iogonek" unicode="&#x12e;" horiz-adv-x="278" 
d="M81 -96c0 -42 52 -37 80 -37l-11 -50c-34 0 -134 -2 -134 78c0 43 45 79 99 105h-19v700h86v-700h-3c-37 -22 -98 -53 -98 -96z" />
    <glyph glyph-name="iogonek" unicode="&#x12f;" horiz-adv-x="245" 
d="M63 -96c0 -42 51 -37 79 -37l-10 -50c-34 0 -134 -2 -134 78c0 43 45 79 99 105h-16v525h83v-525h-3c-38 -22 -98 -53 -98 -96zM77 629v97h92v-97h-92z" />
    <glyph glyph-name="Idotaccent" unicode="&#x130;" horiz-adv-x="278" 
d="M183 0h-87v700h87v-700zM98 760v93h83v-93h-83z" />
    <glyph glyph-name="dotlessi" unicode="&#x131;" horiz-adv-x="245" 
d="M164 0h-83v525h83v-525z" />
    <glyph glyph-name="IJ" unicode="&#x132;" horiz-adv-x="557" 
d="M183 0h-87v700h87v-700zM463 700v-655c0 -110 0 -148 -175 -193l-29 67c117 38 117 48 117 123v658h87z" />
    <glyph glyph-name="ij" unicode="&#x133;" horiz-adv-x="490" 
d="M326 629v97h91v-97h-91zM412 525v-545c0 -110 0 -148 -172 -193l-28 63c118 38 118 48 118 126v549h82zM163 0h-83v525h83v-525zM77 629v97h92v-97h-92z" />
    <glyph glyph-name="Jcircumflex" unicode="&#x134;" horiz-adv-x="279" 
d="M183 700v-655c0 -110 0 -148 -174 -193l-30 67c118 38 118 48 118 123v658h86zM188 880l100 -130h-63l-85 85l-84 -85h-63l98 130h97z" />
    <glyph glyph-name="jcircumflex" unicode="&#x135;" horiz-adv-x="245" 
d="M165 525v-545c0 -110 0 -148 -173 -193l-28 63c118 38 118 48 118 126v549h83zM171 729l100 -130h-63l-85 85l-84 -85h-63l98 130h97z" />
    <glyph glyph-name="Kcommaaccent" unicode="&#x136;" horiz-adv-x="657" 
d="M96 0v700h87v-394l329 394h102l-285 -337l315 -363h-105l-261 303l-95 -113v-190h-87zM287 -160v97h80l10 -101l-72 -108l-24 26l43 86h-37z" />
    <glyph glyph-name="kcommaaccent" unicode="&#x137;" horiz-adv-x="526" 
d="M479 525l-177 -212l210 -313h-89l-171 253l-88 -105v-148h-83v729h83v-479l221 275h94zM233 -160v97h80l10 -101l-71 -108l-25 26l44 86h-38z" />
    <glyph glyph-name="kgreenlandic" unicode="&#x138;" horiz-adv-x="526" 
d="M479 525l-177 -212l210 -313h-89l-171 253l-88 -105v-148h-83v525h83v-275l221 275h94z" />
    <glyph glyph-name="Lacute" unicode="&#x139;" horiz-adv-x="556" 
d="M529 0h-434v700h87v-625h347v-75zM130 750h-69l122 130h114z" />
    <glyph glyph-name="lacute" unicode="&#x13a;" horiz-adv-x="254" 
d="M168 0h-83v729h83v-729zM118 780h-69l123 130h113z" />
    <glyph glyph-name="Lcommaaccent" unicode="&#x13b;" horiz-adv-x="555" 
d="M270 -160v97h80l10 -101l-71 -108l-25 26l44 86h-38zM529 0h-433v700h87v-625h346v-75z" />
    <glyph glyph-name="lcommaaccent" unicode="&#x13c;" horiz-adv-x="254" 
d="M88 -160v97h80l9 -101l-71 -108l-24 26l43 86h-37zM169 0h-83v729h83v-729z" />
    <glyph glyph-name="Lcaron" unicode="&#x13d;" horiz-adv-x="555" 
d="M243 603v97h80l10 -101l-71 -108l-25 26l44 86h-38zM529 0h-433v700h87v-625h346v-75z" />
    <glyph glyph-name="lcaron" unicode="&#x13e;" horiz-adv-x="277" 
d="M228 632v97h80l10 -101l-70 -108l-26 26l44 86h-38zM168 0h-82v729h82v-729z" />
    <glyph glyph-name="Ldot" unicode="&#x13f;" horiz-adv-x="556" 
d="M529 0h-433v700h87v-625h346v-75zM385 317v92h83v-92h-83z" />
    <glyph glyph-name="ldot" unicode="&#x140;" horiz-adv-x="294" 
d="M168 0h-82v729h82v-729zM228 317v92h83v-92h-83z" />
    <glyph glyph-name="Lslash" unicode="&#x141;" horiz-adv-x="564" 
d="M538 0h-433v269l-73 -40v83l73 40v348h86v-301l137 76v-82l-137 -76v-242h347v-75z" />
    <glyph glyph-name="lslash" unicode="&#x142;" horiz-adv-x="278" 
d="M181 0h-82v300l-69 -38v83l69 38v346h82v-301l68 38v-82l-68 -38v-346z" />
    <glyph glyph-name="Nacute" unicode="&#x143;" horiz-adv-x="730" 
d="M545 0l-362 572v-572h-87v700h89l363 -573v573h86v-700h-89zM362 750h-69l122 130h114z" />
    <glyph glyph-name="nacute" unicode="&#x144;" 
d="M164 525v-74c38 29 127 85 216 85c115 0 150 -74 150 -162v-374h-83v359c0 61 -19 109 -91 109c-73 0 -157 -55 -192 -86v-382h-83v525h83zM297 599h-71l123 130h113z" />
    <glyph glyph-name="Ncommaaccent" unicode="&#x145;" horiz-adv-x="730" 
d="M185 700l363 -573v573h86v-700h-89l-362 572v-572h-87v700h89zM331 -160v97h80l10 -101l-71 -108l-25 26l43 86h-37z" />
    <glyph glyph-name="ncommaaccent" unicode="&#x146;" 
d="M164 525v-74c38 29 127 85 216 85c115 0 150 -74 150 -162v-374h-83v359c0 61 -19 109 -91 109c-73 0 -157 -55 -192 -86v-382h-83v525h83zM265 -160v97h80l10 -101l-71 -108l-25 26l44 86h-38z" />
    <glyph glyph-name="Ncaron" unicode="&#x147;" horiz-adv-x="730" 
d="M545 0l-362 572v-572h-87v700h89l363 -573v573h86v-700h-89zM519 880l-100 -130h-96l-100 130h63l84 -86l86 86h63z" />
    <glyph glyph-name="ncaron" unicode="&#x148;" 
d="M164 525v-74c38 29 127 85 216 85c115 0 150 -74 150 -162v-374h-83v359c0 61 -19 109 -91 109c-73 0 -157 -55 -192 -86v-382h-83v525h83zM450 729l-100 -130h-96l-99 130h62l85 -86l86 86h62z" />
    <glyph glyph-name="napostrophe" unicode="&#x149;" horiz-adv-x="606" 
d="M164 525v-73c40 29 128 84 217 84c114 0 148 -74 148 -162v-374h-83v359c0 61 -19 109 -90 109c-72 0 -156 -54 -192 -86v-382h-83v525h83zM81 688v96h80l9 -101l-70 -108l-25 26l43 87h-37z" />
    <glyph glyph-name="Eng" unicode="&#x14a;" horiz-adv-x="730" 
d="M634 700v-664c0 -104 -4 -140 -173 -184l-30 67c90 28 110 40 115 79l-363 574v-572h-87v700h89l363 -572v572h86z" />
    <glyph glyph-name="eng" unicode="&#x14b;" 
d="M530 374v-395c0 -110 0 -147 -173 -192l-28 63c118 39 118 47 118 126v383c0 61 -19 109 -91 109c-73 0 -157 -55 -192 -86v-382h-83v525h83v-74c38 29 127 85 216 85c115 0 150 -74 150 -162z" />
    <glyph glyph-name="Omacron" unicode="&#x14c;" horiz-adv-x="740" 
d="M369 711c224 0 308 -162 308 -361c0 -198 -84 -361 -308 -361c-223 0 -307 163 -307 361c0 199 84 361 307 361zM369 64c165 0 219 127 219 286s-54 286 -219 286c-163 0 -218 -127 -218 -286s55 -286 218 -286zM223 775v55h292v-55h-292z" />
    <glyph glyph-name="omacron" unicode="&#x14d;" horiz-adv-x="600" 
d="M548 262c0 -170 -87 -273 -247 -273c-161 0 -248 103 -248 273s87 274 248 274c160 0 247 -104 247 -274zM463 262c0 125 -48 207 -162 207c-115 0 -163 -82 -163 -207s48 -206 163 -206c114 0 162 81 162 206zM155 624v55h292v-55h-292z" />
    <glyph glyph-name="Obreve" unicode="&#x14e;" horiz-adv-x="740" 
d="M369 711c224 0 308 -162 308 -361c0 -198 -84 -361 -308 -361c-223 0 -307 163 -307 361c0 199 84 361 307 361zM369 64c165 0 219 127 219 286s-54 286 -219 286c-163 0 -218 -127 -218 -286s55 -286 218 -286zM369 750c-90 0 -143 41 -143 107h59c0 -38 34 -53 84 -53
c51 0 84 15 84 53h59c0 -66 -53 -107 -143 -107z" />
    <glyph glyph-name="obreve" unicode="&#x14f;" horiz-adv-x="600" 
d="M548 262c0 -170 -87 -273 -247 -273c-161 0 -248 103 -248 273s87 274 248 274c160 0 247 -104 247 -274zM463 262c0 125 -48 207 -162 207c-115 0 -163 -82 -163 -207s48 -206 163 -206c114 0 162 81 162 206zM300 599c-89 0 -142 41 -142 107h59c0 -38 33 -53 83 -53
c51 0 84 15 84 53h60c0 -66 -53 -107 -144 -107z" />
    <glyph glyph-name="Ohungarumlaut" unicode="&#x150;" horiz-adv-x="740" 
d="M369 711c224 0 308 -162 308 -361c0 -198 -84 -361 -308 -361c-223 0 -307 163 -307 361c0 199 84 361 307 361zM369 64c165 0 219 127 219 286s-54 286 -219 286c-163 0 -218 -127 -218 -286s55 -286 218 -286zM453 750h-51l77 130h95zM302 750h-52l77 130h97z" />
    <glyph glyph-name="ohungarumlaut" unicode="&#x151;" horiz-adv-x="600" 
d="M548 262c0 -170 -87 -273 -247 -273c-161 0 -248 103 -248 273s87 274 248 274c160 0 247 -104 247 -274zM463 262c0 125 -48 207 -162 207c-115 0 -163 -82 -163 -207s48 -206 163 -206c114 0 162 81 162 206zM384 599h-52l77 130h96zM232 599h-52l78 130h96z" />
    <glyph glyph-name="OE" unicode="&#x152;" horiz-adv-x="1095" 
d="M1040 0h-449v76c-49 -54 -122 -87 -222 -87c-223 0 -307 163 -307 361c0 199 84 361 307 361c100 0 173 -33 222 -87v76h443v-75h-357v-238h295v-74h-295v-238h363v-75zM369 64c165 0 219 127 219 286s-54 286 -219 286c-163 0 -218 -127 -218 -286s55 -286 218 -286z
" />
    <glyph glyph-name="oe" unicode="&#x153;" horiz-adv-x="985" 
d="M925 241h-375c7 -115 64 -186 149 -186c73 0 148 42 197 71l38 -55c-48 -28 -136 -82 -239 -82c-77 0 -147 34 -189 102c-40 -66 -110 -102 -205 -102c-161 0 -248 103 -248 273s87 274 248 274c96 0 165 -38 206 -104c42 68 114 104 201 104c147 0 223 -96 223 -227
c0 -39 -6 -68 -6 -68zM463 262c0 125 -48 207 -162 207c-115 0 -163 -82 -163 -207s48 -206 163 -206c114 0 162 81 162 206zM707 472c-92 0 -148 -68 -156 -177h297c2 123 -53 177 -141 177z" />
    <glyph glyph-name="Racute" unicode="&#x154;" horiz-adv-x="686" 
d="M536 0l-183 297h-170v-297h-87v700h272c153 0 262 -53 262 -202c0 -125 -78 -182 -190 -197l191 -301h-95zM542 498c0 96 -74 131 -172 131h-187v-261h182c103 0 177 34 177 130zM355 750h-70l122 130h115z" />
    <glyph glyph-name="racute" unicode="&#x155;" horiz-adv-x="387" 
d="M213 599h-69l123 130h113zM164 525v-112c7 18 60 128 199 118v-79c-179 0 -199 -165 -199 -165v-287h-83v525h83z" />
    <glyph glyph-name="Rcommaaccent" unicode="&#x156;" horiz-adv-x="686" 
d="M536 0l-183 297h-170v-297h-87v700h272c153 0 262 -53 262 -202c0 -125 -78 -182 -190 -197l191 -301h-95zM542 498c0 96 -74 131 -172 131h-187v-261h182c103 0 177 34 177 130zM302 -160v97h80l10 -101l-71 -108l-25 26l43 86h-37z" />
    <glyph glyph-name="rcommaaccent" unicode="&#x157;" horiz-adv-x="387" 
d="M83 -160v97h79l10 -101l-71 -108l-24 26l43 86h-37zM163 525v-112c8 18 61 128 200 118v-79c-179 0 -200 -165 -200 -165v-287h-82v525h82z" />
    <glyph glyph-name="Rcaron" unicode="&#x158;" horiz-adv-x="686" 
d="M536 0l-183 297h-170v-297h-87v700h272c153 0 262 -53 262 -202c0 -125 -78 -182 -190 -197l191 -301h-95zM542 498c0 96 -74 131 -172 131h-187v-261h182c103 0 177 34 177 130zM511 880l-100 -130h-95l-100 130h63l84 -86l85 86h63z" />
    <glyph glyph-name="rcaron" unicode="&#x159;" horiz-adv-x="387" 
d="M370 729l-100 -130h-96l-99 130h63l84 -86l85 86h63zM163 525v-112c8 18 61 128 200 118v-79c-179 0 -200 -165 -200 -165v-287h-82v525h82z" />
    <glyph glyph-name="Sacute" unicode="&#x15a;" horiz-adv-x="613" 
d="M297 750h-70l123 130h113zM345 394c98 -33 221 -80 221 -213c0 -127 -112 -192 -237 -192c-106 0 -217 46 -282 85l40 64c62 -35 162 -75 242 -75c76 0 148 36 148 112c0 86 -94 115 -213 155c-94 31 -202 73 -202 195c0 118 98 186 225 186c86 0 187 -32 251 -66
l-40 -64c-60 31 -148 56 -208 56c-72 0 -138 -32 -138 -107c0 -83 88 -101 193 -136z" />
    <glyph glyph-name="sacute" unicode="&#x15b;" horiz-adv-x="512" 
d="M248 599h-70l122 130h114zM279 301c114 -30 190 -74 190 -166c0 -99 -89 -146 -191 -146c-91 0 -182 35 -234 64l37 61c51 -27 132 -58 193 -58c58 0 112 26 112 76c0 65 -90 85 -156 103c-81 22 -175 55 -175 157c0 91 76 144 184 144c79 0 158 -29 207 -53l-36 -58
c-49 23 -116 44 -169 44c-61 0 -104 -27 -104 -73c0 -64 87 -81 142 -95z" />
    <glyph glyph-name="Scircumflex" unicode="&#x15c;" horiz-adv-x="613" 
d="M354 880l99 -130h-61l-86 85l-85 -85h-62l99 130h96zM345 394c98 -33 221 -80 221 -213c0 -127 -112 -192 -237 -192c-106 0 -217 46 -282 85l40 64c62 -35 162 -75 242 -75c76 0 148 36 148 112c0 86 -94 115 -213 155c-94 31 -202 73 -202 195c0 118 98 186 225 186
c86 0 187 -32 251 -66l-40 -64c-60 31 -148 56 -208 56c-72 0 -138 -32 -138 -107c0 -83 88 -101 193 -136z" />
    <glyph glyph-name="scircumflex" unicode="&#x15d;" horiz-adv-x="512" 
d="M305 729l100 -130h-63l-85 85l-84 -85h-63l99 130h96zM279 301c114 -30 190 -74 190 -166c0 -99 -89 -146 -191 -146c-91 0 -182 35 -234 64l37 61c51 -27 132 -58 193 -58c58 0 112 26 112 76c0 65 -90 85 -156 103c-81 22 -175 55 -175 157c0 91 76 144 184 144
c79 0 158 -29 207 -53l-36 -58c-49 23 -116 44 -169 44c-61 0 -104 -27 -104 -73c0 -64 87 -81 142 -95z" />
    <glyph glyph-name="Scedilla" unicode="&#x15e;" horiz-adv-x="614" 
d="M345 394c98 -33 221 -80 221 -213c0 -117 -95 -181 -207 -191c12 -15 30 -45 30 -79c0 -53 -43 -83 -101 -83c-27 0 -55 6 -79 19l20 50c21 -10 34 -14 52 -14c32 0 55 13 55 46c0 24 -12 47 -21 61c-102 4 -206 46 -268 84l40 64c62 -35 162 -75 242 -75
c76 0 148 36 148 112c0 86 -94 115 -213 155c-94 31 -202 73 -202 195c0 118 98 186 225 186c86 0 187 -32 251 -66l-40 -64c-60 31 -148 56 -208 56c-72 0 -138 -32 -138 -107c0 -83 88 -101 193 -136z" />
    <glyph glyph-name="scedilla" unicode="&#x15f;" horiz-adv-x="512" 
d="M279 301c114 -30 190 -74 190 -166c0 -91 -75 -137 -165 -145c12 -15 31 -45 31 -79c0 -53 -44 -83 -103 -83c-25 0 -53 6 -79 19l21 50c22 -10 33 -14 51 -14c32 0 56 13 56 46c0 24 -12 47 -21 61c-85 4 -168 36 -216 63l37 61c51 -27 132 -58 193 -58
c58 0 112 26 112 76c0 65 -90 85 -156 103c-81 22 -175 55 -175 157c0 91 76 144 184 144c79 0 158 -29 207 -53l-36 -58c-49 23 -116 44 -169 44c-61 0 -104 -27 -104 -73c0 -64 87 -81 142 -95z" />
    <glyph glyph-name="Scaron" unicode="&#x160;" horiz-adv-x="613" 
d="M454 880l-99 -130h-97l-99 130h63l84 -86l86 86h62zM345 394c98 -33 221 -80 221 -213c0 -127 -112 -192 -237 -192c-106 0 -217 46 -282 85l40 64c62 -35 162 -75 242 -75c76 0 148 36 148 112c0 86 -94 115 -213 155c-94 31 -202 73 -202 195c0 118 98 186 225 186
c86 0 187 -32 251 -66l-40 -64c-60 31 -148 56 -208 56c-72 0 -138 -32 -138 -107c0 -83 88 -101 193 -136z" />
    <glyph glyph-name="scaron" unicode="&#x161;" horiz-adv-x="512" 
d="M405 729l-100 -130h-96l-99 130h63l84 -86l85 86h63zM279 301c114 -30 190 -74 190 -166c0 -99 -89 -146 -191 -146c-91 0 -182 35 -234 64l37 61c51 -27 132 -58 193 -58c58 0 112 26 112 76c0 65 -90 85 -156 103c-81 22 -175 55 -175 157c0 91 76 144 184 144
c79 0 158 -29 207 -53l-36 -58c-49 23 -116 44 -169 44c-61 0 -104 -27 -104 -73c0 -64 87 -81 142 -95z" />
    <glyph glyph-name="Tcedilla" unicode="&#x162;" horiz-adv-x="576" 
d="M168 -153l20 50c21 -10 34 -14 52 -14c31 0 55 13 55 46c0 32 -22 63 -28 71h-22v625h-220v75h526v-75h-220v-625h-21c6 -7 38 -45 38 -89c0 -53 -43 -83 -101 -83c-27 0 -55 6 -79 19z" />
    <glyph glyph-name="tcedilla" unicode="&#x163;" horiz-adv-x="382" 
d="M34 461v64h73v132l82 20v-152h144v-64h-144v-344c0 -44 21 -55 49 -55c30 0 82 19 100 27l31 -63c-21 -10 -73 -31 -123 -36c12 -15 31 -45 31 -79c0 -53 -43 -83 -102 -83c-26 0 -54 6 -79 19l20 50c22 -10 34 -14 51 -14c32 0 56 13 56 46c0 24 -13 48 -22 62
c-56 7 -94 41 -94 130v340h-73z" />
    <glyph glyph-name="Tcaron" unicode="&#x164;" horiz-adv-x="576" 
d="M551 625h-220v-625h-86v625h-220v75h526v-75zM436 880l-100 -130h-97l-98 130h63l84 -86l85 86h63z" />
    <glyph glyph-name="tcaron" unicode="&#x165;" horiz-adv-x="383" 
d="M34 461v64h74v132l81 20v-152h145v-64h-145v-344c0 -44 22 -55 50 -55c30 0 82 19 100 27l31 -63c-24 -11 -89 -37 -145 -37c-67 0 -117 31 -117 132v340h-74zM254 688v96h80l10 -101l-70 -108l-25 26l43 87h-38z" />
    <glyph glyph-name="Tbar" unicode="&#x166;" horiz-adv-x="587" 
d="M140 229v56h110v340h-220v75h526v-75h-219v-340h109v-56h-109v-229h-87v229h-110z" />
    <glyph glyph-name="tbar" unicode="&#x167;" horiz-adv-x="383" 
d="M34 461v64h73v132l82 20v-152h145v-64h-145v-127h114v-55h-114v-162c0 -44 22 -55 50 -55c29 0 81 19 100 27l31 -63c-24 -11 -89 -37 -145 -37c-67 0 -118 31 -118 132v158h-53v55h53v127h-73z" />
    <glyph glyph-name="Utilde" unicode="&#x168;" horiz-adv-x="704" 
d="M241 760l-46 20c25 47 47 84 93 84c51 0 95 -49 127 -49c15 0 27 6 50 46l45 -19c-24 -48 -47 -85 -93 -85c-50 0 -94 49 -126 49c-15 0 -28 -6 -50 -46zM615 700v-444c0 -150 -60 -267 -262 -267c-203 0 -263 117 -263 267v444h87v-447c0 -105 31 -189 176 -189
c144 0 176 84 176 189v447h86z" />
    <glyph glyph-name="utilde" unicode="&#x169;" 
d="M443 0v73c-39 -29 -128 -84 -217 -84c-114 0 -149 73 -149 161v375h83v-359c0 -61 19 -109 91 -109s156 54 192 86v382h83v-525h-83zM200 609l-46 20c25 47 47 84 93 84c51 0 95 -49 127 -49c15 0 27 6 50 46l45 -19c-24 -48 -47 -85 -93 -85c-50 0 -94 49 -126 49
c-15 0 -28 -6 -50 -46z" />
    <glyph glyph-name="Umacron" unicode="&#x16a;" horiz-adv-x="704" 
d="M615 700v-444c0 -150 -60 -267 -262 -267c-203 0 -263 117 -263 267v444h87v-447c0 -105 31 -189 176 -189c144 0 176 84 176 189v447h86zM207 775v55h292v-55h-292z" />
    <glyph glyph-name="umacron" unicode="&#x16b;" 
d="M443 0v73c-39 -29 -128 -84 -217 -84c-114 0 -149 73 -149 161v375h83v-359c0 -61 19 -109 91 -109s156 54 192 86v382h83v-525h-83zM155 624v55h292v-55h-292z" />
    <glyph glyph-name="Ubreve" unicode="&#x16c;" horiz-adv-x="704" 
d="M352 750c-90 0 -142 41 -142 107h59c0 -38 33 -53 83 -53c51 0 84 15 84 53h60c0 -66 -53 -107 -144 -107zM615 700v-444c0 -150 -60 -267 -262 -267c-203 0 -263 117 -263 267v444h87v-447c0 -105 31 -189 176 -189c144 0 176 84 176 189v447h86z" />
    <glyph glyph-name="ubreve" unicode="&#x16d;" 
d="M443 0v73c-39 -29 -128 -84 -217 -84c-114 0 -149 73 -149 161v375h83v-359c0 -61 19 -109 91 -109s156 54 192 86v382h83v-525h-83zM300 599c-90 0 -142 41 -142 107h59c0 -38 32 -53 83 -53s84 15 84 53h59c0 -66 -53 -107 -143 -107z" />
    <glyph glyph-name="Uring" unicode="&#x16e;" horiz-adv-x="704" 
d="M251 843c0 58 46 105 103 105c58 0 105 -47 105 -105c0 -57 -47 -103 -105 -103c-57 0 -103 46 -103 103zM298 843c0 -31 25 -56 56 -56c32 0 57 25 57 56c0 32 -25 57 -57 57c-31 0 -56 -25 -56 -57zM615 700v-444c0 -150 -60 -267 -262 -267c-203 0 -263 117 -263 267
v444h87v-447c0 -105 31 -189 176 -189c144 0 176 84 176 189v447h86z" />
    <glyph glyph-name="uring" unicode="&#x16f;" 
d="M443 0v73c-39 -29 -128 -84 -217 -84c-114 0 -149 73 -149 161v375h83v-359c0 -61 19 -109 91 -109s156 54 192 86v382h83v-525h-83zM198 692c0 58 46 105 103 105c58 0 105 -47 105 -105c0 -57 -47 -103 -105 -103c-57 0 -103 46 -103 103zM245 692c0 -31 25 -56 56 -56
c32 0 57 25 57 56c0 32 -25 57 -57 57c-31 0 -56 -25 -56 -57z" />
    <glyph glyph-name="Uhungarumlaut" unicode="&#x170;" horiz-adv-x="704" 
d="M615 700v-444c0 -150 -60 -267 -262 -267c-203 0 -263 117 -263 267v444h87v-447c0 -105 31 -189 176 -189c144 0 176 84 176 189v447h86zM437 750h-53l78 130h96zM285 750h-53l79 130h95z" />
    <glyph glyph-name="uhungarumlaut" unicode="&#x171;" 
d="M443 0v73c-39 -29 -128 -84 -217 -84c-114 0 -149 73 -149 161v375h83v-359c0 -61 19 -109 91 -109s156 54 192 86v382h83v-525h-83zM233 599h-52l77 130h97zM384 599h-52l78 130h95z" />
    <glyph glyph-name="Uogonek" unicode="&#x172;" horiz-adv-x="705" 
d="M351 -96c0 -42 52 -37 79 -37l-10 -50c-34 0 -134 -2 -134 78c0 37 34 69 79 94h-12c-203 0 -263 117 -263 267v444h87v-447c0 -105 31 -189 176 -189c144 0 176 84 176 189v447h86v-444c0 -123 -40 -223 -165 -256c-38 -21 -99 -53 -99 -96z" />
    <glyph glyph-name="uogonek" unicode="&#x173;" 
d="M442 0v73c-39 -29 -128 -84 -217 -84c-114 0 -149 73 -149 161v375h83v-359c0 -61 19 -109 91 -109s156 54 192 86v382h83v-525h-4c-37 -22 -97 -53 -97 -96c0 -42 51 -37 79 -37l-11 -50c-34 0 -133 -2 -133 78c0 43 44 79 99 105h-16z" />
    <glyph glyph-name="Wcircumflex" unicode="&#x174;" horiz-adv-x="942" 
d="M623 0l-152 578l-152 -578h-92l-194 700h97l147 -597l154 597h80l154 -596l148 596h96l-194 -700h-92zM519 880l99 -130h-62l-85 85l-85 -85h-62l99 130h96z" />
    <glyph glyph-name="wcircumflex" unicode="&#x175;" horiz-adv-x="813" 
d="M535 0l-128 425l-129 -425h-82l-164 525h88l121 -439l128 439h76l128 -439l121 439h88l-166 -525h-81zM455 729l100 -130h-63l-85 85l-84 -85h-63l99 130h96z" />
    <glyph glyph-name="ycircumflex" unicode="&#x177;" horiz-adv-x="557" 
d="M27 525h90l161 -427l161 427h91l-294 -729h-91l92 207zM326 729l100 -130h-62l-85 85l-85 -85h-62l98 130h96z" />
    <glyph glyph-name="Ydieresis" unicode="&#x178;" horiz-adv-x="635" 
d="M274 0v278l-256 422h98l202 -355l201 355h98l-257 -423v-277h-86zM192 760v93h83v-93h-83zM361 760v93h82v-93h-82z" />
    <glyph glyph-name="Zacute" unicode="&#x179;" horiz-adv-x="621" 
d="M42 69l417 556h-394v75h502v-68l-417 -557h422v-75h-530v69zM307 750h-69l123 130h113z" />
    <glyph glyph-name="zacute" unicode="&#x17a;" horiz-adv-x="513" 
d="M43 0v64l320 391h-310v70h413v-64l-318 -391h318v-70h-423zM246 599h-70l122 130h114z" />
    <glyph glyph-name="Zdotaccent" unicode="&#x17b;" horiz-adv-x="621" 
d="M42 69l417 556h-394v75h502v-68l-417 -557h422v-75h-530v69zM275 759v93h83v-93h-83z" />
    <glyph glyph-name="zdotaccent" unicode="&#x17c;" horiz-adv-x="513" 
d="M43 0v64l320 391h-310v70h413v-64l-318 -391h318v-70h-423zM212 609v93h83v-93h-83z" />
    <glyph glyph-name="Zcaron" unicode="&#x17d;" horiz-adv-x="621" 
d="M42 69l417 556h-394v75h502v-68l-417 -557h422v-75h-530v69zM464 880l-100 -130h-96l-99 130h62l85 -86l86 86h62z" />
    <glyph glyph-name="zcaron" unicode="&#x17e;" horiz-adv-x="513" 
d="M43 0v64l320 391h-310v70h413v-64l-318 -391h318v-70h-423zM402 729l-100 -130h-96l-99 130h63l84 -86l85 86h63z" />
    <glyph glyph-name="longs" unicode="&#x17f;" horiz-adv-x="289" 
d="M33 461v64h74v72c0 101 50 132 117 132c52 0 127 -24 155 -35l-30 -61c-21 7 -84 24 -111 24c-28 0 -50 -11 -50 -56v-601h-81v461h-74z" />
    <glyph glyph-name="florin" unicode="&#x192;" horiz-adv-x="540" 
d="M122 461l15 64h73l18 74c24 98 61 130 141 130c60 0 132 -28 157 -37l-43 -60c-22 7 -81 25 -111 24c-29 -1 -51 -15 -61 -56l-18 -75h144l-14 -64h-146l-158 -665h-82l158 665h-73z" />
    <glyph glyph-name="AEacute" unicode="&#x1fc;" horiz-adv-x="1007" 
d="M951 0h-450v171h-294l-114 -171h-102l481 700h472v-75h-357v-238h296v-74h-296v-238h364v-75zM256 244h245v366zM537 750h-70l122 130h115z" />
    <glyph glyph-name="aeacute" unicode="&#x1fd;" horiz-adv-x="921" 
d="M859 241h-375c7 -115 66 -186 151 -186c71 0 147 42 197 71l37 -55c-47 -28 -135 -82 -239 -82c-78 0 -147 34 -189 103c-58 -60 -133 -103 -219 -103s-176 47 -176 168c0 119 86 171 182 171c60 0 132 -21 172 -31c3 29 8 56 16 81c-4 61 -31 91 -109 91
c-58 0 -122 -20 -195 -44l-30 61c89 32 167 50 236 50c73 0 126 -20 155 -65c43 42 102 65 170 65c148 0 224 -96 224 -227c0 -39 -8 -68 -8 -68zM418 139c-11 31 -18 66 -19 106c-38 10 -94 28 -140 28c-96 0 -128 -52 -128 -112c0 -74 47 -103 111 -103
c70 0 126 34 176 81zM642 472c-91 0 -148 -68 -157 -177h298c3 123 -52 177 -141 177zM449 599h-70l123 130h113z" />
    <glyph glyph-name="Oslashacute" unicode="&#x1fe;" horiz-adv-x="738" 
d="M666 700l-65 -87c53 -66 76 -160 76 -263c0 -198 -84 -361 -308 -361c-81 0 -144 21 -191 58l-35 -47h-70l65 87c-54 66 -76 160 -76 263c0 199 83 361 307 361c81 0 144 -22 191 -58l35 47h71zM369 64c164 0 219 127 219 286c0 74 -12 140 -41 191l-320 -428
c34 -31 80 -49 142 -49zM151 350c0 -74 11 -141 40 -191l320 428c-34 31 -80 49 -142 49c-164 0 -218 -127 -218 -286zM361 750h-71l123 130h113z" />
    <glyph glyph-name="oslashacute" unicode="&#x1ff;" horiz-adv-x="598" 
d="M534 525l-50 -64c40 -47 62 -115 62 -199c0 -170 -87 -273 -247 -273c-61 0 -111 14 -149 41l-24 -30h-63l50 64c-40 47 -61 114 -61 198c0 170 86 274 247 274c60 0 110 -15 148 -42l25 31h62zM462 262c0 53 -9 99 -28 134l-238 -307c25 -21 59 -33 103 -33
c114 0 163 81 163 206zM137 262c0 -53 8 -98 27 -132l238 305c-26 22 -60 34 -103 34c-114 0 -162 -82 -162 -207zM288 599h-69l122 130h114z" />
    <glyph glyph-name="Scommaaccent" unicode="&#x218;" horiz-adv-x="613" 
d="M269 -160v97h80l10 -101l-72 -108l-24 26l43 86h-37zM345 394c98 -33 221 -80 221 -213c0 -127 -112 -192 -237 -192c-106 0 -217 46 -282 85l40 64c62 -35 162 -75 242 -75c76 0 148 36 148 112c0 86 -94 115 -213 155c-94 31 -202 73 -202 195c0 118 98 186 225 186
c86 0 187 -32 251 -66l-40 -64c-60 31 -148 56 -208 56c-72 0 -138 -32 -138 -107c0 -83 88 -101 193 -136z" />
    <glyph glyph-name="scommaaccent" unicode="&#x219;" horiz-adv-x="512" 
d="M215 -160v97h80l9 -101l-70 -108l-25 26l43 86h-37zM279 301c114 -30 190 -74 190 -166c0 -99 -89 -146 -191 -146c-91 0 -182 35 -234 64l37 61c51 -27 132 -58 193 -58c58 0 112 26 112 76c0 65 -90 85 -156 103c-81 22 -175 55 -175 157c0 91 76 144 184 144
c79 0 158 -29 207 -53l-36 -58c-49 23 -116 44 -169 44c-61 0 -104 -27 -104 -73c0 -64 87 -81 142 -95z" />
    <glyph glyph-name="uni021a" unicode="&#x21a;" horiz-adv-x="576" 
d="M248 -160v97h80l10 -101l-71 -108l-25 26l44 86h-38zM551 625h-220v-625h-86v625h-220v75h526v-75z" />
    <glyph glyph-name="uni021b" unicode="&#x21b;" horiz-adv-x="383" 
d="M34 461v64h74v132l81 20v-152h145v-64h-145v-344c0 -44 22 -55 50 -55c30 0 82 19 100 27l31 -63c-24 -11 -89 -37 -145 -37c-67 0 -117 31 -117 132v340h-74zM137 -160v97h80l10 -101l-72 -108l-24 26l43 86h-37z" />
    <glyph glyph-name="hsuperior" unicode="&#x2b0;" horiz-adv-x="401" 
d="M118 822v-165c26 19 78 50 135 50c72 0 94 -43 94 -99v-223h-63v211c0 34 -11 60 -53 60s-91 -28 -113 -47v-224h-63v437h63z" />
    <glyph glyph-name="jsuperior" unicode="&#x2b2;" horiz-adv-x="174" 
d="M51 757v64h70v-64h-70zM118 700v-320c0 -71 0 -97 -117 -125l-20 46c74 23 74 29 74 75v324h63z" />
    <glyph glyph-name="wsuperior" unicode="&#x2b7;" horiz-adv-x="522" 
d="M338 385l-76 242l-77 -242h-61l-104 315h68l69 -253l76 253h57l75 -253l70 253h68l-103 -315h-62z" />
    <glyph glyph-name="ysuperior" unicode="&#x2b8;" horiz-adv-x="356" 
d="M15 700h69l94 -240l95 240h69l-184 -437h-69l56 124z" />
    <glyph glyph-name="circumflex" unicode="&#x2c6;" horiz-adv-x="270" 
d="M182 729l100 -130h-62l-85 85l-85 -85h-62l99 130h95z" />
    <glyph glyph-name="caron" unicode="&#x2c7;" horiz-adv-x="270" 
d="M282 729l-100 -130h-95l-99 130h62l85 -86l85 86h62z" />
    <glyph glyph-name="breve" unicode="&#x2d8;" horiz-adv-x="266" 
d="M132 599c-90 0 -142 41 -142 107h59c0 -38 33 -53 83 -53c51 0 84 15 84 53h60c0 -66 -53 -107 -144 -107z" />
    <glyph glyph-name="dotaccent" unicode="&#x2d9;" horiz-adv-x="73" 
d="M-5 609v93h83v-93h-83z" />
    <glyph glyph-name="ring" unicode="&#x2da;" horiz-adv-x="202" 
d="M-3 692c0 58 46 105 103 105c58 0 105 -47 105 -105c0 -57 -47 -103 -105 -103c-57 0 -103 46 -103 103zM44 692c0 -31 25 -56 56 -56c32 0 57 25 57 56c0 32 -25 57 -57 57c-31 0 -56 -25 -56 -57z" />
    <glyph glyph-name="ogonek" unicode="&#x2db;" horiz-adv-x="155" 
d="M55 -96c0 -42 51 -37 79 -37l-10 -50c-34 0 -134 -2 -134 78c0 49 60 89 124 116l41 -10c-38 -22 -100 -54 -100 -97z" />
    <glyph glyph-name="tilde" unicode="&#x2dc;" horiz-adv-x="288" 
d="M32 609l-45 20c24 47 47 84 93 84c50 0 94 -49 126 -49c15 0 28 6 50 46l45 -19c-23 -48 -47 -85 -93 -85c-50 0 -94 49 -126 49c-15 0 -28 -6 -50 -46z" />
    <glyph glyph-name="hungarumlaut" unicode="&#x2dd;" horiz-adv-x="304" 
d="M193 599h-52l77 130h97zM42 599h-53l79 130h95z" />
    <glyph glyph-name="xsuperior" unicode="&#x2e3;" horiz-adv-x="384" 
d="M291 385l-99 126l-97 -126h-77l137 158l-131 157h75l94 -124l92 124h75l-129 -157l136 -158h-76z" />
    <glyph glyph-name="pi" unicode="&#x3c0;" horiz-adv-x="569" 
d="M535 525v-73h-88v-452h-76v452h-172v-452h-77v452h-88v73h501z" />
    <glyph glyph-name="Wgrave" unicode="&#x1e80;" horiz-adv-x="942" 
d="M623 0l-152 578l-152 -578h-92l-194 700h97l147 -597l154 597h80l154 -596l148 596h96l-194 -700h-92zM550 750h-70l-166 130h113z" />
    <glyph glyph-name="wgrave" unicode="&#x1e81;" horiz-adv-x="813" 
d="M535 0l-128 425l-129 -425h-82l-164 525h88l121 -439l128 439h76l128 -439l121 439h88l-166 -525h-81zM485 599h-69l-166 130h112z" />
    <glyph glyph-name="Wacute" unicode="&#x1e82;" horiz-adv-x="942" 
d="M623 0l-152 578l-152 -578h-92l-194 700h97l147 -597l154 597h80l154 -596l148 596h96l-194 -700h-92zM462 750h-69l122 130h114z" />
    <glyph glyph-name="wacute" unicode="&#x1e83;" horiz-adv-x="813" 
d="M535 0l-128 425l-129 -425h-82l-164 525h88l121 -439l128 439h76l128 -439l121 439h88l-166 -525h-81zM399 599h-71l123 130h114z" />
    <glyph glyph-name="Wdieresis" unicode="&#x1e84;" horiz-adv-x="942" 
d="M623 0l-152 578l-152 -578h-92l-194 700h97l147 -597l154 597h80l154 -596l148 596h96l-194 -700h-92zM346 760v93h83v-93h-83zM515 760v93h82v-93h-82z" />
    <glyph glyph-name="wdieresis" unicode="&#x1e85;" horiz-adv-x="813" 
d="M535 0l-128 425l-129 -425h-82l-164 525h88l121 -439l128 439h76l128 -439l121 439h88l-166 -525h-81zM282 609v93h83v-93h-83zM450 609v93h82v-93h-82z" />
    <glyph glyph-name="Ygrave" unicode="&#x1ef2;" horiz-adv-x="635" 
d="M274 0v278l-256 422h98l202 -355l201 355h98l-257 -423v-277h-86zM397 750h-70l-166 130h112z" />
    <glyph glyph-name="ygrave" unicode="&#x1ef3;" horiz-adv-x="557" 
d="M27 525h90l161 -427l161 427h91l-294 -729h-91l92 207zM357 599h-69l-167 130h113z" />
    <glyph glyph-name="endash" unicode="&#x2013;" horiz-adv-x="567" 
d="M491 249h-415v71h415v-71z" />
    <glyph glyph-name="emdash" unicode="&#x2014;" horiz-adv-x="671" 
d="M595 249h-519v71h519v-71z" />
    <glyph glyph-name="quoteleft" unicode="&#x2018;" horiz-adv-x="238" 
d="M166 585v-120h-94l-11 127l82 128l29 -32l-50 -103h44z" />
    <glyph glyph-name="quoteright" unicode="&#x2019;" horiz-adv-x="229" 
d="M71 579v121h94l11 -128l-83 -127l-28 31l50 103h-44z" />
    <glyph glyph-name="quotesinglbase" unicode="&#x201a;" horiz-adv-x="246" 
d="M74 0v120h94l11 -127l-83 -128l-28 32l50 103h-44z" />
    <glyph glyph-name="quotedblleft" unicode="&#x201c;" horiz-adv-x="423" 
d="M166 585v-120h-94l-11 127l82 128l29 -32l-50 -103h44zM350 585v-120h-95l-11 127l84 128l28 -32l-50 -103h44z" />
    <glyph glyph-name="quotedblright" unicode="&#x201d;" horiz-adv-x="414" 
d="M254 579v121h95l11 -128l-83 -127l-29 31l50 103h-44zM71 579v121h94l11 -128l-83 -127l-28 31l50 103h-44z" />
    <glyph glyph-name="quotedblbase" unicode="&#x201e;" horiz-adv-x="430" 
d="M257 0v120h95l11 -127l-83 -128l-29 32l50 103h-44zM74 0v120h94l11 -127l-83 -128l-28 32l50 103h-44z" />
    <glyph glyph-name="dagger" unicode="&#x2020;" horiz-adv-x="582" 
d="M33 394v73l224 -10v243h68v-243l224 10v-73l-224 10v-608h-68v608z" />
    <glyph glyph-name="daggerdbl" unicode="&#x2021;" horiz-adv-x="626" 
d="M55 394v73l224 -10v243h67v-243l225 10v-73l-225 10v-209l225 10v-73l-225 10v-346h-67v346l-224 -10v73l224 -10v209z" />
    <glyph glyph-name="bullet" unicode="&#x2022;" horiz-adv-x="435" 
d="M89 284c0 72 57 130 129 130c71 0 129 -58 129 -130s-58 -128 -129 -128c-72 0 -129 56 -129 128z" />
    <glyph glyph-name="ellipsis" unicode="&#x2026;" horiz-adv-x="653" 
d="M74 0v120h96v-120h-96zM278 0v120h96v-120h-96zM482 0v120h97v-120h-97z" />
    <glyph glyph-name="perthousand" unicode="&#x2030;" horiz-adv-x="1420" 
d="M407 523c0 -123 -74 -187 -182 -187c-107 0 -180 64 -180 187s73 188 180 188c108 0 182 -65 182 -188zM337 523c0 84 -41 131 -112 131c-70 0 -111 -47 -111 -131s41 -129 111 -129c71 0 112 45 112 129zM949 176c0 -123 -73 -187 -182 -187c-108 0 -180 64 -180 187
s72 188 180 188c109 0 182 -65 182 -188zM879 176c0 84 -41 131 -112 131c-69 0 -111 -47 -111 -131s42 -129 111 -129c71 0 112 45 112 129zM1374 176c0 -123 -73 -187 -181 -187s-181 64 -181 187s73 188 181 188s181 -65 181 -188zM1305 176c0 84 -42 131 -112 131
s-111 -47 -111 -131s41 -129 111 -129s112 45 112 129zM716 700l-367 -700h-71l367 700h71z" />
    <glyph glyph-name="guilsinglleft" unicode="&#x2039;" horiz-adv-x="405" 
d="M38 306l305 222v-83l-231 -166l231 -165v-83l-305 221v54z" />
    <glyph glyph-name="guilsinglright" unicode="&#x203a;" horiz-adv-x="405" 
d="M368 306v-54l-306 -221v83l231 165l-231 166v83z" />
    <glyph glyph-name="fraction" unicode="&#x2044;" horiz-adv-x="163" 
d="M284 700l-334 -700h-70l334 700h70z" />
    <glyph glyph-name="zerosuperior" unicode="&#x2070;" horiz-adv-x="436" 
d="M219 812c113 0 171 -79 171 -217s-59 -217 -172 -217s-171 79 -171 217s59 217 172 217zM218 430c73 0 106 59 106 165s-33 165 -105 165c-73 0 -105 -59 -105 -165s32 -165 104 -165z" />
    <glyph glyph-name="foursuperior" unicode="&#x2074;" horiz-adv-x="426" 
d="M30 474v47l208 284h87v-277h68v-54h-68v-89h-66v89h-229zM99 528h160v222z" />
    <glyph glyph-name="fivesuperior" unicode="&#x2075;" horiz-adv-x="391" 
d="M55 596l24 209h251v-55h-197l-9 -110c20 8 44 14 73 14c97 0 152 -63 152 -135s-53 -141 -161 -141c-69 0 -124 30 -151 46l30 49c15 -11 63 -38 113 -38c54 0 100 32 100 83c0 45 -33 83 -97 83c-39 0 -72 -15 -91 -25z" />
    <glyph glyph-name="sixsuperior" unicode="&#x2076;" horiz-adv-x="411" 
d="M284 758c-82 0 -150 -53 -168 -148c16 17 54 44 115 44c89 0 142 -59 142 -133c0 -76 -60 -143 -159 -143c-116 0 -169 86 -169 187c0 139 97 247 238 247c35 0 61 -7 61 -7l-15 -52s-21 5 -45 5zM216 603c-54 0 -92 -30 -105 -52c2 -77 42 -119 102 -119
c64 0 94 45 94 88c0 41 -28 83 -91 83z" />
    <glyph glyph-name="sevensuperior" unicode="&#x2077;" horiz-adv-x="346" 
d="M321 755c0 0 -161 -188 -161 -370h-69c0 167 145 350 157 365h-219v55h292v-50z" />
    <glyph glyph-name="eightsuperior" unicode="&#x2078;" horiz-adv-x="416" 
d="M39 495c0 63 53 96 104 117c-40 19 -77 48 -77 98c0 61 57 102 143 102c85 0 142 -41 142 -102c0 -50 -38 -79 -78 -98c50 -21 104 -54 104 -117c0 -73 -71 -117 -168 -117c-100 0 -170 44 -170 117zM309 499c0 45 -51 70 -101 88c-51 -18 -102 -43 -102 -88
c0 -43 46 -70 103 -70c56 0 100 27 100 70zM130 704c0 -39 44 -57 78 -69c33 12 78 30 78 69c0 31 -32 58 -77 58c-48 0 -79 -27 -79 -58z" />
    <glyph glyph-name="ninesuperior" unicode="&#x2079;" horiz-adv-x="411" 
d="M126 432c81 0 149 52 168 147c-17 -16 -55 -43 -115 -43c-89 0 -141 59 -141 132c0 77 59 144 158 144c115 0 169 -86 169 -187c0 -140 -96 -247 -238 -247c-35 0 -61 7 -61 7l17 52s18 -5 43 -5zM194 586c54 0 93 32 105 54c-3 76 -43 118 -102 118
c-64 0 -94 -46 -94 -88c0 -41 28 -84 91 -84z" />
    <glyph glyph-name="plussuperior" unicode="&#x207a;" horiz-adv-x="396" 
d="M173 723h51v-114h134v-48h-134v-114h-51v114h-134v48h134v114z" />
    <glyph glyph-name="parenleftsuperior" unicode="&#x207d;" horiz-adv-x="226" 
d="M59 421v345c0 68 2 95 118 122l18 -39c-69 -21 -70 -29 -70 -73v-365c0 -43 1 -51 70 -73l-18 -39c-116 27 -118 54 -118 122z" />
    <glyph glyph-name="parenrightsuperior" unicode="&#x207e;" horiz-adv-x="226" 
d="M166 766v-345c0 -68 -3 -95 -117 -122l-18 39c69 22 69 30 69 73v365c0 44 0 52 -69 73l18 39c114 -27 117 -54 117 -122z" />
    <glyph glyph-name="nsuperior" unicode="&#x207f;" horiz-adv-x="401" 
d="M118 700v-43c26 19 78 50 135 50c72 0 94 -43 94 -99v-223h-63v211c0 34 -11 60 -53 60s-91 -28 -113 -47v-224h-63v315h63z" />
    <glyph glyph-name="zeroinferior" unicode="&#x2080;" horiz-adv-x="436" 
d="M219 277c113 0 171 -79 171 -217s-59 -217 -172 -217s-171 79 -171 217s59 217 172 217zM218 -105c73 0 106 59 106 165s-33 165 -105 165c-73 0 -105 -59 -105 -165s32 -165 104 -165z" />
    <glyph glyph-name="oneinferior" unicode="&#x2081;" horiz-adv-x="258" 
d="M192 -150h-66v357l-78 -39l-28 44l111 58h61v-420z" />
    <glyph glyph-name="twoinferior" unicode="&#x2082;" horiz-adv-x="392" 
d="M346 -95v-55h-307v36c0 87 69 130 139 174c55 34 100 62 100 104c0 33 -28 58 -80 58c-47 0 -94 -24 -116 -39l-31 43c30 20 84 51 154 51c88 0 140 -46 140 -111c0 -81 -78 -122 -148 -164c-48 -29 -82 -53 -82 -97h231z" />
    <glyph glyph-name="threeinferior" unicode="&#x2083;" horiz-adv-x="395" 
d="M31 -110l31 45c30 -17 80 -37 127 -37c55 0 96 27 96 72c0 61 -78 79 -134 79h-21v56h24c52 0 112 18 112 65c0 32 -28 52 -74 52c-47 0 -89 -21 -113 -35l-27 41c14 11 71 49 149 49c88 0 131 -48 131 -100c0 -39 -26 -76 -81 -95c58 -15 101 -57 101 -112
c0 -63 -46 -127 -155 -127c-77 0 -141 33 -166 47z" />
    <glyph glyph-name="fourinferior" unicode="&#x2084;" horiz-adv-x="426" 
d="M30 -61v47l208 284h87v-277h68v-54h-68v-89h-66v89h-229zM99 -7h160v222z" />
    <glyph glyph-name="fiveinferior" unicode="&#x2085;" horiz-adv-x="392" 
d="M56 61l24 209h251v-55h-197l-9 -110c20 8 44 14 73 14c97 0 152 -63 152 -135s-53 -141 -161 -141c-69 0 -124 30 -151 46l30 49c15 -11 63 -38 113 -38c54 0 100 32 100 83c0 45 -33 83 -97 83c-39 0 -72 -15 -91 -25z" />
    <glyph glyph-name="sixinferior" unicode="&#x2086;" horiz-adv-x="411" 
d="M284 223c-82 0 -150 -53 -168 -148c16 17 54 44 115 44c89 0 142 -59 142 -133c0 -76 -60 -143 -159 -143c-116 0 -169 86 -169 187c0 139 97 247 238 247c35 0 61 -7 61 -7l-15 -52s-21 5 -45 5zM216 68c-54 0 -92 -30 -105 -52c2 -76 42 -119 102 -119
c64 0 94 45 94 88c0 41 -28 83 -91 83z" />
    <glyph glyph-name="seveninferior" unicode="&#x2087;" horiz-adv-x="346" 
d="M321 220c0 0 -161 -188 -161 -370h-69c0 167 145 350 157 365h-219v55h292v-50z" />
    <glyph glyph-name="eightinferior" unicode="&#x2088;" horiz-adv-x="416" 
d="M39 -40c0 63 53 96 104 117c-40 19 -77 48 -77 98c0 61 57 102 143 102c85 0 142 -41 142 -102c0 -50 -38 -79 -78 -98c50 -21 104 -54 104 -117c0 -73 -71 -117 -168 -117c-100 0 -170 44 -170 117zM309 -36c0 45 -51 70 -101 88c-51 -18 -102 -43 -102 -88
c0 -43 46 -70 103 -70c56 0 100 27 100 70zM130 169c0 -39 44 -57 78 -69c33 12 78 30 78 69c0 31 -32 58 -77 58c-48 0 -79 -27 -79 -58z" />
    <glyph glyph-name="nineinferior" unicode="&#x2089;" horiz-adv-x="411" 
d="M126 -103c81 0 149 53 168 147c-17 -16 -55 -43 -115 -43c-89 0 -141 59 -141 132c0 77 59 144 158 144c115 0 169 -86 169 -187c0 -140 -96 -247 -238 -247c-35 0 -61 7 -61 7l17 52s18 -5 43 -5zM194 51c54 0 93 32 105 54c-3 76 -43 118 -102 118
c-64 0 -94 -46 -94 -88c0 -41 28 -84 91 -84z" />
    <glyph glyph-name="parenleftinferior" unicode="&#x208d;" horiz-adv-x="225" 
d="M59 -114v345c0 68 2 95 118 122l18 -39c-69 -21 -70 -29 -70 -73v-365c0 -43 1 -51 70 -73l-18 -39c-116 27 -118 54 -118 122z" />
    <glyph glyph-name="parenrightinferior" unicode="&#x208e;" horiz-adv-x="225" 
d="M165 231v-345c0 -68 -3 -95 -117 -122l-18 39c69 22 69 30 69 73v365c0 44 0 52 -69 73l18 39c114 -27 117 -54 117 -122z" />
    <glyph glyph-name="colonmonetary" unicode="&#x20a1;" horiz-adv-x="563" 
d="M210 0h-49l24 104c-70 40 -120 122 -120 247c0 183 109 273 227 273c4 0 8 -1 13 -1l18 77h49l-20 -84c13 -3 24 -6 36 -10l22 94h51l-27 -113c30 -14 54 -29 72 -39l-39 -61c-11 6 -28 17 -49 28l-84 -362c55 12 109 47 133 61l39 -61c-38 -23 -110 -67 -189 -75
l-18 -78h-51l18 78c-13 2 -24 4 -36 8zM150 351c0 -71 21 -126 55 -161l83 361c-79 -6 -138 -81 -138 -200zM247 160c11 -5 23 -9 35 -10l90 386c-12 5 -24 9 -36 11z" />
    <glyph glyph-name="lira" unicode="&#x20a4;" horiz-adv-x="560" 
d="M76 327v54h74c-28 47 -62 91 -62 160c0 102 76 170 196 170c92 0 169 -41 223 -70l-41 -60c-63 33 -120 56 -172 56c-79 0 -120 -50 -120 -107s38 -98 66 -149h188v-54h-166c4 -16 7 -33 7 -52c0 -5 0 -10 -1 -15h160v-53h-170c-21 -64 -65 -115 -83 -133h321v-74h-431
v61s80 59 110 146h-99v53h110v9c0 21 -4 40 -10 58h-100z" />
    <glyph glyph-name="peseta" unicode="&#x20a7;" horiz-adv-x="675" 
d="M69 462v46h32v192h249c144 0 251 -51 261 -192h27v-46h-27c-11 -140 -118 -190 -261 -190h-163v-272h-86v462h-32zM187 626v-118h335c-10 88 -81 118 -170 118h-165zM352 345c88 0 159 30 170 117h-335v-117h165z" />
    <glyph glyph-name="uni20A9" unicode="&#x20a9;" horiz-adv-x="1024" 
d="M664 0l-151 578l-152 -578h-92l-66 238h-141v57h125l-33 116h-92v57h76l-64 232h97l57 -232h185l60 232h79l60 -232h184l58 232h96l-64 -232h77v-57h-93l-32 -116h125v-57h-141l-65 -238h-93zM626 411l30 -116h98l28 116h-156zM242 411l29 -116h97l30 116h-156zM671 238
l35 -135l34 135h-69zM285 238l34 -134l34 134h-68z" />
    <glyph glyph-name="Euro" unicode="&#x20ac;" horiz-adv-x="714" 
d="M52 402v53h68c30 177 141 256 267 256c102 0 195 -53 269 -103l-45 -62c-58 37 -138 87 -217 87c-89 0 -157 -64 -183 -178h284v-53h-292c-1 -17 -2 -34 -2 -52c0 -21 1 -40 3 -58h291v-53h-282c26 -110 94 -172 181 -172c79 0 159 50 217 87l45 -62
c-74 -50 -167 -103 -269 -103c-124 0 -234 76 -266 250h-69v53h62c-1 18 -2 37 -2 58c0 18 0 35 2 52h-62z" />
    <glyph glyph-name="uni2116" unicode="&#x2116;" horiz-adv-x="1136" 
d="M547 0l-363 573v-573h-86v700h89l363 -573v573h86v-700h-89zM1079 490c0 -131 -65 -201 -186 -201c-122 0 -187 70 -187 201c0 130 65 201 187 201c121 0 186 -71 186 -201zM1003 490c0 91 -32 140 -110 140c-79 0 -111 -49 -111 -140c0 -92 32 -141 111 -141
c78 0 110 49 110 141zM740 179v54h305v-54h-305z" />
    <glyph glyph-name="uni2117" unicode="&#x2117;" horiz-adv-x="836" 
d="M595 432c0 -95 -61 -129 -146 -129h-90v-164h-50v421h140c85 0 146 -33 146 -128zM545 432c0 65 -42 86 -95 86h-91v-172h91c53 0 95 21 95 86zM62 350c0 202 128 361 357 361s356 -159 356 -361s-127 -361 -356 -361s-357 159 -357 361zM102 350
c0 -182 112 -323 316 -323c205 0 318 141 318 323s-113 323 -318 323c-204 0 -316 -141 -316 -323z" />
    <glyph glyph-name="servicemark" unicode="&#x2120;" horiz-adv-x="656" 
d="M531 476v157l-68 -120h-31l-68 120v-157h-46v224h48l81 -140l81 140h49v-224h-46zM201 605c35 -9 81 -25 81 -67c0 -40 -43 -66 -97 -66c-46 0 -91 17 -119 30l22 32c24 -11 64 -24 95 -24c25 0 51 8 51 25c0 22 -42 27 -88 40c-33 9 -73 24 -73 64c0 39 36 65 90 65
c42 0 81 -14 106 -26l-21 -30c-24 9 -56 18 -83 18c-24 0 -45 -7 -45 -24c0 -21 36 -24 81 -37z" />
    <glyph glyph-name="trademark" unicode="&#x2122;" horiz-adv-x="655" 
d="M526 476v156l-68 -119h-29l-69 121v-158h-47v224h50l80 -142l81 142h49v-224h-47zM276 662h-82v-186h-46v186h-80v38h208v-38z" />
    <glyph glyph-name="Omega" unicode="&#x2126;" horiz-adv-x="747" 
d="M373 711c220 0 307 -151 307 -353c0 -168 -82 -256 -138 -284h117v-74h-233v73c94 34 166 125 166 278c0 169 -55 285 -219 285s-219 -116 -219 -284c0 -155 72 -244 166 -279v-73h-232v74h114c-53 29 -136 116 -136 284c0 202 88 353 307 353z" />
    <glyph glyph-name="onethird" unicode="&#x2153;" horiz-adv-x="834" 
d="M204 280h-66v357l-78 -39l-28 44l111 58h61v-420zM565 700l-333 -700h-70l333 700h70zM463 40l30 45c30 -17 81 -37 127 -37c55 0 97 27 97 72c0 61 -79 79 -135 79h-20v56h24c52 0 111 18 111 65c0 32 -28 52 -73 52c-47 0 -90 -21 -113 -35l-28 41c15 11 71 49 150 49
c87 0 130 -48 130 -100c0 -39 -25 -76 -81 -95c58 -15 102 -57 102 -112c0 -63 -47 -127 -156 -127c-77 0 -141 33 -165 47z" />
    <glyph glyph-name="twothirds" unicode="&#x2154;" horiz-adv-x="969" 
d="M361 335v-55h-307v36c0 87 70 130 140 174c54 34 100 62 100 104c0 33 -29 58 -80 58c-48 0 -95 -24 -117 -39l-31 43c30 20 84 51 155 51c87 0 139 -46 139 -111c0 -81 -78 -122 -148 -164c-48 -29 -81 -53 -81 -97h230zM701 700l-333 -700h-70l333 700h70zM598 40
l31 45c29 -17 80 -37 127 -37c55 0 97 27 97 72c0 61 -80 79 -136 79h-19v56h23c53 0 112 18 112 65c0 32 -28 52 -74 52s-89 -21 -112 -35l-28 41c15 11 71 49 148 49c89 0 132 -48 132 -100c0 -39 -25 -76 -81 -95c57 -15 102 -57 102 -112c0 -63 -47 -127 -157 -127
c-76 0 -141 33 -165 47z" />
    <glyph glyph-name="oneeighth" unicode="&#x215b;" horiz-adv-x="840" 
d="M456 110c0 63 53 96 103 117c-40 19 -77 48 -77 98c0 61 57 102 143 102s142 -41 142 -102c0 -50 -38 -79 -78 -98c50 -21 103 -54 103 -117c0 -73 -69 -117 -167 -117c-100 0 -169 44 -169 117zM565 700l-333 -700h-70l333 700h70zM204 280h-66v357l-78 -39l-28 44
l111 58h61v-420zM725 114c0 45 -51 70 -101 88c-50 -18 -101 -43 -101 -88c0 -43 45 -70 102 -70c56 0 100 27 100 70zM547 319c0 -39 43 -57 77 -69c34 12 78 30 78 69c0 31 -32 58 -77 58c-48 0 -78 -27 -78 -58z" />
    <glyph glyph-name="threeeighths" unicode="&#x215c;" horiz-adv-x="954" 
d="M570 110c0 63 53 96 103 117c-40 19 -77 48 -77 98c0 61 57 102 143 102s142 -41 142 -102c0 -50 -38 -79 -78 -98c51 -21 104 -54 104 -117c0 -73 -70 -117 -168 -117c-100 0 -169 44 -169 117zM45 320l31 45c30 -17 80 -37 127 -37c55 0 97 27 97 72
c0 61 -79 79 -135 79h-21v56h24c52 0 112 18 112 65c0 32 -28 52 -74 52c-47 0 -89 -21 -112 -35l-28 41c14 11 72 49 149 49c88 0 131 -48 131 -100c0 -39 -25 -76 -81 -95c58 -15 101 -57 101 -112c0 -63 -46 -127 -155 -127c-76 0 -141 33 -166 47zM679 700l-333 -700
h-70l333 700h70zM839 114c0 45 -51 70 -101 88c-50 -18 -101 -43 -101 -88c0 -43 45 -70 102 -70s100 27 100 70zM661 319c0 -39 43 -57 77 -69c34 12 78 30 78 69c0 31 -31 58 -77 58c-47 0 -78 -27 -78 -58z" />
    <glyph glyph-name="fiveeighths" unicode="&#x215d;" horiz-adv-x="934" 
d="M549 110c0 63 53 96 104 117c-40 19 -77 48 -77 98c0 61 57 102 143 102c85 0 142 -41 142 -102c0 -50 -38 -79 -78 -98c50 -21 104 -54 104 -117c0 -73 -70 -117 -168 -117c-99 0 -170 44 -170 117zM67 491l24 209h251v-55h-197l-9 -110c20 8 44 14 73 14
c97 0 152 -63 152 -135s-53 -141 -161 -141c-69 0 -124 30 -151 46l30 49c15 -11 63 -38 113 -38c54 0 100 32 100 83c0 45 -33 83 -97 83c-39 0 -72 -15 -91 -25zM660 700l-333 -700h-70l333 700h70zM820 114c0 45 -52 70 -102 88c-50 -18 -101 -43 -101 -88
c0 -43 45 -70 102 -70c56 0 101 27 101 70zM640 319c0 -39 44 -57 78 -69c33 12 78 30 78 69c0 31 -31 58 -77 58c-47 0 -79 -27 -79 -58z" />
    <glyph glyph-name="seveneighths" unicode="&#x215e;" horiz-adv-x="843" 
d="M460 110c0 63 52 96 102 117c-40 19 -77 48 -77 98c0 61 58 102 143 102c86 0 142 -41 142 -102c0 -50 -38 -79 -78 -98c51 -21 104 -54 104 -117c0 -73 -69 -117 -168 -117s-168 44 -168 117zM569 700l-333 -700h-70l333 700h70zM328 650c0 0 -161 -188 -161 -370h-68
c0 167 144 350 156 365h-219v55h292v-50zM729 114c0 45 -52 70 -102 88c-50 -18 -100 -43 -100 -88c0 -43 44 -70 101 -70s101 27 101 70zM550 319c0 -39 43 -57 77 -69c34 12 78 30 78 69c0 31 -31 58 -77 58c-47 0 -78 -27 -78 -58z" />
    <glyph glyph-name="partialdiff" unicode="&#x2202;" horiz-adv-x="618" 
d="M462 397c-26 109 -111 235 -266 235c-43 0 -76 -9 -76 -9l-14 65s37 12 92 12c214 0 355 -176 355 -418c0 -219 -114 -293 -250 -293c-156 0 -250 96 -250 243s93 244 230 244c129 0 179 -79 179 -79zM469 233c0 108 -56 176 -165 176c-111 0 -165 -75 -165 -177
c0 -104 56 -176 165 -176c105 0 165 67 165 177z" />
    <glyph glyph-name="Delta" unicode="&#x2206;" horiz-adv-x="689" 
d="M663 0h-637l271 700h95zM554 74l-209 531l-210 -531h419z" />
    <glyph glyph-name="product" unicode="&#x220f;" horiz-adv-x="700" 
d="M666 700v-74h-106v-626h-86v626h-247v-626h-86v626h-106v74h631z" />
    <glyph glyph-name="summation" unicode="&#x2211;" horiz-adv-x="561" 
d="M53 700h449v-74h-333l266 -276l-266 -276h333v-74h-449v59l276 291l-276 291v59z" />
    <glyph glyph-name="minus" unicode="&#x2212;" horiz-adv-x="615" 
d="M56 300v66h502v-66h-502z" />
    <glyph glyph-name="radical" unicode="&#x221a;" horiz-adv-x="584" 
d="M570 700l-298 -700h-67l-179 340h90l118 -230l246 590h90z" />
    <glyph glyph-name="infinity" unicode="&#x221e;" horiz-adv-x="926" 
d="M240 418c97 0 162 -63 223 -119c61 56 125 119 223 119c105 0 177 -71 177 -160c0 -90 -72 -160 -178 -160c-86 0 -144 48 -222 118c-69 -65 -132 -118 -223 -118c-106 0 -177 71 -177 160s71 160 177 160zM683 356c-62 0 -108 -37 -175 -98c51 -48 104 -98 175 -98
c72 0 109 52 109 98c0 45 -36 98 -109 98zM243 160c71 0 123 50 175 98c-68 61 -113 98 -175 98c-73 0 -108 -53 -108 -98c0 -46 36 -98 108 -98z" />
    <glyph glyph-name="integral" unicode="&#x222b;" horiz-adv-x="394" 
d="M154 86v548c0 152 47 205 206 205h15v-57h-23c-113 0 -112 -73 -112 -173v-547c0 -152 -48 -205 -207 -205h-14v57h23c112 0 112 73 112 172z" />
    <glyph glyph-name="approxequal" unicode="&#x2248;" horiz-adv-x="615" 
d="M109 367l-52 21c35 72 83 106 142 106c91 0 147 -68 225 -68c28 0 55 9 84 61l52 -20c-34 -73 -82 -106 -141 -106c-90 0 -148 68 -225 68c-29 0 -55 -9 -85 -62zM109 188l-52 20c35 73 83 106 142 106c91 0 147 -67 225 -67c28 0 55 8 84 61l52 -21
c-34 -72 -82 -106 -141 -106c-90 0 -148 68 -225 68c-29 0 -55 -9 -85 -61z" />
    <glyph glyph-name="notequal" unicode="&#x2260;" horiz-adv-x="615" 
d="M55 391v66h270l70 164l57 -22l-62 -142h167v-66h-195l-49 -114h244v-66h-273l-69 -162l-55 22l60 140h-165v66h193l48 114h-241z" />
    <glyph glyph-name="lessequal" unicode="&#x2264;" horiz-adv-x="615" 
d="M554 475l-402 -153l402 -154v-77l-501 202v58l501 202v-78zM52 0v60h502v-60h-502z" />
    <glyph glyph-name="greaterequal" unicode="&#x2265;" horiz-adv-x="615" 
d="M561 351v-58l-501 -202v77l402 154l-402 153v78zM562 60v-60h-502v60h502z" />
    <glyph glyph-name="uni2318" unicode="&#x2318;" horiz-adv-x="809" 
d="M600 40c-78 0 -140 58 -140 131v73h-110v-73c0 -73 -63 -131 -140 -131c-79 0 -142 58 -142 131c0 72 63 131 142 131h80v98h-80c-79 0 -142 59 -142 131c0 73 63 131 142 131c77 0 140 -58 140 -131v-73h110v73c0 73 62 131 140 131c79 0 141 -58 141 -131
c0 -72 -62 -131 -141 -131h-80v-98h80c79 0 141 -59 141 -131c0 -73 -62 -131 -141 -131zM600 244h-80v-73c0 -41 36 -73 80 -73s81 32 81 73c0 40 -37 73 -81 73zM290 244h-80c-46 0 -82 -33 -82 -73c0 -41 36 -73 82 -73c44 0 80 32 80 73v73zM350 400v-98h110v98h-110z
M520 531v-73h80c44 0 81 33 81 73c0 41 -37 73 -81 73s-80 -32 -80 -73zM210 458h80v73c0 41 -36 73 -80 73c-46 0 -82 -32 -82 -73c0 -40 36 -73 82 -73z" />
    <glyph glyph-name="lozenge" unicode="&#x25ca;" horiz-adv-x="555" 
d="M326 0h-96l-190 350l190 350h96l192 -350zM431 350l-153 280l-153 -280l153 -281z" />
    <glyph glyph-name="commaaccent" unicode="&#xf6c3;" horiz-adv-x="86" 
d="M7 -160v97h80l9 -101l-71 -108l-24 26l43 86h-37z" />
    <glyph glyph-name="centinferior" unicode="&#xf6df;" horiz-adv-x="365" 
d="M225 -150h-48v47c-72 4 -136 58 -136 163c0 106 64 159 136 163v47h48v-50c42 -9 79 -30 101 -41l-28 -45c-15 7 -44 23 -73 31v-210c29 8 58 24 73 31l28 -47c-22 -11 -59 -30 -101 -39v-50zM107 60c0 -60 28 -100 70 -108v216c-42 -8 -70 -48 -70 -108z" />
    <glyph glyph-name="centsuperior" unicode="&#xf6e0;" horiz-adv-x="366" 
d="M225 385h-48v46c-72 5 -136 59 -136 164c0 106 64 159 136 163v47h48v-50c42 -9 79 -30 101 -41l-28 -45c-15 7 -44 23 -73 31v-211c29 8 58 24 73 32l28 -47c-22 -11 -59 -31 -101 -39v-50zM107 595c0 -60 28 -100 70 -109v217c-42 -8 -70 -48 -70 -108z" />
    <glyph glyph-name="commainferior" unicode="&#xf6e1;" horiz-adv-x="184" 
d="M56 -150v81h69l8 -87l-59 -80l-21 23l35 63h-32z" />
    <glyph glyph-name="commasuperior" unicode="&#xf6e2;" horiz-adv-x="184" 
d="M56 385v81h69l8 -87l-59 -80l-21 23l35 63h-32z" />
    <glyph glyph-name="dollarinferior" unicode="&#xf6e3;" horiz-adv-x="405" 
d="M227 -210h-48v56c-57 8 -112 31 -146 50l31 48c28 -16 73 -34 115 -42v137l-12 4c-58 19 -124 45 -124 118c0 68 56 112 136 115v55h48v-57c46 -6 95 -22 127 -38l-29 -48c-28 12 -65 24 -98 30v-127l10 -3c58 -19 134 -47 134 -126c0 -73 -64 -116 -144 -119v-53z
M303 -43c0 34 -31 50 -76 66v-124c39 2 76 21 76 58zM112 166c0 -33 27 -47 67 -60v115c-36 -3 -67 -20 -67 -55z" />
    <glyph glyph-name="dollarsuperior" unicode="&#xf6e4;" horiz-adv-x="405" 
d="M227 325h-48v55c-57 8 -112 31 -146 51l31 48c28 -16 73 -34 115 -42v137l-12 4c-58 19 -124 45 -124 118c0 68 56 112 136 115v55h48v-57c46 -6 95 -22 127 -38l-29 -48c-28 12 -65 24 -98 30v-127l10 -3c58 -19 134 -47 134 -126c0 -74 -64 -116 -144 -119v-53z
M303 492c0 33 -31 50 -76 66v-125c39 3 76 22 76 59zM112 701c0 -33 27 -47 67 -60v115c-36 -3 -67 -20 -67 -55z" />
    <glyph glyph-name="periodinferior" unicode="&#xf6e7;" horiz-adv-x="182" 
d="M56 -150v81h70v-81h-70z" />
    <glyph glyph-name="periodsuperior" unicode="&#xf6e8;" horiz-adv-x="182" 
d="M56 385v81h70v-81h-70z" />
    <glyph glyph-name="asuperior" unicode="&#xf6e9;" horiz-adv-x="382" 
d="M265 385v41c-25 -23 -68 -48 -122 -48c-56 0 -111 32 -111 102c0 69 53 103 117 103c37 0 90 -12 116 -17v31c0 41 -16 61 -66 61c-36 0 -76 -12 -123 -26l-21 45c58 19 109 30 153 30c77 0 120 -31 120 -109v-213h-63zM161 429c40 0 74 16 104 42v60
c-22 4 -63 13 -93 13c-55 0 -75 -27 -75 -60c0 -39 27 -55 64 -55z" />
    <glyph glyph-name="bsuperior" unicode="&#xf6ea;" horiz-adv-x="399" 
d="M55 385v437h63v-162c27 23 63 47 115 47c72 0 127 -51 127 -165c0 -113 -55 -164 -127 -164c-52 0 -88 23 -115 46v-39h-63zM219 655c-39 0 -75 -20 -101 -47v-131c26 -27 62 -48 101 -48c51 0 77 42 77 113c0 72 -26 113 -77 113z" />
    <glyph glyph-name="dsuperior" unicode="&#xf6eb;" horiz-adv-x="399" 
d="M343 385h-63v39c-26 -23 -64 -46 -115 -46c-72 0 -127 51 -127 164c0 114 55 165 127 165c52 0 89 -24 115 -47v162h63v-437zM180 429c39 0 74 21 100 48v131c-26 27 -61 47 -100 47c-51 0 -77 -41 -77 -113c0 -71 26 -113 77 -113z" />
    <glyph glyph-name="esuperior" unicode="&#xf6ec;" horiz-adv-x="379" 
d="M335 528h-233c5 -64 38 -102 89 -102c43 0 90 24 123 42l27 -40c-28 -17 -87 -50 -154 -50c-82 0 -150 54 -150 164c0 105 64 165 158 165c95 0 144 -59 144 -138c0 -23 -4 -41 -4 -41zM194 660c-53 0 -85 -36 -91 -95h174c0 65 -30 95 -83 95z" />
    <glyph glyph-name="isuperior" unicode="&#xf6ed;" horiz-adv-x="175" 
d="M119 385h-64v315h64v-315zM53 757v64h70v-64h-70z" />
    <glyph glyph-name="lsuperior" unicode="&#xf6ee;" horiz-adv-x="174" 
d="M118 385h-63v437h63v-437z" />
    <glyph glyph-name="msuperior" unicode="&#xf6ef;" horiz-adv-x="598" 
d="M118 700v-45c24 21 71 52 120 52c56 0 78 -30 87 -58c22 21 72 58 127 58c69 0 92 -43 92 -99v-223h-63v211c0 33 -10 60 -51 60c-37 0 -77 -29 -99 -50v-221h-64v211c0 33 -9 60 -50 60c-38 0 -77 -28 -99 -50v-221h-63v315h63z" />
    <glyph glyph-name="osuperior" unicode="&#xf6f0;" horiz-adv-x="395" 
d="M357 542c0 -102 -57 -164 -160 -164c-104 0 -160 62 -160 164c0 103 56 165 160 165c103 0 160 -62 160 -165zM293 542c0 70 -29 115 -96 115c-68 0 -96 -45 -96 -115c0 -69 28 -114 96 -114c67 0 96 44 96 114z" />
    <glyph glyph-name="rsuperior" unicode="&#xf6f1;" horiz-adv-x="266" 
d="M118 700v-67c5 13 39 77 125 71v-60c-112 0 -125 -99 -125 -99v-160h-63v315h63z" />
    <glyph glyph-name="ssuperior" unicode="&#xf6f2;" horiz-adv-x="343" 
d="M191 569c70 -17 119 -43 119 -101c0 -59 -54 -90 -124 -90c-58 0 -120 22 -153 39l27 47c33 -16 86 -35 123 -35c34 0 64 12 64 37c0 34 -54 44 -95 55c-52 13 -113 35 -113 96c0 55 48 90 121 90c52 0 104 -18 136 -33l-28 -43c-30 13 -73 27 -106 27
c-37 0 -61 -15 -61 -38c0 -34 53 -42 90 -51z" />
    <glyph glyph-name="tsuperior" unicode="&#xf6f3;" horiz-adv-x="270" 
d="M25 652v48h45v79l65 12v-91h90v-48h-90v-187c0 -26 12 -32 29 -32c18 0 49 11 59 15l24 -47c-17 -7 -59 -23 -96 -23c-48 0 -81 24 -81 89v185h-45z" />
    <glyph glyph-name="apple" unicode="&#xf8ff;" horiz-adv-x="857" 
d="M745 327c-13 -5 -13 -16 -3 -23l28 -20c11 -7 10 -15 -3 -18l-34 -6c-14 -2 -16 -12 -7 -22l24 -24c8 -9 6 -17 -8 -17l-35 2c-13 0 -18 -9 -10 -20l18 -30c7 -11 2 -17 -11 -15l-34 9c-12 4 -19 -5 -15 -17l11 -33c5 -12 -1 -18 -13 -12l-31 15c-11 6 -20 0 -19 -14
l5 -33c1 -14 -5 -17 -15 -9l-28 21c-10 8 -20 3 -21 -10l-2 -34c-1 -13 -9 -15 -17 -6l-23 27c-9 9 -18 8 -22 -5l-10 -33c-3 -13 -12 -13 -18 -2l-17 30c-6 12 -15 12 -23 0l-15 -30c-6 -11 -15 -11 -18 2l-10 33c-4 13 -13 14 -22 5l-23 -27c-8 -9 -15 -7 -17 6l-2 34
c-1 13 -11 18 -22 10l-26 -21c-11 -8 -19 -5 -16 9l5 33c1 14 -8 20 -20 14l-30 -15c-12 -6 -18 0 -13 12l11 33c5 12 -3 21 -15 17l-34 -9c-13 -2 -18 4 -11 15l19 30c7 11 2 20 -11 20l-35 -2c-14 0 -16 8 -8 17l25 24c8 10 6 20 -8 22l-33 6c-14 3 -15 11 -4 18l28 20
c3 2 5 5 6 6c6 5 13 2 18 -6l16 -31c6 -12 14 -10 18 2l9 34c4 12 14 14 22 4l23 -26c9 -10 16 -7 17 6l2 34c2 13 11 17 21 9l28 -21c11 -8 18 -4 15 9l-4 34c-2 13 7 19 18 13l31 -14c12 -6 18 0 14 12l-11 33c-5 12 2 20 14 16l7 -1c26 -50 49 -145 49 -205
c-8 -10 -17 -18 -46 -18h-4c0 14 -5 26 -16 35c7 -8 9 -17 9 -27v-7c-11 1 -16 8 -16 19c0 27 -18 49 -51 49c-27 0 -47 -23 -47 -54c0 -38 33 -65 92 -65c144 0 278 190 278 319c0 38 -26 67 -64 67c-30 0 -60 -24 -60 -58s21 -54 58 -58c-8 -32 -15 -60 -29 -85
c-8 62 -29 119 -58 150c29 -38 47 -97 52 -161l-14 -20c0 100 -36 197 -89 224c-3 6 2 13 12 15l34 6c12 2 14 10 3 17l-29 19c-10 9 -9 18 3 23l31 14c14 4 14 13 0 18l-31 13c-9 4 -11 8 -10 14c4 2 6 4 7 8l17 30c6 12 15 11 18 -1l10 -33c4 -13 13 -16 22 -5l23 26
c8 10 16 8 17 -5l2 -35c1 -14 11 -17 21 -9l28 21c10 8 16 3 15 -10l-5 -34c-1 -13 8 -19 19 -13l31 16c12 5 18 0 13 -14l-11 -31c-4 -13 3 -21 15 -17l34 7c13 4 18 -2 11 -14l-18 -29c-8 -11 -3 -21 10 -20l35 2c14 0 16 -8 8 -17l-24 -26c-9 -9 -7 -19 7 -21l34 -6
c13 -3 14 -10 3 -19l-28 -19c-10 -7 -10 -17 3 -22l31 -13c12 -5 12 -13 0 -18zM364 124c144 0 278 189 278 319c0 19 -7 37 -20 49c8 -12 12 -25 12 -41c0 -66 -34 -146 -85 -210c-52 -64 -122 -113 -196 -113c-19 0 -36 3 -49 9c14 -9 35 -13 60 -13z" />
    <glyph glyph-name="s_t" unicode="&#xfb06;" horiz-adv-x="894" 
d="M545 461v64h73v31c0 75 -32 128 -116 128c-74 0 -117 -46 -117 -116c0 -26 5 -48 14 -65l47 -20l-36 -58c-49 23 -116 44 -169 44c-61 0 -104 -27 -104 -73c0 -64 87 -81 142 -95c114 -30 190 -74 190 -166c0 -99 -89 -146 -191 -146c-91 0 -182 35 -234 64l37 61
c51 -27 132 -58 193 -58c58 0 112 26 112 76c0 65 -90 85 -156 103c-81 22 -175 55 -175 157c0 91 76 144 184 144c36 0 72 -6 106 -15c-6 15 -9 33 -9 54c0 95 68 154 175 154c126 0 189 -72 189 -183v-21h144v-64h-144v-344c0 -44 20 -55 49 -55c31 0 83 19 100 27l32 -63
c-24 -11 -90 -37 -146 -37c-66 0 -117 31 -117 132v340h-73z" />
    <glyph glyph-name="eight.numr" horiz-adv-x="418" 
d="M40 390c0 63 53 96 104 117c-40 19 -77 48 -77 98c0 61 57 102 143 102c85 0 142 -41 142 -102c0 -50 -38 -79 -78 -98c50 -21 104 -54 104 -117c0 -73 -71 -117 -168 -117c-100 0 -170 44 -170 117zM310 394c0 45 -51 70 -101 88c-51 -18 -102 -43 -102 -88
c0 -43 46 -70 103 -70c56 0 100 27 100 70zM131 599c0 -39 44 -57 78 -69c33 12 78 30 78 69c0 31 -32 58 -77 58c-48 0 -79 -27 -79 -58z" />
    <glyph glyph-name="Qsuperior" horiz-adv-x="490" 
d="M244 378c-144 0 -198 98 -198 217c0 120 54 217 198 217s199 -97 199 -217c0 -96 -36 -179 -126 -207l71 -54l-44 -45zM244 435c98 0 132 70 132 160s-34 160 -132 160s-131 -70 -131 -160s33 -160 131 -160z" />
    <glyph glyph-name="f_f.calt" horiz-adv-x="706" 
d="M33 461v64h73v72c0 101 49 132 118 132c52 0 126 -24 155 -35l-27 -61c-22 7 -87 24 -115 24s-49 -11 -49 -56v-76h136v-64h-136v-461h-82v461h-73zM386 461v64h74v72c0 101 50 132 114 132c46 0 104 -19 127 -27l-25 -62c-17 5 -64 17 -85 17c-28 0 -50 -11 -50 -56v-76
h142v-64h-142v-461h-81v461h-74z" />
    <glyph glyph-name="f_f.ss01" horiz-adv-x="677" 
d="M33 461v64h74v62c0 100 60 132 138 132c69 0 164 -21 208 -33c20 31 54 43 96 43c52 0 127 -24 155 -35l-30 -61c-21 7 -84 24 -111 24c-28 0 -49 -11 -49 -56v-76h141v-64h-141v-461h-82v461h-244v-461h-81v461h-74zM188 591v-66h244v72c0 9 0 17 1 25
c-39 7 -136 25 -180 25c-34 0 -65 -14 -65 -56z" />
    <glyph glyph-name="f_f_b.ss01" horiz-adv-x="1279" 
d="M33 461v64h74v62c0 100 60 132 138 132c70 0 169 -23 212 -34c24 32 65 44 113 44c60 0 141 -17 188 -29v29h82v-272c42 37 103 79 185 79c111 0 201 -80 201 -274c0 -193 -90 -273 -201 -273c-82 0 -143 40 -185 78v-67h-82v631c-34 6 -136 26 -180 26
c-33 0 -64 -14 -64 -56v-76h141v-64h-141v-461h-82v461h-244v-461h-81v461h-74zM1010 467c-66 0 -128 -38 -170 -84v-242c42 -46 103 -83 170 -83c86 0 131 77 131 204c0 128 -45 205 -131 205zM432 597c0 9 0 17 1 25c-39 7 -136 25 -180 25c-34 0 -65 -14 -65 -56v-66h244
v72z" />
    <glyph glyph-name="f_f_h.ss01" horiz-adv-x="1282" 
d="M33 461v64h74v62c0 100 60 132 138 132c70 0 169 -23 212 -34c24 32 65 44 113 44c60 0 141 -17 188 -29v29h82v-277c40 29 128 84 217 84c114 0 148 -74 148 -162v-374h-83v359c0 61 -18 109 -90 109c-71 0 -156 -54 -192 -85v-383h-82v631c-34 6 -136 26 -180 26
c-33 0 -64 -14 -64 -56v-76h141v-64h-141v-461h-82v461h-244v-461h-81v461h-74zM432 597c0 9 0 17 1 25c-39 7 -136 25 -180 25c-34 0 -65 -14 -65 -56v-66h244v72z" />
    <glyph glyph-name="f_f_i.ss01" horiz-adv-x="892" 
d="M33 461v64h74v62c0 100 60 132 138 132c71 0 170 -23 212 -34c25 32 67 44 115 44c71 0 171 -24 208 -35l-32 -61c-32 6 -123 24 -168 24c-33 0 -66 -14 -66 -56v-76h300v-525h-83v461h-217v-461h-82v461h-244v-461h-81v461h-74zM432 597c0 9 0 17 1 25
c-39 7 -136 25 -180 25c-34 0 -65 -14 -65 -56v-66h244v72z" />
    <glyph glyph-name="f_f_j.ss01" horiz-adv-x="892" 
d="M34 461v64h74v62c0 100 60 132 138 132c71 0 170 -23 212 -34c25 32 67 44 115 44c71 0 171 -24 208 -35l-32 -61c-32 6 -123 24 -168 24c-33 0 -66 -14 -66 -56v-76h300v-545c0 -110 0 -148 -172 -193l-29 63c118 38 118 48 118 126v485h-217v-461h-82v461h-244v-461
h-81v461h-74zM433 597c0 9 0 17 1 25c-39 7 -136 25 -180 25c-34 0 -65 -14 -65 -56v-66h244v72z" />
    <glyph glyph-name="f_f_k.ss01" horiz-adv-x="1202" 
d="M33 461v64h74v62c0 100 60 132 138 132c70 0 169 -23 212 -34c24 32 65 44 113 44c60 0 141 -17 188 -29v29h82v-481l222 277h94l-178 -212l210 -313h-89l-171 253l-88 -105v-148h-82v631c-34 6 -136 26 -180 26c-33 0 -64 -14 -64 -56v-76h141v-64h-141v-461h-82v461
h-244v-461h-81v461h-74zM432 597c0 9 0 17 1 25c-39 7 -136 25 -180 25c-34 0 -65 -14 -65 -56v-66h244v72z" />
    <glyph glyph-name="f.calt" horiz-adv-x="352" 
d="M33 461v64h73v72c0 101 50 132 115 132c45 0 104 -19 126 -27l-24 -62c-18 5 -64 17 -86 17c-28 0 -49 -11 -49 -56v-76h141v-64h-141v-461h-82v461h-73z" />
    <glyph glyph-name="f_f_l.ss01" horiz-adv-x="927" 
d="M33 461v64h74v62c0 100 60 132 138 132c70 0 169 -23 212 -34c24 32 65 44 113 44c60 0 141 -17 188 -29v29h82v-729h-82v631c-34 6 -136 26 -180 26c-33 0 -64 -14 -64 -56v-76h141v-64h-141v-461h-82v461h-244v-461h-81v461h-74zM432 597c0 9 0 17 1 25
c-39 7 -136 25 -180 25c-34 0 -65 -14 -65 -56v-66h244v72z" />
    <glyph glyph-name="f_f_t.ss01" horiz-adv-x="1018" 
d="M33 461v64h74v62c0 100 60 132 138 132c68 0 162 -21 207 -33c20 31 55 43 97 43c52 0 126 -24 155 -35l-30 -61c-21 7 -85 24 -111 24c-28 0 -49 -11 -49 -56v-76h229v132l81 20v-152h145v-64h-145v-344c0 -44 22 -55 50 -55c30 0 82 19 100 27l31 -63
c-24 -11 -89 -37 -145 -37c-67 0 -117 31 -117 132v340h-229v-461h-83v461h-243v-461h-81v461h-74zM431 597c0 9 0 17 1 25c-40 7 -135 25 -179 25c-34 0 -65 -14 -65 -56v-66h243v72z" />
    <glyph glyph-name="f_h.ss01" horiz-adv-x="957" 
d="M33 461v64h74v72c0 100 60 132 138 132c60 0 141 -17 188 -29v29h82v-277c40 29 127 84 217 84c113 0 148 -74 148 -162v-374h-83v359c0 61 -18 109 -90 109c-71 0 -156 -54 -192 -85v-383h-82v631c-34 6 -136 26 -180 26c-34 0 -65 -14 -65 -56v-76h142v-64h-142v-461
h-81v461h-74z" />
    <glyph glyph-name="exclamsuperior" horiz-adv-x="196" 
d="M64 385v76h70v-76h-70zM137 805l-19 -291h-39l-20 291h78z" />
    <glyph glyph-name="f_i.ss01" horiz-adv-x="567" 
d="M33 461v64h74v72c0 100 61 132 140 132c71 0 171 -24 208 -35l-32 -61c-32 6 -123 24 -168 24c-34 0 -67 -14 -67 -56v-76h301v-525h-83v461h-218v-461h-81v461h-74z" />
    <glyph glyph-name="f_j.ss01" horiz-adv-x="567" 
d="M34 461v64h74v72c0 100 61 132 140 132c71 0 171 -24 208 -35l-32 -61c-32 6 -123 24 -168 24c-34 0 -67 -14 -67 -56v-76h301v-545c0 -110 0 -148 -172 -193l-29 63c118 38 118 48 118 126v485h-218v-461h-81v461h-74z" />
    <glyph glyph-name="f_k.ss01" horiz-adv-x="877" 
d="M33 461v64h74v72c0 100 60 132 138 132c60 0 141 -17 188 -29v29h82v-481l222 277h94l-178 -211l210 -314h-89l-172 253l-87 -104v-149h-82v631c-34 6 -136 26 -180 26c-34 0 -65 -14 -65 -56v-76h142v-64h-142v-461h-81v461h-74z" />
    <glyph glyph-name="exclaminferior" horiz-adv-x="195" 
d="M63 -150v76h70v-76h-70zM136 270l-19 -291h-39l-20 291h78z" />
    <glyph glyph-name="f_l.ss01" horiz-adv-x="602" 
d="M33 461v64h74v72c0 100 60 132 138 132c60 0 141 -17 188 -29v29h82v-729h-82v631c-34 6 -136 26 -180 26c-34 0 -65 -14 -65 -56v-76h142v-64h-142v-461h-81v461h-74z" />
    <glyph glyph-name="f_t.ss01" horiz-adv-x="693" 
d="M33 461v64h74v72c0 101 48 132 117 132c52 0 127 -24 155 -35l-30 -61c-21 7 -84 24 -111 24c-28 0 -50 -11 -50 -56v-76h229v132l83 20v-152h145v-64h-145v-344c0 -44 22 -55 49 -55c30 0 82 19 100 27l31 -63c-24 -11 -89 -37 -144 -37c-68 0 -119 31 -119 132v340
h-229v-461h-81v461h-74z" />
    <glyph glyph-name="finferior" horiz-adv-x="244" 
d="M27 117v48h45v34c0 65 32 88 81 88c36 0 83 -14 102 -22l-23 -45c-12 3 -50 14 -67 14c-16 0 -29 -6 -29 -33v-36h87v-48h-87v-267h-64v267h-45z" />
    <glyph glyph-name="exclamdownsuperior" horiz-adv-x="195" 
d="M64 728v77h70v-77h-70zM118 676l19 -291h-78l20 291h39z" />
    <glyph glyph-name="five.dnom" horiz-adv-x="391" 
d="M55 211l24 209h251v-55h-197l-9 -110c20 8 44 14 73 14c97 0 152 -63 152 -135s-53 -141 -161 -141c-69 0 -124 30 -151 46l30 49c14 -11 63 -38 113 -38c54 0 100 32 100 83c0 45 -33 83 -97 83c-39 0 -72 -15 -91 -25z" />
    <glyph glyph-name="five.numr" horiz-adv-x="391" 
d="M55 491l24 209h251v-55h-197l-9 -110c20 8 44 14 73 14c97 0 152 -63 152 -135s-53 -141 -161 -141c-69 0 -124 30 -151 46l30 49c14 -11 63 -38 113 -38c54 0 100 32 100 83c0 45 -33 83 -97 83c-39 0 -72 -15 -91 -25z" />
    <glyph glyph-name="five.onum" horiz-adv-x="573" 
d="M74 229l38 345h382v-74h-313l-17 -207c33 15 72 26 122 26c148 0 235 -104 235 -225c0 -118 -82 -231 -248 -231c-104 0 -186 45 -228 71l39 65c21 -14 99 -61 179 -61c90 0 170 61 170 156c0 82 -59 152 -163 152c-66 0 -120 -27 -149 -44z" />
    <glyph glyph-name="five.tnum" horiz-adv-x="630" 
d="M103 355l38 345h382v-74h-313l-17 -208c33 16 72 27 122 27c148 0 236 -104 236 -225c0 -118 -83 -231 -249 -231c-104 0 -185 45 -228 71l40 65c21 -14 99 -61 178 -61c90 0 170 61 170 156c0 82 -58 152 -163 152c-66 0 -120 -27 -149 -44z" />
    <glyph glyph-name="exclamdowninferior" horiz-adv-x="195" 
d="M63 193v77h70v-77h-70zM117 141l19 -291h-78l20 291h39z" />
    <glyph glyph-name="fiveeighths.onum" horiz-adv-x="824" 
d="M483 90c0 52 46 79 91 96c-34 16 -67 39 -67 80c0 51 50 84 123 84c74 0 123 -34 123 -84c0 -42 -34 -65 -67 -80c44 -17 91 -45 91 -96c0 -60 -61 -96 -147 -96c-85 0 -147 36 -147 96zM66 403l21 171h216v-46h-172l-8 -89c18 7 39 12 65 12c84 0 131 -53 131 -112
s-46 -115 -139 -115c-60 0 -106 25 -130 38l25 40c13 -9 56 -32 99 -32c47 0 88 27 88 69c0 37 -30 67 -86 67c-34 0 -62 -12 -79 -20zM579 574l-291 -574h-58l290 574h59zM719 93c0 39 -47 59 -90 73c-44 -15 -88 -36 -88 -73c0 -35 40 -56 89 -56s89 21 89 56zM561 260
c0 -32 39 -47 68 -56c29 9 69 24 69 56c0 26 -27 49 -68 49c-42 0 -69 -24 -69 -49z" />
    <glyph glyph-name="exclamdown.sc" horiz-adv-x="260" 
d="M85 473v101h89v-101h-89zM154 400l23 -400h-94l22 400h49z" />
    <glyph glyph-name="fivesixths" horiz-adv-x="911" 
d="M771 373c-82 0 -149 -52 -167 -147c17 17 54 43 114 43c89 0 142 -59 142 -133c0 -76 -60 -143 -159 -143c-116 0 -169 86 -169 187c0 139 97 247 238 247c35 0 61 -7 61 -7l-15 -52s-21 5 -45 5zM67 491l24 209h251v-55h-197l-9 -110c20 8 44 14 73 14
c97 0 152 -63 152 -135s-53 -141 -161 -141c-69 0 -124 30 -151 46l30 49c15 -11 63 -38 113 -38c54 0 100 32 100 83c0 45 -33 83 -97 83c-39 0 -72 -15 -91 -25zM660 700l-333 -700h-70l333 700h70zM703 218c-54 0 -91 -30 -104 -52c2 -77 41 -119 101 -119
c64 0 94 45 94 88c0 41 -28 83 -91 83z" />
    <glyph glyph-name="fivesixths.onum" horiz-adv-x="803" 
d="M675 306c-73 0 -131 -43 -146 -121c14 13 47 35 100 35c77 0 123 -48 123 -108c0 -63 -51 -118 -137 -118c-100 0 -147 71 -147 153c0 115 85 203 206 203c31 0 53 -6 53 -6l-12 -42s-19 4 -40 4zM66 403l21 171h216v-46h-172l-8 -89c18 7 39 12 65 12
c84 0 131 -53 131 -112s-46 -115 -139 -115c-60 0 -106 25 -130 38l25 40c13 -9 56 -32 99 -32c47 0 88 27 88 69c0 37 -30 67 -86 67c-34 0 -62 -12 -79 -20zM579 574l-291 -574h-58l290 574h59zM616 179c-47 0 -79 -26 -91 -43c1 -62 36 -97 89 -97c56 0 83 37 83 72
c0 33 -25 68 -81 68z" />
    <glyph glyph-name="exclam.sc" horiz-adv-x="259" 
d="M85 0v101h89v-101h-89zM177 574l-23 -400h-48l-23 400h94z" />
    <glyph glyph-name="einferior" horiz-adv-x="378" 
d="M335 -7h-233c5 -63 38 -102 89 -102c43 0 90 24 123 42l27 -40c-28 -17 -87 -50 -154 -50c-82 0 -150 54 -150 164c0 105 64 165 158 165c95 0 144 -59 144 -138c0 -23 -4 -41 -4 -41zM194 125c-53 0 -85 -36 -91 -95h174c0 65 -30 95 -83 95z" />
    <glyph glyph-name="eight.tnum" horiz-adv-x="630" 
d="M55 181c0 107 88 163 169 197c-62 28 -128 76 -128 164c0 103 89 169 218 169s218 -66 218 -169c0 -88 -66 -135 -128 -164c81 -33 170 -90 170 -197c0 -122 -112 -192 -260 -192s-259 70 -259 192zM486 184c0 85 -89 129 -172 160c-84 -31 -171 -75 -171 -160
c0 -78 77 -126 171 -126c95 0 172 48 172 126zM181 535c0 -73 79 -105 133 -125c54 20 134 52 134 125c0 58 -55 108 -134 108c-78 0 -133 -50 -133 -108z" />
    <glyph glyph-name="four.dnom" horiz-adv-x="425" 
d="M30 89v47l208 284h87v-277h68v-54h-68v-89h-66v89h-229zM99 143h160v222z" />
    <glyph glyph-name="four.numr" horiz-adv-x="425" 
d="M30 369v47l208 284h87v-277h68v-54h-68v-89h-66v89h-229zM99 423h160v222z" />
    <glyph glyph-name="four.onum" horiz-adv-x="626" 
d="M33 29v64l336 481h112v-472h108v-73h-108v-155h-86v155h-362zM124 102h271v395z" />
    <glyph glyph-name="four.tnum" horiz-adv-x="630" 
d="M36 155v64l336 481h109v-472h105v-73h-105v-155h-85v155h-360zM124 228h272v395z" />
    <glyph glyph-name="fourfifths" horiz-adv-x="981" 
d="M36 369v47l208 284h88v-277h67v-54h-67v-89h-66v89h-230zM633 211l23 209h252v-55h-198l-9 -110c21 8 45 14 74 14c97 0 151 -63 151 -135s-53 -141 -161 -141c-69 0 -124 30 -150 46l29 49c15 -11 64 -38 113 -38c54 0 101 32 101 83c0 45 -34 83 -97 83
c-40 0 -73 -15 -92 -25zM708 700l-333 -700h-70l333 700h70zM106 423h160v222z" />
    <glyph glyph-name="fourfifths.onum" horiz-adv-x="865" 
d="M40 302v39l182 233h73v-227h58v-45h-58v-72h-55v72h-200zM557 173l20 171h217v-45h-172l-9 -90c18 7 39 12 65 12c85 0 132 -52 132 -111c0 -60 -46 -116 -139 -116c-60 0 -106 25 -130 38l25 40c12 -8 54 -31 98 -31c47 0 89 26 89 69c0 36 -30 67 -86 67
c-35 0 -63 -12 -80 -21zM622 574l-290 -574h-59l289 574h60zM100 347h140v183z" />
    <glyph glyph-name="eight.onum" horiz-adv-x="629" 
d="M55 181c0 107 88 164 168 197c-62 29 -127 76 -127 164c0 103 89 169 218 169c128 0 218 -66 218 -169c0 -88 -66 -135 -128 -164c81 -33 170 -90 170 -197c0 -122 -112 -192 -260 -192s-259 70 -259 192zM485 184c0 85 -88 129 -171 160c-84 -31 -171 -75 -171 -160
c0 -78 76 -126 171 -126s171 48 171 126zM181 535c0 -72 78 -105 133 -125c54 20 133 53 133 125c0 58 -54 108 -133 108c-78 0 -133 -50 -133 -108z" />
    <glyph glyph-name="eight.dnom" horiz-adv-x="418" 
d="M40 110c0 63 53 96 104 117c-40 19 -77 48 -77 98c0 61 57 102 143 102c85 0 142 -41 142 -102c0 -50 -38 -79 -78 -98c50 -21 104 -54 104 -117c0 -73 -71 -117 -168 -117c-100 0 -170 44 -170 117zM310 114c0 45 -51 70 -101 88c-51 -18 -102 -43 -102 -88
c0 -43 46 -70 103 -70c56 0 100 27 100 70zM131 319c0 -39 44 -57 78 -69c33 12 78 30 78 69c0 31 -32 58 -77 58c-48 0 -79 -27 -79 -58z" />
    <glyph glyph-name="dollar.onum" horiz-adv-x="566" 
d="M315 -82h-60v77c-78 9 -153 40 -200 67l37 59c41 -23 104 -48 163 -58v200l-13 4c-81 25 -174 61 -174 161c0 94 81 151 187 155v74h60v-78c63 -8 128 -29 173 -51l-38 -59c-39 17 -90 34 -135 41v-184l6 -2c84 -26 190 -64 190 -173c0 -101 -89 -156 -196 -160v-73z
M429 145c0 50 -47 75 -114 98v-184c59 3 114 31 114 86zM152 433c0 -49 43 -69 103 -88v168c-55 -3 -103 -28 -103 -80z" />
    <glyph glyph-name="frenchfranc" horiz-adv-x="597" 
d="M54 130v56h59v514h444v-75h-358v-238h285v-74h-285v-127h180v-56h-180v-130h-86v130h-59z" />
    <glyph glyph-name="frenchfranc.onum" horiz-adv-x="539" 
d="M54 103v50h52v421h391v-70h-309v-183h246v-68h-246v-100h156v-50h-156v-103h-82v103h-52z" />
    <glyph glyph-name="frenchfrancinferior" horiz-adv-x="398" 
d="M40 -76v38h37v308h290v-56h-223v-127h178v-54h-178v-71h114v-38h-114v-74h-67v74h-37z" />
    <glyph glyph-name="frenchfrancsuperior" horiz-adv-x="399" 
d="M41 459v38h37v308h290v-56h-223v-127h178v-54h-178v-71h114v-38h-114v-74h-67v74h-37z" />
    <glyph glyph-name="fsuperior" horiz-adv-x="244" 
d="M27 652v48h45v34c0 65 32 88 81 88c36 0 83 -14 102 -22l-23 -45c-12 3 -50 14 -67 14c-16 0 -29 -6 -29 -33v-36h87v-48h-87v-267h-64v267h-45z" />
    <glyph glyph-name="dinferior" horiz-adv-x="399" 
d="M343 -150h-63v39c-26 -22 -64 -46 -115 -46c-72 0 -127 51 -127 164c0 114 55 165 127 165c52 0 89 -24 115 -47v162h63v-437zM180 -106c39 0 74 21 100 48v131c-26 27 -61 47 -100 47c-51 0 -77 -41 -77 -113c0 -71 26 -113 77 -113z" />
    <glyph glyph-name="csuperior" horiz-adv-x="352" 
d="M320 662l-28 -45c-20 10 -63 36 -102 36c-51 0 -87 -43 -87 -110c0 -68 36 -111 87 -111c39 0 82 26 102 36l28 -46c-28 -14 -81 -44 -137 -44c-76 0 -146 54 -146 165c0 110 70 164 146 164c56 0 109 -30 137 -45z" />
    <glyph glyph-name="copyright.sc" horiz-adv-x="714" 
d="M491 414l-26 -29c-23 17 -59 44 -112 44c-62 0 -104 -57 -104 -143c0 -85 42 -141 104 -141c53 0 89 26 112 43l26 -29c-31 -21 -76 -51 -139 -51c-79 0 -146 61 -146 178c0 118 67 179 146 179c63 0 108 -30 139 -51zM59 287c0 166 107 296 299 296
c191 0 296 -130 296 -296s-105 -296 -296 -296c-192 0 -299 130 -299 296zM93 287c0 -149 93 -265 264 -265c170 0 265 116 265 265s-95 265 -265 265c-171 0 -264 -116 -264 -265z" />
    <glyph glyph-name="colonsuperior" horiz-adv-x="188" 
d="M59 584v81h70v-81h-70zM59 385v81h70v-81h-70z" />
    <glyph glyph-name="colonmonetarysuperior" horiz-adv-x="368" 
d="M140 385h-34l15 62c-45 24 -77 73 -77 148c0 111 70 164 146 164h6l11 46h35l-12 -51c7 -1 14 -3 21 -5l14 56h35l-17 -68c19 -8 34 -17 46 -23l-28 -45c-8 3 -18 9 -31 15l-47 -196c31 7 62 25 78 33l28 -47c-25 -13 -70 -36 -120 -42l-11 -47h-36l11 47
c-7 0 -14 2 -21 3zM110 595c0 -35 9 -64 26 -83l46 192c-43 -7 -72 -48 -72 -109zM166 491c6 -3 13 -5 20 -6l52 212l-21 6z" />
    <glyph glyph-name="germandblsinferior" horiz-adv-x="434" 
d="M221 277c107 0 165 -44 165 -136v-2l-37 -38c-18 9 -54 22 -82 22c-29 0 -48 -15 -48 -37c0 -35 41 -42 76 -53c58 -17 106 -42 106 -100c0 -59 -47 -90 -111 -90c-55 0 -109 22 -140 39l27 46c28 -16 76 -35 107 -35c28 0 53 14 53 37c0 34 -42 44 -81 56
c-45 14 -100 34 -100 96c0 55 42 90 106 90c20 0 40 -3 59 -8c-9 45 -41 63 -100 63c-71 0 -103 -25 -103 -90v-287h-63v291c0 93 59 136 166 136z" />
    <glyph glyph-name="germandblssuperior" horiz-adv-x="435" 
d="M221 812c107 0 165 -44 165 -136v-2l-37 -38c-18 9 -54 22 -82 22c-29 0 -48 -15 -48 -37c0 -35 41 -42 76 -53c58 -17 106 -42 106 -100c0 -59 -47 -90 -111 -90c-55 0 -109 22 -140 39l27 46c28 -16 76 -35 107 -35c28 0 53 14 53 37c0 34 -42 44 -81 56
c-45 14 -100 34 -100 96c0 55 42 90 106 90c20 0 40 -3 59 -8c-9 45 -41 63 -100 63c-71 0 -103 -25 -103 -90v-287h-63v291c0 93 59 136 166 136z" />
    <glyph glyph-name="ginferior" horiz-adv-x="399" 
d="M281 165h63v-327c0 -85 -51 -116 -131 -116c-45 0 -109 9 -159 23l15 53c45 -12 99 -24 133 -24c54 0 79 19 79 61v54c-26 -23 -64 -46 -115 -46c-72 0 -127 51 -127 164c0 114 55 165 127 165c52 0 89 -24 115 -47v40zM181 -106c39 0 74 21 100 48v131
c-26 27 -61 47 -100 47c-51 0 -77 -41 -77 -113c0 -71 26 -113 77 -113z" />
    <glyph glyph-name="colonmonetaryinferior" horiz-adv-x="367" 
d="M139 -150h-34l15 63c-45 23 -77 72 -77 147c0 111 70 164 146 164h6l11 46h35l-12 -51c7 -1 14 -3 21 -5l14 56h35l-17 -68c19 -8 34 -17 46 -23l-28 -45c-8 3 -18 9 -31 15l-47 -196c31 8 62 25 78 33l28 -47c-25 -12 -70 -36 -120 -41l-11 -48h-36l11 47
c-7 1 -14 2 -21 4zM109 60c0 -35 9 -64 26 -83l46 192c-43 -7 -72 -48 -72 -109zM165 -44c6 -2 13 -4 20 -5l52 211l-21 6z" />
    <glyph glyph-name="colonmonetary.onum" horiz-adv-x="505" 
d="M190 0h-45l20 85c-61 33 -105 100 -105 203c0 150 96 224 199 224h10l15 62h45l-17 -68c11 -2 21 -5 31 -8l19 76h44l-22 -92c26 -11 48 -23 64 -31l-35 -57l-45 22l-69 -283c47 10 91 36 114 48l35 -57c-34 -18 -97 -53 -166 -60l-15 -64h-45l15 64c-10 1 -20 3 -30 6z
M140 288c0 -55 17 -97 44 -125l68 281c-65 -7 -112 -66 -112 -156zM223 137c10 -3 20 -6 31 -7l74 303c-10 4 -21 7 -31 9z" />
    <glyph glyph-name="coloninferior" horiz-adv-x="188" 
d="M59 49v81h70v-81h-70zM59 -150v81h70v-81h-70z" />
    <glyph glyph-name="gsuperior" horiz-adv-x="399" 
d="M281 700h63v-327c0 -85 -51 -116 -131 -116c-45 0 -109 9 -159 23l15 53c45 -12 99 -24 133 -24c54 0 79 19 79 61v54c-26 -23 -64 -46 -115 -46c-72 0 -127 51 -127 164c0 114 55 165 127 165c52 0 89 -24 115 -47v40zM181 429c39 0 74 21 100 48v131
c-26 27 -61 47 -100 47c-51 0 -77 -41 -77 -113c0 -71 26 -113 77 -113z" />
    <glyph glyph-name="cinferior" horiz-adv-x="351" 
d="M320 127l-28 -45c-20 10 -63 36 -102 36c-51 0 -87 -43 -87 -110c0 -68 36 -111 87 -111c39 0 82 26 102 36l28 -46c-28 -14 -81 -44 -137 -44c-76 0 -146 54 -146 165c0 110 70 164 146 164c56 0 109 -30 137 -45z" />
    <glyph glyph-name="cent.onum" horiz-adv-x="504" 
d="M305 0h-60v63c-98 6 -186 80 -186 225c0 143 88 217 186 223v63h60v-67c59 -11 112 -40 142 -56l-35 -57c-22 10 -63 35 -107 46v-305c44 10 85 35 107 46l35 -57c-30 -16 -83 -45 -142 -57v-67zM139 288c0 -88 44 -146 106 -156v311c-62 -11 -106 -68 -106 -155z" />
    <glyph glyph-name="c_t" horiz-adv-x="905" 
d="M627 525v31c0 75 -32 128 -107 128c-68 0 -111 -46 -111 -115c0 -29 7 -54 20 -73c22 -10 41 -21 55 -29l-38 -62c-27 15 -95 59 -158 59c-85 0 -149 -77 -149 -201s64 -202 149 -202c63 0 131 44 158 58l38 -61c-40 -23 -119 -69 -203 -69c-118 0 -228 91 -228 274
s110 273 228 273c31 0 62 -7 90 -16c-7 16 -10 34 -10 55c0 95 67 154 168 154c116 0 180 -72 180 -183v-21h145v-64h-145v-344c0 -44 21 -55 50 -55s81 19 99 27l31 -63c-24 -11 -88 -37 -144 -37c-68 0 -118 31 -118 132v340h-73v64h73z" />
    <glyph glyph-name="c_l" horiz-adv-x="776" 
d="M689 0h-83v684h-81c-73 0 -116 -45 -116 -113c0 -29 7 -55 22 -75l53 -29l-38 -62c-27 15 -95 59 -158 59c-85 0 -149 -77 -149 -201s64 -202 149 -202c63 0 131 44 158 58l38 -61c-40 -23 -119 -69 -203 -69c-118 0 -228 91 -228 274s110 273 228 273c32 0 62 -7 91 -16
c-7 17 -11 36 -11 59c0 93 62 150 163 150h165v-729z" />
    <glyph glyph-name="c_k" horiz-adv-x="1048" 
d="M1000 525l-177 -211l209 -314h-88l-172 253l-88 -105v-148h-82v684h-77c-73 0 -116 -45 -116 -113c0 -29 7 -55 22 -75l53 -29l-38 -62c-27 15 -95 59 -158 59c-85 0 -149 -77 -149 -201s64 -202 149 -202c63 0 131 44 158 58l38 -61c-40 -23 -119 -69 -203 -69
c-118 0 -228 91 -228 274s110 273 228 273c32 0 62 -7 91 -16c-7 17 -11 36 -11 59c0 93 62 150 163 150h160v-481l222 277h94z" />
    <glyph glyph-name="c_h" horiz-adv-x="1129" 
d="M484 467l-38 -62c-27 15 -95 59 -158 59c-85 0 -149 -77 -149 -201s64 -202 149 -202c63 0 131 44 158 58l38 -61c-40 -23 -119 -69 -203 -69c-118 0 -228 91 -228 274s110 273 228 273c32 0 62 -7 91 -16c-7 17 -11 36 -11 59c0 93 62 150 163 150h160v-278
c39 28 127 85 217 85c114 0 149 -74 149 -162v-374h-83v359c0 61 -18 109 -90 109c-73 0 -158 -55 -193 -86v-382h-82v684h-77c-73 0 -116 -45 -116 -113c0 -29 7 -55 22 -75z" />
    <glyph glyph-name="hinferior" horiz-adv-x="401" 
d="M118 287v-165c26 19 78 50 135 50c72 0 94 -43 94 -99v-223h-63v211c0 34 -11 60 -53 60s-91 -28 -113 -47v-224h-63v437h63z" />
    <glyph glyph-name="brokenbar.sc" horiz-adv-x="250" 
d="M155 332h-61v339h61v-339zM155 -101h-61v339h61v-339z" />
    <glyph glyph-name="bracketrightsuperior" horiz-adv-x="245" 
d="M181 299h-148v41h82v508h-82v40h148v-589z" />
    <glyph glyph-name="bracketrightinferior" horiz-adv-x="245" 
d="M181 -236h-148v41h82v508h-82v40h148v-589z" />
    <glyph glyph-name="bracketright.sc" horiz-adv-x="333" 
d="M240 -118h-196v52h115v702h-115v52h196v-806z" />
    <glyph glyph-name="bracketleftsuperior" horiz-adv-x="245" 
d="M212 299h-149v589h149v-40h-83v-508h83v-41z" />
    <glyph glyph-name="bracketleftinferior" horiz-adv-x="245" 
d="M212 -236h-149v589h149v-40h-83v-508h83v-41z" />
    <glyph glyph-name="bracketleft.sc" horiz-adv-x="333" 
d="M289 -118h-196v806h196v-52h-115v-702h115v-52z" />
    <glyph glyph-name="bracerightsuperior" horiz-adv-x="276" 
d="M248 617v-47c-44 0 -67 -19 -60 -71l7 -56c12 -94 -39 -144 -150 -144h-12v40h12c77 0 91 48 84 97l-7 51c-8 63 16 95 71 106c-55 11 -79 43 -71 107l7 52c7 49 -7 97 -84 97h-12v39h12c111 0 161 -50 150 -143l-7 -56c-7 -52 16 -72 60 -72z" />
    <glyph glyph-name="bracerightinferior" horiz-adv-x="276" 
d="M248 82v-47c-44 0 -67 -19 -60 -71l7 -56c12 -94 -39 -144 -150 -144h-12v40h12c77 0 91 48 84 97l-7 51c-8 63 16 95 71 106c-55 11 -79 43 -71 107l7 52c7 49 -7 97 -84 97h-12v39h12c111 0 161 -50 150 -143l-7 -56c-7 -52 16 -72 60 -72z" />
    <glyph glyph-name="iinferior" horiz-adv-x="175" 
d="M119 -150h-64v315h64v-315zM53 222v64h70v-64h-70z" />
    <glyph glyph-name="braceright.sc" horiz-adv-x="379" 
d="M336 316v-61c-59 0 -94 -27 -83 -100l11 -75c19 -127 -51 -197 -204 -197h-16v50h16c111 0 131 67 121 135l-11 74c-12 84 21 128 95 143c-74 15 -107 59 -95 144l11 73c10 69 -10 134 -121 134h-16v52h16c153 0 220 -70 203 -197l-10 -76c-10 -72 24 -99 83 -99z" />
    <glyph glyph-name="braceleftsuperior" horiz-adv-x="276" 
d="M27 570v47c46 0 70 20 62 72l-8 55c-14 93 38 144 149 144h12v-39h-12c-76 0 -88 -48 -83 -97l7 -52c9 -64 -16 -96 -71 -107c55 -11 80 -43 71 -106l-7 -51c-5 -49 7 -97 83 -97h12v-40h-12c-111 0 -163 50 -149 145l8 55c7 51 -16 71 -62 71z" />
    <glyph glyph-name="braceleftinferior" horiz-adv-x="276" 
d="M27 35v47c46 0 70 20 62 72l-8 55c-14 93 38 144 149 144h12v-39h-12c-76 0 -88 -48 -83 -97l7 -52c9 -64 -16 -96 -71 -107c55 -11 80 -43 71 -106l-7 -51c-5 -49 7 -97 83 -97h12v-40h-12c-111 0 -163 50 -149 145l8 55c7 51 -16 71 -62 71z" />
    <glyph glyph-name="braceleft.sc" horiz-adv-x="379" 
d="M42 255v61c61 0 94 27 85 99l-10 76c-17 127 49 197 202 197h16v-52h-16c-111 0 -130 -65 -121 -134l10 -73c12 -85 -21 -129 -95 -144c74 -15 107 -59 95 -143l-10 -74c-9 -68 10 -135 121 -135h16v-50h-16c-153 0 -220 69 -202 197l10 76c10 72 -24 99 -85 99z" />
    <glyph glyph-name="binferior" horiz-adv-x="399" 
d="M55 -150v437h63v-162c27 23 63 47 115 47c72 0 127 -51 127 -165c0 -113 -55 -164 -127 -164c-52 0 -88 24 -115 46v-39h-63zM219 120c-39 0 -75 -20 -101 -47v-131c26 -27 62 -48 101 -48c51 0 77 42 77 113c0 72 -26 113 -77 113z" />
    <glyph glyph-name="bar.sc" horiz-adv-x="248" 
d="M154 -101h-61v772h61v-772z" />
    <glyph glyph-name="backslash.sc" horiz-adv-x="411" 
d="M321 -74l-289 722h63l289 -722h-63z" />
    <glyph glyph-name="at.sc" horiz-adv-x="804" 
d="M394 -110c97 0 154 36 154 36l24 -30s-62 -43 -179 -43c-202 0 -336 154 -336 354c0 201 136 356 358 356c221 0 338 -149 339 -355c0 -126 -50 -228 -156 -228c-80 0 -100 59 -104 97c-28 -26 -73 -58 -134 -58c-59 0 -120 33 -120 121c0 85 59 124 124 124
c42 0 101 -15 130 -21v43c0 54 -17 78 -75 78c-40 0 -90 -15 -131 -33l-24 46c54 22 113 37 164 37c82 0 127 -36 127 -125v-162c0 -50 1 -103 54 -103c42 0 106 45 106 185c0 177 -96 316 -302 316c-205 0 -317 -145 -317 -318c0 -178 117 -317 298 -317zM375 69
c47 0 84 24 119 57v80c-24 5 -72 16 -108 16c-62 0 -84 -37 -84 -79c0 -53 32 -74 73 -74z" />
    <glyph glyph-name="asterisksuperior" horiz-adv-x="319" 
d="M131 577l17 93l-78 -61l-28 47l95 33l-94 33l27 47l78 -62l-17 93h56l-17 -93l78 62l27 -48l-93 -32l93 -33l-28 -47l-76 60l16 -92h-56z" />
    <glyph glyph-name="jinferior" horiz-adv-x="174" 
d="M51 222v64h70v-64h-70zM118 165v-320c0 -71 0 -97 -117 -125l-20 46c74 23 74 29 74 75v324h63z" />
    <glyph glyph-name="asteriskinferior" horiz-adv-x="318" 
d="M131 42l17 93l-78 -61l-28 47l95 33l-94 33l27 47l78 -62l-17 93h56l-17 -93l78 62l27 -48l-93 -32l93 -33l-28 -47l-76 60l16 -92h-56z" />
    <glyph glyph-name="ampersandsuperior" horiz-adv-x="459" 
d="M441 385h-76l-47 45c-34 -31 -80 -52 -139 -52c-79 0 -141 43 -141 111c0 58 45 92 92 122c-30 29 -61 62 -61 106c0 63 59 95 117 95c63 0 111 -37 111 -92c0 -50 -41 -84 -85 -115l100 -96c18 31 30 65 33 97h64c-5 -37 -23 -91 -56 -137zM182 427c38 0 71 16 97 41
l-112 107c-36 -25 -66 -50 -66 -83c0 -26 21 -65 81 -65zM129 715c0 -29 24 -55 47 -76c34 22 61 45 61 78c0 24 -14 47 -52 47c-36 0 -56 -23 -56 -49z" />
    <glyph glyph-name="ampersandinferior" horiz-adv-x="460" 
d="M441 -150h-76l-47 45c-34 -30 -80 -52 -139 -52c-79 0 -141 43 -141 111c0 58 45 92 92 122c-30 29 -61 62 -61 106c0 63 59 95 117 95c63 0 111 -37 111 -92c0 -50 -41 -84 -85 -115l100 -95c18 30 30 64 33 96h64c-5 -37 -23 -90 -56 -136zM182 -108c38 0 71 17 97 41
l-112 107c-36 -25 -66 -50 -66 -83c0 -26 21 -65 81 -65zM129 180c0 -29 24 -55 47 -76c34 22 61 45 61 78c0 24 -14 47 -52 47c-36 0 -56 -23 -56 -49z" />
    <glyph glyph-name="ampersand.sc" horiz-adv-x="625" 
d="M602 0h-96l-68 65c-47 -44 -110 -74 -191 -74c-107 0 -193 57 -193 151c0 80 63 127 129 168c-42 41 -84 85 -84 145c0 87 81 128 157 128c82 0 148 -47 148 -123c0 -70 -57 -117 -118 -159l144 -138c28 44 44 95 50 140h78c-7 -52 -30 -126 -76 -189zM250 52
c56 0 103 24 139 60l-159 152c-52 -35 -96 -71 -96 -118c0 -38 29 -94 116 -94zM172 454c0 -43 37 -80 69 -110c49 32 89 64 89 112c0 34 -21 67 -76 67c-53 0 -82 -32 -82 -69z" />
    <glyph glyph-name="kinferior" horiz-adv-x="354" 
d="M321 165l-112 -126l131 -189h-67l-103 145l-52 -58v-87h-63v437h63v-277l131 155h72z" />
    <glyph glyph-name="ksuperior" horiz-adv-x="354" 
d="M321 700l-112 -126l131 -189h-67l-103 145l-52 -58v-87h-63v437h63v-277l131 155h72z" />
    <glyph glyph-name="ainferior" horiz-adv-x="381" 
d="M265 -150v41c-25 -23 -68 -48 -122 -48c-56 0 -111 32 -111 102c0 69 53 103 117 103c37 0 90 -12 116 -17v31c0 41 -16 61 -66 61c-36 0 -76 -12 -123 -26l-21 45c58 19 109 30 153 30c77 0 120 -31 120 -109v-213h-63zM161 -106c40 0 74 17 104 42v61
c-22 3 -63 12 -93 12c-55 0 -75 -27 -75 -60c0 -39 27 -55 64 -55z" />
    <glyph glyph-name="Zsuperior" horiz-adv-x="418" 
d="M36 436l253 313h-239v56h324v-51l-255 -314h258v-55h-341v51z" />
    <glyph glyph-name="Zinferior" horiz-adv-x="417" 
d="M36 -99l253 313h-239v56h324v-51l-255 -314h258v-55h-341v51z" />
    <glyph glyph-name="Zdotaccent.sc" horiz-adv-x="557" 
d="M43 66l359 439h-341v69h442v-66l-361 -440h366v-68h-465v66zM241 634v93h82v-93h-82z" />
    <glyph glyph-name="Zcaron.sc" horiz-adv-x="557" 
d="M503 508l-361 -440h366v-68h-465v66l359 439h-341v69h442v-66zM430 754l-100 -130h-96l-99 130h63l84 -86l85 86h63z" />
    <glyph glyph-name="Zacute.sc" horiz-adv-x="557" 
d="M43 66l359 439h-341v69h442v-66l-361 -440h366v-68h-465v66zM274 624h-70l122 130h114z" />
    <glyph glyph-name="Z.sc" horiz-adv-x="556" 
d="M43 64l357 440h-339v70h442v-63l-359 -442h364v-69h-465v64z" />
    <glyph glyph-name="linferior" horiz-adv-x="174" 
d="M118 -150h-63v437h63v-437z" />
    <glyph glyph-name="Ysuperior" horiz-adv-x="415" 
d="M174 385v166l-160 254h74l120 -204l118 204h75l-161 -254v-166h-66z" />
    <glyph glyph-name="lira.onum" horiz-adv-x="507" 
d="M74 269v46h61c-24 37 -52 73 -52 128c0 84 67 140 173 140c82 0 150 -35 197 -60l-38 -55c-54 27 -103 46 -149 46c-67 0 -102 -38 -102 -82s32 -77 56 -117h165v-46h-144c4 -13 6 -28 6 -43c0 -3 -1 -6 -1 -9h139v-46h-148c-18 -49 -54 -88 -70 -103h276v-68h-379v57
s70 45 96 114h-86v46h95v3c0 18 -4 34 -10 49h-85z" />
    <glyph glyph-name="lirainferior" horiz-adv-x="374" 
d="M53 47v35h44c-17 26 -36 52 -36 91c0 62 50 104 127 104c62 0 112 -27 146 -46l-30 -43c-38 20 -74 34 -107 34c-46 0 -70 -27 -70 -58s22 -53 39 -82h120v-35h-104c3 -10 5 -20 5 -32v-5h99v-34h-106c-12 -34 -37 -61 -49 -71h196v-55h-280v45s52 31 71 81h-65v34h71v1
c0 13 -3 25 -7 36h-64z" />
    <glyph glyph-name="lirasuperior" horiz-adv-x="375" 
d="M54 582v35h44c-17 26 -36 52 -36 91c0 62 50 104 127 104c62 0 112 -27 146 -46l-30 -43c-38 20 -74 34 -107 34c-46 0 -70 -27 -70 -58s22 -53 39 -82h120v-35h-104c3 -10 5 -20 5 -32v-5h99v-34h-106c-12 -35 -37 -62 -49 -71h196v-55h-280v45s52 31 71 81h-65v34h71v1
c0 13 -3 25 -7 36h-64z" />
    <glyph glyph-name="Yinferior" horiz-adv-x="413" 
d="M173 -150v166l-160 254h74l120 -204l118 204h75l-161 -254v-166h-66z" />
    <glyph glyph-name="Ygrave.sc" horiz-adv-x="575" 
d="M248 0v226l-223 348h92l171 -286l172 286h91l-222 -346v-228h-81zM371 624h-70l-165 130h112z" />
    <glyph glyph-name="Ydieresis.sc" horiz-adv-x="575" 
d="M248 0v226l-223 348h92l171 -286l172 286h91l-222 -346v-228h-81zM331 634v93h83v-93h-83zM163 634v93h83v-93h-83z" />
    <glyph glyph-name="Yacute.sc" horiz-adv-x="575" 
d="M248 0v226l-223 348h92l171 -286l172 286h91l-222 -346v-228h-81zM280 624h-69l122 130h114z" />
    <glyph glyph-name="Y.sc" horiz-adv-x="575" 
d="M248 0v226l-223 348h92l171 -286l172 286h91l-222 -346v-228h-81z" />
    <glyph glyph-name="Xsuperior" horiz-adv-x="420" 
d="M28 805h76l105 -173l106 173h76l-143 -211l151 -209h-80l-110 167l-110 -167h-79l151 209z" />
    <glyph glyph-name="Xinferior" horiz-adv-x="420" 
d="M28 270h76l105 -173l106 173h76l-143 -211l151 -209h-80l-110 167l-110 -167h-79l151 209z" />
    <glyph glyph-name="minferior" horiz-adv-x="598" 
d="M118 165v-45c24 21 71 52 120 52c56 0 78 -30 87 -58c22 21 72 58 127 58c69 0 92 -43 92 -99v-223h-63v211c0 33 -10 60 -51 60c-37 0 -77 -29 -99 -50v-221h-64v211c0 33 -9 60 -50 60c-38 0 -77 -28 -99 -50v-221h-63v315h63z" />
    <glyph glyph-name="X.sc" horiz-adv-x="560" 
d="M35 574h93l152 -241l151 241h95l-200 -288l211 -286h-98l-159 235l-159 -235h-97l209 287z" />
    <glyph glyph-name="Wsuperior" horiz-adv-x="609" 
d="M395 385l-90 332l-91 -332h-68l-123 420h75l86 -340l92 340h58l92 -342l86 342h74l-122 -420h-69z" />
    <glyph glyph-name="Winferior" horiz-adv-x="608" 
d="M395 -150l-90 332l-91 -332h-68l-123 420h75l86 -340l92 340h58l92 -341l86 341h74l-122 -420h-69z" />
    <glyph glyph-name="Wgrave.sc" horiz-adv-x="841" 
d="M550 0l-131 468l-129 -468h-86l-168 574h90l126 -481l132 481h71l131 -481l127 481h90l-168 -574h-85zM498 624h-69l-166 130h112z" />
    <glyph glyph-name="Wdieresis.sc" horiz-adv-x="841" 
d="M550 0l-131 468l-129 -468h-86l-168 574h90l126 -481l132 481h71l131 -481l127 481h90l-168 -574h-85zM299 634v93h83v-93h-83zM463 634v93h81v-93h-81z" />
    <glyph glyph-name="Wcircumflex.sc" horiz-adv-x="841" 
d="M550 0l-131 468l-129 -468h-86l-168 574h90l126 -481l132 481h71l131 -481l127 481h90l-168 -574h-85zM468 754l100 -130h-63l-85 85l-85 -85h-63l99 130h97z" />
    <glyph glyph-name="Wacute.sc" horiz-adv-x="841" 
d="M550 0l-131 468l-129 -468h-86l-168 574h90l126 -481l132 481h71l131 -481l127 481h90l-168 -574h-85zM410 624h-69l123 130h113z" />
    <glyph glyph-name="W.sc" horiz-adv-x="841" 
d="M550 0l-131 468l-129 -468h-86l-168 574h90l126 -481l132 481h71l131 -481l127 481h90l-168 -574h-85z" />
    <glyph glyph-name="Vsuperior" horiz-adv-x="448" 
d="M93 805l130 -357l130 357h76l-169 -420h-73l-169 420h75z" />
    <glyph glyph-name="Vinferior" horiz-adv-x="446" 
d="M93 270l130 -357l130 357h76l-169 -420h-73l-169 420h75z" />
    <glyph glyph-name="nine.dnom" horiz-adv-x="411" 
d="M126 47c81 0 148 52 167 146c-17 -16 -55 -42 -114 -42c-89 0 -141 59 -141 132c0 77 59 144 158 144c115 0 169 -86 169 -187c0 -140 -96 -247 -238 -247c-35 0 -61 7 -61 7l17 52s18 -5 43 -5zM194 201c53 0 91 30 104 53c-2 76 -42 119 -101 119
c-64 0 -94 -46 -94 -88c0 -41 28 -84 91 -84z" />
    <glyph glyph-name="nine.numr" horiz-adv-x="411" 
d="M126 327c81 0 148 52 167 146c-17 -16 -55 -42 -114 -42c-89 0 -141 59 -141 132c0 77 59 144 158 144c115 0 169 -86 169 -187c0 -140 -96 -247 -238 -247c-35 0 -61 7 -61 7l17 52s18 -5 43 -5zM194 481c53 0 91 30 104 53c-2 76 -42 119 -101 119
c-64 0 -94 -46 -94 -88c0 -41 28 -84 91 -84z" />
    <glyph glyph-name="nine.onum" 
d="M184 -69c116 0 242 78 273 269c-26 -29 -88 -78 -187 -78c-143 0 -223 101 -223 222c0 126 91 237 244 237c180 0 260 -148 260 -292c2 -282 -176 -430 -366 -430c-53 0 -93 11 -93 11l21 69s32 -8 71 -8zM287 191c92 0 157 58 177 99v5c0 115 -58 213 -171 213
c-108 0 -160 -83 -160 -163c0 -75 46 -154 154 -154z" />
    <glyph glyph-name="nine.tnum" horiz-adv-x="630" 
d="M193 62c116 0 241 77 272 268c-26 -30 -88 -78 -185 -78c-143 0 -224 101 -224 222c0 127 92 237 245 237c179 0 259 -148 260 -292c1 -282 -176 -430 -366 -430c-53 0 -93 11 -93 11l21 70s31 -8 70 -8zM296 321c91 0 156 57 177 98v6c0 115 -58 213 -171 213
c-108 0 -160 -83 -160 -163c0 -74 46 -154 154 -154z" />
    <glyph glyph-name="V.sc" horiz-adv-x="619" 
d="M123 574l186 -494l188 494h92l-235 -574h-89l-235 574h93z" />
    <glyph glyph-name="Utilde.sc" horiz-adv-x="627" 
d="M201 634l-45 20c25 47 47 84 93 84c50 0 94 -49 126 -49c15 0 28 6 50 46l46 -19c-24 -48 -47 -85 -93 -85c-51 0 -95 49 -127 49c-15 0 -27 -6 -50 -46zM545 574v-360c0 -125 -52 -223 -231 -223c-181 0 -232 98 -232 223v360h81v-364c0 -82 27 -149 151 -149
c122 0 150 67 150 149v364h81z" />
    <glyph glyph-name="ninferior" horiz-adv-x="401" 
d="M118 165v-43c26 19 78 50 135 50c72 0 94 -43 94 -99v-223h-63v211c0 34 -11 60 -53 60s-91 -28 -113 -47v-224h-63v315h63z" />
    <glyph glyph-name="Usuperior" horiz-adv-x="464" 
d="M402 805v-261c0 -92 -37 -166 -170 -166c-135 0 -171 74 -171 166v261h66v-265c0 -59 18 -105 105 -105c85 0 104 46 104 105v265h66z" />
    <glyph glyph-name="Uring.sc" horiz-adv-x="627" 
d="M209 717c0 58 46 105 104 105c57 0 104 -47 104 -105c0 -57 -47 -103 -104 -103c-58 0 -104 46 -104 103zM257 717c0 -31 24 -56 56 -56c31 0 56 25 56 56c0 32 -25 57 -56 57c-32 0 -56 -25 -56 -57zM545 574v-360c0 -125 -52 -223 -231 -223c-181 0 -232 98 -232 223
v360h81v-364c0 -82 27 -149 151 -149c122 0 150 67 150 149v364h81z" />
    <glyph glyph-name="Uogonek.sc" horiz-adv-x="627" 
d="M298 -96c0 -42 53 -37 80 -37l-10 -50c-35 0 -134 -2 -134 78c0 38 35 71 82 96h-2c-181 0 -232 98 -232 223v360h81v-364c0 -82 26 -149 151 -149c121 0 149 67 149 149v364h81v-360c0 -103 -35 -188 -148 -214c-38 -22 -98 -54 -98 -96z" />
    <glyph glyph-name="Umacron.sc" horiz-adv-x="627" 
d="M545 574v-360c0 -125 -52 -223 -231 -223c-181 0 -232 98 -232 223v360h81v-364c0 -82 27 -149 151 -149c122 0 150 67 150 149v364h81zM167 649v55h293v-55h-293z" />
    <glyph glyph-name="numbersign.onum" horiz-adv-x="671" 
d="M370 0l23 143h-164l-23 -143h-64l23 143h-114v62h125l27 163h-114v62h124l24 144h64l-24 -144h164l24 144h63l-24 -144h116v-62h-126l-27 -163h116v-62h-127l-23 -143h-63zM267 368l-27 -163h164l27 163h-164z" />
    <glyph glyph-name="numbersigninferior" horiz-adv-x="487" 
d="M266 -150l17 103h-114l-16 -103h-51l16 103h-81v48h89l19 117h-81v49h89l17 103h51l-17 -103h114l17 103h50l-17 -103h82v-49h-90l-19 -117h82v-48h-90l-17 -103h-50zM196 118l-19 -117h114l19 117h-114z" />
    <glyph glyph-name="numbersignsuperior" horiz-adv-x="488" 
d="M266 385l17 103h-114l-16 -103h-51l16 103h-81v48h89l19 117h-81v49h89l17 103h51l-17 -103h114l17 103h50l-17 -103h82v-49h-90l-19 -117h82v-48h-90l-17 -103h-50zM196 653l-19 -117h114l19 117h-114z" />
    <glyph glyph-name="Uinferior" horiz-adv-x="464" 
d="M402 270v-261c0 -92 -37 -166 -170 -166c-135 0 -171 74 -171 166v261h66v-265c0 -59 18 -105 105 -105c85 0 104 46 104 105v265h66z" />
    <glyph glyph-name="Uhungarumlaut.sc" horiz-adv-x="627" 
d="M545 574v-360c0 -125 -52 -223 -231 -223c-181 0 -232 98 -232 223v360h81v-364c0 -82 27 -149 151 -149c122 0 150 67 150 149v364h81zM397 624h-53l78 130h96zM245 624h-53l79 130h95z" />
    <glyph glyph-name="Ugrave.sc" horiz-adv-x="627" 
d="M545 574v-360c0 -125 -52 -223 -231 -223c-181 0 -232 98 -232 223v360h81v-364c0 -82 27 -149 151 -149c122 0 150 67 150 149v364h81zM392 624h-69l-167 130h113z" />
    <glyph glyph-name="Udieresis.sc" horiz-adv-x="627" 
d="M545 574v-360c0 -125 -52 -223 -231 -223c-181 0 -232 98 -232 223v360h81v-364c0 -82 27 -149 151 -149c122 0 150 67 150 149v364h81zM188 634v93h82v-93h-82zM357 634v93h81v-93h-81z" />
    <glyph glyph-name="Ucircumflex.sc" horiz-adv-x="627" 
d="M545 574v-360c0 -125 -52 -223 -231 -223c-181 0 -232 98 -232 223v360h81v-364c0 -82 27 -149 151 -149c122 0 150 67 150 149v364h81zM361 754l100 -130h-62l-86 85l-85 -85h-62l99 130h96z" />
    <glyph glyph-name="Ubreve.sc" horiz-adv-x="627" 
d="M312 624c-89 0 -142 41 -142 107h60c0 -38 32 -53 82 -53c52 0 85 15 85 53h59c0 -66 -53 -107 -144 -107zM545 574v-360c0 -125 -52 -223 -231 -223c-181 0 -232 98 -232 223v360h81v-364c0 -82 27 -149 151 -149c122 0 150 67 150 149v364h81z" />
    <glyph glyph-name="Uacute.sc" horiz-adv-x="627" 
d="M545 574v-360c0 -125 -52 -223 -231 -223c-181 0 -232 98 -232 223v360h81v-364c0 -82 27 -149 151 -149c122 0 150 67 150 149v364h81zM304 624h-69l123 130h113z" />
    <glyph glyph-name="U.sc" horiz-adv-x="627" 
d="M545 574v-360c0 -125 -52 -223 -231 -223c-181 0 -232 98 -232 223v360h81v-364c0 -82 27 -149 151 -149c122 0 150 67 150 149v364h81z" />
    <glyph glyph-name="Tsuperior" horiz-adv-x="389" 
d="M364 749h-137v-364h-66v364h-136v56h339v-56z" />
    <glyph glyph-name="oinferior" horiz-adv-x="395" 
d="M357 7c0 -102 -57 -164 -160 -164c-104 0 -160 62 -160 164c0 103 56 165 160 165c103 0 160 -62 160 -165zM293 7c0 70 -29 115 -96 115c-68 0 -96 -45 -96 -115c0 -69 28 -114 96 -114c67 0 96 44 96 114z" />
    <glyph glyph-name="Tinferior" horiz-adv-x="389" 
d="M364 214h-137v-364h-66v364h-136v56h339v-56z" />
    <glyph glyph-name="Thorn.sc" horiz-adv-x="587" 
d="M538 297c0 -130 -94 -178 -228 -178h-141v-119h-81v574h81v-101h141c134 0 228 -47 228 -176zM455 297c0 83 -63 108 -152 108h-134v-218h134c89 0 152 28 152 110z" />
    <glyph glyph-name="one.dnom" horiz-adv-x="259" 
d="M192 0h-66v357l-77 -39l-28 44l110 58h61v-420z" />
    <glyph glyph-name="one.numr" horiz-adv-x="259" 
d="M192 280h-66v357l-77 -39l-28 44l110 58h61v-420z" />
    <glyph glyph-name="one.onum" horiz-adv-x="366" 
d="M275 0h-87v487l-125 -65l-36 59l169 93h79v-574z" />
    <glyph glyph-name="one.tnum" horiz-adv-x="630" 
d="M81 0v74h205v539l-168 -88l-37 60l213 115h78v-626h205v-74h-496z" />
    <glyph glyph-name="Tcedilla.sc" horiz-adv-x="517" 
d="M140 -154l20 50c22 -10 34 -14 51 -14c32 0 56 13 56 46c0 34 -25 67 -29 72h-20v504h-191v70h462v-70h-189v-504h-19c3 -4 39 -43 39 -90c0 -53 -42 -83 -101 -83c-27 0 -54 6 -79 19z" />
    <glyph glyph-name="oneeighth.onum" horiz-adv-x="742" 
d="M400 90c0 52 47 80 91 97c-35 15 -68 39 -68 79c0 51 50 84 124 84s122 -34 122 -84c0 -42 -34 -65 -67 -80c44 -17 91 -45 91 -96c0 -60 -61 -96 -146 -96s-147 36 -147 96zM496 574l-290 -574h-60l290 574h60zM181 230h-56v292l-67 -32l-23 36l95 48h51v-344zM637 93
c0 39 -48 59 -90 74c-45 -16 -90 -37 -90 -74c0 -35 40 -56 90 -56s90 21 90 56zM478 260c0 -32 38 -47 68 -56c28 9 69 24 69 56c0 26 -28 49 -68 49c-41 0 -69 -24 -69 -49z" />
    <glyph glyph-name="onefifth" horiz-adv-x="840" 
d="M490 211l24 209h251v-55h-197l-9 -110c20 8 44 14 73 14c97 0 152 -63 152 -135s-53 -141 -161 -141c-69 0 -124 30 -151 46l30 49c14 -11 63 -38 113 -38c54 0 100 32 100 83c0 45 -33 83 -97 83c-39 0 -72 -15 -91 -25zM565 700l-333 -700h-70l333 700h70zM204 280h-66
v357l-78 -39l-28 44l111 58h61v-420z" />
    <glyph glyph-name="onefifth.onum" horiz-adv-x="740" 
d="M431 173l20 171h217v-45h-172l-9 -90c18 7 39 12 66 12c83 0 131 -52 131 -111c0 -60 -46 -116 -139 -116c-60 0 -107 25 -130 38l25 40c12 -8 54 -31 97 -31c49 0 90 26 90 69c0 36 -30 67 -86 67c-34 0 -64 -12 -81 -21zM496 574l-290 -574h-60l290 574h60zM181 230
h-56v292l-67 -32l-23 36l95 48h51v-344z" />
    <glyph glyph-name="Tcaron.sc" horiz-adv-x="517" 
d="M489 504h-189v-504h-82v504h-191v70h462v-70zM406 754l-100 -130h-96l-100 130h63l84 -86l86 86h63z" />
    <glyph glyph-name="onehalf.onum" horiz-adv-x="742" 
d="M181 230h-56v292l-67 -32l-23 36l95 48h51v-344zM496 574l-290 -574h-60l290 574h60zM685 46v-46h-265v30c0 71 60 106 121 142c47 29 87 51 87 86c0 26 -25 47 -70 47c-42 0 -84 -20 -102 -32l-26 36c26 16 73 41 134 41c75 0 121 -38 121 -91c0 -66 -69 -100 -130 -135
c-43 -24 -71 -43 -71 -78h201z" />
    <glyph glyph-name="Tbar.sc" horiz-adv-x="526" 
d="M128 185v51h94v268h-190v70h462v-70h-190v-268h93v-51h-93v-185h-82v185h-94z" />
    <glyph glyph-name="T.sc" horiz-adv-x="517" 
d="M489 504h-189v-504h-82v504h-191v70h462v-70z" />
    <glyph glyph-name="onequarter.onum" horiz-adv-x="720" 
d="M561 0v73h-199v39l182 232h73v-226h59v-45h-59v-73h-56zM496 574l-290 -574h-60l290 574h60zM181 230h-56v292l-67 -32l-23 36l95 48h51v-344zM422 118h139v181z" />
    <glyph glyph-name="onesixth" horiz-adv-x="818" 
d="M677 373c-82 0 -149 -52 -167 -147c16 16 54 43 114 43c89 0 142 -59 142 -133c0 -76 -59 -143 -159 -143c-116 0 -169 86 -169 187c0 139 97 247 238 247c35 0 61 -7 61 -7l-15 -52s-20 5 -45 5zM565 700l-333 -700h-70l333 700h70zM204 280h-66v357l-78 -39l-28 44
l111 58h61v-420zM609 218c-54 0 -91 -30 -104 -52c2 -77 41 -119 101 -119c64 0 94 45 94 88c0 41 -29 83 -91 83z" />
    <glyph glyph-name="onesixth.onum" horiz-adv-x="721" 
d="M591 306c-72 0 -131 -43 -146 -122c13 13 46 36 100 36c78 0 123 -48 123 -108c0 -63 -50 -118 -137 -118c-100 0 -145 71 -145 153c0 115 83 203 204 203c32 0 54 -6 54 -6l-13 -42s-18 4 -40 4zM496 574l-290 -574h-60l290 574h60zM181 230h-56v292l-67 -32l-23 36
l95 48h51v-344zM533 179c-47 0 -81 -26 -92 -44c2 -61 37 -96 89 -96c56 0 83 37 83 72c0 33 -25 68 -80 68z" />
    <glyph glyph-name="Ssuperior" horiz-adv-x="414" 
d="M242 623c59 -19 135 -48 135 -126c0 -76 -68 -119 -152 -119c-71 0 -143 29 -186 53l32 48c38 -21 103 -46 152 -46c45 0 86 19 86 60c0 47 -64 61 -136 85c-58 18 -124 46 -124 118s61 116 146 116c58 0 124 -20 165 -41l-29 -48c-38 17 -94 34 -133 34
c-41 0 -81 -17 -81 -57c0 -45 56 -54 125 -77z" />
    <glyph glyph-name="Sinferior" horiz-adv-x="414" 
d="M241 88c59 -19 135 -48 135 -126c0 -76 -68 -119 -152 -119c-71 0 -143 29 -186 53l32 48c38 -21 103 -46 152 -46c45 0 86 19 86 60c0 47 -64 61 -136 85c-58 18 -124 46 -124 118s61 116 146 116c58 0 124 -20 165 -41l-29 -48c-38 17 -94 34 -133 34
c-41 0 -81 -17 -81 -57c0 -45 56 -54 125 -77z" />
    <glyph glyph-name="onethird.onum" horiz-adv-x="735" 
d="M181 230h-56v292l-67 -32l-23 36l95 48h51v-344zM496 574l-290 -574h-60l290 574h60zM407 32l25 38c25 -14 69 -30 111 -30c48 0 85 22 85 59c0 50 -68 64 -118 64h-17v46h21c45 0 97 15 97 53c0 26 -25 43 -66 43c-40 0 -76 -18 -97 -29l-23 34c12 9 61 40 128 40
c76 0 114 -39 114 -82c0 -32 -21 -62 -72 -78c51 -12 89 -46 89 -92c0 -52 -41 -104 -135 -104c-66 0 -121 27 -142 38z" />
    <glyph glyph-name="Scommaaccent.sc" horiz-adv-x="548" 
d="M240 -160v97h80l10 -101l-71 -108l-25 26l44 86h-38zM313 325c84 -27 190 -66 190 -175c0 -103 -96 -159 -209 -159c-93 0 -191 39 -248 71l38 60c53 -30 141 -63 211 -63c62 0 125 27 125 87c0 67 -88 89 -187 121c-83 27 -173 61 -173 161c0 97 85 155 197 155
c77 0 166 -27 224 -55l-39 -60c-53 25 -128 46 -184 46c-59 0 -114 -24 -114 -82c0 -65 79 -77 169 -107z" />
    <glyph glyph-name="Scircumflex.sc" horiz-adv-x="548" 
d="M323 754l99 -130h-62l-86 85l-84 -85h-63l100 130h96zM313 325c84 -27 190 -66 190 -175c0 -103 -96 -159 -209 -159c-93 0 -191 39 -248 71l38 60c53 -30 141 -63 211 -63c62 0 125 27 125 87c0 67 -88 89 -187 121c-83 27 -173 61 -173 161c0 97 85 155 197 155
c77 0 166 -27 224 -55l-39 -60c-53 25 -128 46 -184 46c-59 0 -114 -24 -114 -82c0 -65 79 -77 169 -107z" />
    <glyph glyph-name="Scedilla.sc" horiz-adv-x="549" 
d="M313 325c84 -27 190 -66 190 -175c0 -96 -83 -150 -185 -158c12 -14 33 -45 33 -82c0 -53 -43 -83 -101 -83c-27 0 -55 6 -79 19l20 50c21 -10 34 -14 52 -14c32 0 55 13 55 46c0 26 -14 51 -23 64c-87 4 -176 40 -229 70l38 60c53 -30 141 -63 211 -63
c62 0 125 27 125 87c0 67 -88 89 -187 121c-83 27 -173 61 -173 161c0 97 85 155 197 155c77 0 166 -27 224 -55l-39 -60c-53 25 -128 46 -184 46c-59 0 -114 -24 -114 -82c0 -65 79 -77 169 -107z" />
    <glyph glyph-name="Scaron.sc" horiz-adv-x="548" 
d="M422 754l-99 -130h-97l-99 130h63l84 -86l86 86h62zM313 325c84 -27 190 -66 190 -175c0 -103 -96 -159 -209 -159c-93 0 -191 39 -248 71l38 60c53 -30 141 -63 211 -63c62 0 125 27 125 87c0 67 -88 89 -187 121c-83 27 -173 61 -173 161c0 97 85 155 197 155
c77 0 166 -27 224 -55l-39 -60c-53 25 -128 46 -184 46c-59 0 -114 -24 -114 -82c0 -65 79 -77 169 -107z" />
    <glyph glyph-name="Sacute.sc" horiz-adv-x="548" 
d="M266 624h-69l122 130h113zM313 325c84 -27 190 -66 190 -175c0 -103 -96 -159 -209 -159c-93 0 -191 39 -248 71l38 60c53 -30 141 -63 211 -63c62 0 125 27 125 87c0 67 -88 89 -187 121c-83 27 -173 61 -173 161c0 97 85 155 197 155c77 0 166 -27 224 -55l-39 -60
c-53 25 -128 46 -184 46c-59 0 -114 -24 -114 -82c0 -65 79 -77 169 -107z" />
    <glyph glyph-name="S.sc" horiz-adv-x="548" 
d="M313 325c84 -27 190 -66 190 -175c0 -103 -96 -159 -209 -159c-93 0 -191 39 -248 71l38 60c53 -30 141 -63 211 -63c62 0 125 27 125 87c0 67 -88 89 -187 121c-83 27 -173 61 -173 161c0 97 85 155 197 155c77 0 166 -27 224 -55l-39 -60c-53 25 -128 46 -184 46
c-59 0 -114 -24 -114 -82c0 -65 79 -77 169 -107z" />
    <glyph glyph-name="Rsuperior" horiz-adv-x="456" 
d="M341 385l-113 173h-96v-173h-66v420h178c101 0 168 -35 168 -124c0 -73 -45 -109 -116 -120l117 -176h-72zM345 681c0 54 -44 72 -102 72h-111v-143h109c60 0 104 18 104 71z" />
    <glyph glyph-name="Rinferior" horiz-adv-x="456" 
d="M341 -150l-113 173h-96v-173h-66v420h178c101 0 168 -35 168 -124c0 -73 -45 -109 -116 -120l117 -176h-72zM345 146c0 54 -44 72 -102 72h-111v-143h109c60 0 104 18 104 71z" />
    <glyph glyph-name="paragraph.sc" horiz-adv-x="580" 
d="M258 574h68v-726h-70v365c-127 0 -218 59 -218 180c0 122 79 181 220 181zM420 -153v727h70v-727h-70z" />
    <glyph glyph-name="Rcommaaccent.sc" horiz-adv-x="612" 
d="M470 0l-157 240h-144v-240h-81v574h240c136 0 230 -46 230 -168c0 -101 -66 -149 -163 -162l164 -244h-89zM474 406c0 76 -62 102 -145 102h-160v-203h156c87 0 149 26 149 101zM262 -160v97h80l9 -101l-71 -108l-24 26l43 86h-37z" />
    <glyph glyph-name="parenleft.sc" horiz-adv-x="306" 
d="M86 43v484c0 90 3 124 155 161l23 -49c-96 -30 -97 -41 -97 -102v-504c0 -60 1 -71 97 -101l-23 -49c-152 36 -155 70 -155 160z" />
    <glyph glyph-name="Rcaron.sc" horiz-adv-x="612" 
d="M470 0l-157 240h-144v-240h-81v574h240c136 0 230 -46 230 -168c0 -101 -66 -149 -163 -162l164 -244h-89zM474 406c0 76 -62 102 -145 102h-160v-203h156c87 0 149 26 149 101zM471 754l-100 -130h-97l-98 130h63l84 -86l85 86h63z" />
    <glyph glyph-name="Racute.sc" horiz-adv-x="612" 
d="M470 0l-157 240h-144v-240h-81v574h240c136 0 230 -46 230 -168c0 -101 -66 -149 -163 -162l164 -244h-89zM474 406c0 76 -62 102 -145 102h-160v-203h156c87 0 149 26 149 101zM315 624h-71l123 130h113z" />
    <glyph glyph-name="R.sc" horiz-adv-x="612" 
d="M470 0l-157 240h-144v-240h-81v574h240c136 0 230 -46 230 -168c0 -101 -66 -149 -163 -162l164 -244h-89zM474 406c0 76 -62 102 -145 102h-160v-203h156c87 0 149 26 149 101z" />
    <glyph glyph-name="parenright.sc" horiz-adv-x="305" 
d="M220 527v-484c0 -90 -2 -124 -154 -160l-24 49c97 30 97 41 97 101v504c0 61 0 72 -97 102l24 49c152 -37 154 -71 154 -161z" />
    <glyph glyph-name="f_b.ss01" horiz-adv-x="954" 
d="M33 461v64h74v72c0 100 60 132 138 132c60 0 141 -17 188 -29v29h82v-272c42 37 102 79 185 79c111 0 201 -80 201 -274c0 -193 -90 -273 -201 -273c-83 0 -143 40 -185 78v-67h-82v631c-34 6 -136 26 -180 26c-34 0 -65 -14 -65 -56v-76h142v-64h-142v-461h-81v461h-74z
M685 467c-66 0 -128 -38 -170 -84v-242c42 -46 103 -83 170 -83c86 0 131 77 131 204c0 128 -45 205 -131 205z" />
    <glyph glyph-name="Qinferior" horiz-adv-x="490" 
d="M244 -157c-144 0 -198 98 -198 217c0 120 54 217 198 217s199 -97 199 -217c0 -96 -36 -178 -126 -206l71 -55l-44 -45zM244 -100c98 0 132 70 132 160s-34 160 -132 160s-131 -70 -131 -160s33 -160 131 -160z" />
    <glyph glyph-name="Q.sc" horiz-adv-x="658" 
d="M329 -9c-196 1 -270 134 -270 296c0 164 74 296 271 296c195 0 270 -132 270 -296c0 -134 -52 -249 -179 -285l100 -75l-56 -56zM330 61c140 0 186 100 186 226s-46 225 -186 225s-187 -99 -187 -225s47 -226 187 -226z" />
    <glyph glyph-name="Psuperior" horiz-adv-x="432" 
d="M398 674c0 -94 -66 -131 -167 -131h-99v-158h-66v420h165c101 0 167 -38 167 -131zM331 674c0 58 -44 76 -102 76h-97v-153h97c58 0 102 18 102 77z" />
    <glyph glyph-name="percent.onum" horiz-adv-x="882" 
d="M836 144c0 -100 -64 -153 -158 -153c-95 0 -159 53 -159 153s64 154 159 154c94 0 158 -54 158 -154zM772 144c0 66 -36 103 -94 103c-60 0 -95 -37 -95 -103c0 -65 35 -101 95 -101c58 0 94 36 94 101zM634 574l-319 -574h-66l318 574h67zM363 429
c0 -100 -64 -153 -158 -153c-96 0 -159 53 -159 153s63 154 159 154c94 0 158 -54 158 -154zM299 429c0 65 -36 102 -94 102c-59 0 -95 -37 -95 -102c0 -66 36 -101 95 -101c58 0 94 35 94 101z" />
    <glyph glyph-name="percentinferior" horiz-adv-x="640" 
d="M265 164c0 -73 -46 -112 -117 -112c-72 0 -116 39 -116 112s44 113 116 113c71 0 117 -40 117 -113zM214 164c0 46 -24 72 -66 72c-41 0 -64 -26 -64 -72c0 -47 23 -72 64 -72c42 0 66 25 66 72zM463 270l-235 -427h-53l234 427h54zM608 -44c0 -74 -45 -113 -115 -113
c-72 0 -117 39 -117 113c0 73 45 112 117 112c70 0 115 -39 115 -112zM558 -44c0 46 -24 71 -65 71c-42 0 -66 -25 -66 -71c0 -47 24 -72 66 -72c41 0 65 25 65 72z" />
    <glyph glyph-name="percentsuperior" horiz-adv-x="640" 
d="M265 699c0 -73 -46 -112 -117 -112c-72 0 -116 39 -116 112s44 113 116 113c71 0 117 -40 117 -113zM214 699c0 46 -24 72 -66 72c-41 0 -64 -26 -64 -72c0 -47 23 -72 64 -72c42 0 66 25 66 72zM463 805l-235 -427h-53l234 427h54zM608 491c0 -74 -45 -113 -115 -113
c-72 0 -117 39 -117 113c0 73 45 112 117 112c70 0 115 -39 115 -112zM558 491c0 46 -24 71 -65 71c-42 0 -66 -25 -66 -71c0 -47 24 -72 66 -72c41 0 65 25 65 72z" />
    <glyph glyph-name="Pinferior" horiz-adv-x="432" 
d="M398 139c0 -94 -66 -131 -167 -131h-99v-158h-66v420h165c101 0 167 -38 167 -131zM331 139c0 58 -44 76 -102 76h-97v-153h97c58 0 102 18 102 77z" />
    <glyph glyph-name="P.sc" horiz-adv-x="578" 
d="M538 396c0 -129 -94 -177 -228 -177h-141v-219h-81v574h222c134 0 228 -49 228 -178zM455 396c0 83 -63 109 -145 109h-141v-218h141c82 0 145 27 145 109z" />
    <glyph glyph-name="Otilde.sc" horiz-adv-x="657" 
d="M329 583c195 0 270 -132 270 -296c0 -162 -75 -296 -270 -296c-197 0 -271 134 -271 296c0 164 74 296 271 296zM329 61c140 0 186 100 186 226s-46 225 -186 225s-187 -99 -187 -225s47 -226 187 -226zM216 634l-46 20c25 47 47 84 93 84c51 0 95 -49 127 -49
c15 0 27 6 50 46l45 -19c-24 -48 -47 -85 -93 -85c-50 0 -94 49 -126 49c-15 0 -28 -6 -50 -46z" />
    <glyph glyph-name="Osuperior" horiz-adv-x="490" 
d="M244 812c144 0 199 -97 199 -217c0 -119 -55 -217 -199 -217s-198 98 -198 217c0 120 54 217 198 217zM244 435c99 0 132 70 132 160s-33 160 -132 160c-98 0 -131 -70 -131 -160s33 -160 131 -160z" />
    <glyph glyph-name="Oslashacute.sc" horiz-adv-x="655" 
d="M587 574l-57 -71c47 -54 67 -131 67 -216c0 -162 -74 -296 -270 -296c-71 0 -125 17 -166 46l-30 -37h-64l57 71c-47 54 -67 131 -67 216c0 164 73 296 270 296c71 0 126 -17 167 -47l30 38h63zM140 287c0 -59 10 -112 35 -152l270 340c-28 23 -67 37 -118 37
c-140 0 -187 -99 -187 -225zM327 61c140 0 186 100 186 226c0 58 -10 111 -35 150l-270 -340c29 -23 68 -36 119 -36zM318 624h-69l122 130h113z" />
    <glyph glyph-name="perthousand.onum" horiz-adv-x="1254" 
d="M363 429c0 -100 -64 -153 -158 -153c-96 0 -159 53 -159 153s63 154 159 154c94 0 158 -54 158 -154zM299 429c0 65 -36 102 -94 102c-59 0 -95 -37 -95 -102c0 -66 36 -101 95 -101c58 0 94 35 94 101zM836 144c0 -100 -64 -153 -158 -153c-95 0 -159 53 -159 153
s64 154 159 154c94 0 158 -54 158 -154zM772 144c0 66 -36 103 -94 103c-60 0 -95 -37 -95 -103c0 -65 35 -101 95 -101c58 0 94 36 94 101zM1208 144c0 -100 -63 -153 -159 -153s-159 53 -159 153s63 154 159 154s159 -54 159 -154zM1143 144c0 66 -34 103 -94 103
c-59 0 -94 -37 -94 -103c0 -65 35 -101 94 -101c60 0 94 36 94 101zM634 574l-319 -574h-66l318 574h67z" />
    <glyph glyph-name="Omacron.sc" horiz-adv-x="658" 
d="M330 583c195 0 270 -132 270 -296c0 -162 -75 -296 -270 -296c-197 0 -271 134 -271 296c0 164 74 296 271 296zM330 61c140 0 186 100 186 226s-46 225 -186 225s-187 -99 -187 -225s47 -226 187 -226zM183 649v55h292v-55h-292z" />
    <glyph glyph-name="peseta.onum" horiz-adv-x="608" 
d="M68 378v35h26v161h221c129 0 221 -45 229 -161h24v-35h-24c-8 -116 -101 -159 -229 -159h-140v-219h-81v378h-26zM175 505v-92h286c-9 69 -69 92 -145 92h-141zM316 287c75 0 136 23 145 91h-286v-91h141z" />
    <glyph glyph-name="pesetainferior" horiz-adv-x="444" 
d="M48 123v30h19v117h164c96 0 162 -34 168 -117h18v-30h-18c-7 -82 -73 -115 -168 -115h-98v-158h-66v273h-19zM133 215v-62h199c-7 47 -49 62 -101 62h-98zM231 62c51 0 93 15 101 61h-199v-61h98z" />
    <glyph glyph-name="pesetasuperior" horiz-adv-x="444" 
d="M48 658v30h19v117h164c96 0 162 -34 168 -117h18v-30h-18c-7 -82 -73 -115 -168 -115h-98v-158h-66v273h-19zM133 750v-62h199c-7 47 -49 62 -101 62h-98zM231 597c51 0 93 15 101 61h-199v-61h98z" />
    <glyph glyph-name="Oinferior" horiz-adv-x="490" 
d="M244 277c144 0 199 -97 199 -217c0 -119 -55 -217 -199 -217s-198 98 -198 217c0 120 54 217 198 217zM244 -100c99 0 132 70 132 160s-33 160 -132 160c-98 0 -131 -70 -131 -160s33 -160 131 -160z" />
    <glyph glyph-name="pinferior" horiz-adv-x="399" 
d="M118 165v-40c27 23 63 47 115 47c72 0 127 -51 127 -165c0 -113 -55 -164 -127 -164c-52 0 -88 24 -115 46v-161h-63v437h63zM219 120c-39 0 -75 -20 -101 -47v-131c26 -27 62 -48 101 -48c51 0 77 42 77 113c0 72 -26 113 -77 113z" />
    <glyph glyph-name="Ohungarumlaut.sc" horiz-adv-x="658" 
d="M330 583c195 0 270 -132 270 -296c0 -162 -75 -296 -270 -296c-197 0 -271 134 -271 296c0 164 74 296 271 296zM330 61c140 0 186 100 186 226s-46 225 -186 225s-187 -99 -187 -225s47 -226 187 -226zM412 624h-51l77 130h96zM262 624h-54l79 130h96z" />
    <glyph glyph-name="plusinferior" horiz-adv-x="396" 
d="M173 188h51v-114h134v-48h-134v-114h-51v114h-134v48h134v114z" />
    <glyph glyph-name="Ograve.sc" horiz-adv-x="658" 
d="M330 583c195 0 270 -132 270 -296c0 -162 -75 -296 -270 -296c-197 0 -271 134 -271 296c0 164 74 296 271 296zM330 61c140 0 186 100 186 226s-46 225 -186 225s-187 -99 -187 -225s47 -226 187 -226zM408 624h-69l-166 130h112z" />
    <glyph glyph-name="Odieresis.sc" horiz-adv-x="658" 
d="M330 583c195 0 270 -132 270 -296c0 -162 -75 -296 -270 -296c-197 0 -271 134 -271 296c0 164 74 296 271 296zM330 61c140 0 186 100 186 226s-46 225 -186 225s-187 -99 -187 -225s47 -226 187 -226zM204 634v93h83v-93h-83zM373 634v93h81v-93h-81z" />
    <glyph glyph-name="Ocircumflex.sc" horiz-adv-x="658" 
d="M330 583c195 0 270 -132 270 -296c0 -162 -75 -296 -270 -296c-197 0 -271 134 -271 296c0 164 74 296 271 296zM330 61c140 0 186 100 186 226s-46 225 -186 225s-187 -99 -187 -225s47 -226 187 -226zM378 754l99 -130h-62l-86 85l-84 -85h-63l99 130h97z" />
    <glyph glyph-name="psuperior" horiz-adv-x="399" 
d="M118 700v-40c27 23 63 47 115 47c72 0 127 -51 127 -165c0 -113 -55 -164 -127 -164c-52 0 -88 23 -115 46v-161h-63v437h63zM219 655c-39 0 -75 -20 -101 -47v-131c26 -27 62 -48 101 -48c51 0 77 42 77 113c0 72 -26 113 -77 113z" />
    <glyph glyph-name="Obreve.sc" horiz-adv-x="658" 
d="M330 583c195 0 270 -132 270 -296c0 -162 -75 -296 -270 -296c-197 0 -271 134 -271 296c0 164 74 296 271 296zM330 61c140 0 186 100 186 226s-46 225 -186 225s-187 -99 -187 -225s47 -226 187 -226zM329 624c-90 0 -142 41 -142 107h59c0 -38 32 -53 83 -53
s84 15 84 53h59c0 -66 -53 -107 -143 -107z" />
    <glyph glyph-name="qinferior" horiz-adv-x="399" 
d="M280 -272v161c-26 -22 -64 -46 -115 -46c-72 0 -127 51 -127 164c0 114 55 165 127 165c52 0 89 -24 115 -47v40h63v-437h-63zM180 -106c39 0 74 21 100 48v131c-26 27 -61 47 -100 47c-51 0 -77 -41 -77 -113c0 -71 26 -113 77 -113z" />
    <glyph glyph-name="qsuperior" horiz-adv-x="399" 
d="M280 263v161c-26 -23 -64 -46 -115 -46c-72 0 -127 51 -127 164c0 114 55 165 127 165c52 0 89 -24 115 -47v40h63v-437h-63zM180 429c39 0 74 21 100 48v131c-26 27 -61 47 -100 47c-51 0 -77 -41 -77 -113c0 -71 26 -113 77 -113z" />
    <glyph glyph-name="Oacute.sc" horiz-adv-x="658" 
d="M330 583c195 0 270 -132 270 -296c0 -162 -75 -296 -270 -296c-197 0 -271 134 -271 296c0 164 74 296 271 296zM330 61c140 0 186 100 186 226s-46 225 -186 225s-187 -99 -187 -225s47 -226 187 -226zM320 624h-69l122 130h113z" />
    <glyph glyph-name="question.sc" horiz-adv-x="460" 
d="M145 0v101h89v-101h-89zM414 442c0 -98 -89 -144 -192 -169l-5 -99h-56l-6 143c110 22 178 49 178 114c0 52 -49 83 -111 83c-56 0 -109 -24 -150 -47l-37 54c39 25 112 62 197 62c96 0 182 -49 182 -141z" />
    <glyph glyph-name="OE.sc" horiz-adv-x="967" 
d="M914 0h-396v56c-43 -41 -105 -65 -188 -65c-197 0 -271 134 -271 296c0 164 74 296 271 296c83 0 145 -25 188 -65v56h391v-70h-310v-183h256v-68h-256v-184h315v-69zM330 61c140 0 186 100 186 226s-46 225 -186 225s-187 -99 -187 -225s47 -226 187 -226z" />
    <glyph glyph-name="questiondown.sc" horiz-adv-x="461" 
d="M46 132c0 97 90 144 191 169l6 99h55l7 -143c-110 -22 -178 -50 -178 -114c0 -53 48 -84 111 -84c56 0 108 24 149 48l38 -55c-38 -24 -113 -61 -198 -61c-94 0 -181 48 -181 141zM315 574v-101h-89v101h89z" />
    <glyph glyph-name="questiondowninferior" horiz-adv-x="334" 
d="M32 -52c0 72 66 105 141 124l4 69h43l6 -104c-81 -16 -127 -35 -127 -81c0 -35 32 -58 77 -58c39 0 77 17 106 34l30 -43c-27 -18 -83 -46 -145 -46c-72 0 -135 37 -135 105zM234 270v-77h-71v77h71z" />
    <glyph glyph-name="questiondownsuperior" horiz-adv-x="336" 
d="M32 483c0 72 66 105 141 124l4 69h43l6 -104c-81 -16 -127 -35 -127 -81c0 -35 32 -58 77 -58c39 0 77 17 106 34l30 -43c-27 -18 -83 -46 -145 -46c-72 0 -135 37 -135 105zM234 805v-77h-71v77h71z" />
    <glyph glyph-name="questioninferior" horiz-adv-x="334" 
d="M100 -150v76h72v-76h-72zM302 172c0 -72 -65 -106 -140 -124l-4 -69h-43l-5 103c79 17 126 36 126 81c0 36 -32 59 -77 59c-40 0 -77 -18 -106 -35l-30 44c28 17 82 46 145 46c71 0 134 -37 134 -105z" />
    <glyph glyph-name="questionsuperior" horiz-adv-x="335" 
d="M101 385v76h72v-76h-72zM303 707c0 -72 -65 -106 -140 -124l-4 -69h-43l-5 103c79 17 126 36 126 81c0 36 -32 59 -77 59c-40 0 -77 -18 -106 -35l-30 44c28 17 82 46 145 46c71 0 134 -37 134 -105z" />
    <glyph glyph-name="O.sc" horiz-adv-x="658" 
d="M330 583c195 0 270 -132 270 -296c0 -162 -75 -296 -270 -296c-197 0 -271 134 -271 296c0 164 74 296 271 296zM330 61c140 0 186 100 186 226s-46 225 -186 225s-187 -99 -187 -225s47 -226 187 -226z" />
    <glyph glyph-name="Ntilde.sc" horiz-adv-x="651" 
d="M477 0l-308 461v-461h-81v574h85l308 -463v463h81v-574h-85zM217 634l-45 20c24 47 47 84 93 84c50 0 94 -49 126 -49c15 0 28 6 50 46l45 -19c-23 -48 -47 -85 -93 -85c-50 0 -94 49 -126 49c-15 0 -28 -6 -50 -46z" />
    <glyph glyph-name="Nsuperior" horiz-adv-x="483" 
d="M347 385l-215 326v-326h-66v420h67l216 -327v327h67v-420h-69z" />
    <glyph glyph-name="Ninferior" horiz-adv-x="483" 
d="M347 -150l-215 326v-326h-66v420h67l216 -326v326h67v-420h-69z" />
    <glyph glyph-name="Ncommaaccent.sc" horiz-adv-x="651" 
d="M173 574l308 -463v463h81v-574h-85l-308 461v-461h-81v574h85zM288 -160v97h79l11 -101l-71 -108l-26 26l44 86h-37z" />
    <glyph glyph-name="Ncaron.sc" horiz-adv-x="651" 
d="M173 574l308 -463v463h81v-574h-85l-308 461v-461h-81v574h85zM477 754l-99 -130h-97l-99 130h63l84 -86l86 86h62z" />
    <glyph glyph-name="Nacute.sc" horiz-adv-x="651" 
d="M173 574l308 -463v463h81v-574h-85l-308 461v-461h-81v574h85zM316 624h-70l122 130h114z" />
    <glyph glyph-name="N.sc" horiz-adv-x="651" 
d="M477 0l-308 461v-461h-81v574h85l308 -463v463h81v-574h-85z" />
    <glyph glyph-name="Msuperior" horiz-adv-x="554" 
d="M421 385v318l-124 -248h-41l-124 246v-316h-66v420h68l142 -280l143 280h68v-420h-66z" />
    <glyph glyph-name="Minferior" horiz-adv-x="554" 
d="M421 -150v318l-124 -248h-41l-124 246v-316h-66v420h68l142 -279l143 279h68v-420h-66z" />
    <glyph glyph-name="M.sc" horiz-adv-x="749" 
d="M579 0v450l-180 -354h-49l-181 356v-452h-81v574h85l201 -393l201 393h85v-574h-81z" />
    <glyph glyph-name="Lsuperior" horiz-adv-x="373" 
d="M347 385h-281v420h66v-365h215v-55z" />
    <glyph glyph-name="Lslash.sc" horiz-adv-x="505" 
d="M477 0h-381v217l-64 -34v75l64 34v282h81v-239l118 63v-76l-118 -63v-190h300v-69z" />
    <glyph glyph-name="Linferior" horiz-adv-x="373" 
d="M347 -150h-281v420h66v-365h215v-55z" />
    <glyph glyph-name="rinferior" horiz-adv-x="266" 
d="M118 165v-67c5 13 39 77 125 71v-60c-112 0 -125 -99 -125 -99v-160h-63v315h63z" />
    <glyph glyph-name="Ldot.sc" horiz-adv-x="499" 
d="M469 0h-381v574h81v-506h300v-68zM338 256v92h82v-92h-82z" />
    <glyph glyph-name="Lcommaaccent.sc" horiz-adv-x="497" 
d="M469 0h-381v574h81v-506h300v-68zM235 -160v97h80l10 -101l-71 -108l-24 26l43 86h-38z" />
    <glyph glyph-name="Lcaron.sc" horiz-adv-x="497" 
d="M469 0h-381v574h81v-506h300v-68zM215 477v97h79l11 -101l-71 -108l-25 26l44 86h-38z" />
    <glyph glyph-name="s_h" horiz-adv-x="1119" 
d="M676 729v-278c38 29 127 85 217 85c114 0 149 -74 149 -162v-374h-83v359c0 61 -19 109 -91 109c-73 0 -156 -55 -192 -86v-382h-83v684h-89c-76 0 -119 -45 -119 -114c0 -28 7 -50 18 -68c16 -6 30 -13 43 -19l-36 -58c-49 23 -116 44 -169 44c-61 0 -104 -27 -104 -73
c0 -64 87 -81 142 -95c114 -30 190 -74 190 -166c0 -99 -89 -146 -191 -146c-91 0 -182 35 -234 64l37 61c51 -27 132 -58 193 -58c58 0 112 26 112 76c0 65 -90 85 -156 103c-81 22 -175 55 -175 157c0 91 76 144 184 144c37 0 74 -6 108 -16c-7 17 -11 36 -11 59
c0 93 64 150 170 150h170z" />
    <glyph glyph-name="s_k" horiz-adv-x="1038" 
d="M992 525l-178 -212l210 -313h-89l-171 253l-88 -105v-148h-83v684h-89c-76 0 -119 -45 -119 -114c0 -28 7 -50 18 -68c16 -6 30 -13 43 -19l-36 -58c-49 23 -116 44 -169 44c-61 0 -104 -27 -104 -73c0 -64 87 -81 142 -95c114 -30 190 -74 190 -166
c0 -99 -89 -146 -191 -146c-91 0 -182 35 -234 64l37 61c51 -27 132 -58 193 -58c58 0 112 26 112 76c0 65 -90 85 -156 103c-81 22 -175 55 -175 157c0 91 76 144 184 144c37 0 74 -6 108 -16c-7 17 -11 36 -11 59c0 93 64 150 170 150h170v-479l221 275h95z" />
    <glyph glyph-name="s_l" horiz-adv-x="766" 
d="M680 0h-82v684h-94c-76 0 -119 -45 -119 -114c0 -28 7 -50 18 -68c16 -6 30 -13 43 -19l-36 -58c-49 23 -116 44 -169 44c-61 0 -104 -27 -104 -73c0 -64 87 -81 142 -95c114 -30 190 -74 190 -166c0 -99 -89 -146 -191 -146c-91 0 -182 35 -234 64l37 61
c51 -27 132 -58 193 -58c58 0 112 26 112 76c0 65 -90 85 -156 103c-81 22 -175 55 -175 157c0 91 76 144 184 144c37 0 74 -6 108 -16c-7 17 -11 36 -11 59c0 93 64 150 170 150h174v-729z" />
    <glyph glyph-name="Lacute.sc" horiz-adv-x="497" 
d="M470 0h-381v574h82v-506h299v-68zM120 624h-69l123 130h113z" />
    <glyph glyph-name="L.sc" horiz-adv-x="497" 
d="M469 0h-381v574h81v-505h300v-69z" />
    <glyph glyph-name="Ksuperior" horiz-adv-x="441" 
d="M66 385v420h66v-226l198 226h77l-178 -201l195 -219h-80l-155 174l-57 -65v-109h-66z" />
    <glyph glyph-name="Kinferior" horiz-adv-x="441" 
d="M66 -150v420h66v-226l198 226h77l-178 -201l195 -219h-80l-155 174l-57 -64v-110h-66z" />
    <glyph glyph-name="Kcommaaccent.sc" horiz-adv-x="589" 
d="M88 0v574h81v-318l281 318h96l-246 -275l271 -299h-98l-222 244l-82 -92v-152h-81zM255 -160v97h80l10 -101l-72 -108l-24 26l43 86h-37z" />
    <glyph glyph-name="K.sc" horiz-adv-x="589" 
d="M88 0v574h81v-318l281 318h96l-246 -275l271 -299h-98l-222 244l-82 -93v-151h-81z" />
    <glyph glyph-name="Jsuperior" horiz-adv-x="199" 
d="M133 805v-389c0 -71 0 -98 -119 -125l-22 48c75 23 75 31 75 74v392h66z" />
    <glyph glyph-name="Jinferior" horiz-adv-x="199" 
d="M133 270v-389c0 -71 0 -98 -119 -125l-22 48c75 23 75 31 75 74v392h66z" />
    <glyph glyph-name="semicoloninferior" horiz-adv-x="195" 
d="M61 49v81h70v-81h-70zM61 -150v81h69l8 -87l-59 -80l-21 23l35 63h-32z" />
    <glyph glyph-name="semicolonsuperior" horiz-adv-x="195" 
d="M61 584v81h70v-81h-70zM61 385v81h69l8 -87l-59 -80l-21 23l35 63h-32z" />
    <glyph glyph-name="Jcircumflex.sc" horiz-adv-x="257" 
d="M169 574v-534c0 -95 0 -129 -156 -166l-27 62c102 32 102 40 102 101v537h81zM176 754l100 -130h-63l-85 85l-84 -85h-63l99 130h96z" />
    <glyph glyph-name="J.sc" horiz-adv-x="258" 
d="M169 574v-534c0 -95 0 -129 -156 -166l-27 62c102 32 102 40 102 101v537h81z" />
    <glyph glyph-name="seven.dnom" horiz-adv-x="345" 
d="M320 370c0 0 -161 -188 -161 -370h-69c0 167 145 350 157 365h-219v55h292v-50z" />
    <glyph glyph-name="seven.numr" horiz-adv-x="345" 
d="M320 650c0 0 -161 -188 -161 -370h-69c0 167 145 350 157 365h-219v55h292v-50z" />
    <glyph glyph-name="seven.onum" horiz-adv-x="506" 
d="M484 509c0 0 -258 -318 -258 -635h-91c0 285 226 593 250 626h-355v74h454v-65z" />
    <glyph glyph-name="seven.tnum" horiz-adv-x="630" 
d="M546 635c0 0 -259 -318 -259 -635h-90c0 285 226 593 250 626h-355v74h454v-65z" />
    <glyph glyph-name="Itilde.sc" horiz-adv-x="258" 
d="M16 634l-45 20c25 47 47 84 93 84c51 0 94 -49 127 -49c15 0 27 6 50 46l45 -19c-24 -48 -47 -85 -93 -85c-51 0 -94 49 -127 49c-15 0 -27 -6 -50 -46zM170 0h-81v574h81v-574z" />
    <glyph glyph-name="seveneighths.onum" horiz-adv-x="747" 
d="M405 90c0 52 46 79 91 96c-34 16 -67 39 -67 80c0 51 48 84 123 84c73 0 123 -34 123 -84c0 -41 -35 -65 -68 -79c44 -17 91 -45 91 -97c0 -60 -61 -96 -146 -96s-147 36 -147 96zM500 574l-290 -574h-59l290 574h59zM292 533c0 0 -141 -154 -141 -303h-58
c0 133 120 279 136 298h-190v46h253v-41zM641 93c0 39 -48 59 -90 74c-45 -16 -88 -37 -88 -74c0 -35 38 -56 89 -56c49 0 89 21 89 56zM483 260c0 -32 39 -47 69 -56c28 9 68 24 68 56c0 26 -28 49 -68 49c-41 0 -69 -24 -69 -49z" />
    <glyph glyph-name="Isuperior" horiz-adv-x="199" 
d="M132 385h-66v420h66v-420z" />
    <glyph glyph-name="Iogonek.sc" horiz-adv-x="259" 
d="M69 -96c0 -42 52 -37 80 -37l-11 -50c-34 0 -134 -2 -134 78c0 43 45 79 99 105h-15v574h82v-574h-3c-37 -22 -98 -53 -98 -96z" />
    <glyph glyph-name="sinferior" horiz-adv-x="343" 
d="M191 34c70 -17 119 -43 119 -101c0 -59 -54 -90 -124 -90c-58 0 -120 22 -153 39l27 47c33 -16 86 -35 123 -35c34 0 64 12 64 37c0 34 -54 44 -95 55c-52 13 -113 35 -113 96c0 55 48 90 121 90c52 0 104 -18 136 -33l-28 -43c-30 13 -73 27 -106 27
c-37 0 -61 -15 -61 -38c0 -34 53 -42 90 -51z" />
    <glyph glyph-name="Imacron.sc" horiz-adv-x="257" 
d="M168 0h-80v574h80v-574zM-18 649v55h292v-55h-292z" />
    <glyph glyph-name="six.dnom" horiz-adv-x="411" 
d="M284 373c-82 0 -149 -52 -167 -147c16 16 54 43 114 43c89 0 142 -59 142 -133c0 -76 -59 -143 -159 -143c-115 0 -169 86 -169 187c0 139 97 247 238 247c35 0 61 -7 61 -7l-14 -52s-21 5 -46 5zM216 218c-54 0 -91 -30 -104 -52c2 -77 41 -119 101 -119
c64 0 94 45 94 88c0 41 -28 83 -91 83z" />
    <glyph glyph-name="six.numr" horiz-adv-x="411" 
d="M284 653c-82 0 -149 -52 -167 -147c16 16 54 43 114 43c89 0 142 -59 142 -133c0 -76 -59 -143 -159 -143c-115 0 -169 86 -169 187c0 139 97 247 238 247c35 0 61 -7 61 -7l-14 -52s-21 5 -46 5zM216 498c-54 0 -91 -30 -104 -52c2 -77 41 -119 101 -119
c64 0 94 45 94 88c0 41 -28 83 -91 83z" />
    <glyph glyph-name="six.onum" horiz-adv-x="616" 
d="M430 638c-116 0 -242 -77 -273 -268c27 29 88 77 186 77c143 0 224 -100 224 -221c0 -127 -92 -237 -244 -237c-179 0 -260 148 -261 292c-1 282 176 430 366 430c53 0 93 -11 93 -11l-20 -70s-32 8 -71 8zM327 379c-92 0 -156 -57 -177 -98v-7c0 -114 58 -212 172 -212
c107 0 159 83 159 162c0 75 -46 155 -154 155z" />
    <glyph glyph-name="six.tnum" horiz-adv-x="630" 
d="M435 638c-116 0 -242 -77 -273 -268c27 29 88 77 186 77c143 0 224 -100 224 -221c0 -127 -92 -237 -244 -237c-179 0 -260 148 -261 292c-1 282 176 430 366 430c53 0 93 -11 93 -11l-20 -70s-32 8 -71 8zM332 379c-92 0 -156 -57 -177 -98v-7c0 -114 58 -212 172 -212
c107 0 159 83 159 162c0 75 -46 155 -154 155z" />
    <glyph glyph-name="Iinferior" horiz-adv-x="199" 
d="M132 -150h-66v420h66v-420z" />
    <glyph glyph-name="Igrave.sc" horiz-adv-x="259" 
d="M170 0h-82v574h82v-574zM207 624h-69l-166 130h112z" />
    <glyph glyph-name="Idieresis.sc" horiz-adv-x="258" 
d="M169 0h-81v574h81v-574zM3 634v93h83v-93h-83zM171 634v93h83v-93h-83z" />
    <glyph glyph-name="slash.sc" horiz-adv-x="412" 
d="M379 648l-289 -722h-64l289 722h64z" />
    <glyph glyph-name="Icircumflex.sc" horiz-adv-x="258" 
d="M169 0h-81v574h81v-574zM176 754l100 -130h-63l-85 85l-84 -85h-63l99 130h96z" />
    <glyph glyph-name="spaceinferior" horiz-adv-x="175" 
 />
    <glyph glyph-name="spacesuperior" horiz-adv-x="175" 
 />
    <glyph glyph-name="Ibreve.sc" horiz-adv-x="258" 
d="M128 624c-90 0 -142 41 -142 107h59c0 -38 32 -53 83 -53s84 15 84 53h59c0 -66 -53 -107 -143 -107zM169 0h-81v574h81v-574z" />
    <glyph glyph-name="Iacute.sc" horiz-adv-x="259" 
d="M171 0h-82v574h82v-574zM120 624h-69l123 130h113z" />
    <glyph glyph-name="sterling.onum" horiz-adv-x="505" 
d="M71 210v53h88c-21 61 -80 101 -80 180c0 84 68 140 174 140c81 0 149 -35 197 -60l-38 -55c-54 27 -104 46 -149 46c-67 0 -102 -38 -102 -82c0 -61 61 -100 78 -169h142v-53h-138c-8 -67 -59 -124 -79 -142h276v-68h-379v57s97 60 104 153h-94z" />
    <glyph glyph-name="IJ.sc" horiz-adv-x="516" 
d="M169 0h-81v574h81v-574zM416 574v-534c0 -95 0 -129 -157 -166l-27 62c103 32 103 40 103 101v537h81z" />
    <glyph glyph-name="I.sc" horiz-adv-x="258" 
d="M169 0h-81v574h81v-574z" />
    <glyph glyph-name="Hsuperior" horiz-adv-x="472" 
d="M339 385v193h-207v-193h-66v420h66v-172h207v172h66v-420h-66z" />
    <glyph glyph-name="Hinferior" horiz-adv-x="472" 
d="M339 -150v193h-207v-193h-66v420h66v-172h207v172h66v-420h-66z" />
    <glyph glyph-name="Hbar.sc" horiz-adv-x="648" 
d="M473 0v267h-298v-267h-81v425h-66v51h66v98h81v-98h298v98h81v-98h65v-51h-65v-425h-81zM175 425v-90h298v90h-298z" />
    <glyph glyph-name="H.sc" horiz-adv-x="637" 
d="M467 0v267h-298v-267h-81v574h81v-239h298v239h81v-574h-81z" />
    <glyph glyph-name="Gsuperior" horiz-adv-x="465" 
d="M349 385v47c-36 -29 -79 -54 -132 -54c-90 0 -171 67 -171 217s80 217 177 217c71 0 131 -33 182 -65l-33 -48c-40 23 -91 54 -143 54c-68 0 -115 -59 -115 -158c0 -98 44 -160 115 -160c50 0 97 36 120 55v75h-116v53h180v-233h-64z" />
    <glyph glyph-name="three.dnom" horiz-adv-x="395" 
d="M30 40l31 45c30 -17 80 -37 127 -37c55 0 97 27 97 72c0 61 -79 79 -135 79h-21v56h24c52 0 112 18 112 65c0 32 -28 52 -74 52c-47 0 -89 -21 -112 -35l-28 41c14 11 72 49 149 49c88 0 131 -48 131 -100c0 -39 -25 -76 -81 -95c58 -15 101 -57 101 -112
c0 -63 -46 -127 -155 -127c-76 0 -141 33 -166 47z" />
    <glyph glyph-name="three.numr" horiz-adv-x="395" 
d="M30 320l31 45c30 -17 80 -37 127 -37c55 0 97 27 97 72c0 61 -79 79 -135 79h-21v56h24c52 0 112 18 112 65c0 32 -28 52 -74 52c-47 0 -89 -21 -112 -35l-28 41c14 11 72 49 149 49c88 0 131 -48 131 -100c0 -39 -25 -76 -81 -95c58 -15 101 -57 101 -112
c0 -63 -46 -127 -155 -127c-76 0 -141 33 -166 47z" />
    <glyph glyph-name="three.onum" horiz-adv-x="581" 
d="M35 -67l40 63c38 -23 121 -61 200 -61c94 0 166 51 166 134c0 110 -129 147 -222 147h-31v75h36c90 0 186 38 186 121c0 61 -51 97 -129 97c-74 0 -140 -34 -176 -58l-38 57c22 16 107 75 225 75c135 0 204 -78 204 -164c0 -63 -39 -128 -134 -161
c94 -23 166 -94 166 -189c0 -104 -75 -208 -243 -208c-114 0 -213 49 -250 72z" />
    <glyph glyph-name="three.tnum" horiz-adv-x="630" 
d="M57 61l40 63c38 -23 121 -61 200 -61c93 0 166 51 166 134c0 110 -129 147 -222 147h-31v75h36c90 0 185 38 185 121c0 61 -50 97 -129 97c-74 0 -139 -34 -175 -58l-38 57c21 16 107 75 225 75c135 0 204 -78 204 -164c0 -63 -39 -128 -134 -161
c94 -23 166 -94 166 -189c0 -104 -75 -208 -243 -208c-115 0 -213 49 -250 72z" />
    <glyph glyph-name="Ginferior" horiz-adv-x="466" 
d="M349 -150v47c-36 -29 -79 -54 -132 -54c-90 0 -171 67 -171 217s80 217 177 217c71 0 131 -33 182 -65l-33 -48c-40 23 -91 54 -143 54c-68 0 -115 -59 -115 -158c0 -98 44 -160 115 -160c50 0 97 36 120 56v74h-116v53h180v-233h-64z" />
    <glyph glyph-name="threeeighths.onum" horiz-adv-x="842" 
d="M501 90c0 52 46 79 90 96c-34 16 -67 39 -67 80c0 51 49 84 124 84c73 0 123 -34 123 -84c0 -42 -35 -65 -68 -80c44 -17 90 -45 90 -96c0 -60 -60 -96 -145 -96s-147 36 -147 96zM48 262l26 38c24 -15 69 -31 110 -31c48 0 86 23 86 59c0 50 -70 65 -119 65h-17v46h19
c47 0 98 15 98 53c0 26 -24 42 -65 42c-40 0 -77 -17 -97 -29l-24 35c13 9 62 40 129 40c76 0 114 -40 114 -83c0 -32 -23 -62 -71 -77c50 -12 88 -47 88 -92c0 -52 -40 -104 -134 -104c-67 0 -123 26 -143 38zM596 574l-290 -574h-59l290 574h59zM736 93
c0 39 -47 59 -89 73c-44 -15 -89 -36 -89 -73c0 -35 39 -56 90 -56c49 0 88 21 88 56zM578 260c0 -32 39 -47 69 -56c29 9 68 24 68 56c0 26 -28 49 -67 49c-42 0 -70 -24 -70 -49z" />
    <glyph glyph-name="threefifths" horiz-adv-x="952" 
d="M603 211l23 209h252v-55h-199l-9 -110c21 8 45 14 75 14c96 0 151 -63 151 -135s-53 -141 -161 -141c-70 0 -124 30 -151 46l30 49c15 -11 64 -38 113 -38c54 0 101 32 101 83c0 45 -34 83 -97 83c-40 0 -73 -15 -92 -25zM45 320l31 45c29 -17 79 -37 127 -37
c54 0 96 27 96 72c0 61 -79 79 -135 79h-21v56h24c52 0 113 18 113 65c0 32 -29 52 -75 52s-88 -21 -112 -35l-28 41c14 11 72 49 149 49c89 0 132 -48 132 -100c0 -39 -26 -76 -81 -95c57 -15 100 -57 100 -112c0 -63 -45 -127 -155 -127c-76 0 -141 33 -165 47zM678 700
l-333 -700h-70l333 700h70z" />
    <glyph glyph-name="threefifths.onum" horiz-adv-x="840" 
d="M531 173l21 171h217v-45h-172l-8 -90c18 7 38 12 64 12c84 0 132 -52 132 -111c0 -60 -46 -116 -139 -116c-61 0 -107 25 -131 38l25 40c13 -8 56 -31 99 -31c47 0 88 26 88 69c0 36 -29 67 -85 67c-35 0 -64 -12 -80 -21zM48 262l26 38c24 -15 69 -31 110 -31
c48 0 86 23 86 59c0 50 -70 65 -119 65h-17v46h19c47 0 98 15 98 53c0 26 -24 42 -65 42c-40 0 -77 -17 -97 -29l-24 35c13 9 62 40 129 40c76 0 114 -40 114 -83c0 -32 -23 -62 -71 -77c50 -12 88 -47 88 -92c0 -52 -40 -104 -134 -104c-67 0 -123 26 -143 38zM596 574
l-290 -574h-59l290 574h59z" />
    <glyph glyph-name="Gdotaccent.sc" horiz-adv-x="626" 
d="M479 0v66c-49 -40 -109 -75 -184 -75c-124 0 -236 90 -236 296s110 296 242 296c97 0 181 -46 247 -89l-43 -59c-51 31 -124 75 -197 75c-98 0 -165 -83 -165 -223c0 -139 65 -226 165 -226c70 0 138 51 171 79v110h-164v66h243v-316h-79zM267 634v93h83v-93h-83z" />
    <glyph glyph-name="Gcommaaccent.sc" horiz-adv-x="626" 
d="M479 0v66c-49 -40 -109 -75 -184 -75c-124 0 -236 90 -236 296s110 296 242 296c97 0 181 -46 247 -89l-43 -59c-51 31 -124 75 -197 75c-98 0 -165 -83 -165 -223c0 -139 65 -226 165 -226c70 0 138 51 171 79v110h-164v66h243v-316h-79zM283 -160v97h80l10 -101
l-71 -108l-25 26l44 86h-38z" />
    <glyph glyph-name="threequarters.onum" horiz-adv-x="820" 
d="M662 0v73h-200v39l183 232h72v-226h60v-45h-60v-73h-55zM48 262l26 38c24 -15 69 -31 110 -31c48 0 86 23 86 59c0 50 -70 65 -119 65h-17v46h19c47 0 98 15 98 53c0 26 -24 42 -65 42c-40 0 -77 -17 -97 -29l-24 35c13 9 62 40 129 40c76 0 114 -40 114 -83
c0 -32 -23 -62 -71 -77c50 -12 88 -47 88 -92c0 -52 -40 -104 -134 -104c-67 0 -123 26 -143 38zM596 574l-290 -574h-59l290 574h59zM523 118h139v182z" />
    <glyph glyph-name="Gbreve.sc" horiz-adv-x="626" 
d="M479 0v66c-49 -40 -109 -75 -184 -75c-124 0 -236 90 -236 296s110 296 242 296c97 0 181 -46 247 -89l-43 -59c-51 31 -124 75 -197 75c-98 0 -165 -83 -165 -223c0 -139 65 -226 165 -226c70 0 138 51 171 79v110h-164v66h243v-316h-79zM307 624
c-90 0 -142 41 -142 107h59c0 -38 32 -53 83 -53s84 15 84 53h59c0 -66 -53 -107 -143 -107z" />
    <glyph glyph-name="G.sc" horiz-adv-x="626" 
d="M479 0v66c-49 -40 -109 -75 -184 -75c-124 0 -236 90 -236 296s110 296 242 296c97 0 181 -46 247 -89l-43 -59c-51 31 -124 75 -197 75c-98 0 -165 -83 -165 -223c0 -139 65 -226 165 -226c70 0 138 51 171 79v110h-164v66h243v-316h-79z" />
    <glyph glyph-name="tinferior" horiz-adv-x="270" 
d="M25 117v48h45v79l65 12v-91h90v-48h-90v-187c0 -26 12 -32 29 -32c18 0 49 11 59 15l24 -47c-17 -7 -59 -23 -96 -23c-48 0 -81 24 -81 89v185h-45z" />
    <glyph glyph-name="Fsuperior" horiz-adv-x="385" 
d="M354 749h-222v-127h177v-54h-177v-183h-66v420h288v-56z" />
    <glyph glyph-name="Finferior" horiz-adv-x="385" 
d="M354 214h-222v-127h177v-54h-177v-183h-66v420h288v-56z" />
    <glyph glyph-name="F.sc" horiz-adv-x="514" 
d="M479 505h-310v-184h247v-68h-247v-253h-81v574h391v-69z" />
    <glyph glyph-name="two.dnom" horiz-adv-x="392" 
d="M346 55v-55h-307v36c0 87 70 130 140 174c54 34 100 62 100 104c0 33 -29 58 -80 58c-48 0 -95 -24 -117 -39l-31 43c30 20 85 51 155 51c87 0 139 -46 139 -111c0 -81 -78 -122 -148 -164c-48 -29 -81 -53 -81 -97h230z" />
    <glyph glyph-name="two.numr" horiz-adv-x="392" 
d="M346 335v-55h-307v36c0 87 70 130 140 174c54 34 100 62 100 104c0 33 -29 58 -80 58c-48 0 -95 -24 -117 -39l-31 43c30 20 85 51 155 51c87 0 139 -46 139 -111c0 -81 -78 -122 -148 -164c-48 -29 -81 -53 -81 -97h230z" />
    <glyph glyph-name="two.onum" horiz-adv-x="582" 
d="M53 0v54c0 112 101 169 202 218c95 45 178 80 178 147c0 61 -50 92 -129 92c-91 0 -162 -43 -191 -63l-41 58c52 35 129 77 236 77c126 0 210 -54 210 -161c0 -112 -106 -161 -224 -216c-90 -43 -141 -72 -148 -134h373v-72h-466z" />
    <glyph glyph-name="two.tnum" horiz-adv-x="630" 
d="M544 74v-74h-470v55c0 147 109 214 222 290c86 58 160 108 160 184c0 62 -49 108 -136 108c-79 0 -152 -39 -186 -63l-42 59c48 33 129 78 235 78c132 0 216 -72 216 -180c0 -133 -124 -201 -239 -277c-82 -54 -134 -95 -134 -180h374z" />
    <glyph glyph-name="twofifths" horiz-adv-x="973" 
d="M625 211l24 209h251v-55h-197l-9 -110c20 8 44 14 73 14c97 0 151 -63 151 -135s-52 -141 -160 -141c-69 0 -124 30 -151 46l30 49c15 -11 63 -38 113 -38c53 0 100 32 100 83c0 45 -33 83 -97 83c-39 0 -72 -15 -91 -25zM360 335v-55h-306v36c0 87 69 130 139 174
c54 34 100 62 100 104c0 33 -28 58 -80 58c-48 0 -95 -24 -116 -39l-31 43c29 20 84 51 154 51c88 0 140 -46 140 -111c0 -81 -79 -122 -148 -164c-49 -29 -82 -53 -82 -97h230zM701 700l-334 -700h-70l334 700h70z" />
    <glyph glyph-name="twofifths.onum" horiz-adv-x="857" 
d="M550 173l20 171h217v-45h-172l-9 -90c18 7 39 12 65 12c83 0 132 -52 132 -111c0 -60 -46 -116 -140 -116c-59 0 -107 25 -130 38l24 40c14 -8 56 -31 99 -31c47 0 89 26 89 69c0 36 -29 67 -85 67c-35 0 -64 -12 -81 -21zM319 275v-45h-265v30c0 71 60 106 121 142
c47 28 88 51 88 85c0 27 -26 47 -72 47c-41 0 -82 -19 -101 -31l-25 35c25 17 71 42 132 42c76 0 122 -38 122 -92c0 -66 -69 -99 -130 -134c-43 -24 -71 -43 -71 -79h201zM614 574l-291 -574h-58l290 574h59z" />
    <glyph glyph-name="Eurosuperior" horiz-adv-x="465" 
d="M38 624v34h43c19 106 89 154 171 154c66 0 125 -32 175 -61l-33 -48c-39 23 -88 50 -136 50c-52 0 -91 -35 -107 -95h169v-34h-175c-1 -9 -1 -19 -1 -29c0 -11 0 -22 1 -32h175v-34h-168c16 -59 55 -92 106 -92c48 0 97 27 136 50l33 -48c-50 -30 -109 -61 -175 -61
c-81 0 -150 47 -170 151h-44v34h39c-1 10 -1 21 -1 32c0 10 0 19 1 29h-39z" />
    <glyph glyph-name="Euroinferior" horiz-adv-x="465" 
d="M38 89v34h43c19 106 89 154 171 154c66 0 125 -32 175 -61l-33 -48c-39 23 -88 50 -136 50c-52 0 -91 -35 -107 -95h169v-34h-175c-1 -9 -1 -19 -1 -29c0 -11 0 -22 1 -32h175v-34h-168c16 -59 55 -92 106 -92c48 0 97 27 136 50l33 -48c-50 -30 -109 -61 -175 -61
c-81 0 -150 48 -170 151h-44v34h39c-1 10 -1 21 -1 32c0 10 0 19 1 29h-39z" />
    <glyph glyph-name="Euro.onum" horiz-adv-x="640" 
d="M53 328v44h59c26 146 122 211 233 211c90 0 171 -44 237 -84l-41 -58c-52 31 -120 70 -189 70c-76 0 -133 -51 -155 -139h243v-44h-250c-2 -13 -2 -27 -2 -41c0 -16 1 -32 2 -46h250v-44h-241c22 -86 79 -134 153 -134c69 0 137 39 189 70l41 -58
c-66 -41 -147 -84 -237 -84c-109 0 -205 63 -232 206h-60v44h54c-2 14 -2 30 -2 46c0 14 1 28 2 41h-54z" />
    <glyph glyph-name="twothirds.onum" horiz-adv-x="853" 
d="M319 275v-45h-265v30c0 71 61 106 121 142c47 28 88 51 88 85c0 27 -26 47 -71 47c-41 0 -82 -19 -101 -31l-26 35c26 17 72 42 133 42c76 0 121 -38 121 -92c0 -66 -69 -99 -130 -134c-43 -24 -71 -43 -71 -79h201zM614 574l-291 -574h-58l290 574h59zM525 32l27 38
c24 -14 68 -30 110 -30c48 0 85 22 85 59c0 50 -69 64 -118 64h-18v46h21c45 0 98 15 98 53c0 26 -25 43 -65 43c-41 0 -79 -18 -98 -29l-24 34c13 9 62 40 128 40c77 0 115 -39 115 -82c0 -32 -23 -62 -71 -78c50 -12 88 -46 88 -92c0 -52 -40 -104 -135 -104
c-65 0 -122 27 -143 38z" />
    <glyph glyph-name="Eth.sc" horiz-adv-x="635" 
d="M576 287c0 -205 -109 -287 -289 -287h-191v254h-65v66h65v254h191c180 0 289 -82 289 -287zM494 287c0 154 -67 217 -213 217h-104v-184h144v-66h-144v-185h104c146 0 213 64 213 218z" />
    <glyph glyph-name="Esuperior" horiz-adv-x="401" 
d="M358 385h-292v420h288v-56h-222v-127h184v-54h-184v-128h226v-55z" />
    <glyph glyph-name="Eogonek.sc" horiz-adv-x="538" 
d="M383 -96c0 -42 52 -37 79 -37l-10 -50c-35 0 -134 -2 -134 78c0 43 45 79 100 105h-330v574h391v-69h-310v-184h256v-68h-256v-185h315v-68h-3c-38 -22 -98 -53 -98 -96z" />
    <glyph glyph-name="Eng.sc" horiz-adv-x="651" 
d="M562 574v-544c0 -88 -5 -120 -157 -156l-27 62c79 22 96 33 101 63l-310 463v-462h-81v574h85l308 -463v463h81z" />
    <glyph glyph-name="Emacron.sc" horiz-adv-x="538" 
d="M484 0h-396v574h391v-69h-310v-184h256v-68h-256v-185h315v-68zM139 649v55h292v-55h-292z" />
    <glyph glyph-name="Einferior" horiz-adv-x="401" 
d="M358 -150h-292v420h288v-56h-222v-127h184v-54h-184v-128h226v-55z" />
    <glyph glyph-name="Egrave.sc" horiz-adv-x="538" 
d="M484 0h-396v574h391v-69h-310v-184h256v-68h-256v-185h315v-68zM364 624h-69l-167 130h113z" />
    <glyph glyph-name="uinferior" horiz-adv-x="401" 
d="M282 -150v42c-26 -18 -79 -49 -133 -49c-72 0 -96 43 -96 98v224h64v-211c0 -34 11 -61 53 -61c41 0 90 29 112 48v224h64v-315h-64z" />
    <glyph glyph-name="Edotaccent.sc" horiz-adv-x="538" 
d="M484 0h-396v574h391v-69h-310v-184h256v-68h-256v-185h315v-68zM244 634v93h83v-93h-83z" />
    <glyph glyph-name="Edieresis.sc" horiz-adv-x="538" 
d="M484 0h-396v574h391v-69h-310v-184h256v-68h-256v-185h315v-68zM159 634v93h83v-93h-83zM329 634v93h81v-93h-81z" />
    <glyph glyph-name="Ecircumflex.sc" horiz-adv-x="538" 
d="M484 0h-396v574h391v-69h-310v-184h256v-68h-256v-185h315v-68zM333 754l99 -130h-61l-86 85l-85 -85h-62l99 130h96z" />
    <glyph glyph-name="Ecaron.sc" horiz-adv-x="538" 
d="M484 0h-396v574h391v-69h-310v-184h256v-68h-256v-185h315v-68zM432 754l-99 -130h-96l-99 130h62l85 -86l86 86h61z" />
    <glyph glyph-name="uni021a.sc" horiz-adv-x="517" 
d="M489 504h-189v-504h-82v504h-191v70h462v-70zM218 -160v97h80l10 -101l-71 -108l-25 26l43 86h-37z" />
    <glyph glyph-name="Eacute.sc" horiz-adv-x="538" 
d="M484 0h-396v574h391v-69h-310v-184h256v-68h-256v-185h315v-68zM276 624h-69l123 130h113z" />
    <glyph glyph-name="E.sc" horiz-adv-x="538" 
d="M484 0h-396v574h391v-69h-310v-184h256v-68h-256v-185h315v-68z" />
    <glyph glyph-name="uni20A9.onum" horiz-adv-x="911" 
d="M585 0l-130 465l-130 -465h-84l-59 198h-121v51h106l-28 93h-78v51h63l-53 181h90l47 -181h161l50 181h71l50 -181h162l47 181h89l-53 -181h64v-51h-79l-27 -93h106v-51h-121l-58 -198h-85zM554 342l25 -93h85l24 93h-134zM222 342l24 -93h84l25 93h-133zM593 198
l30 -107l28 107h-58zM260 198l27 -105l29 105h-56z" />
    </font>
</defs>
</svg>
