<?xml version="1.0" encoding="UTF-8"?>
<!DOCTYPE svg PUBLIC "-//W3C//DTD SVG 1.1//EN" "http://www.w3.org/Graphics/SVG/1.1/DTD/svg11.dtd">
<!-- Creator: CorelDRAW 2018 (64-Bit) -->
<svg xmlns="http://www.w3.org/2000/svg" xml:space="preserve" width="2550px" height="2267px" version="1.1" style="shape-rendering:geometricPrecision; text-rendering:geometricPrecision; image-rendering:optimizeQuality; fill-rule:evenodd; clip-rule:evenodd"
viewBox="0 0 25500 22666.7"
 xmlns:xlink="http://www.w3.org/1999/xlink">
 <defs>
  <style type="text/css">
   <![CDATA[
    .fil0 {fill:#B5121B}
   ]]>
  </style>
 </defs>
 <g id="Layer_x0020_1">
  <metadata id="CorelCorpID_0Corel-Layer"/>
  <path class="fil0" d="M25500 1062.5l0 5666c0,950.1 -1149.3,1415.7 -1813.8,751.3l-1580.8 -1580.9 -10781 10781c-414.9,414.9 -1087.6,414.9 -1502.6,0l-1001.7 -1001.7c-414.9,-415 -414.9,-1087.7 0,-1502.6l10781.1 -10781.1 -1580.6 -1580.7c-667.2,-667.2 -194.7,-1813.8 751.3,-1813.8l5665.6 0c586.8,0 1062.5,475.7 1062.5,1062.5l0 0zm-7480.5 10925.8l-708.3 708.3c-199.1,199.1 -311.2,469.5 -311.2,751.3 0,0 0,0 0,0l0 6385.4 -14166.7 0 0 -14166.6 11687.5 0c281.7,0 552.1,-112.1 751.2,-311.2l708.4 -708.4c669.4,-669.3 195.3,-1813.8 -751.2,-1813.8l-13104.2 0c-1173.6,0 -2125,951.4 -2125,2125l0 15583.4c0,1173.6 951.4,2125 2125,2125l15583.3 0c1173.7,0 2125,-951.4 2125,-2125l0 -7802.1c0,-946.6 -1144.5,-1420.7 -1813.8,-751.3z"/>
 </g>
</svg>
