<?xml version="1.0" encoding="UTF-8"?>
<!DOCTYPE svg PUBLIC "-//W3C//DTD SVG 1.1//EN" "http://www.w3.org/Graphics/SVG/1.1/DTD/svg11.dtd">
<!-- Creator: CorelDRAW 2018 (64-Bit) -->
<svg xmlns="http://www.w3.org/2000/svg" xml:space="preserve" width="2550px" height="2550px" version="1.1" style="shape-rendering:geometricPrecision; text-rendering:geometricPrecision; image-rendering:optimizeQuality; fill-rule:evenodd; clip-rule:evenodd"
viewBox="0 0 25500 25500"
 xmlns:xlink="http://www.w3.org/1999/xlink">
 <defs>
  <style type="text/css">
   <![CDATA[
    .fil0 {fill:#B5121B}
   ]]>
  </style>
 </defs>
 <g id="Layer_x0020_1">
  <metadata id="CorelCorpID_0Corel-Layer"/>
  <path class="fil0" d="M15140.6 2390.6c0,1320.3 -1070.3,2390.6 -2390.6,2390.6 -1320.3,0 -2390.6,-1070.3 -2390.6,-2390.6 0,-1320.3 1070.3,-2390.6 2390.6,-2390.6 1320.3,0 2390.6,1070.3 2390.6,2390.6zm-2390.6 18328.2c-1320.3,0 -2390.6,1070.3 -2390.6,2390.6 0,1320.3 1070.3,2390.6 2390.6,2390.6 1320.3,0 2390.6,-1070.3 2390.6,-2390.6 0,-1320.3 -1070.3,-2390.6 -2390.6,-2390.6zm10359.4 -10359.4c-1320.3,0 -2390.6,1070.3 -2390.6,2390.6 0,1320.3 1070.3,2390.6 2390.6,2390.6 1320.3,0 2390.6,-1070.3 2390.6,-2390.6 0,-1320.3 -1070.3,-2390.6 -2390.6,-2390.6zm-18328.2 2390.6c0,-1320.3 -1070.3,-2390.6 -2390.6,-2390.6 -1320.3,0 -2390.6,1070.3 -2390.6,2390.6 0,1320.3 1070.3,2390.6 2390.6,2390.6 1320.3,0 2390.6,-1070.3 2390.6,-2390.6zm643.6 4934.6c-1320.3,0 -2390.6,1070.3 -2390.6,2390.6 0,1320.3 1070.3,2390.6 2390.6,2390.6 1320.3,0 2390.6,-1070.3 2390.6,-2390.6 0,-1320.3 -1070.3,-2390.6 -2390.6,-2390.6zm14650.4 0c-1320.3,0 -2390.6,1070.3 -2390.6,2390.6 0,1320.3 1070.3,2390.6 2390.6,2390.6 1320.3,0 2390.6,-1070.3 2390.6,-2390.6 0,-1320.3 -1070.3,-2390.6 -2390.6,-2390.6zm-14650.4 -14650.4c-1320.3,0 -2390.6,1070.3 -2390.6,2390.6 0,1320.3 1070.3,2390.6 2390.6,2390.6 1320.3,0 2390.6,-1070.3 2390.6,-2390.6 0,-1320.3 -1070.3,-2390.6 -2390.6,-2390.6z"/>
 </g>
</svg>
