<?xml version="1.0" encoding="utf-8"?>
<!-- Generator: Adobe Illustrator 22.1.0, SVG Export Plug-In . SVG Version: 6.00 Build 0)  -->
<svg version="1.1" id="Layer_1" xmlns="http://www.w3.org/2000/svg" xmlns:xlink="http://www.w3.org/1999/xlink" x="0px" y="0px"
	 width="96px" height="95.9px" viewBox="0 0 96 95.9" style="enable-background:new 0 0 96 95.9;" xml:space="preserve">
<style type="text/css">
	.st0{fill:#FFFFFF;}
</style>
<path class="st0" d="M48,4c24.3,0,44,19.7,44,44S72.3,92,48,92S4,72.3,4,48S23.7,4,48,4z M48,0C21.5,0,0,21.5,0,48s21.5,48,48,48
	s48-21.5,48-48S74.5,0,48,0L48,0z"/>
<path class="st0" d="M34,70.8c-0.3,0-0.7-0.1-1-0.3c-0.6-0.4-1-1-1-1.7V27.2c0-0.7,0.4-1.4,1-1.7c0.6-0.4,1.4-0.4,2,0l36,20.8
	c0.6,0.4,1,1,1,1.7s-0.4,1.4-1,1.7L35,70.5C34.7,70.7,34.3,70.8,34,70.8z M36,30.7v34.6L66,48L36,30.7z"/>
</svg>
