<?xml version="1.0" encoding="utf-8"?>
<!-- Generator: Adobe Illustrator 22.1.0, SVG Export Plug-In . SVG Version: 6.00 Build 0)  -->
<svg version="1.1" id="Isolation_Mode" xmlns="http://www.w3.org/2000/svg" xmlns:xlink="http://www.w3.org/1999/xlink" x="0px"
	 y="0px" width="112.8px" height="8px" viewBox="0 0 112.8 8" style="enable-background:new 0 0 112.8 8;" xml:space="preserve">
<style type="text/css">
	.st0{opacity:0.5;}
	.st1{clip-path:url(#SVGID_2_);}
	.st2{clip-path:url(#SVGID_4_);fill:none;stroke:#00AA73;stroke-width:0.435;}
	.st3{clip-path:url(#SVGID_4_);fill:none;stroke:#FFFFFF;stroke-width:0.435;}
</style>
<g class="st0">
	<g>
		<defs>
			<rect id="SVGID_1_" x="-2.6" y="-1" width="118.1" height="10"/>
		</defs>
		<clipPath id="SVGID_2_">
			<use xlink:href="#SVGID_1_"  style="overflow:visible;"/>
		</clipPath>
		<g class="st1">
			<defs>
				<rect id="SVGID_3_" x="-1.6" width="116.1" height="8"/>
			</defs>
			<clipPath id="SVGID_4_">
				<use xlink:href="#SVGID_3_"  style="overflow:visible;"/>
			</clipPath>
			<line class="st2" x1="-3.3" y1="-87" x2="-56.5" y2="96"/>
			<line class="st2" x1="0.7" y1="-87" x2="-52.6" y2="96"/>
			<line class="st2" x1="4.6" y1="-87" x2="-48.7" y2="96"/>
			<line class="st2" x1="8.5" y1="-87" x2="-44.8" y2="96"/>
			<line class="st2" x1="12.4" y1="-87" x2="-40.9" y2="96"/>
			<line class="st2" x1="16.3" y1="-87" x2="-36.9" y2="96"/>
			<line class="st2" x1="20.2" y1="-87" x2="-33" y2="96"/>
			<line class="st3" x1="28.1" y1="-87" x2="-25.2" y2="96"/>
			<line class="st3" x1="32" y1="-87" x2="-21.3" y2="96"/>
			<line class="st3" x1="35.9" y1="-87" x2="-17.4" y2="96"/>
			<line class="st3" x1="39.8" y1="-87" x2="-13.5" y2="96"/>
			<line class="st3" x1="43.7" y1="-87" x2="-9.5" y2="96"/>
			<line class="st3" x1="47.6" y1="-87" x2="-5.6" y2="96"/>
			<line class="st3" x1="51.5" y1="-87" x2="-1.7" y2="96"/>
			<line class="st3" x1="55.5" y1="-87" x2="2.2" y2="96"/>
			<line class="st3" x1="59.4" y1="-87" x2="6.1" y2="96"/>
			<line class="st3" x1="63.3" y1="-87" x2="10" y2="96"/>
			<line class="st3" x1="67.2" y1="-87" x2="13.9" y2="96"/>
			<line class="st3" x1="71.1" y1="-87" x2="17.9" y2="96"/>
			<line class="st3" x1="75" y1="-87" x2="21.8" y2="96"/>
			<line class="st3" x1="78.9" y1="-87" x2="25.7" y2="96"/>
			<line class="st3" x1="82.9" y1="-87" x2="29.6" y2="96"/>
			<line class="st3" x1="86.8" y1="-87" x2="33.5" y2="96"/>
			<line class="st3" x1="90.7" y1="-87" x2="37.4" y2="96"/>
			<line class="st3" x1="94.6" y1="-87" x2="41.3" y2="96"/>
			<line class="st3" x1="98.5" y1="-87" x2="45.3" y2="96"/>
			<line class="st3" x1="102.4" y1="-87" x2="49.2" y2="96"/>
			<line class="st3" x1="106.3" y1="-87" x2="53.1" y2="96"/>
			<line class="st3" x1="110.3" y1="-87" x2="57" y2="96"/>
			<line class="st3" x1="114.2" y1="-87" x2="60.9" y2="96"/>
			<line class="st3" x1="118.1" y1="-87" x2="64.8" y2="96"/>
			<line class="st3" x1="122" y1="-87" x2="68.7" y2="96"/>
			<line class="st3" x1="125.9" y1="-87" x2="72.7" y2="96"/>
			<line class="st3" x1="129.8" y1="-87" x2="76.6" y2="96"/>
			<line class="st3" x1="133.7" y1="-87" x2="80.5" y2="96"/>
			<line class="st3" x1="137.7" y1="-87" x2="84.4" y2="96"/>
			<line class="st2" x1="145.5" y1="-87" x2="92.2" y2="96"/>
			<line class="st2" x1="149.4" y1="-87" x2="96.1" y2="96"/>
			<line class="st2" x1="153.3" y1="-87" x2="100.1" y2="96"/>
			<line class="st2" x1="157.2" y1="-87" x2="104" y2="96"/>
			<line class="st2" x1="161.1" y1="-87" x2="107.9" y2="96"/>
			<line class="st2" x1="165.1" y1="-87" x2="111.8" y2="96"/>
		</g>
	</g>
</g>
</svg>
