<?xml version="1.0" standalone="no"?>
<!DOCTYPE svg PUBLIC "-//W3C//DTD SVG 1.1//EN" "http://www.w3.org/Graphics/SVG/1.1/DTD/svg11.dtd" >
<svg xmlns="http://www.w3.org/2000/svg" xmlns:xlink="http://www.w3.org/1999/xlink" version="1.1">
<metadata>
Created by FontForge 20160405 at Thu Jun  7 08:28:24 2018
 By www-data
Copyright (c) 2012 by Yellow Design Studio. All rights reserved.
</metadata>
<defs>
<font id="VerbSemibold-Italic" horiz-adv-x="630" >
  <font-face 
    font-family="Verb Semibold"
    font-weight="600"
    font-style="italic"
    font-stretch="normal"
    units-per-em="1000"
    panose-1="2 0 7 0 3 0 0 9 0 4"
    ascent="800"
    descent="-200"
    x-height="525"
    cap-height="700"
    bbox="-172 -288 1375 953"
    underline-thickness="50"
    underline-position="-100"
    stemh="71"
    stemv="123"
    unicode-range="U+0020-FB06"
  />
<missing-glyph horiz-adv-x="265" 
 />
    <glyph glyph-name="f_f" unicode="ff" horiz-adv-x="742" 
d="M421 433l16 92h70l8 42c18 110 58 162 154 162c67 0 143 -30 176 -47l-55 -81c-20 7 -71 21 -98 21s-46 -16 -53 -53l-8 -44h133l-16 -92h-133l-70 -396c-29 -160 -37 -211 -245 -258l-27 95c123 37 128 54 146 155l72 404h-70zM51 433l16 92h70l8 42
c18 110 58 162 154 162c67 0 143 -30 176 -47l-47 -81c-22 7 -77 21 -106 21c-27 0 -46 -16 -53 -53l-8 -44h123l-16 -92h-123l-70 -396c-29 -160 -37 -211 -245 -258l-27 95c123 37 128 54 146 155l72 404h-70z" />
    <glyph glyph-name="f_i" unicode="fi" horiz-adv-x="632" 
d="M51 433l16 92h70l8 42c18 110 59 162 152 162c49 0 115 -25 144 -38l-44 -84c-19 6 -54 15 -75 15c-27 0 -46 -16 -53 -53l-8 -44h133l-16 -92h-133l-70 -396c-29 -160 -37 -211 -245 -258l-27 95c123 37 128 54 146 155l72 404h-70zM511 0h-124l93 525h124zM492 610
l20 116h131l-19 -116h-132z" />
    <glyph glyph-name="f_l" unicode="fl" horiz-adv-x="638" 
d="M51 433l16 92h70l8 42c18 110 59 162 152 162c49 0 115 -25 144 -38l-44 -84c-19 6 -54 15 -75 15c-27 0 -46 -16 -53 -53l-8 -44h133l-16 -92h-133l-70 -396c-29 -160 -37 -211 -245 -258l-27 95c123 37 128 54 146 155l72 404h-70zM514 0h-124l129 729h124z" />
    <glyph glyph-name="f_f_i" unicode="ffi" horiz-adv-x="1002" 
d="M51 433l16 92h70l8 42c18 110 58 162 154 162c67 0 143 -30 176 -47l-47 -81c-22 7 -77 21 -106 21c-27 0 -46 -16 -53 -53l-8 -44h123l-16 -92h-123l-70 -396c-29 -160 -37 -211 -245 -258l-27 95c123 37 128 54 146 155l72 404h-70zM421 433l16 92h70l8 42
c18 110 59 162 152 162c49 0 115 -25 144 -38l-44 -84c-19 6 -54 15 -75 15c-27 0 -46 -16 -53 -53l-8 -44h133l-16 -92h-133l-70 -396c-29 -160 -37 -211 -245 -258l-27 95c123 37 128 54 146 155l72 404h-70zM881 0h-124l93 525h124zM862 610l20 116h131l-19 -116h-132z
" />
    <glyph glyph-name="f_f_l" unicode="ffl" horiz-adv-x="1008" 
d="M51 433l16 92h70l8 42c18 110 58 162 154 162c67 0 143 -30 176 -47l-47 -81c-22 7 -77 21 -106 21c-27 0 -46 -16 -53 -53l-8 -44h123l-16 -92h-123l-70 -396c-29 -160 -37 -211 -245 -258l-27 95c123 37 128 54 146 155l72 404h-70zM421 433l16 92h70l8 42
c18 110 59 162 152 162c49 0 115 -25 144 -38l-44 -84c-19 6 -54 15 -75 15c-27 0 -46 -16 -53 -53l-8 -44h133l-16 -92h-133l-70 -396c-29 -160 -37 -211 -245 -258l-27 95c123 37 128 54 146 155l72 404h-70zM884 0h-124l129 729h124z" />
    <glyph glyph-name="f_f_b" unicode="ffb" horiz-adv-x="1357" 
d="M757 0l129 729h124l-47 -264c43 32 108 71 182 71c85 0 169 -49 169 -192c0 -208 -99 -355 -246 -355c-84 0 -138 43 -176 75l-11 -64h-124zM51 433l16 92h70l8 42c18 110 58 162 154 162c67 0 143 -30 176 -47l-47 -81c-22 7 -77 21 -106 21c-27 0 -46 -16 -53 -53
l-8 -44h123l-16 -92h-123l-70 -396c-29 -160 -37 -211 -245 -258l-27 95c123 37 128 54 146 155l72 404h-70zM421 433l16 92h70l8 42c18 110 59 162 152 162c49 0 115 -25 144 -38l-44 -84c-19 6 -54 15 -75 15c-27 0 -46 -16 -53 -53l-8 -44h133l-16 -92h-133l-70 -396
c-29 -160 -37 -211 -245 -258l-27 95c123 37 128 54 146 155l72 404h-70zM1099 436c-58 0 -109 -37 -154 -75l-36 -202c34 -38 80 -70 132 -70c92 0 146 119 146 241c0 66 -29 106 -88 106z" />
    <glyph glyph-name="f_f_h" unicode="ffh" horiz-adv-x="1356" 
d="M1010 729l-48 -268c46 31 127 75 206 75c113 0 154 -73 135 -178l-63 -358h-124l61 345c10 53 1 93 -57 93s-136 -43 -175 -73l-64 -365h-124l129 729h124zM51 433l16 92h70l8 42c18 110 58 162 154 162c67 0 143 -30 176 -47l-47 -81c-22 7 -77 21 -106 21
c-27 0 -46 -16 -53 -53l-8 -44h123l-16 -92h-123l-70 -396c-29 -160 -37 -211 -245 -258l-27 95c123 37 128 54 146 155l72 404h-70zM421 433l16 92h70l8 42c18 110 59 162 152 162c49 0 115 -25 144 -38l-44 -84c-19 6 -54 15 -75 15c-27 0 -46 -16 -53 -53l-8 -44h133
l-16 -92h-133l-70 -396c-29 -160 -37 -211 -245 -258l-27 95c123 37 128 54 146 155l72 404h-70z" />
    <glyph glyph-name="f_b" unicode="fb" horiz-adv-x="987" 
d="M387 0l129 729h124l-47 -264c43 32 108 71 182 71c85 0 169 -49 169 -192c0 -208 -99 -355 -246 -355c-84 0 -138 43 -176 75l-11 -64h-124zM51 433l16 92h70l8 42c18 110 59 162 152 162c49 0 115 -25 144 -38l-44 -84c-19 6 -54 15 -75 15c-27 0 -46 -16 -53 -53
l-8 -44h133l-16 -92h-133l-70 -396c-29 -160 -37 -211 -245 -258l-27 95c123 37 128 54 146 155l72 404h-70zM729 436c-58 0 -109 -37 -154 -75l-36 -202c34 -38 80 -70 132 -70c92 0 146 119 146 241c0 66 -29 106 -88 106z" />
    <glyph glyph-name="f_f_j" unicode="ffj" horiz-adv-x="1002" 
d="M51 433l16 92h70l8 42c18 110 58 162 154 162c67 0 143 -30 176 -47l-47 -81c-22 7 -77 21 -106 21c-27 0 -46 -16 -53 -53l-8 -44h123l-16 -92h-123l-70 -396c-29 -160 -37 -211 -245 -258l-27 95c123 37 128 54 146 155l72 404h-70zM421 433l16 92h70l8 42
c18 110 59 162 152 162c49 0 115 -25 144 -38l-44 -84c-19 6 -54 15 -75 15c-27 0 -46 -16 -53 -53l-8 -44h133l-16 -92h-133l-70 -396c-29 -160 -37 -211 -245 -258l-27 95c123 37 128 54 146 155l72 404h-70zM974 525l-94 -523c-22 -126 -30 -176 -237 -223l-27 95
c122 37 128 52 139 119l95 532h124zM862 610l20 116h131l-19 -116h-132z" />
    <glyph glyph-name="f_f_k" unicode="ffk" horiz-adv-x="1291" 
d="M1300 525l-218 -214l155 -311h-125l-114 229l-93 -92l-24 -137h-124l129 729h124l-76 -427l215 223h151zM51 433l16 92h70l8 42c18 110 58 162 154 162c67 0 143 -30 176 -47l-47 -81c-22 7 -77 21 -106 21c-27 0 -46 -16 -53 -53l-8 -44h123l-16 -92h-123l-70 -396
c-29 -160 -37 -211 -245 -258l-27 95c123 37 128 54 146 155l72 404h-70zM421 433l16 92h70l8 42c18 110 59 162 152 162c49 0 115 -25 144 -38l-44 -84c-19 6 -54 15 -75 15c-27 0 -46 -16 -53 -53l-8 -44h133l-16 -92h-133l-70 -396c-29 -160 -37 -211 -245 -258l-27 95
c123 37 128 54 146 155l72 404h-70z" />
    <glyph glyph-name="f_f_t" unicode="fft" horiz-adv-x="1139" 
d="M51 433l16 92h70l8 42c18 110 58 162 154 162c67 0 143 -30 176 -47l-47 -81c-22 7 -77 21 -106 21c-27 0 -46 -16 -53 -53l-8 -44h123l-16 -92h-123l-70 -396c-29 -160 -37 -211 -245 -258l-27 95c123 37 128 54 146 155l72 404h-70zM421 433l16 92h70l8 42
c18 110 58 162 154 162c67 0 143 -30 176 -47l-55 -81c-20 7 -71 21 -98 21s-46 -16 -53 -53l-8 -44h123l-16 -92h-123l-70 -396c-29 -160 -37 -211 -245 -258l-27 95c123 37 128 54 146 155l72 404h-70zM788 433l16 92h71l24 132l126 20l-27 -152h142l-15 -92h-144
l-50 -285c-8 -42 11 -51 34 -51c26 0 72 16 92 24l31 -97c-32 -11 -106 -35 -162 -35c-86 0 -137 54 -116 173l48 271h-70z" />
    <glyph glyph-name="f_h" unicode="fh" horiz-adv-x="986" 
d="M640 729l-48 -268c46 31 127 75 206 75c113 0 154 -73 135 -178l-63 -358h-124l61 345c10 53 1 93 -57 93s-136 -43 -175 -73l-64 -365h-124l129 729h124zM51 433l16 92h70l8 42c18 110 59 162 152 162c49 0 115 -25 144 -38l-44 -84c-19 6 -54 15 -75 15
c-27 0 -46 -16 -53 -53l-8 -44h133l-16 -92h-133l-70 -396c-29 -160 -37 -211 -245 -258l-27 95c123 37 128 54 146 155l72 404h-70z" />
    <glyph glyph-name="f_j" unicode="fj" horiz-adv-x="632" 
d="M51 433l16 92h70l8 42c18 110 59 162 152 162c49 0 115 -25 144 -38l-44 -84c-19 6 -54 15 -75 15c-27 0 -46 -16 -53 -53l-8 -44h133l-16 -92h-133l-70 -396c-29 -160 -37 -211 -245 -258l-27 95c123 37 128 54 146 155l72 404h-70zM604 525l-94 -523
c-22 -126 -30 -176 -237 -223l-27 95c122 37 128 52 139 119l95 532h124zM492 610l20 116h131l-19 -116h-132z" />
    <glyph glyph-name="f_k" unicode="fk" horiz-adv-x="921" 
d="M930 525l-218 -214l155 -311h-125l-114 229l-93 -92l-24 -137h-124l129 729h124l-76 -427l215 223h151zM51 433l16 92h70l8 42c18 110 59 162 152 162c49 0 115 -25 144 -38l-44 -84c-19 6 -54 15 -75 15c-27 0 -46 -16 -53 -53l-8 -44h133l-16 -92h-133l-70 -396
c-29 -160 -37 -211 -245 -258l-27 95c123 37 128 54 146 155l72 404h-70z" />
    <glyph glyph-name="f_t" unicode="ft" horiz-adv-x="769" 
d="M51 433l16 92h70l8 42c18 110 58 162 154 162c67 0 143 -30 176 -47l-55 -81c-20 7 -71 21 -98 21s-46 -16 -53 -53l-8 -44h123l-16 -92h-123l-70 -396c-29 -160 -37 -211 -245 -258l-27 95c123 37 128 54 146 155l72 404h-70zM418 433l16 92h71l24 132l126 20l-27 -152
h142l-15 -92h-144l-50 -285c-8 -42 11 -51 34 -51c26 0 72 16 92 24l31 -97c-32 -11 -106 -35 -162 -35c-86 0 -137 54 -116 173l48 271h-70z" />
    <glyph glyph-name=".notdef" horiz-adv-x="265" 
 />
    <glyph glyph-name="space" unicode=" " horiz-adv-x="274" 
 />
    <glyph glyph-name="exclam" unicode="!" horiz-adv-x="276" 
d="M20 0l24 140h131l-23 -140h-132zM284 700l-122 -480h-75l47 480h150z" />
    <glyph glyph-name="quotedbl" unicode="&#x22;" horiz-adv-x="424" 
d="M442 700l-69 -269h-78l25 269h122zM240 700l-68 -269h-79l26 269h121z" />
    <glyph glyph-name="numbersign" unicode="#" horiz-adv-x="738" 
d="M342 0l54 165h-159l-54 -165h-99l54 165h-119l16 94h134l59 181h-119l16 95h134l55 165h99l-55 -165h160l55 165h98l-55 -165h121l-16 -95h-136l-60 -181h122l-16 -94h-137l-54 -165h-98zM327 440l-59 -181h159l60 181h-160z" />
    <glyph glyph-name="dollar" unicode="$" horiz-adv-x="638" 
d="M296 -100h-91l17 98c-89 16 -168 56 -219 91l69 88c44 -27 107 -58 169 -73l35 201l-24 10c-85 35 -161 81 -161 187c0 120 100 208 257 209l16 90h91l-18 -99c75 -15 142 -46 194 -75l-68 -87c-39 22 -94 44 -145 55l-33 -187l22 -9c85 -35 171 -82 171 -195
c0 -128 -112 -214 -267 -215zM441 190c0 40 -33 62 -80 82l-31 -175c63 7 111 41 111 93zM229 513c0 -38 27 -55 71 -73l29 161c-55 -7 -100 -36 -100 -88z" />
    <glyph glyph-name="percent" unicode="%" horiz-adv-x="1000" 
d="M280 711c112 0 180 -62 180 -157c0 -120 -76 -218 -205 -218c-112 0 -181 61 -181 156c0 120 78 219 206 219zM259 412c67 0 105 72 105 134c0 50 -20 89 -86 89c-69 0 -107 -73 -107 -135c0 -49 20 -88 88 -88zM764 364c112 0 180 -62 180 -157
c0 -120 -76 -218 -205 -218c-112 0 -181 61 -181 156c0 120 78 219 206 219zM743 65c67 0 105 72 105 134c0 50 -20 89 -86 89c-69 0 -107 -73 -107 -135c0 -49 20 -88 88 -88zM802 700l-485 -700h-100l484 700h101z" />
    <glyph glyph-name="ampersand" unicode="&#x26;" horiz-adv-x="709" 
d="M666 0h-134l-57 68c-62 -47 -137 -79 -226 -79c-127 0 -213 65 -213 172c0 106 88 168 180 220c-37 48 -63 93 -63 153c0 111 93 177 205 177c106 0 181 -58 181 -146c0 -91 -84 -152 -172 -206l111 -134c34 45 60 96 78 144h125c-19 -62 -62 -153 -131 -231zM255 83
c55 0 108 26 154 66l-130 156c-67 -42 -120 -85 -120 -141c0 -39 26 -81 96 -81zM266 530c0 -36 18 -69 41 -99c65 37 117 74 117 127c0 32 -20 62 -68 62c-59 0 -90 -43 -90 -90z" />
    <glyph glyph-name="quotesingle" unicode="'" horiz-adv-x="223" 
d="M240 700l-68 -269h-79l26 269h121z" />
    <glyph glyph-name="parenleft" unicode="(" horiz-adv-x="321" 
d="M26 76l98 544c23 131 38 174 238 219l23 -77c-106 -33 -117 -52 -129 -118l-106 -593c-13 -74 -11 -91 74 -123l-34 -71c-184 45 -186 99 -164 219z" />
    <glyph glyph-name="parenright" unicode=")" horiz-adv-x="322" 
d="M311 620l-97 -544c-23 -132 -38 -175 -239 -219l-23 77c106 33 118 52 129 117l107 593c13 75 11 91 -74 124l34 71c183 -46 185 -99 163 -219z" />
    <glyph glyph-name="asterisk" unicode="*" horiz-adv-x="481" 
d="M190 330l61 149l-136 -86l-36 99l159 21l-142 76l69 81l98 -128l-7 159l103 -18l-60 -147l135 86l36 -100l-155 -22l138 -75l-68 -80l-96 123l5 -155z" />
    <glyph glyph-name="plus" unicode="+" 
d="M312 566h97l-32 -186h204l-15 -94h-206l-32 -186h-97l32 186h-204l16 94h205z" />
    <glyph glyph-name="comma" unicode="," horiz-adv-x="258" 
d="M11 0l25 150h130l-17 -164l-133 -138l-28 43l82 109h-59z" />
    <glyph glyph-name="hyphen" unicode="-" horiz-adv-x="432" 
d="M356 234h-304l18 101h304z" />
    <glyph glyph-name="period" unicode="." horiz-adv-x="255" 
d="M11 0l25 150h131l-25 -150h-131z" />
    <glyph glyph-name="slash" unicode="/" horiz-adv-x="476" 
d="M537 790l-479 -880h-100l479 880h100z" />
    <glyph glyph-name="zero" unicode="0" horiz-adv-x="680" 
d="M377 711c201 0 265 -147 265 -286c0 -150 -69 -437 -322 -437c-200 0 -264 147 -264 286c0 150 69 437 321 437zM320 90c149 0 193 251 192 347c0 80 -22 172 -135 172c-149 0 -193 -251 -193 -347c1 -80 23 -172 136 -172z" />
    <glyph glyph-name="one" unicode="1" horiz-adv-x="393" 
d="M257 0h-129l103 570l-130 -63l-40 91l199 102h120z" />
    <glyph glyph-name="two" unicode="2" horiz-adv-x="599" 
d="M511 107l-17 -107h-506l11 64c27 158 144 222 269 295c114 66 192 109 191 174c-1 41 -36 70 -101 70c-73 0 -154 -40 -193 -64l-48 91c50 32 142 81 256 81c139 0 216 -74 216 -175c0 -140 -151 -215 -281 -287c-97 -53 -135 -82 -147 -142h350z" />
    <glyph glyph-name="three" unicode="3" horiz-adv-x="607" 
d="M-13 82l65 82c58 -35 125 -67 201 -67c97 0 157 49 157 115c0 82 -91 109 -184 109h-30l18 109h35c85 0 188 37 188 108c0 40 -33 65 -92 65c-67 0 -144 -34 -186 -58l-42 89c29 18 127 77 251 77c135 0 202 -69 202 -153c0 -73 -53 -140 -156 -178
c71 -20 127 -85 127 -171c0 -102 -80 -220 -276 -220c-143 0 -239 66 -278 93z" />
    <glyph glyph-name="four" unicode="4" horiz-adv-x="655" 
d="M336 0l25 141h-362l16 92l403 467h170l-79 -451h105l-18 -108h-106l-25 -141h-129zM158 249h222l58 330z" />
    <glyph glyph-name="five" unicode="5" horiz-adv-x="598" 
d="M77 350l98 350h418l-18 -108h-310l-39 -154c30 9 61 15 98 15c142 0 217 -94 217 -209c0 -134 -105 -255 -289 -255c-128 0 -214 61 -256 93l71 82c23 -18 91 -65 173 -65c83 0 169 50 169 140c0 63 -41 109 -121 109c-58 0 -105 -24 -141 -43z" />
    <glyph glyph-name="six" unicode="6" horiz-adv-x="634" 
d="M504 605c-130 0 -250 -78 -302 -214c31 26 86 59 169 59c135 0 212 -92 212 -202c0 -134 -98 -259 -275 -259c-175 0 -261 125 -261 258c0 256 193 464 453 464c74 0 118 -18 118 -18l-47 -95s-28 7 -67 7zM334 352c-74 0 -135 -49 -157 -83c-1 -10 -1 -20 -1 -30
c0 -74 42 -145 128 -145c98 0 150 75 150 149c0 56 -36 109 -120 109z" />
    <glyph glyph-name="seven" unicode="7" horiz-adv-x="520" 
d="M553 601c0 0 -305 -309 -357 -601h-137c48 274 316 565 342 592h-325l17 108h476z" />
    <glyph glyph-name="eight" unicode="8" horiz-adv-x="644" 
d="M22 171c0 116 103 177 197 214c-51 32 -89 76 -89 142c0 108 99 184 251 184c140 0 224 -65 224 -160c0 -89 -75 -143 -152 -177c66 -34 129 -84 129 -175c0 -126 -126 -210 -303 -210c-158 0 -257 66 -257 182zM451 205c0 62 -63 100 -118 125
c-85 -28 -179 -68 -179 -148c0 -59 49 -94 126 -94c91 0 171 48 171 117zM254 515c0 -49 44 -75 84 -92c71 22 139 53 139 111c0 42 -34 81 -97 81c-71 0 -126 -48 -126 -100z" />
    <glyph glyph-name="nine" unicode="9" horiz-adv-x="634" 
d="M147 94c130 0 250 78 301 214c-30 -25 -85 -58 -168 -58c-135 0 -212 91 -212 202c0 133 98 259 275 259c175 0 261 -125 261 -258c0 -256 -193 -464 -453 -464c-74 0 -118 17 -118 17l47 95s28 -7 67 -7zM317 347c73 0 134 49 157 82c0 10 1 20 1 31
c0 75 -42 145 -128 145c-98 0 -150 -75 -150 -148c0 -56 36 -110 120 -110z" />
    <glyph glyph-name="colon" unicode=":" horiz-adv-x="266" 
d="M71 323l26 150h131l-25 -150h-132zM14 0l25 150h131l-25 -150h-131z" />
    <glyph glyph-name="semicolon" unicode=";" horiz-adv-x="276" 
d="M76 323l24 150h132l-25 -150h-131zM18 0l25 150h130l-17 -164l-133 -138l-28 43l82 109h-59z" />
    <glyph glyph-name="less" unicode="&#x3c;" 
d="M47 290l15 87l541 206l-18 -112l-400 -144l347 -143l-17 -100z" />
    <glyph glyph-name="equal" unicode="=" 
d="M75 380l15 95h506l-15 -95h-506zM42 194l16 94h506l-15 -94h-507z" />
    <glyph glyph-name="greater" unicode="&#x3e;" 
d="M594 377l-14 -87l-542 -206l18 112l400 143l-347 144l17 100z" />
    <glyph glyph-name="question" unicode="?" horiz-adv-x="528" 
d="M96 0l23 140h132l-24 -140h-131zM529 546c0 -131 -126 -196 -262 -223l-26 -103h-81l21 173c131 25 219 63 219 136c0 49 -37 74 -96 74c-60 0 -117 -27 -171 -56l-44 93c46 27 134 71 237 71c117 0 203 -59 203 -165z" />
    <glyph glyph-name="at" unicode="@" horiz-adv-x="957" 
d="M395 -130c117 0 193 44 193 44l27 -41s-90 -52 -223 -52c-222 0 -356 158 -356 369c0 263 196 496 518 496c275 0 382 -182 359 -382c-17 -131 -75 -331 -247 -331c-105 0 -118 73 -116 119c-38 -31 -100 -69 -172 -69c-75 0 -132 54 -132 131c0 114 85 168 180 168
c57 0 127 -18 160 -25c2 16 5 31 8 48c11 62 -5 88 -71 88c-48 0 -112 -18 -171 -41l-24 70c71 27 149 44 210 44c116 0 167 -50 147 -164l-32 -177c-13 -74 -21 -131 41 -131c67 0 150 106 167 270c21 164 -52 333 -309 333c-290 0 -463 -213 -463 -449
c0 -185 111 -318 306 -318zM561 162c4 22 10 50 16 85c-28 6 -81 18 -122 18c-83 0 -112 -51 -112 -100c0 -48 30 -69 72 -69c43 0 100 28 146 66z" />
    <glyph glyph-name="A" unicode="A" horiz-adv-x="695" 
d="M494 0l-23 149h-285l-75 -149h-149l386 700h142l140 -700h-136zM404 581l-166 -329h217z" />
    <glyph glyph-name="B" unicode="B" horiz-adv-x="684" 
d="M624 214c0 -136 -97 -214 -264 -214h-331l123 700h262c146 0 231 -61 231 -158c0 -105 -95 -161 -153 -170c46 -8 132 -50 132 -158zM498 227c0 60 -50 93 -135 93h-149l-40 -220h160c106 0 164 51 164 127zM514 523c0 44 -34 76 -118 76h-133l-34 -185h139
c67 0 146 33 146 109z" />
    <glyph glyph-name="C" unicode="C" horiz-adv-x="652" 
d="M677 602l-71 -90c-73 50 -130 83 -195 83c-132 0 -225 -141 -225 -314c0 -120 47 -177 123 -177c61 0 143 35 223 81l57 -101c-97 -52 -199 -95 -307 -95c-132 0 -228 85 -228 283c0 275 154 439 344 439c117 0 202 -58 279 -109z" />
    <glyph glyph-name="D" unicode="D" horiz-adv-x="715" 
d="M679 427c0 -183 -102 -427 -395 -427h-255l123 700h206c220 0 321 -106 321 -273zM549 425c0 121 -76 165 -209 165h-78l-87 -481h90c187 0 284 144 284 316z" />
    <glyph glyph-name="E" unicode="E" horiz-adv-x="607" 
d="M507 0h-478l122 700h473l-18 -110h-344l-35 -186h283l-18 -108h-283l-34 -187h350z" />
    <glyph glyph-name="F" unicode="F" horiz-adv-x="581" 
d="M606 590h-344l-35 -187h273l-17 -107h-274l-52 -296h-128l122 700h473z" />
    <glyph glyph-name="G" unicode="G" horiz-adv-x="708" 
d="M474 0l13 75c-60 -47 -128 -86 -209 -86c-126 0 -224 88 -224 277c0 293 161 445 345 445c121 0 217 -62 292 -114l-72 -89c-58 37 -128 87 -207 87c-133 0 -225 -140 -225 -315c0 -108 36 -181 126 -181c74 0 158 60 195 90l18 103h-172l17 102h294l-69 -394h-122z" />
    <glyph glyph-name="H" unicode="H" horiz-adv-x="720" 
d="M456 0l55 313h-299l-55 -313h-128l123 700h128l-49 -279h299l49 279h129l-123 -700h-129z" />
    <glyph glyph-name="I" unicode="I" horiz-adv-x="292" 
d="M157 0h-128l123 700h128z" />
    <glyph glyph-name="J" unicode="J" horiz-adv-x="292" 
d="M281 700l-114 -643c-22 -126 -30 -176 -239 -224l-29 102c118 34 127 51 139 116l115 649h128z" />
    <glyph glyph-name="K" unicode="K" horiz-adv-x="675" 
d="M29 0l123 700h128l-60 -340l338 340h165l-339 -334l235 -366h-142l-180 281l-110 -108l-30 -173h-128z" />
    <glyph glyph-name="L" unicode="L" horiz-adv-x="559" 
d="M491 0h-462l123 700h128l-105 -593h333z" />
    <glyph glyph-name="M" unicode="M" horiz-adv-x="847" 
d="M583 0l84 478l-238 -361h-73l-111 384l-88 -501h-128l123 700h132l127 -439l292 439h132l-123 -700h-129z" />
    <glyph glyph-name="N" unicode="N" horiz-adv-x="736" 
d="M470 0l-222 519l-91 -519h-128l123 700h131l221 -518l91 518h129l-123 -700h-131z" />
    <glyph glyph-name="O" unicode="O" horiz-adv-x="760" 
d="M410 711c214 0 313 -121 314 -303c0 -154 -85 -420 -358 -420c-213 0 -312 121 -313 303c0 154 85 420 357 420zM362 98c166 0 229 191 229 307c0 103 -37 196 -176 196c-166 0 -229 -191 -229 -307c0 -103 37 -196 176 -196z" />
    <glyph glyph-name="P" unicode="P" horiz-adv-x="659" 
d="M664 504c0 -132 -97 -248 -287 -248h-174l-46 -256h-128l123 700h252c164 0 260 -62 260 -196zM531 501c0 68 -55 91 -127 91h-142l-41 -230h137c103 0 173 48 173 139z" />
    <glyph glyph-name="Q" unicode="Q" horiz-adv-x="759" 
d="M410 711c214 0 313 -121 314 -303c0 -131 -61 -342 -246 -403l95 -90l-92 -80l-134 153c-200 7 -293 126 -294 303c0 154 85 420 357 420zM362 98c166 0 229 191 229 307c0 103 -37 196 -176 196c-166 0 -229 -191 -229 -307c0 -103 37 -196 176 -196z" />
    <glyph glyph-name="R" unicode="R" horiz-adv-x="694" 
d="M465 0l-122 280h-136l-50 -280h-128l123 700h282c161 0 254 -59 254 -186c0 -111 -78 -211 -222 -231l132 -283h-133zM555 511c0 66 -56 87 -131 87h-161l-39 -216h163c103 0 168 45 168 129z" />
    <glyph glyph-name="S" unicode="S" 
d="M403 399c85 -35 171 -82 171 -195c0 -128 -112 -215 -268 -215c-124 0 -239 54 -307 100l69 88c60 -36 154 -81 234 -81c75 0 135 36 135 94c0 68 -94 84 -189 125c-85 35 -161 81 -161 187c0 121 101 209 258 209c110 0 211 -44 282 -84l-68 -87c-56 32 -145 63 -209 63
c-65 0 -125 -30 -125 -90c0 -62 74 -70 178 -114z" />
    <glyph glyph-name="T" unicode="T" horiz-adv-x="582" 
d="M615 590h-209l-105 -590h-128l105 590h-209l18 110h546z" />
    <glyph glyph-name="U" unicode="U" horiz-adv-x="709" 
d="M704 700l-78 -442c-26 -148 -99 -269 -313 -269c-233 0 -270 130 -241 299l72 412h130l-78 -436c-16 -92 -4 -165 118 -165c123 0 168 73 184 165l78 436h128z" />
    <glyph glyph-name="V" unicode="V" horiz-adv-x="692" 
d="M222 700l88 -559l280 559h157l-385 -700h-142l-140 700h142z" />
    <glyph glyph-name="W" unicode="W" horiz-adv-x="952" 
d="M555 0l-40 518l-226 -518h-130l-69 700h142l28 -524l227 524h112l38 -524l211 524h152l-316 -700h-129z" />
    <glyph glyph-name="X" unicode="X" horiz-adv-x="641" 
d="M92 700h140l104 -272l197 272h158l-285 -349l174 -351h-144l-113 267l-203 -267h-163l296 350z" />
    <glyph glyph-name="Y" unicode="Y" horiz-adv-x="647" 
d="M204 0l49 279l-177 421h136l116 -318l228 318h151l-327 -424l-47 -276h-129z" />
    <glyph glyph-name="Z" unicode="Z" horiz-adv-x="626" 
d="M-19 0l16 100l463 490h-352l18 110h524l-16 -99l-465 -492h381l-18 -109h-551z" />
    <glyph glyph-name="bracketleft" unicode="[" horiz-adv-x="352" 
d="M250 -144h-254l173 983h254l-13 -77h-125l-147 -829h125z" />
    <glyph glyph-name="backslash" unicode="\" horiz-adv-x="463" 
d="M283 -90l-177 880h90l177 -880h-90z" />
    <glyph glyph-name="bracketright" unicode="]" horiz-adv-x="353" 
d="M200 -144h-254l13 77h125l147 829h-125l13 77h254z" />
    <glyph glyph-name="asciicircum" unicode="^" 
d="M446 333l-72 252l-159 -252h-143l251 367h127l124 -367h-128z" />
    <glyph glyph-name="underscore" unicode="_" horiz-adv-x="705" 
d="M559 -165h-577l15 89h577z" />
    <glyph glyph-name="grave" unicode="`" horiz-adv-x="234" 
d="M357 594h-95l-147 135h140z" />
    <glyph glyph-name="a" unicode="a" horiz-adv-x="618" 
d="M496 0h-123l12 70c-43 -36 -114 -81 -195 -81c-78 0 -158 49 -158 192c0 207 101 355 250 355c80 0 135 -45 172 -77l12 66h123zM237 89c65 0 118 41 167 85l33 190c-32 38 -78 71 -127 71c-96 0 -151 -118 -151 -241c0 -65 27 -105 78 -105z" />
    <glyph glyph-name="b" unicode="b" horiz-adv-x="615" 
d="M15 0l129 729h123l-47 -265c42 32 107 72 183 72c84 0 168 -49 168 -192c0 -208 -99 -355 -245 -355c-85 0 -140 44 -177 76l-11 -65h-123zM357 436c-59 0 -109 -37 -155 -75l-36 -201c35 -38 81 -71 132 -71c93 0 147 119 147 241c0 66 -29 106 -88 106z" />
    <glyph glyph-name="c" unicode="c" horiz-adv-x="521" 
d="M521 460l-59 -85c-29 16 -86 55 -140 55c-91 0 -163 -99 -163 -211c0 -76 33 -124 99 -124c52 0 121 37 156 53l43 -95c-50 -22 -139 -64 -224 -64c-116 0 -202 74 -202 219c0 219 137 328 266 328c101 0 176 -49 224 -76z" />
    <glyph glyph-name="d" unicode="d" horiz-adv-x="618" 
d="M496 0h-123l12 70c-43 -37 -114 -81 -195 -81c-78 0 -158 49 -158 192c0 207 101 355 250 355c80 0 135 -45 172 -77l48 270h123zM237 89c65 0 118 41 167 85l33 190c-32 38 -78 71 -127 71c-96 0 -151 -118 -151 -241c0 -65 27 -105 78 -105z" />
    <glyph glyph-name="e" unicode="e" horiz-adv-x="565" 
d="M534 389c0 -131 -128 -172 -322 -172h-56v-8c0 -78 33 -127 105 -127c64 0 140 38 195 65l40 -87c-41 -20 -150 -71 -256 -71c-125 0 -209 69 -209 227c0 183 116 320 304 320c123 0 199 -60 199 -147zM331 446c-84 0 -142 -74 -165 -158h52c130 0 196 36 196 95
c0 39 -35 63 -83 63z" />
    <glyph glyph-name="f" unicode="f" horiz-adv-x="372" 
d="M51 433l16 92h70l8 42c18 110 58 162 154 162c67 0 143 -30 176 -47l-55 -81c-20 7 -71 21 -98 21s-46 -16 -53 -53l-8 -44h133l-16 -92h-133l-70 -396c-29 -160 -37 -211 -245 -258l-27 95c123 37 128 54 146 155l72 404h-70z" />
    <glyph glyph-name="g" unicode="g" horiz-adv-x="616" 
d="M465 525h123l-95 -537c-28 -161 -113 -202 -247 -202c-84 0 -180 17 -260 40l41 100c67 -21 143 -39 209 -39c94 0 124 49 133 96l15 85c-45 -36 -114 -79 -193 -79s-159 49 -159 192c0 207 102 355 251 355c79 0 134 -44 170 -76zM238 89c63 0 115 40 164 83l35 194
c-34 37 -78 69 -127 69c-95 0 -151 -118 -151 -241c0 -65 27 -105 79 -105z" />
    <glyph glyph-name="h" unicode="h" horiz-adv-x="613" 
d="M267 729l-48 -269c46 31 128 76 207 76c113 0 153 -73 134 -178l-63 -358h-124l62 345c9 53 1 93 -57 93c-60 0 -138 -44 -176 -74l-64 -364h-123l129 729h123z" />
    <glyph glyph-name="i" unicode="i" horiz-adv-x="259" 
d="M138 0h-123l93 525h123zM119 610l20 116h131l-19 -116h-132z" />
    <glyph glyph-name="j" unicode="j" horiz-adv-x="259" 
d="M119 610l20 116h131l-19 -116h-132zM231 525l-94 -523c-22 -126 -30 -176 -237 -223l-27 95c122 37 128 52 139 119l95 532h124z" />
    <glyph glyph-name="k" unicode="k" horiz-adv-x="549" 
d="M557 525l-218 -214l156 -311h-126l-114 228l-93 -91l-24 -137h-123l129 729h123l-76 -427l216 223h150z" />
    <glyph glyph-name="l" unicode="l" horiz-adv-x="265" 
d="M141 0h-123l129 729h123z" />
    <glyph glyph-name="m" unicode="m" horiz-adv-x="921" 
d="M231 525l-13 -70c42 34 114 81 186 81c81 0 122 -38 132 -95c37 34 120 95 201 95c115 0 149 -73 132 -175l-64 -361h-124l62 345c10 51 3 93 -53 93c-55 0 -119 -46 -157 -81l-62 -357h-123l62 345c9 51 2 93 -54 93c-54 0 -117 -45 -155 -79l-63 -359h-123l93 525h123z
" />
    <glyph glyph-name="n" unicode="n" horiz-adv-x="613" 
d="M231 525l-12 -65c46 31 128 76 207 76c113 0 153 -73 134 -178l-63 -358h-124l62 345c9 53 1 93 -57 93c-60 0 -138 -44 -176 -74l-64 -364h-123l93 525h123z" />
    <glyph glyph-name="o" unicode="o" horiz-adv-x="615" 
d="M314 536c161 0 256 -87 256 -235c0 -171 -102 -312 -282 -312c-160 0 -256 87 -256 234c0 171 103 313 282 313zM286 85c103 0 160 108 160 217c0 82 -38 137 -129 137c-103 0 -160 -108 -160 -217c0 -81 37 -137 129 -137z" />
    <glyph glyph-name="p" unicode="p" horiz-adv-x="615" 
d="M-21 -204l129 729h123l-11 -61c42 32 107 72 183 72c84 0 168 -49 168 -192c0 -208 -99 -355 -245 -355c-85 0 -140 44 -177 76l-47 -269h-123zM357 436c-59 0 -109 -37 -155 -75l-36 -201c35 -38 81 -71 132 -71c93 0 147 119 147 241c0 66 -29 106 -88 106z" />
    <glyph glyph-name="q" unicode="q" horiz-adv-x="618" 
d="M460 -204h-123l48 274c-43 -36 -114 -81 -195 -81c-78 0 -158 49 -158 192c0 207 101 355 250 355c80 0 135 -45 172 -77l12 66h123zM237 89c65 0 118 41 167 85l33 190c-32 38 -78 71 -127 71c-96 0 -151 -118 -151 -241c0 -65 27 -105 78 -105z" />
    <glyph glyph-name="r" unicode="r" horiz-adv-x="406" 
d="M231 525l-20 -111c14 24 84 126 217 117l-20 -117c-170 0 -226 -177 -226 -177l-44 -237h-123l93 525h123z" />
    <glyph glyph-name="s" unicode="s" horiz-adv-x="525" 
d="M304 311c84 -26 163 -60 163 -156c0 -103 -91 -166 -220 -166c-106 0 -199 42 -254 77l59 82c52 -30 133 -63 196 -63c52 0 92 23 92 59c0 45 -58 55 -128 77c-74 23 -155 56 -155 151c0 97 84 164 210 164c90 0 182 -35 232 -63l-58 -80c-45 23 -114 48 -169 48
c-51 0 -89 -22 -89 -57c0 -44 60 -54 121 -73z" />
    <glyph glyph-name="t" unicode="t" horiz-adv-x="399" 
d="M48 433l15 92h71l24 132l127 20l-28 -152h143l-16 -92h-143l-51 -285c-7 -42 11 -51 35 -51c26 0 71 16 91 24l31 -97c-31 -11 -106 -35 -161 -35c-87 0 -137 54 -116 173l48 271h-70z" />
    <glyph glyph-name="u" unicode="u" horiz-adv-x="613" 
d="M368 0l11 62c-46 -30 -127 -73 -206 -73c-113 0 -152 73 -134 178l63 358h124l-62 -345c-9 -53 0 -94 58 -94s137 43 174 74l65 365h123l-93 -525h-123z" />
    <glyph glyph-name="v" unicode="v" horiz-adv-x="567" 
d="M289 0h-122l-113 525h128l64 -399l204 399h139z" />
    <glyph glyph-name="w" unicode="w" horiz-adv-x="823" 
d="M468 0l-43 373l-179 -373h-118l-69 525h128l28 -394l181 394h106l38 -391l165 391h135l-254 -525h-118z" />
    <glyph glyph-name="x" unicode="x" horiz-adv-x="586" 
d="M392 0l-105 197l-172 -197h-160l257 263l-153 262h132l99 -194l165 194h153l-246 -261l165 -264h-135z" />
    <glyph glyph-name="y" unicode="y" horiz-adv-x="569" 
d="M-9 -124c91 31 132 45 177 115l-114 534h128l67 -383l203 383h138l-296 -525c-63 -110 -97 -179 -275 -221z" />
    <glyph glyph-name="z" unicode="z" horiz-adv-x="535" 
d="M-18 0l15 88l348 334h-278l18 103h449l-14 -89l-349 -334h288l-18 -102h-459z" />
    <glyph glyph-name="braceleft" unicode="{" horiz-adv-x="391" 
d="M19 306l14 84c92 -1 114 65 116 116l4 98c7 160 93 235 271 235h37l-12 -75h-19c-110 0 -140 -68 -145 -143l-4 -92c-6 -122 -60 -168 -158 -183c83 -19 129 -70 93 -188l-21 -69c-24 -75 -32 -158 87 -158h18l-12 -74h-18c-159 0 -253 83 -204 243l27 90
c25 79 0 116 -74 116z" />
    <glyph glyph-name="bar" unicode="|" horiz-adv-x="243" 
d="M93 -123h-93l166 941h93z" />
    <glyph glyph-name="braceright" unicode="}" horiz-adv-x="391" 
d="M390 390l-15 -84c-93 0 -115 -65 -117 -116l-4 -98c-6 -160 -92 -235 -270 -235h-38l13 74h18c110 0 141 69 146 144l4 92c5 121 59 167 155 182c-81 19 -126 71 -90 188l21 69c23 75 31 158 -87 158h-19l12 75h18c160 0 253 -83 204 -243l-27 -90
c-25 -80 0 -116 76 -116z" />
    <glyph glyph-name="asciitilde" unicode="~" 
d="M91 189l-76 33c53 89 109 139 185 139c99 0 154 -75 231 -75c28 0 57 11 99 70l75 -33c-53 -89 -109 -139 -185 -139c-99 0 -154 75 -231 75c-28 0 -56 -11 -98 -70z" />
    <glyph glyph-name="uni00A0" unicode="&#xa0;" horiz-adv-x="274" 
 />
    <glyph glyph-name="exclamdown" unicode="&#xa1;" horiz-adv-x="277" 
d="M119 560l24 140h131l-23 -140h-132zM208 479l-48 -479h-150l123 479h75z" />
    <glyph glyph-name="cent" unicode="&#xa2;" horiz-adv-x="564" 
d="M310 0h-92l13 78c-102 11 -174 84 -174 218c0 219 137 328 266 328h4l14 76h92l-16 -91c59 -19 108 -50 142 -70l-59 -83c-22 14 -60 39 -101 53l-55 -316c41 13 82 33 108 45l43 -93c-39 -18 -103 -48 -170 -61zM185 307c0 -62 22 -105 66 -119l57 323
c-71 -24 -123 -109 -123 -204z" />
    <glyph glyph-name="sterling" unicode="&#xa3;" horiz-adv-x="571" 
d="M58 252l13 78h95c-14 59 -50 110 -50 185c0 118 84 196 222 196c113 0 194 -55 248 -92l-66 -77c-56 35 -112 61 -163 61c-73 0 -114 -46 -114 -99c0 -63 41 -105 50 -174h162l-14 -78h-153c-20 -73 -77 -125 -105 -145h296l-17 -107h-460l15 88s125 58 149 164h-108z
" />
    <glyph glyph-name="yen" unicode="&#xa5;" horiz-adv-x="691" 
d="M95 289l12 76h133l-141 335h136l117 -318l227 318h151l-258 -335h132l-13 -76h-178l-10 -13l-8 -48h185l-14 -76h-184l-26 -152h-129l26 152h-182l13 76h183l9 51l-4 10h-177z" />
    <glyph glyph-name="brokenbar" unicode="&#xa6;" horiz-adv-x="245" 
d="M187 405h-93l73 413h93zM94 -123h-93l73 413h93z" />
    <glyph glyph-name="section" unicode="&#xa7;" horiz-adv-x="567" 
d="M215 152c-87 27 -164 65 -164 154c0 69 47 114 115 136c-31 24 -52 56 -52 105c0 97 83 164 209 164c91 0 183 -35 233 -63l-58 -80c-45 23 -114 48 -169 48c-54 0 -89 -23 -89 -57c0 -43 56 -53 121 -73c84 -26 162 -63 162 -153c0 -68 -44 -114 -115 -137
c31 -23 53 -57 53 -106c0 -96 -84 -162 -209 -162c-91 0 -182 34 -233 63l58 80c46 -23 115 -48 171 -48c52 0 88 22 88 56c0 44 -57 53 -121 73zM402 314c0 47 -62 59 -132 81c-66 -6 -98 -37 -98 -70c0 -47 64 -61 135 -82c0 0 0 -1 1 -1c63 8 94 39 94 72z" />
    <glyph glyph-name="dieresis" unicode="&#xa8;" horiz-adv-x="247" 
d="M84 604l19 111h108l-18 -111h-109zM265 604l19 111h108l-21 -111h-106z" />
    <glyph glyph-name="copyright" unicode="&#xa9;" horiz-adv-x="813" 
d="M59 313c0 212 136 398 382 398c205 0 330 -134 330 -324c0 -212 -136 -398 -383 -398c-204 0 -329 134 -329 324zM98 314c0 -166 108 -287 294 -287c214 0 340 163 340 359c0 166 -108 287 -294 287c-214 0 -340 -163 -340 -359zM592 500l-32 -33c-25 21 -67 56 -129 56
c-87 0 -155 -91 -150 -217c3 -80 35 -129 94 -129c62 0 120 34 149 54l26 -37c-39 -26 -98 -62 -173 -62c-79 0 -143 59 -147 170c-7 170 91 265 202 265c75 0 128 -41 160 -67z" />
    <glyph glyph-name="ordfeminine" unicode="&#xaa;" horiz-adv-x="435" 
d="M386 385h-88l6 37c-27 -20 -69 -44 -119 -44c-51 0 -102 31 -102 120c0 122 64 209 156 209c51 0 86 -27 108 -45l7 38h87zM219 448c38 0 70 22 98 45l18 105c-19 20 -46 39 -74 39c-56 0 -88 -64 -88 -132c0 -37 16 -57 46 -57z" />
    <glyph glyph-name="guillemotleft" unicode="&#xab;" horiz-adv-x="683" 
d="M352 400l-224 -137l174 -134l-18 -109l-264 216l13 76l340 215zM314 236l13 76l339 215l-21 -127l-223 -137l173 -134l-18 -109z" />
    <glyph glyph-name="logicalnot" unicode="&#xac;" 
d="M563 90h-102l34 196h-477l16 94h580z" />
    <glyph glyph-name="registered" unicode="&#xae;" horiz-adv-x="491" 
d="M82 480c0 117 75 220 212 220c113 0 182 -74 182 -180c0 -117 -75 -220 -211 -220c-114 0 -183 74 -183 180zM116 481c0 -85 55 -148 151 -148c111 0 177 84 177 186c0 85 -57 148 -153 148c-111 0 -175 -84 -175 -186zM374 551c0 -33 -26 -57 -62 -63l33 -86h-34l-31 85
h-43l-15 -85h-33l35 201h89c38 0 61 -23 61 -52zM341 551c0 12 -7 22 -29 22h-60l-10 -55h52c31 0 47 15 47 33z" />
    <glyph glyph-name="macron" unicode="&#xaf;" horiz-adv-x="305" 
d="M113 619l13 75h300l-13 -75h-300z" />
    <glyph glyph-name="degree" unicode="&#xb0;" horiz-adv-x="427" 
d="M78 527c0 96 78 174 173 174c96 0 174 -78 174 -174c0 -95 -78 -173 -174 -173c-95 0 -173 78 -173 173zM152 527c0 -54 45 -99 99 -99c55 0 99 45 99 99c0 55 -44 99 -99 99c-54 0 -99 -44 -99 -99z" />
    <glyph glyph-name="plusminus" unicode="&#xb1;" 
d="M306 538h98l-26 -146h204l-15 -95h-206l-26 -147h-97l26 147h-203l15 95h204zM8 0l14 82h506l-13 -82h-507z" />
    <glyph glyph-name="twosuperior" unicode="&#xb2;" horiz-adv-x="404" 
d="M388 460l-12 -75h-328l7 41c16 96 92 135 168 177c72 41 119 63 118 96c-1 23 -21 38 -59 38c-44 0 -89 -21 -122 -39l-34 63c32 19 91 51 167 51c91 0 140 -49 140 -110c0 -83 -94 -128 -174 -169c-62 -32 -82 -45 -89 -73h218z" />
    <glyph glyph-name="threesuperior" unicode="&#xb3;" horiz-adv-x="398" 
d="M42 438l45 57c39 -23 79 -42 130 -42c56 0 90 25 90 60c0 44 -55 58 -114 58h-19l11 75h23c55 0 115 19 115 55c0 22 -21 36 -53 36c-45 0 -95 -23 -119 -36l-31 62c19 12 82 49 165 49c88 0 131 -43 131 -95c0 -45 -34 -82 -94 -105c44 -13 77 -52 77 -101
c0 -61 -48 -133 -173 -133c-95 0 -159 44 -184 60z" />
    <glyph glyph-name="acute" unicode="&#xb4;" horiz-adv-x="235" 
d="M193 594h-108l143 135h156z" />
    <glyph glyph-name="mu" unicode="&#xb5;" horiz-adv-x="615" 
d="M109 -204h-124l129 729h124l-65 -366c-3 -43 10 -73 61 -73c58 0 137 43 174 74l65 365h123l-93 -525h-123l11 62c-46 -30 -127 -73 -206 -73c-15 0 -29 2 -41 4z" />
    <glyph glyph-name="paragraph" unicode="&#xb6;" horiz-adv-x="685" 
d="M358 700h113l-156 -885h-106l76 422c-131 0 -226 61 -226 193c0 178 135 270 299 270zM408 -186l156 886h106l-156 -886h-106z" />
    <glyph glyph-name="periodcentered" unicode="&#xb7;" horiz-adv-x="260" 
d="M49 210l25 150h131l-25 -150h-131z" />
    <glyph glyph-name="cedilla" unicode="&#xb8;" horiz-adv-x="178" 
d="M-35 -159l36 64c19 -10 38 -12 49 -12c28 0 56 12 56 49c0 28 -16 60 -16 60h56s26 -36 26 -80c0 -67 -52 -101 -120 -101c-28 0 -62 6 -87 20z" />
    <glyph glyph-name="onesuperior" unicode="&#xb9;" horiz-adv-x="252" 
d="M210 385h-91l61 330l-80 -37l-30 63l129 64h85z" />
    <glyph glyph-name="ordmasculine" unicode="&#xba;" horiz-adv-x="425" 
d="M265 707c101 0 162 -52 162 -138c0 -103 -66 -191 -185 -191c-100 0 -161 51 -161 137c0 104 65 192 184 192zM244 445c65 0 95 66 95 119c0 43 -19 75 -75 75c-65 0 -96 -65 -96 -119c0 -43 20 -75 76 -75z" />
    <glyph glyph-name="guillemotright" unicode="&#xbb;" horiz-adv-x="682" 
d="M300 20l21 127l223 136l-173 135l18 109l263 -215l-12 -76zM359 312l-13 -76l-340 -216l21 127l223 136l-172 135l17 109z" />
    <glyph glyph-name="onequarter" unicode="&#xbc;" horiz-adv-x="859" 
d="M396 81l9 63l250 276h120l-47 -265h66l-11 -74h-68l-14 -81h-91l14 81h-228zM668 700l-450 -700h-98l450 700h98zM224 280h-91l61 330l-80 -37l-30 63l129 64h85zM507 155h130l33 185z" />
    <glyph glyph-name="onehalf" unicode="&#xbd;" horiz-adv-x="882" 
d="M790 75l-11 -75h-328l7 41c16 96 91 135 167 177c72 40 119 62 119 95c0 24 -21 39 -59 39c-44 0 -89 -21 -122 -39l-34 63c31 19 91 51 166 51c93 0 140 -49 140 -110c0 -83 -93 -128 -173 -169c-62 -32 -82 -45 -89 -73h217zM224 280h-91l61 330l-80 -37l-30 63l129 64
h85zM668 700l-450 -700h-98l450 700h98z" />
    <glyph glyph-name="threequarters" unicode="&#xbe;" horiz-adv-x="963" 
d="M503 81l9 63l250 276h120l-47 -265h66l-11 -74h-68l-14 -81h-91l14 81h-228zM41 333l45 57c39 -23 79 -42 130 -42c56 0 90 25 90 60c0 44 -56 58 -114 58h-19l11 75h23c55 0 115 19 115 55c0 22 -21 36 -53 36c-45 0 -95 -23 -119 -36l-31 62c19 12 82 49 165 49
c88 0 131 -43 131 -95c0 -45 -34 -82 -94 -105c44 -13 77 -52 77 -101c0 -61 -48 -133 -173 -133c-96 0 -159 44 -184 60zM776 700l-451 -700h-98l450 700h99zM615 155h129l33 185z" />
    <glyph glyph-name="questiondown" unicode="&#xbf;" horiz-adv-x="527" 
d="M450 700l-24 -140h-131l24 140h131zM17 153c0 132 127 197 262 224l27 102h80l-22 -173c-130 -24 -218 -63 -218 -136c0 -48 38 -74 96 -74c60 0 118 27 171 56l44 -92c-46 -27 -134 -71 -238 -71c-116 0 -202 58 -202 164z" />
    <glyph glyph-name="Agrave" unicode="&#xc0;" horiz-adv-x="695" 
d="M494 0l-23 149h-285l-75 -149h-149l386 700h142l140 -700h-136zM404 581l-166 -329h217zM519 745h-95l-146 135h139z" />
    <glyph glyph-name="Aacute" unicode="&#xc1;" horiz-adv-x="695" 
d="M494 0l-23 149h-285l-75 -149h-149l386 700h142l140 -700h-136zM404 581l-166 -329h217zM445 745h-108l143 135h156z" />
    <glyph glyph-name="Acircumflex" unicode="&#xc2;" horiz-adv-x="695" 
d="M494 0l-23 149h-285l-75 -149h-149l386 700h142l140 -700h-136zM404 581l-166 -329h217zM515 880l79 -135h-81l-66 78l-93 -78h-91l126 135h126z" />
    <glyph glyph-name="Atilde" unicode="&#xc3;" horiz-adv-x="695" 
d="M494 0l-23 149h-285l-75 -149h-149l386 700h142l140 -700h-136zM404 581l-166 -329h217zM318 751l-54 35c35 51 62 89 114 89c53 0 90 -48 124 -48c13 0 28 6 59 47l54 -36c-35 -51 -62 -88 -114 -88c-53 0 -89 48 -123 48c-13 0 -29 -6 -60 -47z" />
    <glyph glyph-name="Adieresis" unicode="&#xc4;" horiz-adv-x="695" 
d="M494 0l-23 149h-285l-75 -149h-149l386 700h142l140 -700h-136zM404 581l-166 -329h217zM285 755l20 111h107l-19 -111h-108zM466 755l19 111h108l-20 -111h-107z" />
    <glyph glyph-name="Aring" unicode="&#xc5;" horiz-adv-x="695" 
d="M494 0l-23 149h-285l-75 -149h-149l386 700h142l140 -700h-136zM337 844c0 60 48 109 109 109c60 0 109 -49 109 -109c0 -61 -49 -109 -109 -109c-61 0 -109 48 -109 109zM404 581l-166 -329h217zM399 844c0 -27 20 -47 47 -47c26 0 47 20 47 47c0 26 -21 47 -47 47
c-27 0 -47 -21 -47 -47z" />
    <glyph glyph-name="AE" unicode="&#xc6;" horiz-adv-x="1033" 
d="M522 700h529l-18 -110h-344l-35 -186h284l-19 -108h-283l-35 -187h351l-18 -109h-478l26 149h-269l-122 -149h-165zM300 255h200l54 309z" />
    <glyph glyph-name="Ccedilla" unicode="&#xc7;" horiz-adv-x="654" 
d="M137 -159l36 64c19 -10 36 -12 48 -12c28 0 57 12 57 49c0 17 -6 36 -11 48c-124 6 -212 92 -212 282c0 275 155 439 344 439c117 0 203 -58 279 -109l-71 -90c-72 50 -130 83 -194 83c-133 0 -225 -141 -225 -314c0 -120 47 -177 123 -177c61 0 143 35 223 81l56 -101
c-85 -46 -173 -84 -266 -93c8 -13 20 -39 20 -69c0 -67 -52 -101 -120 -101c-29 0 -62 6 -87 20z" />
    <glyph glyph-name="Egrave" unicode="&#xc8;" horiz-adv-x="607" 
d="M491 745h-96l-147 135h140zM507 0h-478l122 700h473l-18 -110h-344l-35 -186h283l-18 -108h-283l-34 -187h350z" />
    <glyph glyph-name="Eacute" unicode="&#xc9;" horiz-adv-x="607" 
d="M412 745h-108l143 135h154zM507 0h-478l122 700h473l-18 -110h-344l-35 -186h283l-18 -108h-283l-34 -187h350z" />
    <glyph glyph-name="Ecircumflex" unicode="&#xca;" horiz-adv-x="607" 
d="M485 880l79 -135h-80l-66 78l-92 -78h-93l128 135h124zM507 0h-478l122 700h473l-18 -110h-344l-35 -186h283l-18 -108h-283l-34 -187h350z" />
    <glyph glyph-name="Edieresis" unicode="&#xcb;" horiz-adv-x="607" 
d="M507 0h-478l122 700h473l-18 -110h-344l-35 -186h283l-18 -108h-283l-34 -187h350zM257 755l19 111h109l-20 -111h-108zM438 755l19 111h108l-19 -111h-108z" />
    <glyph glyph-name="Igrave" unicode="&#xcc;" horiz-adv-x="292" 
d="M317 745h-96l-147 135h140zM157 0h-128l123 700h128z" />
    <glyph glyph-name="Iacute" unicode="&#xcd;" horiz-adv-x="292" 
d="M237 745h-108l143 135h155zM157 0h-128l123 700h128z" />
    <glyph glyph-name="Icircumflex" unicode="&#xce;" horiz-adv-x="292" 
d="M310 880l79 -135h-80l-66 78l-92 -78h-92l126 135h125zM157 0h-128l123 700h128z" />
    <glyph glyph-name="Idieresis" unicode="&#xcf;" horiz-adv-x="292" 
d="M157 0h-128l123 700h128zM82 755l19 111h109l-20 -111h-108zM263 755l19 111h108l-20 -111h-107z" />
    <glyph glyph-name="Eth" unicode="&#xd0;" horiz-adv-x="727" 
d="M692 427c0 -183 -103 -427 -396 -427h-255l52 299h-72l16 102h74l52 299h207c219 0 322 -106 322 -273zM375 299h-153l-34 -190h90c186 0 283 144 283 316c0 121 -76 165 -209 165h-78l-34 -189h151z" />
    <glyph glyph-name="Ntilde" unicode="&#xd1;" horiz-adv-x="736" 
d="M470 0l-222 519l-91 -519h-128l123 700h131l221 -518l91 518h129l-123 -700h-131zM342 751l-54 35c35 51 62 89 114 89c53 0 90 -48 124 -48c13 0 28 6 59 47l54 -36c-35 -51 -62 -88 -114 -88c-53 0 -89 48 -123 48c-13 0 -29 -6 -60 -47z" />
    <glyph glyph-name="Ograve" unicode="&#xd2;" horiz-adv-x="760" 
d="M410 711c214 0 313 -121 314 -303c0 -154 -85 -420 -358 -420c-213 0 -312 121 -313 303c0 154 85 420 357 420zM362 98c166 0 229 191 229 307c0 103 -37 196 -176 196c-166 0 -229 -191 -229 -307c0 -103 37 -196 176 -196zM550 745h-95l-146 135h139z" />
    <glyph glyph-name="Oacute" unicode="&#xd3;" horiz-adv-x="760" 
d="M410 711c214 0 313 -121 314 -303c0 -154 -85 -420 -358 -420c-213 0 -312 121 -313 303c0 154 85 420 357 420zM362 98c166 0 229 191 229 307c0 103 -37 196 -176 196c-166 0 -229 -191 -229 -307c0 -103 37 -196 176 -196zM471 745h-108l143 135h156z" />
    <glyph glyph-name="Ocircumflex" unicode="&#xd4;" horiz-adv-x="760" 
d="M410 711c214 0 313 -121 314 -303c0 -154 -85 -420 -358 -420c-213 0 -312 121 -313 303c0 154 85 420 357 420zM362 98c166 0 229 191 229 307c0 103 -37 196 -176 196c-166 0 -229 -191 -229 -307c0 -103 37 -196 176 -196zM546 880l79 -135h-81l-65 78l-92 -78h-93
l126 135h126z" />
    <glyph glyph-name="Otilde" unicode="&#xd5;" horiz-adv-x="760" 
d="M410 711c214 0 313 -121 314 -303c0 -154 -85 -420 -358 -420c-213 0 -312 121 -313 303c0 154 85 420 357 420zM362 98c166 0 229 191 229 307c0 103 -37 196 -176 196c-166 0 -229 -191 -229 -307c0 -103 37 -196 176 -196zM348 751l-54 35c35 51 62 89 114 89
c53 0 90 -48 124 -48c13 0 28 6 59 47l54 -36c-35 -51 -62 -88 -114 -88c-53 0 -89 48 -123 48c-13 0 -29 -6 -60 -47z" />
    <glyph glyph-name="Odieresis" unicode="&#xd6;" horiz-adv-x="760" 
d="M410 711c214 0 313 -121 314 -303c0 -154 -85 -420 -358 -420c-213 0 -312 121 -313 303c0 154 85 420 357 420zM362 98c166 0 229 191 229 307c0 103 -37 196 -176 196c-166 0 -229 -191 -229 -307c0 -103 37 -196 176 -196zM316 755l20 111h107l-19 -111h-108zM496 755
l19 111h109l-20 -111h-108z" />
    <glyph glyph-name="multiply" unicode="&#xd7;" 
d="M558 463l-167 -133l117 -128l-75 -64l-119 131l-169 -134l-62 73l166 132l-117 129l75 63l119 -131l170 135z" />
    <glyph glyph-name="Oslash" unicode="&#xd8;" horiz-adv-x="759" 
d="M762 700l-93 -100c36 -50 54 -116 54 -192c1 -154 -85 -420 -357 -420c-91 0 -161 21 -212 60l-45 -48h-96l93 99c-36 51 -53 116 -53 192c-1 154 84 420 357 420c90 0 160 -22 210 -60l46 49h96zM362 98c165 0 229 191 229 307c0 34 -4 67 -15 96l-338 -363
c27 -25 67 -40 124 -40zM185 294c0 -34 4 -66 14 -95l338 362c-28 25 -67 40 -123 40c-166 0 -229 -191 -229 -307z" />
    <glyph glyph-name="Ugrave" unicode="&#xd9;" horiz-adv-x="709" 
d="M705 700l-78 -442c-26 -148 -100 -269 -314 -269c-233 0 -270 130 -240 299l72 412h130l-78 -436c-17 -92 -4 -165 118 -165c123 0 167 73 184 165l77 436h129zM526 745h-95l-147 135h140z" />
    <glyph glyph-name="Uacute" unicode="&#xda;" horiz-adv-x="709" 
d="M705 700l-78 -442c-26 -148 -100 -269 -314 -269c-233 0 -270 130 -240 299l72 412h130l-78 -436c-17 -92 -4 -165 118 -165c123 0 167 73 184 165l77 436h129zM446 745h-109l144 135h155z" />
    <glyph glyph-name="Ucircumflex" unicode="&#xdb;" horiz-adv-x="709" 
d="M705 700l-78 -442c-26 -148 -100 -269 -314 -269c-233 0 -270 130 -240 299l72 412h130l-78 -436c-17 -92 -4 -165 118 -165c123 0 167 73 184 165l77 436h129zM520 880l79 -135h-80l-66 78l-92 -78h-92l126 135h125z" />
    <glyph glyph-name="Udieresis" unicode="&#xdc;" horiz-adv-x="709" 
d="M705 700l-78 -442c-26 -148 -100 -269 -314 -269c-233 0 -270 130 -240 299l72 412h130l-78 -436c-17 -92 -4 -165 118 -165c123 0 167 73 184 165l77 436h129zM292 755l19 111h108l-19 -111h-108zM473 755l19 111h107l-20 -111h-106z" />
    <glyph glyph-name="Yacute" unicode="&#xdd;" horiz-adv-x="647" 
d="M205 0l49 277l-178 423h136l117 -319l227 319h151l-325 -423l-49 -277h-128zM412 745h-108l143 135h156z" />
    <glyph glyph-name="Thorn" unicode="&#xde;" horiz-adv-x="668" 
d="M644 387c0 -131 -97 -248 -287 -248h-175l-25 -139h-128l123 700h128l-20 -117h124c163 0 260 -61 260 -196zM511 384c0 69 -55 92 -128 92h-141l-42 -230h139c102 0 172 47 172 138z" />
    <glyph glyph-name="germandbls" unicode="&#xdf;" horiz-adv-x="692" 
d="M410 711c188 0 278 -84 252 -228l-2 -12l-67 -72c-27 15 -84 42 -132 42c-44 0 -78 -23 -78 -58c0 -43 48 -53 105 -73c79 -28 143 -66 143 -155c0 -104 -87 -166 -202 -166c-94 0 -181 42 -230 78l55 81c43 -30 122 -64 169 -64c39 0 82 22 82 59c0 43 -56 59 -110 78
c-67 24 -137 58 -137 150c0 94 73 165 192 165c32 0 63 -5 92 -13c-2 61 -43 91 -135 91c-93 0 -165 -28 -185 -141l-84 -473h-123l86 488c28 153 122 223 309 223z" />
    <glyph glyph-name="agrave" unicode="&#xe0;" horiz-adv-x="618" 
d="M496 0h-123l12 70c-43 -36 -114 -81 -195 -81c-78 0 -158 49 -158 192c0 207 101 355 250 355c80 0 135 -45 172 -77l12 66h123zM237 89c65 0 118 41 167 85l33 190c-32 38 -78 71 -127 71c-96 0 -151 -118 -151 -241c0 -65 27 -105 78 -105zM456 594h-95l-147 135h140z
" />
    <glyph glyph-name="aacute" unicode="&#xe1;" horiz-adv-x="618" 
d="M496 0h-123l12 70c-43 -36 -114 -81 -195 -81c-78 0 -158 49 -158 192c0 207 101 355 250 355c80 0 135 -45 172 -77l12 66h123zM237 89c65 0 118 41 167 85l33 190c-32 38 -78 71 -127 71c-96 0 -151 -118 -151 -241c0 -65 27 -105 78 -105zM365 594h-109l143 135h155z
" />
    <glyph glyph-name="acircumflex" unicode="&#xe2;" horiz-adv-x="618" 
d="M496 0h-123l12 70c-43 -36 -114 -81 -195 -81c-78 0 -158 49 -158 192c0 207 101 355 250 355c80 0 135 -45 172 -77l12 66h123zM237 89c65 0 118 41 167 85l33 190c-32 38 -78 71 -127 71c-96 0 -151 -118 -151 -241c0 -65 27 -105 78 -105zM450 729l79 -135h-81l-65 78
l-92 -78h-92l126 135h125z" />
    <glyph glyph-name="atilde" unicode="&#xe3;" horiz-adv-x="618" 
d="M496 0h-123l12 70c-43 -36 -114 -81 -195 -81c-78 0 -158 49 -158 192c0 207 101 355 250 355c80 0 135 -45 172 -77l12 66h123zM237 89c65 0 118 41 167 85l33 190c-32 38 -78 71 -127 71c-96 0 -151 -118 -151 -241c0 -65 27 -105 78 -105zM256 600l-54 35
c35 51 62 89 114 89c53 0 89 -48 123 -48c13 0 29 6 59 47l54 -36c-35 -51 -62 -88 -114 -88c-53 0 -89 48 -123 48c-13 0 -29 -6 -59 -47z" />
    <glyph glyph-name="adieresis" unicode="&#xe4;" horiz-adv-x="618" 
d="M496 0h-123l12 70c-43 -36 -114 -81 -195 -81c-78 0 -158 49 -158 192c0 207 101 355 250 355c80 0 135 -45 172 -77l12 66h123zM237 89c65 0 118 41 167 85l33 190c-32 38 -78 71 -127 71c-96 0 -151 -118 -151 -241c0 -65 27 -105 78 -105zM226 604l19 111h108
l-18 -111h-109zM407 604l19 111h106l-18 -111h-107z" />
    <glyph glyph-name="aring" unicode="&#xe5;" horiz-adv-x="618" 
d="M496 0h-123l12 70c-43 -36 -114 -81 -195 -81c-78 0 -158 49 -158 192c0 207 101 355 250 355c80 0 135 -45 172 -77l12 66h123zM237 89c65 0 118 41 167 85l33 190c-32 38 -78 71 -127 71c-96 0 -151 -118 -151 -241c0 -65 27 -105 78 -105zM274 693
c0 60 49 109 109 109c61 0 110 -49 110 -109c0 -61 -49 -109 -110 -109c-60 0 -109 48 -109 109zM336 693c0 -27 21 -47 47 -47c27 0 48 20 48 47c0 26 -21 47 -48 47c-26 0 -47 -21 -47 -47z" />
    <glyph glyph-name="ae" unicode="&#xe6;" horiz-adv-x="940" 
d="M497 0h-124l12 70c-43 -36 -114 -81 -195 -81c-78 0 -158 49 -158 192c0 207 101 355 250 355c80 0 135 -45 172 -77l12 66h123l-2 -11c36 14 76 22 121 22c123 0 199 -60 199 -147c0 -131 -128 -172 -322 -172h-55v-8c0 -78 32 -127 104 -127c64 0 141 38 195 65l41 -87
c-42 -20 -149 -71 -257 -71c-44 0 -82 8 -114 25zM237 89c65 0 118 41 167 85l1 8c-1 11 -1 22 -1 34c0 55 11 107 31 151c-33 37 -77 68 -125 68c-96 0 -151 -118 -151 -241c0 -65 27 -105 78 -105zM705 446c-84 0 -142 -74 -165 -158h52c130 0 196 36 196 95
c0 39 -35 63 -83 63z" />
    <glyph glyph-name="ccedilla" unicode="&#xe7;" horiz-adv-x="521" 
d="M64 -159l36 64c19 -10 38 -12 50 -12c27 0 55 12 55 49c0 18 -7 39 -12 50c-95 15 -162 88 -162 216c0 219 137 328 266 328c101 0 176 -49 224 -76l-59 -85c-29 16 -86 55 -140 55c-91 0 -163 -99 -163 -211c0 -76 33 -124 99 -124c52 0 121 37 156 53l43 -95
c-46 -21 -126 -58 -205 -63c8 -14 19 -39 19 -68c0 -67 -52 -101 -119 -101c-28 0 -63 6 -88 20z" />
    <glyph glyph-name="egrave" unicode="&#xe8;" horiz-adv-x="565" 
d="M534 389c0 -131 -128 -172 -322 -172h-56v-8c0 -78 33 -127 105 -127c64 0 140 38 195 65l40 -87c-41 -20 -150 -71 -256 -71c-125 0 -209 69 -209 227c0 183 116 320 304 320c123 0 199 -60 199 -147zM331 446c-84 0 -142 -74 -165 -158h52c130 0 196 36 196 95
c0 39 -35 63 -83 63zM444 594h-95l-147 135h140z" />
    <glyph glyph-name="eacute" unicode="&#xe9;" horiz-adv-x="565" 
d="M534 389c0 -131 -128 -172 -322 -172h-56v-8c0 -78 33 -127 105 -127c64 0 140 38 195 65l40 -87c-41 -20 -150 -71 -256 -71c-125 0 -209 69 -209 227c0 183 116 320 304 320c123 0 199 -60 199 -147zM331 446c-84 0 -142 -74 -165 -158h52c130 0 196 36 196 95
c0 39 -35 63 -83 63zM366 594h-109l144 135h154z" />
    <glyph glyph-name="ecircumflex" unicode="&#xea;" horiz-adv-x="565" 
d="M534 389c0 -131 -128 -172 -322 -172h-56v-8c0 -78 33 -127 105 -127c64 0 140 38 195 65l40 -87c-41 -20 -150 -71 -256 -71c-125 0 -209 69 -209 227c0 183 116 320 304 320c123 0 199 -60 199 -147zM331 446c-84 0 -142 -74 -165 -158h52c130 0 196 36 196 95
c0 39 -35 63 -83 63zM439 729l79 -135h-81l-65 78l-92 -78h-93l126 135h126z" />
    <glyph glyph-name="edieresis" unicode="&#xeb;" horiz-adv-x="565" 
d="M534 389c0 -131 -128 -172 -322 -172h-56v-8c0 -78 33 -127 105 -127c64 0 140 38 195 65l40 -87c-41 -20 -150 -71 -256 -71c-125 0 -209 69 -209 227c0 183 116 320 304 320c123 0 199 -60 199 -147zM331 446c-84 0 -142 -74 -165 -158h52c130 0 196 36 196 95
c0 39 -35 63 -83 63zM210 604l20 111h108l-19 -111h-109zM391 604l20 111h107l-20 -111h-107z" />
    <glyph glyph-name="igrave" unicode="&#xec;" horiz-adv-x="259" 
d="M274 594h-95l-148 135h140zM138 0h-123l93 525h123z" />
    <glyph glyph-name="iacute" unicode="&#xed;" horiz-adv-x="259" 
d="M194 594h-108l143 135h155zM138 0h-123l93 525h123z" />
    <glyph glyph-name="icircumflex" unicode="&#xee;" horiz-adv-x="259" 
d="M268 729l79 -135h-81l-65 78l-92 -78h-93l127 135h125zM138 0h-123l93 525h123z" />
    <glyph glyph-name="idieresis" unicode="&#xef;" horiz-adv-x="259" 
d="M138 0h-123l93 525h123zM39 604l20 111h108l-20 -111h-108zM220 604l20 111h107l-20 -111h-107z" />
    <glyph glyph-name="eth" unicode="&#xf0;" horiz-adv-x="628" 
d="M304 535h-112l76 66h-14c-45 0 -87 -8 -87 -8v97s40 10 95 10c38 0 72 -5 104 -14l50 43h111l-88 -76c95 -60 146 -171 146 -313c0 -212 -119 -351 -312 -351c-150 0 -244 81 -244 220c0 153 117 267 264 267c133 0 178 -94 178 -94c-5 83 -40 162 -116 198zM449 260
c0 69 -38 119 -123 119c-111 0 -168 -85 -168 -174c0 -66 31 -120 121 -120c122 0 170 97 170 175z" />
    <glyph glyph-name="ntilde" unicode="&#xf1;" horiz-adv-x="613" 
d="M231 525l-12 -65c46 31 128 76 207 76c113 0 153 -73 134 -178l-63 -358h-124l62 345c9 53 1 93 -57 93c-60 0 -138 -44 -176 -74l-64 -364h-123l93 525h123zM251 600l-54 35c35 51 62 89 114 89c53 0 90 -48 124 -48c13 0 28 6 59 47l54 -36c-35 -51 -62 -88 -114 -88
c-53 0 -89 48 -123 48c-13 0 -29 -6 -60 -47z" />
    <glyph glyph-name="ograve" unicode="&#xf2;" horiz-adv-x="615" 
d="M314 536c161 0 256 -87 256 -235c0 -171 -102 -312 -282 -312c-160 0 -256 87 -256 234c0 171 103 313 282 313zM286 85c103 0 160 108 160 217c0 82 -38 137 -129 137c-103 0 -160 -108 -160 -217c0 -81 37 -137 129 -137zM452 594h-95l-147 135h140z" />
    <glyph glyph-name="oacute" unicode="&#xf3;" horiz-adv-x="615" 
d="M314 536c161 0 256 -87 256 -235c0 -171 -102 -312 -282 -312c-160 0 -256 87 -256 234c0 171 103 313 282 313zM286 85c103 0 160 108 160 217c0 82 -38 137 -129 137c-103 0 -160 -108 -160 -217c0 -81 37 -137 129 -137zM373 594h-108l143 135h155z" />
    <glyph glyph-name="ocircumflex" unicode="&#xf4;" horiz-adv-x="615" 
d="M314 536c161 0 256 -87 256 -235c0 -171 -102 -312 -282 -312c-160 0 -256 87 -256 234c0 171 103 313 282 313zM286 85c103 0 160 108 160 217c0 82 -38 137 -129 137c-103 0 -160 -108 -160 -217c0 -81 37 -137 129 -137zM446 729l79 -135h-80l-66 78l-92 -78h-92
l126 135h125z" />
    <glyph glyph-name="otilde" unicode="&#xf5;" horiz-adv-x="615" 
d="M314 536c161 0 256 -87 256 -235c0 -171 -102 -312 -282 -312c-160 0 -256 87 -256 234c0 171 103 313 282 313zM286 85c103 0 160 108 160 217c0 82 -38 137 -129 137c-103 0 -160 -108 -160 -217c0 -81 37 -137 129 -137zM249 600l-56 20c31 51 56 100 115 100
c48 0 91 -41 131 -41c18 0 34 6 55 40l55 -21c-30 -50 -55 -99 -113 -99c-49 0 -91 40 -131 40c-18 0 -34 -5 -56 -39z" />
    <glyph glyph-name="odieresis" unicode="&#xf6;" horiz-adv-x="615" 
d="M314 536c161 0 256 -87 256 -235c0 -171 -102 -312 -282 -312c-160 0 -256 87 -256 234c0 171 103 313 282 313zM286 85c103 0 160 108 160 217c0 82 -38 137 -129 137c-103 0 -160 -108 -160 -217c0 -81 37 -137 129 -137zM219 604l19 111h108l-19 -111h-108zM399 604
l20 111h107l-20 -111h-107z" />
    <glyph glyph-name="divide" unicode="&#xf7;" 
d="M60 286l16 94h506l-15 -94h-507zM283 502c-4 40 33 74 75 74c33 0 60 -24 63 -55c4 -41 -33 -75 -74 -75c-34 0 -61 25 -64 56zM221 146c-4 41 33 75 75 75c34 0 59 -24 62 -56c4 -40 -31 -74 -74 -74c-33 0 -60 24 -63 55z" />
    <glyph glyph-name="oslash" unicode="&#xf8;" horiz-adv-x="616" 
d="M515 525h81l-72 -74c31 -39 47 -89 47 -150c0 -171 -103 -312 -282 -312c-69 0 -126 15 -169 45l-33 -34h-83l73 75c-29 38 -44 88 -44 148c0 171 102 313 282 313c68 0 124 -16 167 -45zM286 85c103 0 160 108 160 217c0 22 -3 42 -9 59l-240 -248c20 -18 50 -28 89 -28
zM157 222c0 -21 3 -40 8 -57l240 247c-21 17 -50 27 -88 27c-103 0 -160 -108 -160 -217z" />
    <glyph glyph-name="ugrave" unicode="&#xf9;" horiz-adv-x="613" 
d="M368 0l11 62c-46 -30 -126 -73 -205 -73c-113 0 -153 73 -134 178l63 358h123l-61 -345c-10 -53 -1 -94 57 -94c59 0 136 43 174 74l65 365h124l-93 -525h-124zM447 594h-95l-147 135h140z" />
    <glyph glyph-name="uacute" unicode="&#xfa;" horiz-adv-x="613" 
d="M368 0l11 62c-46 -30 -126 -73 -205 -73c-113 0 -153 73 -134 178l63 358h123l-61 -345c-10 -53 -1 -94 57 -94c59 0 136 43 174 74l65 365h124l-93 -525h-124zM369 594h-109l143 135h155z" />
    <glyph glyph-name="ucircumflex" unicode="&#xfb;" horiz-adv-x="613" 
d="M368 0l11 62c-46 -30 -126 -73 -205 -73c-113 0 -153 73 -134 178l63 358h123l-61 -345c-10 -53 -1 -94 57 -94c59 0 136 43 174 74l65 365h124l-93 -525h-124zM442 729l79 -135h-80l-66 78l-92 -78h-93l127 135h125z" />
    <glyph glyph-name="udieresis" unicode="&#xfc;" horiz-adv-x="613" 
d="M368 0l11 62c-46 -30 -126 -73 -205 -73c-113 0 -153 73 -134 178l63 358h123l-61 -345c-10 -53 -1 -94 57 -94c59 0 136 43 174 74l65 365h124l-93 -525h-124zM214 604l19 111h109l-19 -111h-109zM395 604l19 111h108l-19 -111h-108z" />
    <glyph glyph-name="yacute" unicode="&#xfd;" horiz-adv-x="569" 
d="M-9 -124c91 31 131 46 177 117l-114 532h128l67 -382l203 382h138l-296 -525c-63 -110 -98 -179 -275 -221zM347 594h-108l143 135h155z" />
    <glyph glyph-name="thorn" unicode="&#xfe;" horiz-adv-x="615" 
d="M267 729l-47 -265c42 32 107 72 183 72c84 0 168 -49 168 -192c0 -208 -99 -355 -245 -355c-85 0 -140 44 -177 76l-47 -269h-123l165 933h123zM357 436c-59 0 -109 -37 -155 -75l-36 -201c35 -38 81 -71 132 -71c93 0 147 119 147 241c0 66 -29 106 -88 106z" />
    <glyph glyph-name="ydieresis" unicode="&#xff;" horiz-adv-x="569" 
d="M-9 -124c91 31 131 46 177 117l-114 532h128l67 -382l203 382h138l-296 -525c-63 -110 -98 -179 -275 -221zM191 604l20 111h109l-20 -111h-109zM372 604l20 111h108l-20 -111h-108z" />
    <glyph glyph-name="Amacron" unicode="&#x100;" horiz-adv-x="695" 
d="M494 0l-23 149h-285l-75 -149h-149l386 700h142l140 -700h-136zM404 581l-166 -329h217zM281 770l13 75h300l-13 -75h-300z" />
    <glyph glyph-name="amacron" unicode="&#x101;" horiz-adv-x="618" 
d="M496 0h-123l12 70c-43 -36 -114 -81 -195 -81c-78 0 -158 49 -158 192c0 207 101 355 250 355c80 0 135 -45 172 -77l12 66h123zM237 89c65 0 118 41 167 85l33 190c-32 38 -78 71 -127 71c-96 0 -151 -118 -151 -241c0 -65 27 -105 78 -105zM217 619l13 75h300l-13 -75
h-300z" />
    <glyph glyph-name="Abreve" unicode="&#x102;" horiz-adv-x="695" 
d="M494 0l-23 149h-285l-75 -149h-149l386 700h142l140 -700h-136zM404 581l-166 -329h217zM430 745c-99 0 -149 48 -137 117h78c-4 -31 16 -47 60 -47c48 0 86 16 92 47h80c-12 -72 -74 -117 -173 -117z" />
    <glyph glyph-name="abreve" unicode="&#x103;" horiz-adv-x="618" 
d="M496 0h-123l12 70c-43 -36 -114 -81 -195 -81c-78 0 -158 49 -158 192c0 207 101 355 250 355c80 0 135 -45 172 -77l12 66h123zM237 89c65 0 118 41 167 85l33 190c-32 38 -78 71 -127 71c-96 0 -151 -118 -151 -241c0 -65 27 -105 78 -105zM364 594
c-99 0 -149 48 -137 117h79c-5 -31 16 -47 59 -47c49 0 87 16 92 47h80c-12 -72 -74 -117 -173 -117z" />
    <glyph glyph-name="Aogonek" unicode="&#x104;" horiz-adv-x="695" 
d="M494 0l-23 149h-285l-75 -149h-149l386 700h142l140 -700h-3c-66 -33 -113 -66 -113 -102c0 -32 46 -28 72 -28l-22 -60c-34 0 -137 -5 -137 76c0 49 48 84 116 114h-49zM404 581l-166 -329h217z" />
    <glyph glyph-name="aogonek" unicode="&#x105;" horiz-adv-x="618" 
d="M382 -102c0 -32 45 -28 71 -28l-23 -60c-34 0 -135 -5 -135 76c0 49 46 84 115 114h-36l12 70c-43 -36 -114 -81 -195 -81c-78 0 -158 49 -158 192c0 207 101 355 250 355c80 0 135 -45 172 -77l12 66h123l-93 -524v-1h-2c-67 -33 -113 -66 -113 -102zM238 89
c65 0 118 41 167 85l33 190c-32 38 -78 71 -127 71c-96 0 -151 -118 -151 -241c0 -65 27 -105 78 -105z" />
    <glyph glyph-name="Cacute" unicode="&#x106;" horiz-adv-x="652" 
d="M677 602l-71 -90c-72 50 -130 83 -194 83c-133 0 -225 -141 -225 -314c0 -120 47 -177 123 -177c61 0 143 35 223 81l56 -101c-97 -52 -199 -95 -307 -95c-132 0 -228 85 -228 283c0 275 155 439 344 439c117 0 203 -58 279 -109zM475 745h-108l142 135h156z" />
    <glyph glyph-name="cacute" unicode="&#x107;" horiz-adv-x="521" 
d="M521 460l-59 -85c-29 16 -86 55 -140 55c-91 0 -163 -99 -163 -211c0 -76 33 -124 99 -124c52 0 121 37 156 53l43 -95c-50 -22 -139 -64 -224 -64c-116 0 -202 74 -202 219c0 219 137 328 266 328c101 0 176 -49 224 -76zM349 594h-108l143 135h155z" />
    <glyph glyph-name="Cdotaccent" unicode="&#x10a;" horiz-adv-x="652" 
d="M677 602l-71 -90c-72 50 -130 83 -194 83c-133 0 -225 -141 -225 -314c0 -120 47 -177 123 -177c61 0 143 35 223 81l56 -101c-97 -52 -199 -95 -307 -95c-132 0 -228 85 -228 283c0 275 155 439 344 439c117 0 203 -58 279 -109zM376 755l20 111h109l-20 -111h-109z" />
    <glyph glyph-name="cdotaccent" unicode="&#x10b;" horiz-adv-x="521" 
d="M521 460l-59 -85c-29 16 -86 55 -140 55c-91 0 -163 -99 -163 -211c0 -76 33 -124 99 -124c52 0 121 37 156 53l43 -95c-50 -22 -139 -64 -224 -64c-116 0 -202 74 -202 219c0 219 137 328 266 328c101 0 176 -49 224 -76zM284 604l19 111h108l-19 -111h-108z" />
    <glyph glyph-name="Ccaron" unicode="&#x10c;" horiz-adv-x="652" 
d="M677 602l-71 -90c-72 50 -130 83 -194 83c-133 0 -225 -141 -225 -314c0 -120 47 -177 123 -177c61 0 143 35 223 81l56 -101c-97 -52 -199 -95 -307 -95c-132 0 -228 85 -228 283c0 275 155 439 344 439c117 0 203 -58 279 -109zM373 745l-79 135h81l65 -78l92 78h92
l-125 -135h-126z" />
    <glyph glyph-name="ccaron" unicode="&#x10d;" horiz-adv-x="521" 
d="M521 460l-59 -85c-29 16 -86 55 -140 55c-91 0 -163 -99 -163 -211c0 -76 33 -124 99 -124c52 0 121 37 156 53l43 -95c-50 -22 -139 -64 -224 -64c-116 0 -202 74 -202 219c0 219 137 328 266 328c101 0 176 -49 224 -76zM274 594l-79 135h81l65 -78l93 78h91l-126 -135
h-125z" />
    <glyph glyph-name="Dcaron" unicode="&#x10e;" horiz-adv-x="715" 
d="M679 427c0 -183 -102 -427 -395 -427h-255l123 700h206c220 0 321 -106 321 -273zM549 425c0 121 -76 165 -209 165h-78l-86 -481h89c187 0 284 144 284 316zM387 745l-79 135h81l65 -78l92 78h92l-125 -135h-126z" />
    <glyph glyph-name="dcaron" unicode="&#x10f;" horiz-adv-x="668" 
d="M496 0h-123l12 70c-43 -37 -114 -81 -195 -81c-78 0 -158 49 -158 192c0 207 101 355 250 355c80 0 135 -45 172 -77l48 270h123zM237 89c65 0 118 41 167 85l33 190c-32 38 -78 71 -127 71c-96 0 -151 -118 -151 -241c0 -65 27 -105 78 -105zM660 617l19 112h100
l-12 -122l-103 -107l-23 32l64 85h-45z" />
    <glyph glyph-name="Dcroat" unicode="&#x110;" horiz-adv-x="727" 
d="M692 427c0 -183 -103 -427 -396 -427h-255l52 299h-72l16 102h74l52 299h207c219 0 322 -106 322 -273zM375 299h-153l-34 -190h90c186 0 283 144 283 316c0 121 -76 165 -209 165h-78l-34 -189h151z" />
    <glyph glyph-name="dcroat" unicode="&#x111;" horiz-adv-x="618" 
d="M496 0h-123l12 70c-43 -37 -114 -81 -195 -81c-78 0 -158 49 -158 192c0 207 101 355 250 355c80 0 135 -45 172 -77l22 125h-168l12 75h169l13 70h123l-13 -70h62l-12 -75h-63zM237 89c65 0 118 41 167 85l33 190c-32 38 -78 71 -127 71c-96 0 -151 -118 -151 -241
c0 -65 27 -105 78 -105z" />
    <glyph glyph-name="Emacron" unicode="&#x112;" horiz-adv-x="607" 
d="M507 0h-478l122 700h473l-18 -110h-344l-35 -186h283l-18 -108h-283l-34 -187h350zM253 770l13 75h299l-13 -75h-299z" />
    <glyph glyph-name="emacron" unicode="&#x113;" horiz-adv-x="565" 
d="M534 389c0 -131 -128 -172 -322 -172h-56v-8c0 -78 33 -127 105 -127c64 0 140 38 195 65l40 -87c-41 -20 -150 -71 -256 -71c-125 0 -209 69 -209 227c0 183 116 320 304 320c123 0 199 -60 199 -147zM331 446c-84 0 -142 -74 -165 -158h52c130 0 196 36 196 95
c0 39 -35 63 -83 63zM207 619l13 75h300l-13 -75h-300z" />
    <glyph glyph-name="Edotaccent" unicode="&#x116;" horiz-adv-x="607" 
d="M507 0h-478l122 700h473l-18 -110h-344l-35 -186h283l-18 -108h-283l-34 -187h350zM347 755l19 111h107l-19 -111h-107z" />
    <glyph glyph-name="edotaccent" unicode="&#x117;" horiz-adv-x="565" 
d="M534 389c0 -131 -128 -172 -322 -172h-56v-8c0 -78 33 -127 105 -127c64 0 140 38 195 65l40 -87c-41 -20 -150 -71 -256 -71c-125 0 -209 69 -209 227c0 183 116 320 304 320c123 0 199 -60 199 -147zM331 446c-84 0 -142 -74 -165 -158h52c130 0 196 36 196 95
c0 39 -35 63 -83 63zM299 604l20 111h108l-19 -111h-109z" />
    <glyph glyph-name="Eogonek" unicode="&#x118;" horiz-adv-x="607" 
d="M507 0h-3c-66 -33 -113 -66 -113 -102c0 -32 45 -28 71 -28l-22 -60c-34 0 -135 -5 -135 76c0 49 47 84 115 114h-391l122 700h473l-18 -110h-344l-35 -186h283l-18 -108h-283l-34 -187h350z" />
    <glyph glyph-name="eogonek" unicode="&#x119;" horiz-adv-x="565" 
d="M534 389c0 -131 -128 -172 -322 -172h-56v-8c0 -78 33 -127 105 -127c64 0 140 38 195 65l40 -87c-30 -15 -94 -45 -167 -60c-67 -34 -112 -66 -112 -102c0 -32 45 -28 71 -28l-23 -60c-33 0 -135 -5 -135 76c0 43 36 76 92 104c-115 6 -191 75 -191 226
c0 183 116 320 304 320c123 0 199 -60 199 -147zM331 446c-84 0 -142 -74 -165 -158h52c130 0 196 36 196 95c0 39 -35 63 -83 63z" />
    <glyph glyph-name="Ecaron" unicode="&#x11a;" horiz-adv-x="607" 
d="M337 745l-80 135h81l65 -78l93 78h92l-127 -135h-124zM507 0h-478l122 700h473l-18 -110h-344l-35 -186h283l-18 -108h-283l-34 -187h350z" />
    <glyph glyph-name="ecaron" unicode="&#x11b;" horiz-adv-x="565" 
d="M534 389c0 -131 -128 -172 -322 -172h-56v-8c0 -78 33 -127 105 -127c64 0 140 38 195 65l40 -87c-41 -20 -150 -71 -256 -71c-125 0 -209 69 -209 227c0 183 116 320 304 320c123 0 199 -60 199 -147zM331 446c-84 0 -142 -74 -165 -158h52c130 0 196 36 196 95
c0 39 -35 63 -83 63zM290 594l-79 135h80l66 -78l92 78h93l-127 -135h-125z" />
    <glyph glyph-name="Gbreve" unicode="&#x11e;" horiz-adv-x="708" 
d="M474 0l13 75c-60 -47 -128 -86 -209 -86c-127 0 -224 88 -224 277c0 293 160 445 344 445c121 0 217 -62 293 -114l-73 -89c-57 37 -128 87 -207 87c-132 0 -224 -140 -224 -315c0 -108 36 -181 125 -181c74 0 158 60 196 90l18 103h-173l17 102h294l-69 -394h-121z
M433 745c-99 0 -149 48 -137 117h79c-5 -31 16 -47 59 -47c49 0 86 16 92 47h80c-12 -72 -74 -117 -173 -117z" />
    <glyph glyph-name="gbreve" unicode="&#x11f;" horiz-adv-x="616" 
d="M364 594c-99 0 -149 48 -138 117h80c-5 -31 15 -47 59 -47c48 0 86 16 92 47h81c-13 -72 -75 -117 -174 -117zM465 525h123l-95 -537c-28 -161 -113 -202 -247 -202c-84 0 -180 17 -260 40l41 100c67 -21 143 -39 209 -39c94 0 124 49 133 96l15 85
c-45 -36 -114 -79 -193 -79s-159 49 -159 192c0 207 102 355 251 355c79 0 134 -44 170 -76zM238 89c63 0 115 40 164 83l35 194c-34 37 -78 69 -127 69c-95 0 -151 -118 -151 -241c0 -65 27 -105 79 -105z" />
    <glyph glyph-name="Gdotaccent" unicode="&#x120;" horiz-adv-x="708" 
d="M474 0l13 75c-60 -47 -128 -86 -209 -86c-127 0 -224 88 -224 277c0 293 160 445 344 445c121 0 217 -62 293 -114l-73 -89c-57 37 -128 87 -207 87c-132 0 -224 -140 -224 -315c0 -108 36 -181 125 -181c74 0 158 60 196 90l18 103h-173l17 102h294l-69 -394h-121z
M377 755l20 111h109l-20 -111h-109z" />
    <glyph glyph-name="gdotaccent" unicode="&#x121;" horiz-adv-x="616" 
d="M308 604l20 111h107l-19 -111h-108zM465 525h123l-95 -537c-28 -161 -113 -202 -247 -202c-84 0 -180 17 -260 40l41 100c67 -21 143 -39 209 -39c94 0 124 49 133 96l15 85c-45 -36 -114 -79 -193 -79s-159 49 -159 192c0 207 102 355 251 355c79 0 134 -44 170 -76z
M238 89c63 0 115 40 164 83l35 194c-34 37 -78 69 -127 69c-95 0 -151 -118 -151 -241c0 -65 27 -105 79 -105z" />
    <glyph glyph-name="Gcommaaccent" unicode="&#x122;" horiz-adv-x="708" 
d="M474 0l13 75c-60 -47 -128 -86 -209 -86c-126 0 -224 88 -224 277c0 293 161 445 345 445c121 0 217 -62 292 -114l-72 -89c-58 37 -128 87 -207 87c-133 0 -225 -140 -225 -315c0 -108 36 -181 126 -181c74 0 158 60 195 90l18 103h-172l17 102h294l-69 -394h-122z
M235 -171l19 112h100l-12 -122l-103 -107l-23 32l65 85h-46z" />
    <glyph glyph-name="gcommaaccent" unicode="&#x123;" horiz-adv-x="616" 
d="M438 716l-19 -112h-98l11 121l102 108l24 -33l-65 -84h45zM465 525h123l-95 -537c-28 -161 -113 -202 -247 -202c-84 0 -180 17 -260 40l41 100c67 -21 143 -39 209 -39c94 0 124 49 133 96l15 85c-45 -36 -114 -79 -193 -79s-159 49 -159 192c0 207 102 355 251 355
c79 0 134 -44 170 -76zM238 89c63 0 115 40 164 83l35 194c-34 37 -78 69 -127 69c-95 0 -151 -118 -151 -241c0 -65 27 -105 79 -105z" />
    <glyph glyph-name="Hbar" unicode="&#x126;" horiz-adv-x="738" 
d="M466 0l55 313h-299l-55 -313h-129l91 517h-74l12 75h75l19 108h129l-19 -108h299l19 108h128l-19 -108h75l-13 -75h-75l-91 -517h-128zM258 517l-17 -96h299l17 96h-299z" />
    <glyph glyph-name="hbar" unicode="&#x127;" horiz-adv-x="613" 
d="M57 584l13 75h61l13 70h123l-13 -70h169l-12 -75h-170l-22 -124c46 31 128 76 207 76c113 0 153 -73 134 -178l-63 -358h-124l62 345c9 53 1 93 -57 93c-60 0 -138 -44 -176 -74l-64 -364h-123l103 584h-61z" />
    <glyph glyph-name="Itilde" unicode="&#x128;" horiz-adv-x="292" 
d="M115 751l-54 35c35 51 62 89 114 89c53 0 90 -48 124 -48c13 0 28 6 59 47l54 -36c-35 -51 -62 -88 -114 -88c-53 0 -89 48 -123 48c-13 0 -29 -6 -60 -47zM157 0h-128l123 700h128z" />
    <glyph glyph-name="itilde" unicode="&#x129;" horiz-adv-x="259" 
d="M73 600l-54 35c35 51 62 89 114 89c53 0 89 -48 123 -48c13 0 29 6 59 47l54 -36c-35 -51 -62 -88 -114 -88c-53 0 -89 48 -123 48c-13 0 -29 -6 -59 -47zM138 0h-123l93 525h123z" />
    <glyph glyph-name="Imacron" unicode="&#x12a;" horiz-adv-x="292" 
d="M157 0h-128l123 700h128zM78 770l13 75h300l-13 -75h-300z" />
    <glyph glyph-name="imacron" unicode="&#x12b;" horiz-adv-x="259" 
d="M138 0h-123l93 525h123zM35 619l13 75h300l-13 -75h-300z" />
    <glyph glyph-name="Ibreve" unicode="&#x12c;" horiz-adv-x="292" 
d="M227 745c-99 0 -149 48 -138 117h80c-5 -31 15 -47 58 -47c50 0 87 16 93 47h80c-12 -72 -75 -117 -173 -117zM157 0h-128l123 700h128z" />
    <glyph glyph-name="ibreve" unicode="&#x12d;" horiz-adv-x="259" 
d="M184 594c-98 0 -148 48 -137 117h79c-4 -31 16 -47 59 -47c49 0 86 16 92 47h81c-13 -72 -75 -117 -174 -117zM138 0h-123l93 525h123z" />
    <glyph glyph-name="Iogonek" unicode="&#x12e;" horiz-adv-x="292" 
d="M157 0h-3c-66 -33 -113 -66 -113 -102c0 -32 45 -28 72 -28l-23 -60c-34 0 -135 -5 -135 76c0 49 47 84 115 114h-41l123 700h129z" />
    <glyph glyph-name="iogonek" unicode="&#x12f;" horiz-adv-x="259" 
d="M139 0h-4c-66 -33 -113 -66 -113 -102c0 -32 46 -28 72 -28l-23 -60c-33 0 -135 -5 -135 76c0 49 48 84 115 114h-36l93 525h123zM120 610l19 116h132l-20 -116h-131z" />
    <glyph glyph-name="Idotaccent" unicode="&#x130;" horiz-adv-x="292" 
d="M157 0h-128l123 700h128zM172 755l19 111h108l-19 -111h-108z" />
    <glyph glyph-name="dotlessi" unicode="&#x131;" horiz-adv-x="259" 
d="M138 0h-123l93 525h123z" />
    <glyph glyph-name="IJ" unicode="&#x132;" horiz-adv-x="585" 
d="M578 700l-114 -643c-22 -126 -29 -176 -238 -224l-30 102c119 34 127 51 139 116l115 649h128zM157 0h-128l123 700h128z" />
    <glyph glyph-name="ij" unicode="&#x133;" horiz-adv-x="519" 
d="M385 610l20 116h132l-20 -116h-132zM497 525l-93 -523c-23 -126 -30 -176 -237 -223l-28 95c123 37 128 52 140 119l94 532h124zM138 0h-123l93 525h123zM119 610l20 116h131l-19 -116h-132z" />
    <glyph glyph-name="Jcircumflex" unicode="&#x134;" horiz-adv-x="292" 
d="M281 700l-113 -643c-23 -126 -30 -176 -239 -224l-30 102c119 34 128 51 139 116l115 649h128zM312 880l79 -135h-81l-66 78l-91 -78h-93l126 135h126z" />
    <glyph glyph-name="jcircumflex" unicode="&#x135;" horiz-adv-x="259" 
d="M231 525l-94 -523c-22 -126 -30 -176 -237 -223l-27 95c122 37 128 52 139 119l95 532h124zM266 729l80 -135h-81l-66 78l-91 -78h-93l126 135h125z" />
    <glyph glyph-name="Kcommaaccent" unicode="&#x136;" horiz-adv-x="675" 
d="M29 0l123 700h128l-60 -340l338 340h165l-339 -334l235 -366h-142l-180 281l-110 -108l-30 -173h-128zM204 -171l19 112h98l-11 -122l-103 -107l-23 32l64 85h-44z" />
    <glyph glyph-name="kcommaaccent" unicode="&#x137;" horiz-adv-x="549" 
d="M557 525l-218 -214l156 -311h-126l-114 228l-93 -91l-24 -137h-123l129 729h123l-76 -427l216 223h150zM151 -171l19 112h100l-12 -122l-103 -107l-24 32l65 85h-45z" />
    <glyph glyph-name="kgreenlandic" unicode="&#x138;" horiz-adv-x="549" 
d="M557 525l-218 -214l156 -311h-126l-114 228l-93 -91l-24 -137h-123l93 525h123l-40 -223l216 223h150z" />
    <glyph glyph-name="Lacute" unicode="&#x139;" horiz-adv-x="559" 
d="M237 745h-108l143 135h155zM491 0h-462l123 700h128l-105 -593h333z" />
    <glyph glyph-name="lacute" unicode="&#x13a;" horiz-adv-x="265" 
d="M229 774h-108l143 135h155zM142 0h-124l129 729h124z" />
    <glyph glyph-name="Lcommaaccent" unicode="&#x13b;" horiz-adv-x="559" 
d="M177 -171l19 112h99l-12 -122l-103 -107l-23 32l64 85h-44zM491 0h-462l123 700h128l-105 -593h333z" />
    <glyph glyph-name="lcommaaccent" unicode="&#x13c;" horiz-adv-x="265" 
d="M2 -171l19 112h99l-12 -122l-103 -107l-23 32l65 85h-45zM142 0h-124l129 729h123z" />
    <glyph glyph-name="Lcaron" unicode="&#x13d;" horiz-adv-x="559" 
d="M315 588l19 112h100l-11 -122l-104 -107l-23 32l65 85h-46zM491 0h-462l123 700h128l-105 -593h333z" />
    <glyph glyph-name="lcaron" unicode="&#x13e;" horiz-adv-x="313" 
d="M305 617l19 112h100l-11 -122l-104 -107l-23 32l65 85h-46zM141 0h-123l129 729h123z" />
    <glyph glyph-name="Ldot" unicode="&#x13f;" horiz-adv-x="560" 
d="M491 0h-462l123 700h128l-105 -593h333zM384 310l19 112h108l-18 -112h-109z" />
    <glyph glyph-name="ldot" unicode="&#x140;" horiz-adv-x="341" 
d="M141 0h-123l129 729h123zM249 310l19 112h108l-19 -112h-108z" />
    <glyph glyph-name="Lslash" unicode="&#x141;" horiz-adv-x="576" 
d="M505 0h-461l43 247l-76 -39l20 116l77 39l59 337h128l-47 -265l146 75l-19 -117l-148 -75l-37 -211h333z" />
    <glyph glyph-name="lslash" unicode="&#x142;" horiz-adv-x="297" 
d="M158 0h-123l47 270l-69 -35l20 116l70 36l60 342h124l-48 -272l69 36l-19 -117l-71 -36z" />
    <glyph glyph-name="Nacute" unicode="&#x143;" horiz-adv-x="736" 
d="M283 700l221 -518l91 518h129l-123 -700h-131l-222 519l-91 -519h-128l123 700h131zM464 745h-108l143 135h156z" />
    <glyph glyph-name="nacute" unicode="&#x144;" horiz-adv-x="613" 
d="M231 525l-12 -65c46 31 128 76 207 76c113 0 153 -73 134 -178l-63 -358h-124l62 345c9 53 1 93 -57 93c-60 0 -138 -44 -176 -74l-64 -364h-123l93 525h123zM374 594h-109l144 135h154z" />
    <glyph glyph-name="Ncommaaccent" unicode="&#x145;" horiz-adv-x="736" 
d="M470 0l-222 519l-91 -519h-128l123 700h131l221 -518l91 518h129l-123 -700h-131zM242 -171l19 112h100l-11 -122l-104 -107l-23 32l64 85h-45z" />
    <glyph glyph-name="ncommaaccent" unicode="&#x146;" horiz-adv-x="613" 
d="M231 525l-12 -65c46 31 128 76 207 76c113 0 153 -73 134 -178l-63 -358h-124l62 345c9 53 1 93 -57 93c-60 0 -138 -44 -176 -74l-64 -364h-123l93 525h123zM178 -171l19 112h99l-12 -122l-103 -107l-23 32l64 85h-44z" />
    <glyph glyph-name="Ncaron" unicode="&#x147;" horiz-adv-x="736" 
d="M283 700l221 -518l91 518h129l-123 -700h-131l-222 519l-91 -519h-128l123 700h131zM389 745l-79 135h81l65 -78l92 78h92l-125 -135h-126z" />
    <glyph glyph-name="ncaron" unicode="&#x148;" horiz-adv-x="613" 
d="M231 525l-12 -65c46 31 128 76 207 76c113 0 153 -73 134 -178l-63 -358h-124l62 345c9 53 1 93 -57 93c-60 0 -138 -44 -176 -74l-64 -364h-123l93 525h123zM297 594l-80 135h81l66 -78l92 78h92l-126 -135h-125z" />
    <glyph glyph-name="napostrophe" unicode="&#x149;" horiz-adv-x="613" 
d="M231 525l-12 -65c46 31 128 76 207 76c113 0 153 -73 134 -178l-63 -358h-124l62 345c9 53 1 93 -57 93c-60 0 -138 -44 -176 -74l-64 -364h-123l93 525h123zM136 683l19 112h100l-11 -121l-104 -108l-23 33l65 84h-46z" />
    <glyph glyph-name="Eng" unicode="&#x14a;" horiz-adv-x="736" 
d="M724 700l-116 -661c-22 -115 -38 -160 -237 -206l-30 102c78 23 111 36 126 70l-219 514l-91 -519h-128l123 700h131l221 -518l91 518h129z" />
    <glyph glyph-name="eng" unicode="&#x14b;" horiz-adv-x="613" 
d="M497 2c-22 -126 -30 -176 -237 -223l-28 95c123 37 128 52 140 119l63 352c10 53 1 93 -57 93c-60 0 -138 -44 -176 -74l-64 -364h-123l93 525h123l-12 -65c46 31 128 76 207 76c113 0 153 -73 134 -179z" />
    <glyph glyph-name="Omacron" unicode="&#x14c;" horiz-adv-x="760" 
d="M410 711c214 0 313 -121 314 -303c0 -154 -85 -420 -358 -420c-213 0 -312 121 -313 303c0 154 85 420 357 420zM362 98c166 0 229 191 229 307c0 103 -37 196 -176 196c-166 0 -229 -191 -229 -307c0 -103 37 -196 176 -196zM312 770l13 75h300l-13 -75h-300z" />
    <glyph glyph-name="omacron" unicode="&#x14d;" horiz-adv-x="615" 
d="M314 536c161 0 256 -87 256 -235c0 -171 -102 -312 -282 -312c-160 0 -256 87 -256 234c0 171 103 313 282 313zM286 85c103 0 160 108 160 217c0 82 -38 137 -129 137c-103 0 -160 -108 -160 -217c0 -81 37 -137 129 -137zM214 618l12 75h300l-12 -75h-300z" />
    <glyph glyph-name="Obreve" unicode="&#x14e;" horiz-adv-x="760" 
d="M410 711c214 0 313 -121 314 -303c0 -154 -85 -420 -358 -420c-213 0 -312 121 -313 303c0 154 85 420 357 420zM362 98c166 0 229 191 229 307c0 103 -37 196 -176 196c-166 0 -229 -191 -229 -307c0 -103 37 -196 176 -196zM461 745c-99 0 -148 48 -137 117h79
c-4 -31 15 -47 59 -47c49 0 86 16 92 47h81c-13 -72 -75 -117 -174 -117z" />
    <glyph glyph-name="obreve" unicode="&#x14f;" horiz-adv-x="615" 
d="M314 536c161 0 256 -87 256 -235c0 -171 -102 -312 -282 -312c-160 0 -256 87 -256 234c0 171 103 313 282 313zM286 85c103 0 160 108 160 217c0 82 -38 137 -129 137c-103 0 -160 -108 -160 -217c0 -81 37 -137 129 -137zM363 594c-98 0 -148 48 -137 117h79
c-4 -31 16 -47 59 -47c49 0 87 16 93 47h80c-13 -72 -75 -117 -174 -117z" />
    <glyph glyph-name="Ohungarumlaut" unicode="&#x150;" horiz-adv-x="760" 
d="M410 711c214 0 313 -121 314 -303c0 -154 -85 -420 -358 -420c-213 0 -312 121 -313 303c0 154 85 420 357 420zM362 98c166 0 229 191 229 307c0 103 -37 196 -176 196c-166 0 -229 -191 -229 -307c0 -103 37 -196 176 -196zM563 745h-76l100 135h123zM396 745h-76
l100 135h123z" />
    <glyph glyph-name="ohungarumlaut" unicode="&#x151;" horiz-adv-x="615" 
d="M314 536c161 0 256 -87 256 -235c0 -171 -102 -312 -282 -312c-160 0 -256 87 -256 234c0 171 103 313 282 313zM286 85c103 0 160 108 160 217c0 82 -38 137 -129 137c-103 0 -160 -108 -160 -217c0 -81 37 -137 129 -137zM465 594h-77l99 135h124zM298 594h-76l99 135
h124z" />
    <glyph glyph-name="OE" unicode="&#x152;" horiz-adv-x="1110" 
d="M1010 0h-477l6 33c-47 -28 -104 -45 -173 -45c-213 0 -312 121 -313 303c0 154 85 420 357 420c104 0 181 -29 233 -80l12 69h472l-17 -110h-344l-35 -186h283l-17 -108h-284l-34 -187h349zM362 98c166 0 229 191 229 307c0 103 -37 196 -176 196
c-166 0 -229 -191 -229 -307c0 -103 37 -196 176 -196z" />
    <glyph glyph-name="oe" unicode="&#x153;" horiz-adv-x="975" 
d="M945 389c0 -131 -128 -172 -321 -172h-57v-8c0 -78 33 -127 105 -127c63 0 140 38 194 65l41 -87c-42 -20 -149 -71 -256 -71c-74 0 -133 24 -170 75c-47 -47 -112 -75 -193 -75c-160 0 -256 87 -256 234c0 171 103 313 282 313c96 0 169 -32 212 -88
c52 55 128 88 220 88c124 0 199 -60 199 -147zM286 85c103 0 160 108 160 217c0 82 -38 137 -129 137c-103 0 -160 -108 -160 -217c0 -81 37 -137 129 -137zM742 446c-84 0 -142 -74 -165 -158h53c129 0 195 36 195 95c0 39 -34 63 -83 63z" />
    <glyph glyph-name="Racute" unicode="&#x154;" horiz-adv-x="694" 
d="M465 0l-122 280h-136l-50 -280h-128l123 700h282c161 0 254 -59 254 -186c0 -111 -78 -211 -222 -231l132 -283h-133zM555 511c0 66 -56 87 -131 87h-161l-39 -216h163c103 0 168 45 168 129zM457 745h-109l144 135h155z" />
    <glyph glyph-name="racute" unicode="&#x155;" horiz-adv-x="406" 
d="M231 525l-20 -111c14 24 84 126 217 117l-20 -117c-170 0 -226 -177 -226 -177l-44 -237h-123l93 525h123zM292 594h-108l143 135h156z" />
    <glyph glyph-name="Rcommaaccent" unicode="&#x156;" horiz-adv-x="694" 
d="M465 0l-122 280h-136l-50 -280h-128l123 700h282c161 0 254 -59 254 -186c0 -111 -78 -211 -222 -231l132 -283h-133zM555 511c0 66 -56 87 -131 87h-161l-39 -216h163c103 0 168 45 168 129zM213 -171l18 112h100l-11 -122l-104 -107l-22 32l64 85h-45z" />
    <glyph glyph-name="rcommaaccent" unicode="&#x157;" horiz-adv-x="406" 
d="M231 525l-20 -111c13 24 82 126 216 117l-19 -117c-171 0 -227 -177 -227 -177l-43 -237h-124l93 525h124zM-3 -171l19 112h100l-12 -122l-103 -107l-23 32l64 85h-45z" />
    <glyph glyph-name="Rcaron" unicode="&#x158;" horiz-adv-x="694" 
d="M465 0l-122 280h-136l-50 -280h-128l123 700h282c161 0 254 -59 254 -186c0 -111 -78 -211 -222 -231l132 -283h-133zM555 511c0 66 -56 87 -131 87h-161l-39 -216h163c103 0 168 45 168 129zM382 745l-79 135h80l66 -78l92 78h93l-127 -135h-125z" />
    <glyph glyph-name="rcaron" unicode="&#x159;" horiz-adv-x="406" 
d="M231 525l-20 -111c14 24 84 126 217 117l-20 -117c-170 0 -226 -177 -226 -177l-44 -237h-123l93 525h123zM217 594l-78 135h80l65 -78l93 78h91l-125 -135h-126z" />
    <glyph glyph-name="Sacute" unicode="&#x15a;" 
d="M405 745h-108l143 135h156zM404 399c84 -35 170 -82 170 -195c0 -128 -111 -215 -268 -215c-123 0 -239 54 -307 100l69 88c60 -36 154 -81 234 -81c75 0 136 36 136 94c0 68 -94 84 -190 125c-84 35 -160 81 -160 187c0 121 101 209 257 209c110 0 212 -44 283 -84
l-69 -87c-55 32 -145 63 -208 63c-66 0 -125 -30 -125 -90c0 -62 74 -70 178 -114z" />
    <glyph glyph-name="sacute" unicode="&#x15b;" horiz-adv-x="525" 
d="M330 594h-108l143 135h156zM304 311c84 -26 163 -60 163 -156c0 -103 -91 -166 -220 -166c-106 0 -199 42 -254 77l59 82c52 -30 133 -63 196 -63c52 0 92 23 92 59c0 45 -58 55 -128 77c-74 23 -155 56 -155 151c0 97 84 164 210 164c90 0 182 -35 232 -63l-58 -80
c-45 23 -114 48 -169 48c-51 0 -89 -22 -89 -57c0 -44 60 -54 121 -73z" />
    <glyph glyph-name="Scircumflex" unicode="&#x15c;" 
d="M480 880l78 -135h-80l-65 78l-93 -78h-92l126 135h126zM404 399c84 -35 170 -82 170 -195c0 -128 -111 -215 -268 -215c-123 0 -239 54 -307 100l69 88c60 -36 154 -81 234 -81c75 0 136 36 136 94c0 68 -94 84 -190 125c-84 35 -160 81 -160 187c0 121 101 209 257 209
c110 0 212 -44 283 -84l-69 -87c-55 32 -145 63 -208 63c-66 0 -125 -30 -125 -90c0 -62 74 -70 178 -114z" />
    <glyph glyph-name="scircumflex" unicode="&#x15d;" horiz-adv-x="525" 
d="M404 729l80 -135h-80l-67 78l-92 -78h-92l127 135h124zM304 311c84 -26 163 -60 163 -156c0 -103 -91 -166 -220 -166c-106 0 -199 42 -254 77l59 82c52 -30 133 -63 196 -63c52 0 92 23 92 59c0 45 -58 55 -128 77c-74 23 -155 56 -155 151c0 97 84 164 210 164
c90 0 182 -35 232 -63l-58 -80c-45 23 -114 48 -169 48c-51 0 -89 -22 -89 -57c0 -44 60 -54 121 -73z" />
    <glyph glyph-name="Scedilla" unicode="&#x15e;" 
d="M403 399c85 -35 171 -82 171 -195c0 -124 -105 -209 -253 -215c8 -14 19 -38 19 -67c0 -67 -52 -101 -120 -101c-29 0 -62 6 -87 20l36 64c19 -10 36 -12 49 -12c27 0 56 12 56 49c0 18 -7 37 -11 49c-107 10 -204 57 -264 98l69 88c60 -36 154 -81 234 -81
c75 0 135 36 135 94c0 68 -94 84 -189 125c-85 35 -161 81 -161 187c0 121 101 209 258 209c110 0 211 -44 282 -84l-68 -87c-56 32 -145 63 -209 63c-65 0 -125 -30 -125 -90c0 -62 74 -70 178 -114z" />
    <glyph glyph-name="scedilla" unicode="&#x15f;" horiz-adv-x="525" 
d="M304 311c84 -26 163 -60 163 -156s-78 -156 -193 -165c8 -14 19 -38 19 -68c0 -67 -51 -101 -119 -101c-28 0 -62 6 -88 20l36 64c20 -10 39 -12 50 -12c27 0 56 12 56 49c0 18 -6 36 -11 48c-94 7 -174 44 -224 76l59 82c52 -30 133 -63 196 -63c52 0 92 23 92 59
c0 45 -58 55 -128 77c-74 23 -155 56 -155 151c0 97 84 164 210 164c90 0 182 -35 232 -63l-58 -80c-45 23 -114 48 -169 48c-51 0 -89 -22 -89 -57c0 -44 60 -54 121 -73z" />
    <glyph glyph-name="Scaron" unicode="&#x160;" 
d="M331 745l-79 135h80l66 -78l92 78h92l-126 -135h-125zM404 399c84 -35 170 -82 170 -195c0 -128 -111 -215 -268 -215c-123 0 -239 54 -307 100l69 88c60 -36 154 -81 234 -81c75 0 136 36 136 94c0 68 -94 84 -190 125c-84 35 -160 81 -160 187c0 121 101 209 257 209
c110 0 212 -44 283 -84l-69 -87c-55 32 -145 63 -208 63c-66 0 -125 -30 -125 -90c0 -62 74 -70 178 -114z" />
    <glyph glyph-name="scaron" unicode="&#x161;" horiz-adv-x="525" 
d="M255 594l-80 135h81l67 -78l91 78h93l-127 -135h-125zM304 311c84 -26 163 -60 163 -156c0 -103 -91 -166 -220 -166c-106 0 -199 42 -254 77l59 82c52 -30 133 -63 196 -63c52 0 92 23 92 59c0 45 -58 55 -128 77c-74 23 -155 56 -155 151c0 97 84 164 210 164
c90 0 182 -35 232 -63l-58 -80c-45 23 -114 48 -169 48c-51 0 -89 -22 -89 -57c0 -44 60 -54 121 -73z" />
    <glyph glyph-name="Tcedilla" unicode="&#x162;" horiz-adv-x="582" 
d="M616 590h-209l-105 -590h-37c5 -7 25 -39 25 -78c0 -67 -51 -101 -119 -101c-28 0 -63 6 -88 20l36 64c20 -10 38 -12 50 -12c27 0 55 12 55 49c0 24 -12 51 -15 58h-36l105 590h-209l18 110h547z" />
    <glyph glyph-name="tcedilla" unicode="&#x163;" horiz-adv-x="400" 
d="M50 433l15 92h71l24 132l126 20l-27 -152h143l-16 -92h-144l-50 -285c-7 -42 12 -51 34 -51c27 0 72 16 92 24l31 -97c-28 -10 -89 -29 -141 -34c8 -14 19 -38 19 -68c0 -67 -51 -101 -120 -101c-27 0 -61 6 -87 20l37 64c19 -10 38 -12 48 -12c28 0 57 12 57 49
c0 19 -8 40 -13 51c-62 14 -95 69 -77 169l48 271h-70z" />
    <glyph glyph-name="Tcaron" unicode="&#x164;" horiz-adv-x="582" 
d="M305 745l-79 135h81l65 -78l93 78h92l-126 -135h-126zM615 590h-209l-105 -590h-128l105 590h-209l18 110h546z" />
    <glyph glyph-name="tcaron" unicode="&#x165;" horiz-adv-x="399" 
d="M48 433l15 92h71l24 132l127 20l-28 -152h143l-16 -92h-143l-51 -285c-7 -42 11 -51 35 -51c26 0 71 16 91 24l31 -97c-31 -11 -106 -35 -161 -35c-87 0 -137 54 -116 173l48 271h-70zM344 683l19 112h100l-12 -121l-103 -108l-24 33l66 84h-46z" />
    <glyph glyph-name="Tbar" unicode="&#x166;" horiz-adv-x="591" 
d="M116 218l12 75h101l53 297h-209l18 110h546l-18 -110h-209l-53 -297h99l-13 -75h-99l-39 -218h-128l39 218h-100z" />
    <glyph glyph-name="tbar" unicode="&#x167;" horiz-adv-x="401" 
d="M50 433l15 92h70l24 132l127 20l-27 -152h143l-15 -92h-144l-17 -96h111l-12 -75h-113l-20 -114c-7 -42 12 -51 35 -51c25 0 71 16 91 24l31 -97c-31 -11 -106 -35 -161 -35c-87 0 -138 54 -117 173l18 100h-49l12 75h50l17 96h-69z" />
    <glyph glyph-name="Utilde" unicode="&#x168;" horiz-adv-x="709" 
d="M324 751l-54 35c35 51 62 89 114 89c53 0 90 -48 124 -48c13 0 28 6 59 47l54 -36c-35 -51 -62 -88 -114 -88c-53 0 -89 48 -123 48c-13 0 -29 -6 -60 -47zM705 700l-78 -442c-26 -148 -100 -269 -314 -269c-233 0 -270 130 -240 299l72 412h130l-78 -436
c-17 -92 -4 -165 118 -165c123 0 167 73 184 165l77 436h129z" />
    <glyph glyph-name="utilde" unicode="&#x169;" horiz-adv-x="613" 
d="M368 0l11 62c-46 -30 -126 -73 -205 -73c-113 0 -153 73 -134 178l63 358h123l-61 -345c-10 -53 -1 -94 57 -94c59 0 136 43 174 74l65 365h124l-93 -525h-124zM252 600l-54 35c35 51 62 89 114 89c53 0 90 -48 124 -48c13 0 28 6 59 47l54 -36c-35 -51 -62 -88 -114 -88
c-53 0 -89 48 -123 48c-13 0 -29 -6 -60 -47z" />
    <glyph glyph-name="Umacron" unicode="&#x16a;" horiz-adv-x="709" 
d="M705 700l-78 -442c-26 -148 -100 -269 -314 -269c-233 0 -270 130 -240 299l72 412h130l-78 -436c-17 -92 -4 -165 118 -165c123 0 167 73 184 165l77 436h129zM287 770l13 75h300l-13 -75h-300z" />
    <glyph glyph-name="umacron" unicode="&#x16b;" horiz-adv-x="613" 
d="M368 0l11 62c-46 -30 -126 -73 -205 -73c-113 0 -153 73 -134 178l63 358h123l-61 -345c-10 -53 -1 -94 57 -94c59 0 136 43 174 74l65 365h124l-93 -525h-124zM210 619l13 75h299l-13 -75h-299z" />
    <glyph glyph-name="Ubreve" unicode="&#x16c;" horiz-adv-x="709" 
d="M436 745c-98 0 -148 48 -137 117h79c-4 -31 16 -47 59 -47c49 0 87 16 92 47h81c-13 -72 -75 -117 -174 -117zM705 700l-78 -442c-26 -148 -100 -269 -314 -269c-233 0 -270 130 -240 299l72 412h130l-78 -436c-17 -92 -4 -165 118 -165c123 0 167 73 184 165l77 436h129
z" />
    <glyph glyph-name="ubreve" unicode="&#x16d;" horiz-adv-x="613" 
d="M368 0l11 62c-46 -30 -126 -73 -205 -73c-113 0 -153 73 -134 178l63 358h123l-61 -345c-10 -53 -1 -94 57 -94c59 0 136 43 174 74l65 365h124l-93 -525h-124zM358 593c-98 0 -149 49 -137 118h79c-5 -32 16 -47 59 -47c49 0 87 15 93 47h80c-13 -73 -75 -118 -174 -118
z" />
    <glyph glyph-name="Uring" unicode="&#x16e;" horiz-adv-x="709" 
d="M343 844c0 60 48 109 109 109c60 0 109 -49 109 -109c0 -61 -49 -109 -109 -109c-61 0 -109 48 -109 109zM405 844c0 -27 20 -47 47 -47c26 0 47 20 47 47c0 26 -21 47 -47 47c-27 0 -47 -21 -47 -47zM705 700l-78 -442c-26 -148 -100 -269 -314 -269
c-233 0 -270 130 -240 299l72 412h130l-78 -436c-17 -92 -4 -165 118 -165c123 0 167 73 184 165l77 436h129z" />
    <glyph glyph-name="uring" unicode="&#x16f;" horiz-adv-x="613" 
d="M368 0l11 62c-46 -30 -126 -73 -205 -73c-113 0 -153 73 -134 178l63 358h123l-61 -345c-10 -53 -1 -94 57 -94c59 0 136 43 174 74l65 365h124l-93 -525h-124zM265 693c0 60 48 109 109 109c60 0 109 -49 109 -109c0 -61 -49 -109 -109 -109c-61 0 -109 48 -109 109z
M327 693c0 -27 20 -47 47 -47c26 0 47 20 47 47c0 26 -21 47 -47 47c-27 0 -47 -21 -47 -47z" />
    <glyph glyph-name="Uhungarumlaut" unicode="&#x170;" horiz-adv-x="709" 
d="M705 700l-78 -442c-26 -148 -100 -269 -314 -269c-233 0 -270 130 -240 299l72 412h130l-78 -436c-17 -92 -4 -165 118 -165c123 0 167 73 184 165l77 436h129zM539 745h-76l99 135h124zM372 745h-76l99 135h124z" />
    <glyph glyph-name="uhungarumlaut" unicode="&#x171;" horiz-adv-x="613" 
d="M368 0l11 62c-46 -30 -126 -73 -205 -73c-113 0 -153 73 -134 178l63 358h123l-61 -345c-10 -53 -1 -94 57 -94c59 0 136 43 174 74l65 365h124l-93 -525h-124zM293 594h-76l100 135h123zM460 594h-76l100 135h123z" />
    <glyph glyph-name="Uogonek" unicode="&#x172;" horiz-adv-x="710" 
d="M291 -102c0 -32 46 -28 73 -28l-23 -60c-34 0 -136 -5 -136 76c0 43 36 76 91 103c-218 6 -253 134 -223 299l72 412h130l-78 -436c-17 -92 -4 -165 118 -165c123 0 167 73 184 165l77 436h129l-78 -442c-23 -127 -80 -234 -231 -261c-62 -33 -105 -64 -105 -99z" />
    <glyph glyph-name="uogonek" unicode="&#x173;" horiz-adv-x="613" 
d="M368 0l11 62c-46 -30 -127 -73 -206 -73c-113 0 -152 73 -134 178l63 358h124l-62 -345c-9 -53 0 -94 58 -94s137 43 174 74l65 365h123l-93 -525h-3c-66 -33 -113 -66 -113 -102c0 -32 46 -28 72 -28l-23 -60c-33 0 -134 -5 -134 76c0 49 47 84 115 114h-37z" />
    <glyph glyph-name="Wcircumflex" unicode="&#x174;" horiz-adv-x="952" 
d="M555 0l-40 518l-226 -518h-129l-70 700h143l28 -522l227 522h112l38 -522l210 522h152l-315 -700h-130zM640 880l79 -135h-81l-65 78l-92 -78h-92l126 135h125z" />
    <glyph glyph-name="wcircumflex" unicode="&#x175;" horiz-adv-x="823" 
d="M468 0l-44 372l-178 -372h-118l-69 525h127l29 -393l181 393h105l38 -391l166 391h135l-254 -525h-118zM548 729l79 -135h-81l-65 78l-92 -78h-92l125 135h126z" />
    <glyph glyph-name="ycircumflex" unicode="&#x177;" horiz-adv-x="568" 
d="M54 525h128l67 -377l203 377h137l-416 -729h-140l132 213zM420 729l79 -135h-81l-65 78l-92 -78h-92l125 135h126z" />
    <glyph glyph-name="Ydieresis" unicode="&#x178;" horiz-adv-x="647" 
d="M205 0l49 277l-178 423h136l117 -319l227 319h151l-325 -423l-49 -277h-128zM437 755l20 111h108l-19 -111h-109zM258 755l19 111h108l-20 -111h-107z" />
    <glyph glyph-name="Zacute" unicode="&#x179;" horiz-adv-x="626" 
d="M650 700l-16 -99l-464 -492h380l-18 -109h-551l16 100l462 490h-351l18 110h524zM408 745h-108l143 135h156z" />
    <glyph glyph-name="zacute" unicode="&#x17a;" horiz-adv-x="535" 
d="M-18 0l15 88l348 334h-277l17 103h450l-15 -89l-349 -334h288l-17 -102h-460zM331 594h-109l143 135h156z" />
    <glyph glyph-name="Zdotaccent" unicode="&#x17b;" horiz-adv-x="626" 
d="M651 700l-16 -99l-464 -492h380l-18 -109h-552l17 100l462 490h-351l18 110h524zM344 755l20 111h108l-19 -111h-109z" />
    <glyph glyph-name="zdotaccent" unicode="&#x17c;" horiz-adv-x="535" 
d="M-18 0l15 88l348 334h-277l17 103h450l-15 -89l-349 -334h288l-17 -102h-460zM265 604l19 111h109l-21 -111h-107z" />
    <glyph glyph-name="Zcaron" unicode="&#x17d;" horiz-adv-x="626" 
d="M650 700l-16 -99l-464 -492h380l-18 -109h-551l16 100l462 490h-351l18 110h524zM333 745l-79 135h81l65 -78l92 78h92l-125 -135h-126z" />
    <glyph glyph-name="zcaron" unicode="&#x17e;" horiz-adv-x="535" 
d="M-18 0l15 88l348 334h-277l17 103h450l-15 -89l-349 -334h288l-17 -102h-460zM256 594l-80 135h80l67 -78l92 78h93l-128 -135h-124z" />
    <glyph glyph-name="longs" unicode="&#x17f;" horiz-adv-x="309" 
d="M50 433l16 92h70l8 42c18 110 58 162 154 162c67 0 143 -30 176 -47l-55 -81c-20 7 -71 21 -98 21s-46 -16 -53 -53l-94 -530c-29 -160 -37 -211 -244 -258l-27 95c122 37 127 54 145 155l72 402h-70z" />
    <glyph glyph-name="florin" unicode="&#x192;" horiz-adv-x="574" 
d="M136 433l36 92h73l19 46c44 109 87 158 181 158c71 0 152 -37 180 -49l-72 -82c-23 8 -72 25 -100 22c-25 -2 -47 -15 -63 -53l-18 -42h138l-36 -92h-140l-263 -637h-126l262 637h-71z" />
    <glyph glyph-name="AEacute" unicode="&#x1fc;" horiz-adv-x="1033" 
d="M523 700h529l-18 -110h-345l-34 -186h283l-19 -108h-282l-35 -187h350l-18 -109h-478l26 149h-268l-122 -149h-166zM301 255h199l55 308zM649 745h-109l143 135h156z" />
    <glyph glyph-name="aeacute" unicode="&#x1fd;" horiz-adv-x="940" 
d="M497 0h-124l12 70c-43 -36 -114 -81 -195 -81c-78 0 -158 49 -158 192c0 207 101 355 250 355c80 0 135 -45 172 -77l12 66h123l-2 -11c36 14 76 22 121 22c123 0 199 -60 199 -147c0 -131 -128 -172 -322 -172h-55v-8c0 -78 32 -127 104 -127c64 0 141 38 195 65l41 -87
c-42 -20 -149 -71 -257 -71c-44 0 -82 8 -114 25zM237 89c65 0 118 41 167 85l1 8c-1 11 -1 22 -1 34c0 55 11 107 31 151c-33 37 -77 68 -125 68c-96 0 -151 -118 -151 -241c0 -65 27 -105 78 -105zM705 446c-84 0 -142 -74 -165 -158h52c130 0 196 36 196 95
c0 39 -35 63 -83 63zM537 594h-108l143 135h156z" />
    <glyph glyph-name="Oslashacute" unicode="&#x1fe;" horiz-adv-x="759" 
d="M763 700l-94 -100c36 -51 54 -116 54 -192c1 -154 -85 -420 -357 -420c-91 0 -161 22 -211 60l-45 -48h-96l92 99c-36 50 -53 116 -53 192c-1 154 84 420 357 420c90 0 160 -22 211 -61l46 50h96zM185 294c0 -34 4 -67 14 -96l338 363c-27 24 -67 40 -123 40
c-166 0 -229 -191 -229 -307zM362 98c165 0 229 191 229 307c0 34 -4 66 -15 95l-338 -362c28 -25 67 -40 124 -40zM471 745h-108l142 135h156z" />
    <glyph glyph-name="oslashacute" unicode="&#x1ff;" horiz-adv-x="616" 
d="M515 525h81l-72 -74c31 -38 47 -89 47 -150c0 -171 -102 -312 -282 -312c-69 0 -126 16 -168 46l-34 -35h-83l74 76c-29 38 -45 87 -45 147c0 171 103 313 282 313c68 0 124 -16 167 -45zM287 85c103 0 160 108 160 217c0 22 -3 42 -9 60l-241 -249c20 -18 50 -28 90 -28
zM158 222c0 -21 2 -40 7 -57l240 247c-20 17 -49 27 -87 27c-103 0 -160 -108 -160 -217zM557 729l-189 -135h-108l143 135h154z" />
    <glyph glyph-name="Scommaaccent" unicode="&#x218;" 
d="M184 -171l19 112h100l-12 -122l-103 -107l-24 32l66 85h-46zM403 399c85 -35 171 -82 171 -195c0 -128 -112 -215 -268 -215c-124 0 -239 54 -307 100l69 88c60 -36 154 -81 234 -81c75 0 135 36 135 94c0 68 -94 84 -189 125c-85 35 -161 81 -161 187
c0 121 101 209 258 209c110 0 211 -44 282 -84l-68 -87c-56 32 -145 63 -209 63c-65 0 -125 -30 -125 -90c0 -62 74 -70 178 -114z" />
    <glyph glyph-name="scommaaccent" unicode="&#x219;" horiz-adv-x="525" 
d="M131 -171l19 112h98l-11 -122l-103 -107l-23 32l64 85h-44zM304 311c84 -26 163 -60 163 -156c0 -103 -91 -166 -220 -166c-106 0 -199 42 -254 77l59 82c52 -30 133 -63 196 -63c52 0 92 23 92 59c0 45 -58 55 -128 77c-74 23 -155 56 -155 151c0 97 84 164 210 164
c90 0 182 -35 232 -63l-58 -80c-45 23 -114 48 -169 48c-51 0 -89 -22 -89 -57c0 -44 60 -54 121 -73z" />
    <glyph glyph-name="uni021a" unicode="&#x21a;" horiz-adv-x="582" 
d="M158 -171l19 112h100l-12 -122l-103 -107l-23 32l65 85h-46zM615 590h-209l-105 -590h-128l105 590h-209l18 110h546z" />
    <glyph glyph-name="uni021b" unicode="&#x21b;" horiz-adv-x="400" 
d="M48 433l15 92h71l24 132l126 20l-27 -152h143l-15 -92h-145l-50 -285c-8 -42 11 -51 35 -51c26 0 71 16 91 24l32 -97c-32 -11 -107 -35 -163 -35c-85 0 -137 54 -116 173l48 271h-69zM48 -171l19 112h99l-11 -122l-104 -107l-22 32l64 85h-45z" />
    <glyph glyph-name="hsuperior" unicode="&#x2b0;" horiz-adv-x="398" 
d="M224 822l-28 -159c29 19 77 44 126 44c73 0 99 -45 87 -110l-37 -212h-87l36 202c6 30 0 52 -34 52c-35 0 -81 -24 -103 -42l-37 -212h-88l77 437h88z" />
    <glyph glyph-name="jsuperior" unicode="&#x2b2;" horiz-adv-x="284" 
d="M183 745l13 76h93l-14 -76h-92zM265 700l-54 -307c-14 -81 -20 -114 -157 -143l-20 65c76 23 81 32 88 71l56 314h87z" />
    <glyph glyph-name="wsuperior" unicode="&#x2b7;" horiz-adv-x="458" 
d="M309 385l-27 212l-106 -212h-82l-46 315h90l17 -226l106 226h74l23 -225l96 225h95l-158 -315h-82z" />
    <glyph glyph-name="ysuperior" unicode="&#x2b8;" horiz-adv-x="378" 
d="M59 317c54 17 79 25 107 64l-74 319h91l40 -217l118 217h99l-184 -315c-37 -64 -62 -111 -177 -135z" />
    <glyph glyph-name="circumflex" unicode="&#x2c6;" horiz-adv-x="289" 
d="M335 729l79 -135h-81l-65 78l-92 -78h-93l126 135h126z" />
    <glyph glyph-name="caron" unicode="&#x2c7;" horiz-adv-x="290" 
d="M187 594l-79 135h81l65 -78l92 78h92l-126 -135h-125z" />
    <glyph glyph-name="breve" unicode="&#x2d8;" horiz-adv-x="278" 
d="M246 594c-99 0 -149 48 -137 117h79c-5 -31 16 -47 59 -47c49 0 86 16 92 47h80c-12 -72 -74 -117 -173 -117z" />
    <glyph glyph-name="dotaccent" unicode="&#x2d9;" horiz-adv-x="94" 
d="M97 604l20 111h108l-19 -111h-109z" />
    <glyph glyph-name="ring" unicode="&#x2da;" horiz-adv-x="220" 
d="M55 693c0 60 48 109 109 109c60 0 109 -49 109 -109c0 -61 -49 -109 -109 -109c-61 0 -109 48 -109 109zM117 693c0 -27 20 -47 47 -47c26 0 47 20 47 47c0 26 -21 47 -47 47c-27 0 -47 -21 -47 -47z" />
    <glyph glyph-name="ogonek" unicode="&#x2db;" horiz-adv-x="160" 
d="M46 -102c0 -32 46 -28 72 -28l-23 -60c-33 0 -135 -5 -135 76c0 55 60 93 142 125l59 -10c-67 -34 -115 -67 -115 -103z" />
    <glyph glyph-name="tilde" unicode="&#x2dc;" horiz-adv-x="300" 
d="M143 600l-54 35c35 51 62 89 114 89c53 0 90 -48 124 -48c13 0 28 6 59 47l54 -36c-35 -51 -62 -88 -114 -88c-53 0 -89 48 -123 48c-13 0 -29 -6 -60 -47z" />
    <glyph glyph-name="hungarumlaut" unicode="&#x2dd;" horiz-adv-x="330" 
d="M327 594h-75l99 135h123zM161 594h-76l99 135h124z" />
    <glyph glyph-name="xsuperior" unicode="&#x2e3;" horiz-adv-x="391" 
d="M301 385l-63 113l-100 -113h-113l159 157l-97 158h95l58 -112l96 112h108l-153 -158l103 -157h-93z" />
    <glyph glyph-name="pi" unicode="&#x3c0;" horiz-adv-x="572" 
d="M586 525l-18 -105h-85l-76 -420h-109l75 420h-132l-75 -420h-110l76 420h-85l18 105h521z" />
    <glyph glyph-name="Wgrave" unicode="&#x1e80;" horiz-adv-x="952" 
d="M555 0l-40 518l-226 -518h-129l-70 700h143l28 -522l227 522h112l38 -522l210 522h152l-315 -700h-130zM645 745h-96l-146 135h139z" />
    <glyph glyph-name="wgrave" unicode="&#x1e81;" horiz-adv-x="823" 
d="M468 0l-44 372l-178 -372h-118l-69 525h127l29 -393l181 393h105l38 -391l166 391h135l-254 -525h-118zM554 594h-96l-146 135h140z" />
    <glyph glyph-name="Wacute" unicode="&#x1e82;" horiz-adv-x="952" 
d="M555 0l-40 518l-226 -518h-129l-70 700h143l28 -522l227 522h112l38 -522l210 522h152l-315 -700h-130zM566 745h-108l143 135h155z" />
    <glyph glyph-name="wacute" unicode="&#x1e83;" horiz-adv-x="823" 
d="M468 0l-44 372l-178 -372h-118l-69 525h127l29 -393l181 393h105l38 -391l166 391h135l-254 -525h-118zM475 594h-108l143 135h155z" />
    <glyph glyph-name="Wdieresis" unicode="&#x1e84;" horiz-adv-x="952" 
d="M555 0l-40 518l-226 -518h-129l-70 700h143l28 -522l227 522h112l38 -522l210 522h152l-315 -700h-130zM409 749l20 111h109l-20 -111h-109zM590 749l20 111h108l-19 -111h-109z" />
    <glyph glyph-name="wdieresis" unicode="&#x1e85;" horiz-adv-x="823" 
d="M468 0l-44 372l-178 -372h-118l-69 525h127l29 -393l181 393h105l38 -391l166 391h135l-254 -525h-118zM320 604l19 111h109l-19 -111h-109zM501 604l19 111h108l-20 -111h-107z" />
    <glyph glyph-name="Ygrave" unicode="&#x1ef2;" horiz-adv-x="647" 
d="M205 0l49 277l-178 423h136l117 -319l227 319h151l-325 -423l-49 -277h-128zM491 745h-95l-146 135h139z" />
    <glyph glyph-name="ygrave" unicode="&#x1ef3;" horiz-adv-x="569" 
d="M-9 -124c91 31 131 46 177 117l-114 532h128l67 -382l203 382h138l-296 -525c-63 -110 -98 -179 -275 -221zM426 594h-95l-147 135h140z" />
    <glyph glyph-name="endash" unicode="&#x2013;" horiz-adv-x="561" 
d="M485 234h-433l18 101h433z" />
    <glyph glyph-name="emdash" unicode="&#x2014;" horiz-adv-x="666" 
d="M590 234h-538l18 101h537z" />
    <glyph glyph-name="quoteleft" unicode="&#x2018;" horiz-adv-x="252" 
d="M237 568l-24 -150h-131l17 165l133 137l29 -43l-83 -109h59z" />
    <glyph glyph-name="quoteright" unicode="&#x2019;" horiz-adv-x="241" 
d="M101 550l25 150h131l-17 -165l-133 -137l-29 43l82 109h-59z" />
    <glyph glyph-name="quotesinglbase" unicode="&#x201a;" horiz-adv-x="258" 
d="M11 0l25 150h130l-17 -165l-132 -137l-29 43l82 109h-59z" />
    <glyph glyph-name="quotedblleft" unicode="&#x201c;" horiz-adv-x="461" 
d="M237 568l-24 -150h-131l17 165l133 137l29 -43l-83 -109h59zM448 568l-26 -150h-130l17 165l132 137l29 -43l-81 -109h59z" />
    <glyph glyph-name="quotedblright" unicode="&#x201d;" horiz-adv-x="451" 
d="M311 550l26 150h129l-16 -165l-133 -137l-29 43l82 109h-59zM101 550l25 150h131l-17 -165l-133 -137l-29 43l82 109h-59z" />
    <glyph glyph-name="quotedblbase" unicode="&#x201e;" horiz-adv-x="467" 
d="M221 0l25 150h130l-17 -165l-133 -137l-29 43l83 109h-59zM11 0l25 150h130l-17 -165l-132 -137l-29 43l82 109h-59z" />
    <glyph glyph-name="dagger" unicode="&#x2020;" horiz-adv-x="592" 
d="M43 380l17 102l217 -13l41 231h95l-41 -231l222 13l-17 -102l-218 12l-105 -596h-95l105 597z" />
    <glyph glyph-name="daggerdbl" unicode="&#x2021;" horiz-adv-x="625" 
d="M60 380l17 102l218 -13l41 231h95l-41 -231l221 13l-17 -102l-218 12l-33 -185l222 13l-17 -102l-218 12l-59 -334h-95l59 335l-221 -13l17 102l218 -13l33 186z" />
    <glyph glyph-name="bullet" unicode="&#x2022;" horiz-adv-x="452" 
d="M74 284c0 83 66 149 148 149c83 0 149 -66 149 -149c0 -82 -66 -148 -149 -148c-82 0 -148 66 -148 148z" />
    <glyph glyph-name="ellipsis" unicode="&#x2026;" horiz-adv-x="714" 
d="M11 0l25 150h131l-25 -150h-131zM240 0l26 150h131l-25 -150h-132zM469 0l26 150h131l-26 -150h-131z" />
    <glyph glyph-name="perthousand" unicode="&#x2030;" horiz-adv-x="1431" 
d="M279 711c112 0 180 -62 180 -157c0 -120 -76 -218 -205 -218c-112 0 -181 61 -181 156c0 120 78 219 206 219zM258 412c67 0 105 72 105 134c0 50 -20 89 -86 89c-69 0 -107 -73 -107 -135c0 -49 20 -88 88 -88zM763 364c112 0 180 -62 180 -157
c0 -120 -76 -218 -205 -218c-112 0 -181 61 -181 156c0 120 78 219 206 219zM742 65c67 0 105 72 105 134c0 50 -20 89 -86 89c-69 0 -107 -73 -107 -135c0 -49 20 -88 88 -88zM801 700l-485 -700h-100l484 700h101zM1195 364c111 0 180 -62 180 -157
c0 -120 -76 -218 -206 -218c-111 0 -180 61 -180 156c0 120 77 219 206 219zM1173 65c68 0 106 72 106 134c0 50 -21 89 -87 89c-68 0 -107 -73 -107 -135c0 -49 21 -88 88 -88z" />
    <glyph glyph-name="guilsinglleft" unicode="&#x2039;" horiz-adv-x="390" 
d="M352 400l-224 -137l174 -134l-18 -109l-264 216l13 76l340 215z" />
    <glyph glyph-name="guilsinglright" unicode="&#x203a;" horiz-adv-x="389" 
d="M359 312l-13 -76l-340 -216l21 127l223 136l-172 135l17 109z" />
    <glyph glyph-name="fraction" unicode="&#x2044;" horiz-adv-x="186" 
d="M377 700l-446 -700h-103l446 700h103z" />
    <glyph glyph-name="zerosuperior" unicode="&#x2070;" horiz-adv-x="441" 
d="M287 812c130 0 172 -90 172 -176c0 -85 -42 -258 -206 -258c-130 0 -171 89 -171 175c0 85 42 259 205 259zM253 448c90 0 115 146 115 197c-1 45 -13 96 -81 96c-90 0 -116 -146 -116 -196c1 -46 14 -97 82 -97z" />
    <glyph glyph-name="foursuperior" unicode="&#x2074;" horiz-adv-x="438" 
d="M268 385l14 81h-228l10 63l249 276h120l-47 -265h65l-11 -74h-67l-14 -81h-91zM166 540h129l33 185z" />
    <glyph glyph-name="fivesuperior" unicode="&#x2075;" horiz-adv-x="396" 
d="M100 594l61 211h271l-12 -75h-195l-20 -79c18 5 36 8 57 8c92 0 140 -59 140 -128c0 -79 -65 -153 -182 -153c-85 0 -143 40 -170 60l49 57c21 -14 59 -40 113 -40c46 0 97 24 97 74c0 35 -25 58 -71 58c-37 0 -67 -14 -88 -25z" />
    <glyph glyph-name="sixsuperior" unicode="&#x2076;" horiz-adv-x="414" 
d="M369 738c-77 0 -150 -38 -183 -113c19 14 52 31 101 31c86 0 137 -54 137 -124c0 -81 -62 -154 -175 -154c-114 0 -171 76 -171 161c0 151 121 273 287 273c50 0 78 -12 78 -12l-31 -66s-18 4 -43 4zM261 588c-44 0 -78 -25 -92 -43v-12c0 -44 25 -82 77 -82
c58 0 87 38 87 78c0 31 -21 59 -72 59z" />
    <glyph glyph-name="sevensuperior" unicode="&#x2077;" horiz-adv-x="327" 
d="M398 735c0 0 -189 -183 -220 -350h-97c30 161 199 334 210 345h-199l11 75h304z" />
    <glyph glyph-name="eightsuperior" unicode="&#x2078;" horiz-adv-x="422" 
d="M63 490c0 67 61 104 120 127c-32 21 -54 48 -54 85c0 63 61 110 161 110c93 0 146 -41 146 -98c0 -50 -42 -82 -90 -104c42 -21 80 -52 80 -105c0 -76 -79 -127 -194 -127c-107 0 -169 42 -169 112zM332 509c0 35 -35 55 -70 70c-52 -17 -107 -37 -107 -81
c0 -34 30 -51 77 -51c53 0 100 23 100 62zM217 693c0 -27 24 -41 46 -50c41 12 84 26 84 59c0 25 -23 43 -58 43c-40 0 -72 -23 -72 -52z" />
    <glyph glyph-name="ninesuperior" unicode="&#x2079;" horiz-adv-x="415" 
d="M148 451c77 0 151 39 183 114c-19 -14 -51 -31 -101 -31c-86 0 -136 54 -136 124c0 80 62 154 174 154c114 0 171 -77 171 -161c0 -151 -121 -273 -287 -273c-50 0 -78 11 -78 11l31 66s18 -4 43 -4zM256 601c44 0 80 27 93 45v10c0 44 -26 82 -78 82
c-58 0 -87 -38 -87 -78c0 -31 21 -59 72 -59z" />
    <glyph glyph-name="plussuperior" unicode="&#x207a;" horiz-adv-x="378" 
d="M230 726h68l-19 -108h125l-10 -66h-127l-19 -109h-68l19 109h-126l11 66h127z" />
    <glyph glyph-name="parenleftsuperior" unicode="&#x207d;" horiz-adv-x="224" 
d="M72 441l56 306c16 86 24 114 158 141l16 -52c-65 -20 -73 -31 -79 -70l-63 -345c-8 -43 -6 -55 44 -75l-22 -47c-122 28 -124 64 -110 142z" />
    <glyph glyph-name="parenrightsuperior" unicode="&#x207e;" horiz-adv-x="227" 
d="M258 747l-56 -307c-16 -86 -24 -114 -157 -141l-17 52c65 20 73 31 80 70l62 346c8 43 6 54 -44 73l22 48c121 -28 124 -64 110 -141z" />
    <glyph glyph-name="nsuperior" unicode="&#x207f;" horiz-adv-x="398" 
d="M203 700l-7 -36c30 19 77 43 126 43c73 0 99 -45 87 -110l-37 -212h-87l36 202c6 30 0 52 -34 52c-35 0 -80 -23 -102 -42l-38 -212h-88l56 315h88z" />
    <glyph glyph-name="zeroinferior" unicode="&#x2080;" horiz-adv-x="442" 
d="M197 277c130 0 172 -90 172 -176c0 -85 -42 -258 -206 -258c-130 0 -171 89 -171 175c0 85 42 259 205 259zM163 -87c90 0 115 146 115 197c-1 45 -13 96 -81 96c-90 0 -116 -146 -116 -196c1 -46 14 -97 82 -97z" />
    <glyph glyph-name="oneinferior" unicode="&#x2081;" horiz-adv-x="272" 
d="M136 -150h-91l61 330l-80 -37l-30 63l129 64h85z" />
    <glyph glyph-name="twoinferior" unicode="&#x2082;" horiz-adv-x="386" 
d="M284 -75l-12 -75h-328l7 41c16 96 92 135 168 177c72 41 119 63 118 96c-1 23 -21 38 -59 38c-44 0 -89 -21 -122 -39l-34 63c32 19 91 51 167 51c91 0 140 -49 140 -110c0 -83 -94 -128 -174 -169c-62 -32 -82 -45 -89 -73h218z" />
    <glyph glyph-name="threeinferior" unicode="&#x2083;" horiz-adv-x="386" 
d="M-57 -97l45 57c39 -23 79 -42 130 -42c56 0 90 25 90 60c0 44 -56 58 -114 58h-19l11 75h23c55 0 115 19 115 55c0 22 -21 36 -53 36c-45 0 -95 -23 -119 -36l-31 62c19 12 83 49 165 49c88 0 131 -43 131 -95c0 -45 -34 -82 -94 -105c44 -13 77 -52 77 -101
c0 -61 -48 -133 -173 -133c-95 0 -159 44 -184 60z" />
    <glyph glyph-name="fourinferior" unicode="&#x2084;" horiz-adv-x="419" 
d="M163 -150l14 81h-228l10 63l249 276h120l-47 -265h65l-11 -74h-67l-14 -81h-91zM61 5h129l33 185z" />
    <glyph glyph-name="fiveinferior" unicode="&#x2085;" horiz-adv-x="394" 
d="M2 59l61 211h271l-12 -75h-195l-20 -79c18 5 36 8 57 8c93 0 140 -59 140 -128c0 -79 -65 -153 -182 -153c-85 0 -143 40 -170 60l49 57c21 -14 59 -40 113 -40c47 0 97 24 97 74c0 35 -25 58 -71 58c-37 0 -67 -14 -88 -25z" />
    <glyph glyph-name="sixinferior" unicode="&#x2086;" horiz-adv-x="414" 
d="M277 203c-77 0 -150 -38 -183 -113c19 14 52 31 101 31c86 0 137 -54 137 -124c0 -81 -62 -154 -175 -154c-114 0 -171 76 -171 161c0 151 121 273 287 273c50 0 78 -12 78 -12l-31 -66s-18 4 -43 4zM169 53c-44 0 -78 -25 -92 -43v-12c0 -44 25 -82 77 -82
c58 0 87 38 87 78c0 31 -21 59 -72 59z" />
    <glyph glyph-name="seveninferior" unicode="&#x2087;" horiz-adv-x="362" 
d="M317 200c0 0 -189 -183 -220 -350h-97c30 161 199 334 210 345h-199l11 75h304z" />
    <glyph glyph-name="eightinferior" unicode="&#x2088;" horiz-adv-x="411" 
d="M-33 -45c0 67 61 104 120 127c-32 21 -54 48 -54 85c0 63 61 110 161 110c93 0 146 -41 146 -98c0 -50 -42 -82 -90 -104c42 -21 80 -52 80 -105c0 -76 -79 -127 -194 -127c-106 0 -169 42 -169 112zM236 -26c0 35 -35 55 -70 70c-52 -17 -107 -37 -107 -81
c0 -34 30 -51 77 -51c52 0 100 23 100 62zM121 158c0 -27 24 -41 46 -50c41 12 84 26 84 59c0 25 -23 43 -58 43c-41 0 -72 -23 -72 -52z" />
    <glyph glyph-name="nineinferior" unicode="&#x2089;" horiz-adv-x="418" 
d="M57 -84c77 0 151 39 183 114c-19 -14 -51 -31 -101 -31c-86 0 -136 54 -136 124c0 80 62 154 174 154c114 0 171 -77 171 -161c0 -151 -121 -273 -287 -273c-50 0 -78 11 -78 11l31 66s18 -4 43 -4zM165 66c44 0 80 27 93 45v10c0 44 -26 82 -78 82
c-58 0 -87 -38 -87 -78c0 -31 21 -59 72 -59z" />
    <glyph glyph-name="parenleftinferior" unicode="&#x208d;" horiz-adv-x="233" 
d="M-19 -94l56 306c16 86 24 114 158 141l16 -52c-65 -20 -73 -31 -79 -70l-63 -345c-8 -43 -6 -55 44 -75l-22 -47c-122 28 -124 64 -110 142z" />
    <glyph glyph-name="parenrightinferior" unicode="&#x208e;" horiz-adv-x="232" 
d="M165 212l-56 -307c-16 -86 -24 -114 -157 -141l-17 52c65 20 73 31 80 70l62 346c8 43 6 54 -44 73l22 48c121 -28 124 -64 110 -141z" />
    <glyph glyph-name="colonmonetary" unicode="&#x20a1;" horiz-adv-x="572" 
d="M169 0h-59l43 105c-56 34 -91 98 -91 191c0 219 136 328 266 328c11 0 23 -1 34 -2l32 78h59l-37 -90l29 -9l40 99h60l-50 -122c27 -14 50 -28 68 -39l-58 -83c-12 7 -29 18 -47 28l-119 -294c44 12 90 35 117 48l43 -93c-46 -21 -125 -58 -205 -67l-32 -78h-60l31 78
c-10 1 -20 4 -30 6zM189 307c0 -30 5 -55 15 -75l114 281c-74 -21 -129 -109 -129 -206zM246 191c9 -4 19 -6 30 -7l131 324c-10 3 -19 5 -29 7z" />
    <glyph glyph-name="lira" unicode="&#x20a4;" horiz-adv-x="574" 
d="M74 330l11 66h62c-14 35 -28 72 -28 119c0 117 84 196 222 196c113 0 194 -55 248 -92l-66 -77c-56 35 -112 61 -163 61c-73 0 -114 -46 -114 -99c0 -41 17 -72 32 -108h190l-10 -66h-162c1 -9 2 -17 2 -26c0 -10 -1 -20 -2 -29h151l-10 -66h-163
c-26 -50 -66 -86 -88 -102h296l-17 -107h-460l15 88s91 43 133 121h-100l11 66h109c1 4 1 8 1 13c0 14 -2 28 -5 42h-95z" />
    <glyph glyph-name="peseta" unicode="&#x20a7;" horiz-adv-x="695" 
d="M88 449l10 55h28l35 196h253c163 0 259 -62 259 -196h25l-9 -55h-22c-24 -108 -117 -193 -281 -193h-174l-45 -256h-129l79 449h-29zM272 592l-16 -88h285c-2 65 -56 88 -128 88h-141zM368 362c80 0 141 30 164 87h-286l-16 -87h138z" />
    <glyph glyph-name="uni20A9" unicode="&#x20a9;" horiz-adv-x="1031" 
d="M596 0l-40 518l-226 -518h-129l-24 239h-137l14 76h115l-9 95h-89l13 76h68l-21 214h142l12 -214h151l93 214h111l16 -214h147l86 214h152l-97 -214h70l-14 -76h-90l-43 -95h116l-13 -76h-138l-107 -239h-129zM403 410h-114l13 -234zM772 410h-111l18 -232z" />
    <glyph glyph-name="Euro" unicode="&#x20ac;" horiz-adv-x="719" 
d="M60 388l12 70h56c53 161 175 253 316 253c118 0 205 -58 279 -109l-70 -90c-72 50 -129 83 -195 83c-82 0 -148 -55 -187 -137h251l-12 -70h-264c-6 -26 -10 -54 -12 -82h261l-13 -70h-246c11 -90 56 -132 121 -132c61 0 143 35 223 81l56 -101
c-96 -52 -198 -95 -307 -95c-124 0 -216 74 -227 247h-69l12 70h57c1 28 4 56 9 82h-51z" />
    <glyph glyph-name="uni2116" unicode="&#x2116;" horiz-adv-x="1175" 
d="M287 700l222 -519l91 519h128l-123 -700h-131l-221 519l-91 -519h-129l123 700h131zM970 691c119 0 195 -66 195 -170c0 -128 -82 -241 -222 -241c-120 0 -195 67 -195 170c0 128 82 241 222 241zM947 367c74 0 111 79 111 144c0 55 -25 94 -92 94
c-75 0 -112 -80 -112 -145c0 -55 25 -93 93 -93zM735 158l12 75h329l-12 -75h-329z" />
    <glyph glyph-name="uni2117" unicode="&#x2117;" horiz-adv-x="813" 
d="M605 450c0 -100 -72 -147 -170 -147h-90l-28 -164h-49l74 421h139c73 0 124 -35 124 -110zM556 450c0 51 -36 68 -82 68h-91l-30 -172h91c60 0 112 37 112 104zM59 313c0 212 136 398 382 398c205 0 330 -134 330 -324c0 -212 -136 -398 -383 -398
c-204 0 -329 134 -329 324zM98 314c0 -166 108 -287 294 -287c214 0 340 163 340 359c0 166 -108 287 -294 287c-214 0 -340 -163 -340 -359z" />
    <glyph glyph-name="servicemark" unicode="&#x2120;" horiz-adv-x="640" 
d="M549 476l25 142l-79 -105h-35l-41 111l-25 -148h-55l39 224h57l49 -132l101 132h58l-39 -224h-55zM252 606c29 -9 65 -26 66 -65c0 -41 -44 -69 -106 -69c-51 0 -96 19 -123 33l31 37c21 -11 57 -26 90 -26c21 0 46 7 46 22c0 18 -38 20 -78 34c-28 9 -60 27 -60 64
c0 39 39 68 98 68c47 0 89 -17 113 -29l-30 -36c-20 9 -47 20 -78 20c-22 0 -40 -7 -40 -21c0 -17 31 -18 71 -32z" />
    <glyph glyph-name="trademark" unicode="&#x2122;" horiz-adv-x="637" 
d="M542 476l25 142l-79 -105h-35l-41 111l-25 -148h-55l39 224h58l49 -132l100 132h58l-39 -224h-55zM332 655h-79l-32 -179h-55l32 179h-78l7 45h211z" />
    <glyph glyph-name="Omega" unicode="&#x2126;" horiz-adv-x="762" 
d="M436 711c186 0 289 -97 289 -272c0 -206 -109 -301 -184 -332h107l-18 -107h-260l19 109c111 32 204 146 204 331c0 100 -44 160 -157 160c-199 0 -246 -215 -246 -341c0 -83 40 -129 113 -150l-18 -109h-260l17 107h111c-41 27 -92 80 -92 185c0 220 122 419 375 419z
" />
    <glyph glyph-name="onethird" unicode="&#x2153;" horiz-adv-x="873" 
d="M442 53l45 57c39 -23 78 -42 130 -42c57 0 90 25 90 60c0 44 -56 58 -114 58h-19l11 75h23c54 0 115 19 115 55c0 22 -21 36 -53 36c-44 0 -96 -23 -120 -36l-30 62c19 12 82 49 165 49c88 0 131 -43 131 -95c0 -45 -33 -82 -95 -105c45 -13 78 -52 78 -101
c0 -61 -48 -133 -173 -133c-95 0 -160 44 -184 60zM225 280h-91l61 330l-80 -37l-30 63l129 64h85zM669 700l-451 -700h-97l451 700h97z" />
    <glyph glyph-name="twothirds" unicode="&#x2154;" horiz-adv-x="996" 
d="M567 53l45 57c40 -23 78 -42 130 -42c57 0 90 25 90 60c0 44 -55 58 -113 58h-19l11 75h23c54 0 115 19 115 55c0 22 -21 36 -54 36c-44 0 -95 -23 -119 -36l-30 62c19 12 82 49 165 49c88 0 131 -43 131 -95c0 -45 -34 -82 -94 -105c43 -13 77 -52 77 -101
c0 -61 -48 -133 -173 -133c-96 0 -159 44 -185 60zM382 355l-12 -75h-328l7 41c16 96 92 135 168 177c72 40 118 62 118 95c0 24 -21 39 -59 39c-44 0 -89 -21 -122 -39l-34 63c32 19 91 51 167 51c92 0 140 -49 140 -110c0 -83 -94 -128 -174 -169c-62 -32 -82 -45 -89 -73
h218zM796 700l-450 -700h-97l450 700h97z" />
    <glyph glyph-name="oneeighth" unicode="&#x215b;" horiz-adv-x="879" 
d="M444 105c0 67 61 104 120 127c-32 21 -54 48 -54 85c0 63 61 110 160 110c93 0 147 -41 147 -98c0 -50 -43 -81 -91 -104c42 -21 80 -52 80 -105c0 -76 -78 -127 -193 -127c-105 0 -169 42 -169 112zM666 700l-450 -700h-97l450 700h97zM224 280h-91l61 330l-80 -37
l-30 63l129 64h85zM713 124c0 35 -35 56 -70 71c-51 -17 -107 -38 -107 -82c0 -34 31 -51 78 -51c52 0 99 23 99 62zM598 308c0 -27 24 -41 46 -50c43 12 84 27 84 58c0 27 -23 44 -57 44c-42 0 -73 -23 -73 -52z" />
    <glyph glyph-name="threeeighths" unicode="&#x215c;" horiz-adv-x="982" 
d="M549 105c0 67 61 104 121 127c-33 21 -55 48 -55 85c0 63 61 110 161 110c93 0 146 -41 146 -98c0 -50 -42 -82 -90 -104c42 -21 79 -52 79 -105c0 -76 -77 -127 -193 -127c-105 0 -169 42 -169 112zM41 333l45 57c40 -23 79 -42 130 -42c57 0 90 25 90 60
c0 44 -55 58 -114 58h-18l10 75h23c55 0 116 19 116 55c0 22 -21 36 -54 36c-44 0 -95 -23 -119 -36l-30 62c19 12 82 49 164 49c88 0 131 -43 131 -95c0 -45 -33 -82 -94 -105c44 -13 78 -52 78 -101c0 -61 -48 -133 -174 -133c-95 0 -159 44 -184 60zM772 700l-450 -700
h-97l450 700h97zM819 124c0 35 -36 55 -70 70c-52 -16 -107 -37 -107 -81c0 -34 30 -51 77 -51c52 0 100 23 100 62zM703 308c0 -27 24 -41 46 -50c43 12 84 27 84 58c0 27 -23 44 -57 44c-42 0 -73 -23 -73 -52z" />
    <glyph glyph-name="fiveeighths" unicode="&#x215d;" horiz-adv-x="970" 
d="M535 105c0 67 61 104 120 127c-32 21 -54 48 -54 85c0 63 62 110 161 110c93 0 146 -41 146 -98c0 -50 -42 -82 -90 -104c43 -21 80 -52 80 -105c0 -76 -78 -127 -194 -127c-105 0 -169 42 -169 112zM94 489l60 211h272l-12 -75h-196l-19 -79c18 5 35 8 56 8
c93 0 140 -59 140 -128c0 -79 -64 -153 -181 -153c-86 0 -143 40 -170 60l49 57c20 -14 59 -40 112 -40c47 0 97 24 97 74c0 35 -25 58 -70 58c-38 0 -68 -14 -88 -25zM758 700l-450 -700h-97l451 700h96zM805 124c0 35 -36 55 -70 70c-52 -16 -107 -37 -107 -81
c0 -34 30 -51 77 -51c52 0 100 23 100 62zM690 308c0 -27 24 -41 46 -50c42 12 83 27 83 58c0 27 -23 44 -57 44c-41 0 -72 -23 -72 -52z" />
    <glyph glyph-name="seveneighths" unicode="&#x215e;" horiz-adv-x="870" 
d="M437 105c0 67 61 104 121 127c-33 21 -55 48 -55 85c0 63 62 110 161 110c94 0 146 -41 146 -98c0 -50 -43 -82 -91 -104c43 -21 81 -52 81 -105c0 -76 -78 -127 -194 -127c-105 0 -169 42 -169 112zM661 700l-450 -700h-97l450 700h97zM396 630c0 0 -189 -183 -220 -350
h-97c30 161 199 334 210 345h-199l11 75h304zM707 124c0 35 -36 55 -70 70c-51 -16 -107 -37 -107 -81c0 -34 30 -51 77 -51c52 0 100 23 100 62zM592 308c0 -27 23 -41 45 -50c43 12 84 27 84 58c0 27 -23 44 -57 44c-41 0 -72 -23 -72 -52z" />
    <glyph glyph-name="partialdiff" unicode="&#x2202;" horiz-adv-x="640" 
d="M473 382c-7 114 -69 219 -217 219c-45 0 -87 -8 -87 -8v97s40 10 95 10c207 0 323 -146 323 -360c0 -212 -119 -351 -312 -351c-150 0 -244 81 -244 220c0 153 117 267 264 267c133 0 178 -94 178 -94zM451 260c0 69 -38 119 -123 119c-111 0 -168 -85 -168 -174
c0 -66 32 -120 121 -120c122 0 170 97 170 175z" />
    <glyph glyph-name="Delta" unicode="&#x2206;" horiz-adv-x="716" 
d="M639 0h-668l389 700h137zM509 107l-98 458l-262 -458h360z" />
    <glyph glyph-name="product" unicode="&#x220f;" horiz-adv-x="712" 
d="M748 700l-17 -105h-97l-106 -595h-129l106 595h-198l-106 -595h-128l106 595h-97l16 105h650z" />
    <glyph glyph-name="summation" unicode="&#x2211;" horiz-adv-x="581" 
d="M114 700h484l-16 -108h-313l193 -242l-267 -243h298l-18 -107h-484l11 67l320 285l-220 281z" />
    <glyph glyph-name="minus" unicode="&#x2212;" 
d="M58 286l16 94h506l-15 -94h-507z" />
    <glyph glyph-name="radical" unicode="&#x221a;" horiz-adv-x="612" 
d="M680 700l-414 -700h-130l-115 340h127l65 -209l332 569h135z" />
    <glyph glyph-name="infinity" unicode="&#x221e;" horiz-adv-x="919" 
d="M242 428c95 0 153 -56 214 -119c94 74 153 119 239 119c104 0 162 -66 162 -155c0 -102 -79 -185 -199 -185c-92 0 -150 56 -212 119c-94 -74 -153 -119 -239 -119c-104 0 -162 65 -162 154c0 102 79 186 197 186zM220 172c52 0 98 30 174 88c-68 66 -100 83 -140 83
c-73 0 -114 -47 -114 -100c0 -41 31 -71 80 -71zM682 343c-53 0 -99 -30 -174 -88c63 -62 98 -83 141 -83c74 0 113 50 113 100c0 42 -31 71 -80 71z" />
    <glyph glyph-name="integral" unicode="&#x222b;" horiz-adv-x="395" 
d="M97 89l93 537c27 160 81 213 241 213h45l-13 -75h-21c-97 0 -111 -75 -126 -157l-93 -538c-28 -160 -82 -212 -242 -212h-45l13 74h21c98 0 112 75 127 158z" />
    <glyph glyph-name="approxequal" unicode="&#x2248;" 
d="M110 177l-65 28c47 78 97 121 163 121c88 0 137 -66 205 -66c26 0 51 8 89 61l65 -28c-47 -78 -98 -121 -164 -121c-88 0 -137 66 -205 66c-25 0 -50 -9 -88 -61zM142 362l-65 28c47 78 97 121 163 121c88 0 137 -66 205 -66c26 0 51 8 90 61l64 -28
c-47 -78 -98 -121 -164 -121c-88 0 -136 66 -205 66c-25 0 -50 -9 -88 -61z" />
    <glyph glyph-name="notequal" unicode="&#x2260;" 
d="M74 380l15 95h262l90 152l79 -33l-70 -119h145l-15 -95h-186l-55 -92h224l-15 -94h-264l-90 -152l-79 33l70 119h-144l16 94h184l54 92h-221z" />
    <glyph glyph-name="lessequal" unicode="&#x2264;" 
d="M59 301l12 76l540 192l-19 -113l-376 -122l330 -123l-17 -102zM5 0l14 82h505l-13 -82h-506z" />
    <glyph glyph-name="greaterequal" unicode="&#x2265;" 
d="M586 377l-13 -76l-539 -192l19 113l375 121l-329 124l16 102zM534 82l-13 -82h-506l14 82h505z" />
    <glyph glyph-name="uni2318" unicode="&#x2318;" horiz-adv-x="781" 
d="M558 39c-82 0 -151 62 -143 149l7 49h-86l-11 -64c-15 -82 -61 -134 -144 -134c-81 0 -147 61 -147 138c0 86 75 134 164 134h74l14 77h-42c-82 0 -147 63 -147 138s64 136 143 136c71 0 152 -52 142 -149c-1 -18 -5 -34 -6 -51h86l11 65c11 62 46 122 125 133
c12 1 24 1 35 0c73 -8 130 -67 130 -137c0 -86 -75 -135 -163 -135h-75l-14 -77h44c80 0 145 -62 145 -138c0 -75 -63 -134 -142 -134zM550 531l-12 -69h81c38 0 69 29 69 62c0 36 -32 64 -70 64c-41 0 -64 -33 -68 -57zM259 237h-81c-38 0 -68 -27 -68 -62
c0 -34 31 -62 70 -62c38 0 61 23 67 56zM241 588c-39 0 -68 -28 -68 -63c0 -34 30 -63 70 -63h55l9 44c7 41 -17 82 -66 82zM556 237h-57l-9 -44c-8 -39 17 -80 66 -80c38 0 69 28 69 61c0 36 -32 63 -69 63zM349 311h86l14 77h-86z" />
    <glyph glyph-name="lozenge" unicode="&#x25ca;" horiz-adv-x="573" 
d="M291 700h132l125 -350l-249 -350h-132l-125 350zM429 368l-81 231l-187 -267l81 -232z" />
    <glyph glyph-name="commaaccent" unicode="&#xf6c3;" horiz-adv-x="116" 
d="M-18 -171l19 112h100l-12 -122l-103 -107l-23 32l64 85h-45z" />
    <glyph glyph-name="centinferior" unicode="&#xf6df;" horiz-adv-x="360" 
d="M159 -150h-64l8 46c-66 6 -113 49 -113 138c0 119 80 190 168 190h2l8 46h65l-10 -57c35 -11 65 -29 87 -40l-40 -59c-14 8 -36 21 -60 29l-29 -166c23 7 46 17 61 23l30 -65c-25 -10 -63 -26 -104 -35zM79 41c0 -37 14 -59 37 -67l30 170c-39 -13 -67 -52 -67 -103z" />
    <glyph glyph-name="centsuperior" unicode="&#xf6e0;" horiz-adv-x="362" 
d="M249 385h-64l8 46c-66 6 -113 49 -113 138c0 119 79 190 168 190h2l8 46h65l-10 -57c35 -11 65 -28 87 -40l-40 -58c-14 8 -36 21 -59 28l-30 -166c23 7 46 17 61 24l30 -66c-25 -10 -63 -26 -104 -34zM169 577c0 -37 14 -60 37 -69l30 172c-39 -13 -67 -53 -67 -103z
" />
    <glyph glyph-name="commainferior" unicode="&#xf6e1;" horiz-adv-x="202" 
d="M-25 -150l16 99h91l-10 -110l-91 -85l-19 29l54 67h-41z" />
    <glyph glyph-name="commasuperior" unicode="&#xf6e2;" horiz-adv-x="186" 
d="M63 385l16 99h91l-10 -110l-91 -85l-19 29l54 67h-41z" />
    <glyph glyph-name="dollarinferior" unicode="&#xf6e3;" horiz-adv-x="407" 
d="M148 -210h-64l10 59c-56 11 -107 36 -140 57l48 61c27 -16 66 -34 105 -43l18 103l-18 7c-51 21 -99 51 -99 115c0 71 61 127 161 128l10 54h65l-11 -60c48 -10 90 -30 124 -48l-47 -60c-24 12 -58 26 -90 33l-17 -97l18 -7c52 -22 104 -51 104 -118
c0 -74 -67 -130 -168 -131zM229 -34c0 19 -18 30 -43 40l-15 -87c33 5 58 22 58 47zM105 155c0 -18 14 -27 37 -35l14 80c-29 -5 -51 -20 -51 -45z" />
    <glyph glyph-name="dollarsuperior" unicode="&#xf6e4;" horiz-adv-x="411" 
d="M243 325h-64l10 59c-56 11 -107 35 -140 57l48 61c27 -16 66 -35 105 -44l18 104l-18 7c-51 21 -99 51 -99 115c0 71 61 127 161 128l10 54h65l-11 -60c48 -10 90 -30 124 -48l-47 -60c-24 12 -58 26 -90 33l-17 -97l18 -7c52 -22 104 -51 104 -118
c0 -75 -67 -130 -168 -131zM324 501c0 19 -18 30 -43 40l-15 -87c33 4 58 21 58 47zM200 690c0 -18 14 -27 37 -35l14 80c-30 -5 -51 -20 -51 -45z" />
    <glyph glyph-name="periodinferior" unicode="&#xf6e7;" horiz-adv-x="195" 
d="M-26 -150l16 99h91l-16 -99h-91z" />
    <glyph glyph-name="periodsuperior" unicode="&#xf6e8;" horiz-adv-x="186" 
d="M63 385l16 99h91l-16 -99h-91z" />
    <glyph glyph-name="asuperior" unicode="&#xf6e9;" horiz-adv-x="410" 
d="M374 385h-88l6 37c-27 -20 -69 -44 -119 -44c-51 0 -102 31 -102 120c0 122 64 209 156 209c51 0 86 -27 108 -45l7 38h87zM207 448c38 0 70 22 98 45l18 105c-19 20 -46 39 -74 39c-56 0 -88 -64 -88 -132c0 -37 16 -57 46 -57z" />
    <glyph glyph-name="bsuperior" unicode="&#xf6ea;" horiz-adv-x="410" 
d="M64 385l77 437h88l-28 -157c26 19 67 42 114 42c52 0 107 -31 107 -121c0 -122 -62 -208 -154 -208c-52 0 -87 25 -110 43l-6 -36h-88zM281 637c-35 0 -65 -21 -92 -42l-19 -110c19 -20 46 -37 77 -37c54 0 85 64 85 130c0 39 -17 59 -51 59z" />
    <glyph glyph-name="dsuperior" unicode="&#xf6eb;" horiz-adv-x="410" 
d="M374 385h-88l6 37c-27 -20 -69 -44 -119 -44c-51 0 -102 31 -102 120c0 122 64 209 156 209c51 0 86 -26 108 -44l28 159h87zM207 448c38 0 70 22 98 45l18 105c-19 20 -46 39 -74 39c-56 0 -88 -64 -88 -132c0 -37 16 -57 46 -57z" />
    <glyph glyph-name="esuperior" unicode="&#xf6ec;" horiz-adv-x="379" 
d="M394 612c0 -79 -86 -99 -199 -99h-38c3 -50 27 -70 65 -70s85 20 122 37l28 -60c-25 -12 -96 -42 -165 -42c-82 0 -136 41 -136 139c0 108 72 190 193 190c80 0 130 -35 130 -95zM260 644c-51 0 -87 -34 -99 -84h37c75 0 112 17 112 50c0 21 -17 34 -50 34z" />
    <glyph glyph-name="isuperior" unicode="&#xf6ed;" horiz-adv-x="188" 
d="M153 385h-88l56 315h88zM127 745l13 76h92l-13 -76h-92z" />
    <glyph glyph-name="lsuperior" unicode="&#xf6ee;" horiz-adv-x="189" 
d="M152 385h-87l77 437h88z" />
    <glyph glyph-name="msuperior" unicode="&#xf6ef;" horiz-adv-x="604" 
d="M209 700l-7 -39c25 20 68 46 113 46c50 0 77 -22 85 -56c22 21 75 56 124 56c72 0 96 -44 85 -108l-37 -214h-88l37 202c6 29 2 52 -31 52c-32 0 -69 -25 -91 -45l-37 -209h-88l37 202c5 29 2 52 -31 52c-31 0 -67 -24 -90 -44l-37 -210h-88l56 315h88z" />
    <glyph glyph-name="osuperior" unicode="&#xf6f0;" horiz-adv-x="404" 
d="M251 707c103 0 166 -54 166 -144c0 -100 -64 -185 -180 -185c-103 0 -166 53 -166 144c0 100 64 185 180 185zM235 445c61 0 92 65 92 118c0 43 -18 76 -74 76c-61 0 -92 -64 -92 -118c0 -43 18 -76 74 -76z" />
    <glyph glyph-name="rsuperior" unicode="&#xf6f1;" horiz-adv-x="280" 
d="M209 700l-12 -66c9 16 52 75 135 70l-12 -82c-108 0 -142 -108 -142 -108l-25 -129h-88l56 315h88z" />
    <glyph glyph-name="ssuperior" unicode="&#xf6f2;" horiz-adv-x="357" 
d="M255 574c53 -15 103 -36 103 -95c0 -61 -55 -101 -139 -101c-69 0 -131 26 -166 48l40 57c33 -18 84 -39 126 -39c27 0 51 9 51 29c0 22 -30 27 -80 41c-41 12 -99 31 -99 92c0 58 51 101 134 101c59 0 118 -22 152 -40l-40 -55c-29 14 -74 29 -110 29
c-30 0 -47 -10 -47 -27c0 -23 32 -28 75 -40z" />
    <glyph glyph-name="tsuperior" unicode="&#xf6f3;" horiz-adv-x="283" 
d="M77 636l12 64h42l14 79l90 12l-17 -91h91l-11 -64h-91l-27 -152c-4 -26 8 -31 21 -31c15 0 43 9 55 14l23 -67c-22 -8 -69 -22 -106 -22c-60 0 -92 38 -79 114l25 144h-42z" />
    <glyph glyph-name="apple" unicode="&#xf8ff;" horiz-adv-x="903" 
d="M745 327c-13 -5 -13 -16 -3 -23l28 -20c11 -7 10 -15 -3 -18l-34 -6c-14 -2 -16 -12 -7 -22l24 -24c8 -9 6 -17 -8 -17l-35 2c-13 0 -18 -9 -10 -20l18 -30c7 -11 2 -17 -11 -15l-34 9c-12 4 -19 -5 -15 -17l11 -33c5 -12 -1 -18 -13 -12l-31 15c-11 6 -20 0 -19 -14
l5 -33c1 -14 -5 -17 -15 -9l-28 21c-10 8 -20 3 -21 -10l-2 -34c-1 -13 -9 -15 -17 -6l-23 27c-9 9 -18 8 -22 -5l-10 -33c-3 -13 -12 -13 -18 -2l-17 30c-6 12 -15 12 -23 0l-15 -30c-6 -11 -15 -11 -18 2l-10 33c-4 13 -13 14 -22 5l-23 -27c-8 -9 -15 -7 -17 6l-2 34
c-1 13 -11 18 -22 10l-26 -21c-11 -8 -19 -5 -16 9l5 33c1 14 -8 20 -20 14l-30 -15c-12 -6 -18 0 -13 12l11 33c5 12 -3 21 -15 17l-34 -9c-13 -2 -18 4 -11 15l19 30c7 11 2 20 -11 20l-35 -2c-14 0 -16 8 -8 17l25 24c8 10 6 20 -8 22l-33 6c-14 3 -15 11 -4 18l28 20
c3 2 5 5 6 6c6 5 13 2 18 -6l16 -31c6 -12 14 -10 18 2l9 34c4 12 14 14 22 4l23 -26c9 -10 16 -7 17 6l2 34c2 13 11 17 21 9l28 -21c11 -8 18 -4 15 9l-4 34c-2 13 7 19 18 13l31 -14c12 -6 18 0 14 12l-11 33c-5 12 2 20 14 16l7 -1c26 -50 49 -145 49 -205
c-8 -10 -17 -18 -46 -18h-4c0 14 -5 26 -16 35c7 -8 9 -17 9 -27v-7c-11 1 -16 8 -16 19c0 27 -18 49 -51 49c-27 0 -47 -23 -47 -54c0 -38 33 -65 92 -65c144 0 278 190 278 319c0 38 -26 67 -64 67c-30 0 -60 -24 -60 -58s21 -54 58 -58c-8 -32 -15 -60 -29 -85
c-8 62 -29 119 -58 150c29 -38 47 -97 52 -161l-14 -20c0 100 -36 197 -89 224c-3 6 2 13 12 15l34 6c12 2 14 10 3 17l-29 19c-10 9 -9 18 3 23l31 14c14 4 14 13 0 18l-31 13c-9 4 -11 8 -10 14c4 2 6 4 7 8l17 30c6 12 15 11 18 -1l10 -33c4 -13 13 -16 22 -5l23 26
c8 10 16 8 17 -5l2 -35c1 -14 11 -17 21 -9l28 21c10 8 16 3 15 -10l-5 -34c-1 -13 8 -19 19 -13l31 16c12 5 18 0 13 -14l-11 -31c-4 -13 3 -21 15 -17l34 7c13 4 18 -2 11 -14l-18 -29c-8 -11 -3 -21 10 -20l35 2c14 0 16 -8 8 -17l-24 -26c-9 -9 -7 -19 7 -21l34 -6
c13 -3 14 -10 3 -19l-28 -19c-10 -7 -10 -17 3 -22l31 -13c12 -5 12 -13 0 -18zM364 124c144 0 278 189 278 319c0 19 -7 37 -20 49c8 -12 12 -25 12 -41c0 -66 -34 -146 -85 -210c-52 -64 -122 -113 -196 -113c-19 0 -36 3 -49 9c14 -9 35 -13 60 -13z" />
    <glyph glyph-name="s_t" unicode="&#xfb06;" horiz-adv-x="921" 
d="M661 550c14 73 -6 120 -84 120c-77 0 -132 -51 -132 -126c0 -19 3 -36 10 -50c16 -7 31 -14 44 -21l-58 -80c-45 23 -114 48 -169 48c-51 0 -89 -22 -89 -57c0 -44 60 -54 121 -73c84 -26 163 -60 163 -156c0 -103 -91 -166 -220 -166c-106 0 -199 42 -254 77l59 82
c52 -30 133 -63 196 -63c52 0 92 23 92 59c0 45 -58 55 -128 77c-74 23 -155 56 -155 151c0 97 84 164 210 164c41 0 83 -7 121 -18c-3 11 -4 23 -4 37c0 97 78 174 211 174c129 0 210 -70 188 -190l-3 -14h142l-15 -92h-143l-51 -285c-8 -42 11 -51 34 -51
c26 0 71 16 92 24l31 -97c-32 -11 -106 -35 -162 -35c-87 0 -137 54 -116 173l48 271h-70l16 92h70z" />
    <glyph glyph-name="eight.numr" horiz-adv-x="427" 
d="M48 385c0 67 61 104 120 127c-32 21 -54 48 -54 85c0 63 61 110 161 110c93 0 146 -41 146 -98c0 -50 -43 -82 -91 -104c43 -21 81 -52 81 -105c0 -76 -79 -127 -194 -127c-106 0 -169 42 -169 112zM317 404c0 35 -35 55 -70 70c-51 -16 -107 -37 -107 -81
c0 -34 30 -51 77 -51c53 0 100 23 100 62zM202 588c0 -27 24 -41 46 -50c43 12 84 27 84 58c0 27 -23 44 -58 44c-40 0 -72 -23 -72 -52z" />
    <glyph glyph-name="Qsuperior" horiz-adv-x="499" 
d="M313 812c136 0 202 -72 203 -185c1 -72 -34 -195 -146 -236l59 -52l-64 -56l-89 95c-127 4 -188 74 -189 184c-1 87 49 250 226 250zM285 455c101 0 138 106 138 170c0 61 -24 109 -106 109c-101 0 -137 -106 -137 -170c0 -61 23 -109 105 -109z" />
    <glyph glyph-name="f_f.calt" horiz-adv-x="742" 
d="M51 433l16 92h70l8 42c18 110 58 162 154 162c67 0 143 -30 176 -47l-47 -81c-22 7 -77 21 -106 21c-27 0 -46 -16 -53 -53l-8 -44h123l-16 -92h-123l-70 -396c-29 -160 -37 -211 -245 -258l-27 95c123 37 128 54 146 155l72 404h-70zM421 433l16 92h70l8 42
c18 110 59 162 152 162c49 0 115 -25 144 -38l-44 -84c-19 6 -54 15 -75 15c-27 0 -46 -16 -53 -53l-8 -44h133l-16 -92h-133l-70 -396c-29 -160 -37 -211 -245 -258l-27 95c123 37 128 54 146 155l72 404h-70z" />
    <glyph glyph-name="f_f.ss01" horiz-adv-x="715" 
d="M50 433l16 92h71l6 32c21 115 74 162 166 162c72 0 157 -23 217 -42c24 35 60 52 116 52c67 0 143 -30 176 -47l-56 -81c-19 7 -71 21 -97 21c-28 0 -46 -16 -53 -53l-8 -44h132l-16 -92h-133l-70 -396c-29 -160 -37 -211 -244 -258l-27 95c122 37 128 54 146 155l71 404
h-219l-70 -396c-29 -160 -37 -211 -244 -258l-27 95c122 37 127 54 145 155l72 404h-70zM267 559l-6 -34h218l12 65c-34 7 -114 22 -158 22c-39 0 -60 -21 -66 -53z" />
    <glyph glyph-name="f_f_b.ss01" horiz-adv-x="1331" 
d="M51 433l16 92h70l6 32c21 115 74 162 166 162c74 0 161 -25 221 -43c28 36 69 53 123 53c66 0 143 -19 200 -37l7 37h123l-47 -265c42 32 107 72 184 72c83 0 167 -49 167 -192c0 -208 -99 -355 -245 -355c-84 0 -139 43 -177 75l-11 -64h-123l106 599
c-33 8 -115 23 -160 23c-39 0 -60 -21 -66 -53l-8 -44h133l-16 -92h-133l-70 -396c-29 -160 -38 -211 -245 -258l-27 95c122 37 128 54 146 155l72 404h-219l-70 -396c-29 -160 -37 -211 -244 -258l-27 95c122 37 127 54 145 155l72 404h-69zM1072 436
c-58 0 -108 -37 -154 -75l-36 -201c35 -38 81 -71 132 -71c93 0 147 119 147 241c0 67 -31 106 -89 106zM261 525h218l13 65c-35 7 -115 22 -159 22c-39 0 -60 -21 -66 -53z" />
    <glyph glyph-name="f_f_h.ss01" horiz-adv-x="1329" 
d="M51 433l16 92h70l6 32c21 115 74 162 166 162c74 0 161 -25 221 -43c28 36 69 53 123 53c66 0 143 -19 200 -37l7 37h123l-48 -268c46 31 127 75 207 75c113 0 153 -73 134 -178l-63 -358h-124l62 345c9 53 1 93 -57 93c-60 0 -139 -44 -176 -74l-64 -364h-123l106 599
c-33 8 -115 23 -160 23c-39 0 -60 -21 -66 -53l-8 -44h133l-16 -92h-133l-70 -396c-29 -160 -38 -211 -245 -258l-27 95c122 37 128 54 146 155l72 404h-219l-70 -396c-29 -160 -37 -211 -244 -258l-27 95c122 37 127 54 145 155l72 404h-69zM261 525h218l13 65
c-35 7 -115 22 -159 22c-39 0 -60 -21 -66 -53z" />
    <glyph glyph-name="f_f_i.ss01" horiz-adv-x="945" 
d="M899 682l-50 -82c-31 7 -120 22 -167 22c-40 0 -65 -21 -71 -53l-8 -44h315l-93 -525h-124l76 433h-190l-70 -396c-29 -160 -38 -211 -245 -258l-27 95c122 37 128 54 146 155l72 404h-219l-70 -396c-29 -160 -37 -211 -244 -258l-27 95c122 37 127 54 145 155l72 404
h-69l16 92h70l6 32c21 115 74 162 166 162c74 0 162 -25 221 -43c30 37 72 53 128 53c79 0 182 -27 241 -47zM261 525h218l13 65c-35 7 -115 22 -159 22c-39 0 -60 -21 -66 -53z" />
    <glyph glyph-name="f_f_j.ss01" horiz-adv-x="945" 
d="M51 433l16 92h70l6 32c21 115 74 162 166 162c74 0 162 -25 221 -43c30 37 72 53 128 53c79 0 182 -27 241 -47l-50 -82c-31 7 -120 22 -167 22c-40 0 -65 -21 -71 -53l-8 -44h315l-93 -523c-23 -126 -30 -176 -237 -223l-28 95c123 37 129 52 140 119l78 440h-191
l-70 -396c-29 -160 -38 -211 -245 -258l-27 95c122 37 128 54 146 155l72 404h-219l-70 -396c-29 -160 -37 -211 -244 -258l-27 95c122 37 127 54 145 155l72 404h-69zM479 525l13 65c-35 7 -115 22 -159 22c-39 0 -60 -21 -66 -53l-6 -34h218z" />
    <glyph glyph-name="f_f_k.ss01" horiz-adv-x="1265" 
d="M51 433l16 92h70l6 32c21 115 74 162 166 162c74 0 161 -25 221 -43c28 36 69 53 123 53c66 0 143 -19 200 -37l7 37h123l-76 -427l216 223h150l-218 -214l156 -311h-125l-115 228l-93 -91l-24 -137h-123l106 599c-33 8 -115 23 -160 23c-39 0 -60 -21 -66 -53l-8 -44
h133l-16 -92h-133l-70 -396c-29 -160 -38 -211 -245 -258l-27 95c122 37 128 54 146 155l72 404h-219l-70 -396c-29 -160 -37 -211 -244 -258l-27 95c122 37 127 54 145 155l72 404h-69zM261 525h218l13 65c-35 7 -115 22 -159 22c-39 0 -60 -21 -66 -53z" />
    <glyph glyph-name="f.calt" horiz-adv-x="372" 
d="M51 433l16 92h70l8 42c18 110 59 162 152 162c49 0 115 -25 144 -38l-44 -84c-19 6 -54 15 -75 15c-27 0 -46 -16 -53 -53l-8 -44h133l-16 -92h-133l-70 -396c-29 -160 -37 -211 -245 -258l-27 95c123 37 128 54 146 155l72 404h-70z" />
    <glyph glyph-name="f_f_l.ss01" horiz-adv-x="981" 
d="M51 433l16 92h70l6 32c21 115 74 162 166 162c74 0 161 -25 221 -43c28 36 69 53 123 53c66 0 143 -19 200 -37l7 37h123l-129 -729h-123l106 599c-33 8 -115 23 -160 23c-39 0 -60 -21 -66 -53l-8 -44h133l-16 -92h-133l-70 -396c-29 -160 -38 -211 -245 -258l-27 95
c122 37 128 54 146 155l72 404h-219l-70 -396c-29 -160 -37 -211 -244 -258l-27 95c122 37 127 54 145 155l72 404h-69zM479 525l13 65c-35 7 -115 22 -159 22c-39 0 -60 -21 -66 -53l-6 -34h218z" />
    <glyph glyph-name="f_f_t.ss01" horiz-adv-x="1084" 
d="M817 682l-56 -81c-19 7 -71 21 -98 21c-28 0 -46 -16 -53 -53l-8 -44h217l24 132l127 20l-27 -152h142l-15 -92h-144l-50 -285c-8 -42 10 -51 34 -51c26 0 71 16 91 24l32 -97c-32 -11 -107 -35 -161 -35c-87 0 -138 54 -117 173l48 271h-217l-70 -396
c-29 -160 -38 -211 -245 -258l-26 95c121 37 128 54 145 155l73 404h-219l-70 -396c-29 -160 -37 -211 -244 -258l-27 95c122 37 127 54 145 155l72 404h-70l16 92h71l6 32c21 115 74 162 166 162c72 0 156 -23 216 -41c24 34 59 51 115 51c67 0 144 -30 177 -47zM261 525
h218l12 65c-34 7 -114 22 -158 22c-39 0 -60 -21 -66 -53z" />
    <glyph glyph-name="f_h.ss01" horiz-adv-x="987" 
d="M51 433l16 92h70l8 42c21 115 74 162 165 162c66 0 142 -19 200 -36l7 36h124l-48 -269c44 31 127 76 207 76c113 0 153 -73 134 -178l-63 -358h-124l61 345c10 53 2 93 -57 93s-136 -43 -175 -73l-64 -365h-124l106 600c-35 7 -115 22 -159 22c-39 0 -60 -21 -66 -53
l-8 -44h133l-16 -92h-133l-70 -396c-29 -160 -37 -211 -245 -258l-27 95c123 37 128 54 146 155l72 404h-70z" />
    <glyph glyph-name="exclamsuperior" horiz-adv-x="196" 
d="M67 385l15 91h91l-15 -91h-91zM239 805l-77 -285h-53l23 285h107z" />
    <glyph glyph-name="f_i.ss01" horiz-adv-x="603" 
d="M51 433l16 92h70l8 42c21 115 76 162 170 162c80 0 182 -27 242 -47l-50 -82c-32 7 -120 22 -167 22c-40 0 -64 -21 -70 -53l-8 -44h314l-93 -525h-123l76 433h-191l-70 -396c-29 -160 -37 -211 -245 -258l-27 95c123 37 128 54 146 155l72 404h-70z" />
    <glyph glyph-name="f_j.ss01" horiz-adv-x="603" 
d="M51 433l16 92h70l8 42c21 115 76 162 170 162c80 0 182 -27 242 -47l-50 -82c-32 7 -120 22 -167 22c-40 0 -64 -21 -70 -53l-8 -44h314l-93 -523c-23 -126 -30 -176 -237 -223l-28 95c123 37 128 52 140 119l78 440h-191l-70 -396c-29 -160 -37 -211 -245 -258l-27 95
c123 37 128 54 146 155l72 404h-70z" />
    <glyph glyph-name="f_k.ss01" horiz-adv-x="922" 
d="M51 433l16 92h70l8 42c21 115 74 162 165 162c66 0 142 -19 200 -36l7 36h124l-76 -426l215 222h150l-217 -214l156 -311h-126l-114 229l-93 -92l-24 -137h-124l106 600c-35 7 -115 22 -159 22c-39 0 -60 -21 -66 -53l-8 -44h133l-16 -92h-133l-70 -396
c-29 -160 -37 -211 -245 -258l-27 95c123 37 127 54 146 155l72 404h-70z" />
    <glyph glyph-name="exclaminferior" horiz-adv-x="200" 
d="M-25 -150l15 91h91l-15 -91h-91zM147 270l-77 -285h-53l23 285h107z" />
    <glyph glyph-name="f_l.ss01" horiz-adv-x="639" 
d="M51 433l16 92h70l8 42c21 115 74 162 165 162c66 0 142 -19 200 -36l7 36h124l-129 -729h-124l106 600c-35 7 -115 22 -159 22c-39 0 -60 -21 -66 -53l-8 -44h133l-16 -92h-133l-70 -396c-29 -160 -37 -211 -245 -258l-27 95c123 37 127 54 146 155l72 404h-70z" />
    <glyph glyph-name="f_t.ss01" horiz-adv-x="743" 
d="M475 682l-55 -81c-20 7 -71 21 -98 21s-46 -16 -53 -53l-8 -44h212l24 132l127 20l-27 -152h143l-16 -92h-144l-50 -285c-8 -42 11 -51 34 -51c26 0 72 16 92 24l30 -97c-32 -11 -106 -35 -160 -35c-88 0 -138 54 -117 173l48 271h-212l-70 -396
c-29 -160 -37 -211 -245 -258l-27 95c123 37 128 54 146 155l72 404h-70l16 92h70l8 42c18 110 58 162 154 162c67 0 143 -30 176 -47z" />
    <glyph glyph-name="finferior" horiz-adv-x="278" 
d="M-11 101l11 64h45l3 16c12 72 37 106 102 106c46 0 94 -19 116 -30l-40 -56c-12 4 -41 12 -57 12c-17 0 -28 -8 -32 -30l-4 -18h81l-10 -64h-82l-40 -222c-19 -100 -24 -133 -161 -163l-20 66c76 22 80 32 91 91l41 228h-44z" />
    <glyph glyph-name="exclamdownsuperior" horiz-adv-x="200" 
d="M129 714l14 91h91l-15 -91h-90zM192 669l-25 -284h-106l78 284h53z" />
    <glyph glyph-name="five.dnom" horiz-adv-x="400" 
d="M34 209l61 211h271l-12 -75h-195l-20 -79c18 5 36 8 57 8c92 0 140 -59 140 -128c0 -79 -65 -153 -182 -153c-85 0 -143 40 -170 60l49 57c21 -14 59 -40 113 -40c47 0 97 24 97 74c0 35 -25 58 -71 58c-37 0 -67 -14 -88 -25z" />
    <glyph glyph-name="five.numr" horiz-adv-x="399" 
d="M83 489l61 211h271l-12 -75h-195l-20 -79c18 5 36 8 57 8c93 0 140 -59 140 -128c0 -79 -65 -153 -182 -153c-85 0 -143 40 -170 60l49 57c21 -14 59 -40 113 -40c46 0 97 24 97 74c0 35 -25 58 -71 58c-37 0 -67 -14 -88 -25z" />
    <glyph glyph-name="five.onum" horiz-adv-x="591" 
d="M52 224l98 350h417l-17 -108h-310l-39 -154c30 10 61 15 97 15c143 0 217 -94 217 -209c0 -134 -104 -255 -288 -255c-128 0 -215 61 -257 93l71 82c24 -18 91 -65 173 -65c84 0 169 50 169 140c0 63 -40 109 -121 109c-57 0 -105 -24 -140 -43z" />
    <glyph glyph-name="five.tnum" horiz-adv-x="660" 
d="M109 350l98 350h417l-17 -108h-310l-39 -154c30 10 61 15 97 15c142 0 217 -94 217 -209c0 -134 -105 -255 -288 -255c-128 0 -215 61 -257 93l71 82c24 -18 91 -65 173 -65c84 0 169 50 169 140c0 63 -40 109 -121 109c-58 0 -105 -24 -140 -43z" />
    <glyph glyph-name="exclamdowninferior" horiz-adv-x="196" 
d="M33 179l14 91h91l-15 -91h-90zM96 134l-25 -284h-106l78 284h53z" />
    <glyph glyph-name="fiveeighths.onum" horiz-adv-x="845" 
d="M460 87c0 54 52 84 103 103c-29 17 -49 39 -49 71c0 51 54 89 138 89c79 0 126 -34 126 -81c0 -40 -37 -67 -78 -85c36 -18 69 -43 69 -87c0 -61 -67 -103 -164 -103c-90 0 -145 34 -145 93zM76 401l51 173h232l-9 -61h-171l-17 -66c16 4 31 7 50 7
c81 0 123 -49 123 -105c0 -66 -56 -125 -156 -125c-73 0 -122 32 -145 49l39 46c17 -12 52 -33 98 -33c43 0 87 20 87 61c0 30 -22 48 -64 48c-33 0 -59 -10 -76 -20zM646 574l-386 -574h-79l385 574h80zM694 101c0 30 -34 47 -65 59c-46 -13 -95 -31 -95 -67
c0 -29 28 -43 70 -43c47 0 90 19 90 51zM587 253c0 -23 23 -34 43 -42c37 10 75 22 75 48c0 23 -21 37 -53 37c-37 0 -65 -19 -65 -43z" />
    <glyph glyph-name="exclamdown.sc" horiz-adv-x="265" 
d="M100 451l19 123h121l-19 -123h-121zM183 389l-35 -389h-139l105 389h69z" />
    <glyph glyph-name="fivesixths" horiz-adv-x="948" 
d="M823 353c-77 0 -150 -38 -183 -113c19 14 52 31 101 31c86 0 137 -54 137 -124c0 -81 -62 -154 -175 -154c-114 0 -171 76 -171 161c0 151 121 273 287 273c50 0 78 -12 78 -12l-31 -66s-18 4 -43 4zM94 489l61 211h271l-12 -75h-195l-20 -79c18 5 36 8 57 8
c93 0 140 -59 140 -128c0 -79 -65 -153 -182 -153c-85 0 -143 40 -170 60l49 57c21 -14 59 -40 113 -40c47 0 97 24 97 74c0 35 -25 58 -71 58c-37 0 -67 -14 -88 -25zM757 700l-450 -700h-97l451 700h96zM715 203c-44 0 -78 -25 -92 -43v-12c0 -44 25 -82 77 -82
c58 0 87 38 87 78c0 31 -21 59 -72 59z" />
    <glyph glyph-name="fivesixths.onum" horiz-adv-x="826" 
d="M704 291c-69 0 -132 -33 -160 -95c17 12 46 26 88 26c76 0 119 -45 119 -103c0 -65 -52 -125 -149 -125c-98 0 -147 63 -147 134c0 122 103 222 245 222c41 0 66 -9 66 -9l-25 -54s-16 4 -37 4zM76 401l51 173h232l-9 -61h-171l-17 -66c15 4 31 7 50 7
c81 0 123 -49 123 -105c0 -66 -56 -125 -156 -125c-73 0 -122 32 -145 49l39 46c17 -12 52 -33 98 -33c43 0 87 20 87 61c0 30 -22 48 -64 48c-33 0 -59 -10 -76 -20zM645 574l-387 -574h-78l385 574h80zM612 167c-39 0 -70 -21 -83 -35v-9c0 -36 23 -69 70 -69
c51 0 78 31 78 64c0 26 -19 49 -65 49z" />
    <glyph glyph-name="exclam.sc" horiz-adv-x="264" 
d="M20 0l20 123h120l-19 -123h-121zM251 574l-104 -390h-69l34 390h139z" />
    <glyph glyph-name="einferior" horiz-adv-x="371" 
d="M300 77c0 -79 -86 -99 -199 -99h-38c2 -50 26 -70 65 -70c38 0 85 20 122 37l28 -60c-25 -12 -96 -42 -165 -42c-82 0 -136 41 -136 139c0 108 72 190 193 190c80 0 130 -35 130 -95zM166 109c-51 0 -87 -34 -99 -84h37c74 0 112 17 112 50c0 21 -17 34 -50 34z" />
    <glyph glyph-name="eight.tnum" horiz-adv-x="660" 
d="M30 171c0 116 103 177 197 214c-52 32 -89 76 -89 142c0 108 98 184 250 184c141 0 224 -65 224 -160c0 -89 -75 -143 -152 -177c66 -34 130 -84 130 -175c0 -126 -126 -210 -304 -210c-158 0 -256 66 -256 182zM458 205c0 62 -62 100 -118 125
c-85 -28 -179 -68 -179 -148c0 -59 49 -94 126 -94c91 0 171 48 171 117zM262 515c0 -49 44 -75 83 -92c71 22 140 53 140 111c0 42 -35 81 -98 81c-70 0 -125 -48 -125 -100z" />
    <glyph glyph-name="four.dnom" horiz-adv-x="435" 
d="M198 0l14 81h-228l10 63l249 276h121l-48 -265h66l-11 -74h-68l-14 -81h-91zM97 155h128l32 183z" />
    <glyph glyph-name="four.numr" horiz-adv-x="434" 
d="M247 280l14 81h-228l10 63l249 276h121l-48 -265h66l-11 -74h-68l-14 -81h-91zM146 435h128l32 183z" />
    <glyph glyph-name="four.onum" horiz-adv-x="649" 
d="M311 -126l25 141h-362l16 92l403 467h170l-79 -451h105l-18 -108h-106l-25 -141h-129zM133 123h222l58 330z" />
    <glyph glyph-name="four.tnum" horiz-adv-x="660" 
d="M7 141l15 92l404 467h163l-80 -451h100l-17 -108h-102l-25 -141h-126l25 141h-357zM165 249h218l56 323z" />
    <glyph glyph-name="fourfifths" horiz-adv-x="1018" 
d="M257 280l14 81h-228l10 63l249 276h121l-48 -265h66l-11 -74h-68l-14 -81h-91zM641 209l60 211h272l-12 -75h-197l-20 -79c18 5 36 8 58 8c93 0 140 -59 140 -128c0 -79 -64 -153 -181 -153c-86 0 -144 40 -170 60l49 57c20 -14 58 -40 112 -40c47 0 97 24 97 74
c0 35 -25 58 -70 58c-37 0 -68 -14 -89 -25zM809 700l-451 -700h-97l451 700h97zM156 435h128l32 183z" />
    <glyph glyph-name="fourfifths.onum" horiz-adv-x="887" 
d="M220 230l11 66h-197l7 51l216 227h99l-39 -218h57l-9 -60h-59l-11 -66h-75zM549 171l51 173h232l-9 -60h-171l-18 -67c16 4 32 7 52 7c81 0 122 -48 122 -105c0 -65 -56 -125 -156 -125c-72 0 -122 33 -145 49l40 46c16 -11 51 -32 96 -32c43 0 88 20 88 60
c0 31 -21 49 -64 49c-32 0 -58 -11 -76 -21zM690 574l-387 -574h-80l388 574h79zM128 356h114l28 155z" />
    <glyph glyph-name="eight.onum" horiz-adv-x="644" 
d="M22 171c0 116 103 177 197 214c-51 32 -89 76 -89 142c0 108 99 184 251 184c140 0 224 -65 224 -160c0 -89 -75 -143 -152 -177c66 -34 129 -84 129 -175c0 -126 -126 -210 -303 -210c-158 0 -257 66 -257 182zM451 205c0 62 -63 100 -118 125
c-85 -28 -179 -68 -179 -148c0 -59 49 -94 126 -94c91 0 171 48 171 117zM254 515c0 -49 44 -75 84 -92c71 22 139 53 139 111c0 42 -34 81 -97 81c-71 0 -126 -48 -126 -100z" />
    <glyph glyph-name="eight.dnom" horiz-adv-x="427" 
d="M-1 105c0 67 61 104 121 127c-33 21 -55 48 -55 85c0 63 62 110 161 110c93 0 146 -41 146 -98c0 -50 -42 -82 -90 -104c42 -21 80 -52 80 -105c0 -76 -78 -127 -194 -127c-105 0 -169 42 -169 112zM269 124c0 35 -36 55 -70 70c-52 -16 -107 -37 -107 -81
c0 -34 30 -51 77 -51c52 0 100 23 100 62zM154 308c0 -27 23 -41 45 -50c43 12 84 27 84 58c0 27 -23 44 -57 44c-42 0 -72 -23 -72 -52z" />
    <glyph glyph-name="dollar.onum" horiz-adv-x="581" 
d="M268 -82h-84l14 81c-77 14 -147 47 -192 77l63 80c39 -21 93 -47 147 -59l26 147l-23 9c-73 29 -140 69 -140 157c0 97 86 172 223 173l13 74h83l-15 -82c66 -13 126 -40 172 -64l-62 -80c-34 18 -82 36 -127 46l-24 -139l23 -8c72 -28 147 -68 147 -161
c0 -104 -94 -177 -231 -178zM386 156c0 30 -27 47 -66 61l-22 -126c51 6 88 29 88 65zM207 419c0 -28 21 -41 56 -54l21 117c-43 -6 -77 -27 -77 -63z" />
    <glyph glyph-name="frenchfranc" horiz-adv-x="620" 
d="M14 115l13 75h64l90 510h471l-17 -110h-344l-36 -187h273l-17 -107h-273l-19 -106h178l-13 -75h-179l-20 -115h-128l20 115h-63z" />
    <glyph glyph-name="frenchfranc.onum" horiz-adv-x="556" 
d="M8 89l10 68h56l74 417h416l-16 -101h-298l-26 -137h235l-15 -99h-237l-14 -80h154l-10 -68h-156l-15 -89h-119l15 89h-54z" />
    <glyph glyph-name="frenchfrancinferior" horiz-adv-x="400" 
d="M-48 -86l8 51h42l54 305h305l-13 -76h-214l-18 -97h168l-13 -75h-167l-11 -57h112l-8 -51h-113l-11 -64h-91l11 64h-41z" />
    <glyph glyph-name="frenchfrancsuperior" horiz-adv-x="395" 
d="M59 449l8 51h42l54 305h305l-13 -76h-214l-18 -97h168l-13 -75h-167l-11 -57h112l-8 -51h-113l-11 -64h-91l11 64h-41z" />
    <glyph glyph-name="fsuperior" horiz-adv-x="280" 
d="M98 636l11 64h45l3 16c12 72 37 106 102 106c46 0 94 -19 116 -30l-40 -56c-12 4 -41 12 -57 12c-17 0 -28 -8 -32 -30l-4 -18h81l-10 -64h-82l-40 -222c-19 -100 -24 -133 -161 -163l-20 66c76 22 80 32 91 91l41 228h-44z" />
    <glyph glyph-name="dinferior" horiz-adv-x="404" 
d="M273 -150h-87l6 38c-27 -21 -69 -45 -119 -45c-51 0 -102 31 -102 120c0 122 64 209 156 209c51 0 86 -26 108 -44l28 159h87zM107 -87c38 0 70 23 98 46l18 104c-19 20 -46 39 -74 39c-56 0 -88 -64 -88 -132c0 -37 16 -57 46 -57z" />
    <glyph glyph-name="csuperior" horiz-adv-x="356" 
d="M387 656l-40 -59c-20 13 -55 35 -92 35c-52 0 -95 -45 -95 -108c0 -48 22 -72 60 -72c32 0 75 20 99 31l30 -65c-33 -14 -91 -40 -148 -40c-74 0 -130 42 -130 138c0 119 80 191 168 191c61 0 115 -33 148 -51z" />
    <glyph glyph-name="copyright.sc" horiz-adv-x="714" 
d="M46 261c0 171 116 322 329 322c180 0 289 -111 289 -270c0 -171 -116 -322 -328 -322c-180 0 -290 111 -290 270zM80 261c0 -138 95 -239 258 -239c185 0 293 132 293 291c0 138 -95 239 -258 239c-185 0 -293 -132 -293 -291zM508 410l-28 -27c-22 17 -58 46 -113 46
c-75 0 -134 -75 -128 -178c4 -66 32 -106 83 -106c55 0 104 28 129 44l24 -30c-35 -21 -85 -51 -151 -51c-69 0 -125 49 -128 140c-9 139 75 217 172 217c66 0 112 -34 140 -55z" />
    <glyph glyph-name="colonsuperior" horiz-adv-x="195" 
d="M100 573l17 99h91l-17 -99h-91zM67 385l17 99h91l-17 -99h-91z" />
    <glyph glyph-name="colonmonetarysuperior" horiz-adv-x="365" 
d="M156 385h-39l26 62c-36 20 -59 60 -59 122c0 119 79 190 168 190c7 0 13 -1 20 -2l20 48h41l-23 -55l16 -5l25 60h40l-31 -75l44 -22l-40 -59c-8 5 -19 11 -31 17l-64 -156c25 6 50 17 67 25l30 -65c-30 -13 -79 -34 -130 -39l-19 -46h-41l19 46c-7 0 -13 1 -19 3z
M173 576c0 -16 2 -29 7 -40l60 143c-39 -13 -67 -52 -67 -103zM208 509c6 -2 11 -4 18 -4l73 174c-6 2 -12 3 -18 4z" />
    <glyph glyph-name="germandblsinferior" horiz-adv-x="450" 
d="M217 277c131 0 182 -59 169 -138l-1 -10l-58 -45c-21 10 -51 22 -76 22s-43 -12 -43 -29c0 -25 36 -30 70 -40c45 -13 90 -35 90 -93c0 -60 -48 -101 -125 -101c-63 0 -124 27 -154 50l38 56c29 -18 79 -40 110 -40c22 0 45 11 45 31c0 23 -33 30 -69 41
c-46 14 -90 36 -90 91c0 54 42 100 122 100c19 0 38 -3 55 -7c-4 29 -29 44 -83 44c-59 0 -104 -16 -115 -78l-49 -281h-88l52 291c17 86 72 136 200 136z" />
    <glyph glyph-name="germandblssuperior" horiz-adv-x="468" 
d="M316 812c131 0 182 -59 169 -138l-1 -10l-58 -45c-21 10 -51 22 -76 22s-43 -12 -43 -29c0 -25 36 -30 70 -40c45 -13 90 -35 90 -93c0 -60 -48 -101 -125 -101c-63 0 -124 27 -154 50l38 56c29 -18 79 -40 110 -40c22 0 45 11 45 31c0 23 -33 30 -69 41
c-46 14 -90 36 -90 91c0 54 42 100 122 100c19 0 38 -3 55 -7c-4 29 -29 44 -83 44c-59 0 -104 -16 -115 -78l-49 -281h-88l52 291c17 86 72 136 200 136z" />
    <glyph glyph-name="ginferior" horiz-adv-x="406" 
d="M247 165h88l-56 -317c-18 -101 -72 -126 -160 -126c-56 0 -117 10 -169 24l27 70c42 -13 91 -24 133 -24c56 0 75 26 80 53l7 42c-27 -20 -69 -44 -119 -44s-101 31 -101 120c0 122 64 209 156 209c51 0 84 -26 107 -44zM113 -87c38 0 69 21 97 44l19 106
c-19 21 -46 39 -74 39c-56 0 -89 -64 -89 -132c0 -37 17 -57 47 -57z" />
    <glyph glyph-name="colonmonetaryinferior" horiz-adv-x="364" 
d="M62 -150h-39l26 62c-36 21 -59 60 -59 122c0 119 80 190 168 190c7 0 14 -1 20 -1l20 47h41l-23 -55c5 -1 11 -3 16 -5l25 60h40l-31 -74c17 -8 32 -17 44 -23l-40 -59c-8 5 -19 11 -31 17l-64 -156c25 7 50 18 67 25l30 -65c-30 -12 -79 -34 -130 -39l-19 -46h-41l19 46
l-19 3zM79 41c0 -16 2 -29 7 -40l60 143c-39 -13 -67 -52 -67 -103zM114 -25c6 -2 11 -4 18 -5l73 174c-6 2 -12 3 -18 4z" />
    <glyph glyph-name="colonmonetary.onum" horiz-adv-x="509" 
d="M148 0h-53l35 85c-51 27 -82 81 -82 161c0 178 117 266 230 266c10 0 20 -1 30 -2l27 64h53l-31 -74c9 -2 17 -4 25 -7l34 81h54l-43 -101c22 -11 42 -22 58 -31l-52 -77c-11 6 -25 15 -41 23l-93 -221c36 10 72 26 95 36l39 -86c-39 -16 -109 -46 -177 -53l-27 -64h-54
l27 64c-9 1 -18 2 -26 4zM166 255c0 -22 4 -42 12 -57l87 210c-58 -20 -99 -86 -99 -153zM217 165c7 -3 16 -5 25 -5l103 247c-8 2 -16 4 -25 5z" />
    <glyph glyph-name="coloninferior" horiz-adv-x="190" 
d="M4 38l17 99h91l-17 -99h-91zM-29 -150l17 99h91l-17 -99h-91z" />
    <glyph glyph-name="gsuperior" horiz-adv-x="426" 
d="M351 700h88l-56 -317c-18 -101 -72 -126 -160 -126c-56 0 -117 10 -169 24l27 70c42 -13 91 -24 133 -24c56 0 75 26 80 53l7 42c-27 -20 -69 -44 -119 -44s-101 31 -101 120c0 122 64 209 156 209c51 0 84 -26 107 -44zM217 448c38 0 69 21 97 44l19 106
c-19 21 -46 39 -74 39c-56 0 -89 -64 -89 -132c0 -37 17 -57 47 -57z" />
    <glyph glyph-name="cinferior" horiz-adv-x="350" 
d="M294 121l-40 -59c-20 13 -55 35 -92 35c-53 0 -95 -45 -95 -108c0 -48 23 -72 60 -72c32 0 75 20 99 31l30 -65c-33 -14 -91 -40 -148 -40c-74 0 -130 42 -130 138c0 119 79 191 168 191c60 0 115 -33 148 -51z" />
    <glyph glyph-name="cent.onum" horiz-adv-x="507" 
d="M272 0h-83l11 63c-90 10 -154 69 -154 182c0 178 117 266 229 266h4l11 63h83l-14 -76c51 -15 93 -40 124 -57l-52 -77c-20 12 -53 31 -88 42l-42 -239c34 10 69 25 91 35l39 -86c-34 -14 -89 -37 -147 -48zM163 254c0 -47 18 -80 54 -91l43 242
c-57 -21 -97 -85 -97 -151z" />
    <glyph glyph-name="c_t" horiz-adv-x="920" 
d="M569 433l16 92h70l5 25c12 72 -6 120 -77 120c-70 0 -126 -51 -126 -125c0 -21 4 -41 13 -57l51 -28l-59 -85c-29 16 -86 55 -140 55c-91 0 -163 -99 -163 -211c0 -76 33 -124 99 -124c52 0 121 37 156 53l43 -95c-50 -22 -139 -64 -224 -64c-116 0 -202 74 -202 219
c0 219 137 328 266 328c39 0 74 -8 105 -18c-3 11 -4 23 -4 37c0 97 78 174 200 174c130 0 205 -70 184 -190l-3 -14h142l-15 -92h-143l-51 -285c-8 -42 11 -51 34 -51c27 0 71 16 92 24l31 -97c-32 -11 -107 -35 -161 -35c-87 0 -138 54 -117 173l48 271h-70z" />
    <glyph glyph-name="c_l" horiz-adv-x="786" 
d="M662 0h-123l118 670h-66c-74 0 -128 -50 -128 -125c0 -21 3 -42 12 -59c17 -10 32 -19 46 -26l-59 -85c-29 16 -86 55 -140 55c-91 0 -163 -99 -163 -211c0 -76 33 -124 99 -124c52 0 121 37 156 53l43 -95c-50 -22 -139 -64 -224 -64c-116 0 -202 74 -202 219
c0 219 137 328 266 328c41 0 78 -9 111 -20c-3 12 -4 24 -4 39c0 96 67 174 185 174h202z" />
    <glyph glyph-name="c_k" horiz-adv-x="1070" 
d="M1078 525l-218 -214l156 -311h-126l-114 228l-93 -91l-24 -137h-123l118 670h-63c-74 0 -128 -50 -128 -125c0 -21 3 -42 12 -59c17 -10 32 -19 46 -26l-59 -85c-29 16 -86 55 -140 55c-91 0 -163 -99 -163 -211c0 -76 33 -124 99 -124c52 0 121 37 156 53l43 -95
c-50 -22 -139 -64 -224 -64c-116 0 -202 74 -202 219c0 219 137 328 266 328c41 0 78 -9 111 -20c-3 12 -4 24 -4 39c0 96 67 174 185 174h199l-76 -427l216 223h150z" />
    <glyph glyph-name="c_h" horiz-adv-x="1134" 
d="M788 729l-48 -269c46 31 127 76 206 76c115 0 154 -73 135 -178l-63 -358h-124l62 345c9 53 0 93 -58 93c-59 0 -137 -44 -175 -74l-64 -364h-123l118 670h-63c-74 0 -128 -50 -128 -125c0 -21 3 -42 12 -59c17 -10 32 -19 46 -26l-59 -85c-29 16 -86 55 -140 55
c-91 0 -163 -99 -163 -211c0 -76 33 -124 99 -124c52 0 121 37 156 53l43 -95c-50 -22 -139 -64 -224 -64c-116 0 -202 74 -202 219c0 219 137 328 266 328c41 0 78 -9 111 -20c-3 12 -4 24 -4 39c0 96 66 174 185 174h199z" />
    <glyph glyph-name="hinferior" horiz-adv-x="397" 
d="M137 287l-28 -159c29 19 77 44 126 44c73 0 99 -45 87 -110l-37 -212h-87l36 202c6 30 0 52 -34 52c-35 0 -81 -24 -103 -42l-37 -212h-88l77 437h88z" />
    <glyph glyph-name="brokenbar.sc" horiz-adv-x="245" 
d="M171 332h-86l60 339h86zM95 -101h-86l60 339h86z" />
    <glyph glyph-name="bracketrightsuperior" horiz-adv-x="251" 
d="M194 299h-168l9 51h77l86 487h-77l9 51h168z" />
    <glyph glyph-name="bracketrightinferior" horiz-adv-x="255" 
d="M103 -236h-168l9 51h77l86 487h-77l9 51h168z" />
    <glyph glyph-name="bracketright.sc" horiz-adv-x="339" 
d="M187 -118h-227l13 69h106l119 668h-108l12 69h227z" />
    <glyph glyph-name="bracketleftsuperior" horiz-adv-x="249" 
d="M223 299h-168l104 589h168l-10 -51h-76l-86 -487h77z" />
    <glyph glyph-name="bracketleftinferior" horiz-adv-x="254" 
d="M131 -236h-168l104 589h168l-10 -51h-76l-86 -487h77z" />
    <glyph glyph-name="bracketleft.sc" horiz-adv-x="339" 
d="M232 -118h-227l142 806h227l-12 -69h-107l-119 -668h107z" />
    <glyph glyph-name="bracerightsuperior" horiz-adv-x="274" 
d="M308 621l-10 -55c-57 1 -69 -36 -70 -67l-3 -60c-5 -98 -61 -140 -171 -140h-27l8 50h12c65 0 82 39 85 79l2 54c3 78 38 104 102 112c-57 12 -88 44 -62 117l12 37c13 41 19 90 -51 90h-12l8 50h12c99 0 165 -48 134 -146l-17 -53c-15 -44 -1 -68 48 -68z" />
    <glyph glyph-name="bracerightinferior" horiz-adv-x="277" 
d="M216 86l-10 -55c-57 1 -69 -36 -70 -67l-3 -60c-5 -98 -61 -140 -171 -140h-27l8 50h12c65 0 82 39 85 79l2 54c3 78 38 104 102 112c-57 12 -88 44 -62 117l12 37c13 41 19 90 -51 90h-12l8 50h12c99 0 165 -48 134 -146l-17 -53c-15 -44 -1 -68 48 -68z" />
    <glyph glyph-name="iinferior" horiz-adv-x="191" 
d="M60 -150h-88l56 315h88zM34 210l13 76h92l-13 -76h-92z" />
    <glyph glyph-name="braceright.sc" horiz-adv-x="375" 
d="M347 322l-13 -73c-80 0 -97 -51 -99 -93l-3 -82c-5 -133 -80 -191 -235 -191h-35l11 66h16c93 0 117 53 121 111l3 74c4 104 51 141 137 153c-75 16 -117 60 -83 158l17 51c18 57 24 125 -74 125h-16l10 67h16c139 0 225 -67 183 -201l-23 -72c-20 -61 0 -93 67 -93z" />
    <glyph glyph-name="braceleftsuperior" horiz-adv-x="272" 
d="M67 566l9 55c59 0 71 36 73 67l2 60c5 98 61 140 171 140h27l-8 -50h-12c-65 0 -82 -38 -85 -79l-2 -55c-4 -76 -38 -103 -99 -112c54 -12 83 -44 59 -116l-12 -36c-14 -42 -19 -91 51 -91h12l-8 -50h-12c-99 0 -163 48 -134 147l16 53c13 44 1 67 -48 67z" />
    <glyph glyph-name="braceleftinferior" horiz-adv-x="278" 
d="M-24 31l9 55c59 0 71 36 73 67l2 60c5 98 61 140 171 140h27l-8 -50h-12c-65 0 -82 -38 -85 -79l-2 -55c-4 -76 -38 -103 -99 -112c54 -12 83 -44 59 -116l-12 -36c-14 -42 -19 -91 51 -91h12l-8 -50h-12c-99 0 -163 48 -134 147l16 53c13 44 1 67 -48 67z" />
    <glyph glyph-name="braceleft.sc" horiz-adv-x="375" 
d="M23 249l13 73c80 -1 99 50 100 92l2 82c4 134 81 192 235 192h35l-11 -67h-16c-92 0 -117 -53 -120 -111l-3 -74c-5 -105 -53 -142 -139 -153c76 -16 118 -59 85 -157l-17 -52c-19 -57 -26 -125 73 -125h16l-10 -66h-16c-137 0 -225 66 -183 200l23 73c20 61 1 93 -67 93
z" />
    <glyph glyph-name="binferior" horiz-adv-x="400" 
d="M-28 -150l77 437h88l-28 -157c26 19 67 42 114 42c52 0 107 -31 107 -121c0 -122 -62 -208 -154 -208c-52 0 -87 25 -110 43l-6 -36h-88zM189 102c-35 0 -65 -21 -92 -42l-19 -109c19 -20 46 -38 77 -38c54 0 85 64 85 130c0 39 -17 59 -51 59z" />
    <glyph glyph-name="bar.sc" horiz-adv-x="245" 
d="M95 -101h-86l136 772h86z" />
    <glyph glyph-name="backslash.sc" horiz-adv-x="417" 
d="M249 -74l-162 722h83l161 -722h-82z" />
    <glyph glyph-name="at.sc" horiz-adv-x="790" 
d="M315 -105c95 0 157 36 157 36l21 -35s-73 -43 -179 -43c-180 0 -287 129 -287 300c0 220 166 410 417 410c227 0 309 -150 294 -306c-11 -101 -56 -281 -205 -281c-83 0 -97 60 -95 98c-33 -26 -81 -55 -141 -55s-105 40 -105 100c0 96 71 146 152 146
c45 0 97 -14 123 -19l7 35c9 49 -4 69 -55 69c-38 0 -89 -14 -138 -33l-19 61c63 22 127 38 180 38c91 0 132 -40 115 -134l-25 -143c-11 -58 -19 -108 28 -108c60 0 123 95 134 226c14 125 -43 263 -247 263c-235 0 -376 -173 -376 -367c0 -149 89 -258 244 -258zM448 135
l11 66c-22 4 -60 14 -92 14c-63 0 -86 -40 -86 -81c0 -35 22 -49 52 -49c33 0 76 19 115 50z" />
    <glyph glyph-name="asterisksuperior" horiz-adv-x="297" 
d="M155 580l40 89l-84 -55l-25 68l100 9l-91 43l47 55l61 -80l-8 97l72 -13l-40 -88l83 56l26 -69l-97 -9l87 -42l-46 -56l-59 76l6 -93z" />
    <glyph glyph-name="jinferior" horiz-adv-x="192" 
d="M34 210l13 76h93l-14 -76h-92zM116 165l-54 -307c-14 -81 -20 -114 -157 -143l-20 65c76 23 81 32 88 71l56 314h87z" />
    <glyph glyph-name="asteriskinferior" horiz-adv-x="310" 
d="M73 45l40 89l-84 -55l-25 68l100 9l-91 43l47 55l61 -80l-8 97l72 -13l-40 -88l83 56l26 -69l-97 -9l87 -42l-46 -56l-59 76l6 -93z" />
    <glyph glyph-name="ampersandsuperior" horiz-adv-x="468" 
d="M467 385h-93l-33 37c-39 -26 -86 -44 -140 -44c-84 0 -140 42 -140 106c0 62 54 99 112 129c-24 29 -41 55 -41 91c0 65 58 108 133 108c72 0 120 -39 120 -92c0 -54 -53 -90 -108 -122l64 -73c20 25 36 53 46 81h88c-12 -37 -39 -92 -82 -138zM204 443c31 0 61 13 89 34
l-77 86c-38 -23 -67 -47 -67 -77c0 -19 12 -43 55 -43zM213 703c0 -22 10 -41 23 -58c40 20 71 41 71 70c0 21 -15 34 -43 34c-35 0 -51 -20 -51 -46z" />
    <glyph glyph-name="ampersandinferior" horiz-adv-x="444" 
d="M371 -150h-93l-33 38c-39 -27 -86 -45 -140 -45c-84 0 -140 42 -140 106c0 62 54 99 112 129c-24 29 -41 55 -41 91c0 65 58 108 133 108c72 0 120 -39 120 -92c0 -54 -53 -90 -108 -122l64 -72c20 24 36 52 46 80h88c-12 -37 -39 -91 -82 -138zM108 -92
c31 0 61 13 89 34l-77 86c-38 -23 -67 -46 -67 -77c0 -19 12 -43 55 -43zM117 168c0 -22 10 -41 23 -58c40 20 71 41 71 70c0 21 -15 34 -43 34c-35 0 -51 -20 -51 -46z" />
    <glyph glyph-name="ampersand.sc" horiz-adv-x="629" 
d="M570 0h-122l-48 54c-54 -38 -119 -63 -195 -63c-113 0 -191 56 -191 145c0 85 75 136 155 177c-33 39 -56 75 -56 124c0 89 79 146 180 146c95 0 163 -52 163 -123c0 -74 -72 -124 -148 -168l92 -103c27 35 50 75 64 114h116c-15 -51 -53 -126 -112 -190zM210 77
c44 0 88 19 126 48l-108 121c-55 -33 -99 -66 -99 -108c0 -31 22 -61 81 -61zM217 432c0 -27 16 -53 35 -77c55 29 98 58 98 98c0 24 -17 47 -58 47c-48 0 -75 -32 -75 -68z" />
    <glyph glyph-name="kinferior" horiz-adv-x="365" 
d="M323 165l-136 -128l100 -187h-89l-70 131l-55 -52l-13 -79h-88l77 437h88l-44 -246l123 124h107z" />
    <glyph glyph-name="ksuperior" horiz-adv-x="379" 
d="M416 700l-136 -128l100 -187h-89l-70 131l-55 -53l-13 -78h-88l77 437h88l-44 -246l123 124h107z" />
    <glyph glyph-name="ainferior" horiz-adv-x="407" 
d="M280 -150h-88l6 38c-27 -21 -69 -45 -119 -45c-51 0 -102 31 -102 120c0 122 64 209 156 209c51 0 86 -27 108 -45l7 38h87zM113 -87c38 0 70 23 98 46l18 104c-19 20 -46 39 -74 39c-56 0 -88 -64 -88 -132c0 -37 16 -57 46 -57z" />
    <glyph glyph-name="Zsuperior" horiz-adv-x="419" 
d="M470 805l-11 -69l-280 -275h232l-13 -76h-353l12 69l280 275h-216l14 76h335z" />
    <glyph glyph-name="Zinferior" horiz-adv-x="419" 
d="M376 270l-11 -69l-280 -275h232l-13 -76h-353l12 69l280 275h-216l14 76h335z" />
    <glyph glyph-name="Zdotaccent.sc" horiz-adv-x="560" 
d="M565 574l-16 -91l-392 -382h327l-18 -101h-485l16 92l389 381h-300l17 101h462zM286 628l19 112h109l-19 -112h-109z" />
    <glyph glyph-name="Zcaron.sc" horiz-adv-x="560" 
d="M565 574l-16 -91l-392 -382h327l-18 -101h-485l16 92l389 381h-300l17 101h462zM276 618l-78 135h80l65 -78l93 78h92l-126 -135h-126z" />
    <glyph glyph-name="Zacute.sc" horiz-adv-x="560" 
d="M565 574l-16 -91l-392 -382h327l-18 -101h-485l16 92l389 381h-300l17 101h462zM352 618h-108l142 135h156z" />
    <glyph glyph-name="Z.sc" horiz-adv-x="560" 
d="M467 0h-486l16 92l390 381h-300l17 101h461l-15 -91l-392 -382h326z" />
    <glyph glyph-name="linferior" horiz-adv-x="190" 
d="M59 -150h-87l77 437h88z" />
    <glyph glyph-name="Ysuperior" horiz-adv-x="411" 
d="M175 385l29 167l-113 253h96l70 -183l134 183h106l-202 -253l-29 -167h-91z" />
    <glyph glyph-name="lira.onum" horiz-adv-x="516" 
d="M60 271l9 56h52c-12 28 -23 58 -23 96c0 96 72 160 192 160c99 0 174 -48 219 -79l-59 -70c-47 29 -96 50 -140 50c-62 0 -95 -33 -95 -74c0 -30 14 -55 27 -83h166l-10 -56h-139c1 -8 2 -15 2 -23c0 -6 0 -12 -1 -18h130l-9 -56h-140c-21 -37 -53 -63 -72 -75h255
l-17 -99h-404l14 80s79 32 115 94h-89l9 56h96v4c0 13 -2 25 -5 37h-83z" />
    <glyph glyph-name="lirainferior" horiz-adv-x="370" 
d="M1 49l6 40h37c-9 20 -16 42 -16 70c0 72 52 118 139 118c75 0 128 -36 163 -59l-45 -54c-35 22 -70 38 -102 38c-41 0 -65 -25 -65 -52c0 -21 11 -40 21 -61h117l-7 -40h-96c1 -6 2 -11 2 -17c0 -5 -1 -9 -1 -13h90l-8 -40h-98c-16 -26 -41 -44 -52 -54h181l-11 -75h-297
l9 61s59 22 84 68h-64l7 40h68v2c0 10 -2 19 -4 28h-58z" />
    <glyph glyph-name="lirasuperior" horiz-adv-x="380" 
d="M101 584l6 40h37c-9 20 -16 42 -16 70c0 72 52 118 139 118c75 0 128 -36 163 -59l-45 -54c-35 22 -70 38 -102 38c-41 0 -65 -25 -65 -52c0 -21 11 -40 21 -61h117l-7 -40h-96c1 -6 2 -11 2 -17c0 -5 -1 -9 -1 -13h90l-8 -40h-98c-16 -26 -41 -44 -52 -54h181l-11 -75
h-297l9 61s59 22 84 68h-64l7 40h68v2c0 10 -2 19 -4 28h-58z" />
    <glyph glyph-name="Yinferior" horiz-adv-x="411" 
d="M81 -150l29 167l-113 253h96l70 -183l134 183h106l-202 -253l-29 -167h-91z" />
    <glyph glyph-name="Ygrave.sc" horiz-adv-x="580" 
d="M176 0l39 227l-157 347h126l100 -255l189 255h140l-278 -345l-40 -229h-119zM440 618h-95l-147 135h140z" />
    <glyph glyph-name="Ydieresis.sc" horiz-adv-x="580" 
d="M176 0l39 227l-157 347h126l100 -255l189 255h140l-278 -345l-40 -229h-119zM201 628l20 112h108l-19 -112h-109zM382 628l20 112h106l-19 -112h-107z" />
    <glyph glyph-name="Yacute.sc" horiz-adv-x="580" 
d="M176 0l39 227l-157 347h126l100 -255l189 255h140l-278 -345l-40 -229h-119zM356 618h-108l144 135h155z" />
    <glyph glyph-name="Y.sc" horiz-adv-x="580" 
d="M176 0l39 227l-157 347h126l100 -255l189 255h140l-278 -345l-40 -229h-119z" />
    <glyph glyph-name="Xsuperior" horiz-adv-x="425" 
d="M108 805h100l62 -156l115 156h110l-176 -209l110 -211h-102l-66 153l-120 -153h-115l183 211z" />
    <glyph glyph-name="Xinferior" horiz-adv-x="425" 
d="M14 270h100l62 -156l115 156h110l-176 -209l110 -211h-102l-66 153l-120 -153h-115l183 211z" />
    <glyph glyph-name="minferior" horiz-adv-x="594" 
d="M112 165l-7 -39c25 20 68 46 113 46c50 0 77 -22 85 -56c22 21 75 56 124 56c72 0 96 -44 85 -108l-37 -214h-88l37 202c6 29 2 52 -31 52c-32 0 -69 -25 -91 -45l-37 -209h-88l37 202c5 29 2 52 -31 52c-31 0 -67 -24 -90 -44l-37 -210h-88l56 315h88z" />
    <glyph glyph-name="X.sc" horiz-adv-x="572" 
d="M70 574h129l90 -219l164 219h146l-244 -287l153 -287h-133l-96 215l-169 -215h-151l253 288z" />
    <glyph glyph-name="Wsuperior" horiz-adv-x="612" 
d="M400 385l-26 297l-132 -297h-91l-48 420h101l18 -297l132 297h78l25 -297l122 297h108l-196 -420h-91z" />
    <glyph glyph-name="Winferior" horiz-adv-x="611" 
d="M305 -150l-26 297l-132 -297h-91l-48 420h101l18 -297l132 297h78l25 -297l122 297h108l-196 -420h-91z" />
    <glyph glyph-name="Wgrave.sc" horiz-adv-x="849" 
d="M482 0l-38 420l-189 -420h-117l-67 574h132l28 -419l188 419h100l36 -420l174 420h141l-269 -574h-119zM571 618h-95l-147 135h140z" />
    <glyph glyph-name="Wdieresis.sc" horiz-adv-x="849" 
d="M482 0l-38 420l-189 -420h-117l-67 574h132l28 -419l188 419h100l36 -420l174 420h141l-269 -574h-119zM336 628l19 112h109l-20 -112h-108zM517 628l19 112h107l-20 -112h-106z" />
    <glyph glyph-name="Wcircumflex.sc" horiz-adv-x="849" 
d="M482 0l-38 420l-189 -420h-117l-67 574h132l28 -419l188 419h100l36 -420l174 420h141l-269 -574h-119zM565 753l79 -135h-80l-66 78l-92 -78h-92l126 135h125z" />
    <glyph glyph-name="Wacute.sc" horiz-adv-x="849" 
d="M482 0l-38 420l-189 -420h-117l-67 574h132l28 -419l188 419h100l36 -420l174 420h141l-269 -574h-119zM491 618h-109l144 135h156z" />
    <glyph glyph-name="W.sc" horiz-adv-x="849" 
d="M482 0l-38 420l-189 -420h-117l-67 574h132l28 -419l188 419h100l36 -420l174 420h141l-269 -574h-119z" />
    <glyph glyph-name="Vsuperior" horiz-adv-x="447" 
d="M199 805l53 -322l163 322h112l-239 -420h-100l-91 420h102z" />
    <glyph glyph-name="Vinferior" horiz-adv-x="447" 
d="M105 270l53 -321l163 321h112l-239 -420h-100l-91 420h102z" />
    <glyph glyph-name="nine.dnom" horiz-adv-x="418" 
d="M81 66c77 0 151 39 183 114c-19 -14 -51 -31 -101 -31c-86 0 -136 54 -136 124c0 80 62 154 174 154c114 0 171 -77 171 -161c0 -151 -121 -273 -287 -273c-50 0 -78 11 -78 11l31 66s18 -4 43 -4zM189 216c44 0 80 27 93 45v10c0 44 -26 82 -78 82
c-58 0 -87 -38 -87 -78c0 -31 21 -59 72 -59z" />
    <glyph glyph-name="nine.numr" horiz-adv-x="418" 
d="M131 346c77 0 151 39 183 114c-19 -14 -51 -31 -101 -31c-86 0 -136 54 -136 124c0 80 62 154 174 154c114 0 171 -77 171 -161c0 -151 -121 -273 -287 -273c-50 0 -78 11 -78 11l31 66s18 -4 43 -4zM239 496c44 0 80 27 93 45v10c0 44 -26 82 -78 82
c-58 0 -87 -38 -87 -78c0 -31 21 -59 72 -59z" />
    <glyph glyph-name="nine.onum" horiz-adv-x="624" 
d="M121 -38c130 0 250 78 301 214c-30 -25 -85 -58 -168 -58c-135 0 -212 91 -212 202c0 133 98 259 275 259c175 0 261 -125 261 -258c0 -256 -193 -464 -453 -464c-74 0 -118 17 -118 17l47 95s28 -7 67 -7zM291 215c73 0 134 49 157 82c0 10 1 20 1 31
c0 75 -42 145 -128 145c-98 0 -150 -75 -150 -148c0 -56 36 -110 120 -110z" />
    <glyph glyph-name="nine.tnum" horiz-adv-x="660" 
d="M160 94c130 0 250 78 301 214c-30 -25 -85 -58 -168 -58c-135 0 -212 91 -212 202c0 133 98 259 275 259c175 0 261 -125 261 -258c0 -256 -193 -464 -453 -464c-74 0 -118 17 -118 17l47 95s28 -7 67 -7zM330 347c73 0 134 49 157 82c0 10 1 20 1 31
c0 75 -42 145 -128 145c-98 0 -150 -75 -150 -148c0 -56 36 -110 120 -110z" />
    <glyph glyph-name="V.sc" horiz-adv-x="623" 
d="M196 574l77 -449l232 449h147l-329 -574h-132l-127 574h132z" />
    <glyph glyph-name="Utilde.sc" horiz-adv-x="628" 
d="M258 625l-54 35c35 51 62 88 114 88c53 0 90 -48 124 -48c13 0 28 6 59 47l54 -35c-35 -51 -62 -89 -114 -89c-53 0 -89 48 -123 48c-13 0 -29 -5 -60 -46zM608 574l-63 -359c-22 -123 -85 -224 -274 -224c-208 0 -240 111 -215 253l58 330h119l-63 -353
c-13 -72 -2 -128 101 -128c104 0 142 56 155 128l63 353h119z" />
    <glyph glyph-name="ninferior" horiz-adv-x="400" 
d="M112 165l-7 -36c30 19 77 43 126 43c73 0 99 -45 87 -110l-37 -212h-87l36 202c6 30 0 52 -34 52c-35 0 -80 -23 -102 -42l-38 -212h-88l56 315h88z" />
    <glyph glyph-name="Usuperior" horiz-adv-x="468" 
d="M502 805l-46 -262c-16 -91 -62 -165 -199 -165c-153 0 -177 83 -159 188l42 239h91l-45 -258c-10 -52 -2 -92 71 -92s99 40 108 92l46 258h91z" />
    <glyph glyph-name="Uring.sc" horiz-adv-x="628" 
d="M273 717c0 61 48 110 109 110c60 0 109 -49 109 -110c0 -60 -49 -109 -109 -109c-61 0 -109 49 -109 109zM335 717c0 -26 20 -47 47 -47c26 0 47 21 47 47c0 27 -21 48 -47 48c-27 0 -47 -21 -47 -48zM608 574l-63 -359c-22 -123 -85 -224 -274 -224
c-208 0 -240 111 -215 253l58 330h119l-63 -353c-13 -72 -2 -128 101 -128c104 0 142 56 155 128l63 353h119z" />
    <glyph glyph-name="Uogonek.sc" 
d="M609 574l-63 -359c-19 -102 -65 -189 -188 -215c-67 -34 -112 -66 -112 -102c0 -32 46 -28 72 -28l-23 -60c-33 0 -135 -5 -135 76c0 44 38 77 95 105c-193 6 -223 115 -198 253l58 330h119l-63 -353c-13 -72 -2 -128 101 -128c104 0 142 56 155 128l63 353h119z" />
    <glyph glyph-name="Umacron.sc" horiz-adv-x="628" 
d="M221 643l14 75h299l-13 -75h-300zM608 574l-63 -359c-22 -123 -85 -224 -274 -224c-208 0 -240 111 -215 253l58 330h119l-63 -353c-13 -72 -2 -128 101 -128c104 0 142 56 155 128l63 353h119z" />
    <glyph glyph-name="numbersign.onum" horiz-adv-x="656" 
d="M296 0l44 131h-134l-44 -131h-90l44 131h-102l14 86h117l46 139h-101l13 87h118l44 131h91l-44 -131h133l44 131h90l-44 -131h102l-13 -87h-119l-47 -139h104l-14 -86h-119l-44 -131h-89zM282 356l-47 -139h134l46 139h-133z" />
    <glyph glyph-name="numbersigninferior" horiz-adv-x="474" 
d="M168 -150l31 94h-93l-32 -94h-69l32 94h-72l11 66h83l34 99h-72l10 66h84l32 95h69l-32 -95h92l32 95h69l-32 -95h74l-11 -66h-85l-33 -99h74l-11 -66h-85l-31 -94h-69zM162 109l-34 -99h93l33 99h-92z" />
    <glyph glyph-name="numbersignsuperior" horiz-adv-x="474" 
d="M266 385l31 94h-93l-32 -94h-69l32 94h-72l11 66h83l34 99h-72l10 66h84l32 95h69l-32 -95h92l32 95h69l-32 -95h74l-11 -66h-85l-33 -99h74l-11 -66h-85l-31 -94h-69zM260 644l-34 -99h93l33 99h-92z" />
    <glyph glyph-name="Uinferior" horiz-adv-x="469" 
d="M409 270l-46 -262c-16 -91 -62 -165 -199 -165c-153 0 -177 83 -159 188l42 239h92l-47 -258c-9 -52 -1 -92 72 -92s98 40 108 92l46 258h91z" />
    <glyph glyph-name="Uhungarumlaut.sc" horiz-adv-x="628" 
d="M472 618h-76l99 135h124zM305 618h-76l100 135h123zM608 574l-63 -359c-22 -123 -85 -224 -274 -224c-208 0 -240 111 -215 253l58 330h119l-63 -353c-13 -72 -2 -128 101 -128c104 0 142 56 155 128l63 353h119z" />
    <glyph glyph-name="Ugrave.sc" horiz-adv-x="628" 
d="M459 618h-95l-147 135h140zM608 574l-63 -359c-22 -123 -85 -224 -274 -224c-208 0 -240 111 -215 253l58 330h119l-63 -353c-13 -72 -2 -128 101 -128c104 0 142 56 155 128l63 353h119z" />
    <glyph glyph-name="Udieresis.sc" horiz-adv-x="628" 
d="M225 628l19 112h109l-20 -112h-108zM406 628l19 112h108l-19 -112h-108zM608 574l-63 -359c-22 -123 -85 -224 -274 -224c-208 0 -240 111 -215 253l58 330h119l-63 -353c-13 -72 -2 -128 101 -128c104 0 142 56 155 128l63 353h119z" />
    <glyph glyph-name="Ucircumflex.sc" horiz-adv-x="628" 
d="M454 753l78 -135h-79l-66 78l-93 -78h-92l127 135h125zM608 574l-63 -359c-22 -123 -85 -224 -274 -224c-208 0 -240 111 -215 253l58 330h119l-63 -353c-13 -72 -2 -128 101 -128c104 0 142 56 155 128l63 353h119z" />
    <glyph glyph-name="Ubreve.sc" horiz-adv-x="628" 
d="M370 618c-98 0 -148 49 -137 118h79c-4 -32 16 -47 59 -47c49 0 87 15 93 47h80c-13 -73 -75 -118 -174 -118zM608 574l-63 -359c-22 -123 -85 -224 -274 -224c-208 0 -240 111 -215 253l58 330h119l-63 -353c-13 -72 -2 -128 101 -128c104 0 142 56 155 128l63 353h119z
" />
    <glyph glyph-name="Uacute.sc" horiz-adv-x="628" 
d="M381 618h-109l143 135h155zM608 574l-63 -359c-22 -123 -85 -224 -274 -224c-208 0 -240 111 -215 253l58 330h119l-63 -353c-13 -72 -2 -128 101 -128c104 0 142 56 155 128l63 353h119z" />
    <glyph glyph-name="U.sc" 
d="M609 574l-63 -359c-22 -123 -85 -224 -274 -224c-208 0 -240 111 -215 253l58 330h119l-63 -353c-13 -72 -2 -128 101 -128c104 0 142 56 155 128l63 353h119z" />
    <glyph glyph-name="Tsuperior" horiz-adv-x="385" 
d="M442 729h-128l-60 -344h-92l61 344h-130l14 76h348z" />
    <glyph glyph-name="oinferior" horiz-adv-x="398" 
d="M158 172c103 0 166 -54 166 -144c0 -100 -64 -185 -180 -185c-103 0 -166 53 -166 144c0 100 64 185 180 185zM142 -90c61 0 92 65 92 118c0 43 -18 76 -74 76c-61 0 -92 -64 -92 -118c0 -43 18 -76 74 -76z" />
    <glyph glyph-name="Tinferior" horiz-adv-x="386" 
d="M348 194h-128l-60 -344h-92l61 344h-130l14 76h348z" />
    <glyph glyph-name="Thorn.sc" horiz-adv-x="596" 
d="M561 315c0 -101 -80 -203 -247 -203h-154l-19 -112h-119l101 574h119l-17 -93h105c147 0 231 -54 231 -166zM438 313c0 52 -48 69 -109 69h-120l-32 -172h118c85 0 143 37 143 103z" />
    <glyph glyph-name="one.dnom" horiz-adv-x="270" 
d="M159 0h-92l61 330l-80 -37l-29 63l129 64h85z" />
    <glyph glyph-name="one.numr" horiz-adv-x="271" 
d="M208 280h-91l61 330l-80 -37l-30 63l129 64h85z" />
    <glyph glyph-name="one.onum" horiz-adv-x="391" 
d="M260 0h-128l80 444l-130 -63l-40 91l199 102h120z" />
    <glyph glyph-name="one.tnum" horiz-adv-x="660" 
d="M23 0l18 107h204l83 463l-162 -78l-40 91l231 117h121l-104 -593h203l-18 -107h-536z" />
    <glyph glyph-name="Tcedilla.sc" horiz-adv-x="518" 
d="M52 -160l36 64c20 -10 38 -12 50 -12c28 0 56 12 56 49c0 26 -13 54 -16 59h-31l84 473h-181l17 101h479l-18 -101h-178l-84 -473h-33c3 -4 26 -38 26 -79c0 -67 -51 -101 -119 -101c-28 0 -62 6 -88 20z" />
    <glyph glyph-name="oneeighth.onum" horiz-adv-x="765" 
d="M377 87c0 54 52 85 103 103c-28 17 -48 39 -48 71c0 51 53 89 137 89c81 0 127 -34 127 -81c0 -41 -38 -67 -79 -85c37 -18 70 -43 70 -87c0 -61 -67 -103 -166 -103c-89 0 -144 34 -144 93zM564 574l-387 -574h-80l387 574h80zM184 230h-75l50 272l-69 -31l-25 51
l110 52h69zM611 101c0 30 -34 47 -65 59c-45 -13 -94 -30 -94 -67c0 -29 28 -43 69 -43c48 0 90 19 90 51zM505 253c0 -23 22 -34 42 -42c37 10 75 22 75 48c0 23 -20 37 -52 37c-37 0 -65 -19 -65 -43z" />
    <glyph glyph-name="onefifth" horiz-adv-x="880" 
d="M501 209l61 211h272l-12 -75h-197l-19 -79c18 5 36 8 57 8c93 0 140 -59 140 -128c0 -79 -65 -153 -181 -153c-86 0 -144 40 -170 60l49 57c20 -14 58 -40 112 -40c47 0 97 24 97 74c0 35 -25 58 -70 58c-37 0 -68 -14 -89 -25zM669 700l-451 -700h-97l451 700h97z
M225 280h-91l61 330l-80 -37l-30 63l129 64h85z" />
    <glyph glyph-name="onefifth.onum" horiz-adv-x="765" 
d="M426 171l50 173h232l-9 -60h-171l-17 -67c16 4 32 7 52 7c80 0 121 -48 121 -105c0 -65 -55 -125 -155 -125c-73 0 -122 33 -146 49l40 46c17 -11 51 -32 98 -32c42 0 87 20 87 60c0 31 -22 49 -64 49c-32 0 -59 -11 -77 -21zM566 574l-387 -574h-80l387 574h80zM185 230
h-75l50 272l-69 -31l-25 51l110 52h69z" />
    <glyph glyph-name="Tcaron.sc" horiz-adv-x="519" 
d="M529 473h-179l-84 -473h-119l84 473h-181l17 101h479zM251 618l-79 135h80l66 -78l93 78h92l-127 -135h-125z" />
    <glyph glyph-name="onehalf.onum" horiz-adv-x="767" 
d="M674 61l-10 -61h-280l6 33c12 78 77 111 144 146c62 33 103 51 102 79c0 19 -18 31 -53 31c-39 0 -78 -17 -106 -32l-29 51c28 16 79 42 142 42c80 0 122 -40 122 -90c0 -68 -81 -105 -151 -139c-54 -26 -72 -37 -77 -60h190zM184 230h-75l50 272l-69 -31l-25 51l110 52
h69zM565 574l-386 -574h-82l387 574h81z" />
    <glyph glyph-name="Tbar.sc" horiz-adv-x="527" 
d="M98 175l11 68h85l41 230h-181l17 101h480l-17 -101h-180l-41 -230h85l-12 -68h-85l-30 -175h-119l30 175h-84z" />
    <glyph glyph-name="T.sc" horiz-adv-x="519" 
d="M530 473h-180l-83 -473h-119l83 473h-181l17 101h480z" />
    <glyph glyph-name="onequarter.onum" horiz-adv-x="745" 
d="M336 66l7 51l216 227h99l-39 -217h56l-8 -61h-59l-11 -66h-76l12 66h-197zM565 574l-386 -574h-82l387 574h81zM184 230h-75l50 272l-69 -31l-25 51l110 52h69zM430 127h114l28 154z" />
    <glyph glyph-name="onesixth" horiz-adv-x="862" 
d="M734 353c-77 0 -150 -38 -183 -113c19 14 52 31 101 31c86 0 137 -54 137 -124c0 -81 -62 -154 -175 -154c-114 0 -171 76 -171 161c0 151 121 273 287 273c50 0 78 -12 78 -12l-31 -66s-18 4 -43 4zM668 700l-451 -700h-97l451 700h97zM224 280h-92l61 330l-80 -37
l-29 63l129 64h85zM626 203c-44 0 -78 -25 -92 -43v-12c0 -44 25 -82 77 -82c58 0 87 38 87 78c0 31 -21 59 -72 59z" />
    <glyph glyph-name="onesixth.onum" horiz-adv-x="749" 
d="M624 291c-69 0 -132 -33 -160 -95c17 12 46 26 88 26c76 0 119 -45 119 -103c0 -65 -52 -125 -149 -125c-98 0 -147 63 -147 134c0 122 103 222 245 222c41 0 66 -9 66 -9l-25 -54s-16 4 -37 4zM565 574l-386 -574h-81l387 574h80zM184 230h-75l50 272l-69 -31l-25 51
l110 52h69zM532 167c-39 0 -70 -21 -83 -35v-9c0 -36 23 -69 70 -69c51 0 78 31 78 64c0 26 -19 49 -65 49z" />
    <glyph glyph-name="Ssuperior" horiz-adv-x="421" 
d="M322 627c52 -22 104 -51 104 -118c0 -75 -68 -131 -170 -131c-80 0 -156 34 -201 63l48 61c38 -22 99 -49 151 -49c41 0 76 18 76 48c0 36 -63 44 -122 68c-51 21 -99 51 -99 115c0 72 61 128 164 128c71 0 138 -28 185 -54l-47 -60c-36 18 -94 39 -135 39
c-37 0 -70 -16 -70 -47c0 -33 51 -36 116 -63z" />
    <glyph glyph-name="Sinferior" horiz-adv-x="421" 
d="M227 92c52 -22 104 -51 104 -118c0 -75 -68 -131 -170 -131c-80 0 -156 34 -201 63l48 61c38 -22 99 -49 151 -49c41 0 76 18 76 48c0 36 -63 44 -122 68c-51 21 -99 51 -99 115c0 72 61 128 164 128c72 0 138 -28 185 -54l-47 -60c-36 18 -94 39 -135 39
c-37 0 -70 -16 -70 -47c0 -33 51 -36 116 -63z" />
    <glyph glyph-name="onethird.onum" horiz-adv-x="759" 
d="M374 43l37 46c32 -18 67 -34 112 -34c51 0 82 21 82 49c0 38 -49 49 -101 49h-16l9 61h19c49 0 101 15 101 45c0 19 -18 30 -49 30c-39 0 -81 -19 -103 -29l-25 50c16 10 70 40 140 40c76 0 113 -36 113 -78c0 -36 -28 -67 -82 -86c40 -10 70 -43 70 -84
c0 -50 -43 -108 -150 -108c-81 0 -135 36 -157 49zM184 230h-75l50 272l-69 -31l-25 51l110 52h69zM565 574l-387 -574h-80l387 574h80z" />
    <glyph glyph-name="Scommaaccent.sc" horiz-adv-x="561" 
d="M149 -171l20 112h98l-11 -122l-104 -107l-22 32l64 85h-45zM353 330c72 -29 148 -67 148 -160c0 -104 -96 -179 -236 -179c-110 0 -210 46 -272 85l63 81c55 -30 135 -68 207 -68c59 0 111 25 111 69c0 51 -83 62 -168 97c-72 29 -138 66 -138 153c0 100 86 175 225 175
c98 0 188 -37 252 -72l-63 -80c-48 24 -124 53 -186 53c-52 0 -100 -22 -100 -66c0 -46 70 -53 157 -88z" />
    <glyph glyph-name="Scircumflex.sc" horiz-adv-x="561" 
d="M422 753l79 -135h-80l-66 78l-92 -78h-92l127 135h124zM353 330c71 -29 147 -67 147 -160c0 -104 -96 -179 -236 -179c-109 0 -210 46 -271 85l63 81c55 -30 135 -68 207 -68c59 0 110 25 110 69c0 51 -83 62 -168 97c-71 29 -138 66 -138 153c0 100 87 175 226 175
c98 0 187 -37 251 -72l-62 -80c-48 24 -124 53 -186 53c-53 0 -101 -22 -101 -66c0 -46 70 -53 158 -88z" />
    <glyph glyph-name="Scedilla.sc" horiz-adv-x="562" 
d="M354 330c72 -29 148 -67 148 -160c0 -100 -88 -172 -219 -178c8 -13 21 -40 21 -72c0 -67 -51 -101 -118 -101c-28 0 -63 6 -89 20l37 64c19 -10 38 -12 49 -12c27 0 56 12 56 49c0 20 -8 42 -13 53c-94 9 -178 49 -232 83l63 81c55 -30 135 -68 207 -68
c59 0 111 25 111 69c0 51 -83 62 -168 97c-72 29 -138 66 -138 153c0 100 86 175 225 175c98 0 188 -37 252 -72l-63 -80c-48 24 -124 53 -186 53c-52 0 -100 -22 -100 -66c0 -46 70 -53 157 -88z" />
    <glyph glyph-name="Scaron.sc" horiz-adv-x="561" 
d="M273 618l-79 135h80l66 -78l93 78h91l-126 -135h-125zM353 330c71 -29 147 -67 147 -160c0 -104 -96 -179 -236 -179c-109 0 -210 46 -271 85l63 81c55 -30 135 -68 207 -68c59 0 110 25 110 69c0 51 -83 62 -168 97c-71 29 -138 66 -138 153c0 100 87 175 226 175
c98 0 187 -37 251 -72l-62 -80c-48 24 -124 53 -186 53c-53 0 -101 -22 -101 -66c0 -46 70 -53 158 -88z" />
    <glyph glyph-name="Sacute.sc" horiz-adv-x="561" 
d="M349 618h-108l142 135h156zM353 330c71 -29 147 -67 147 -160c0 -104 -96 -179 -236 -179c-109 0 -210 46 -271 85l63 81c55 -30 135 -68 207 -68c59 0 110 25 110 69c0 51 -83 62 -168 97c-71 29 -138 66 -138 153c0 100 87 175 226 175c98 0 187 -37 251 -72l-62 -80
c-48 24 -124 53 -186 53c-53 0 -101 -22 -101 -66c0 -46 70 -53 158 -88z" />
    <glyph glyph-name="S.sc" horiz-adv-x="561" 
d="M353 330c72 -29 148 -67 148 -160c0 -104 -96 -179 -236 -179c-110 0 -210 46 -272 85l63 81c55 -30 135 -68 207 -68c59 0 111 25 111 69c0 51 -83 62 -168 97c-72 29 -138 66 -138 153c0 100 86 175 225 175c98 0 188 -37 252 -72l-63 -80c-48 24 -124 53 -186 53
c-52 0 -100 -22 -100 -66c0 -46 70 -53 157 -88z" />
    <glyph glyph-name="Rsuperior" horiz-adv-x="461" 
d="M347 385l-77 163h-78l-28 -163h-91l74 420h182c107 0 165 -41 165 -118c0 -68 -49 -125 -136 -137l82 -165h-93zM401 687c0 37 -32 47 -78 47h-98l-20 -116h97c61 0 99 25 99 69z" />
    <glyph glyph-name="Rinferior" horiz-adv-x="461" 
d="M253 -150l-77 163h-78l-28 -163h-91l74 420h182c107 0 165 -41 165 -118c0 -68 -49 -125 -136 -137l82 -165h-93zM307 152c0 37 -32 47 -78 47h-98l-20 -116h97c61 0 99 25 99 69z" />
    <glyph glyph-name="paragraph.sc" horiz-adv-x="616" 
d="M304 574h105l-128 -726h-98l61 336c-114 0 -200 51 -200 165c0 151 119 225 260 225zM358 -153l128 727h98l-128 -727h-98z" />
    <glyph glyph-name="Rcommaaccent.sc" horiz-adv-x="619" 
d="M401 0l-108 224h-112l-40 -224h-119l101 574h249c145 0 226 -51 226 -157c0 -86 -65 -172 -190 -190l115 -227h-122zM475 414c0 52 -50 66 -112 66h-137l-30 -162h138c86 0 141 34 141 96zM174 -171l19 112h99l-12 -122l-102 -107l-23 32l64 85h-45z" />
    <glyph glyph-name="parenleft.sc" horiz-adv-x="312" 
d="M29 73l77 425c22 115 34 153 213 190l22 -69c-91 -28 -101 -43 -110 -96l-86 -476c-11 -59 -9 -75 64 -101l-31 -63c-164 38 -166 85 -149 190z" />
    <glyph glyph-name="Rcaron.sc" horiz-adv-x="619" 
d="M402 0l-108 224h-113l-40 -224h-119l101 574h249c145 0 226 -51 226 -157c0 -86 -65 -172 -190 -190l116 -227h-122zM475 414c0 52 -49 66 -111 66h-137l-30 -162h137c87 0 141 34 141 96zM318 618l-79 135h81l65 -78l93 78h91l-125 -135h-126z" />
    <glyph glyph-name="Racute.sc" horiz-adv-x="619" 
d="M402 0l-108 224h-113l-40 -224h-119l101 574h249c145 0 226 -51 226 -157c0 -86 -65 -172 -190 -190l116 -227h-122zM475 414c0 52 -49 66 -111 66h-137l-30 -162h137c87 0 141 34 141 96zM394 618h-109l143 135h156z" />
    <glyph glyph-name="R.sc" horiz-adv-x="619" 
d="M401 0l-108 224h-112l-40 -224h-119l101 574h249c145 0 226 -51 226 -157c0 -86 -65 -172 -190 -190l115 -227h-122zM475 414c0 52 -50 66 -112 66h-137l-30 -162h138c86 0 141 34 141 96z" />
    <glyph glyph-name="parenright.sc" horiz-adv-x="310" 
d="M276 498l-77 -425c-21 -116 -32 -153 -212 -190l-22 69c91 27 101 42 111 95l85 476c11 59 9 75 -63 101l30 64c164 -38 167 -86 148 -190z" />
    <glyph glyph-name="f_b.ss01" horiz-adv-x="988" 
d="M51 433l16 92h70l8 42c21 115 74 162 165 162c66 0 142 -19 200 -36l7 36h124l-47 -265c41 32 107 72 183 72c83 0 167 -49 167 -192c0 -208 -98 -355 -244 -355c-84 0 -140 43 -177 75l-11 -64h-124l106 600c-35 7 -115 22 -159 22c-39 0 -60 -21 -66 -53l-8 -44h133
l-16 -92h-133l-70 -396c-29 -160 -37 -211 -245 -258l-27 95c123 37 127 54 146 155l72 404h-70zM730 436c-58 0 -108 -37 -154 -75l-36 -202c34 -37 81 -70 132 -70c93 0 146 119 146 241c0 66 -29 106 -88 106z" />
    <glyph glyph-name="Qinferior" horiz-adv-x="499" 
d="M218 277c136 0 202 -72 203 -185c1 -72 -34 -195 -146 -235l59 -53l-64 -56l-89 95c-127 5 -188 75 -189 184c-1 87 49 250 226 250zM190 -80c101 0 138 106 138 170c0 61 -24 109 -106 109c-101 0 -137 -106 -137 -170c0 -61 23 -109 105 -109z" />
    <glyph glyph-name="Q.sc" horiz-adv-x="671" 
d="M349 583c188 0 278 -99 278 -252c1 -101 -49 -270 -203 -324l80 -72l-84 -74l-120 129c-176 6 -260 103 -261 252c0 121 71 341 310 341zM312 91c140 0 193 148 193 237c0 84 -33 153 -151 153c-140 0 -192 -147 -192 -236c0 -84 33 -154 150 -154z" />
    <glyph glyph-name="Psuperior" horiz-adv-x="439" 
d="M480 684c0 -82 -63 -150 -178 -150h-112l-26 -149h-91l74 420h166c107 0 167 -41 167 -121zM386 680c0 39 -32 50 -77 50h-84l-22 -123h82c58 0 101 24 101 73z" />
    <glyph glyph-name="percent.onum" horiz-adv-x="884" 
d="M236 583c98 0 159 -51 159 -130c0 -97 -64 -177 -178 -177c-98 0 -160 50 -160 130c0 96 66 177 179 177zM220 344c57 0 87 56 87 102c0 38 -17 68 -73 68c-58 0 -89 -57 -89 -101c0 -40 18 -69 75 -69zM661 298c99 0 160 -51 160 -130c0 -96 -65 -177 -178 -177
c-99 0 -160 51 -160 130c0 96 66 177 178 177zM645 59c57 0 88 57 88 102c0 39 -17 69 -73 69c-58 0 -89 -57 -89 -102c0 -39 17 -69 74 -69zM692 574l-415 -574h-91l414 574h92z" />
    <glyph glyph-name="percentinferior" horiz-adv-x="620" 
d="M134 277c71 0 115 -38 115 -95c0 -70 -48 -130 -131 -130c-71 0 -116 37 -116 94c0 70 49 131 132 131zM120 103c41 0 63 42 63 73c0 28 -13 49 -51 49c-41 0 -64 -41 -64 -74c0 -27 13 -48 52 -48zM441 68c71 0 115 -37 115 -94c0 -70 -47 -131 -131 -131
c-71 0 -115 37 -115 94c0 71 48 131 131 131zM427 -105c41 0 63 41 63 73c0 27 -12 48 -51 48c-41 0 -63 -41 -63 -73c0 -27 12 -48 51 -48zM464 270l-305 -427h-70l306 427h69z" />
    <glyph glyph-name="percentsuperior" horiz-adv-x="623" 
d="M211 812c71 0 115 -38 115 -95c0 -70 -48 -130 -131 -130c-71 0 -116 37 -116 94c0 70 49 131 132 131zM197 638c41 0 63 42 63 73c0 28 -13 49 -51 49c-41 0 -64 -41 -64 -74c0 -27 13 -48 52 -48zM518 603c71 0 115 -37 115 -94c0 -70 -47 -131 -131 -131
c-71 0 -115 37 -115 94c0 71 48 131 131 131zM504 430c41 0 63 41 63 73c0 27 -12 48 -51 48c-41 0 -63 -41 -63 -73c0 -27 12 -48 51 -48zM541 805l-305 -427h-70l306 427h69z" />
    <glyph glyph-name="Pinferior" horiz-adv-x="439" 
d="M386 149c0 -82 -63 -150 -178 -150h-112l-26 -149h-91l74 420h166c107 0 167 -41 167 -121zM292 145c0 39 -32 50 -77 50h-84l-22 -123h82c58 0 101 24 101 73z" />
    <glyph glyph-name="P.sc" horiz-adv-x="588" 
d="M577 408c0 -101 -80 -203 -247 -203h-152l-37 -205h-119l101 574h222c148 0 232 -54 232 -166zM454 406c0 52 -47 69 -109 69h-120l-31 -172h117c85 0 143 37 143 103z" />
    <glyph glyph-name="Otilde.sc" horiz-adv-x="671" 
d="M349 583c188 0 278 -99 278 -252c1 -121 -71 -341 -310 -341c-188 0 -277 99 -278 252c0 121 71 341 310 341zM312 91c140 0 193 148 193 237c0 84 -33 153 -151 153c-140 0 -192 -147 -192 -236c0 -84 33 -154 150 -154zM282 625l-54 35c35 51 62 88 114 88
c53 0 90 -48 124 -48c13 0 28 6 59 47l54 -35c-35 -51 -62 -89 -114 -89c-53 0 -89 48 -123 48c-13 0 -29 -5 -60 -46z" />
    <glyph glyph-name="Osuperior" horiz-adv-x="498" 
d="M312 812c136 0 202 -72 203 -185c1 -87 -50 -249 -227 -249c-136 0 -201 71 -202 184c-1 87 49 250 226 250zM284 455c101 0 138 106 138 170c0 61 -24 109 -106 109c-101 0 -137 -106 -137 -170c0 -61 23 -109 105 -109z" />
    <glyph glyph-name="Oslashacute.sc" horiz-adv-x="671" 
d="M654 574l-79 -80c34 -42 51 -98 51 -163c1 -121 -71 -341 -310 -341c-81 0 -143 18 -188 50l-40 -40h-85l82 83c-31 41 -47 96 -47 159c0 121 71 341 310 341c77 0 138 -17 183 -48l38 39h85zM311 91c140 0 193 148 193 237c0 29 -4 56 -14 79l-283 -286
c23 -19 57 -30 104 -30zM161 245c0 -27 3 -52 11 -74l280 284c-23 16 -55 26 -99 26c-140 0 -192 -147 -192 -236zM399 618h-109l144 135h156z" />
    <glyph glyph-name="perthousand.onum" horiz-adv-x="1259" 
d="M236 583c98 0 159 -51 159 -130c0 -97 -64 -177 -178 -177c-98 0 -160 50 -160 130c0 96 66 177 179 177zM220 344c57 0 87 56 87 102c0 38 -17 68 -73 68c-58 0 -89 -57 -89 -101c0 -40 18 -69 75 -69zM661 298c99 0 160 -51 160 -130c0 -96 -65 -177 -178 -177
c-99 0 -160 51 -160 130c0 96 66 177 178 177zM645 59c57 0 88 57 88 102c0 39 -17 69 -73 69c-58 0 -89 -57 -89 -102c0 -39 17 -69 74 -69zM692 574l-415 -574h-91l414 574h92zM1039 298c98 0 158 -51 158 -130c0 -96 -64 -177 -178 -177c-98 0 -160 51 -160 130
c0 96 67 177 180 177zM1022 59c57 0 88 57 88 102c0 39 -18 69 -73 69c-58 0 -89 -57 -89 -102c0 -39 17 -69 74 -69z" />
    <glyph glyph-name="Omacron.sc" horiz-adv-x="671" 
d="M349 583c188 0 278 -99 278 -252c1 -121 -71 -341 -310 -341c-188 0 -277 99 -278 252c0 121 71 341 310 341zM312 91c140 0 193 148 193 237c0 84 -33 153 -151 153c-140 0 -192 -147 -192 -236c0 -84 33 -154 150 -154zM245 643l13 75h300l-13 -75h-300z" />
    <glyph glyph-name="peseta.onum" horiz-adv-x="623" 
d="M73 370l6 37h24l30 167h222c148 0 232 -54 232 -166v-1h21l-6 -37h-19c-18 -87 -97 -165 -243 -165h-153l-36 -205h-119l65 370h-24zM235 475l-13 -68h243c-1 52 -49 68 -110 68h-120zM321 302c69 0 120 24 137 68h-242l-12 -68h117z" />
    <glyph glyph-name="pesetainferior" horiz-adv-x="451" 
d="M10 118l6 31h16l22 121h167c106 0 166 -41 166 -121h14l-4 -31h-13c-14 -68 -75 -119 -175 -119h-111l-27 -149h-91l47 268h-17zM132 195l-8 -46h169c-2 35 -34 46 -77 46h-84zM193 72c45 0 82 15 95 46h-169l-8 -46h82z" />
    <glyph glyph-name="pesetasuperior" horiz-adv-x="442" 
d="M102 653l6 31h16l22 121h167c106 0 166 -41 166 -121h14l-4 -31h-13c-14 -68 -75 -119 -175 -119h-111l-27 -149h-91l47 268h-17zM224 730l-8 -46h169c-2 35 -34 46 -77 46h-84zM285 607c45 0 82 15 95 46h-169l-8 -46h82z" />
    <glyph glyph-name="Oinferior" horiz-adv-x="498" 
d="M218 277c136 0 202 -72 203 -185c1 -87 -50 -249 -227 -249c-136 0 -201 71 -202 184c-1 87 49 250 226 250zM190 -80c101 0 138 106 138 170c0 61 -24 109 -106 109c-101 0 -137 -106 -137 -170c0 -61 23 -109 105 -109z" />
    <glyph glyph-name="pinferior" horiz-adv-x="403" 
d="M-53 -272l77 437h88l-6 -35c26 18 65 42 114 42c52 0 107 -31 107 -121c0 -122 -62 -208 -154 -208c-53 0 -86 25 -110 43l-28 -158h-88zM185 102c-36 0 -65 -22 -92 -42l-19 -109c20 -20 47 -38 78 -38c54 0 85 64 85 130c0 39 -18 59 -52 59z" />
    <glyph glyph-name="Ohungarumlaut.sc" horiz-adv-x="671" 
d="M349 583c188 0 278 -99 278 -252c1 -121 -71 -341 -310 -341c-188 0 -277 99 -278 252c0 121 71 341 310 341zM312 91c140 0 193 148 193 237c0 84 -33 153 -151 153c-140 0 -192 -147 -192 -236c0 -84 33 -154 150 -154zM496 618h-76l99 135h124zM330 618h-76l99 135
h124z" />
    <glyph glyph-name="plusinferior" horiz-adv-x="381" 
d="M139 191h68l-19 -108h125l-10 -66h-127l-19 -109h-68l19 109h-126l11 66h127z" />
    <glyph glyph-name="Ograve.sc" horiz-adv-x="671" 
d="M349 583c188 0 278 -99 278 -252c1 -121 -71 -341 -310 -341c-188 0 -277 99 -278 252c0 121 71 341 310 341zM312 91c140 0 193 148 193 237c0 84 -33 153 -151 153c-140 0 -192 -147 -192 -236c0 -84 33 -154 150 -154zM484 618h-96l-146 135h140z" />
    <glyph glyph-name="Odieresis.sc" horiz-adv-x="671" 
d="M349 583c188 0 278 -99 278 -252c1 -121 -71 -341 -310 -341c-188 0 -277 99 -278 252c0 121 71 341 310 341zM312 91c140 0 193 148 193 237c0 84 -33 153 -151 153c-140 0 -192 -147 -192 -236c0 -84 33 -154 150 -154zM250 628l20 112h108l-20 -112h-108zM428 629
l20 111h107l-20 -111h-107z" />
    <glyph glyph-name="Ocircumflex.sc" horiz-adv-x="671" 
d="M349 583c188 0 278 -99 278 -252c1 -121 -71 -341 -310 -341c-188 0 -277 99 -278 252c0 121 71 341 310 341zM312 91c140 0 193 148 193 237c0 84 -33 153 -151 153c-140 0 -192 -147 -192 -236c0 -84 33 -154 150 -154zM478 753l79 -135h-81l-65 78l-92 -78h-92
l126 135h125z" />
    <glyph glyph-name="psuperior" horiz-adv-x="418" 
d="M51 263l77 437h88l-6 -35c26 18 65 42 114 42c52 0 107 -31 107 -121c0 -122 -62 -208 -154 -208c-53 0 -86 24 -110 42l-28 -157h-88zM289 637c-36 0 -65 -22 -92 -42l-19 -109c20 -21 47 -38 78 -38c54 0 85 64 85 130c0 39 -18 59 -52 59z" />
    <glyph glyph-name="Obreve.sc" horiz-adv-x="671" 
d="M349 583c188 0 278 -99 278 -252c1 -121 -71 -341 -310 -341c-188 0 -277 99 -278 252c0 121 71 341 310 341zM312 91c140 0 193 148 193 237c0 84 -33 153 -151 153c-140 0 -192 -147 -192 -236c0 -84 33 -154 150 -154zM394 618c-98 0 -148 49 -137 118h79
c-4 -32 16 -47 59 -47c49 0 87 15 92 47h81c-12 -73 -75 -118 -174 -118z" />
    <glyph glyph-name="qinferior" horiz-adv-x="407" 
d="M258 -272h-88l28 159c-28 -20 -69 -44 -119 -44c-51 0 -102 31 -102 120c0 122 64 209 156 209c51 0 85 -26 107 -44l7 37h88zM113 -87c38 0 69 22 97 45l19 105c-19 21 -46 39 -74 39c-56 0 -88 -64 -88 -132c0 -37 16 -57 46 -57z" />
    <glyph glyph-name="qsuperior" horiz-adv-x="418" 
d="M354 263h-88l28 159c-28 -21 -69 -44 -119 -44c-51 0 -102 31 -102 120c0 122 64 209 156 209c51 0 85 -26 107 -44l7 37h88zM209 448c38 0 69 22 97 45l19 105c-19 21 -46 39 -74 39c-56 0 -88 -64 -88 -132c0 -37 16 -57 46 -57z" />
    <glyph glyph-name="Oacute.sc" horiz-adv-x="671" 
d="M349 583c188 0 278 -99 278 -252c1 -121 -71 -341 -310 -341c-188 0 -277 99 -278 252c0 121 71 341 310 341zM312 91c140 0 193 148 193 237c0 84 -33 153 -151 153c-140 0 -192 -147 -192 -236c0 -84 33 -154 150 -154zM404 618h-109l144 135h155z" />
    <glyph glyph-name="question.sc" horiz-adv-x="470" 
d="M74 0l22 123h120l-21 -123h-121zM454 443c0 -110 -110 -162 -227 -183l-22 -76h-74l17 140c114 20 187 49 187 104c0 35 -31 56 -82 56s-100 -22 -146 -45l-41 86c40 21 116 58 208 58c105 0 180 -53 180 -140z" />
    <glyph glyph-name="OE.sc" horiz-adv-x="974" 
d="M875 0h-421l4 22c-39 -20 -86 -32 -141 -32c-188 0 -277 99 -278 252c0 121 71 341 310 341c88 0 154 -22 200 -61l10 52h416l-16 -101h-299l-26 -137h244l-17 -98h-244l-26 -137h300zM312 91c140 0 193 148 193 237c0 84 -33 153 -151 153c-140 0 -192 -147 -192 -236
c0 -84 33 -154 150 -154z" />
    <glyph glyph-name="questiondown.sc" horiz-adv-x="472" 
d="M388 574l-21 -123h-120l22 123h119zM11 131c0 109 110 161 228 183l21 75h74l-18 -140c-113 -19 -186 -49 -186 -103c0 -35 31 -56 81 -56c51 0 101 21 147 44l41 -85c-39 -22 -117 -58 -207 -58c-105 0 -181 52 -181 140z" />
    <glyph glyph-name="questiondowninferior" horiz-adv-x="313" 
d="M234 270l-15 -91h-91l15 91h91zM-45 -54c0 80 80 119 167 134l15 54h55l-12 -102c-83 -14 -136 -28 -136 -72c0 -33 28 -42 59 -42c37 0 71 15 105 32l31 -64c-29 -16 -84 -43 -152 -43c-78 0 -132 39 -132 103z" />
    <glyph glyph-name="questiondownsuperior" horiz-adv-x="338" 
d="M337 805l-15 -91h-91l15 91h91zM58 481c0 80 80 119 167 134l15 54h55l-12 -102c-83 -14 -136 -28 -136 -72c0 -33 29 -42 59 -42c37 0 71 15 105 32l31 -64c-29 -16 -84 -43 -152 -43c-78 0 -132 39 -132 103z" />
    <glyph glyph-name="questioninferior" horiz-adv-x="340" 
d="M11 -150l15 91h91l-15 -91h-91zM290 173c0 -79 -81 -119 -167 -134l-15 -54h-56l12 103c83 14 136 27 136 72c0 32 -29 42 -59 42c-36 0 -72 -16 -105 -33l-31 65c28 15 85 43 152 43c78 0 133 -40 133 -104z" />
    <glyph glyph-name="questionsuperior" horiz-adv-x="318" 
d="M90 385l15 91h91l-15 -91h-91zM369 708c0 -79 -81 -119 -167 -134l-15 -54h-56l12 103c83 14 136 27 136 72c0 32 -28 42 -59 42c-36 0 -72 -16 -105 -33l-31 65c28 15 85 43 152 43c78 0 133 -40 133 -104z" />
    <glyph glyph-name="O.sc" horiz-adv-x="671" 
d="M349 583c188 0 278 -99 278 -252c1 -121 -71 -341 -310 -341c-188 0 -277 99 -278 252c0 121 71 341 310 341zM312 91c140 0 193 148 193 237c0 84 -33 153 -151 153c-140 0 -192 -147 -192 -236c0 -84 33 -154 150 -154z" />
    <glyph glyph-name="Ntilde.sc" horiz-adv-x="654" 
d="M244 574l190 -417l74 417h120l-101 -574h-122l-191 418l-73 -418h-119l101 574h121zM280 625l-54 35c35 51 62 88 114 88c53 0 89 -48 123 -48c13 0 29 6 59 47l54 -35c-35 -51 -62 -89 -114 -89c-53 0 -89 48 -123 48c-13 0 -29 -5 -59 -46z" />
    <glyph glyph-name="Nsuperior" horiz-adv-x="485" 
d="M350 385l-134 297l-52 -297h-91l74 420h92l134 -298l52 298h90l-73 -420h-92z" />
    <glyph glyph-name="Ninferior" horiz-adv-x="485" 
d="M256 -150l-134 297l-52 -297h-91l74 420h92l134 -298l52 298h90l-73 -420h-92z" />
    <glyph glyph-name="Ncommaaccent.sc" horiz-adv-x="654" 
d="M405 0l-191 417l-73 -417h-119l101 574h121l190 -417l74 417h120l-101 -574h-122zM197 -171l19 112h100l-11 -122l-104 -107l-23 32l65 85h-46z" />
    <glyph glyph-name="Ncaron.sc" horiz-adv-x="654" 
d="M244 574l190 -417l74 417h120l-101 -574h-122l-191 418l-73 -418h-119l101 574h121zM326 618l-79 135h81l66 -78l91 78h93l-126 -135h-126z" />
    <glyph glyph-name="Nacute.sc" horiz-adv-x="654" 
d="M405 0l-191 418l-73 -418h-119l101 574h121l190 -417l74 417h120l-101 -574h-122zM422 618h-109l143 135h156z" />
    <glyph glyph-name="N.sc" horiz-adv-x="654" 
d="M405 0l-191 417l-73 -417h-119l101 574h121l190 -417l74 417h120l-101 -574h-122z" />
    <glyph glyph-name="Msuperior" horiz-adv-x="557" 
d="M421 385l48 273l-140 -203h-49l-66 214l-50 -284h-91l74 420h93l77 -253l175 253h94l-73 -420h-92z" />
    <glyph glyph-name="Minferior" horiz-adv-x="556" 
d="M327 -150l48 273l-140 -203h-49l-66 214l-50 -284h-91l74 420h93l77 -253l175 253h94l-73 -420h-92z" />
    <glyph glyph-name="M.sc" horiz-adv-x="751" 
d="M504 0l68 388l-201 -292h-62l-97 308l-71 -404h-119l101 574h122l111 -351l245 351h123l-101 -574h-119z" />
    <glyph glyph-name="Lsuperior" horiz-adv-x="371" 
d="M370 385h-297l74 420h91l-61 -345h205z" />
    <glyph glyph-name="Lslash.sc" horiz-adv-x="511" 
d="M324 323l-128 -63l-28 -161h287l-17 -99h-406l34 196l-64 -32l17 106l66 32l48 272h119l-37 -208l126 62z" />
    <glyph glyph-name="Linferior" horiz-adv-x="372" 
d="M277 -150h-298l74 420h91l-62 -345h206z" />
    <glyph glyph-name="rinferior" horiz-adv-x="290" 
d="M113 165l-12 -66c9 16 52 75 135 70l-12 -82c-108 0 -142 -108 -142 -108l-25 -129h-88l56 315h88z" />
    <glyph glyph-name="Ldot.sc" horiz-adv-x="501" 
d="M428 0h-406l101 574h119l-84 -475h286zM325 249l19 112h109l-19 -112h-109z" />
    <glyph glyph-name="Lcommaaccent.sc" horiz-adv-x="498" 
d="M428 0h-406l101 574h119l-84 -475h286zM146 -171l18 112h100l-12 -122l-103 -107l-23 32l65 85h-45z" />
    <glyph glyph-name="Lcaron.sc" horiz-adv-x="499" 
d="M428 0h-406l101 574h119l-84 -475h286zM267 462l20 112h99l-12 -122l-103 -107l-22 32l64 85h-46z" />
    <glyph glyph-name="s_h" horiz-adv-x="1139" 
d="M304 311c84 -26 163 -60 163 -156c0 -103 -91 -166 -220 -166c-106 0 -199 42 -254 77l59 82c52 -30 133 -63 196 -63c52 0 92 23 92 59c0 45 -58 55 -128 77c-74 23 -155 56 -155 151c0 97 84 164 210 164c44 0 88 -8 128 -20c-4 12 -5 25 -5 41c0 98 71 172 192 172
h211l-48 -268c45 31 127 75 206 75c113 0 154 -73 135 -178l-63 -358h-124l61 345c10 53 1 93 -57 93c-59 0 -136 -43 -175 -73l-64 -365h-124l118 670h-77c-78 0 -132 -52 -132 -125c0 -21 4 -39 10 -53c15 -6 29 -13 40 -19l-58 -80c-45 23 -114 48 -169 48
c-51 0 -89 -22 -89 -57c0 -44 60 -54 121 -73z" />
    <glyph glyph-name="s_k" horiz-adv-x="1074" 
d="M1083 525l-218 -214l155 -311h-125l-114 229l-93 -92l-24 -137h-124l118 670h-77c-78 0 -132 -52 -132 -125c0 -21 4 -39 10 -53c15 -6 29 -13 40 -19l-58 -80c-45 23 -114 48 -169 48c-51 0 -89 -22 -89 -57c0 -44 60 -54 121 -73c84 -26 163 -60 163 -156
c0 -103 -91 -166 -220 -166c-106 0 -199 42 -254 77l59 82c52 -30 133 -63 196 -63c52 0 92 23 92 59c0 45 -58 55 -128 77c-74 23 -155 56 -155 151c0 97 84 164 210 164c44 0 88 -8 128 -20c-4 12 -5 25 -5 41c0 98 71 172 192 172h211l-76 -427l215 223h151z" />
    <glyph glyph-name="s_l" horiz-adv-x="791" 
d="M667 0h-124l118 670h-80c-78 0 -132 -52 -132 -125c0 -21 4 -39 10 -53c15 -6 29 -13 40 -19l-58 -80c-45 23 -114 48 -169 48c-51 0 -89 -22 -89 -57c0 -44 60 -54 121 -73c84 -26 163 -60 163 -156c0 -103 -91 -166 -220 -166c-106 0 -199 42 -254 77l59 82
c52 -30 133 -63 196 -63c52 0 92 23 92 59c0 45 -58 55 -128 77c-74 23 -155 56 -155 151c0 97 84 164 210 164c44 0 88 -8 128 -20c-4 12 -5 25 -5 41c0 98 71 172 192 172h214z" />
    <glyph glyph-name="Lacute.sc" horiz-adv-x="498" 
d="M428 0h-406l101 574h119l-84 -475h287zM200 618h-109l143 135h156z" />
    <glyph glyph-name="L.sc" horiz-adv-x="498" 
d="M428 0h-406l101 574h119l-84 -475h286z" />
    <glyph glyph-name="Ksuperior" horiz-adv-x="449" 
d="M73 385l74 420h91l-34 -194l199 194h116l-210 -200l147 -220h-100l-108 162l-67 -64l-17 -98h-91z" />
    <glyph glyph-name="Kinferior" horiz-adv-x="449" 
d="M-21 -150l74 420h91l-34 -194l199 194h116l-210 -200l147 -220h-100l-108 162l-67 -63l-17 -99h-91z" />
    <glyph glyph-name="Kcommaaccent.sc" horiz-adv-x="603" 
d="M22 0l101 574h119l-48 -272l282 272h152l-290 -274l207 -300h-133l-153 225l-94 -90l-24 -135h-119zM170 -171l19 112h98l-10 -122l-103 -107l-23 32l64 85h-45z" />
    <glyph glyph-name="K.sc" horiz-adv-x="603" 
d="M22 0l101 574h119l-48 -272l282 272h152l-290 -274l207 -300h-133l-153 225l-94 -90l-24 -135h-119z" />
    <glyph glyph-name="Jsuperior" horiz-adv-x="208" 
d="M238 805l-67 -382c-14 -81 -20 -114 -158 -144l-22 71c74 20 82 30 88 68l68 387h91z" />
    <glyph glyph-name="Jinferior" horiz-adv-x="208" 
d="M144 270l-67 -382c-14 -81 -20 -114 -158 -144l-22 71c74 20 82 30 88 68l68 387h91z" />
    <glyph glyph-name="semicoloninferior" horiz-adv-x="195" 
d="M6 38l17 99h92l-17 -99h-92zM-27 -150l17 99h91l-11 -110l-91 -85l-19 29l54 67h-41z" />
    <glyph glyph-name="semicolonsuperior" horiz-adv-x="199" 
d="M101 573l17 99h92l-17 -99h-92zM68 385l17 99h91l-11 -110l-91 -85l-19 29l54 67h-41z" />
    <glyph glyph-name="Jcircumflex.sc" horiz-adv-x="269" 
d="M243 574l-93 -524c-19 -108 -25 -153 -211 -193l-29 93c102 28 110 42 120 95l94 529h119zM275 753l79 -135h-80l-66 78l-92 -78h-92l126 135h125z" />
    <glyph glyph-name="J.sc" horiz-adv-x="269" 
d="M243 574l-93 -524c-19 -108 -25 -153 -211 -193l-29 93c102 28 110 42 120 95l94 529h119z" />
    <glyph glyph-name="seven.dnom" horiz-adv-x="346" 
d="M337 350c0 0 -189 -183 -220 -350h-97c30 161 199 334 210 345h-199l11 75h304z" />
    <glyph glyph-name="seven.numr" horiz-adv-x="346" 
d="M385 630c0 0 -188 -183 -219 -350h-97c30 161 199 334 210 345h-200l11 75h305z" />
    <glyph glyph-name="seven.onum" horiz-adv-x="516" 
d="M530 475c0 0 -305 -309 -358 -601h-137c49 274 316 565 342 592h-325l17 108h476z" />
    <glyph glyph-name="seven.tnum" horiz-adv-x="660" 
d="M624 601c0 0 -305 -309 -358 -601h-137c49 274 316 565 342 592h-325l17 108h476z" />
    <glyph glyph-name="Itilde.sc" horiz-adv-x="268" 
d="M80 625l-54 35c35 51 62 88 114 88c53 0 90 -48 124 -48c13 0 28 6 59 47l54 -35c-35 -51 -62 -89 -114 -89c-53 0 -89 48 -123 48c-13 0 -29 -5 -60 -46zM141 0h-119l101 574h119z" />
    <glyph glyph-name="seveneighths.onum" horiz-adv-x="758" 
d="M374 87c0 54 52 84 103 103c-29 17 -48 39 -48 71c0 51 52 89 137 89c80 0 126 -34 126 -81c0 -41 -38 -67 -78 -85c37 -18 70 -43 70 -87c0 -61 -68 -103 -165 -103c-90 0 -145 34 -145 93zM560 574l-386 -574h-79l386 574h79zM334 518c0 0 -164 -151 -189 -288h-80
c25 132 169 272 180 283h-175l9 61h263zM608 101c0 30 -34 47 -65 59c-46 -14 -94 -31 -94 -67c0 -29 27 -43 69 -43c47 0 90 19 90 51zM500 253c0 -23 24 -34 44 -42c37 10 75 22 75 48c0 23 -22 37 -53 37c-37 0 -66 -19 -66 -43z" />
    <glyph glyph-name="Isuperior" horiz-adv-x="208" 
d="M164 385h-91l74 420h91z" />
    <glyph glyph-name="Iogonek.sc" horiz-adv-x="269" 
d="M25 -102c0 -32 46 -28 72 -28l-23 -60c-33 0 -135 -5 -135 76c0 49 48 84 115 114h-32l101 574h120l-101 -574h-4c-66 -33 -113 -66 -113 -102z" />
    <glyph glyph-name="sinferior" horiz-adv-x="345" 
d="M158 39c53 -15 103 -36 103 -95c0 -61 -55 -101 -139 -101c-69 0 -131 26 -166 48l40 57c33 -18 84 -39 126 -39c27 0 51 9 51 29c0 22 -30 27 -80 41c-41 12 -99 31 -99 92c0 58 51 101 134 101c59 0 118 -22 152 -40l-40 -55c-29 14 -74 29 -110 29
c-30 0 -47 -10 -47 -27c0 -23 32 -28 75 -40z" />
    <glyph glyph-name="Imacron.sc" horiz-adv-x="268" 
d="M141 0h-119l101 574h119zM43 643l13 75h300l-13 -75h-300z" />
    <glyph glyph-name="six.dnom" horiz-adv-x="419" 
d="M305 353c-77 0 -150 -38 -183 -113c19 14 52 31 101 31c86 0 137 -54 137 -124c0 -81 -62 -154 -175 -154c-114 0 -171 76 -171 161c0 151 121 273 287 273c50 0 78 -12 78 -12l-31 -66s-18 4 -43 4zM197 203c-44 0 -78 -25 -92 -43v-12c0 -44 25 -82 77 -82
c58 0 87 38 87 78c0 31 -21 59 -72 59z" />
    <glyph glyph-name="six.numr" horiz-adv-x="419" 
d="M355 633c-77 0 -150 -38 -183 -113c19 14 52 31 101 31c86 0 137 -54 137 -124c0 -81 -62 -154 -175 -154c-114 0 -171 76 -171 161c0 151 121 273 287 273c50 0 78 -12 78 -12l-31 -66s-18 4 -43 4zM247 483c-44 0 -78 -25 -92 -43v-12c0 -44 25 -82 77 -82
c58 0 87 38 87 78c0 31 -21 59 -72 59z" />
    <glyph glyph-name="six.onum" horiz-adv-x="634" 
d="M504 605c-130 0 -250 -78 -302 -214c31 26 86 59 169 59c135 0 212 -92 212 -202c0 -134 -98 -259 -275 -259c-175 0 -261 125 -261 258c0 256 193 464 453 464c74 0 118 -18 118 -18l-47 -95s-28 7 -67 7zM334 352c-74 0 -135 -49 -157 -83c-1 -10 -1 -20 -1 -30
c0 -74 42 -145 128 -145c98 0 150 75 150 149c0 56 -36 109 -120 109z" />
    <glyph glyph-name="six.tnum" horiz-adv-x="660" 
d="M517 605c-130 0 -250 -78 -302 -214c31 26 86 59 169 59c135 0 212 -92 212 -202c0 -134 -98 -259 -275 -259c-175 0 -261 125 -261 258c0 256 193 464 453 464c74 0 118 -18 118 -18l-47 -95s-28 7 -67 7zM347 352c-74 0 -135 -49 -157 -83c-1 -10 -1 -20 -1 -30
c0 -74 42 -145 128 -145c98 0 150 75 150 149c0 56 -36 109 -120 109z" />
    <glyph glyph-name="Iinferior" horiz-adv-x="208" 
d="M70 -150h-91l74 420h91z" />
    <glyph glyph-name="Igrave.sc" horiz-adv-x="268" 
d="M141 0h-119l101 574h119zM281 618h-95l-147 135h140z" />
    <glyph glyph-name="Idieresis.sc" horiz-adv-x="268" 
d="M141 0h-119l101 574h119zM49 628l19 112h108l-20 -112h-107zM228 628l20 112h108l-20 -112h-108z" />
    <glyph glyph-name="slash.sc" horiz-adv-x="431" 
d="M461 648l-408 -722h-92l409 722h91z" />
    <glyph glyph-name="Icircumflex.sc" horiz-adv-x="268" 
d="M141 0h-119l101 574h119zM275 753l79 -135h-80l-66 78l-92 -78h-92l126 135h125z" />
    <glyph glyph-name="spaceinferior" horiz-adv-x="183" 
 />
    <glyph glyph-name="spacesuperior" horiz-adv-x="183" 
 />
    <glyph glyph-name="Ibreve.sc" horiz-adv-x="268" 
d="M192 618c-99 0 -149 49 -138 118h80c-5 -32 15 -47 59 -47c49 0 86 15 92 47h80c-12 -73 -75 -118 -173 -118zM141 0h-119l101 574h119z" />
    <glyph glyph-name="Iacute.sc" horiz-adv-x="268" 
d="M141 0h-119l101 574h119zM201 618h-108l143 135h156z" />
    <glyph glyph-name="sterling.onum" horiz-adv-x="514" 
d="M46 205l12 69h81c-13 46 -43 88 -43 149c0 96 72 160 192 160c99 0 173 -48 219 -79l-59 -70c-47 29 -97 50 -141 50c-61 0 -94 -33 -94 -74c0 -47 35 -81 44 -136h139l-12 -69h-132c-17 -54 -62 -91 -86 -106h255l-17 -99h-403l13 80s106 42 127 125h-95z" />
    <glyph glyph-name="IJ.sc" horiz-adv-x="537" 
d="M504 574l-92 -524c-19 -108 -26 -153 -212 -193l-28 93c101 28 110 42 119 95l94 529h119zM141 0h-119l101 574h119z" />
    <glyph glyph-name="I.sc" horiz-adv-x="268" 
d="M141 0h-119l101 574h119z" />
    <glyph glyph-name="Hsuperior" horiz-adv-x="477" 
d="M341 385l32 183h-177l-32 -183h-91l74 420h91l-29 -162h177l29 162h92l-74 -420h-92z" />
    <glyph glyph-name="Hinferior" horiz-adv-x="477" 
d="M247 -150l32 183h-177l-32 -183h-91l74 420h91l-29 -162h177l29 162h92l-74 -420h-92z" />
    <glyph glyph-name="Hbar.sc" horiz-adv-x="656" 
d="M401 0l44 252h-252l-44 -252h-119l74 423h-65l12 67h65l15 84h119l-15 -84h251l15 84h120l-15 -84h64l-10 -67h-66l-73 -423h-120zM223 423l-13 -73h252l12 73h-251z" />
    <glyph glyph-name="H.sc" horiz-adv-x="640" 
d="M393 0l44 252h-252l-44 -252h-119l101 574h119l-40 -224h252l39 224h120l-100 -574h-120z" />
    <glyph glyph-name="Gsuperior" horiz-adv-x="465" 
d="M349 385l7 42c-36 -28 -77 -49 -126 -49c-81 0 -144 56 -144 171c0 172 103 263 217 263c77 0 140 -37 188 -68l-49 -63c-37 23 -81 49 -129 49c-81 0 -135 -81 -135 -176c0 -67 27 -99 73 -99c50 0 97 32 119 49l9 50h-103l12 72h189l-42 -241h-86z" />
    <glyph glyph-name="three.dnom" horiz-adv-x="401" 
d="M-23 53l45 57c39 -23 79 -42 130 -42c57 0 90 25 90 60c0 44 -56 58 -114 58h-19l11 75h23c55 0 115 19 115 55c0 22 -21 36 -53 36c-45 0 -95 -23 -119 -36l-31 62c19 12 82 49 165 49c88 0 131 -43 131 -95c0 -45 -34 -82 -94 -105c44 -13 77 -52 77 -101
c0 -61 -48 -133 -173 -133c-95 0 -159 44 -184 60z" />
    <glyph glyph-name="three.numr" horiz-adv-x="401" 
d="M27 333l45 57c40 -23 79 -42 130 -42c57 0 90 25 90 60c0 44 -56 58 -114 58h-18l10 75h23c55 0 116 19 116 55c0 22 -22 36 -54 36c-44 0 -95 -23 -119 -36l-30 62c19 12 82 49 164 49c88 0 131 -43 131 -95c0 -45 -33 -82 -94 -105c44 -13 78 -52 78 -101
c0 -61 -48 -133 -174 -133c-95 0 -159 44 -184 60z" />
    <glyph glyph-name="three.onum" horiz-adv-x="597" 
d="M-39 -46l66 82c57 -36 124 -67 201 -67c96 0 157 49 157 114c0 83 -92 110 -184 110h-31l18 108h36c85 0 188 37 188 108c0 40 -34 66 -93 66c-66 0 -143 -35 -186 -59l-41 89c28 19 126 77 251 77c134 0 201 -69 201 -152c0 -74 -53 -140 -155 -179
c71 -20 126 -85 126 -170c0 -103 -80 -221 -276 -221c-142 0 -239 66 -278 94z" />
    </font>
</defs>
</svg>
