<?xml version="1.0" standalone="no"?>
<!DOCTYPE svg PUBLIC "-//W3C//DTD SVG 1.1//EN" "http://www.w3.org/Graphics/SVG/1.1/DTD/svg11.dtd" >
<svg xmlns="http://www.w3.org/2000/svg" xmlns:xlink="http://www.w3.org/1999/xlink" version="1.1">
<metadata>
Created by FontForge 20170910 at Sun Nov  4 10:53:22 2012
 By Jimmy Wärting
Copyright (c) 2012 by Yellow Design Studio. All rights reserved.
</metadata>
<defs>
<font id="VerbLight" horiz-adv-x="601" >
  <font-face 
    font-family="Verb Light"
    font-weight="300"
    font-stretch="normal"
    units-per-em="1000"
    panose-1="2 0 3 0 3 0 0 2 0 4"
    ascent="800"
    descent="-200"
    x-height="525"
    cap-height="700"
    bbox="-119 -278 1361 945"
    underline-thickness="50"
    underline-position="-100"
    stemh="46"
    stemv="62"
    unicode-range="U+0020-FB06"
  />
<missing-glyph horiz-adv-x="269" 
 />
    <glyph glyph-name="f_f" unicode="ff" horiz-adv-x="688" 
d="M382 475v50h73v87c0 93 48 117 107 117c47 0 121 -23 147 -32l-24 -47c-22 6 -89 24 -117 24c-30 0 -51 -13 -51 -57v-92h144v-50h-144v-475h-62v475h-73zM36 475v50h74v87c0 93 48 117 106 117c47 0 122 -23 148 -32l-24 -47c-23 6 -90 24 -117 24
c-30 0 -52 -13 -52 -57v-92h142v-50h-142v-475h-61v475h-74z" />
    <glyph glyph-name="f_i" unicode="fi" horiz-adv-x="580" 
d="M36 475v50h74v87c0 93 50 117 103 117c43 0 100 -18 121 -25l-21 -47c-18 5 -68 17 -90 17c-30 0 -52 -13 -52 -57v-92h145v-50h-145v-475h-61v475h-74zM492 0h-62v525h62v-525zM426 639v87h72v-87h-72z" />
    <glyph glyph-name="f_l" unicode="fl" horiz-adv-x="590" 
d="M36 475v50h74v87c0 93 50 117 103 117c43 0 100 -18 121 -25l-21 -47c-18 5 -68 17 -90 17c-30 0 -52 -13 -52 -57v-92h145v-50h-145v-475h-61v475h-74zM497 0h-62v729h62v-729z" />
    <glyph glyph-name="f_f_i" unicode="ffi" horiz-adv-x="925" 
d="M36 475v50h74v87c0 93 48 117 106 117c47 0 122 -23 148 -32l-22 -47c-23 6 -91 24 -119 24c-30 0 -52 -13 -52 -57v-92h142v-50h-142v-475h-61v475h-74zM382 475v50h73v87c0 93 50 117 103 117c43 0 101 -18 121 -25l-21 -47c-18 5 -67 17 -90 17c-30 0 -51 -13 -51 -57
v-92h144v-50h-144v-475h-62v475h-73zM838 0h-63v525h63v-525zM771 639v87h72v-87h-72z" />
    <glyph glyph-name="f_f_l" unicode="ffl" horiz-adv-x="936" 
d="M36 475v50h74v87c0 93 48 117 106 117c47 0 122 -23 148 -32l-22 -47c-23 6 -91 24 -119 24c-30 0 -52 -13 -52 -57v-92h142v-50h-142v-475h-61v475h-74zM382 475v50h73v87c0 93 50 117 103 117c43 0 101 -18 121 -25l-21 -47c-18 5 -67 17 -90 17c-30 0 -51 -13 -51 -57
v-92h144v-50h-144v-475h-62v475h-73zM843 0h-63v729h63v-729z" />
    <glyph glyph-name="f_f_b" unicode="ffb" horiz-adv-x="1284" 
d="M775 0v729h63v-276c40 37 104 83 188 83c107 0 199 -77 199 -274c0 -196 -92 -273 -199 -273c-84 0 -148 44 -188 82v-71h-63zM1019 482c-73 0 -139 -42 -181 -90v-260c42 -47 108 -89 181 -89c94 0 141 84 141 219c0 136 -47 220 -141 220zM36 475v50h74v87
c0 93 48 117 106 117c47 0 122 -23 148 -32l-22 -47c-23 6 -91 24 -119 24c-30 0 -52 -13 -52 -57v-92h142v-50h-142v-475h-61v475h-74zM382 475v50h73v87c0 93 50 117 103 117c43 0 101 -18 121 -25l-21 -47c-18 5 -67 17 -90 17c-30 0 -51 -13 -51 -57v-92h144v-50h-144
v-475h-62v475h-73z" />
    <glyph glyph-name="f_f_h" unicode="ffh" horiz-adv-x="1289" 
d="M838 729v-282c36 28 128 89 220 89c115 0 147 -76 147 -160v-376h-62v366c0 65 -21 117 -98 117c-80 0 -172 -61 -207 -93v-390h-63v729h63zM36 475v50h74v87c0 93 48 117 106 117c47 0 122 -23 148 -32l-22 -47c-23 6 -91 24 -119 24c-30 0 -52 -13 -52 -57v-92h142v-50
h-142v-475h-61v475h-74zM382 475v50h73v87c0 93 50 117 103 117c43 0 101 -18 121 -25l-21 -47c-18 5 -67 17 -90 17c-30 0 -51 -13 -51 -57v-92h144v-50h-144v-475h-62v475h-73z" />
    <glyph glyph-name="f_b" unicode="fb" horiz-adv-x="939" 
d="M430 0v729h62v-276c40 37 105 83 189 83c107 0 198 -77 198 -274c0 -196 -91 -273 -198 -273c-84 0 -149 44 -189 82v-71h-62zM674 482c-73 0 -140 -42 -182 -90v-260c42 -47 109 -89 182 -89c93 0 141 84 141 219c0 136 -48 220 -141 220zM36 475v50h74v87
c0 93 50 117 103 117c43 0 100 -18 121 -25l-21 -47c-18 5 -68 17 -90 17c-30 0 -52 -13 -52 -57v-92h145v-50h-145v-475h-61v475h-74z" />
    <glyph glyph-name="f_f_j" unicode="ffj" horiz-adv-x="925" 
d="M36 475v50h74v87c0 93 48 117 106 117c47 0 122 -23 148 -32l-22 -47c-23 6 -91 24 -119 24c-30 0 -52 -13 -52 -57v-92h142v-50h-142v-475h-61v475h-74zM382 475v50h73v87c0 93 50 117 103 117c43 0 101 -18 121 -25l-21 -47c-18 5 -67 17 -90 17c-30 0 -51 -13 -51 -57
v-92h144v-50h-144v-475h-62v475h-73zM838 525v-556c0 -102 0 -135 -159 -177l-22 49c118 38 118 47 118 126v558h63zM770 639v87h72v-87h-72z" />
    <glyph glyph-name="f_f_k" unicode="ffk" horiz-adv-x="1199" 
d="M1147 525l-178 -213l210 -312h-67l-181 266l-93 -112v-154h-63v729h63v-498l238 294h71zM36 475v50h74v87c0 93 48 117 106 117c47 0 122 -23 148 -32l-22 -47c-23 6 -91 24 -119 24c-30 0 -52 -13 -52 -57v-92h142v-50h-142v-475h-61v475h-74zM382 475v50h73v87
c0 93 50 117 103 117c43 0 101 -18 121 -25l-21 -47c-18 5 -67 17 -90 17c-30 0 -51 -13 -51 -57v-92h144v-50h-144v-475h-62v475h-73z" />
    <glyph glyph-name="f_f_t" unicode="fft" horiz-adv-x="1057" 
d="M382 475v50h73v87c0 93 48 117 107 117c47 0 121 -23 147 -32l-24 -47c-22 6 -89 24 -117 24c-30 0 -51 -13 -51 -57v-92h142v-50h-142v-475h-62v475h-73zM36 475v50h74v87c0 93 48 117 106 117c47 0 122 -23 148 -32l-22 -47c-23 6 -91 24 -119 24
c-30 0 -52 -13 -52 -57v-92h142v-50h-142v-475h-61v475h-74zM723 475v50h74v132l61 20v-152h146v-50h-146v-373c0 -45 22 -58 52 -58s85 20 105 28l25 -48c-21 -10 -85 -35 -137 -35c-56 0 -106 24 -106 117v369h-74z" />
    <glyph glyph-name="f_h" unicode="fh" horiz-adv-x="943" 
d="M492 729v-282c37 28 129 89 221 89c115 0 147 -76 147 -160v-376h-63v366c0 65 -20 117 -98 117c-79 0 -171 -61 -207 -93v-390h-62v729h62zM36 475v50h74v87c0 93 50 117 103 117c43 0 100 -18 121 -25l-21 -47c-18 5 -68 17 -90 17c-30 0 -52 -13 -52 -57v-92h145v-50
h-145v-475h-61v475h-74z" />
    <glyph glyph-name="f_j" unicode="fj" horiz-adv-x="580" 
d="M36 475v50h74v87c0 93 50 117 103 117c43 0 100 -18 121 -25l-21 -47c-18 5 -68 17 -90 17c-30 0 -52 -13 -52 -57v-92h145v-50h-145v-475h-61v475h-74zM492 525v-556c0 -102 0 -135 -159 -177l-21 49c118 38 118 47 118 126v558h62zM425 639v87h72v-87h-72z" />
    <glyph glyph-name="f_k" unicode="fk" horiz-adv-x="854" 
d="M801 525l-177 -213l210 -312h-67l-181 267l-94 -113v-154h-62v729h62v-499l238 295h71zM36 475v50h74v87c0 93 50 117 103 117c43 0 100 -18 121 -25l-21 -47c-18 5 -68 17 -90 17c-30 0 -52 -13 -52 -57v-92h145v-50h-145v-475h-61v475h-74z" />
    <glyph glyph-name="f_t" unicode="ft" horiz-adv-x="716" 
d="M36 475v50h74v87c0 93 48 117 106 117c47 0 122 -23 148 -32l-24 -47c-23 6 -90 24 -117 24c-30 0 -52 -13 -52 -57v-92h142v-50h-142v-475h-61v475h-74zM382 475v50h74v132l61 20v-152h146v-50h-146v-373c0 -45 22 -58 52 -58s85 20 105 28l25 -48
c-21 -10 -85 -35 -137 -35c-56 0 -106 24 -106 117v369h-74z" />
    <glyph glyph-name=".notdef" horiz-adv-x="269" 
 />
    <glyph glyph-name="space" unicode=" " horiz-adv-x="285" 
 />
    <glyph glyph-name="exclam" unicode="!" horiz-adv-x="260" 
d="M91 0v103h79v-103h-79zM167 700l-17 -496h-40l-18 496h75z" />
    <glyph glyph-name="quotedbl" unicode="&#x22;" horiz-adv-x="398" 
d="M325 700l-13 -255h-45l-12 255h70zM144 700l-13 -255h-46l-12 255h71z" />
    <glyph glyph-name="numbersign" unicode="#" horiz-adv-x="756" 
d="M427 0l29 186h-209l-29 -186h-54l29 186h-140v52h148l35 223h-140v52h148l30 187h54l-30 -187h209l30 187h53l-29 -187h141v-52h-149l-35 -223h141v-52h-149l-29 -186h-54zM290 461l-35 -223h209l35 223h-209z" />
    <glyph glyph-name="dollar" unicode="$" horiz-adv-x="604" 
d="M330 -100h-51v92c-86 10 -172 46 -226 79l32 50c50 -30 124 -61 194 -71v286c-1 0 -2 1 -2 1c-98 32 -208 71 -208 194c0 116 96 178 210 180v90h51v-93c70 -8 144 -34 195 -60l-31 -50c-48 25 -110 45 -164 52v-262c102 -33 223 -80 223 -212
c0 -126 -111 -184 -223 -187v-89zM487 172c0 77 -66 115 -157 147v-273c81 1 157 42 157 126zM136 535c0 -76 62 -103 143 -131v250c-75 -2 -143 -39 -143 -119z" />
    <glyph glyph-name="percent" unicode="%" horiz-adv-x="990" 
d="M940 176c0 -124 -73 -187 -177 -187c-103 0 -176 63 -176 187c0 125 73 188 176 188c104 0 177 -63 177 -188zM884 176c0 91 -45 141 -121 141c-75 0 -119 -50 -119 -141c0 -90 44 -140 119 -140c76 0 121 50 121 140zM402 523c0 -124 -73 -187 -177 -187
c-103 0 -176 63 -176 187c0 125 73 188 176 188c104 0 177 -63 177 -188zM346 523c0 91 -45 141 -121 141c-75 0 -119 -50 -119 -141c0 -90 44 -140 119 -140c76 0 121 50 121 140zM708 700l-369 -700h-58l369 700h58z" />
    <glyph glyph-name="ampersand" unicode="&#x26;" horiz-adv-x="691" 
d="M679 0h-82l-87 89c-52 -58 -123 -100 -218 -100c-118 0 -215 66 -215 181c0 101 75 158 151 210c-48 50 -99 105 -99 183c0 106 93 148 167 148c82 0 156 -51 156 -144c0 -88 -65 -144 -136 -195l187 -192c34 60 54 130 62 189h65c-8 -63 -33 -155 -84 -233zM292 43
c76 0 134 36 177 88l-201 208c-68 -48 -128 -94 -128 -163c0 -52 37 -133 152 -133zM191 562c0 -62 48 -112 86 -150c62 42 114 86 114 154c0 48 -28 92 -96 92c-67 0 -104 -43 -104 -96z" />
    <glyph glyph-name="quotesingle" unicode="'" horiz-adv-x="217" 
d="M144 700l-13 -255h-46l-12 255h71z" />
    <glyph glyph-name="parenleft" unicode="(" horiz-adv-x="305" 
d="M88 26v643c0 95 6 128 161 170l20 -46c-115 -37 -116 -47 -116 -124v-642c0 -77 1 -87 116 -124l-20 -46c-155 42 -161 74 -161 169z" />
    <glyph glyph-name="parenright" unicode=")" horiz-adv-x="305" 
d="M216 669v-643c0 -95 -4 -127 -159 -169l-21 46c115 37 115 47 115 124v642c0 77 0 87 -115 124l21 46c155 -42 159 -75 159 -170z" />
    <glyph glyph-name="asterisk" unicode="*" horiz-adv-x="485" 
d="M213 331l15 155l-131 -91l-31 51l146 65l-145 68l31 51l130 -93l-15 155h60l-14 -154l129 91l30 -52l-146 -65l146 -67l-31 -51l-128 91l14 -154h-60z" />
    <glyph glyph-name="plus" unicode="+" horiz-adv-x="607" 
d="M277 557h53v-198h223v-52h-223v-197h-53v197h-222v52h222v198z" />
    <glyph glyph-name="comma" unicode="," horiz-adv-x="239" 
d="M80 0v106h75l11 -110l-69 -122l-25 25l44 101h-36z" />
    <glyph glyph-name="hyphen" unicode="-" horiz-adv-x="436" 
d="M354 256h-273v57h273v-57z" />
    <glyph glyph-name="period" unicode="." horiz-adv-x="238" 
d="M79 0v106h79v-106h-79z" />
    <glyph glyph-name="slash" unicode="/" horiz-adv-x="440" 
d="M415 790l-335 -880h-55l335 880h55z" />
    <glyph glyph-name="zero" unicode="0" horiz-adv-x="650" 
d="M326 711c168 0 253 -130 253 -361s-85 -361 -253 -361s-255 130 -255 361s87 361 255 361zM326 43c133 0 187 122 187 307s-54 306 -187 306s-188 -121 -188 -306s55 -307 188 -307z" />
    <glyph glyph-name="one" unicode="1" horiz-adv-x="354" 
d="M250 0h-65v631l-126 -66l-28 47l162 88h57v-700z" />
    <glyph glyph-name="two" unicode="2" horiz-adv-x="575" 
d="M508 57v-57h-451v51c0 148 109 211 223 288c86 59 162 114 162 196c0 69 -54 119 -147 119c-81 0 -153 -38 -186 -62l-33 45c48 34 123 74 221 74c125 0 210 -67 210 -175c0 -132 -124 -201 -242 -281c-87 -59 -139 -102 -139 -198h382z" />
    <glyph glyph-name="three" unicode="3" horiz-adv-x="585" 
d="M45 57l31 49c26 -17 112 -60 198 -60c99 0 178 57 178 148c0 118 -131 162 -229 162h-31v58h36c97 0 193 45 193 132c0 68 -56 108 -141 108c-76 0 -139 -34 -174 -58l-30 44c20 15 102 71 211 71c130 0 199 -77 199 -162c0 -61 -38 -129 -139 -163
c97 -23 172 -94 172 -192c0 -102 -77 -205 -238 -205c-106 0 -200 45 -236 68z" />
    <glyph glyph-name="four" unicode="4" horiz-adv-x="616" 
d="M39 161v52l342 487h83v-482h108v-57h-108v-161h-65v161h-360zM109 218h290v419z" />
    <glyph glyph-name="five" unicode="5" horiz-adv-x="572" 
d="M83 357l38 343h363v-57h-312l-20 -234c32 17 74 31 129 31c142 0 231 -101 231 -223c0 -115 -82 -228 -243 -228c-97 0 -173 42 -214 67l31 50c18 -12 97 -59 177 -59c95 0 182 67 182 171c0 90 -64 166 -174 166c-69 0 -125 -29 -153 -45z" />
    <glyph glyph-name="six" unicode="6" horiz-adv-x="610" 
d="M421 655c-122 0 -253 -88 -282 -294c25 31 88 85 193 85c145 0 222 -104 222 -222c0 -125 -88 -235 -235 -235c-172 0 -251 148 -251 290c-2 288 175 432 351 432c51 0 90 -11 90 -11l-16 -54s-33 9 -72 9zM324 392c-100 0 -170 -64 -190 -110v-6
c0 -119 57 -231 184 -231c114 0 171 91 171 179c0 80 -47 168 -165 168z" />
    <glyph glyph-name="seven" unicode="7" horiz-adv-x="502" 
d="M475 651c0 0 -259 -322 -259 -651h-70c0 293 228 610 252 643h-364v57h441v-49z" />
    <glyph glyph-name="eight" unicode="8" horiz-adv-x="622" 
d="M61 178c0 110 93 167 174 199c-60 26 -133 72 -133 166c0 103 88 168 208 168c121 0 210 -65 210 -168c0 -94 -74 -140 -134 -166c80 -32 175 -89 175 -199c0 -120 -113 -189 -251 -189s-249 69 -249 189zM494 180c0 92 -97 139 -184 170c-86 -31 -182 -78 -182 -170
c0 -86 83 -136 182 -136c101 0 184 50 184 136zM166 539c0 -81 90 -116 145 -135c55 19 145 54 145 135c0 65 -61 118 -146 118c-83 0 -144 -53 -144 -118z" />
    <glyph glyph-name="nine" unicode="9" horiz-adv-x="610" 
d="M188 45c122 0 253 87 281 293c-25 -31 -88 -84 -192 -84c-145 0 -222 104 -222 222c0 125 89 235 236 235c172 0 250 -148 251 -290c1 -288 -175 -432 -352 -432c-51 0 -90 11 -90 11l17 54s32 -9 71 -9zM285 308c98 0 168 62 190 108v8c0 119 -57 231 -183 231
c-115 0 -172 -91 -172 -179c0 -80 47 -168 165 -168z" />
    <glyph glyph-name="colon" unicode=":" horiz-adv-x="243" 
d="M82 349v106h79v-106h-79zM82 0v106h79v-106h-79z" />
    <glyph glyph-name="semicolon" unicode=";" horiz-adv-x="258" 
d="M90 349v106h77v-106h-77zM90 0v106h75l11 -110l-69 -122l-25 25l44 101h-36z" />
    <glyph glyph-name="less" unicode="&#x3c;" horiz-adv-x="607" 
d="M41 359l497 211v-63l-427 -173l427 -174v-63l-497 212v50z" />
    <glyph glyph-name="equal" unicode="=" horiz-adv-x="607" 
d="M55 397v52h498v-52h-498zM55 219v53h498v-53h-498z" />
    <glyph glyph-name="greater" unicode="&#x3e;" horiz-adv-x="607" 
d="M566 309l-497 -212v63l426 174l-426 173v63l497 -211v-50z" />
    <glyph glyph-name="question" unicode="?" horiz-adv-x="505" 
d="M172 0v103h77v-103h-77zM455 545c0 -112 -97 -170 -215 -200l-5 -141h-49l-6 178c125 28 211 67 211 157c0 76 -64 115 -141 115c-68 0 -130 -31 -177 -60l-33 44c43 31 126 73 216 73c100 0 199 -54 199 -166z" />
    <glyph glyph-name="at" unicode="@" horiz-adv-x="974" 
d="M876 255c0 220 -121 390 -376 390c-254 0 -394 -181 -394 -392c0 -219 147 -391 372 -391c123 0 192 45 192 45l26 -32s-74 -54 -217 -54c-251 0 -416 190 -416 432c0 243 167 433 439 433c273 0 416 -180 417 -432c-1 -158 -69 -274 -188 -274c-94 0 -116 69 -120 117
c-35 -32 -94 -73 -170 -73c-66 0 -145 34 -145 146c0 106 73 151 151 151c51 0 124 -19 163 -27v59c0 71 -21 104 -98 104c-53 0 -113 -20 -161 -41l-25 43c61 27 133 45 191 45c92 0 147 -41 147 -144v-215c0 -55 1 -121 72 -121c51 0 140 51 140 231zM451 71
c65 0 115 34 159 76v111c-34 5 -95 20 -144 20c-86 0 -115 -53 -115 -108c0 -71 45 -99 100 -99z" />
    <glyph glyph-name="A" unicode="A" horiz-adv-x="678" 
d="M578 0l-68 182h-341l-68 -182h-70l274 700h69l274 -700h-70zM339 637l-149 -399h299z" />
    <glyph glyph-name="B" unicode="B" horiz-adv-x="669" 
d="M608 186c0 -115 -78 -186 -225 -186h-280v700h231c150 0 235 -62 235 -171c0 -101 -75 -150 -122 -158c57 -9 161 -52 161 -185zM505 522c0 71 -50 123 -167 123h-170v-250h164c97 0 173 39 173 127zM544 195c0 97 -73 146 -206 146h-170v-286h212c112 0 164 60 164 140z
" />
    <glyph glyph-name="C" unicode="C" horiz-adv-x="645" 
d="M599 608l-36 -47c-54 37 -136 91 -221 91c-119 0 -205 -110 -205 -302s86 -302 205 -302c85 0 167 54 221 91l36 -47c-70 -48 -159 -103 -259 -103c-143 0 -271 107 -271 361s128 361 271 361c100 0 189 -55 259 -103z" />
    <glyph glyph-name="D" unicode="D" horiz-adv-x="700" 
d="M631 350c0 -250 -125 -350 -323 -350h-205v700h205c198 0 323 -100 323 -350zM562 350c0 200 -78 293 -256 293h-138v-586h138c178 0 256 93 256 293z" />
    <glyph glyph-name="E" unicode="E" horiz-adv-x="595" 
d="M536 0h-433v700h427v-57h-362v-265h300v-56h-300v-265h368v-57z" />
    <glyph glyph-name="F" unicode="F" horiz-adv-x="566" 
d="M530 643h-362v-265h291v-57h-291v-321h-65v700h427v-57z" />
    <glyph glyph-name="G" unicode="G" horiz-adv-x="702" 
d="M559 0v86c-57 -49 -131 -97 -222 -97c-140 0 -268 107 -268 361s129 361 271 361c108 0 201 -58 271 -110l-38 -48c-53 37 -139 99 -230 99c-119 0 -206 -110 -206 -302c0 -189 85 -304 206 -304c91 0 176 73 216 109v165h-202v55h267v-375h-65z" />
    <glyph glyph-name="H" unicode="H" horiz-adv-x="709" 
d="M541 0v339h-373v-339h-65v700h65v-305h373v305h65v-700h-65z" />
    <glyph glyph-name="I" unicode="I" horiz-adv-x="271" 
d="M168 0h-65v700h65v-700z" />
    <glyph glyph-name="J" unicode="J" horiz-adv-x="271" 
d="M168 700v-661c0 -102 0 -135 -161 -177l-22 51c117 38 117 48 117 124v663h66z" />
    <glyph glyph-name="K" unicode="K" horiz-adv-x="645" 
d="M103 0v700h65v-414l348 414h77l-286 -338l320 -362h-80l-278 317l-101 -120v-197h-65z" />
    <glyph glyph-name="L" unicode="L" horiz-adv-x="548" 
d="M519 0h-416v700h65v-643h351v-57z" />
    <glyph glyph-name="M" unicode="M" horiz-adv-x="839" 
d="M672 0v590l-229 -473h-46l-229 472v-589h-65v700h69l248 -510l247 510h70v-700h-65z" />
    <glyph glyph-name="N" unicode="N" horiz-adv-x="725" 
d="M554 0l-386 603v-603h-65v700h68l386 -603v603h65v-700h-68z" />
    <glyph glyph-name="O" unicode="O" horiz-adv-x="734" 
d="M367 711c218 0 298 -162 298 -361c0 -197 -80 -361 -298 -361s-298 164 -298 361c0 199 80 361 298 361zM367 47c174 0 231 135 231 303c0 167 -57 303 -231 303s-230 -136 -230 -303c0 -168 56 -303 230 -303z" />
    <glyph glyph-name="P" unicode="P" horiz-adv-x="639" 
d="M595 490c0 -160 -113 -210 -254 -210h-173v-280h-65v700h238c141 0 254 -51 254 -210zM528 490c0 114 -80 153 -183 153h-177v-306h177c103 0 183 38 183 153z" />
    <glyph glyph-name="Q" unicode="Q" horiz-adv-x="734" 
d="M367 -11c-218 0 -298 164 -298 361c0 199 80 361 298 361s298 -162 298 -361c0 -173 -62 -321 -224 -354l121 -98l-46 -47zM367 47c174 0 231 135 231 303c0 167 -57 303 -231 303s-230 -136 -230 -303c0 -168 56 -303 230 -303z" />
    <glyph glyph-name="R" unicode="R" horiz-adv-x="680" 
d="M545 0l-189 305h-188v-305h-65v700h260c142 0 255 -49 255 -197c0 -128 -85 -183 -196 -195l197 -308h-74zM551 503c0 103 -79 141 -184 141h-199v-283h194c110 0 189 39 189 142z" />
    <glyph glyph-name="S" unicode="S" horiz-adv-x="606" 
d="M323 390c104 -33 230 -79 230 -214c0 -128 -115 -187 -230 -187c-100 0 -207 44 -270 82l32 50c61 -36 158 -75 240 -75s162 40 162 126c0 92 -93 127 -211 166c-98 31 -207 70 -207 193c0 118 99 180 215 180c82 0 179 -31 240 -63l-31 -50c-62 32 -147 56 -208 56
c-77 0 -150 -36 -150 -119c0 -89 86 -111 188 -145z" />
    <glyph glyph-name="T" unicode="T" horiz-adv-x="569" 
d="M541 643h-224v-643h-65v643h-225v57h514v-57z" />
    <glyph glyph-name="U" unicode="U" horiz-adv-x="700" 
d="M603 700v-453c0 -145 -61 -258 -252 -258c-193 0 -254 113 -254 258v453h65v-453c0 -111 34 -200 189 -200c153 0 187 89 187 200v453h65z" />
    <glyph glyph-name="V" unicode="V" horiz-adv-x="676" 
d="M101 700l236 -632l237 632h72l-274 -700h-69l-274 700h72z" />
    <glyph glyph-name="W" unicode="W" horiz-adv-x="932" 
d="M626 0l-161 607l-160 -607h-73l-193 700h71l160 -625l163 625h65l163 -625l161 625h72l-195 -700h-73z" />
    <glyph glyph-name="X" unicode="X" horiz-adv-x="613" 
d="M40 700h76l190 -308l191 308h76l-233 -353l245 -347h-78l-201 301l-200 -301h-78l244 347z" />
    <glyph glyph-name="Y" unicode="Y" horiz-adv-x="626" 
d="M280 0v277l-257 423h73l217 -373l216 373h73l-257 -423v-277h-65z" />
    <glyph glyph-name="Z" unicode="Z" horiz-adv-x="614" 
d="M45 53l433 590h-411v57h490v-53l-435 -590h440v-57h-517v53z" />
    <glyph glyph-name="bracketleft" unicode="[" horiz-adv-x="336" 
d="M296 -144h-202v983h202v-49h-137v-885h137v-49z" />
    <glyph glyph-name="backslash" unicode="\" horiz-adv-x="440" 
d="M360 -90l-335 880h54l335 -880h-54z" />
    <glyph glyph-name="bracketright" unicode="]" horiz-adv-x="336" 
d="M241 -144h-202v49h137v885h-137v49h202v-983z" />
    <glyph glyph-name="asciicircum" unicode="^" horiz-adv-x="607" 
d="M455 354l-152 291l-153 -291h-70l191 346h63l192 -346h-71z" />
    <glyph glyph-name="underscore" unicode="_" horiz-adv-x="706" 
d="M625 -136h-544v50h544v-50z" />
    <glyph glyph-name="grave" unicode="`" horiz-adv-x="207" 
d="M212 601h-53l-165 128h96z" />
    <glyph glyph-name="a" unicode="a" horiz-adv-x="570" 
d="M425 0v72c-41 -37 -110 -83 -200 -83c-79 0 -173 41 -173 166c0 122 87 173 179 173c61 0 150 -22 194 -30v66c0 79 -26 120 -116 120c-60 0 -126 -22 -197 -47l-24 49c84 31 160 50 226 50c106 0 173 -46 173 -166v-370h-62zM237 44c79 0 137 37 188 83v129
c-38 7 -112 25 -169 25c-106 0 -139 -59 -139 -124c0 -81 51 -113 120 -113z" />
    <glyph glyph-name="b" unicode="b" horiz-adv-x="597" 
d="M88 0v729h62v-276c40 37 104 83 189 83c107 0 198 -77 198 -274c0 -196 -91 -273 -198 -273c-85 0 -149 44 -189 82v-71h-62zM332 482c-74 0 -140 -42 -182 -90v-260c42 -47 108 -89 182 -89c93 0 141 84 141 219c0 136 -48 220 -141 220z" />
    <glyph glyph-name="c" unicode="c" horiz-adv-x="521" 
d="M477 466l-31 -47c-25 14 -96 62 -163 62c-89 0 -160 -83 -160 -218s71 -219 160 -219c67 0 138 48 163 62l31 -47c-38 -23 -113 -70 -196 -70c-116 0 -223 93 -223 274s107 273 223 273c83 0 158 -48 196 -70z" />
    <glyph glyph-name="d" unicode="d" horiz-adv-x="597" 
d="M509 0h-62v71c-41 -38 -105 -82 -189 -82c-108 0 -199 77 -199 273c0 197 91 274 199 274c84 0 148 -45 189 -83v276h62v-729zM265 43c73 0 139 42 182 89v260c-43 48 -109 90 -182 90c-94 0 -141 -84 -141 -220c0 -135 47 -219 141 -219z" />
    <glyph glyph-name="e" unicode="e" horiz-adv-x="572" 
d="M506 245h-382c6 -124 71 -204 161 -204c76 0 153 46 197 73l33 -43c-51 -30 -134 -82 -232 -82c-121 0 -225 93 -225 274c0 178 103 273 238 273c141 0 215 -96 215 -226c0 -37 -5 -65 -5 -65zM295 485c-99 0 -162 -77 -170 -195h323c3 137 -57 195 -153 195z" />
    <glyph glyph-name="f" unicode="f" horiz-adv-x="342" 
d="M36 475v50h73v87c0 93 48 117 107 117c47 0 121 -23 147 -32l-24 -47c-22 6 -89 24 -117 24c-30 0 -51 -13 -51 -57v-92h144v-50h-144v-475h-62v475h-73z" />
    <glyph glyph-name="g" unicode="g" horiz-adv-x="597" 
d="M447 525h62v-565c0 -133 -84 -174 -191 -174c-66 0 -160 15 -235 36l15 56c77 -22 159 -38 215 -38c86 0 134 33 134 119v112c-41 -38 -105 -82 -189 -82c-108 0 -199 77 -199 273c0 197 91 274 199 274c84 0 148 -45 189 -83v72zM265 43c73 0 139 42 182 89v260
c-43 48 -109 90 -182 90c-94 0 -141 -84 -141 -220c0 -135 47 -219 141 -219z" />
    <glyph glyph-name="h" unicode="h" 
d="M150 729v-282c37 28 129 89 221 89c114 0 146 -76 146 -160v-376h-62v366c0 65 -20 117 -98 117c-79 0 -172 -61 -207 -93v-390h-62v729h62z" />
    <glyph glyph-name="i" unicode="i" horiz-adv-x="238" 
d="M150 0h-62v525h62v-525zM84 639v87h72v-87h-72z" />
    <glyph glyph-name="j" unicode="j" horiz-adv-x="238" 
d="M83 639v87h72v-87h-72zM150 525v-556c0 -102 0 -135 -159 -177l-21 49c117 38 117 47 117 126v558h63z" />
    <glyph glyph-name="k" unicode="k" horiz-adv-x="512" 
d="M459 525l-177 -213l210 -312h-67l-182 266l-93 -112v-154h-62v729h62v-499l238 295h71z" />
    <glyph glyph-name="l" unicode="l" horiz-adv-x="248" 
d="M155 0h-62v729h62v-729z" />
    <glyph glyph-name="m" unicode="m" horiz-adv-x="916" 
d="M150 525v-80c39 36 116 91 198 91c92 0 124 -56 136 -100c35 35 118 100 206 100c111 0 142 -76 142 -160v-376h-62v366c0 62 -20 117 -94 117c-72 0 -147 -59 -186 -99v-384h-62v366c0 62 -20 117 -94 117c-70 0 -143 -57 -184 -97v-386h-62v525h62z" />
    <glyph glyph-name="n" unicode="n" 
d="M150 525v-78c37 28 129 89 221 89c114 0 146 -76 146 -160v-376h-62v366c0 65 -20 117 -98 117c-79 0 -172 -61 -207 -93v-390h-62v525h62z" />
    <glyph glyph-name="o" unicode="o" horiz-adv-x="595" 
d="M536 262c0 -169 -84 -273 -239 -273c-156 0 -239 104 -239 273s83 274 239 274c155 0 239 -105 239 -274zM472 262c0 133 -52 221 -175 221s-174 -88 -174 -221s51 -220 174 -220s175 87 175 220z" />
    <glyph glyph-name="p" unicode="p" horiz-adv-x="597" 
d="M150 525v-72c40 38 104 83 189 83c107 0 198 -77 198 -274c0 -196 -91 -273 -198 -273c-85 0 -149 44 -189 82v-275h-62v729h62zM332 482c-74 0 -140 -42 -182 -90v-260c42 -47 108 -89 182 -89c93 0 141 84 141 219c0 136 -48 220 -141 220z" />
    <glyph glyph-name="q" unicode="q" horiz-adv-x="597" 
d="M447 -204v275c-41 -38 -105 -82 -189 -82c-108 0 -199 77 -199 273c0 197 91 274 199 274c84 0 148 -45 189 -83v72h62v-729h-62zM265 43c73 0 139 42 182 89v260c-43 48 -109 90 -182 90c-94 0 -141 -84 -141 -220c0 -135 47 -219 141 -219z" />
    <glyph glyph-name="r" unicode="r" horiz-adv-x="376" 
d="M150 525v-113c6 16 60 129 200 119v-60c-179 0 -200 -165 -200 -165v-306h-62v525h62z" />
    <glyph glyph-name="s" unicode="s" horiz-adv-x="505" 
d="M266 295c120 -31 190 -75 190 -163c0 -100 -90 -143 -184 -143c-87 0 -173 35 -223 63l29 47c50 -28 128 -58 189 -58c62 0 127 27 127 88c0 72 -94 96 -159 114c-80 22 -175 52 -175 153c0 91 77 140 178 140c76 0 148 -28 196 -52l-29 -45c-49 24 -112 45 -166 45
c-66 0 -117 -29 -117 -85c0 -71 92 -90 144 -104z" />
    <glyph glyph-name="t" unicode="t" horiz-adv-x="371" 
d="M37 475v50h73v132l62 20v-152h145v-50h-145v-373c0 -45 21 -58 51 -58c31 0 86 20 105 28l25 -48c-21 -10 -85 -35 -136 -35c-57 0 -107 24 -107 117v369h-73z" />
    <glyph glyph-name="u" unicode="u" 
d="M451 0v77c-37 -28 -130 -88 -222 -88c-113 0 -145 76 -145 160v376h62v-366c0 -65 20 -117 98 -117c77 0 170 61 207 92v391h62v-525h-62z" />
    <glyph glyph-name="v" unicode="v" horiz-adv-x="548" 
d="M305 0h-61l-212 525h69l173 -458l173 458h70z" />
    <glyph glyph-name="w" unicode="w" horiz-adv-x="805" 
d="M539 0l-136 449l-136 -449h-64l-166 525h67l132 -457l136 457h62l135 -457l133 457h66l-166 -525h-63z" />
    <glyph glyph-name="x" unicode="x" horiz-adv-x="567" 
d="M284 303l170 222h77l-212 -261l224 -264h-79l-181 226l-179 -226h-79l223 264l-212 261h76z" />
    <glyph glyph-name="y" unicode="y" horiz-adv-x="548" 
d="M32 525h69l173 -450l173 450h70l-297 -729h-69l92 207z" />
    <glyph glyph-name="z" unicode="z" horiz-adv-x="499" 
d="M46 0v51l327 420h-317v54h393v-51l-325 -420h325v-54h-403z" />
    <glyph glyph-name="braceleft" unicode="{" horiz-adv-x="394" 
d="M33 316v64c65 0 111 28 97 126l-13 93c-20 149 47 240 222 240h18v-49h-18c-141 0 -167 -84 -156 -178l14 -95c12 -96 -20 -151 -96 -169c76 -19 108 -74 96 -169l-14 -95c-11 -95 15 -178 156 -178h18v-49h-18c-175 0 -242 91 -222 240l13 93c14 98 -32 126 -97 126z
" />
    <glyph glyph-name="bar" unicode="|" horiz-adv-x="243" 
d="M147 -123h-52v941h52v-941z" />
    <glyph glyph-name="braceright" unicode="}" horiz-adv-x="394" 
d="M361 380v-64c-64 0 -110 -28 -96 -126l12 -93c21 -149 -46 -240 -221 -240h-19v49h19c140 0 167 83 154 178l-13 95c-13 95 19 150 96 169c-77 18 -109 73 -96 169l13 95c13 94 -14 178 -154 178h-19v49h19c175 0 241 -91 220 -240l-12 -93c-14 -98 33 -126 97 -126z" />
    <glyph glyph-name="asciitilde" unicode="~" horiz-adv-x="607" 
d="M83 214l-47 18c37 77 88 107 147 107c99 0 159 -74 245 -74c31 0 64 9 95 67l46 -19c-36 -76 -88 -106 -146 -106c-99 0 -161 74 -245 74c-32 0 -62 -10 -95 -67z" />
    <glyph glyph-name="uni00A0" unicode="&#xa0;" horiz-adv-x="285" 
 />
    <glyph glyph-name="exclamdown" unicode="&#xa1;" horiz-adv-x="260" 
d="M91 597v103h79v-103h-79zM150 496l17 -496h-75l17 496h41z" />
    <glyph glyph-name="cent" unicode="&#xa2;" horiz-adv-x="558" 
d="M328 0h-51v77c-112 6 -211 99 -211 274c0 174 99 267 211 273v76h51v-80c71 -12 133 -53 167 -74l-32 -46c-23 13 -77 51 -135 64v-428c58 13 112 51 135 65l32 -46c-34 -21 -96 -63 -167 -75v-80zM131 351c0 -128 64 -210 146 -219v436c-82 -8 -146 -90 -146 -217z" />
    <glyph glyph-name="sterling" unicode="&#xa3;" horiz-adv-x="549" 
d="M77 262v49h106c-19 85 -94 131 -94 231s76 169 192 169c85 0 158 -37 212 -66l-34 -47c-64 33 -120 56 -174 56c-86 0 -131 -56 -131 -119c0 -84 77 -132 94 -224h165v-49h-163c-5 -96 -75 -181 -100 -205h331v-57h-415v48s116 93 122 214h-111z" />
    <glyph glyph-name="yen" unicode="&#xa5;" horiz-adv-x="656" 
d="M97 301v48h154l-213 351h73l217 -373l216 373h73l-214 -351h155v-48h-184l-14 -24v-54h198v-48h-198v-175h-65v175h-198v48h198v54l-15 24h-183z" />
    <glyph glyph-name="brokenbar" unicode="&#xa6;" horiz-adv-x="245" 
d="M148 405h-52v413h52v-413zM148 -123h-52v413h52v-413z" />
    <glyph glyph-name="section" unicode="&#xa7;" horiz-adv-x="543" 
d="M253 168c-119 32 -190 77 -190 162c0 67 45 103 104 119c-47 23 -83 59 -83 122c0 91 78 140 178 140c76 0 148 -28 195 -52l-29 -45c-48 24 -112 45 -167 45c-66 0 -117 -30 -117 -84c0 -72 91 -90 146 -105c123 -33 191 -76 191 -160c0 -69 -46 -105 -105 -121
c46 -23 83 -59 83 -121c0 -91 -77 -140 -178 -140c-75 0 -148 28 -196 52l30 45c49 -24 112 -45 167 -45c65 0 115 30 115 84c0 72 -88 90 -144 104zM258 418l-17 4c-63 -4 -117 -32 -117 -86c0 -79 115 -101 161 -115l16 -5c62 4 119 30 119 87c0 56 -57 89 -162 115z" />
    <glyph glyph-name="dieresis" unicode="&#xa8;" horiz-adv-x="226" 
d="M-5 611v86h72v-86h-72zM159 611v86h71v-86h-71z" />
    <glyph glyph-name="copyright" unicode="&#xa9;" horiz-adv-x="847" 
d="M584 505l-31 -36c-27 21 -71 54 -134 54c-74 0 -124 -69 -124 -174c0 -104 50 -172 124 -172c63 0 107 32 134 52l31 -35c-37 -26 -91 -62 -167 -62c-94 0 -174 74 -174 217c0 144 80 218 174 218c76 0 130 -36 167 -62zM67 350c0 202 128 361 357 361s356 -159 356 -361
s-127 -361 -356 -361s-357 159 -357 361zM107 350c0 -182 112 -323 316 -323c205 0 318 141 318 323s-113 323 -318 323c-204 0 -316 -141 -316 -323z" />
    <glyph glyph-name="ordfeminine" unicode="&#xaa;" horiz-adv-x="426" 
d="M295 385v42c-25 -22 -69 -49 -124 -49c-53 0 -110 28 -110 101c0 71 53 103 115 103c37 0 92 -12 119 -17v35c0 44 -17 66 -70 66c-37 0 -77 -12 -123 -26l-18 37c55 18 105 30 147 30c72 0 115 -29 115 -105v-217h-51zM184 420c45 0 80 20 111 46v69
c-23 3 -67 14 -99 14c-62 0 -82 -31 -82 -68c0 -43 29 -61 70 -61z" />
    <glyph glyph-name="guillemotleft" unicode="&#xab;" horiz-adv-x="687" 
d="M41 304l306 225v-67l-246 -180l246 -180v-66l-306 225v43zM316 304l306 225v-67l-246 -180l246 -180v-66l-306 225v43z" />
    <glyph glyph-name="logicalnot" unicode="&#xac;" horiz-adv-x="607" 
d="M589 90h-59v217h-513v52h572v-269z" />
    <glyph glyph-name="registered" unicode="&#xae;" horiz-adv-x="525" 
d="M65 500c0 112 71 200 198 200c126 0 197 -88 197 -200s-71 -200 -197 -200c-127 0 -198 88 -198 200zM101 500c0 -94 52 -167 162 -167c109 0 161 73 161 167s-52 167 -161 167c-110 0 -162 -73 -162 -167zM350 545c0 -27 -21 -49 -50 -56l47 -87h-37l-44 85h-44v-85h-33
v201h93c42 0 68 -24 68 -58zM316 545c0 15 -7 28 -33 28h-61v-55h59c25 0 35 12 35 27z" />
    <glyph glyph-name="macron" unicode="&#xaf;" horiz-adv-x="287" 
d="M0 626v46h287v-46h-287z" />
    <glyph glyph-name="degree" unicode="&#xb0;" horiz-adv-x="443" 
d="M58 537c0 90 74 163 164 163s163 -73 163 -163s-73 -164 -163 -164s-164 74 -164 164zM103 537c0 -66 53 -119 119 -119c65 0 118 53 118 119c0 65 -53 118 -118 118c-66 0 -119 -53 -119 -118z" />
    <glyph glyph-name="plusminus" unicode="&#xb1;" horiz-adv-x="607" 
d="M274 526h54v-169h225v-52h-225v-171h-54v171h-219v52h219v169zM55 0v49h498v-49h-498z" />
    <glyph glyph-name="twosuperior" unicode="&#xb2;" horiz-adv-x="387" 
d="M338 430v-45h-296v34c0 88 70 127 141 173c54 35 100 65 100 110c0 37 -31 65 -86 65c-49 0 -96 -23 -117 -38l-26 35c30 20 82 48 147 48c83 0 136 -44 136 -109c0 -79 -78 -120 -150 -165c-51 -33 -84 -58 -84 -108h235z" />
    <glyph glyph-name="threesuperior" unicode="&#xb3;" horiz-adv-x="390" 
d="M35 422l26 38c22 -14 74 -37 126 -37c58 0 104 31 104 81c0 65 -81 87 -140 87h-21v46h24c56 0 117 22 117 72c0 36 -32 58 -81 58c-48 0 -88 -21 -111 -35l-23 34c12 10 68 46 140 46c86 0 129 -47 129 -99c0 -38 -25 -77 -84 -96c59 -14 103 -57 103 -114
c0 -62 -46 -125 -152 -125c-71 0 -133 30 -157 44z" />
    <glyph glyph-name="acute" unicode="&#xb4;" horiz-adv-x="207" 
d="M48 601h-54l122 128h96z" />
    <glyph glyph-name="mu" unicode="&#xb5;" 
d="M95 -204v729h62v-376c2 -60 25 -107 98 -107c78 0 170 61 207 92v391h63v-525h-63v77c-37 -28 -130 -88 -221 -88c-36 0 -63 7 -84 19v-212h-62z" />
    <glyph glyph-name="paragraph" unicode="&#xb6;" horiz-adv-x="621" 
d="M283 700h57v-885h-59v469c-145 0 -239 72 -239 208s80 208 241 208zM459 -186v886h59v-886h-59z" />
    <glyph glyph-name="periodcentered" unicode="&#xb7;" horiz-adv-x="241" 
d="M81 232v105h79v-105h-79z" />
    <glyph glyph-name="cedilla" unicode="&#xb8;" horiz-adv-x="169" 
d="M-2 -150l18 42c21 -10 32 -14 52 -14c34 0 58 15 58 49c0 38 -31 75 -31 75h35s41 -41 41 -90c0 -50 -40 -80 -97 -80c-26 0 -51 6 -76 18z" />
    <glyph glyph-name="onesuperior" unicode="&#xb9;" horiz-adv-x="250" 
d="M181 385h-54v367l-78 -39l-24 36l106 56h50v-420z" />
    <glyph glyph-name="ordmasculine" unicode="&#xba;" horiz-adv-x="434" 
d="M372 542c0 -102 -54 -164 -155 -164s-155 63 -155 164c0 102 54 165 155 165s155 -63 155 -165zM320 542c0 75 -30 123 -103 123s-103 -48 -103 -123c0 -74 30 -122 103 -122s103 48 103 122z" />
    <glyph glyph-name="guillemotright" unicode="&#xbb;" horiz-adv-x="687" 
d="M371 261l-306 -225v66l245 180l-245 180v66l306 -224v-43zM646 304v-43l-306 -225v66l246 180l-246 180v66z" />
    <glyph glyph-name="onequarter" unicode="&#xbc;" horiz-adv-x="793" 
d="M627 0v93h-228v39l211 288h71v-283h68v-44h-68v-93h-54zM547 700l-335 -700h-56l334 700h57zM190 280h-54v367l-78 -39l-24 36l106 56h50v-420zM455 137h172v237z" />
    <glyph glyph-name="onehalf" unicode="&#xbd;" horiz-adv-x="822" 
d="M190 280h-54v367l-78 -39l-24 36l106 56h50v-420zM547 700l-335 -700h-56l334 700h57zM761 45v-45h-295v34c0 88 69 127 140 173c55 35 101 65 101 110c0 37 -31 65 -87 65c-49 0 -95 -23 -116 -38l-26 35c30 20 81 48 147 48c83 0 136 -44 136 -109
c0 -79 -79 -120 -150 -165c-52 -33 -85 -58 -85 -108h235z" />
    <glyph glyph-name="threequarters" unicode="&#xbe;" horiz-adv-x="911" 
d="M518 93v39l213 288h69v-283h68v-44h-68v-93h-53v93h-229zM50 317l26 38c23 -14 75 -37 126 -37c58 0 104 31 104 81c0 65 -80 87 -139 87h-21v46h24c56 0 116 22 116 72c0 36 -31 58 -81 58c-48 0 -88 -21 -111 -35l-23 34c13 10 68 46 141 46c85 0 128 -48 128 -99
c0 -38 -25 -77 -84 -96c59 -14 104 -57 104 -114c0 -62 -47 -125 -152 -125c-72 0 -134 30 -158 44zM667 700l-335 -700h-56l335 700h56zM576 137h171v237z" />
    <glyph glyph-name="questiondown" unicode="&#xbf;" horiz-adv-x="503" 
d="M50 155c0 112 97 170 215 200l6 141h49l7 -178c-126 -28 -211 -68 -211 -157c0 -76 63 -115 140 -115c67 0 129 31 177 60l33 -45c-43 -30 -126 -72 -217 -72c-99 0 -199 54 -199 166zM335 700v-103h-79v103h79z" />
    <glyph glyph-name="Agrave" unicode="&#xc0;" horiz-adv-x="678" 
d="M578 0l-68 182h-341l-68 -182h-70l274 700h69l274 -700h-70zM339 637l-149 -399h299zM410 752h-53l-165 128h96z" />
    <glyph glyph-name="Aacute" unicode="&#xc1;" horiz-adv-x="678" 
d="M578 0l-68 182h-341l-68 -182h-70l274 700h69l274 -700h-70zM339 637l-149 -399h299zM323 752h-54l122 128h96z" />
    <glyph glyph-name="Acircumflex" unicode="&#xc2;" horiz-adv-x="678" 
d="M578 0l-68 182h-341l-68 -182h-70l274 700h69l274 -700h-70zM339 637l-149 -399h299zM380 880l98 -128h-50l-88 90l-88 -90h-50l96 128h82z" />
    <glyph glyph-name="Atilde" unicode="&#xc3;" horiz-adv-x="678" 
d="M578 0l-68 182h-341l-68 -182h-70l274 700h69l274 -700h-70zM339 637l-149 -399h299zM229 764l-38 16c24 46 45 77 87 77c49 0 90 -48 122 -48c15 0 27 5 49 46l39 -16c-23 -46 -45 -78 -87 -78c-49 0 -90 49 -122 49c-16 0 -27 -6 -50 -46z" />
    <glyph glyph-name="Adieresis" unicode="&#xc4;" horiz-adv-x="678" 
d="M578 0l-68 182h-341l-68 -182h-70l274 700h69l274 -700h-70zM339 637l-149 -399h299zM222 763v85h72v-85h-72zM386 763v85h71v-85h-71z" />
    <glyph glyph-name="Aring" unicode="&#xc5;" horiz-adv-x="678" 
d="M578 0l-68 182h-341l-68 -182h-70l274 700h69l274 -700h-70zM339 637l-149 -399h299zM240 843c0 57 44 102 101 102c56 0 101 -45 101 -102c0 -56 -45 -101 -101 -101c-57 0 -101 45 -101 101zM280 843c0 -34 26 -60 61 -60c34 0 61 26 61 60c0 35 -27 62 -61 62
c-35 0 -61 -27 -61 -62z" />
    <glyph glyph-name="AE" unicode="&#xc6;" horiz-adv-x="989" 
d="M930 0h-435v182h-299l-123 -182h-76l484 700h442v-57h-362v-265h301v-56h-301v-265h369v-57zM234 238h261v385z" />
    <glyph glyph-name="Ccedilla" unicode="&#xc7;" horiz-adv-x="645" 
d="M223 -150l17 42c21 -10 33 -14 52 -14c34 0 58 15 58 49c0 24 -12 48 -21 62c-139 6 -260 113 -260 361c0 254 128 361 271 361c100 0 189 -55 259 -103l-36 -47c-54 37 -136 91 -221 91c-119 0 -205 -110 -205 -302s86 -302 205 -302c85 0 167 54 221 91l36 -47
c-64 -44 -144 -94 -234 -102c12 -15 31 -44 31 -78c0 -50 -40 -80 -97 -80c-27 0 -53 6 -76 18z" />
    <glyph glyph-name="Egrave" unicode="&#xc8;" horiz-adv-x="595" 
d="M536 0h-433v700h427v-57h-362v-265h300v-56h-300v-265h368v-57zM391 752h-54l-164 128h95z" />
    <glyph glyph-name="Eacute" unicode="&#xc9;" horiz-adv-x="595" 
d="M536 0h-433v700h427v-57h-362v-265h300v-56h-300v-265h368v-57zM303 752h-53l121 128h96z" />
    <glyph glyph-name="Ecircumflex" unicode="&#xca;" horiz-adv-x="595" 
d="M536 0h-433v700h427v-57h-362v-265h300v-56h-300v-265h368v-57zM360 880l98 -128h-51l-88 90l-87 -90h-50l97 128h81z" />
    <glyph glyph-name="Edieresis" unicode="&#xcb;" horiz-adv-x="595" 
d="M536 0h-433v700h427v-57h-362v-265h300v-56h-300v-265h368v-57zM202 762v86h72v-86h-72zM366 762v86h71v-86h-71z" />
    <glyph glyph-name="Igrave" unicode="&#xcc;" horiz-adv-x="271" 
d="M167 0h-65v700h65v-700zM206 752h-54l-164 128h95z" />
    <glyph glyph-name="Iacute" unicode="&#xcd;" horiz-adv-x="271" 
d="M169 0h-65v700h65v-700zM120 752h-54l122 128h96z" />
    <glyph glyph-name="Icircumflex" unicode="&#xce;" horiz-adv-x="271" 
d="M169 0h-66v700h66v-700zM176 880l98 -128h-50l-88 90l-87 -90h-51l98 128h80z" />
    <glyph glyph-name="Idieresis" unicode="&#xcf;" horiz-adv-x="271" 
d="M169 0h-66v700h66v-700zM18 762v86h72v-86h-72zM183 762v86h71v-86h-71z" />
    <glyph glyph-name="Eth" unicode="&#xd0;" horiz-adv-x="704" 
d="M636 350c0 -250 -125 -350 -323 -350h-204v322h-76v56h76v322h204c198 0 323 -100 323 -350zM568 350c0 200 -78 293 -257 293h-137v-265h175v-56h-175v-265h137c179 0 257 93 257 293z" />
    <glyph glyph-name="Ntilde" unicode="&#xd1;" horiz-adv-x="725" 
d="M171 700l386 -603v603h65v-700h-68l-386 603v-603h-65v700h68zM258 765l-38 16c24 46 45 78 87 78c49 0 90 -49 122 -49c16 0 27 6 50 46l38 -16c-23 -46 -45 -78 -87 -78c-49 0 -90 49 -122 49c-16 0 -27 -6 -50 -46z" />
    <glyph glyph-name="Ograve" unicode="&#xd2;" horiz-adv-x="734" 
d="M367 711c218 0 298 -162 298 -361c0 -197 -80 -361 -298 -361s-298 164 -298 361c0 199 80 361 298 361zM367 47c174 0 231 135 231 303c0 167 -57 303 -231 303s-230 -136 -230 -303c0 -168 56 -303 230 -303zM437 752h-53l-164 128h95z" />
    <glyph glyph-name="Oacute" unicode="&#xd3;" horiz-adv-x="734" 
d="M367 711c218 0 298 -162 298 -361c0 -197 -80 -361 -298 -361s-298 164 -298 361c0 199 80 361 298 361zM367 47c174 0 231 135 231 303c0 167 -57 303 -231 303s-230 -136 -230 -303c0 -168 56 -303 230 -303zM350 752h-54l122 128h96z" />
    <glyph glyph-name="Ocircumflex" unicode="&#xd4;" horiz-adv-x="734" 
d="M367 711c218 0 298 -162 298 -361c0 -197 -80 -361 -298 -361s-298 164 -298 361c0 199 80 361 298 361zM367 47c174 0 231 135 231 303c0 167 -57 303 -231 303s-230 -136 -230 -303c0 -168 56 -303 230 -303zM407 880l98 -128h-50l-88 90l-87 -90h-51l97 128h81z" />
    <glyph glyph-name="Otilde" unicode="&#xd5;" horiz-adv-x="734" 
d="M367 711c218 0 298 -162 298 -361c0 -197 -80 -361 -298 -361s-298 164 -298 361c0 199 80 361 298 361zM367 47c174 0 231 135 231 303c0 167 -57 303 -231 303s-230 -136 -230 -303c0 -168 56 -303 230 -303zM256 764l-38 16c24 46 45 77 87 77c49 0 90 -48 122 -48
c16 0 27 5 50 46l38 -16c-23 -46 -45 -78 -87 -78c-49 0 -90 49 -122 49c-16 0 -27 -6 -50 -46z" />
    <glyph glyph-name="Odieresis" unicode="&#xd6;" horiz-adv-x="734" 
d="M367 711c218 0 298 -162 298 -361c0 -197 -80 -361 -298 -361s-298 164 -298 361c0 199 80 361 298 361zM367 47c174 0 231 135 231 303c0 167 -57 303 -231 303s-230 -136 -230 -303c0 -168 56 -303 230 -303zM249 762v86h72v-86h-72zM413 762v86h71v-86h-71z" />
    <glyph glyph-name="multiply" unicode="&#xd7;" horiz-adv-x="607" 
d="M498 473l-155 -139l156 -140l-37 -36l-158 141l-156 -140l-38 37l154 139l-156 140l37 38l158 -143l157 141z" />
    <glyph glyph-name="Oslash" unicode="&#xd8;" horiz-adv-x="731" 
d="M653 700l-63 -86c52 -66 74 -160 74 -264c0 -197 -80 -361 -298 -361c-82 0 -145 23 -191 63l-38 -52h-57l63 85c-53 67 -75 161 -75 265c0 199 80 361 298 361c82 0 145 -24 191 -63l38 52h58zM366 47c174 0 231 135 231 303c0 81 -14 155 -48 209l-336 -456
c35 -35 85 -56 153 -56zM136 350c0 -82 13 -156 47 -210l336 457c-36 35 -86 56 -153 56c-173 0 -230 -136 -230 -303z" />
    <glyph glyph-name="Ugrave" unicode="&#xd9;" horiz-adv-x="700" 
d="M603 700v-453c0 -145 -61 -258 -252 -258c-193 0 -254 113 -254 258v453h65v-453c0 -111 34 -200 189 -200c153 0 187 89 187 200v453h65zM421 752h-53l-164 128h95z" />
    <glyph glyph-name="Uacute" unicode="&#xda;" horiz-adv-x="700" 
d="M603 700v-453c0 -145 -61 -258 -252 -258c-193 0 -254 113 -254 258v453h65v-453c0 -111 34 -200 189 -200c153 0 187 89 187 200v453h65zM333 752h-53l122 128h96z" />
    <glyph glyph-name="Ucircumflex" unicode="&#xdb;" horiz-adv-x="699" 
d="M603 700v-453c0 -145 -61 -258 -252 -258c-193 0 -254 113 -254 258v453h65v-453c0 -111 34 -200 189 -200c153 0 187 89 187 200v453h65zM391 880l98 -128h-50l-88 90l-88 -90h-50l96 128h82z" />
    <glyph glyph-name="Udieresis" unicode="&#xdc;" horiz-adv-x="700" 
d="M603 700v-453c0 -145 -61 -258 -252 -258c-193 0 -254 113 -254 258v453h65v-453c0 -111 34 -200 189 -200c153 0 187 89 187 200v453h65zM232 762v86h71v-86h-71zM396 762v86h72v-86h-72z" />
    <glyph glyph-name="Yacute" unicode="&#xdd;" horiz-adv-x="626" 
d="M280 0v277l-257 423h73l217 -373l216 373h73l-257 -423v-277h-65zM295 752h-53l122 128h96z" />
    <glyph glyph-name="Thorn" unicode="&#xde;" horiz-adv-x="650" 
d="M595 363c0 -161 -113 -212 -254 -212h-173v-151h-65v700h65v-129h173c141 0 254 -49 254 -208zM528 363c0 114 -80 151 -186 151h-174v-306h174c106 0 186 40 186 155z" />
    <glyph glyph-name="germandbls" unicode="&#xdf;" horiz-adv-x="622" 
d="M319 711c128 0 231 -46 231 -222v-5l-51 -33c-21 12 -75 34 -123 34c-54 0 -97 -32 -97 -85c0 -71 75 -89 127 -105c103 -31 166 -75 166 -163c0 -100 -78 -143 -163 -143c-78 0 -156 35 -201 63l28 46c45 -28 112 -58 167 -58c54 0 107 29 107 89c0 72 -77 94 -138 114
c-70 22 -154 52 -154 153c0 91 68 140 156 140c41 0 80 -10 113 -22c-8 114 -75 144 -168 144c-100 0 -169 -34 -169 -168v-490h-62v488c0 177 103 223 231 223z" />
    <glyph glyph-name="agrave" unicode="&#xe0;" horiz-adv-x="570" 
d="M425 0v72c-41 -37 -110 -83 -200 -83c-79 0 -173 41 -173 166c0 122 87 173 179 173c61 0 150 -22 194 -30v66c0 79 -26 120 -116 120c-60 0 -126 -22 -197 -47l-24 49c84 31 160 50 226 50c106 0 173 -46 173 -166v-370h-62zM237 44c79 0 137 37 188 83v129
c-38 7 -112 25 -169 25c-106 0 -139 -59 -139 -124c0 -81 51 -113 120 -113zM359 601h-54l-164 128h96z" />
    <glyph glyph-name="aacute" unicode="&#xe1;" horiz-adv-x="570" 
d="M425 0v72c-41 -37 -110 -83 -200 -83c-79 0 -173 41 -173 166c0 122 87 173 179 173c61 0 150 -22 194 -30v66c0 79 -26 120 -116 120c-60 0 -126 -22 -197 -47l-24 49c84 31 160 50 226 50c106 0 173 -46 173 -166v-370h-62zM237 44c79 0 137 37 188 83v129
c-38 7 -112 25 -169 25c-106 0 -139 -59 -139 -124c0 -81 51 -113 120 -113zM271 601h-53l121 128h97z" />
    <glyph glyph-name="acircumflex" unicode="&#xe2;" horiz-adv-x="570" 
d="M425 0v72c-41 -37 -110 -83 -200 -83c-79 0 -173 41 -173 166c0 122 87 173 179 173c61 0 150 -22 194 -30v66c0 79 -26 120 -116 120c-60 0 -126 -22 -197 -47l-24 49c84 31 160 50 226 50c106 0 173 -46 173 -166v-370h-62zM237 44c79 0 137 37 188 83v129
c-38 7 -112 25 -169 25c-106 0 -139 -59 -139 -124c0 -81 51 -113 120 -113zM329 729l97 -128h-51l-88 90l-87 -90h-50l97 128h82z" />
    <glyph glyph-name="atilde" unicode="&#xe3;" horiz-adv-x="570" 
d="M425 0v72c-41 -37 -110 -83 -200 -83c-79 0 -173 41 -173 166c0 122 87 173 179 173c61 0 150 -22 194 -30v66c0 79 -26 120 -116 120c-60 0 -126 -22 -197 -47l-24 49c84 31 160 50 226 50c106 0 173 -46 173 -166v-370h-62zM237 44c79 0 137 37 188 83v129
c-38 7 -112 25 -169 25c-106 0 -139 -59 -139 -124c0 -81 51 -113 120 -113zM177 613l-38 16c24 46 45 77 87 77c49 0 90 -48 122 -48c16 0 27 5 50 46l38 -16c-23 -46 -45 -78 -87 -78c-49 0 -90 49 -122 49c-16 0 -27 -6 -50 -46z" />
    <glyph glyph-name="adieresis" unicode="&#xe4;" horiz-adv-x="570" 
d="M425 0v72c-41 -37 -110 -83 -200 -83c-79 0 -173 41 -173 166c0 122 87 173 179 173c61 0 150 -22 194 -30v66c0 79 -26 120 -116 120c-60 0 -126 -22 -197 -47l-24 49c84 31 160 50 226 50c106 0 173 -46 173 -166v-370h-62zM237 44c79 0 137 37 188 83v129
c-38 7 -112 25 -169 25c-106 0 -139 -59 -139 -124c0 -81 51 -113 120 -113zM170 611v86h72v-86h-72zM334 611v86h71v-86h-71z" />
    <glyph glyph-name="aring" unicode="&#xe5;" horiz-adv-x="570" 
d="M425 0v72c-41 -37 -110 -83 -200 -83c-79 0 -173 41 -173 166c0 122 87 173 179 173c61 0 150 -22 194 -30v66c0 79 -26 120 -116 120c-60 0 -126 -22 -197 -47l-24 49c84 31 160 50 226 50c106 0 173 -46 173 -166v-370h-62zM237 44c79 0 137 37 188 83v129
c-38 7 -112 25 -169 25c-106 0 -139 -59 -139 -124c0 -81 51 -113 120 -113zM187 692c0 57 44 102 101 102c56 0 101 -45 101 -102c0 -56 -45 -101 -101 -101c-57 0 -101 45 -101 101zM227 692c0 -34 26 -60 61 -60c34 0 61 26 61 60c0 35 -27 62 -61 62
c-35 0 -61 -27 -61 -62z" />
    <glyph glyph-name="ae" unicode="&#xe6;" horiz-adv-x="919" 
d="M852 245h-382c6 -124 71 -204 161 -204c76 0 153 46 198 73l33 -43c-50 -30 -134 -82 -233 -82c-74 0 -142 35 -183 104c-56 -58 -133 -104 -221 -104c-79 0 -173 41 -173 166c0 122 87 173 179 173c59 0 132 -22 175 -34c2 33 8 64 18 90c-5 66 -33 100 -115 100
c-60 0 -126 -22 -197 -47l-24 49c84 31 160 50 226 50c73 0 128 -23 154 -75c43 50 104 75 175 75c142 0 216 -96 216 -226c0 -37 -7 -65 -7 -65zM427 133c-13 33 -21 72 -22 116c-41 11 -101 32 -149 32c-106 0 -139 -59 -139 -124c0 -81 51 -113 120 -113
c78 0 138 39 190 89zM641 485c-99 0 -162 -77 -170 -195h323c4 137 -56 195 -153 195z" />
    <glyph glyph-name="ccedilla" unicode="&#xe7;" horiz-adv-x="522" 
d="M155 -150l18 42c21 -10 32 -14 52 -14c34 0 58 15 58 49c0 25 -13 49 -22 63c-108 10 -203 102 -203 273c0 181 107 273 223 273c83 0 158 -48 196 -70l-31 -47c-25 14 -96 62 -163 62c-89 0 -160 -83 -160 -218s71 -219 160 -219c67 0 138 48 163 62l31 -47
c-36 -22 -103 -63 -180 -69c12 -15 31 -44 31 -78c0 -50 -40 -80 -97 -80c-26 0 -51 6 -76 18z" />
    <glyph glyph-name="egrave" unicode="&#xe8;" horiz-adv-x="572" 
d="M506 245h-382c6 -124 71 -204 161 -204c76 0 153 46 197 73l33 -43c-51 -30 -134 -82 -232 -82c-121 0 -225 93 -225 274c0 178 103 273 238 273c141 0 215 -96 215 -226c0 -37 -5 -65 -5 -65zM295 485c-99 0 -162 -77 -170 -195h323c3 137 -57 195 -153 195zM366 601
h-53l-165 128h97z" />
    <glyph glyph-name="eacute" unicode="&#xe9;" horiz-adv-x="572" 
d="M506 245h-382c6 -124 71 -204 161 -204c76 0 153 46 197 73l33 -43c-51 -30 -134 -82 -232 -82c-121 0 -225 93 -225 274c0 178 103 273 238 273c141 0 215 -96 215 -226c0 -37 -5 -65 -5 -65zM295 485c-99 0 -162 -77 -170 -195h323c3 137 -57 195 -153 195zM279 601
h-53l120 128h98z" />
    <glyph glyph-name="ecircumflex" unicode="&#xea;" horiz-adv-x="572" 
d="M506 245h-382c6 -124 71 -204 161 -204c76 0 153 46 197 73l33 -43c-51 -30 -134 -82 -232 -82c-121 0 -225 93 -225 274c0 178 103 273 238 273c141 0 215 -96 215 -226c0 -37 -5 -65 -5 -65zM295 485c-99 0 -162 -77 -170 -195h323c3 137 -57 195 -153 195zM336 729
l98 -128h-51l-88 90l-87 -90h-50l97 128h81z" />
    <glyph glyph-name="edieresis" unicode="&#xeb;" horiz-adv-x="572" 
d="M506 245h-382c6 -124 71 -204 161 -204c76 0 153 46 197 73l33 -43c-51 -30 -134 -82 -232 -82c-121 0 -225 93 -225 274c0 178 103 273 238 273c141 0 215 -96 215 -226c0 -37 -5 -65 -5 -65zM295 485c-99 0 -162 -77 -170 -195h323c3 137 -57 195 -153 195zM178 611v86
h72v-86h-72zM342 611v86h71v-86h-71z" />
    <glyph glyph-name="igrave" unicode="&#xec;" horiz-adv-x="238" 
d="M151 0h-63v525h63v-525zM190 601h-53l-165 128h96z" />
    <glyph glyph-name="iacute" unicode="&#xed;" horiz-adv-x="238" 
d="M150 0h-62v525h62v-525zM103 601h-54l122 128h96z" />
    <glyph glyph-name="icircumflex" unicode="&#xee;" horiz-adv-x="238" 
d="M150 0h-62v525h62v-525zM159 729l98 -128h-50l-88 90l-87 -90h-51l97 128h81z" />
    <glyph glyph-name="idieresis" unicode="&#xef;" horiz-adv-x="238" 
d="M150 0h-62v525h62v-525zM1 611v86h72v-86h-72zM165 611v86h72v-86h-72z" />
    <glyph glyph-name="eth" unicode="&#xf0;" horiz-adv-x="603" 
d="M232 569h-73l96 72c-17 4 -36 6 -55 6c-42 0 -74 -9 -74 -9l-13 50s36 12 88 12c38 0 74 -7 107 -19l64 48h75l-92 -69c115 -64 187 -204 187 -381c0 -224 -115 -290 -240 -290c-151 0 -243 96 -243 243s91 244 228 244c132 0 183 -82 183 -82c-19 85 -72 185 -165 229z
M477 233c0 120 -62 190 -176 190c-116 0 -177 -79 -177 -191c0 -115 63 -190 177 -190c109 0 176 70 176 191z" />
    <glyph glyph-name="ntilde" unicode="&#xf1;" 
d="M150 525v-78c37 28 129 89 221 89c114 0 146 -76 146 -160v-376h-62v366c0 65 -20 117 -98 117c-79 0 -172 -61 -207 -93v-390h-62v525h62zM192 604l-39 16c24 46 45 78 87 78c49 0 90 -49 122 -49c16 0 28 6 50 46l38 -16c-22 -46 -45 -78 -87 -78c-49 0 -90 49 -122 49
c-15 0 -27 -6 -49 -46z" />
    <glyph glyph-name="ograve" unicode="&#xf2;" horiz-adv-x="595" 
d="M536 262c0 -169 -84 -273 -239 -273c-156 0 -239 104 -239 273s83 274 239 274c155 0 239 -105 239 -274zM472 262c0 133 -52 221 -175 221s-174 -88 -174 -221s51 -220 174 -220s175 87 175 220zM368 601h-53l-165 128h95z" />
    <glyph glyph-name="oacute" unicode="&#xf3;" horiz-adv-x="595" 
d="M536 262c0 -169 -84 -273 -239 -273c-156 0 -239 104 -239 273s83 274 239 274c155 0 239 -105 239 -274zM472 262c0 133 -52 221 -175 221s-174 -88 -174 -221s51 -220 174 -220s175 87 175 220zM281 601h-54l121 128h96z" />
    <glyph glyph-name="ocircumflex" unicode="&#xf4;" horiz-adv-x="595" 
d="M536 262c0 -169 -84 -273 -239 -273c-156 0 -239 104 -239 273s83 274 239 274c155 0 239 -105 239 -274zM472 262c0 133 -52 221 -175 221s-174 -88 -174 -221s51 -220 174 -220s175 87 175 220zM338 729l98 -128h-51l-88 90l-87 -90h-50l97 128h81z" />
    <glyph glyph-name="otilde" unicode="&#xf5;" horiz-adv-x="595" 
d="M536 262c0 -169 -84 -273 -239 -273c-156 0 -239 104 -239 273s83 274 239 274c155 0 239 -105 239 -274zM472 262c0 133 -52 221 -175 221s-174 -88 -174 -221s51 -220 174 -220s175 87 175 220zM187 613l-38 14c22 45 40 78 82 78c47 0 92 -41 127 -42c16 0 30 3 49 39
l38 -14c-21 -44 -41 -78 -83 -78c-45 0 -91 41 -126 42c-17 0 -30 -4 -49 -39z" />
    <glyph glyph-name="odieresis" unicode="&#xf6;" horiz-adv-x="595" 
d="M536 262c0 -169 -84 -273 -239 -273c-156 0 -239 104 -239 273s83 274 239 274c155 0 239 -105 239 -274zM472 262c0 133 -52 221 -175 221s-174 -88 -174 -221s51 -220 174 -220s175 87 175 220zM180 611v86h72v-86h-72zM344 611v86h71v-86h-71z" />
    <glyph glyph-name="divide" unicode="&#xf7;" horiz-adv-x="607" 
d="M55 307v52h498v-52h-498zM251 500c0 27 25 49 54 49c28 0 53 -22 53 -49s-25 -50 -53 -50c-29 0 -54 23 -54 50zM251 167c0 27 25 50 54 50c28 0 53 -23 53 -50s-25 -49 -53 -49c-29 0 -54 22 -54 49z" />
    <glyph glyph-name="oslash" unicode="&#xf8;" horiz-adv-x="593" 
d="M524 525l-49 -64c40 -47 61 -115 61 -199c0 -169 -84 -273 -239 -273c-61 0 -110 15 -148 44l-26 -33h-55l49 64c-40 47 -60 114 -60 198c0 169 84 274 240 274c60 0 109 -16 147 -45l26 34h54zM471 262c0 60 -11 111 -34 149l-253 -332c27 -24 64 -37 113 -37
c123 0 174 87 174 220zM122 262c0 -60 10 -111 33 -148l254 331c-28 24 -64 38 -112 38c-124 0 -175 -88 -175 -221z" />
    <glyph glyph-name="ugrave" unicode="&#xf9;" 
d="M451 0v77c-37 -28 -130 -88 -222 -88c-113 0 -145 76 -145 160v376h62v-366c0 -65 20 -117 98 -117c77 0 170 61 207 92v391h62v-525h-62zM369 601h-53l-165 128h95z" />
    <glyph glyph-name="uacute" unicode="&#xfa;" 
d="M451 0v77c-37 -28 -130 -88 -222 -88c-113 0 -145 76 -145 160v376h62v-366c0 -65 20 -117 98 -117c77 0 170 61 207 92v391h62v-525h-62zM281 601h-54l122 128h96z" />
    <glyph glyph-name="ucircumflex" unicode="&#xfb;" 
d="M451 0v77c-37 -28 -130 -88 -222 -88c-113 0 -145 76 -145 160v376h62v-366c0 -65 20 -117 98 -117c77 0 170 61 207 92v391h62v-525h-62zM338 729l98 -128h-50l-88 90l-87 -90h-50l96 128h81z" />
    <glyph glyph-name="udieresis" unicode="&#xfc;" 
d="M451 0v77c-37 -28 -130 -88 -222 -88c-113 0 -145 76 -145 160v376h62v-366c0 -65 20 -117 98 -117c77 0 170 61 207 92v391h62v-525h-62zM180 611v86h72v-86h-72zM345 611v86h71v-86h-71z" />
    <glyph glyph-name="yacute" unicode="&#xfd;" horiz-adv-x="548" 
d="M32 525h69l173 -450l173 450h70l-297 -729h-69l92 207zM258 601h-54l121 128h96z" />
    <glyph glyph-name="thorn" unicode="&#xfe;" horiz-adv-x="597" 
d="M339 -11c-85 0 -149 44 -189 82v-275h-62v933h62v-276c40 38 104 83 189 83c107 0 198 -77 198 -274c0 -196 -91 -273 -198 -273zM332 482c-74 0 -140 -42 -182 -90v-260c42 -47 108 -89 182 -89c93 0 141 84 141 219c0 136 -48 220 -141 220z" />
    <glyph glyph-name="ydieresis" unicode="&#xff;" horiz-adv-x="548" 
d="M32 525h69l173 -450l173 450h70l-297 -729h-69l92 207zM157 611v86h72v-86h-72zM321 611v86h71v-86h-71z" />
    <glyph glyph-name="Amacron" unicode="&#x100;" horiz-adv-x="678" 
d="M578 0l-68 182h-341l-68 -182h-70l274 700h69l274 -700h-70zM339 637l-149 -399h299zM196 777v46h287v-46h-287z" />
    <glyph glyph-name="amacron" unicode="&#x101;" horiz-adv-x="570" 
d="M425 0v72c-41 -37 -110 -83 -200 -83c-79 0 -173 41 -173 166c0 122 87 173 179 173c61 0 150 -22 194 -30v66c0 79 -26 120 -116 120c-60 0 -126 -22 -197 -47l-24 49c84 31 160 50 226 50c106 0 173 -46 173 -166v-370h-62zM237 44c79 0 137 37 188 83v129
c-38 7 -112 25 -169 25c-106 0 -139 -59 -139 -124c0 -81 51 -113 120 -113zM144 627v46h287v-46h-287z" />
    <glyph glyph-name="Abreve" unicode="&#x102;" horiz-adv-x="678" 
d="M578 0l-68 182h-341l-68 -182h-70l274 700h69l274 -700h-70zM339 637l-149 -399h299zM339 752c-86 0 -136 40 -136 103h50c0 -41 33 -57 86 -57c52 0 87 16 87 57h49c0 -63 -51 -103 -136 -103z" />
    <glyph glyph-name="abreve" unicode="&#x103;" horiz-adv-x="570" 
d="M425 0v72c-41 -37 -110 -83 -200 -83c-79 0 -173 41 -173 166c0 122 87 173 179 173c61 0 150 -22 194 -30v66c0 79 -26 120 -116 120c-60 0 -126 -22 -197 -47l-24 49c84 31 160 50 226 50c106 0 173 -46 173 -166v-370h-62zM237 44c79 0 137 37 188 83v129
c-38 7 -112 25 -169 25c-106 0 -139 -59 -139 -124c0 -81 51 -113 120 -113zM288 601c-85 0 -135 40 -135 103h49c0 -41 34 -57 86 -57c53 0 87 16 87 57h49c0 -63 -50 -103 -136 -103z" />
    <glyph glyph-name="Aogonek" unicode="&#x104;" horiz-adv-x="678" 
d="M578 0l-68 182h-341l-68 -182h-70l274 700h69l274 -700h-3c-37 -22 -99 -53 -99 -96c0 -44 51 -39 81 -39l-10 -44c-34 0 -126 -1 -126 75c0 42 45 78 99 104h-12zM339 637l-149 -399h299z" />
    <glyph glyph-name="aogonek" unicode="&#x105;" horiz-adv-x="570" 
d="M425 0v72c-41 -37 -110 -83 -200 -83c-79 0 -173 41 -173 166c0 122 87 173 179 173c61 0 150 -22 194 -30v66c0 79 -26 120 -116 120c-60 0 -126 -22 -197 -47l-24 49c84 31 160 50 226 50c106 0 173 -46 173 -166v-370h-3c-38 -22 -100 -53 -100 -96
c0 -44 52 -39 81 -39l-9 -44c-35 0 -127 -1 -127 75c0 42 45 78 100 104h-4zM237 44c79 0 137 37 188 83v129c-38 7 -112 25 -169 25c-106 0 -139 -59 -139 -124c0 -81 51 -113 120 -113z" />
    <glyph glyph-name="Cacute" unicode="&#x106;" horiz-adv-x="645" 
d="M599 608l-36 -47c-54 37 -136 91 -221 91c-119 0 -205 -110 -205 -302s86 -302 205 -302c85 0 167 54 221 91l36 -47c-70 -48 -159 -103 -259 -103c-143 0 -271 107 -271 361s128 361 271 361c100 0 189 -55 259 -103zM360 752h-53l122 128h96z" />
    <glyph glyph-name="cacute" unicode="&#x107;" horiz-adv-x="521" 
d="M477 466l-31 -47c-25 14 -96 62 -163 62c-89 0 -160 -83 -160 -218s71 -219 160 -219c67 0 138 48 163 62l31 -47c-38 -23 -113 -70 -196 -70c-116 0 -223 93 -223 274s107 273 223 273c83 0 158 -48 196 -70zM266 601h-54l122 128h96z" />
    <glyph glyph-name="Cdotaccent" unicode="&#x10a;" horiz-adv-x="645" 
d="M599 608l-36 -47c-54 37 -136 91 -221 91c-119 0 -205 -110 -205 -302s86 -302 205 -302c85 0 167 54 221 91l36 -47c-70 -48 -159 -103 -259 -103c-143 0 -271 107 -271 361s128 361 271 361c100 0 189 -55 259 -103zM309 762v86h72v-86h-72z" />
    <glyph glyph-name="cdotaccent" unicode="&#x10b;" horiz-adv-x="521" 
d="M477 466l-31 -47c-25 14 -96 62 -163 62c-89 0 -160 -83 -160 -218s71 -219 160 -219c67 0 138 48 163 62l31 -47c-38 -23 -113 -70 -196 -70c-116 0 -223 93 -223 274s107 273 223 273c83 0 158 -48 196 -70zM247 612v86h72v-86h-72z" />
    <glyph glyph-name="Ccaron" unicode="&#x10c;" horiz-adv-x="645" 
d="M599 608l-36 -47c-54 37 -136 91 -221 91c-119 0 -205 -110 -205 -302s86 -302 205 -302c85 0 167 54 221 91l36 -47c-70 -48 -159 -103 -259 -103c-143 0 -271 107 -271 361s128 361 271 361c100 0 189 -55 259 -103zM493 880l-98 -128h-81l-97 128h51l87 -89l88 89h50z
" />
    <glyph glyph-name="ccaron" unicode="&#x10d;" horiz-adv-x="521" 
d="M477 466l-31 -47c-25 14 -96 62 -163 62c-89 0 -160 -83 -160 -218s71 -219 160 -219c67 0 138 48 163 62l31 -47c-38 -23 -113 -70 -196 -70c-116 0 -223 93 -223 274s107 273 223 273c83 0 158 -48 196 -70zM421 729l-97 -128h-82l-97 128h50l87 -89l88 89h51z" />
    <glyph glyph-name="Dcaron" unicode="&#x10e;" horiz-adv-x="700" 
d="M631 350c0 -250 -125 -350 -323 -350h-205v700h205c198 0 323 -100 323 -350zM562 350c0 200 -78 293 -256 293h-138v-586h138c178 0 256 93 256 293zM506 880l-98 -128h-82l-97 128h50l87 -89l89 89h51z" />
    <glyph glyph-name="dcaron" unicode="&#x10f;" horiz-adv-x="613" 
d="M509 0h-62v71c-41 -38 -105 -82 -189 -82c-108 0 -199 77 -199 273c0 197 91 274 199 274c84 0 148 -45 189 -83v276h62v-729zM265 43c73 0 139 42 182 89v260c-43 48 -109 90 -182 90c-94 0 -141 -84 -141 -220c0 -135 47 -219 141 -219zM571 640v89h70l11 -91l-64 -108
l-23 23l40 87h-34z" />
    <glyph glyph-name="Dcroat" unicode="&#x110;" horiz-adv-x="704" 
d="M636 350c0 -250 -125 -350 -323 -350h-204v322h-76v56h76v322h204c198 0 323 -100 323 -350zM568 350c0 200 -78 293 -257 293h-137v-265h175v-56h-175v-265h137c179 0 257 93 257 293z" />
    <glyph glyph-name="dcroat" unicode="&#x111;" horiz-adv-x="597" 
d="M278 599v46h169v84h62v-84h67v-46h-67v-599h-62v71c-41 -38 -105 -82 -189 -82c-108 0 -199 77 -199 273c0 197 91 274 199 274c84 0 148 -45 189 -83v146h-169zM265 43c73 0 139 42 182 89v260c-43 48 -109 90 -182 90c-94 0 -141 -84 -141 -220
c0 -135 47 -219 141 -219z" />
    <glyph glyph-name="Emacron" unicode="&#x112;" horiz-adv-x="595" 
d="M536 0h-433v700h427v-57h-362v-265h300v-56h-300v-265h368v-57zM176 777v46h287v-46h-287z" />
    <glyph glyph-name="emacron" unicode="&#x113;" horiz-adv-x="572" 
d="M506 245h-382c6 -124 71 -204 161 -204c76 0 153 46 197 73l33 -43c-51 -30 -134 -82 -232 -82c-121 0 -225 93 -225 274c0 178 103 273 238 273c141 0 215 -96 215 -226c0 -37 -5 -65 -5 -65zM295 485c-99 0 -162 -77 -170 -195h323c3 137 -57 195 -153 195zM154 626v46
h287v-46h-287z" />
    <glyph glyph-name="Edotaccent" unicode="&#x116;" horiz-adv-x="595" 
d="M536 0h-433v700h427v-57h-362v-265h300v-56h-300v-265h368v-57zM284 762v86h72v-86h-72z" />
    <glyph glyph-name="edotaccent" unicode="&#x117;" horiz-adv-x="572" 
d="M506 245h-382c6 -124 71 -204 161 -204c76 0 153 46 197 73l33 -43c-51 -30 -134 -82 -232 -82c-121 0 -225 93 -225 274c0 178 103 273 238 273c141 0 215 -96 215 -226c0 -37 -5 -65 -5 -65zM295 485c-99 0 -162 -77 -170 -195h323c3 137 -57 195 -153 195zM260 611v86
h71v-86h-71z" />
    <glyph glyph-name="Eogonek" unicode="&#x118;" horiz-adv-x="595" 
d="M435 -96c0 -44 50 -39 80 -39l-10 -44c-34 0 -125 -1 -125 75c0 42 44 78 98 104h-375v700h427v-57h-362v-265h300v-56h-300v-265h368v-57h-3c-37 -22 -98 -53 -98 -96z" />
    <glyph glyph-name="eogonek" unicode="&#x119;" horiz-adv-x="573" 
d="M259 -96c0 -44 52 -39 82 -39l-10 -44c-35 0 -126 -1 -126 75c0 36 33 68 78 93c-121 0 -225 93 -225 274c0 178 103 273 238 273c141 0 215 -96 215 -226c0 -37 -5 -65 -5 -65h-382c6 -124 71 -204 161 -204c76 0 153 46 197 73l33 -43c-38 -22 -93 -57 -159 -73
c-38 -22 -97 -52 -97 -94zM295 485c-99 0 -162 -77 -170 -195h323c3 137 -57 195 -153 195z" />
    <glyph glyph-name="Ecaron" unicode="&#x11a;" horiz-adv-x="595" 
d="M536 0h-433v700h427v-57h-362v-265h300v-56h-300v-265h368v-57zM458 871l-98 -127h-81l-97 127h50l87 -89l88 89h51z" />
    <glyph glyph-name="ecaron" unicode="&#x11b;" horiz-adv-x="572" 
d="M506 245h-382c6 -124 71 -204 161 -204c76 0 153 46 197 73l33 -43c-51 -30 -134 -82 -232 -82c-121 0 -225 93 -225 274c0 178 103 273 238 273c141 0 215 -96 215 -226c0 -37 -5 -65 -5 -65zM295 485c-99 0 -162 -77 -170 -195h323c3 137 -57 195 -153 195zM434 729
l-98 -128h-81l-97 128h50l87 -89l88 89h51z" />
    <glyph glyph-name="Gbreve" unicode="&#x11e;" horiz-adv-x="702" 
d="M559 0v86c-57 -49 -131 -97 -222 -97c-140 0 -268 107 -268 361s129 361 271 361c108 0 201 -58 271 -110l-38 -48c-53 37 -139 99 -230 99c-119 0 -206 -110 -206 -302c0 -189 85 -304 206 -304c91 0 176 73 216 109v165h-202v55h267v-375h-65zM346 752
c-85 0 -135 40 -135 103h49c0 -41 34 -57 86 -57c53 0 87 16 87 57h49c0 -63 -50 -103 -136 -103z" />
    <glyph glyph-name="gbreve" unicode="&#x11f;" horiz-adv-x="597" 
d="M297 601c-85 0 -136 40 -136 103h50c0 -41 34 -57 86 -57c53 0 87 16 87 57h50c0 -63 -51 -103 -137 -103zM447 525h62v-565c0 -133 -84 -174 -191 -174c-66 0 -160 15 -235 36l15 56c77 -22 159 -38 215 -38c86 0 134 33 134 119v112c-41 -38 -105 -82 -189 -82
c-108 0 -199 77 -199 273c0 197 91 274 199 274c84 0 148 -45 189 -83v72zM265 43c73 0 139 42 182 89v260c-43 48 -109 90 -182 90c-94 0 -141 -84 -141 -220c0 -135 47 -219 141 -219z" />
    <glyph glyph-name="Gdotaccent" unicode="&#x120;" horiz-adv-x="702" 
d="M559 0v86c-57 -49 -131 -97 -222 -97c-140 0 -268 107 -268 361s129 361 271 361c108 0 201 -58 271 -110l-38 -48c-53 37 -139 99 -230 99c-119 0 -206 -110 -206 -302c0 -189 85 -304 206 -304c91 0 176 73 216 109v165h-202v55h267v-375h-65zM310 762v86h72v-86h-72z
" />
    <glyph glyph-name="gdotaccent" unicode="&#x121;" horiz-adv-x="597" 
d="M260 611v86h72v-86h-72zM447 525h62v-565c0 -133 -84 -174 -191 -174c-66 0 -160 15 -235 36l15 56c77 -22 159 -38 215 -38c86 0 134 33 134 119v112c-41 -38 -105 -82 -189 -82c-108 0 -199 77 -199 273c0 197 91 274 199 274c84 0 148 -45 189 -83v72zM265 43
c73 0 139 42 182 89v260c-43 48 -109 90 -182 90c-94 0 -141 -84 -141 -220c0 -135 47 -219 141 -219z" />
    <glyph glyph-name="Gcommaaccent" unicode="&#x122;" horiz-adv-x="702" 
d="M559 0v86c-57 -49 -131 -97 -222 -97c-140 0 -268 107 -268 361s129 361 271 361c108 0 201 -58 271 -110l-38 -48c-53 37 -139 99 -230 99c-119 0 -206 -110 -206 -302c0 -189 85 -304 206 -304c91 0 176 73 216 109v165h-202v55h267v-375h-65zM332 -154v89h70l10 -91
l-64 -108l-24 23l42 87h-34z" />
    <glyph glyph-name="gcommaaccent" unicode="&#x123;" horiz-adv-x="597" 
d="M332 701v-90h-70l-10 92l64 109l23 -23l-40 -88h33zM447 525h62v-565c0 -133 -84 -174 -191 -174c-66 0 -160 15 -235 36l15 56c77 -22 159 -38 215 -38c86 0 134 33 134 119v112c-41 -38 -105 -82 -189 -82c-108 0 -199 77 -199 273c0 197 91 274 199 274
c84 0 148 -45 189 -83v72zM265 43c73 0 139 42 182 89v260c-43 48 -109 90 -182 90c-94 0 -141 -84 -141 -220c0 -135 47 -219 141 -219z" />
    <glyph glyph-name="Hbar" unicode="&#x126;" horiz-adv-x="719" 
d="M546 0v339h-373v-339h-65v521h-76v46h76v133h65v-133h373v133h65v-133h75v-46h-75v-521h-65zM173 521v-126h373v126h-373z" />
    <glyph glyph-name="hbar" unicode="&#x127;" 
d="M21 599v46h67v84h62v-84h170v-46h-170v-152c37 28 129 89 222 89c114 0 146 -76 146 -160v-376h-63v366c0 65 -20 117 -98 117c-79 0 -170 -61 -207 -93v-390h-62v599h-67z" />
    <glyph glyph-name="Itilde" unicode="&#x128;" horiz-adv-x="271" 
d="M26 764l-39 16c24 46 45 77 87 77c49 0 90 -48 122 -48c16 0 28 5 50 46l38 -16c-22 -46 -45 -78 -87 -78c-49 0 -90 49 -122 49c-15 0 -27 -6 -49 -46zM168 0h-65v700h65v-700z" />
    <glyph glyph-name="itilde" unicode="&#x129;" horiz-adv-x="238" 
d="M8 613l-38 16c24 46 45 77 87 77c49 0 90 -48 122 -48c16 0 27 5 50 46l38 -16c-23 -46 -45 -78 -87 -78c-49 0 -90 49 -122 49c-16 0 -27 -6 -50 -46zM150 0h-63v525h63v-525z" />
    <glyph glyph-name="Imacron" unicode="&#x12a;" horiz-adv-x="271" 
d="M169 0h-66v700h66v-700zM-8 777v46h287v-46h-287z" />
    <glyph glyph-name="imacron" unicode="&#x12b;" horiz-adv-x="238" 
d="M150 0h-63v525h63v-525zM-25 626v46h287v-46h-287z" />
    <glyph glyph-name="Ibreve" unicode="&#x12c;" horiz-adv-x="271" 
d="M135 752c-86 0 -135 40 -135 103h49c0 -41 34 -57 86 -57s87 16 87 57h49c0 -63 -50 -103 -136 -103zM168 0h-66v700h66v-700z" />
    <glyph glyph-name="ibreve" unicode="&#x12d;" horiz-adv-x="238" 
d="M119 601c-86 0 -135 40 -135 103h49c0 -41 33 -57 86 -57c52 0 87 16 87 57h49c0 -63 -51 -103 -136 -103zM150 0h-62v525h62v-525z" />
    <glyph glyph-name="Iogonek" unicode="&#x12e;" horiz-adv-x="271" 
d="M66 -96c0 -44 51 -39 81 -39l-9 -44c-36 0 -127 -1 -127 75c0 42 45 78 99 104h-6v700h65v-700h-3c-38 -22 -100 -53 -100 -96z" />
    <glyph glyph-name="iogonek" unicode="&#x12f;" horiz-adv-x="238" 
d="M46 -96c0 -44 51 -39 81 -39l-9 -44c-35 0 -126 -1 -126 75c0 42 45 78 98 104h-3v525h62v-525h-3c-38 -22 -100 -53 -100 -96zM82 639v87h72v-87h-72z" />
    <glyph glyph-name="Idotaccent" unicode="&#x130;" horiz-adv-x="271" 
d="M168 0h-65v700h65v-700zM100 762v86h72v-86h-72z" />
    <glyph glyph-name="dotlessi" unicode="&#x131;" horiz-adv-x="238" 
d="M150 0h-62v525h62v-525z" />
    <glyph glyph-name="IJ" unicode="&#x132;" horiz-adv-x="542" 
d="M168 0h-65v700h65v-700zM438 700v-661c0 -102 0 -135 -160 -177l-23 51c118 38 118 48 118 124v663h65z" />
    <glyph glyph-name="ij" unicode="&#x133;" horiz-adv-x="475" 
d="M324 639v87h71v-87h-71zM391 525v-556c0 -102 0 -135 -159 -177l-21 49c117 38 117 47 117 126v558h63zM151 0h-62v525h62v-525zM84 639v87h72v-87h-72z" />
    <glyph glyph-name="Jcircumflex" unicode="&#x134;" horiz-adv-x="272" 
d="M168 700v-661c0 -102 0 -135 -161 -177l-22 51c117 38 117 48 117 124v663h66zM175 880l98 -128h-50l-88 90l-87 -90h-51l97 128h81z" />
    <glyph glyph-name="jcircumflex" unicode="&#x135;" horiz-adv-x="238" 
d="M150 525v-556c0 -102 0 -135 -159 -177l-21 49c117 38 117 47 117 126v558h63zM159 729l98 -128h-50l-88 90l-88 -90h-50l96 128h82z" />
    <glyph glyph-name="Kcommaaccent" unicode="&#x136;" horiz-adv-x="645" 
d="M103 0v700h65v-414l348 414h77l-286 -338l320 -362h-80l-278 317l-101 -120v-197h-65zM287 -154v89h70l10 -91l-65 -108l-23 23l41 87h-33z" />
    <glyph glyph-name="kcommaaccent" unicode="&#x137;" horiz-adv-x="512" 
d="M459 525l-177 -213l210 -312h-67l-182 266l-93 -112v-154h-62v729h62v-499l238 295h71zM232 -154v89h70l10 -91l-63 -108l-24 23l41 87h-34z" />
    <glyph glyph-name="kgreenlandic" unicode="&#x138;" horiz-adv-x="512" 
d="M459 525l-177 -213l210 -312h-67l-182 266l-93 -112v-154h-62v525h62v-295l238 295h71z" />
    <glyph glyph-name="Lacute" unicode="&#x139;" horiz-adv-x="549" 
d="M521 0h-417v700h65v-643h352v-57zM120 752h-54l122 128h96z" />
    <glyph glyph-name="lacute" unicode="&#x13a;" horiz-adv-x="248" 
d="M155 0h-63v729h63v-729zM107 782h-53l121 127h96z" />
    <glyph glyph-name="Lcommaaccent" unicode="&#x13b;" horiz-adv-x="548" 
d="M275 -154v89h70l10 -91l-64 -108l-24 23l42 87h-34zM519 0h-416v700h65v-643h351v-57z" />
    <glyph glyph-name="lcommaaccent" unicode="&#x13c;" horiz-adv-x="248" 
d="M89 -154v89h70l10 -91l-64 -108l-23 23l40 87h-33zM155 0h-63v729h63v-729z" />
    <glyph glyph-name="Lcaron" unicode="&#x13d;" horiz-adv-x="548" 
d="M231 611v89h70l10 -91l-64 -108l-22 23l40 87h-34zM519 0h-416v700h65v-643h351v-57z" />
    <glyph glyph-name="lcaron" unicode="&#x13e;" horiz-adv-x="260" 
d="M218 640v89h70l10 -91l-64 -108l-23 23l41 87h-34zM155 0h-62v729h62v-729z" />
    <glyph glyph-name="Ldot" unicode="&#x13f;" horiz-adv-x="550" 
d="M519 0h-416v700h65v-643h351v-57zM384 319v85h72v-85h-72z" />
    <glyph glyph-name="ldot" unicode="&#x140;" horiz-adv-x="269" 
d="M155 0h-62v729h62v-729zM218 319v85h72v-85h-72z" />
    <glyph glyph-name="Lslash" unicode="&#x141;" horiz-adv-x="555" 
d="M526 0h-416v281l-75 -41v65l75 41v354h65v-318l137 76v-66l-137 -76v-259h351v-57z" />
    <glyph glyph-name="lslash" unicode="&#x142;" horiz-adv-x="267" 
d="M166 0h-63v314l-70 -38v65l70 39v349h63v-314l69 38v-66l-69 -38v-349z" />
    <glyph glyph-name="Nacute" unicode="&#x143;" horiz-adv-x="725" 
d="M554 0l-386 603v-603h-65v700h68l386 -603v603h65v-700h-68zM351 752h-53l122 128h96z" />
    <glyph glyph-name="nacute" unicode="&#x144;" 
d="M150 525v-78c37 28 129 89 221 89c114 0 146 -76 146 -160v-376h-62v366c0 65 -20 117 -98 117c-79 0 -172 -61 -207 -93v-390h-62v525h62zM285 601h-54l122 128h96z" />
    <glyph glyph-name="Ncommaaccent" unicode="&#x145;" horiz-adv-x="725" 
d="M171 700l386 -603v603h65v-700h-68l-386 603v-603h-65v700h68zM333 -154v89h70l11 -91l-65 -108l-23 23l40 87h-33z" />
    <glyph glyph-name="ncommaaccent" unicode="&#x146;" 
d="M150 525v-78c37 28 129 89 221 89c114 0 146 -76 146 -160v-376h-62v366c0 65 -20 117 -98 117c-79 0 -172 -61 -207 -93v-390h-62v525h62zM266 -154v89h70l11 -91l-64 -108l-24 23l41 87h-34z" />
    <glyph glyph-name="Ncaron" unicode="&#x147;" horiz-adv-x="725" 
d="M554 0l-386 603v-603h-65v700h68l386 -603v603h65v-700h-68zM507 880l-98 -128h-82l-97 128h51l87 -89l89 89h50z" />
    <glyph glyph-name="ncaron" unicode="&#x148;" 
d="M150 525v-78c37 28 129 89 221 89c114 0 146 -76 146 -160v-376h-62v366c0 65 -20 117 -98 117c-79 0 -172 -61 -207 -93v-390h-62v525h62zM438 729l-98 -128h-82l-97 128h50l87 -89l89 89h51z" />
    <glyph glyph-name="napostrophe" unicode="&#x149;" horiz-adv-x="600" 
d="M149 525v-77c38 29 130 88 221 88c115 0 145 -76 145 -160v-376h-62v366c0 65 -20 117 -98 117c-77 0 -169 -61 -206 -93v-390h-62v525h62zM87 690v89h70l9 -92l-64 -107l-22 23l40 87h-33z" />
    <glyph glyph-name="Eng" unicode="&#x14a;" horiz-adv-x="725" 
d="M622 700v-666c0 -99 -1 -130 -159 -172l-24 51c94 30 113 42 117 84l-388 606v-603h-65v700h68l386 -603v603h65z" />
    <glyph glyph-name="eng" unicode="&#x14b;" 
d="M517 376v-408c0 -102 0 -133 -159 -176l-21 49c118 39 118 46 118 126v399c0 65 -20 117 -98 117c-79 0 -172 -61 -207 -93v-390h-62v525h62v-78c37 28 129 89 221 89c114 0 146 -76 146 -160z" />
    <glyph glyph-name="Omacron" unicode="&#x14c;" horiz-adv-x="734" 
d="M367 711c218 0 298 -162 298 -361c0 -197 -80 -361 -298 -361s-298 164 -298 361c0 199 80 361 298 361zM367 47c174 0 231 135 231 303c0 167 -57 303 -231 303s-230 -136 -230 -303c0 -168 56 -303 230 -303zM223 777v46h287v-46h-287z" />
    <glyph glyph-name="omacron" unicode="&#x14d;" horiz-adv-x="595" 
d="M536 262c0 -169 -84 -273 -239 -273c-156 0 -239 104 -239 273s83 274 239 274c155 0 239 -105 239 -274zM472 262c0 133 -52 221 -175 221s-174 -88 -174 -221s51 -220 174 -220s175 87 175 220zM154 626v46h287v-46h-287z" />
    <glyph glyph-name="Obreve" unicode="&#x14e;" horiz-adv-x="734" 
d="M367 711c218 0 298 -162 298 -361c0 -197 -80 -361 -298 -361s-298 164 -298 361c0 199 80 361 298 361zM367 47c174 0 231 135 231 303c0 167 -57 303 -231 303s-230 -136 -230 -303c0 -168 56 -303 230 -303zM367 752c-86 0 -136 40 -136 103h49c0 -41 34 -57 87 -57
c52 0 87 16 87 57h49c0 -63 -51 -103 -136 -103z" />
    <glyph glyph-name="obreve" unicode="&#x14f;" horiz-adv-x="595" 
d="M536 262c0 -169 -84 -273 -239 -273c-156 0 -239 104 -239 273s83 274 239 274c155 0 239 -105 239 -274zM472 262c0 133 -52 221 -175 221s-174 -88 -174 -221s51 -220 174 -220s175 87 175 220zM297 601c-85 0 -136 40 -136 103h49c0 -41 35 -57 87 -57
c53 0 87 16 87 57h49c0 -63 -50 -103 -136 -103z" />
    <glyph glyph-name="Ohungarumlaut" unicode="&#x150;" horiz-adv-x="734" 
d="M367 711c218 0 298 -162 298 -361c0 -197 -80 -361 -298 -361s-298 164 -298 361c0 199 80 361 298 361zM367 47c174 0 231 135 231 303c0 167 -57 303 -231 303s-230 -136 -230 -303c0 -168 56 -303 230 -303zM441 752h-41l76 128h84zM297 752h-41l77 128h84z" />
    <glyph glyph-name="ohungarumlaut" unicode="&#x151;" horiz-adv-x="595" 
d="M536 262c0 -169 -84 -273 -239 -273c-156 0 -239 104 -239 273s83 274 239 274c155 0 239 -105 239 -274zM472 262c0 133 -52 221 -175 221s-174 -88 -174 -221s51 -220 174 -220s175 87 175 220zM370 601h-40l76 128h83zM227 601h-41l77 128h84z" />
    <glyph glyph-name="OE" unicode="&#x152;" horiz-adv-x="1092" 
d="M1033 0h-433v98c-47 -67 -123 -109 -233 -109c-218 0 -298 164 -298 361c0 199 80 361 298 361c110 0 186 -42 233 -109v98h428v-57h-363v-265h301v-56h-301v-265h368v-57zM367 47c174 0 231 135 231 303c0 167 -57 303 -231 303s-230 -136 -230 -303
c0 -168 56 -303 230 -303z" />
    <glyph glyph-name="oe" unicode="&#x153;" horiz-adv-x="986" 
d="M920 245h-382c6 -124 71 -204 160 -204c77 0 154 46 198 73l33 -43c-50 -30 -134 -82 -232 -82c-80 0 -153 40 -192 120c-38 -77 -108 -120 -208 -120c-156 0 -239 104 -239 273s83 274 239 274c100 0 170 -45 208 -122c40 80 116 122 206 122c141 0 215 -96 215 -226
c0 -37 -6 -65 -6 -65zM472 262c0 133 -52 221 -175 221s-174 -88 -174 -221s51 -220 174 -220s175 87 175 220zM710 485c-100 0 -163 -77 -171 -195h324c2 137 -58 195 -153 195z" />
    <glyph glyph-name="Racute" unicode="&#x154;" horiz-adv-x="680" 
d="M545 0l-189 305h-188v-305h-65v700h260c142 0 255 -49 255 -197c0 -128 -85 -183 -196 -195l197 -308h-74zM551 503c0 103 -79 141 -184 141h-199v-283h194c110 0 189 39 189 142zM344 752h-54l122 128h97z" />
    <glyph glyph-name="racute" unicode="&#x155;" horiz-adv-x="376" 
d="M202 601h-53l121 128h96zM150 525v-113c6 16 60 129 200 119v-60c-179 0 -200 -165 -200 -165v-306h-62v525h62z" />
    <glyph glyph-name="Rcommaaccent" unicode="&#x156;" horiz-adv-x="680" 
d="M545 0l-189 305h-188v-305h-65v700h260c142 0 255 -49 255 -197c0 -128 -85 -183 -196 -195l197 -308h-74zM551 503c0 103 -79 141 -184 141h-199v-283h194c110 0 189 39 189 142zM304 -154v89h70l11 -91l-65 -108l-23 23l40 87h-33z" />
    <glyph glyph-name="rcommaaccent" unicode="&#x157;" horiz-adv-x="376" 
d="M84 -154v89h70l9 -91l-63 -108l-23 23l40 87h-33zM150 525v-113c6 16 60 129 200 119v-60c-180 0 -200 -165 -200 -165v-306h-63v525h63z" />
    <glyph glyph-name="Rcaron" unicode="&#x158;" horiz-adv-x="680" 
d="M545 0l-189 305h-188v-305h-65v700h260c142 0 255 -49 255 -197c0 -128 -85 -183 -196 -195l197 -308h-74zM551 503c0 103 -79 141 -184 141h-199v-283h194c110 0 189 39 189 142zM499 880l-98 -128h-81l-97 128h51l87 -89l88 89h50z" />
    <glyph glyph-name="rcaron" unicode="&#x159;" horiz-adv-x="376" 
d="M357 729l-98 -128h-81l-97 128h50l87 -89l88 89h51zM149 525v-113c7 16 61 129 201 119v-60c-180 0 -201 -165 -201 -165v-306h-61v525h61z" />
    <glyph glyph-name="Sacute" unicode="&#x15a;" horiz-adv-x="606" 
d="M285 752h-53l121 128h97zM323 390c104 -33 230 -79 230 -214c0 -128 -115 -187 -230 -187c-100 0 -207 44 -270 82l32 50c61 -36 158 -75 240 -75s162 40 162 126c0 92 -92 127 -211 165c-98 32 -207 71 -207 194c0 118 99 180 215 180c82 0 179 -31 240 -63l-31 -50
c-62 32 -147 56 -208 56c-77 0 -150 -36 -150 -119c0 -89 86 -111 188 -145z" />
    <glyph glyph-name="sacute" unicode="&#x15b;" horiz-adv-x="505" 
d="M236 601h-53l120 128h98zM266 295c120 -31 190 -75 190 -163c0 -100 -90 -143 -184 -143c-87 0 -173 35 -223 63l29 47c50 -28 128 -58 189 -58c62 0 127 27 127 88c0 72 -94 96 -159 114c-80 22 -175 52 -175 153c0 91 77 140 178 140c76 0 148 -28 196 -52l-29 -45
c-49 24 -112 45 -166 45c-66 0 -117 -29 -117 -85c0 -71 92 -90 144 -104z" />
    <glyph glyph-name="Scircumflex" unicode="&#x15c;" horiz-adv-x="606" 
d="M344 880l97 -128h-50l-89 90l-87 -90h-50l97 128h82zM323 390c104 -33 230 -79 230 -214c0 -128 -115 -187 -230 -187c-100 0 -207 44 -270 82l32 50c61 -36 158 -75 240 -75s162 40 162 126c0 92 -92 127 -211 165c-98 32 -207 71 -207 194c0 118 99 180 215 180
c82 0 179 -31 240 -63l-31 -50c-62 32 -147 56 -208 56c-77 0 -150 -36 -150 -119c0 -89 86 -111 188 -145z" />
    <glyph glyph-name="scircumflex" unicode="&#x15d;" horiz-adv-x="505" 
d="M294 729l98 -128h-51l-88 90l-87 -90h-50l97 128h81zM266 295c120 -31 190 -75 190 -163c0 -100 -90 -143 -184 -143c-87 0 -173 35 -223 63l29 47c50 -28 128 -58 189 -58c62 0 127 27 127 88c0 72 -94 96 -159 114c-80 22 -175 52 -175 153c0 91 77 140 178 140
c76 0 148 -28 196 -52l-29 -45c-49 24 -112 45 -166 45c-66 0 -117 -29 -117 -85c0 -71 92 -90 144 -104z" />
    <glyph glyph-name="Scedilla" unicode="&#x15e;" horiz-adv-x="607" 
d="M323 390c104 -33 230 -79 230 -214c0 -118 -98 -177 -203 -186c12 -15 31 -44 31 -78c0 -50 -40 -80 -97 -80c-26 0 -52 6 -76 18l17 42c22 -10 33 -14 53 -14c34 0 57 15 57 49c0 24 -12 48 -21 62c-98 3 -200 45 -261 82l32 50c61 -36 158 -75 240 -75s162 40 162 126
c0 92 -92 127 -211 165c-98 32 -207 71 -207 194c0 118 99 180 215 180c82 0 179 -31 240 -63l-31 -50c-62 32 -147 56 -208 56c-77 0 -150 -36 -150 -119c0 -89 86 -111 188 -145z" />
    <glyph glyph-name="scedilla" unicode="&#x15f;" horiz-adv-x="505" 
d="M266 295c120 -31 190 -75 190 -163c0 -92 -76 -136 -162 -142c12 -16 30 -44 30 -78c0 -50 -41 -80 -98 -80c-25 0 -51 6 -76 18l18 42c22 -10 33 -14 52 -14c34 0 59 15 59 49c0 25 -13 49 -22 63c-82 3 -161 35 -208 62l29 47c50 -28 128 -58 189 -58
c62 0 127 27 127 88c0 72 -94 96 -159 114c-80 22 -175 52 -175 153c0 91 77 140 178 140c76 0 148 -28 196 -52l-29 -45c-49 24 -112 45 -166 45c-66 0 -117 -29 -117 -85c0 -71 92 -90 144 -104z" />
    <glyph glyph-name="Scaron" unicode="&#x160;" horiz-adv-x="606" 
d="M441 880l-97 -128h-82l-97 128h50l87 -89l89 89h50zM323 390c104 -33 230 -79 230 -214c0 -128 -115 -187 -230 -187c-100 0 -207 44 -270 82l32 50c61 -36 158 -75 240 -75s162 40 162 126c0 92 -92 127 -211 165c-98 32 -207 71 -207 194c0 118 99 180 215 180
c82 0 179 -31 240 -63l-31 -50c-62 32 -147 56 -208 56c-77 0 -150 -36 -150 -119c0 -89 86 -111 188 -145z" />
    <glyph glyph-name="scaron" unicode="&#x161;" horiz-adv-x="505" 
d="M391 729l-98 -128h-80l-98 128h51l87 -89l88 89h50zM266 295c120 -31 190 -75 190 -163c0 -100 -90 -143 -184 -143c-87 0 -173 35 -223 63l29 47c50 -28 128 -58 189 -58c62 0 127 27 127 88c0 72 -94 96 -159 114c-80 22 -175 52 -175 153c0 91 77 140 178 140
c76 0 148 -28 196 -52l-29 -45c-49 24 -112 45 -166 45c-66 0 -117 -29 -117 -85c0 -71 92 -90 144 -104z" />
    <glyph glyph-name="Tcedilla" unicode="&#x162;" horiz-adv-x="569" 
d="M167 -150l17 42c22 -10 34 -14 53 -14c33 0 58 15 58 49c0 33 -23 65 -29 73h-14v643h-225v57h514v-57h-224v-643h-15c5 -6 39 -43 39 -88c0 -50 -40 -80 -98 -80c-26 0 -52 6 -76 18z" />
    <glyph glyph-name="tcedilla" unicode="&#x163;" horiz-adv-x="370" 
d="M37 475v50h73v132l62 20v-152h145v-50h-145v-373c0 -45 21 -58 51 -58c31 0 86 20 106 28l24 -48c-19 -9 -70 -29 -117 -34c12 -15 30 -44 30 -78c0 -50 -40 -80 -97 -80c-26 0 -52 6 -76 18l17 42c22 -10 34 -14 52 -14c34 0 59 15 59 49c0 25 -13 49 -22 63
c-49 5 -89 33 -89 116v369h-73z" />
    <glyph glyph-name="Tcaron" unicode="&#x164;" horiz-adv-x="569" 
d="M541 643h-224v-643h-65v643h-225v57h514v-57zM422 880l-98 -128h-81l-97 128h51l87 -89l88 89h50z" />
    <glyph glyph-name="tcaron" unicode="&#x165;" horiz-adv-x="371" 
d="M37 475v50h73v132l62 20v-152h145v-50h-145v-373c0 -45 21 -58 51 -58c31 0 86 20 105 28l25 -48c-21 -10 -85 -35 -136 -35c-57 0 -107 24 -107 117v369h-73zM241 690v89h70l10 -92l-64 -107l-22 23l40 87h-34z" />
    <glyph glyph-name="Tbar" unicode="&#x166;" horiz-adv-x="580" 
d="M144 235v45h114v363h-225v57h515v-57h-225v-363h114v-45h-114v-235h-65v235h-114z" />
    <glyph glyph-name="tbar" unicode="&#x167;" horiz-adv-x="371" 
d="M37 475v50h73v132l62 20v-152h145v-50h-145v-142h114v-46h-114v-185c0 -45 21 -58 51 -58c31 0 86 20 105 28l25 -48c-21 -10 -85 -35 -136 -35c-57 0 -107 24 -107 117v181h-53v46h53v142h-73z" />
    <glyph glyph-name="Utilde" unicode="&#x168;" horiz-adv-x="700" 
d="M240 764l-38 16c24 46 45 77 87 77c49 0 90 -48 122 -48c15 0 27 5 49 46l39 -16c-23 -46 -45 -78 -87 -78c-49 0 -90 49 -122 49c-16 0 -27 -6 -50 -46zM603 700v-453c0 -145 -61 -258 -252 -258c-193 0 -254 113 -254 258v453h65v-453c0 -111 34 -200 189 -200
c153 0 187 89 187 200v453h65z" />
    <glyph glyph-name="utilde" unicode="&#x169;" 
d="M451 0v77c-37 -28 -130 -88 -222 -88c-113 0 -145 76 -145 160v376h62v-366c0 -65 20 -117 98 -117c77 0 170 61 207 92v391h62v-525h-62zM199 613l-39 16c24 46 45 77 87 77c49 0 90 -48 122 -48c16 0 28 5 50 46l39 -16c-23 -46 -45 -78 -87 -78c-50 0 -91 49 -123 49
c-15 0 -27 -6 -49 -46z" />
    <glyph glyph-name="Umacron" unicode="&#x16a;" horiz-adv-x="700" 
d="M603 700v-453c0 -145 -61 -258 -252 -258c-193 0 -254 113 -254 258v453h65v-453c0 -111 34 -200 189 -200c153 0 187 89 187 200v453h65zM207 777v46h287v-46h-287z" />
    <glyph glyph-name="umacron" unicode="&#x16b;" 
d="M451 0v77c-37 -28 -130 -88 -222 -88c-113 0 -145 76 -145 160v376h62v-366c0 -65 20 -117 98 -117c77 0 170 61 207 92v391h62v-525h-62zM155 626v46h287v-46h-287z" />
    <glyph glyph-name="Ubreve" unicode="&#x16c;" horiz-adv-x="700" 
d="M350 752c-86 0 -135 40 -135 103h49c0 -41 33 -57 86 -57c52 0 87 16 87 57h49c0 -63 -51 -103 -136 -103zM603 700v-453c0 -145 -61 -258 -252 -258c-193 0 -254 113 -254 258v453h65v-453c0 -111 34 -200 189 -200c153 0 187 89 187 200v453h65z" />
    <glyph glyph-name="ubreve" unicode="&#x16d;" 
d="M451 0v77c-37 -28 -130 -88 -222 -88c-113 0 -145 76 -145 160v376h62v-366c0 -65 20 -117 98 -117c77 0 170 61 207 92v391h62v-525h-62zM297 601c-85 0 -135 40 -135 103h49c0 -41 34 -57 86 -57c53 0 87 16 87 57h49c0 -63 -50 -103 -136 -103z" />
    <glyph glyph-name="Uring" unicode="&#x16e;" horiz-adv-x="700" 
d="M251 843c0 57 44 102 101 102c56 0 101 -45 101 -102c0 -56 -45 -101 -101 -101c-57 0 -101 45 -101 101zM291 843c0 -34 26 -60 61 -60c34 0 61 26 61 60c0 35 -27 62 -61 62c-35 0 -61 -27 -61 -62zM603 700v-453c0 -145 -61 -258 -252 -258c-193 0 -254 113 -254 258
v453h65v-453c0 -111 34 -200 189 -200c153 0 187 89 187 200v453h65z" />
    <glyph glyph-name="uring" unicode="&#x16f;" 
d="M451 0v77c-37 -28 -130 -88 -222 -88c-113 0 -145 76 -145 160v376h62v-366c0 -65 20 -117 98 -117c77 0 170 61 207 92v391h62v-525h-62zM197 692c0 57 45 102 101 102c57 0 102 -45 102 -102c0 -56 -45 -101 -102 -101c-56 0 -101 45 -101 101zM238 692
c0 -34 26 -60 60 -60c35 0 62 26 62 60c0 35 -27 62 -62 62c-34 0 -60 -27 -60 -62z" />
    <glyph glyph-name="Uhungarumlaut" unicode="&#x170;" horiz-adv-x="700" 
d="M603 700v-453c0 -145 -61 -258 -252 -258c-193 0 -254 113 -254 258v453h65v-453c0 -111 34 -200 189 -200c153 0 187 89 187 200v453h65zM424 752h-41l77 128h83zM281 752h-43l78 128h84z" />
    <glyph glyph-name="uhungarumlaut" unicode="&#x171;" 
d="M451 0v77c-37 -28 -130 -88 -222 -88c-113 0 -145 76 -145 160v376h62v-366c0 -65 20 -117 98 -117c77 0 170 61 207 92v391h62v-525h-62zM228 601h-41l77 128h84zM371 601h-41l77 128h83z" />
    <glyph glyph-name="Uogonek" unicode="&#x172;" horiz-adv-x="700" 
d="M343 -96c0 -44 52 -39 81 -39l-9 -44c-35 0 -126 -1 -126 75c0 36 34 68 78 93h-16c-193 0 -254 113 -254 258v453h65v-453c0 -111 34 -200 189 -200c153 0 187 89 187 200v453h65v-453c0 -119 -41 -216 -160 -247c-38 -22 -100 -53 -100 -96z" />
    <glyph glyph-name="uogonek" unicode="&#x173;" 
d="M450 0v77c-37 -28 -130 -88 -222 -88c-113 0 -145 76 -145 160v376h62v-366c0 -65 20 -117 98 -117c77 0 170 61 207 92v391h62v-525h-4c-36 -22 -98 -53 -98 -96c0 -44 51 -39 81 -39l-11 -44c-34 0 -125 -1 -125 75c0 42 44 78 98 104h-3z" />
    <glyph glyph-name="Wcircumflex" unicode="&#x174;" horiz-adv-x="932" 
d="M626 0l-161 607l-160 -607h-73l-193 700h71l160 -625l163 625h65l163 -625l161 625h72l-195 -700h-73zM507 880l97 -128h-51l-88 90l-87 -90h-50l97 128h82z" />
    <glyph glyph-name="wcircumflex" unicode="&#x175;" horiz-adv-x="805" 
d="M539 0l-136 449l-136 -449h-64l-166 525h67l132 -457l136 457h62l135 -457l133 457h66l-166 -525h-63zM443 729l98 -128h-50l-88 90l-87 -90h-51l98 128h80z" />
    <glyph glyph-name="ycircumflex" unicode="&#x177;" horiz-adv-x="548" 
d="M32 525h69l173 -450l173 450h70l-297 -729h-69l92 207zM315 729l98 -128h-51l-88 90l-87 -90h-50l96 128h82z" />
    <glyph glyph-name="Ydieresis" unicode="&#x178;" horiz-adv-x="626" 
d="M280 0v277l-257 423h73l217 -373l216 373h73l-257 -423v-277h-65zM194 762v86h72v-86h-72zM360 762v86h70v-86h-70z" />
    <glyph glyph-name="Zacute" unicode="&#x179;" horiz-adv-x="614" 
d="M45 53l433 590h-411v57h490v-53l-435 -590h440v-57h-517v53zM295 752h-53l122 128h96z" />
    <glyph glyph-name="zacute" unicode="&#x17a;" horiz-adv-x="499" 
d="M46 0v51l327 420h-317v54h393v-51l-325 -420h325v-54h-403zM231 601h-54l122 128h96z" />
    <glyph glyph-name="Zdotaccent" unicode="&#x17b;" horiz-adv-x="614" 
d="M45 53l433 590h-411v57h490v-53l-435 -590h440v-57h-517v53zM276 762v85h72v-85h-72z" />
    <glyph glyph-name="zdotaccent" unicode="&#x17c;" horiz-adv-x="499" 
d="M46 0v51l327 420h-317v54h393v-51l-325 -420h325v-54h-403zM210 611v86h72v-86h-72z" />
    <glyph glyph-name="Zcaron" unicode="&#x17d;" horiz-adv-x="614" 
d="M557 647l-435 -590h440v-57h-517v53l433 590h-411v57h490v-53zM451 880l-98 -128h-82l-97 128h51l87 -89l89 89h50z" />
    <glyph glyph-name="zcaron" unicode="&#x17e;" horiz-adv-x="499" 
d="M46 0v51l327 420h-317v54h393v-51l-325 -420h325v-54h-403zM386 729l-98 -128h-82l-96 128h51l87 -89l88 89h50z" />
    <glyph glyph-name="longs" unicode="&#x17f;" horiz-adv-x="279" 
d="M36 475v50h73v87c0 93 50 117 107 117c47 0 121 -23 147 -32l-24 -47c-22 6 -89 24 -117 24c-30 0 -51 -13 -51 -57v-617h-62v475h-73z" />
    <glyph glyph-name="florin" unicode="&#x192;" horiz-adv-x="524" 
d="M128 475l13 50h74l21 88c22 92 58 116 125 116c56 0 126 -27 150 -35l-34 -46c-21 8 -84 26 -114 25c-31 0 -54 -14 -64 -57l-22 -91h145l-11 -50h-146l-163 -679h-62l163 679h-75z" />
    <glyph glyph-name="AEacute" unicode="&#x1fc;" horiz-adv-x="989" 
d="M930 0h-435v182h-299l-123 -182h-76l484 700h442v-57h-362v-265h301v-56h-301v-265h369v-57zM234 238h261v385zM521 752h-54l122 128h97z" />
    <glyph glyph-name="aeacute" unicode="&#x1fd;" horiz-adv-x="919" 
d="M852 245h-382c6 -124 71 -204 161 -204c76 0 153 46 198 73l33 -43c-50 -30 -134 -82 -233 -82c-74 0 -142 35 -183 104c-56 -58 -133 -104 -221 -104c-79 0 -173 41 -173 166c0 122 87 173 179 173c59 0 132 -22 175 -34c2 33 8 64 18 90c-5 66 -33 100 -115 100
c-60 0 -126 -22 -197 -47l-24 49c84 31 160 50 226 50c73 0 128 -23 154 -75c43 50 104 75 175 75c142 0 216 -96 216 -226c0 -37 -7 -65 -7 -65zM427 133c-13 33 -21 72 -22 116c-41 11 -101 32 -149 32c-106 0 -139 -59 -139 -124c0 -81 51 -113 120 -113
c78 0 138 39 190 89zM641 485c-99 0 -162 -77 -170 -195h323c4 137 -56 195 -153 195zM439 601h-53l122 128h96z" />
    <glyph glyph-name="Oslashacute" unicode="&#x1fe;" horiz-adv-x="731" 
d="M653 700l-63 -86c52 -66 74 -160 74 -264c0 -197 -80 -361 -298 -361c-82 0 -145 23 -191 63l-38 -52h-57l63 85c-53 67 -75 161 -75 265c0 199 80 361 298 361c82 0 145 -24 191 -63l38 52h58zM366 47c174 0 231 135 231 303c0 81 -14 155 -48 209l-336 -456
c35 -35 85 -56 153 -56zM136 350c0 -82 13 -156 47 -210l336 457c-36 35 -86 56 -153 56c-173 0 -230 -136 -230 -303zM349 752h-54l122 128h96z" />
    <glyph glyph-name="oslashacute" unicode="&#x1ff;" horiz-adv-x="593" 
d="M524 525l-49 -64c40 -47 61 -115 61 -199c0 -169 -84 -273 -239 -273c-61 0 -110 15 -148 44l-26 -33h-55l49 64c-40 47 -60 114 -60 198c0 169 84 274 240 274c60 0 109 -16 147 -45l26 34h54zM471 262c0 60 -11 111 -34 149l-253 -332c27 -24 64 -37 113 -37
c123 0 174 87 174 220zM122 262c0 -60 10 -111 33 -148l254 331c-28 24 -64 38 -112 38c-124 0 -175 -88 -175 -221zM279 601h-53l120 128h97z" />
    <glyph glyph-name="Scommaaccent" unicode="&#x218;" horiz-adv-x="606" 
d="M269 -154v89h70l11 -91l-65 -108l-23 23l40 87h-33zM323 390c104 -33 230 -79 230 -214c0 -128 -115 -187 -230 -187c-100 0 -207 44 -270 82l32 50c61 -36 158 -75 240 -75s162 40 162 126c0 92 -92 127 -211 165c-98 32 -207 71 -207 194c0 118 99 180 215 180
c82 0 179 -31 240 -63l-31 -50c-62 32 -147 56 -208 56c-77 0 -150 -36 -150 -119c0 -89 86 -111 188 -145z" />
    <glyph glyph-name="scommaaccent" unicode="&#x219;" horiz-adv-x="505" 
d="M218 -154v89h70l9 -91l-64 -108l-22 23l40 87h-33zM266 295c120 -31 190 -75 190 -163c0 -100 -90 -143 -184 -143c-87 0 -173 35 -223 63l29 47c50 -28 128 -58 189 -58c62 0 127 27 127 88c0 72 -94 96 -159 114c-80 22 -175 52 -175 153c0 91 77 140 178 140
c76 0 148 -28 196 -52l-29 -45c-49 24 -112 45 -166 45c-66 0 -117 -29 -117 -85c0 -71 92 -90 144 -104z" />
    <glyph glyph-name="uni021a" unicode="&#x21a;" horiz-adv-x="569" 
d="M248 -154v89h70l11 -91l-64 -108l-24 23l41 87h-34zM541 643h-224v-643h-65v643h-225v57h514v-57z" />
    <glyph glyph-name="uni021b" unicode="&#x21b;" horiz-adv-x="371" 
d="M37 475v50h73v132l62 20v-152h145v-50h-145v-373c0 -45 21 -58 51 -58c31 0 86 20 105 28l25 -48c-21 -10 -85 -35 -136 -35c-57 0 -107 24 -107 117v369h-73zM136 -154v89h70l11 -91l-65 -108l-23 23l40 87h-33z" />
    <glyph glyph-name="hsuperior" unicode="&#x2b0;" horiz-adv-x="396" 
d="M111 822v-167c24 18 79 52 137 52c72 0 93 -45 93 -98v-224h-52v215c0 36 -12 65 -56 65c-46 0 -100 -32 -122 -51v-229h-52v437h52z" />
    <glyph glyph-name="jsuperior" unicode="&#x2b2;" horiz-adv-x="169" 
d="M55 762v59h58v-59h-58zM110 700v-326c0 -67 0 -90 -109 -117l-17 39c75 23 75 28 75 75v329h51z" />
    <glyph glyph-name="wsuperior" unicode="&#x2b7;" horiz-adv-x="518" 
d="M340 385l-81 256l-82 -256h-49l-105 315h55l77 -263l80 263h48l80 -265l77 265h54l-102 -315h-52z" />
    <glyph glyph-name="ysuperior" unicode="&#x2b8;" horiz-adv-x="354" 
d="M19 700h56l102 -254l103 254h55l-185 -437h-56l57 125z" />
    <glyph glyph-name="circumflex" unicode="&#x2c6;" horiz-adv-x="264" 
d="M172 729l98 -128h-51l-88 90l-87 -90h-50l97 128h81z" />
    <glyph glyph-name="caron" unicode="&#x2c7;" horiz-adv-x="264" 
d="M270 729l-98 -128h-81l-97 128h50l87 -89l88 89h51z" />
    <glyph glyph-name="breve" unicode="&#x2d8;" horiz-adv-x="261" 
d="M130 601c-85 0 -135 40 -135 103h49c0 -41 34 -57 86 -57c53 0 87 16 87 57h49c0 -63 -50 -103 -136 -103z" />
    <glyph glyph-name="dotaccent" unicode="&#x2d9;" horiz-adv-x="67" 
d="M-3 611v86h72v-86h-72z" />
    <glyph glyph-name="ring" unicode="&#x2da;" horiz-adv-x="199" 
d="M-2 692c0 57 45 102 101 102c57 0 102 -45 102 -102c0 -56 -45 -101 -102 -101c-56 0 -101 45 -101 101zM39 692c0 -34 26 -60 60 -60c35 0 62 26 62 60c0 35 -27 62 -62 62c-34 0 -60 -27 -60 -62z" />
    <glyph glyph-name="ogonek" unicode="&#x2db;" horiz-adv-x="152" 
d="M50 -96c0 -44 51 -39 81 -39l-9 -44c-36 0 -127 -1 -127 75c0 48 60 89 125 115l32 -10c-38 -22 -102 -54 -102 -97z" />
    <glyph glyph-name="tilde" unicode="&#x2dc;" horiz-adv-x="284" 
d="M32 613l-39 16c24 46 45 77 87 77c50 0 90 -48 123 -48c15 0 27 5 49 46l39 -16c-23 -46 -45 -78 -87 -78c-50 0 -90 49 -123 49c-15 0 -27 -6 -49 -46z" />
    <glyph glyph-name="hungarumlaut" unicode="&#x2dd;" horiz-adv-x="293" 
d="M179 601h-40l76 128h84zM37 601h-43l78 128h84z" />
    <glyph glyph-name="xsuperior" unicode="&#x2e3;" horiz-adv-x="380" 
d="M297 385l-106 132l-105 -132h-64l139 158l-132 157h62l100 -129l100 129h62l-131 -157l138 -158h-63z" />
    <glyph glyph-name="pi" unicode="&#x3c0;" horiz-adv-x="564" 
d="M526 525v-57h-90v-468h-60v468h-188v-468h-61v468h-89v57h488z" />
    <glyph glyph-name="Wgrave" unicode="&#x1e80;" horiz-adv-x="932" 
d="M626 0l-161 607l-160 -607h-73l-193 700h71l160 -625l163 625h65l163 -625l161 625h72l-195 -700h-73zM537 752h-54l-164 128h95z" />
    <glyph glyph-name="wgrave" unicode="&#x1e81;" horiz-adv-x="805" 
d="M539 0l-136 449l-136 -449h-64l-166 525h67l132 -457l136 457h62l135 -457l133 457h66l-166 -525h-63zM474 601h-53l-165 128h95z" />
    <glyph glyph-name="Wacute" unicode="&#x1e82;" horiz-adv-x="932" 
d="M626 0l-161 607l-160 -607h-73l-193 700h71l160 -625l163 625h65l163 -625l161 625h72l-195 -700h-73zM449 752h-54l122 128h96z" />
    <glyph glyph-name="wacute" unicode="&#x1e83;" horiz-adv-x="805" 
d="M539 0l-136 449l-136 -449h-64l-166 525h67l132 -457l136 457h62l135 -457l133 457h66l-166 -525h-63zM386 601h-54l122 128h97z" />
    <glyph glyph-name="Wdieresis" unicode="&#x1e84;" horiz-adv-x="932" 
d="M626 0l-161 607l-160 -607h-73l-193 700h71l160 -625l163 625h65l163 -625l161 625h72l-195 -700h-73zM348 762v86h72v-86h-72zM514 762v86h70v-86h-70z" />
    <glyph glyph-name="wdieresis" unicode="&#x1e85;" horiz-adv-x="805" 
d="M539 0l-136 449l-136 -449h-64l-166 525h67l132 -457l136 457h62l135 -457l133 457h66l-166 -525h-63zM285 611v86h72v-86h-72zM450 611v86h71v-86h-71z" />
    <glyph glyph-name="Ygrave" unicode="&#x1ef2;" horiz-adv-x="626" 
d="M280 0v277l-257 423h73l217 -373l216 373h73l-257 -423v-277h-65zM384 752h-53l-165 128h95z" />
    <glyph glyph-name="ygrave" unicode="&#x1ef3;" horiz-adv-x="548" 
d="M32 525h69l173 -450l173 450h70l-297 -729h-69l92 207zM345 601h-53l-165 128h95z" />
    <glyph glyph-name="endash" unicode="&#x2013;" horiz-adv-x="567" 
d="M485 257h-404v56h404v-56z" />
    <glyph glyph-name="emdash" unicode="&#x2014;" horiz-adv-x="671" 
d="M590 257h-509v56h509v-56z" />
    <glyph glyph-name="quoteleft" unicode="&#x2018;" horiz-adv-x="231" 
d="M154 594v-106h-76l-11 109l69 123l25 -26l-44 -100h37z" />
    <glyph glyph-name="quoteright" unicode="&#x2019;" horiz-adv-x="223" 
d="M78 594v106h75l11 -109l-69 -123l-25 26l44 100h-36z" />
    <glyph glyph-name="quotesinglbase" unicode="&#x201a;" horiz-adv-x="239" 
d="M80 0v106h75l11 -110l-69 -122l-25 25l44 101h-36z" />
    <glyph glyph-name="quotedblleft" unicode="&#x201c;" horiz-adv-x="402" 
d="M154 594v-106h-76l-11 109l69 123l25 -26l-44 -100h37zM324 594v-106h-76l-11 109l70 123l25 -26l-44 -100h36z" />
    <glyph glyph-name="quotedblright" unicode="&#x201d;" horiz-adv-x="394" 
d="M247 594v106h77l11 -109l-70 -123l-25 26l44 100h-37zM78 594v106h75l11 -109l-69 -123l-25 26l44 100h-36z" />
    <glyph glyph-name="quotedblbase" unicode="&#x201e;" horiz-adv-x="409" 
d="M249 0v106h77l11 -110l-70 -122l-25 25l44 101h-37zM80 0v106h75l11 -110l-69 -122l-25 25l44 101h-36z" />
    <glyph glyph-name="dagger" unicode="&#x2020;" horiz-adv-x="575" 
d="M35 402v58l225 -8v248h53v-248l227 8v-58l-227 8v-614h-53v614z" />
    <glyph glyph-name="daggerdbl" unicode="&#x2021;" horiz-adv-x="624" 
d="M59 402v58l225 -8v248h54v-248l226 8v-58l-226 8v-220l226 8v-58l-226 8v-352h-54v352l-225 -8v58l225 -8v220z" />
    <glyph glyph-name="bullet" unicode="&#x2022;" horiz-adv-x="427" 
d="M94 284c0 66 52 120 118 120c67 0 120 -54 120 -120s-53 -119 -120 -119c-66 0 -118 53 -118 119z" />
    <glyph glyph-name="ellipsis" unicode="&#x2026;" horiz-adv-x="620" 
d="M79 0v106h79v-106h-79zM271 0v106h78v-106h-78zM462 0v106h78v-106h-78z" />
    <glyph glyph-name="perthousand" unicode="&#x2030;" horiz-adv-x="1410" 
d="M402 523c0 -124 -73 -187 -177 -187c-103 0 -176 63 -176 187c0 125 73 188 176 188c104 0 177 -63 177 -188zM346 523c0 91 -45 141 -121 141c-75 0 -119 -50 -119 -141c0 -90 44 -140 119 -140c76 0 121 50 121 140zM940 176c0 -124 -73 -187 -177 -187
c-103 0 -176 63 -176 187c0 125 73 188 176 188c104 0 177 -63 177 -188zM884 176c0 91 -45 141 -121 141c-75 0 -119 -50 -119 -141c0 -90 44 -140 119 -140c76 0 121 50 121 140zM1361 176c0 -124 -74 -187 -177 -187s-176 63 -176 187c0 125 73 188 176 188
s177 -63 177 -188zM1304 176c0 91 -44 141 -120 141c-75 0 -120 -50 -120 -141c0 -90 45 -140 120 -140c76 0 120 50 120 140zM708 700l-368 -700h-58l368 700h58z" />
    <glyph glyph-name="guilsinglleft" unicode="&#x2039;" horiz-adv-x="412" 
d="M41 304l306 225v-67l-246 -180l246 -180v-66l-306 225v43z" />
    <glyph glyph-name="guilsinglright" unicode="&#x203a;" horiz-adv-x="412" 
d="M371 304v-43l-306 -225v66l245 180l-245 180v66z" />
    <glyph glyph-name="fraction" unicode="&#x2044;" horiz-adv-x="151" 
d="M272 700l-334 -700h-57l335 700h56z" />
    <glyph glyph-name="zerosuperior" unicode="&#x2070;" horiz-adv-x="433" 
d="M217 812c109 0 165 -79 165 -217c0 -139 -56 -217 -165 -217c-110 0 -166 78 -166 217c0 138 56 217 166 217zM217 421c78 0 112 65 112 174c0 108 -34 174 -112 174s-111 -66 -111 -174c0 -109 33 -174 111 -174z" />
    <glyph glyph-name="foursuperior" unicode="&#x2074;" horiz-adv-x="419" 
d="M33 478v39l212 288h71v-283h67v-44h-67v-93h-54v93h-229zM91 522h171v237z" />
    <glyph glyph-name="fivesuperior" unicode="&#x2075;" horiz-adv-x="387" 
d="M59 598l24 207h240v-45h-197l-12 -124c21 9 46 16 78 16c93 0 150 -62 150 -135c0 -71 -53 -139 -158 -139c-65 0 -116 28 -143 44l25 39c13 -9 62 -37 112 -37c57 0 107 36 107 93c0 49 -36 91 -103 91c-41 0 -75 -16 -93 -26z" />
    <glyph glyph-name="sixsuperior" unicode="&#x2076;" horiz-adv-x="408" 
d="M280 767c-88 0 -156 -60 -172 -160c16 16 54 46 117 46c91 0 142 -60 142 -133c0 -76 -58 -142 -154 -142c-111 0 -164 85 -164 187c0 139 94 247 230 247c33 0 59 -7 59 -7l-12 -42s-21 4 -46 4zM216 611c-58 0 -99 -34 -112 -58c2 -81 41 -130 108 -130
c68 0 101 49 101 96c0 44 -29 92 -97 92z" />
    <glyph glyph-name="sevensuperior" unicode="&#x2077;" horiz-adv-x="344" 
d="M317 765c0 0 -162 -190 -162 -380h-56c0 172 144 358 157 375h-224v45h285v-40z" />
    <glyph glyph-name="eightsuperior" unicode="&#x2078;" horiz-adv-x="411" 
d="M43 493c0 65 55 99 106 119c-39 17 -79 45 -79 98c0 62 56 102 137 102s137 -40 137 -102c0 -53 -42 -81 -81 -98c50 -20 106 -54 106 -119c0 -72 -70 -115 -162 -115c-94 0 -164 43 -164 115zM314 496c0 50 -56 76 -108 95c-52 -19 -108 -45 -108 -95
c0 -47 49 -75 109 -75s107 28 107 75zM122 706c0 -43 49 -63 84 -75c35 12 85 32 85 75c0 35 -35 65 -84 65c-51 0 -85 -30 -85 -65z" />
    <glyph glyph-name="ninesuperior" unicode="&#x2079;" horiz-adv-x="408" 
d="M128 423c88 0 156 59 173 160c-16 -17 -55 -46 -118 -46c-91 0 -141 60 -141 133c0 76 58 142 154 142c111 0 164 -86 164 -188c0 -138 -93 -246 -231 -246c-32 0 -58 7 -58 7l14 42s19 -4 43 -4zM193 579c57 0 98 33 112 58c-2 80 -42 130 -108 130
c-68 0 -101 -49 -101 -97c0 -44 28 -91 97 -91z" />
    <glyph glyph-name="plussuperior" unicode="&#x207a;" horiz-adv-x="401" 
d="M179 721h42v-116h137v-40h-137v-116h-42v116h-137v40h137v116z" />
    <glyph glyph-name="parenleftsuperior" unicode="&#x207d;" horiz-adv-x="223" 
d="M63 412v364c0 63 3 86 109 112l16 -33c-71 -22 -72 -29 -72 -74v-374c0 -45 1 -52 72 -75l-16 -33c-106 26 -109 49 -109 113z" />
    <glyph glyph-name="parenrightsuperior" unicode="&#x207e;" horiz-adv-x="223" 
d="M160 776v-364c0 -64 -4 -87 -110 -113l-15 33c71 23 71 30 71 75v374c0 45 0 52 -71 74l15 33c106 -26 110 -49 110 -112z" />
    <glyph glyph-name="nsuperior" unicode="&#x207f;" horiz-adv-x="396" 
d="M111 700v-45c24 18 79 52 137 52c72 0 93 -45 93 -98v-224h-52v215c0 36 -12 65 -56 65c-46 0 -100 -32 -122 -51v-229h-52v315h52z" />
    <glyph glyph-name="zeroinferior" unicode="&#x2080;" horiz-adv-x="433" 
d="M217 277c109 0 165 -79 165 -217c0 -139 -56 -217 -165 -217c-110 0 -166 78 -166 217c0 138 56 217 166 217zM217 -114c78 0 112 65 112 174c0 108 -34 174 -112 174s-111 -66 -111 -174c0 -109 33 -174 111 -174z" />
    <glyph glyph-name="oneinferior" unicode="&#x2081;" horiz-adv-x="249" 
d="M180 -150h-54v367l-78 -39l-24 36l106 56h50v-420z" />
    <glyph glyph-name="twoinferior" unicode="&#x2082;" horiz-adv-x="387" 
d="M338 -105v-45h-296v34c0 88 70 127 141 173c54 35 100 65 100 110c0 37 -31 65 -86 65c-49 0 -96 -23 -117 -38l-26 35c30 20 82 48 147 48c83 0 136 -44 136 -109c0 -79 -78 -120 -150 -165c-51 -33 -84 -58 -84 -108h235z" />
    <glyph glyph-name="threeinferior" unicode="&#x2083;" horiz-adv-x="391" 
d="M36 -113l26 38c22 -14 74 -37 126 -37c58 0 104 31 104 81c0 65 -81 87 -140 87h-21v46h24c56 0 117 22 117 72c0 36 -32 58 -81 58c-48 0 -88 -21 -111 -35l-23 34c12 10 68 46 140 46c86 0 129 -47 129 -99c0 -38 -25 -77 -84 -96c59 -14 103 -57 103 -114
c0 -62 -46 -125 -152 -125c-71 0 -133 30 -157 44z" />
    <glyph glyph-name="fourinferior" unicode="&#x2084;" horiz-adv-x="419" 
d="M33 -57v39l212 288h71v-283h67v-44h-67v-93h-54v93h-229zM91 -13h171v237z" />
    <glyph glyph-name="fiveinferior" unicode="&#x2085;" horiz-adv-x="387" 
d="M60 63l24 207h240v-45h-197l-12 -124c21 9 46 16 78 16c93 0 150 -62 150 -135c0 -71 -53 -139 -158 -139c-65 0 -116 28 -143 44l25 39c13 -9 62 -37 112 -37c57 0 107 36 107 93c0 49 -36 91 -103 91c-41 0 -75 -16 -93 -26z" />
    <glyph glyph-name="sixinferior" unicode="&#x2086;" horiz-adv-x="408" 
d="M280 232c-88 0 -156 -60 -172 -160c16 16 54 46 117 46c91 0 142 -60 142 -133c0 -76 -58 -142 -154 -142c-111 0 -164 85 -164 187c0 139 94 247 230 247c33 0 59 -7 59 -7l-12 -42s-21 4 -46 4zM216 76c-58 0 -99 -34 -112 -58c2 -80 41 -130 108 -130
c68 0 101 49 101 96c0 44 -29 92 -97 92z" />
    <glyph glyph-name="seveninferior" unicode="&#x2087;" horiz-adv-x="344" 
d="M317 230c0 0 -162 -190 -162 -380h-56c0 172 144 358 157 375h-224v45h285v-40z" />
    <glyph glyph-name="eightinferior" unicode="&#x2088;" horiz-adv-x="411" 
d="M43 -42c0 65 55 99 106 119c-39 17 -79 45 -79 98c0 62 56 102 137 102s137 -40 137 -102c0 -53 -42 -81 -81 -98c50 -20 106 -54 106 -119c0 -72 -70 -115 -162 -115c-94 0 -164 43 -164 115zM314 -39c0 50 -56 76 -108 95c-52 -19 -108 -45 -108 -95
c0 -47 49 -75 109 -75s107 28 107 75zM122 171c0 -43 49 -63 84 -75c35 12 85 32 85 75c0 35 -35 65 -84 65c-51 0 -85 -30 -85 -65z" />
    <glyph glyph-name="nineinferior" unicode="&#x2089;" horiz-adv-x="408" 
d="M127 -112c88 0 156 60 173 160c-16 -17 -55 -46 -118 -46c-91 0 -141 60 -141 133c0 76 58 142 154 142c111 0 164 -86 164 -188c0 -138 -93 -246 -231 -246c-32 0 -58 7 -58 7l14 42s19 -4 43 -4zM192 44c57 0 98 33 112 58c-2 80 -42 130 -108 130
c-68 0 -101 -49 -101 -97c0 -44 28 -91 97 -91z" />
    <glyph glyph-name="parenleftinferior" unicode="&#x208d;" horiz-adv-x="221" 
d="M63 -123v364c0 63 3 86 109 112l16 -33c-71 -22 -72 -29 -72 -74v-374c0 -45 1 -52 72 -75l-16 -33c-106 26 -109 49 -109 113z" />
    <glyph glyph-name="parenrightinferior" unicode="&#x208e;" horiz-adv-x="221" 
d="M158 241v-364c0 -64 -4 -87 -110 -113l-15 33c71 23 71 30 71 75v374c0 45 0 52 -71 74l15 33c106 -26 110 -49 110 -112z" />
    <glyph glyph-name="colonmonetary" unicode="&#x20a1;" horiz-adv-x="562" 
d="M207 0h-45l25 107c-67 40 -116 122 -116 244c0 181 108 273 224 273c3 0 7 -1 11 -1l18 77h45l-19 -83c13 -3 25 -7 37 -11l22 94h46l-26 -112c29 -15 54 -31 72 -42l-33 -46c-11 6 -29 19 -52 31l-92 -397c62 11 120 52 144 67l33 -46c-39 -24 -110 -72 -190 -78
l-18 -77h-46l18 79c-13 2 -25 5 -38 9zM136 351c0 -81 25 -144 65 -181l92 399c-88 -2 -157 -85 -157 -218zM240 144c12 -6 25 -9 38 -11l96 418c-12 5 -24 10 -37 13z" />
    <glyph glyph-name="lira" unicode="&#x20a4;" horiz-adv-x="553" 
d="M81 326v47h81c-29 52 -69 96 -69 169c0 100 76 169 192 169c85 0 158 -37 211 -66l-33 -47c-64 33 -121 56 -174 56c-87 0 -132 -56 -132 -119s43 -106 72 -162h188v-47h-169c4 -16 7 -33 7 -52c0 -8 0 -15 -1 -22h163v-46h-173c-22 -71 -71 -130 -90 -149h330v-57h-414
v48s81 66 111 158h-100v46h110c0 6 1 12 1 19c0 20 -3 38 -9 55h-102z" />
    <glyph glyph-name="peseta" unicode="&#x20a7;" horiz-adv-x="664" 
d="M74 469v40h32v191h237c135 0 246 -47 255 -191h27v-40h-27c-10 -144 -121 -189 -255 -189h-171v-280h-66v469h-32zM172 643v-134h357c-9 99 -85 134 -182 134h-175zM347 337c96 0 172 33 182 132h-357v-132h175z" />
    <glyph glyph-name="uni20A9" unicode="&#x20a9;" horiz-adv-x="1016" 
d="M669 0l-160 607l-161 -607h-72l-67 238h-141v48h128l-35 126h-94v47h81l-67 241h72l62 -241h199l63 241h64l63 -241h198l62 241h72l-67 -241h81v-47h-94l-34 -126h128v-48h-142l-65 -238h-74zM227 412l32 -126h109l33 126h-174zM616 412l33 -126h109l32 126h-174z
M272 238l41 -163l43 163h-84zM662 238l42 -163l42 163h-84z" />
    <glyph glyph-name="Euro" unicode="&#x20ac;" horiz-adv-x="709" 
d="M57 408v46h69c30 179 140 257 263 257c99 0 189 -55 259 -103l-36 -47c-54 37 -137 91 -221 91c-96 0 -170 -71 -195 -198h300v-46h-307c-2 -19 -3 -38 -3 -58c0 -23 1 -44 3 -64h307v-46h-299c26 -124 100 -192 194 -192c84 0 167 54 221 91l36 -47
c-70 -48 -160 -103 -259 -103c-121 0 -231 76 -262 251h-70v46h64c-2 20 -3 41 -3 64c0 20 1 39 2 58h-63z" />
    <glyph glyph-name="uni2116" unicode="&#x2116;" horiz-adv-x="1116" 
d="M555 0l-386 603v-603h-65v700h68l386 -603v603h65v-700h-68zM1054 492c0 -130 -62 -199 -178 -199s-179 69 -179 199c0 129 63 199 179 199s178 -70 178 -199zM995 492c0 98 -34 151 -119 151s-119 -53 -119 -151c0 -99 34 -151 119 -151s119 52 119 151zM730 189v45h292
v-45h-292z" />
    <glyph glyph-name="uni2117" unicode="&#x2117;" horiz-adv-x="847" 
d="M600 432c0 -95 -61 -129 -146 -129h-90v-164h-50v421h140c85 0 146 -33 146 -128zM550 432c0 65 -42 86 -95 86h-91v-172h91c53 0 95 21 95 86zM67 350c0 202 128 361 357 361s356 -159 356 -361s-127 -361 -356 -361s-357 159 -357 361zM107 350
c0 -182 112 -323 316 -323c205 0 318 141 318 323s-113 323 -318 323c-204 0 -316 -141 -316 -323z" />
    <glyph glyph-name="servicemark" unicode="&#x2120;" horiz-adv-x="663" 
d="M536 476v163l-72 -126h-28l-71 125v-162h-43v224h45l83 -146l84 146h44v-224h-42zM202 605c36 -10 83 -26 83 -68c0 -40 -43 -65 -96 -65c-45 0 -89 16 -116 30l20 28c24 -11 64 -24 94 -24c26 0 55 9 55 29c0 23 -43 29 -87 41c-35 10 -75 24 -75 64c0 39 37 64 88 64
c41 0 80 -13 104 -25l-20 -27c-23 9 -55 18 -82 18c-25 0 -48 -9 -48 -27c0 -23 37 -26 80 -38z" />
    <glyph glyph-name="trademark" unicode="&#x2122;" horiz-adv-x="660" 
d="M532 476v163l-72 -126h-27l-73 129v-166h-42v224h46l82 -146l84 146h44v-224h-42zM279 665h-83v-189h-43v189h-81v35h207v-35z" />
    <glyph glyph-name="Omega" unicode="&#x2126;" horiz-adv-x="740" 
d="M369 711c216 0 298 -149 298 -357c0 -180 -88 -267 -143 -297h121v-57h-218v55c94 37 173 128 173 296c0 179 -57 303 -231 303c-173 0 -230 -124 -230 -303c0 -168 79 -259 173 -296v-55h-219v57h119c-52 31 -140 117 -140 297c0 208 81 357 297 357z" />
    <glyph glyph-name="onethird" unicode="&#x2153;" horiz-adv-x="814" 
d="M190 280h-54v367l-78 -39l-24 36l106 56h50v-420zM547 700l-335 -700h-56l334 700h57zM451 37l25 38c22 -14 75 -37 125 -37c58 0 105 31 105 81c0 65 -81 87 -140 87h-20v46h24c56 0 116 22 116 72c0 36 -32 58 -81 58c-47 0 -89 -21 -111 -35l-24 34
c14 10 68 46 142 46c84 0 127 -48 127 -99c0 -38 -24 -77 -84 -96c59 -14 105 -57 105 -114c0 -62 -48 -125 -153 -125c-71 0 -134 30 -156 44z" />
    <glyph glyph-name="twothirds" unicode="&#x2154;" horiz-adv-x="953" 
d="M354 325v-45h-295v34c0 88 69 127 140 173c54 35 101 65 101 110c0 37 -31 65 -87 65c-49 0 -95 -23 -116 -38l-26 35c30 20 81 48 147 48c83 0 136 -44 136 -109c0 -79 -79 -120 -150 -165c-52 -33 -85 -58 -85 -108h235zM687 700l-335 -700h-56l335 700h56zM590 37
l26 38c22 -14 75 -37 125 -37c59 0 106 31 106 81c0 65 -82 87 -141 87h-20v46h24c56 0 116 22 116 72c0 36 -32 58 -80 58s-90 -21 -111 -35l-24 34c13 10 68 46 140 46c85 0 128 -48 128 -99c0 -38 -23 -77 -84 -96c60 -14 105 -57 105 -114c0 -62 -48 -125 -153 -125
c-71 0 -133 30 -157 44z" />
    <glyph glyph-name="oneeighth" unicode="&#x215b;" horiz-adv-x="820" 
d="M443 108c0 65 55 99 106 119c-39 17 -80 45 -80 98c0 62 56 102 137 102s138 -40 138 -102c0 -53 -42 -81 -81 -98c50 -20 105 -54 105 -119c0 -72 -70 -115 -162 -115c-93 0 -163 43 -163 115zM547 700l-335 -700h-56l334 700h57zM714 111c0 50 -56 76 -108 95
c-52 -19 -109 -45 -109 -95c0 -47 50 -75 109 -75c60 0 108 28 108 75zM190 280h-54v367l-78 -39l-24 36l106 56h50v-420zM521 321c0 -43 50 -63 85 -75c34 12 85 32 85 75c0 35 -36 65 -85 65c-50 0 -85 -30 -85 -65z" />
    <glyph glyph-name="threeeighths" unicode="&#x215c;" horiz-adv-x="941" 
d="M564 108c0 65 55 99 106 119c-39 17 -80 45 -80 98c0 62 57 102 137 102c81 0 138 -40 138 -102c0 -53 -42 -81 -81 -98c50 -20 106 -54 106 -119c0 -72 -71 -115 -163 -115c-93 0 -163 43 -163 115zM50 317l26 38c22 -14 74 -37 126 -37c58 0 104 31 104 81
c0 65 -81 87 -140 87h-20v46h23c57 0 117 22 117 72c0 36 -31 58 -81 58c-48 0 -88 -21 -111 -35l-23 34c13 10 68 46 140 46c86 0 129 -48 129 -99c0 -38 -25 -77 -84 -96c59 -14 104 -57 104 -114c0 -62 -47 -125 -153 -125c-71 0 -133 30 -157 44zM667 700l-335 -700h-56
l334 700h57zM835 111c0 50 -56 76 -108 95c-52 -19 -109 -45 -109 -95c0 -47 50 -75 109 -75c60 0 108 28 108 75zM642 321c0 -43 50 -63 85 -75c34 12 85 32 85 75c0 35 -36 65 -85 65c-50 0 -85 -30 -85 -65z" />
    <glyph glyph-name="fiveeighths" unicode="&#x215d;" horiz-adv-x="919" 
d="M542 108c0 65 55 99 106 119c-39 17 -79 45 -79 98c0 62 56 102 137 102s137 -40 137 -102c0 -53 -42 -81 -81 -98c50 -20 106 -54 106 -119c0 -72 -69 -115 -162 -115s-164 43 -164 115zM72 493l24 207h240v-45h-197l-12 -124c21 9 46 16 78 16c93 0 150 -62 150 -135
c0 -71 -53 -139 -158 -139c-65 0 -116 28 -143 44l25 39c13 -9 62 -37 112 -37c57 0 107 36 107 93c0 49 -36 91 -103 91c-41 0 -75 -16 -93 -26zM647 700l-335 -700h-56l335 700h56zM814 111c0 50 -57 76 -109 95c-52 -19 -107 -45 -107 -95c0 -47 48 -75 108 -75
s108 28 108 75zM621 321c0 -43 49 -63 84 -75c35 12 85 32 85 75c0 35 -34 65 -84 65s-85 -30 -85 -65z" />
    <glyph glyph-name="seveneighths" unicode="&#x215e;" horiz-adv-x="829" 
d="M452 108c0 65 55 99 105 119c-39 17 -80 45 -80 98c0 62 57 102 137 102c81 0 138 -40 138 -102c0 -53 -42 -81 -81 -98c50 -20 106 -54 106 -119c0 -72 -70 -115 -163 -115c-92 0 -162 43 -162 115zM556 700l-335 -700h-56l334 700h57zM322 660c0 0 -162 -190 -162 -380
h-56c0 172 145 358 158 375h-224v45h284v-40zM723 111c0 50 -57 76 -109 95c-52 -19 -108 -45 -108 -95c0 -47 49 -75 108 -75c61 0 109 28 109 75zM529 321c0 -43 50 -63 85 -75c34 12 85 32 85 75c0 35 -35 65 -85 65c-49 0 -85 -30 -85 -65z" />
    <glyph glyph-name="partialdiff" unicode="&#x2202;" horiz-adv-x="611" 
d="M468 394c-25 113 -109 253 -269 253c-42 0 -74 -9 -74 -9l-14 50s37 12 89 12c200 0 341 -174 341 -421c0 -224 -115 -290 -240 -290c-152 0 -243 96 -243 243s91 244 228 244c132 0 182 -82 182 -82zM476 233c0 120 -63 190 -177 190c-115 0 -176 -79 -176 -191
c0 -115 62 -190 176 -190c110 0 177 70 177 191z" />
    <glyph glyph-name="Delta" unicode="&#x2206;" horiz-adv-x="674" 
d="M646 0h-618l271 700h74zM559 57l-222 566l-224 -566h446z" />
    <glyph glyph-name="product" unicode="&#x220f;" horiz-adv-x="691" 
d="M654 700v-57h-109v-643h-65v643h-269v-643h-66v643h-109v57h618z" />
    <glyph glyph-name="summation" unicode="&#x2211;" horiz-adv-x="550" 
d="M58 700h429v-57h-348l282 -293l-282 -293h348v-57h-429v56l279 294l-279 294v56z" />
    <glyph glyph-name="minus" unicode="&#x2212;" horiz-adv-x="607" 
d="M55 307v52h498v-52h-498z" />
    <glyph glyph-name="radical" unicode="&#x221a;" horiz-adv-x="567" 
d="M548 700l-300 -700h-37l-179 340h69l125 -240l252 600h70z" />
    <glyph glyph-name="infinity" unicode="&#x221e;" horiz-adv-x="929" 
d="M241 413c99 0 164 -66 223 -121c58 55 123 121 223 121c102 0 173 -69 173 -155s-71 -155 -174 -155c-85 0 -144 47 -222 120c-70 -65 -131 -120 -223 -120c-103 0 -173 69 -173 155s70 155 173 155zM687 362c-65 0 -116 -40 -185 -104c52 -47 109 -104 186 -104
c78 0 114 58 114 104c0 45 -35 104 -115 104zM240 154c77 0 134 57 186 104c-70 64 -119 104 -185 104c-80 0 -114 -59 -114 -104c0 -46 35 -104 113 -104z" />
    <glyph glyph-name="integral" unicode="&#x222b;" horiz-adv-x="393" 
d="M164 85v553c0 147 42 201 193 201h14v-49h-24c-119 0 -118 -72 -118 -179v-553c0 -148 -42 -201 -193 -201h-14v49h23c120 0 119 72 119 179z" />
    <glyph glyph-name="approxequal" unicode="&#x2248;" horiz-adv-x="607" 
d="M100 369l-45 18c35 71 83 98 137 98c93 0 150 -68 230 -68c30 0 58 8 87 62l45 -18c-35 -70 -82 -98 -137 -98c-92 0 -150 69 -230 69c-29 0 -57 -9 -87 -63zM100 192l-45 18c35 71 83 99 137 99c93 0 150 -69 230 -69c30 0 58 9 87 62l45 -17c-35 -71 -82 -99 -137 -99
c-92 0 -150 69 -230 69c-29 0 -57 -9 -87 -63z" />
    <glyph glyph-name="notequal" unicode="&#x2260;" horiz-adv-x="607" 
d="M54 397v52h271l73 170l45 -18l-66 -152h175v-52h-197l-54 -125h251v-53h-274l-72 -168l-44 18l64 150h-172v53h195l53 125h-248z" />
    <glyph glyph-name="lessequal" unicode="&#x2264;" horiz-adv-x="607" 
d="M549 482l-423 -169l423 -168v-63l-497 208v47l497 208v-63zM51 0v49h498v-49h-498z" />
    <glyph glyph-name="greaterequal" unicode="&#x2265;" horiz-adv-x="607" 
d="M554 337v-47l-497 -208v63l422 168l-422 169v63zM555 49v-49h-498v49h498z" />
    <glyph glyph-name="uni2318" unicode="&#x2318;" horiz-adv-x="820" 
d="M608 40c-77 0 -138 57 -138 129v78h-120v-78c0 -72 -62 -129 -137 -129c-78 0 -140 57 -140 129c0 70 62 128 140 128h85v108h-85c-78 0 -140 58 -140 129s62 128 140 128c75 0 137 -57 137 -128v-79h120v79c0 71 61 128 138 128s138 -57 138 -128s-61 -129 -138 -129
h-86v-108h86c77 0 138 -58 138 -128c0 -72 -61 -129 -138 -129zM608 247h-86v-78c0 -44 38 -79 86 -79c47 0 86 35 86 79c0 43 -39 78 -86 78zM298 247h-85c-49 0 -88 -35 -88 -78c0 -44 39 -79 88 -79c47 0 85 35 85 79v78zM350 405v-108h120v108h-120zM522 534v-79h86
c47 0 86 35 86 79c0 43 -39 78 -86 78c-48 0 -86 -35 -86 -78zM213 455h85v79c0 43 -38 78 -85 78c-49 0 -88 -35 -88 -78c0 -44 39 -79 88 -79z" />
    <glyph glyph-name="lozenge" unicode="&#x25ca;" horiz-adv-x="545" 
d="M313 0h-79l-191 350l191 350h79l192 -350zM436 350l-163 297l-161 -297l161 -297z" />
    <glyph glyph-name="commaaccent" unicode="&#xf6c3;" horiz-adv-x="74" 
d="M8 -154v89h70l9 -91l-64 -108l-23 23l41 87h-33z" />
    <glyph glyph-name="centinferior" unicode="&#xf6df;" horiz-adv-x="366" 
d="M219 -150h-41v47c-70 5 -133 59 -133 163c0 105 63 159 133 163v47h41v-49c43 -8 81 -31 104 -43l-25 -37c-15 8 -46 28 -79 36v-234c33 8 64 28 79 36l25 -38c-23 -11 -61 -34 -104 -42v-49zM98 60c0 -67 34 -111 80 -118v236c-46 -7 -80 -51 -80 -118z" />
    <glyph glyph-name="centsuperior" unicode="&#xf6e0;" horiz-adv-x="366" 
d="M219 385h-41v46c-70 5 -133 60 -133 164c0 105 63 159 133 163v47h41v-49c43 -8 81 -31 104 -43l-25 -37c-15 8 -46 28 -79 36v-234c33 8 64 27 79 36l25 -38c-23 -12 -61 -34 -104 -42v-49zM98 595c0 -68 34 -111 80 -119v237c-46 -7 -80 -51 -80 -118z" />
    <glyph glyph-name="commainferior" unicode="&#xf6e1;" horiz-adv-x="181" 
d="M60 -150v73h58l8 -77l-52 -77l-18 19l31 62h-27z" />
    <glyph glyph-name="commasuperior" unicode="&#xf6e2;" horiz-adv-x="181" 
d="M60 385v73h58l8 -77l-52 -77l-18 19l31 62h-27z" />
    <glyph glyph-name="dollarinferior" unicode="&#xf6e3;" horiz-adv-x="402" 
d="M221 -210h-40v56c-56 7 -110 29 -144 49l26 39c30 -17 75 -36 118 -43v155l-7 2c-59 18 -127 44 -127 117c0 69 58 109 134 112v54h40v-56c45 -6 93 -22 125 -37l-24 -40c-30 13 -68 25 -101 31v-142l3 -1c62 -20 139 -47 139 -127c0 -75 -67 -114 -142 -116v-53z
M309 -45c0 40 -37 60 -88 78v-145c45 2 88 23 88 67zM102 168c0 -39 33 -55 79 -69v133c-42 -3 -79 -23 -79 -64z" />
    <glyph glyph-name="dollarsuperior" unicode="&#xf6e4;" horiz-adv-x="402" 
d="M221 325h-40v55c-56 7 -110 30 -144 50l26 39c30 -18 75 -36 118 -43v155l-7 2c-59 18 -127 44 -127 117c0 69 58 109 134 112v54h40v-56c45 -6 93 -22 125 -37l-24 -40c-30 13 -68 25 -101 31v-142l3 -1c62 -20 139 -47 139 -127c0 -75 -67 -114 -142 -116v-53zM309 490
c0 40 -37 60 -88 78v-145c45 1 88 23 88 67zM102 703c0 -39 33 -55 79 -69v133c-42 -3 -79 -23 -79 -64z" />
    <glyph glyph-name="periodinferior" unicode="&#xf6e7;" horiz-adv-x="178" 
d="M59 -150v73h60v-73h-60z" />
    <glyph glyph-name="periodsuperior" unicode="&#xf6e8;" horiz-adv-x="178" 
d="M59 385v73h60v-73h-60z" />
    <glyph glyph-name="asuperior" unicode="&#xf6e9;" horiz-adv-x="377" 
d="M270 385v42c-25 -22 -69 -49 -124 -49c-53 0 -110 28 -110 101c0 71 53 103 115 103c37 0 92 -12 119 -17v35c0 44 -17 66 -70 66c-37 0 -77 -12 -123 -26l-18 37c55 18 105 30 147 30c72 0 115 -29 115 -105v-217h-51zM159 420c45 0 80 20 111 46v69
c-23 3 -67 14 -99 14c-62 0 -82 -31 -82 -68c0 -43 29 -61 70 -61z" />
    <glyph glyph-name="bsuperior" unicode="&#xf6ea;" horiz-adv-x="395" 
d="M59 385v437h52v-163c27 23 65 48 117 48c69 0 125 -49 125 -165c0 -115 -56 -164 -125 -164c-52 0 -90 25 -117 47v-40h-52zM218 665c-42 0 -81 -23 -107 -51v-144c26 -28 65 -50 107 -50c55 0 83 46 83 122c0 77 -28 123 -83 123z" />
    <glyph glyph-name="dsuperior" unicode="&#xf6eb;" horiz-adv-x="395" 
d="M336 385h-51v41c-26 -23 -65 -48 -117 -48c-70 0 -126 49 -126 164c0 116 56 165 126 165c52 0 91 -26 117 -49v164h51v-437zM178 420c42 0 80 22 107 50v144c-27 28 -65 51 -107 51c-55 0 -83 -46 -83 -123c0 -76 28 -122 83 -122z" />
    <glyph glyph-name="esuperior" unicode="&#xf6ec;" horiz-adv-x="379" 
d="M331 530h-237c4 -69 41 -112 96 -112c45 0 92 26 123 43l24 -33c-30 -17 -86 -50 -150 -50c-80 0 -146 55 -146 165c0 105 65 164 155 164c91 0 139 -58 139 -137c0 -23 -4 -40 -4 -40zM194 667c-58 0 -94 -40 -100 -105h190c0 74 -33 105 -90 105z" />
    <glyph glyph-name="isuperior" unicode="&#xf6ed;" horiz-adv-x="169" 
d="M112 385h-52v315h52v-315zM57 762v59h57v-59h-57z" />
    <glyph glyph-name="lsuperior" unicode="&#xf6ee;" horiz-adv-x="169" 
d="M110 385h-51v437h51v-437z" />
    <glyph glyph-name="msuperior" unicode="&#xf6ef;" horiz-adv-x="595" 
d="M111 700v-47c24 22 71 54 122 54c57 0 79 -32 87 -59c22 21 73 59 128 59c69 0 91 -45 91 -98v-224h-51v215c0 36 -12 65 -56 65c-41 0 -84 -31 -107 -54v-226h-52v215c0 36 -11 65 -55 65c-41 0 -84 -30 -107 -53v-227h-52v315h52z" />
    <glyph glyph-name="osuperior" unicode="&#xf6f0;" horiz-adv-x="393" 
d="M351 542c0 -102 -54 -164 -155 -164s-155 63 -155 164c0 102 54 165 155 165s155 -63 155 -165zM299 542c0 75 -30 123 -103 123s-103 -48 -103 -123c0 -74 30 -122 103 -122s103 48 103 122z" />
    <glyph glyph-name="rsuperior" unicode="&#xf6f1;" horiz-adv-x="260" 
d="M111 700v-68c4 12 38 78 125 72v-48c-113 0 -125 -100 -125 -100v-171h-52v315h52z" />
    <glyph glyph-name="ssuperior" unicode="&#xf6f2;" horiz-adv-x="339" 
d="M183 566c73 -18 120 -45 120 -100c0 -60 -56 -88 -121 -88c-56 0 -114 22 -146 39l23 38c32 -17 83 -35 120 -35c38 0 72 12 72 45c0 38 -55 50 -96 61c-52 13 -113 33 -113 94c0 55 48 87 117 87c50 0 98 -18 130 -33l-24 -35c-30 14 -71 27 -105 27
c-39 0 -68 -14 -68 -44c0 -38 56 -47 91 -56z" />
    <glyph glyph-name="tsuperior" unicode="&#xf6f3;" horiz-adv-x="264" 
d="M27 661v39h46v79l52 12v-91h91v-39h-91v-205c0 -27 13 -34 30 -34c20 0 52 12 63 17l20 -39c-15 -6 -56 -22 -91 -22c-41 0 -74 19 -74 80v203h-46z" />
    <glyph glyph-name="apple" unicode="&#xf8ff;" horiz-adv-x="857" 
d="M745 327c-13 -5 -13 -16 -3 -23l28 -20c11 -7 10 -15 -3 -18l-34 -6c-14 -2 -16 -12 -7 -22l24 -24c8 -9 6 -17 -8 -17l-35 2c-13 0 -18 -9 -10 -20l18 -30c7 -11 2 -17 -11 -15l-34 9c-12 4 -19 -5 -15 -17l11 -33c5 -12 -1 -18 -13 -12l-31 15c-11 6 -20 0 -19 -14
l5 -33c1 -14 -5 -17 -15 -9l-28 21c-10 8 -20 3 -21 -10l-2 -34c-1 -13 -9 -15 -17 -6l-23 27c-9 9 -18 8 -22 -5l-10 -33c-3 -13 -12 -13 -18 -2l-17 30c-6 12 -15 12 -23 0l-15 -30c-6 -11 -15 -11 -18 2l-10 33c-4 13 -13 14 -22 5l-23 -27c-8 -9 -15 -7 -17 6l-2 34
c-1 13 -11 18 -22 10l-26 -21c-11 -8 -19 -5 -16 9l5 33c1 14 -8 20 -20 14l-30 -15c-12 -6 -18 0 -13 12l11 33c5 12 -3 21 -15 17l-34 -9c-13 -2 -18 4 -11 15l19 30c7 11 2 20 -11 20l-35 -2c-14 0 -16 8 -8 17l25 24c8 10 6 20 -8 22l-33 6c-14 3 -15 11 -4 18l28 20
c3 2 5 5 6 6c6 5 13 2 18 -6l16 -31c6 -12 14 -10 18 2l9 34c4 12 14 14 22 4l23 -26c9 -10 16 -7 17 6l2 34c2 13 11 17 21 9l28 -21c11 -8 18 -4 15 9l-4 34c-2 13 7 19 18 13l31 -14c12 -6 18 0 14 12l-11 33c-5 12 2 20 14 16l7 -1c26 -50 49 -145 49 -205
c-8 -10 -17 -18 -46 -18h-4c0 14 -5 26 -16 35c7 -8 9 -17 9 -27v-7c-11 1 -16 8 -16 19c0 27 -18 49 -51 49c-27 0 -47 -23 -47 -54c0 -38 33 -65 92 -65c144 0 278 190 278 319c0 38 -26 67 -64 67c-30 0 -60 -24 -60 -58s21 -54 58 -58c-8 -32 -15 -60 -29 -85
c-8 62 -29 119 -58 150c29 -38 47 -97 52 -161l-14 -20c0 100 -36 197 -89 224c-3 6 2 13 12 15l34 6c12 2 14 10 3 17l-29 19c-10 9 -9 18 3 23l31 14c14 4 14 13 0 18l-31 13c-9 4 -11 8 -10 14c4 2 6 4 7 8l17 30c6 12 15 11 18 -1l10 -33c4 -13 13 -16 22 -5l23 26
c8 10 16 8 17 -5l2 -35c1 -14 11 -17 21 -9l28 21c10 8 16 3 15 -10l-5 -34c-1 -13 8 -19 19 -13l31 16c12 5 18 0 13 -14l-11 -31c-4 -13 3 -21 15 -17l34 7c13 4 18 -2 11 -14l-18 -29c-8 -11 -3 -21 10 -20l35 2c14 0 16 -8 8 -17l-24 -26c-9 -9 -7 -19 7 -21l34 -6
c13 -3 14 -10 3 -19l-28 -19c-10 -7 -10 -17 3 -22l31 -13c12 -5 12 -13 0 -18zM364 124c144 0 278 189 278 319c0 19 -7 37 -20 49c8 -12 12 -25 12 -41c0 -66 -34 -146 -85 -210c-52 -64 -122 -113 -196 -113c-19 0 -36 3 -49 9c14 -9 35 -13 60 -13z" />
    <glyph glyph-name="s_t" unicode="&#xfb06;" horiz-adv-x="875" 
d="M541 475v50h74v35c0 74 -34 130 -122 130c-78 0 -121 -48 -121 -119c0 -27 5 -49 15 -66c17 -7 33 -14 47 -21l-29 -45c-49 24 -112 45 -166 45c-66 0 -117 -29 -117 -85c0 -71 92 -90 144 -104c120 -31 190 -75 190 -163c0 -100 -90 -143 -184 -143
c-87 0 -173 35 -223 63l29 47c50 -28 128 -58 189 -58c62 0 127 27 127 88c0 72 -94 96 -159 114c-80 22 -175 52 -175 153c0 91 77 140 178 140c35 0 70 -6 102 -15c-7 16 -10 34 -10 56c0 95 66 152 168 152c120 0 178 -71 178 -179v-25h146v-50h-146v-373
c0 -45 21 -58 52 -58s86 20 105 28l25 -48c-21 -10 -85 -35 -137 -35c-56 0 -106 24 -106 117v369h-74z" />
    <glyph glyph-name="eight.numr" horiz-adv-x="413" 
d="M44 388c0 65 55 99 106 119c-39 17 -79 45 -79 98c0 62 56 102 137 102s137 -40 137 -102c0 -53 -42 -81 -81 -98c50 -20 106 -54 106 -119c0 -72 -70 -115 -162 -115c-94 0 -164 43 -164 115zM315 391c0 50 -56 76 -108 95c-52 -19 -108 -45 -108 -95
c0 -47 49 -75 109 -75s107 28 107 75zM123 601c0 -43 49 -63 84 -75c35 12 85 32 85 75c0 35 -35 65 -84 65c-51 0 -85 -30 -85 -65z" />
    <glyph glyph-name="Qsuperior" horiz-adv-x="486" 
d="M243 378c-141 0 -193 98 -193 217s52 217 193 217c140 0 193 -98 193 -217c0 -101 -38 -186 -134 -210l74 -56l-36 -37zM243 424c104 0 138 76 138 171s-34 171 -138 171c-105 0 -138 -76 -138 -171s33 -171 138 -171z" />
    <glyph glyph-name="f_f.calt" horiz-adv-x="688" 
d="M36 475v50h74v87c0 93 48 117 106 117c47 0 122 -23 148 -32l-22 -47c-23 6 -91 24 -119 24c-30 0 -52 -13 -52 -57v-92h142v-50h-142v-475h-61v475h-74zM382 475v50h73v87c0 93 50 117 103 117c43 0 101 -18 121 -25l-21 -47c-18 5 -67 17 -90 17c-30 0 -51 -13 -51 -57
v-92h144v-50h-144v-475h-62v475h-73z" />
    <glyph glyph-name="f_f.ss01" horiz-adv-x="657" 
d="M36 475v50h73v77c0 92 61 117 128 117c65 0 161 -20 204 -30c19 30 53 40 90 40c47 0 121 -23 147 -32l-24 -47c-22 6 -89 24 -117 24c-30 0 -50 -13 -50 -57v-92h143v-50h-143v-475h-63v475h-253v-475h-62v475h-73zM171 607v-82h253v87c0 9 0 18 1 26
c-42 8 -142 26 -188 26c-35 0 -66 -16 -66 -57z" />
    <glyph glyph-name="f_f_b.ss01" horiz-adv-x="1250" 
d="M36 475v50h73v77c0 92 61 117 128 117s168 -22 208 -31c24 31 64 41 107 41c58 0 144 -17 188 -28v28h63v-275c41 38 104 82 187 82c109 0 200 -77 200 -274c0 -196 -91 -273 -200 -273c-83 0 -146 44 -187 81v-70h-63v647c-35 7 -142 27 -188 27c-34 0 -65 -16 -65 -57
v-92h143v-50h-143v-475h-63v475h-253v-475h-62v475h-73zM984 482c-73 0 -138 -42 -181 -89v-262c43 -47 108 -88 181 -88c93 0 142 84 142 219c0 136 -49 220 -142 220zM424 612c0 9 0 18 2 26c-42 8 -143 26 -189 26c-35 0 -66 -16 -66 -57v-82h253v87z" />
    <glyph glyph-name="f_f_h.ss01" horiz-adv-x="1253" 
d="M36 475v50h73v77c0 92 61 117 128 117s168 -22 208 -31c24 31 64 41 107 41c58 0 144 -17 188 -28v28h63v-281c37 29 130 88 220 88c115 0 146 -76 146 -160v-376h-62v366c0 65 -21 117 -98 117c-78 0 -169 -60 -206 -92v-391h-63v647c-35 7 -142 27 -188 27
c-34 0 -65 -16 -65 -57v-92h143v-50h-143v-475h-63v475h-253v-475h-62v475h-73zM424 612c0 9 0 18 2 26c-42 8 -143 26 -189 26c-35 0 -66 -16 -66 -57v-82h253v87z" />
    <glyph glyph-name="f_f_i.ss01" horiz-adv-x="864" 
d="M36 475v50h73v77c0 92 61 117 128 117s168 -22 208 -31c24 31 65 41 109 41c64 0 163 -23 197 -32l-26 -48c-33 6 -127 25 -171 25c-36 0 -67 -16 -67 -57v-92h290v-525h-62v475h-228v-475h-63v475h-253v-475h-62v475h-73zM424 612c0 9 0 18 2 26c-42 8 -143 26 -189 26
c-35 0 -66 -16 -66 -57v-82h253v87z" />
    <glyph glyph-name="f_f_j.ss01" horiz-adv-x="864" 
d="M38 475v50h73v77c0 92 61 117 128 117s168 -22 208 -31c24 31 65 41 109 41c64 0 163 -23 197 -32l-26 -48c-33 6 -127 25 -171 25c-36 0 -67 -16 -67 -57v-92h290v-556c0 -102 0 -135 -158 -177l-22 49c118 38 118 47 118 126v508h-228v-475h-63v475h-253v-475h-62v475
h-73zM426 612c0 9 0 18 2 26c-42 8 -143 26 -189 26c-35 0 -66 -16 -66 -57v-82h253v87z" />
    <glyph glyph-name="f_f_k.ss01" horiz-adv-x="1165" 
d="M36 475v50h73v77c0 92 61 117 128 117s168 -22 208 -31c24 31 64 41 107 41c58 0 144 -17 188 -28v28h63v-498l238 294h71l-178 -214l211 -311h-69l-180 266l-93 -112v-154h-63v647c-35 7 -142 27 -188 27c-34 0 -65 -16 -65 -57v-92h143v-50h-143v-475h-63v475h-253
v-475h-62v475h-73zM424 612c0 9 0 18 2 26c-42 8 -143 26 -189 26c-35 0 -66 -16 -66 -57v-82h253v87z" />
    <glyph glyph-name="f.calt" horiz-adv-x="342" 
d="M36 475v50h74v87c0 93 50 117 103 117c43 0 100 -18 121 -25l-21 -47c-18 5 -68 17 -90 17c-30 0 -52 -13 -52 -57v-92h145v-50h-145v-475h-61v475h-74z" />
    <glyph glyph-name="f_f_l.ss01" horiz-adv-x="897" 
d="M36 475v50h73v77c0 92 61 117 128 117s168 -22 208 -31c24 31 64 41 107 41c58 0 144 -17 188 -28v28h63v-729h-63v647c-35 7 -142 27 -188 27c-34 0 -65 -16 -65 -57v-92h143v-50h-143v-475h-63v475h-253v-475h-62v475h-73zM424 612c0 9 0 18 2 26
c-42 8 -143 26 -189 26c-35 0 -66 -16 -66 -57v-82h253v87z" />
    <glyph glyph-name="f_f_t.ss01" horiz-adv-x="982" 
d="M36 475v50h73v77c0 92 61 117 128 117c65 0 161 -20 204 -30c19 30 52 40 89 40c47 0 122 -23 148 -32l-24 -47c-23 6 -89 24 -117 24c-30 0 -51 -13 -51 -57v-92h236v132l61 20v-152h146v-50h-146v-373c0 -45 22 -58 52 -58s85 20 105 28l24 -48
c-21 -10 -84 -35 -136 -35c-57 0 -106 24 -106 117v369h-236v-475h-62v475h-253v-475h-62v475h-73zM424 612c0 9 0 18 1 26c-42 8 -142 26 -188 26c-35 0 -66 -16 -66 -57v-82h253v87z" />
    <glyph glyph-name="f_h.ss01" horiz-adv-x="938" 
d="M36 475v50h73v87c0 92 61 117 128 117c59 0 143 -18 188 -28v28h63v-281c37 29 129 88 220 88c114 0 146 -76 146 -160v-376h-62v366c0 65 -21 117 -98 117c-78 0 -169 -61 -206 -93v-390h-63v647c-35 7 -142 27 -188 27c-35 0 -66 -16 -66 -57v-92h144v-50h-144v-475
h-62v475h-73z" />
    <glyph glyph-name="exclamsuperior" horiz-adv-x="192" 
d="M66 385v69h59v-69h-59zM126 805l-15 -295h-32l-15 295h62z" />
    <glyph glyph-name="f_i.ss01" horiz-adv-x="549" 
d="M36 475v50h73v87c0 92 61 117 130 117c64 0 163 -23 197 -32l-26 -48c-33 6 -127 25 -171 25c-37 0 -68 -16 -68 -57v-92h291v-525h-62v475h-229v-475h-62v475h-73z" />
    <glyph glyph-name="f_j.ss01" horiz-adv-x="549" 
d="M38 475v50h73v87c0 92 61 117 130 117c64 0 163 -23 197 -32l-26 -48c-33 6 -127 25 -171 25c-37 0 -68 -16 -68 -57v-92h291v-556c0 -102 0 -135 -158 -177l-22 49c118 38 118 47 118 126v508h-229v-475h-62v475h-73z" />
    <glyph glyph-name="f_k.ss01" horiz-adv-x="850" 
d="M36 475v50h73v87c0 92 61 117 128 117c59 0 143 -18 188 -28v28h63v-498l238 294h71l-179 -214l212 -311h-69l-180 266l-93 -111v-155h-63v647c-35 7 -142 27 -188 27c-35 0 -66 -16 -66 -57v-92h144v-50h-144v-475h-62v475h-73z" />
    <glyph glyph-name="exclaminferior" horiz-adv-x="190" 
d="M65 -150v69h59v-69h-59zM125 270l-15 -295h-32l-15 295h62z" />
    <glyph glyph-name="f_l.ss01" horiz-adv-x="582" 
d="M36 475v50h73v87c0 92 61 117 128 117c59 0 143 -18 188 -28v28h63v-729h-63v647c-35 7 -142 27 -188 27c-35 0 -66 -16 -66 -57v-92h144v-50h-144v-475h-62v475h-73z" />
    <glyph glyph-name="f_t.ss01" horiz-adv-x="668" 
d="M36 475v50h73v87c0 93 48 117 107 117c47 0 121 -23 147 -32l-24 -47c-22 6 -89 24 -117 24c-30 0 -51 -13 -51 -57v-92h235v132l62 20v-152h146v-50h-146v-373c0 -45 22 -58 51 -58c32 0 87 20 106 28l25 -48c-21 -10 -86 -35 -137 -35c-56 0 -107 24 -107 117v369h-235
v-475h-62v475h-73z" />
    <glyph glyph-name="finferior" horiz-adv-x="239" 
d="M28 126v39h46v43c0 60 32 79 74 79c33 0 80 -14 98 -20l-19 -38c-13 4 -54 15 -71 15c-18 0 -30 -7 -30 -34v-45h89v-39h-89v-276h-52v276h-46z" />
    <glyph glyph-name="exclamdownsuperior" horiz-adv-x="191" 
d="M66 736v69h59v-69h-59zM111 680l15 -295h-62l15 295h32z" />
    <glyph glyph-name="five.dnom" horiz-adv-x="387" 
d="M59 213l24 207h240v-45h-197l-12 -124c21 9 46 16 78 16c93 0 149 -62 149 -135c0 -71 -52 -139 -157 -139c-65 0 -116 28 -143 44l25 39c13 -9 62 -37 112 -37c57 0 107 36 107 93c0 49 -36 91 -104 91c-40 0 -74 -16 -93 -26z" />
    <glyph glyph-name="five.numr" horiz-adv-x="387" 
d="M59 493l24 207h240v-45h-197l-12 -124c21 9 46 16 78 16c93 0 149 -62 149 -135c0 -71 -52 -139 -157 -139c-65 0 -116 28 -143 44l25 39c13 -9 62 -37 112 -37c57 0 107 36 107 93c0 49 -36 91 -104 91c-40 0 -74 -16 -93 -26z" />
    <glyph glyph-name="five.onum" horiz-adv-x="565" 
d="M79 231l38 343h363v-57h-312l-20 -234c32 17 74 31 129 31c142 0 231 -101 231 -223c0 -115 -82 -228 -243 -228c-97 0 -173 42 -214 67l31 50c18 -12 97 -59 176 -59c96 0 183 67 183 171c0 90 -64 166 -175 166c-69 0 -124 -29 -152 -45z" />
    <glyph glyph-name="five.tnum" horiz-adv-x="615" 
d="M105 357l38 343h363v-57h-312l-20 -234c32 17 74 31 129 31c142 0 231 -101 231 -223c0 -115 -82 -228 -243 -228c-97 0 -173 42 -214 67l31 50c18 -12 97 -59 177 -59c95 0 182 67 182 171c0 90 -64 166 -175 166c-69 0 -124 -29 -152 -45z" />
    <glyph glyph-name="exclamdowninferior" horiz-adv-x="190" 
d="M65 201v69h59v-69h-59zM110 145l15 -295h-62l15 295h32z" />
    <glyph glyph-name="fiveeighths.onum" horiz-adv-x="816" 
d="M480 89c0 53 49 81 93 97c-34 14 -70 38 -70 81c0 50 50 83 120 83c69 0 119 -33 119 -83c0 -45 -38 -68 -71 -81c44 -17 94 -44 94 -97c0 -59 -61 -95 -142 -95s-143 36 -143 95zM71 404l21 170h208v-38h-172l-9 -100c18 7 40 13 67 13c83 0 130 -52 130 -111
c0 -58 -45 -114 -136 -114c-58 0 -101 23 -125 36l22 33c11 -7 55 -30 98 -30c49 0 93 29 93 75c0 40 -32 74 -90 74c-36 0 -65 -13 -81 -22zM571 574l-292 -574h-48l291 574h49zM717 91c0 41 -51 63 -95 78c-47 -15 -94 -38 -94 -78c0 -38 43 -61 95 -61c51 0 94 23 94 61z
M548 262c0 -36 44 -51 74 -60c30 8 74 25 74 60c0 29 -31 54 -73 54c-45 0 -75 -26 -75 -54z" />
    <glyph glyph-name="exclamdown.sc" horiz-adv-x="256" 
d="M92 484v90h73v-90h-73zM147 405l17 -405h-71l16 405h38z" />
    <glyph glyph-name="fivesixths" horiz-adv-x="897" 
d="M755 382c-87 0 -156 -60 -172 -160c16 16 54 46 118 46c91 0 141 -60 141 -133c0 -76 -57 -142 -153 -142c-112 0 -164 85 -164 187c0 139 94 247 229 247c34 0 60 -7 60 -7l-12 -42s-22 4 -47 4zM72 493l24 207h240v-45h-197l-12 -124c21 9 46 16 78 16
c93 0 150 -62 150 -135c0 -71 -53 -139 -158 -139c-65 0 -116 28 -143 44l25 39c13 -9 62 -37 112 -37c57 0 107 36 107 93c0 49 -36 91 -103 91c-41 0 -75 -16 -93 -26zM647 700l-335 -700h-56l335 700h56zM691 226c-58 0 -99 -34 -112 -59c2 -80 43 -129 109 -129
c68 0 101 49 101 96c0 44 -29 92 -98 92z" />
    <glyph glyph-name="fivesixths.onum" horiz-adv-x="796" 
d="M666 313c-78 0 -137 -49 -151 -132c14 14 48 39 103 39c79 0 123 -50 123 -109c0 -63 -49 -117 -134 -117c-97 0 -143 70 -143 154c0 114 83 202 201 202c30 0 51 -6 51 -6l-10 -35s-19 4 -40 4zM71 404l21 170h208v-38h-172l-9 -100c18 7 40 13 67 13
c83 0 130 -52 130 -111c0 -58 -45 -114 -136 -114c-58 0 -101 23 -125 36l22 33c11 -7 55 -30 98 -30c49 0 93 29 93 75c0 40 -32 74 -90 74c-36 0 -65 -13 -81 -22zM571 574l-292 -574h-48l291 574h49zM610 184c-52 0 -87 -28 -98 -48c2 -64 36 -104 95 -104s88 40 88 78
c0 36 -25 74 -85 74z" />
    <glyph glyph-name="exclam.sc" horiz-adv-x="256" 
d="M92 0v90h73v-90h-73zM164 574l-17 -405h-37l-17 405h71z" />
    <glyph glyph-name="einferior" horiz-adv-x="377" 
d="M330 -5h-237c4 -68 41 -112 96 -112c45 0 92 26 123 43l24 -33c-30 -17 -86 -50 -150 -50c-80 0 -146 55 -146 165c0 105 65 164 155 164c91 0 139 -58 139 -137c0 -23 -4 -40 -4 -40zM193 132c-58 0 -94 -40 -100 -105h190c0 74 -33 105 -90 105z" />
    <glyph glyph-name="eight.tnum" horiz-adv-x="615" 
d="M57 178c0 110 94 167 174 199c-60 26 -133 72 -133 166c0 103 89 168 209 168s210 -65 210 -168c0 -94 -74 -139 -134 -165c80 -33 174 -89 174 -200c0 -120 -112 -189 -250 -189s-250 69 -250 189zM490 180c0 92 -97 139 -183 170c-86 -31 -182 -78 -182 -170
c0 -86 82 -136 182 -136c101 0 183 50 183 136zM163 539c0 -81 88 -116 144 -134c56 18 145 53 145 134c0 65 -61 118 -145 118s-144 -53 -144 -118z" />
    <glyph glyph-name="four.dnom" horiz-adv-x="418" 
d="M33 93v39l211 288h71v-283h68v-44h-68v-93h-53v93h-229zM90 137h172v237z" />
    <glyph glyph-name="four.numr" horiz-adv-x="418" 
d="M33 373v39l211 288h71v-283h68v-44h-68v-93h-53v93h-229zM90 417h172v237z" />
    <glyph glyph-name="four.onum" horiz-adv-x="612" 
d="M37 35v52l343 487h83v-482h108v-57h-108v-161h-65v161h-361zM108 92h290v419z" />
    <glyph glyph-name="four.tnum" horiz-adv-x="615" 
d="M39 161v52l343 487h82v-482h107v-57h-107v-161h-64v161h-361zM109 218h291v421z" />
    <glyph glyph-name="fourfifths" horiz-adv-x="962" 
d="M39 373v39l212 288h70v-283h68v-44h-68v-93h-53v93h-229zM621 213l23 207h241v-45h-198l-11 -124c21 9 46 16 79 16c93 0 148 -62 148 -135c0 -71 -53 -139 -157 -139c-66 0 -117 28 -143 44l24 39c14 -9 64 -37 113 -37c56 0 108 36 108 93c0 49 -38 91 -104 91
c-41 0 -76 -16 -94 -26zM692 700l-335 -700h-56l334 700h57zM97 417h171v237z" />
    <glyph glyph-name="fourfifths.onum" horiz-adv-x="853" 
d="M43 305v33l185 236h60v-232h59v-37h-59v-75h-45v75h-200zM549 174l20 170h210v-37h-172l-10 -102c19 8 40 14 68 14c82 0 129 -51 129 -110s-45 -115 -136 -115c-57 0 -101 24 -124 36l22 33c10 -7 53 -29 97 -29c49 0 93 29 93 75c0 39 -32 73 -90 73
c-36 0 -66 -12 -81 -22zM611 574l-291 -574h-49l290 574h50zM93 342h150v195z" />
    <glyph glyph-name="eight.onum" horiz-adv-x="622" 
d="M61 178c0 110 93 167 174 199c-60 26 -133 72 -133 166c0 103 88 168 208 168c121 0 210 -65 210 -168c0 -94 -74 -140 -134 -166c80 -32 175 -89 175 -199c0 -120 -113 -189 -251 -189s-249 69 -249 189zM494 180c0 92 -97 139 -184 170c-86 -31 -182 -78 -182 -170
c0 -86 83 -136 182 -136c101 0 184 50 184 136zM166 539c0 -81 90 -116 145 -135c55 19 145 54 145 135c0 65 -61 118 -146 118c-83 0 -144 -53 -144 -118z" />
    <glyph glyph-name="eight.dnom" horiz-adv-x="413" 
d="M44 108c0 65 55 99 106 119c-39 17 -79 45 -79 98c0 62 56 102 137 102s137 -40 137 -102c0 -53 -42 -81 -81 -98c50 -20 106 -54 106 -119c0 -72 -70 -115 -162 -115c-94 0 -164 43 -164 115zM315 111c0 50 -56 76 -108 95c-52 -19 -108 -45 -108 -95
c0 -47 49 -75 109 -75s107 28 107 75zM123 321c0 -43 49 -63 84 -75c35 12 85 32 85 75c0 35 -35 65 -84 65c-51 0 -85 -30 -85 -65z" />
    <glyph glyph-name="dollar.onum" horiz-adv-x="559" 
d="M306 -82h-47v76c-75 8 -150 39 -198 66l30 46c43 -24 107 -50 168 -59v226l-4 1c-85 26 -180 59 -180 160c0 94 84 147 184 149v74h47v-77c62 -7 126 -28 171 -50l-30 -46c-41 20 -94 36 -141 43v-207c88 -27 195 -66 195 -174c0 -103 -95 -152 -195 -155v-73zM439 142
c0 60 -56 89 -133 115v-213c69 1 133 33 133 98zM138 437c0 -60 51 -81 121 -103v196c-64 -2 -121 -31 -121 -93z" />
    <glyph glyph-name="frenchfranc" horiz-adv-x="586" 
d="M59 138v46h57v516h427v-57h-362v-265h290v-57h-290v-137h180v-46h-180v-138h-65v138h-57z" />
    <glyph glyph-name="frenchfranc.onum" horiz-adv-x="531" 
d="M58 110v42h50v422h376v-54h-313v-207h249v-53h-249v-108h156v-42h-156v-110h-63v110h-50z" />
    <glyph glyph-name="frenchfrancinferior" horiz-adv-x="394" 
d="M44 -72v33h36v309h280v-45h-225v-143h180v-44h-180v-77h114v-33h-114v-78h-55v78h-36z" />
    <glyph glyph-name="frenchfrancsuperior" horiz-adv-x="395" 
d="M44 463v33h36v309h280v-45h-225v-143h180v-44h-180v-77h114v-33h-114v-78h-55v78h-36z" />
    <glyph glyph-name="fsuperior" horiz-adv-x="239" 
d="M28 661v39h46v43c0 60 32 79 74 79c33 0 80 -14 98 -20l-19 -38c-13 4 -54 15 -71 15c-18 0 -30 -7 -30 -34v-45h89v-39h-89v-276h-52v276h-46z" />
    <glyph glyph-name="dinferior" horiz-adv-x="395" 
d="M336 -150h-51v41c-26 -22 -65 -48 -117 -48c-70 0 -126 49 -126 164c0 116 56 165 126 165c52 0 91 -26 117 -49v164h51v-437zM178 -115c42 0 80 23 107 51v143c-27 28 -65 51 -107 51c-55 0 -83 -46 -83 -123c0 -76 28 -122 83 -122z" />
    <glyph glyph-name="csuperior" horiz-adv-x="353" 
d="M318 661l-25 -37c-18 10 -63 39 -105 39c-53 0 -94 -47 -94 -120c0 -75 41 -121 94 -121c42 0 87 28 105 39l25 -37c-27 -15 -78 -46 -134 -46c-74 0 -143 55 -143 165c0 109 69 164 143 164c56 0 107 -31 134 -46z" />
    <glyph glyph-name="copyright.sc" horiz-adv-x="725" 
d="M497 414l-26 -29c-23 17 -59 44 -112 44c-62 0 -104 -57 -104 -143c0 -85 42 -141 104 -141c53 0 89 26 112 43l26 -29c-31 -21 -76 -51 -139 -51c-79 0 -146 61 -146 178c0 118 67 179 146 179c63 0 108 -30 139 -51zM65 287c0 166 107 296 299 296
c191 0 296 -130 296 -296s-105 -296 -296 -296c-192 0 -299 130 -299 296zM99 287c0 -149 93 -265 264 -265c170 0 265 116 265 265s-95 265 -265 265c-171 0 -264 -116 -264 -265z" />
    <glyph glyph-name="colonsuperior" horiz-adv-x="182" 
d="M61 589v73h59v-73h-59zM61 385v73h59v-73h-59z" />
    <glyph glyph-name="colonmonetarysuperior" horiz-adv-x="368" 
d="M136 385h-31l15 64c-42 24 -73 73 -73 146c0 110 69 164 143 164h5l11 46h33l-12 -50c8 -2 16 -4 23 -7l14 57h31l-17 -68c19 -9 35 -18 47 -24l-25 -37l-32 18l-53 -217c36 7 70 28 85 37l25 -38c-25 -13 -70 -40 -121 -45l-11 -46h-32l11 47c-8 1 -16 2 -24 5zM100 595
c0 -41 12 -74 33 -95l51 214c-48 -5 -84 -50 -84 -119zM159 482c8 -3 16 -5 24 -6l57 230l-24 7z" />
    <glyph glyph-name="germandblsinferior" horiz-adv-x="421" 
d="M215 277c94 0 156 -37 156 -135v-3l-34 -29c-14 7 -51 21 -80 21c-31 0 -55 -15 -55 -43c0 -39 44 -48 78 -58c61 -18 106 -43 106 -99c0 -60 -49 -88 -107 -88c-53 0 -104 22 -134 39l22 38c29 -17 74 -35 106 -35c31 0 61 13 61 44c0 38 -45 49 -84 62
c-45 13 -98 33 -98 94c0 55 42 87 101 87c23 0 45 -5 65 -11c-7 56 -44 74 -103 74c-66 0 -104 -22 -104 -94v-291h-52v292c0 99 62 135 156 135z" />
    <glyph glyph-name="germandblssuperior" horiz-adv-x="421" 
d="M215 812c94 0 156 -37 156 -135v-3l-34 -29c-14 7 -51 21 -80 21c-31 0 -55 -15 -55 -43c0 -39 44 -48 78 -58c61 -18 106 -43 106 -99c0 -60 -49 -88 -107 -88c-53 0 -104 22 -134 39l22 38c29 -17 74 -35 106 -35c31 0 61 13 61 44c0 38 -45 49 -84 62
c-45 13 -98 33 -98 94c0 55 42 87 101 87c23 0 45 -5 65 -11c-7 56 -44 74 -103 74c-66 0 -104 -22 -104 -94v-291h-52v292c0 99 62 135 156 135z" />
    <glyph glyph-name="ginferior" horiz-adv-x="395" 
d="M285 165h51v-333c0 -82 -52 -110 -125 -110c-44 0 -105 9 -154 22l12 43c46 -13 100 -23 134 -23c55 0 82 18 82 67v60c-26 -22 -65 -48 -117 -48c-70 0 -126 49 -126 164c0 116 56 165 126 165c52 0 91 -26 117 -49v42zM178 -115c42 0 80 23 107 51v143
c-27 28 -65 51 -107 51c-55 0 -83 -46 -83 -123c0 -76 28 -122 83 -122z" />
    <glyph glyph-name="colonmonetaryinferior" horiz-adv-x="367" 
d="M135 -150h-31l15 64c-42 25 -73 73 -73 146c0 110 69 164 143 164h5l11 46h33l-12 -50c8 -2 16 -4 23 -7l14 57h31l-17 -68c19 -9 35 -18 47 -24l-25 -37l-32 18l-53 -217c36 7 70 28 85 37l25 -38c-25 -13 -70 -40 -121 -44l-11 -47h-32l11 47c-8 1 -16 3 -24 5zM99 60
c0 -41 12 -74 33 -94l51 213c-48 -5 -84 -50 -84 -119zM158 -52c8 -4 16 -6 24 -7l57 230l-24 7z" />
    <glyph glyph-name="colonmonetary.onum" horiz-adv-x="505" 
d="M186 0h-41l21 87c-59 33 -101 100 -101 201c0 149 95 224 196 224h8l15 62h41l-17 -68c12 -2 23 -5 33 -9l19 77h41l-23 -92c26 -12 48 -25 64 -33l-29 -44c-10 5 -27 16 -47 26l-77 -315c52 9 102 41 124 54l29 -44c-34 -19 -97 -58 -166 -63l-15 -63h-41l16 65
c-11 1 -22 3 -33 6zM127 288c0 -63 20 -112 53 -142l76 315c-73 -4 -129 -70 -129 -173zM216 123c10 -4 21 -7 32 -8l81 332c-11 4 -22 7 -33 10z" />
    <glyph glyph-name="coloninferior" horiz-adv-x="182" 
d="M61 54v73h59v-73h-59zM61 -150v73h59v-73h-59z" />
    <glyph glyph-name="gsuperior" horiz-adv-x="395" 
d="M285 700h51v-333c0 -82 -52 -110 -125 -110c-44 0 -105 9 -154 22l12 43c46 -13 100 -23 134 -23c55 0 82 18 82 67v60c-26 -23 -65 -48 -117 -48c-70 0 -126 49 -126 164c0 116 56 165 126 165c52 0 91 -26 117 -49v42zM178 420c42 0 80 22 107 50v144
c-27 28 -65 51 -107 51c-55 0 -83 -46 -83 -123c0 -76 28 -122 83 -122z" />
    <glyph glyph-name="cinferior" horiz-adv-x="352" 
d="M317 126l-25 -37c-18 10 -63 39 -105 39c-53 0 -94 -47 -94 -120c0 -75 41 -121 94 -121c42 0 87 28 105 39l25 -37c-27 -15 -78 -46 -134 -46c-74 0 -143 55 -143 165c0 109 69 164 143 164c56 0 107 -31 134 -46z" />
    <glyph glyph-name="cent.onum" horiz-adv-x="504" 
d="M295 0h-47v63c-97 6 -184 81 -184 225c0 143 87 217 184 223v63h47v-65c61 -10 115 -43 146 -60l-29 -44c-21 11 -67 42 -117 52v-340c50 11 96 40 117 53l29 -44c-31 -17 -85 -50 -146 -60v-66zM126 288c0 -101 52 -166 122 -174v346c-70 -7 -122 -73 -122 -172z" />
    <glyph glyph-name="c_t" horiz-adv-x="892" 
d="M558 475v50h74v35c0 74 -35 130 -115 130c-72 0 -116 -48 -116 -118c0 -29 7 -55 20 -74c23 -12 43 -24 57 -32l-31 -47c-25 14 -96 62 -163 62c-89 0 -160 -83 -160 -218s71 -219 160 -219c67 0 138 48 163 62l31 -47c-38 -23 -113 -70 -196 -70
c-116 0 -224 93 -224 274s108 273 224 273c31 0 61 -7 88 -17c-7 17 -10 36 -10 58c0 95 66 152 162 152c110 0 171 -71 171 -179v-25h146v-50h-146v-373c0 -45 21 -58 52 -58c30 0 85 20 105 28l25 -48c-21 -10 -85 -35 -137 -35c-56 0 -106 24 -106 117v369h-74z" />
    <glyph glyph-name="c_l" horiz-adv-x="769" 
d="M677 0h-63v690h-94c-75 0 -119 -48 -119 -118c0 -29 7 -55 21 -75c22 -11 42 -23 56 -31l-31 -47c-25 14 -96 62 -163 62c-89 0 -160 -83 -160 -218s71 -219 160 -219c67 0 138 48 163 62l31 -47c-38 -23 -113 -70 -196 -70c-116 0 -224 93 -224 274s108 273 224 273
c31 0 61 -8 89 -17c-8 17 -11 36 -11 60c0 94 62 150 158 150h159v-729z" />
    <glyph glyph-name="c_k" horiz-adv-x="1033" 
d="M981 525l-178 -213l210 -312h-67l-181 267l-94 -113v-154h-62v690h-89c-75 0 -119 -48 -119 -118c0 -29 7 -55 21 -75c22 -11 42 -23 56 -31l-31 -47c-25 14 -96 62 -163 62c-89 0 -160 -83 -160 -218s71 -219 160 -219c67 0 138 48 163 62l31 -47
c-38 -23 -113 -70 -196 -70c-116 0 -224 93 -224 274s108 273 224 273c31 0 61 -8 89 -17c-8 17 -11 36 -11 60c0 94 62 150 158 150h153v-499l238 295h72z" />
    <glyph glyph-name="c_h" horiz-adv-x="1122" 
d="M478 466l-31 -47c-25 14 -96 62 -163 62c-89 0 -160 -83 -160 -218s71 -219 160 -219c67 0 138 48 163 62l31 -47c-38 -23 -113 -70 -196 -70c-116 0 -224 93 -224 274s108 273 224 273c31 0 61 -8 89 -17c-8 17 -11 36 -11 60c0 94 62 150 158 150h153v-282
c37 28 129 89 221 89c115 0 147 -76 147 -160v-376h-63v366c0 65 -20 117 -97 117c-80 0 -172 -61 -208 -93v-390h-62v690h-89c-75 0 -119 -48 -119 -118c0 -29 7 -55 21 -75c22 -11 42 -23 56 -31z" />
    <glyph glyph-name="hinferior" horiz-adv-x="396" 
d="M111 287v-167c24 18 79 52 137 52c72 0 93 -45 93 -98v-224h-52v215c0 36 -12 65 -56 65c-46 0 -100 -32 -122 -51v-229h-52v437h52z" />
    <glyph glyph-name="brokenbar.sc" horiz-adv-x="251" 
d="M150 332h-49v339h49v-339zM150 -101h-49v339h49v-339z" />
    <glyph glyph-name="bracketrightsuperior" horiz-adv-x="241" 
d="M174 299h-138v35h85v519h-85v35h138v-589z" />
    <glyph glyph-name="bracketrightinferior" horiz-adv-x="241" 
d="M174 -236h-138v35h85v519h-85v35h138v-589z" />
    <glyph glyph-name="bracketright.sc" horiz-adv-x="329" 
d="M228 -118h-180v44h118v718h-118v44h180v-806z" />
    <glyph glyph-name="bracketleftsuperior" horiz-adv-x="241" 
d="M205 299h-138v589h138v-35h-85v-519h85v-35z" />
    <glyph glyph-name="bracketleftinferior" horiz-adv-x="241" 
d="M205 -236h-138v589h138v-35h-85v-519h85v-35z" />
    <glyph glyph-name="bracketleft.sc" horiz-adv-x="329" 
d="M280 -118h-180v806h180v-44h-118v-718h118v-44z" />
    <glyph glyph-name="bracerightsuperior" horiz-adv-x="276" 
d="M245 615v-43c-42 0 -67 -18 -60 -73l7 -56c12 -92 -34 -144 -144 -144h-12v35h12c82 0 97 49 90 102l-7 54c-8 60 13 92 65 103c-52 11 -73 44 -65 104l7 55c7 53 -8 102 -90 102h-12v34h12c110 0 155 -52 143 -143l-7 -56c-7 -55 19 -74 61 -74z" />
    <glyph glyph-name="bracerightinferior" horiz-adv-x="276" 
d="M245 80v-43c-42 0 -67 -18 -60 -73l7 -56c12 -92 -34 -144 -144 -144h-12v35h12c82 0 97 49 90 102l-7 54c-8 60 13 92 65 103c-52 11 -73 44 -65 104l7 55c7 53 -8 102 -90 102h-12v34h12c110 0 155 -52 143 -143l-7 -56c-7 -55 19 -74 61 -74z" />
    <glyph glyph-name="iinferior" horiz-adv-x="169" 
d="M112 -150h-52v315h52v-315zM57 227v59h57v-59h-57z" />
    <glyph glyph-name="braceright.sc" horiz-adv-x="380" 
d="M333 313v-55c-57 0 -95 -25 -84 -103l11 -75c18 -123 -43 -197 -195 -197h-17v43h17c120 0 141 68 131 142l-11 77c-12 81 17 126 87 140c-70 15 -99 59 -87 141l11 76c10 75 -11 142 -131 142h-17v44h17c152 0 211 -74 194 -197l-10 -76c-10 -78 27 -102 84 -102z" />
    <glyph glyph-name="braceleftsuperior" horiz-adv-x="277" 
d="M31 572v43c44 0 70 19 61 74l-8 55c-13 91 34 144 144 144h12v-34h-12c-82 0 -96 -49 -90 -102l8 -55c8 -60 -15 -93 -67 -104c52 -11 75 -43 67 -103l-8 -54c-6 -53 8 -102 90 -102h12v-35h-12c-110 0 -157 53 -144 145l8 55c8 54 -17 73 -61 73z" />
    <glyph glyph-name="braceleftinferior" horiz-adv-x="277" 
d="M31 37v43c44 0 70 19 61 74l-8 55c-13 91 34 144 144 144h12v-34h-12c-82 0 -96 -49 -90 -102l8 -55c8 -60 -15 -93 -67 -104c52 -11 75 -43 67 -103l-8 -54c-6 -53 8 -102 90 -102h12v-35h-12c-110 0 -157 53 -144 145l8 55c8 54 -17 73 -61 73z" />
    <glyph glyph-name="braceleft.sc" horiz-adv-x="379" 
d="M47 258v55c58 0 95 24 85 102l-10 76c-17 123 42 197 194 197h16v-44h-16c-120 0 -142 -67 -132 -142l11 -76c12 -82 -18 -126 -88 -141c70 -14 100 -59 88 -140l-11 -77c-10 -74 12 -142 132 -142h16v-43h-16c-152 0 -211 73 -194 197l10 76c10 77 -27 102 -85 102z" />
    <glyph glyph-name="binferior" horiz-adv-x="395" 
d="M59 -150v437h52v-163c27 23 65 48 117 48c69 0 125 -49 125 -165c0 -115 -56 -164 -125 -164c-52 0 -90 25 -117 48v-41h-52zM218 130c-42 0 -81 -23 -107 -51v-143c26 -28 65 -51 107 -51c55 0 83 46 83 122c0 77 -28 123 -83 123z" />
    <glyph glyph-name="bar.sc" horiz-adv-x="250" 
d="M149 -101h-49v772h49v-772z" />
    <glyph glyph-name="backslash.sc" horiz-adv-x="404" 
d="M326 -74l-291 722h50l291 -722h-50z" />
    <glyph glyph-name="at.sc" horiz-adv-x="809" 
d="M718 209c0 180 -97 319 -303 319c-205 0 -317 -148 -317 -321c0 -179 118 -320 299 -320c98 0 154 38 154 38l23 -28s-61 -44 -177 -44c-202 0 -335 155 -335 354c0 200 135 356 355 356s336 -148 337 -355c-1 -128 -54 -225 -153 -225c-78 0 -96 58 -99 96
c-28 -26 -75 -59 -136 -59c-56 0 -118 29 -118 119c0 87 59 124 122 124c41 0 102 -15 132 -22v48c0 57 -17 83 -78 83c-42 0 -91 -16 -131 -35l-21 40c51 22 109 37 157 37c77 0 122 -35 122 -121v-172c0 -46 1 -100 57 -100c41 0 110 43 110 188zM376 62
c52 0 91 27 126 62v85c-25 5 -76 17 -115 17c-66 0 -88 -41 -88 -85c0 -57 34 -79 77 -79z" />
    <glyph glyph-name="asterisksuperior" horiz-adv-x="322" 
d="M138 580l13 93l-81 -58l-23 40l94 35l-93 37l22 39l81 -59l-13 93h46l-12 -92l80 58l22 -40l-93 -35l93 -37l-23 -39l-79 57l12 -92h-46z" />
    <glyph glyph-name="jinferior" horiz-adv-x="169" 
d="M55 227v59h58v-59h-58zM110 165v-326c0 -67 0 -90 -109 -117l-17 39c75 23 75 28 75 75v329h51z" />
    <glyph glyph-name="asteriskinferior" horiz-adv-x="321" 
d="M137 45l13 93l-81 -58l-23 40l94 35l-93 37l22 39l81 -59l-13 93h46l-12 -92l80 58l22 -40l-93 -35l93 -37l-23 -39l-79 57l12 -92h-46z" />
    <glyph glyph-name="ampersandsuperior" horiz-adv-x="455" 
d="M433 385h-64l-51 49c-33 -33 -79 -56 -138 -56c-77 0 -139 41 -139 110c0 59 46 94 94 124c-30 29 -62 62 -62 108c0 63 59 92 112 92c57 0 105 -34 105 -89c0 -52 -41 -86 -86 -117l108 -105c20 33 33 71 37 105h52c-5 -37 -21 -92 -54 -138zM181 419c43 0 78 19 105 47
l-120 116c-39 -27 -73 -54 -73 -90c0 -29 22 -73 88 -73zM123 719c0 -34 28 -62 51 -84c36 24 66 48 66 85c0 27 -16 52 -56 52s-61 -24 -61 -53z" />
    <glyph glyph-name="ampersandinferior" horiz-adv-x="456" 
d="M433 -150h-64l-51 49c-33 -33 -79 -56 -138 -56c-77 0 -139 41 -139 110c0 59 46 94 94 124c-30 29 -62 62 -62 108c0 63 59 92 112 92c57 0 105 -34 105 -89c0 -52 -41 -86 -86 -117l108 -104c20 33 33 70 37 104h52c-5 -37 -21 -91 -54 -138zM181 -116
c43 0 78 19 105 47l-120 116c-39 -27 -73 -53 -73 -90c0 -29 22 -73 88 -73zM123 184c0 -34 28 -62 51 -84c36 24 66 48 66 85c0 27 -16 52 -56 52s-61 -24 -61 -53z" />
    <glyph glyph-name="ampersand.sc" horiz-adv-x="620" 
d="M589 0h-77l-74 71c-46 -47 -108 -80 -190 -80c-104 0 -188 55 -188 149c0 82 64 129 131 171c-43 41 -87 86 -87 149c0 87 81 123 149 123c74 0 139 -43 139 -119c0 -72 -57 -119 -119 -160l158 -152c30 48 47 103 54 151h61c-7 -52 -29 -127 -74 -191zM249 40
c63 0 113 28 150 69l-171 166c-57 -38 -107 -76 -107 -130c0 -42 31 -105 128 -105zM163 459c0 -48 41 -89 74 -120c53 34 97 69 97 122c0 39 -24 74 -82 74s-89 -35 -89 -76z" />
    <glyph glyph-name="kinferior" horiz-adv-x="346" 
d="M310 165l-112 -127l131 -188h-55l-108 152l-55 -62v-90h-52v437h52v-287l140 165h59z" />
    <glyph glyph-name="ksuperior" horiz-adv-x="346" 
d="M310 700l-112 -127l131 -188h-55l-108 152l-55 -62v-90h-52v437h52v-288l140 166h59z" />
    <glyph glyph-name="ainferior" horiz-adv-x="376" 
d="M270 -150v42c-25 -22 -69 -49 -124 -49c-53 0 -110 28 -110 101c0 71 53 103 115 103c37 0 92 -12 119 -17v35c0 44 -17 66 -70 66c-37 0 -77 -12 -123 -26l-18 37c55 18 105 30 147 30c72 0 115 -29 115 -105v-217h-51zM159 -115c45 0 80 21 111 46v69
c-23 3 -67 14 -99 14c-62 0 -82 -31 -82 -68c0 -43 29 -61 70 -61z" />
    <glyph glyph-name="Zsuperior" horiz-adv-x="414" 
d="M38 427l263 333h-249v45h316v-41l-264 -334h267v-45h-333v42z" />
    <glyph glyph-name="Zinferior" horiz-adv-x="414" 
d="M38 -108l263 333h-249v45h316v-41l-264 -334h267v-45h-333v42z" />
    <glyph glyph-name="Zdotaccent.sc" horiz-adv-x="551" 
d="M46 51l374 470h-355v53h431v-50l-374 -471h379v-53h-455v51zM244 636v86h71v-86h-71z" />
    <glyph glyph-name="Zcaron.sc" horiz-adv-x="551" 
d="M496 524l-374 -471h379v-53h-455v51l374 470h-355v53h431v-50zM418 754l-98 -128h-80l-98 128h51l87 -89l88 89h50z" />
    <glyph glyph-name="Zacute.sc" horiz-adv-x="551" 
d="M46 51l374 470h-355v53h431v-50l-374 -471h379v-53h-455v51zM263 626h-53l121 128h97z" />
    <glyph glyph-name="Z.sc" horiz-adv-x="551" 
d="M46 50l372 470h-353v54h431v-49l-373 -471h378v-54h-455v50z" />
    <glyph glyph-name="linferior" horiz-adv-x="169" 
d="M110 -150h-51v437h51v-437z" />
    <glyph glyph-name="Ysuperior" horiz-adv-x="413" 
d="M179 385v166l-161 254h60l128 -214l127 214h61l-161 -254v-166h-54z" />
    <glyph glyph-name="lira.onum" horiz-adv-x="503" 
d="M79 268v40h66c-25 41 -58 77 -58 136c0 83 67 139 170 139c75 0 140 -32 186 -56l-30 -43c-55 27 -105 46 -152 46c-73 0 -111 -44 -111 -93c0 -50 36 -85 61 -129h163v-40h-145c4 -13 6 -27 6 -43c0 -5 0 -10 -1 -14h140v-41h-149c-19 -56 -60 -101 -76 -117h284v-53
h-364v45s71 51 96 125h-86v41h94c0 3 1 6 1 10c0 17 -4 33 -9 47h-86z" />
    <glyph glyph-name="lirainferior" horiz-adv-x="371" 
d="M56 46v32h48c-18 28 -40 55 -40 96c0 61 49 103 125 103c57 0 105 -25 139 -43l-25 -36c-40 20 -76 34 -110 34c-49 0 -75 -30 -75 -64s24 -59 42 -90h119v-32h-105c2 -10 4 -20 4 -31c0 -3 -1 -6 -1 -9h102v-32h-108c-13 -38 -40 -68 -52 -79h202v-45h-271v38
s51 35 70 86h-64v32h71v6c0 12 -2 23 -6 34h-65z" />
    <glyph glyph-name="lirasuperior" horiz-adv-x="372" 
d="M57 581v32h48c-18 28 -40 55 -40 96c0 61 49 103 125 103c57 0 105 -25 139 -43l-25 -36c-40 20 -76 34 -110 34c-49 0 -75 -30 -75 -64s24 -59 42 -90h119v-32h-105c2 -10 4 -20 4 -31c0 -3 -1 -6 -1 -9h102v-32h-108c-13 -38 -40 -69 -52 -79h202v-45h-271v38
s51 34 70 86h-64v32h71v6c0 12 -2 23 -6 34h-65z" />
    <glyph glyph-name="Yinferior" horiz-adv-x="411" 
d="M178 -150v166l-161 254h60l128 -214l127 214h61l-161 -254v-166h-54z" />
    <glyph glyph-name="Ygrave.sc" horiz-adv-x="570" 
d="M254 0v226l-224 348h70l185 -300l185 300h69l-223 -346v-228h-62zM360 626h-54l-164 128h96z" />
    <glyph glyph-name="Ydieresis.sc" horiz-adv-x="570" 
d="M254 0v226l-224 348h70l185 -300l185 300h69l-223 -346v-228h-62zM167 636v86h72v-86h-72zM331 636v86h71v-86h-71z" />
    <glyph glyph-name="Yacute.sc" horiz-adv-x="570" 
d="M254 0v226l-224 348h70l185 -300l185 300h69l-223 -346v-228h-62zM269 626h-53l120 128h97z" />
    <glyph glyph-name="Y.sc" horiz-adv-x="570" 
d="M254 0v226l-224 348h70l185 -300l185 300h69l-223 -346v-228h-62z" />
    <glyph glyph-name="Xsuperior" horiz-adv-x="414" 
d="M33 805h61l112 -178l114 178h61l-144 -211l152 -209h-64l-119 175l-118 -175h-63l152 209z" />
    <glyph glyph-name="Xinferior" horiz-adv-x="414" 
d="M33 270h61l112 -178l114 178h61l-144 -211l152 -209h-64l-119 175l-118 -175h-63l152 209z" />
    <glyph glyph-name="minferior" horiz-adv-x="595" 
d="M111 165v-47c24 22 71 54 122 54c57 0 79 -32 87 -59c22 21 73 59 128 59c69 0 91 -45 91 -98v-224h-51v215c0 36 -12 65 -56 65c-41 0 -84 -31 -107 -54v-226h-52v215c0 36 -11 65 -55 65c-41 0 -84 -30 -107 -53v-227h-52v315h52z" />
    <glyph glyph-name="X.sc" horiz-adv-x="551" 
d="M41 574h71l163 -251l162 251h73l-201 -289l212 -285h-75l-171 245l-170 -245h-75l211 286z" />
    <glyph glyph-name="Wsuperior" horiz-adv-x="604" 
d="M398 385l-96 349l-95 -349h-58l-122 420h60l93 -358l98 358h50l96 -358l94 358h60l-123 -420h-57z" />
    <glyph glyph-name="Winferior" horiz-adv-x="604" 
d="M398 -150l-96 349l-95 -349h-58l-122 420h60l93 -358l98 358h50l96 -358l94 358h60l-123 -420h-57z" />
    <glyph glyph-name="Wgrave.sc" horiz-adv-x="833" 
d="M554 0l-138 490l-137 -490h-69l-168 574h68l137 -507l140 507h59l139 -506l137 506h69l-169 -574h-68zM487 626h-53l-165 128h96z" />
    <glyph glyph-name="Wdieresis.sc" horiz-adv-x="833" 
d="M554 0l-138 490l-137 -490h-69l-168 574h68l137 -507l140 507h59l139 -506l137 506h69l-169 -574h-68zM304 636v86h72v-86h-72zM463 636v86h70v-86h-70z" />
    <glyph glyph-name="Wcircumflex.sc" horiz-adv-x="833" 
d="M554 0l-138 490l-137 -490h-69l-168 574h68l137 -507l140 507h59l139 -506l137 506h69l-169 -574h-68zM457 754l98 -128h-51l-88 90l-88 -90h-50l97 128h82z" />
    <glyph glyph-name="Wacute.sc" horiz-adv-x="833" 
d="M554 0l-138 490l-137 -490h-69l-168 574h68l137 -507l140 507h59l139 -506l137 506h69l-169 -574h-68zM399 626h-53l121 128h96z" />
    <glyph glyph-name="W.sc" horiz-adv-x="833" 
d="M554 0l-138 490l-137 -490h-69l-168 574h68l137 -507l140 507h59l139 -506l137 506h69l-169 -574h-68z" />
    <glyph glyph-name="Vsuperior" horiz-adv-x="445" 
d="M83 805l140 -371l140 371h60l-170 -420h-59l-171 420h60z" />
    <glyph glyph-name="Vinferior" horiz-adv-x="444" 
d="M82 270l140 -371l140 371h60l-170 -420h-59l-171 420h60z" />
    <glyph glyph-name="nine.dnom" horiz-adv-x="408" 
d="M128 38c87 0 155 59 172 159c-17 -17 -55 -45 -117 -45c-91 0 -141 60 -141 133c0 76 58 142 154 142c111 0 164 -86 164 -188c0 -138 -93 -246 -231 -246c-32 0 -58 7 -58 7l14 42s19 -4 43 -4zM193 194c56 0 96 31 111 56c-2 81 -40 132 -107 132
c-68 0 -101 -49 -101 -97c0 -44 28 -91 97 -91z" />
    <glyph glyph-name="nine.numr" horiz-adv-x="408" 
d="M128 318c87 0 155 59 172 159c-17 -17 -55 -45 -117 -45c-91 0 -141 60 -141 133c0 76 58 142 154 142c111 0 164 -86 164 -188c0 -138 -93 -246 -231 -246c-32 0 -58 7 -58 7l14 42s19 -4 43 -4zM193 474c56 0 96 31 111 56c-2 81 -40 132 -107 132
c-68 0 -101 -49 -101 -97c0 -44 28 -91 97 -91z" />
    <glyph glyph-name="nine.onum" 
d="M185 -84c122 0 252 87 281 292c-26 -30 -88 -83 -191 -83c-146 0 -223 103 -223 222c0 125 89 235 236 235c172 0 250 -148 251 -290c1 -288 -175 -432 -352 -432c-50 0 -89 11 -89 11l16 54s32 -9 71 -9zM282 179c98 0 168 62 190 107v9c0 119 -57 230 -183 230
c-115 0 -172 -90 -172 -178c0 -80 47 -168 165 -168z" />
    <glyph glyph-name="nine.tnum" horiz-adv-x="615" 
d="M192 45c122 0 253 87 281 294c-25 -31 -87 -85 -192 -85c-146 0 -223 104 -223 222c0 125 89 235 236 235c173 0 250 -148 251 -290c2 -288 -175 -432 -352 -432c-50 0 -89 11 -89 11l16 54s32 -9 72 -9zM288 308c100 0 170 64 191 110v6c0 119 -58 231 -184 231
c-115 0 -172 -91 -172 -179c0 -80 48 -168 165 -168z" />
    <glyph glyph-name="V.sc" horiz-adv-x="613" 
d="M106 574l201 -512l201 512h70l-237 -574h-68l-237 574h70z" />
    <glyph glyph-name="Utilde.sc" horiz-adv-x="623" 
d="M202 638l-39 16c24 46 45 77 87 77c49 0 90 -48 122 -48c16 0 27 5 50 46l38 -16c-23 -46 -45 -78 -87 -78c-49 0 -90 49 -122 49c-15 0 -27 -6 -49 -46zM534 574v-368c0 -120 -52 -215 -221 -215c-172 0 -224 95 -224 215v368h62v-369c0 -88 29 -159 162 -159
c130 0 159 71 159 159v369h62z" />
    <glyph glyph-name="ninferior" horiz-adv-x="396" 
d="M111 165v-45c24 18 79 52 137 52c72 0 93 -45 93 -98v-224h-52v215c0 36 -12 65 -56 65c-46 0 -100 -32 -122 -51v-229h-52v315h52z" />
    <glyph glyph-name="Usuperior" horiz-adv-x="461" 
d="M396 805v-266c0 -90 -39 -161 -165 -161c-128 0 -166 71 -166 161v266h54v-269c0 -62 19 -112 112 -112c91 0 111 50 111 112v269h54z" />
    <glyph glyph-name="Uring.sc" horiz-adv-x="623" 
d="M210 717c0 57 44 102 101 102c56 0 101 -45 101 -102c0 -56 -45 -101 -101 -101c-57 0 -101 45 -101 101zM250 717c0 -34 26 -60 61 -60c34 0 61 26 61 60c0 35 -27 62 -61 62c-35 0 -61 -27 -61 -62zM534 574v-368c0 -120 -52 -215 -221 -215c-172 0 -224 95 -224 215
v368h62v-369c0 -88 29 -159 162 -159c130 0 159 71 159 159v369h62z" />
    <glyph glyph-name="Uogonek.sc" horiz-adv-x="623" 
d="M293 -96c0 -44 52 -39 81 -39l-9 -44c-35 0 -127 -1 -127 75c0 37 36 70 82 95h-7c-172 0 -224 95 -224 215v368h62v-369c0 -88 29 -159 162 -159c130 0 159 71 159 159v369h62v-368c0 -99 -35 -180 -141 -206c-38 -22 -100 -53 -100 -96z" />
    <glyph glyph-name="Umacron.sc" horiz-adv-x="623" 
d="M534 574v-368c0 -120 -52 -215 -221 -215c-172 0 -224 95 -224 215v368h62v-369c0 -88 29 -159 162 -159c130 0 159 71 159 159v369h62zM167 651v46h288v-46h-288z" />
    <glyph glyph-name="numbersign.onum" horiz-adv-x="677" 
d="M380 0l25 150h-177l-25 -150h-51l25 150h-121v48h129l29 177h-120v48h128l25 151h51l-25 -151h177l26 151h50l-26 -151h122v-48h-130l-29 -177h121v-48h-129l-25 -150h-50zM265 375l-29 -177h177l29 177h-177z" />
    <glyph glyph-name="numbersigninferior" horiz-adv-x="491" 
d="M273 -150l17 107h-122l-17 -107h-43l17 107h-85v40h92l20 125h-85v40h92l18 108h42l-18 -108h123l18 108h41l-18 -108h86v-40h-92l-20 -125h86v-40h-93l-17 -107h-42zM195 122l-20 -125h122l20 125h-122z" />
    <glyph glyph-name="numbersignsuperior" horiz-adv-x="491" 
d="M273 385l17 107h-122l-17 -107h-43l17 107h-85v40h92l20 125h-85v40h92l18 108h42l-18 -108h123l18 108h41l-18 -108h86v-40h-92l-20 -125h86v-40h-93l-17 -107h-42zM195 657l-20 -125h122l20 125h-122z" />
    <glyph glyph-name="Uinferior" horiz-adv-x="461" 
d="M396 270v-266c0 -90 -39 -161 -165 -161c-128 0 -166 71 -166 161v266h54v-269c0 -62 19 -112 112 -112c91 0 111 50 111 112v269h54z" />
    <glyph glyph-name="Uhungarumlaut.sc" horiz-adv-x="623" 
d="M534 574v-368c0 -120 -52 -215 -221 -215c-172 0 -224 95 -224 215v368h62v-369c0 -88 29 -159 162 -159c130 0 159 71 159 159v369h62zM385 626h-41l77 128h83zM242 626h-42l77 128h84z" />
    <glyph glyph-name="Ugrave.sc" horiz-adv-x="623" 
d="M534 574v-368c0 -120 -52 -215 -221 -215c-172 0 -224 95 -224 215v368h62v-369c0 -88 29 -159 162 -159c130 0 159 71 159 159v369h62zM383 626h-54l-164 128h95z" />
    <glyph glyph-name="Udieresis.sc" horiz-adv-x="623" 
d="M534 574v-368c0 -120 -52 -215 -221 -215c-172 0 -224 95 -224 215v368h62v-369c0 -88 29 -159 162 -159c130 0 159 71 159 159v369h62zM194 636v86h71v-86h-71zM358 636v86h71v-86h-71z" />
    <glyph glyph-name="Ucircumflex.sc" horiz-adv-x="623" 
d="M534 574v-368c0 -120 -52 -215 -221 -215c-172 0 -224 95 -224 215v368h62v-369c0 -88 29 -159 162 -159c130 0 159 71 159 159v369h62zM352 754l98 -128h-50l-89 90l-87 -90h-51l97 128h82z" />
    <glyph glyph-name="Ubreve.sc" horiz-adv-x="623" 
d="M311 626c-86 0 -135 40 -135 103h49c0 -41 33 -57 86 -57c52 0 87 16 87 57h49c0 -63 -51 -103 -136 -103zM534 574v-368c0 -120 -52 -215 -221 -215c-172 0 -224 95 -224 215v368h62v-369c0 -88 29 -159 162 -159c130 0 159 71 159 159v369h62z" />
    <glyph glyph-name="Uacute.sc" horiz-adv-x="623" 
d="M534 574v-368c0 -120 -52 -215 -221 -215c-172 0 -224 95 -224 215v368h62v-369c0 -88 29 -159 162 -159c130 0 159 71 159 159v369h62zM294 626h-53l122 128h96z" />
    <glyph glyph-name="U.sc" horiz-adv-x="623" 
d="M534 574v-368c0 -120 -52 -215 -221 -215c-172 0 -224 95 -224 215v368h62v-369c0 -88 29 -159 162 -159c130 0 159 71 159 159v369h62z" />
    <glyph glyph-name="Tsuperior" horiz-adv-x="388" 
d="M359 760h-139v-375h-53v375h-139v45h331v-45z" />
    <glyph glyph-name="oinferior" horiz-adv-x="393" 
d="M351 7c0 -102 -54 -164 -155 -164s-155 63 -155 164c0 102 54 165 155 165s155 -63 155 -165zM299 7c0 75 -30 123 -103 123s-103 -48 -103 -123c0 -74 30 -122 103 -122s103 48 103 122z" />
    <glyph glyph-name="Tinferior" horiz-adv-x="388" 
d="M359 225h-139v-375h-53v375h-139v45h331v-45z" />
    <glyph glyph-name="Thorn.sc" horiz-adv-x="582" 
d="M529 298c0 -132 -98 -176 -223 -176h-149v-122h-62v574h62v-104h149c125 0 223 -43 223 -172zM465 298c0 90 -69 118 -160 118h-148v-241h148c91 0 160 32 160 123z" />
    <glyph glyph-name="one.dnom" horiz-adv-x="251" 
d="M180 0h-53v367l-79 -39l-23 36l106 56h49v-420z" />
    <glyph glyph-name="one.numr" horiz-adv-x="251" 
d="M180 280h-53v367l-79 -39l-23 36l106 56h49v-420z" />
    <glyph glyph-name="one.onum" horiz-adv-x="350" 
d="M253 0h-65v505l-126 -66l-29 47l162 88h58v-574z" />
    <glyph glyph-name="one.tnum" horiz-adv-x="615" 
d="M85 0v57h204v574l-175 -92l-29 46l213 115h57v-643h205v-57h-475z" />
    <glyph glyph-name="Tcedilla.sc" horiz-adv-x="511" 
d="M141 -151l17 42c22 -10 33 -14 52 -14c34 0 58 15 58 49c0 35 -25 69 -29 74h-15v520h-194v54h451v-54h-194v-520h-13c3 -3 40 -42 40 -89c0 -50 -40 -80 -97 -80c-26 0 -52 6 -76 18z" />
    <glyph glyph-name="oneeighth.onum" horiz-adv-x="729" 
d="M393 89c0 54 49 81 93 98c-34 14 -71 37 -71 80c0 50 51 83 120 83c71 0 119 -33 119 -83c0 -45 -37 -68 -70 -81c44 -17 93 -44 93 -97c0 -59 -61 -95 -142 -95c-80 0 -142 36 -142 95zM484 574l-291 -574h-50l292 574h49zM630 91c0 42 -51 63 -96 78
c-46 -15 -94 -37 -94 -78c0 -38 44 -61 95 -61c53 0 95 23 95 61zM172 230h-46v300l-67 -33l-21 31l92 46h42v-344zM461 262c0 -36 43 -51 73 -60c30 8 74 25 74 60c0 29 -30 54 -73 54s-74 -26 -74 -54z" />
    <glyph glyph-name="onefifth" horiz-adv-x="819" 
d="M476 213l24 207h240v-45h-197l-12 -124c21 9 47 16 79 16c93 0 149 -62 149 -135c0 -71 -53 -139 -157 -139c-66 0 -117 28 -144 44l25 39c13 -9 63 -37 113 -37c56 0 107 36 107 93c0 49 -37 91 -104 91c-40 0 -75 -16 -93 -26zM547 700l-335 -700h-56l334 700h57z
M190 280h-54v367l-78 -39l-24 36l106 56h50v-420z" />
    <glyph glyph-name="onefifth.onum" horiz-adv-x="728" 
d="M423 174l20 170h209v-37h-173l-9 -102c18 8 40 14 68 14c82 0 130 -51 130 -110s-45 -115 -136 -115c-58 0 -102 24 -125 36l22 33c11 -7 53 -29 96 -29c51 0 95 29 95 75c0 39 -32 73 -90 73c-36 0 -67 -12 -83 -22zM484 574l-291 -574h-50l292 574h49zM172 230h-46v300
l-67 -33l-21 31l92 46h42v-344z" />
    <glyph glyph-name="Tcaron.sc" horiz-adv-x="511" 
d="M481 520h-194v-520h-63v520h-194v54h451v-54zM394 754l-98 -128h-82l-97 128h51l87 -89l89 89h50z" />
    <glyph glyph-name="onehalf.onum" horiz-adv-x="731" 
d="M172 230h-46v300l-67 -33l-21 31l92 46h42v-344zM484 574l-291 -574h-50l292 574h49zM671 38v-38h-257v28c0 72 60 105 121 142c48 29 88 53 88 90c0 29 -27 52 -74 52c-43 0 -85 -19 -103 -32l-22 31c26 16 71 39 129 39c71 0 117 -36 117 -89c0 -66 -69 -99 -131 -136
c-45 -26 -73 -46 -73 -87h205z" />
    <glyph glyph-name="Tbar.sc" horiz-adv-x="521" 
d="M131 190v42h98v288h-194v54h451v-54h-194v-288h97v-42h-97v-190h-63v190h-98z" />
    <glyph glyph-name="T.sc" horiz-adv-x="511" 
d="M481 520h-194v-520h-63v520h-194v54h451v-54z" />
    <glyph glyph-name="onequarter.onum" horiz-adv-x="706" 
d="M554 0v76h-199v33l184 235h61v-231h59v-37h-59v-76h-46zM484 574l-291 -574h-50l292 574h49zM172 230h-46v300l-67 -33l-21 31l92 46h42v-344zM405 113h149v193z" />
    <glyph glyph-name="onesixth" horiz-adv-x="799" 
d="M656 382c-88 0 -156 -60 -172 -160c16 16 54 46 117 46c90 0 142 -60 142 -133c0 -76 -58 -142 -154 -142c-112 0 -163 85 -163 187c0 139 94 247 229 247c34 0 59 -7 59 -7l-13 -42s-20 4 -45 4zM547 700l-335 -700h-56l334 700h57zM592 226c-58 0 -99 -34 -112 -58
c2 -81 42 -130 109 -130c68 0 101 49 101 96c0 44 -30 92 -98 92zM190 280h-54v367l-78 -39l-24 36l106 56h50v-420z" />
    <glyph glyph-name="onesixth.onum" horiz-adv-x="709" 
d="M578 313c-76 0 -135 -49 -150 -131c14 13 48 38 102 38c79 0 124 -50 124 -109c0 -63 -50 -117 -134 -117c-97 0 -141 70 -141 154c0 114 81 202 198 202c30 0 53 -6 53 -6l-11 -35s-19 4 -41 4zM484 574l-291 -574h-50l292 574h49zM523 184c-51 0 -87 -28 -98 -48
c2 -64 37 -104 95 -104c59 0 88 40 88 78c0 36 -26 74 -85 74zM172 230h-46v300l-67 -33l-21 31l92 46h42v-344z" />
    <glyph glyph-name="Ssuperior" horiz-adv-x="410" 
d="M228 621c62 -19 140 -48 140 -127c0 -77 -70 -116 -148 -116c-67 0 -136 28 -178 52l26 39c39 -22 101 -46 151 -46c49 0 95 21 95 68c0 51 -64 68 -135 92c-59 18 -127 44 -127 116s62 113 141 113c54 0 118 -20 158 -39l-24 -40c-38 18 -94 34 -132 34
c-45 0 -88 -19 -88 -65c0 -48 54 -60 121 -81z" />
    <glyph glyph-name="Sinferior" horiz-adv-x="409" 
d="M227 86c62 -19 140 -48 140 -127c0 -77 -70 -116 -148 -116c-67 0 -136 28 -178 52l26 39c39 -22 101 -46 151 -46c49 0 95 21 95 68c0 51 -64 68 -135 92c-59 18 -127 44 -127 116s62 113 141 113c54 0 118 -20 158 -39l-24 -40c-38 18 -94 34 -132 34
c-45 0 -88 -19 -88 -65c0 -48 54 -60 121 -81z" />
    <glyph glyph-name="onethird.onum" horiz-adv-x="723" 
d="M172 230h-46v300l-67 -33l-21 31l92 46h42v-344zM484 574l-291 -574h-50l292 574h49zM400 30l22 32c19 -11 65 -30 110 -30c50 0 90 25 90 65c0 54 -69 71 -122 71h-17v39h21c49 0 101 17 101 58c0 29 -28 47 -71 47c-41 0 -76 -17 -97 -29l-19 29c11 9 59 38 122 38
c73 0 111 -39 111 -81c0 -31 -20 -62 -73 -79c51 -11 90 -46 90 -93c0 -51 -41 -103 -132 -103c-62 0 -116 26 -136 36z" />
    <glyph glyph-name="Scommaaccent.sc" horiz-adv-x="542" 
d="M241 -154v89h70l11 -91l-64 -108l-24 23l41 87h-34zM292 322c88 -28 199 -66 199 -176c0 -105 -99 -155 -202 -155c-88 0 -182 37 -238 69l30 46c53 -29 139 -62 210 -62c68 0 137 31 137 99c0 74 -86 99 -184 131c-86 26 -179 59 -179 159c0 97 86 150 189 150
c73 0 158 -26 213 -53l-30 -46c-54 25 -128 46 -183 46c-64 0 -126 -29 -126 -94c0 -71 77 -86 164 -114z" />
    <glyph glyph-name="Scircumflex.sc" horiz-adv-x="542" 
d="M312 754l97 -128h-49l-89 90l-87 -90h-51l97 128h82zM292 322c88 -28 199 -66 199 -176c0 -105 -99 -155 -202 -155c-88 0 -182 37 -238 69l30 46c53 -29 139 -62 210 -62c68 0 137 31 137 99c0 74 -86 99 -184 131c-86 26 -179 59 -179 159c0 97 86 150 189 150
c73 0 158 -26 213 -53l-30 -46c-54 25 -128 46 -183 46c-64 0 -126 -29 -126 -94c0 -71 77 -86 164 -114z" />
    <glyph glyph-name="Scedilla.sc" horiz-adv-x="542" 
d="M292 322c88 -28 199 -66 199 -176c0 -99 -87 -148 -183 -154c12 -14 33 -45 33 -81c0 -50 -40 -80 -97 -80c-26 0 -52 6 -76 18l17 42c22 -10 33 -14 53 -14c34 0 57 15 57 49c0 27 -14 52 -23 66c-83 4 -169 38 -221 68l30 46c53 -29 139 -62 210 -62
c68 0 137 31 137 99c0 74 -86 99 -184 131c-86 26 -179 59 -179 159c0 97 86 150 189 150c73 0 158 -26 213 -53l-30 -46c-54 25 -128 46 -183 46c-64 0 -126 -29 -126 -94c0 -71 77 -86 164 -114z" />
    <glyph glyph-name="Scaron.sc" horiz-adv-x="542" 
d="M409 754l-97 -128h-82l-97 128h50l88 -89l89 89h49zM292 322c88 -28 199 -66 199 -176c0 -105 -99 -155 -202 -155c-88 0 -182 37 -238 69l30 46c53 -29 139 -62 210 -62c68 0 137 31 137 99c0 74 -86 99 -184 131c-86 26 -179 59 -179 159c0 97 86 150 189 150
c73 0 158 -26 213 -53l-30 -46c-54 25 -128 46 -183 46c-64 0 -126 -29 -126 -94c0 -71 77 -86 164 -114z" />
    <glyph glyph-name="Sacute.sc" horiz-adv-x="542" 
d="M254 626h-53l122 128h96zM292 322c88 -28 199 -66 199 -176c0 -105 -99 -155 -202 -155c-88 0 -182 37 -238 69l30 46c53 -29 139 -62 210 -62c68 0 137 31 137 99c0 74 -86 99 -184 131c-86 26 -179 59 -179 159c0 97 86 150 189 150c73 0 158 -26 213 -53l-30 -46
c-54 25 -128 46 -183 46c-64 0 -126 -29 -126 -94c0 -71 77 -86 164 -114z" />
    <glyph glyph-name="S.sc" horiz-adv-x="542" 
d="M292 322c88 -28 199 -66 199 -176c0 -105 -99 -155 -202 -155c-88 0 -182 37 -238 69l30 46c53 -29 139 -62 210 -62c68 0 137 31 137 99c0 74 -86 99 -184 131c-86 26 -179 59 -179 159c0 97 86 150 189 150c73 0 158 -26 213 -53l-30 -46c-54 25 -128 46 -183 46
c-64 0 -126 -29 -126 -94c0 -71 77 -86 164 -114z" />
    <glyph glyph-name="Rsuperior" horiz-adv-x="451" 
d="M348 385l-117 178h-107v-178h-54v420h172c95 0 164 -32 164 -122c0 -74 -49 -109 -119 -118l120 -180h-59zM351 683c0 58 -47 79 -109 79h-118v-156h115c65 0 112 21 112 77z" />
    <glyph glyph-name="Rinferior" horiz-adv-x="452" 
d="M348 -150l-117 178h-107v-178h-54v420h172c95 0 164 -32 164 -122c0 -74 -49 -109 -119 -118l120 -180h-59zM351 148c0 58 -47 79 -109 79h-118v-156h115c65 0 112 21 112 77z" />
    <glyph glyph-name="paragraph.sc" horiz-adv-x="561" 
d="M255 574h53v-726h-55v379c-127 0 -211 59 -211 173c0 115 73 174 213 174zM410 -153v727h55v-727h-55z" />
    <glyph glyph-name="Rcommaaccent.sc" horiz-adv-x="607" 
d="M480 0l-162 247h-161v-247h-62v574h230c126 0 224 -42 224 -164c0 -104 -72 -150 -169 -161l170 -249h-70zM484 410c0 82 -67 112 -157 112h-170v-223h166c94 0 161 29 161 111zM266 -154v89h69l10 -91l-64 -108l-23 23l41 87h-33z" />
    <glyph glyph-name="parenleft.sc" horiz-adv-x="301" 
d="M93 29v513c0 82 4 111 143 146l19 -41c-99 -31 -100 -39 -100 -102v-520c0 -62 1 -71 100 -101l-19 -41c-139 35 -143 64 -143 146z" />
    <glyph glyph-name="Rcaron.sc" horiz-adv-x="607" 
d="M480 0l-162 247h-161v-247h-62v574h230c126 0 224 -42 224 -164c0 -104 -72 -150 -169 -161l170 -249h-70zM484 410c0 82 -67 112 -157 112h-170v-223h166c94 0 161 29 161 111zM460 754l-98 -128h-81l-96 128h50l87 -89l88 89h50z" />
    <glyph glyph-name="Racute.sc" horiz-adv-x="607" 
d="M480 0l-162 247h-161v-247h-62v574h230c126 0 224 -42 224 -164c0 -104 -72 -150 -169 -161l170 -249h-70zM484 410c0 82 -67 112 -157 112h-170v-223h166c94 0 161 29 161 111zM305 626h-54l122 128h96z" />
    <glyph glyph-name="R.sc" horiz-adv-x="607" 
d="M480 0l-162 247h-161v-247h-62v574h230c126 0 224 -42 224 -164c0 -104 -72 -150 -169 -161l170 -249h-70zM484 410c0 82 -67 112 -157 112h-170v-223h166c94 0 161 29 161 111z" />
    <glyph glyph-name="parenright.sc" horiz-adv-x="300" 
d="M207 542v-513c0 -82 -3 -111 -142 -146l-19 41c99 30 99 39 99 101v520c0 63 0 71 -99 102l19 41c139 -35 142 -64 142 -146z" />
    <glyph glyph-name="f_b.ss01" horiz-adv-x="935" 
d="M36 475v50h73v87c0 92 61 117 128 117c59 0 143 -18 188 -28v28h63v-275c41 38 103 82 187 82c109 0 200 -77 200 -274c0 -196 -91 -273 -200 -273c-84 0 -146 44 -187 81v-70h-63v647c-35 7 -142 27 -188 27c-35 0 -66 -16 -66 -57v-92h144v-50h-144v-475h-62v475h-73z
M669 482c-73 0 -138 -42 -181 -89v-262c43 -47 108 -88 181 -88c93 0 142 84 142 219c0 136 -49 220 -142 220z" />
    <glyph glyph-name="Qinferior" horiz-adv-x="486" 
d="M243 -157c-141 0 -193 98 -193 217s52 217 193 217c140 0 193 -98 193 -217c0 -100 -38 -185 -134 -210l74 -56l-36 -37zM243 -111c104 0 138 76 138 171s-34 171 -138 171c-105 0 -138 -76 -138 -171s33 -171 138 -171z" />
    <glyph glyph-name="Q.sc" horiz-adv-x="653" 
d="M326 -9c-190 1 -261 134 -261 296c0 163 71 296 262 296c190 0 261 -133 261 -296c0 -140 -53 -259 -190 -289l104 -78l-44 -45zM327 46c149 0 197 107 197 241s-48 241 -197 241c-148 0 -197 -107 -197 -241s49 -241 197 -241z" />
    <glyph glyph-name="Psuperior" horiz-adv-x="428" 
d="M392 676c0 -95 -69 -128 -164 -128h-104v-163h-54v420h158c95 0 164 -34 164 -129zM337 676c0 63 -48 84 -109 84h-104v-168h104c61 0 109 21 109 84z" />
    <glyph glyph-name="percent.onum" horiz-adv-x="879" 
d="M830 144c0 -101 -65 -153 -155 -153c-91 0 -155 52 -155 153c0 102 64 154 155 154c90 0 155 -52 155 -154zM776 144c0 72 -38 112 -101 112c-64 0 -102 -40 -102 -112c0 -70 38 -110 102 -110c63 0 101 40 101 110zM627 574l-320 -574h-54l320 574h54zM360 429
c0 -101 -65 -153 -155 -153c-91 0 -155 52 -155 153c0 102 64 154 155 154c90 0 155 -52 155 -154zM308 429c0 71 -40 112 -103 112s-102 -41 -102 -112s39 -111 102 -111s103 40 103 111z" />
    <glyph glyph-name="percentinferior" horiz-adv-x="641" 
d="M264 164c0 -74 -47 -112 -115 -112c-69 0 -113 38 -113 112s44 113 113 113c68 0 115 -39 115 -113zM220 164c0 50 -26 78 -71 78c-44 0 -69 -28 -69 -78s25 -78 69 -78c45 0 71 28 71 78zM459 270l-236 -427h-44l235 427h45zM604 -44c0 -74 -45 -113 -113 -113
s-114 39 -114 113s46 112 114 112s113 -38 113 -112zM561 -44c0 50 -25 78 -70 78c-44 0 -70 -28 -70 -78s26 -78 70 -78c45 0 70 28 70 78z" />
    <glyph glyph-name="percentsuperior" horiz-adv-x="641" 
d="M264 699c0 -74 -47 -112 -115 -112c-69 0 -113 38 -113 112s44 113 113 113c68 0 115 -39 115 -113zM220 699c0 50 -26 78 -71 78c-44 0 -69 -28 -69 -78s25 -78 69 -78c45 0 71 28 71 78zM459 805l-236 -427h-44l235 427h45zM604 491c0 -74 -45 -113 -113 -113
s-114 39 -114 113s46 112 114 112s113 -38 113 -112zM561 491c0 50 -25 78 -70 78c-44 0 -70 -28 -70 -78s26 -78 70 -78c45 0 70 28 70 78z" />
    <glyph glyph-name="Pinferior" horiz-adv-x="428" 
d="M392 141c0 -95 -69 -128 -164 -128h-104v-163h-54v420h158c95 0 164 -34 164 -129zM337 141c0 63 -48 84 -109 84h-104v-168h104c61 0 109 21 109 84z" />
    <glyph glyph-name="P.sc" horiz-adv-x="572" 
d="M529 400c0 -130 -98 -173 -223 -173h-149v-227h-62v574h211c125 0 223 -44 223 -174zM465 400c0 90 -69 121 -157 121h-151v-241h151c88 0 157 30 157 120z" />
    <glyph glyph-name="Otilde.sc" horiz-adv-x="652" 
d="M326 583c190 0 261 -133 261 -296c0 -162 -71 -296 -261 -296c-191 0 -262 134 -262 296c0 163 71 296 262 296zM326 46c149 0 197 107 197 241s-48 241 -197 241c-148 0 -197 -107 -197 -241s49 -241 197 -241zM215 638l-39 16c24 46 45 77 87 77c49 0 90 -48 122 -48
c16 0 28 5 50 46l39 -16c-23 -46 -45 -78 -87 -78c-50 0 -91 49 -123 49c-15 0 -27 -6 -49 -46z" />
    <glyph glyph-name="Osuperior" horiz-adv-x="486" 
d="M243 812c140 0 193 -98 193 -217s-53 -217 -193 -217c-141 0 -193 98 -193 217s52 217 193 217zM243 424c104 0 138 76 138 171s-34 171 -138 171c-105 0 -138 -76 -138 -171s33 -171 138 -171z" />
    <glyph glyph-name="Oslashacute.sc" horiz-adv-x="649" 
d="M577 574l-56 -71c46 -54 66 -131 66 -216c0 -162 -72 -296 -262 -296c-72 0 -126 18 -167 50l-32 -41h-52l55 70c-46 55 -66 132 -66 217c0 163 71 296 262 296c71 0 126 -19 166 -51l33 42h53zM128 287c0 -65 11 -124 40 -167l286 365c-30 27 -72 43 -129 43
c-148 0 -197 -107 -197 -241zM325 46c149 0 197 107 197 241c0 65 -11 123 -40 166l-287 -365c31 -27 73 -42 130 -42zM307 626h-53l122 128h96z" />
    <glyph glyph-name="perthousand.onum" horiz-adv-x="1246" 
d="M360 429c0 -101 -65 -153 -155 -153c-91 0 -155 52 -155 153c0 102 64 154 155 154c90 0 155 -52 155 -154zM308 429c0 71 -40 112 -103 112s-102 -41 -102 -112s39 -111 102 -111s103 40 103 111zM830 144c0 -101 -65 -153 -155 -153c-91 0 -155 52 -155 153
c0 102 64 154 155 154c90 0 155 -52 155 -154zM776 144c0 72 -38 112 -101 112c-64 0 -102 -40 -102 -112c0 -70 38 -110 102 -110c63 0 101 40 101 110zM1197 144c0 -101 -64 -153 -155 -153c-92 0 -156 52 -156 153c0 102 64 154 156 154c91 0 155 -52 155 -154zM1144 144
c0 72 -38 112 -102 112s-102 -40 -102 -112c0 -70 38 -110 102 -110s102 40 102 110zM627 574l-320 -574h-54l320 574h54z" />
    <glyph glyph-name="Omacron.sc" horiz-adv-x="653" 
d="M327 583c190 0 261 -133 261 -296c0 -162 -71 -296 -261 -296c-191 0 -262 134 -262 296c0 163 71 296 262 296zM327 46c149 0 197 107 197 241s-48 241 -197 241c-148 0 -197 -107 -197 -241s49 -241 197 -241zM182 651v46h287v-46h-287z" />
    <glyph glyph-name="peseta.onum" horiz-adv-x="599" 
d="M73 383v33h27v158h210c120 0 215 -41 222 -158h24v-33h-24c-8 -117 -102 -156 -222 -156h-148v-227h-62v383h-27zM162 521v-105h306c-7 78 -73 105 -155 105h-151zM313 280c82 0 147 26 155 103h-306v-103h151z" />
    <glyph glyph-name="pesetainferior" horiz-adv-x="440" 
d="M51 126v29h20v115h156c90 0 158 -31 164 -115h18v-29h-18c-7 -84 -74 -113 -164 -113h-103v-163h-53v276h-20zM124 225v-70h212c-7 52 -51 70 -108 70h-104zM228 57c57 0 101 17 108 69h-212v-69h104z" />
    <glyph glyph-name="pesetasuperior" horiz-adv-x="440" 
d="M51 661v29h20v115h156c90 0 158 -31 164 -115h18v-29h-18c-7 -84 -74 -113 -164 -113h-103v-163h-53v276h-20zM124 760v-70h212c-7 52 -51 70 -108 70h-104zM228 592c57 0 101 17 108 69h-212v-69h104z" />
    <glyph glyph-name="Oinferior" horiz-adv-x="486" 
d="M243 277c140 0 193 -98 193 -217s-53 -217 -193 -217c-141 0 -193 98 -193 217s52 217 193 217zM243 -111c104 0 138 76 138 171s-34 171 -138 171c-105 0 -138 -76 -138 -171s33 -171 138 -171z" />
    <glyph glyph-name="pinferior" horiz-adv-x="395" 
d="M111 165v-41c27 23 65 48 117 48c69 0 125 -49 125 -165c0 -115 -56 -164 -125 -164c-52 0 -90 25 -117 48v-163h-52v437h52zM218 130c-42 0 -81 -23 -107 -51v-143c26 -28 65 -51 107 -51c55 0 83 46 83 122c0 77 -28 123 -83 123z" />
    <glyph glyph-name="Ohungarumlaut.sc" horiz-adv-x="653" 
d="M327 583c190 0 261 -133 261 -296c0 -162 -71 -296 -261 -296c-191 0 -262 134 -262 296c0 163 71 296 262 296zM327 46c149 0 197 107 197 241s-48 241 -197 241c-148 0 -197 -107 -197 -241s49 -241 197 -241zM399 626h-40l76 128h84zM257 626h-42l78 128h83z" />
    <glyph glyph-name="plusinferior" horiz-adv-x="401" 
d="M179 186h42v-116h137v-40h-137v-116h-42v116h-137v40h137v116z" />
    <glyph glyph-name="Ograve.sc" horiz-adv-x="653" 
d="M327 583c190 0 261 -133 261 -296c0 -162 -71 -296 -261 -296c-191 0 -262 134 -262 296c0 163 71 296 262 296zM327 46c149 0 197 107 197 241s-48 241 -197 241c-148 0 -197 -107 -197 -241s49 -241 197 -241zM398 626h-53l-165 128h95z" />
    <glyph glyph-name="Odieresis.sc" horiz-adv-x="653" 
d="M327 583c190 0 261 -133 261 -296c0 -162 -71 -296 -261 -296c-191 0 -262 134 -262 296c0 163 71 296 262 296zM327 46c149 0 197 107 197 241s-48 241 -197 241c-148 0 -197 -107 -197 -241s49 -241 197 -241zM208 636v86h72v-86h-72zM374 636v86h70v-86h-70z" />
    <glyph glyph-name="Ocircumflex.sc" horiz-adv-x="653" 
d="M327 583c190 0 261 -133 261 -296c0 -162 -71 -296 -261 -296c-191 0 -262 134 -262 296c0 163 71 296 262 296zM327 46c149 0 197 107 197 241s-48 241 -197 241c-148 0 -197 -107 -197 -241s49 -241 197 -241zM367 754l97 -128h-49l-89 90l-87 -90h-51l98 128h81z" />
    <glyph glyph-name="psuperior" horiz-adv-x="395" 
d="M111 700v-41c27 23 65 48 117 48c69 0 125 -49 125 -165c0 -115 -56 -164 -125 -164c-52 0 -90 25 -117 47v-162h-52v437h52zM218 665c-42 0 -81 -23 -107 -51v-143c26 -28 65 -51 107 -51c55 0 83 46 83 122c0 77 -28 123 -83 123z" />
    <glyph glyph-name="Obreve.sc" horiz-adv-x="653" 
d="M327 583c190 0 261 -133 261 -296c0 -162 -71 -296 -261 -296c-191 0 -262 134 -262 296c0 163 71 296 262 296zM327 46c149 0 197 107 197 241s-48 241 -197 241c-148 0 -197 -107 -197 -241s49 -241 197 -241zM326 626c-86 0 -135 40 -135 103h49c0 -41 34 -57 86 -57
s87 16 87 57h49c0 -63 -50 -103 -136 -103z" />
    <glyph glyph-name="qinferior" horiz-adv-x="395" 
d="M285 -272v163c-26 -22 -65 -48 -117 -48c-70 0 -126 49 -126 164c0 116 56 165 126 165c52 0 91 -26 117 -49v42h51v-437h-51zM178 -115c42 0 80 23 107 51v143c-27 28 -65 51 -107 51c-55 0 -83 -46 -83 -123c0 -76 28 -122 83 -122z" />
    <glyph glyph-name="qsuperior" horiz-adv-x="395" 
d="M285 263v163c-26 -23 -65 -48 -117 -48c-70 0 -126 49 -126 164c0 116 56 165 126 165c52 0 91 -26 117 -49v42h51v-437h-51zM178 420c42 0 80 22 107 50v144c-27 28 -65 51 -107 51c-55 0 -83 -46 -83 -123c0 -76 28 -122 83 -122z" />
    <glyph glyph-name="Oacute.sc" horiz-adv-x="653" 
d="M327 583c190 0 261 -133 261 -296c0 -162 -71 -296 -261 -296c-191 0 -262 134 -262 296c0 163 71 296 262 296zM327 46c149 0 197 107 197 241s-48 241 -197 241c-148 0 -197 -107 -197 -241s49 -241 197 -241zM308 626h-53l122 128h96z" />
    <glyph glyph-name="question.sc" horiz-adv-x="453" 
d="M152 0v90h73v-90h-73zM405 445c0 -93 -86 -140 -189 -166l-4 -110h-47l-5 145c109 23 182 54 182 125c0 59 -54 91 -119 91c-59 0 -112 -25 -154 -49l-31 42c39 25 111 60 191 60c90 0 176 -45 176 -138z" />
    <glyph glyph-name="OE.sc" horiz-adv-x="965" 
d="M908 0h-381v76c-42 -53 -107 -85 -200 -85c-191 0 -262 134 -262 296c0 163 71 296 262 296c93 0 158 -33 200 -85v76h375v-54h-313v-206h259v-54h-259v-206h319v-54zM327 46c149 0 197 107 197 241s-48 241 -197 241c-148 0 -197 -107 -197 -241s49 -241 197 -241z" />
    <glyph glyph-name="questiondown.sc" horiz-adv-x="455" 
d="M49 129c0 93 86 140 187 165l6 111h45l7 -146c-109 -22 -183 -53 -183 -124c0 -59 54 -91 120 -91c58 0 111 25 152 49l32 -42c-38 -25 -112 -60 -191 -60c-87 0 -175 45 -175 138zM302 574v-90h-74v90h74z" />
    <glyph glyph-name="questiondowninferior" horiz-adv-x="334" 
d="M36 -55c0 71 63 104 138 122l3 78h38l5 -106c-80 -16 -131 -38 -131 -87c0 -41 36 -64 84 -64c40 0 78 18 108 35l25 -35c-27 -18 -81 -45 -140 -45c-67 0 -130 35 -130 102zM227 270v-69h-61v69h61z" />
    <glyph glyph-name="questiondownsuperior" horiz-adv-x="335" 
d="M36 480c0 71 63 104 138 122l3 78h38l5 -106c-80 -16 -131 -38 -131 -87c0 -41 36 -64 84 -64c40 0 78 18 108 35l25 -35c-27 -18 -81 -45 -140 -45c-67 0 -130 35 -130 102zM227 805v-69h-61v69h61z" />
    <glyph glyph-name="questioninferior" horiz-adv-x="334" 
d="M107 -150v69h61v-69h-61zM298 175c0 -71 -64 -104 -139 -122l-3 -78h-37l-5 106c80 16 130 38 130 87c0 41 -36 64 -82 64c-42 0 -80 -18 -110 -35l-25 35c28 18 81 45 140 45c68 0 131 -35 131 -102z" />
    <glyph glyph-name="questionsuperior" horiz-adv-x="335" 
d="M108 385v69h61v-69h-61zM299 710c0 -71 -64 -104 -139 -122l-3 -78h-37l-5 106c80 16 130 38 130 87c0 41 -36 64 -82 64c-42 0 -80 -18 -110 -35l-25 35c28 18 81 45 140 45c68 0 131 -35 131 -102z" />
    <glyph glyph-name="O.sc" horiz-adv-x="653" 
d="M327 583c190 0 261 -133 261 -296c0 -162 -71 -296 -261 -296c-191 0 -262 134 -262 296c0 163 71 296 262 296zM327 46c149 0 197 107 197 241s-48 241 -197 241c-148 0 -197 -107 -197 -241s49 -241 197 -241z" />
    <glyph glyph-name="Ntilde.sc" horiz-adv-x="647" 
d="M487 0l-330 488v-488h-62v574h66l329 -488v488h62v-574h-65zM218 638l-39 16c24 46 45 77 87 77c50 0 90 -48 123 -48c15 0 27 5 49 46l39 -16c-23 -46 -45 -78 -87 -78c-50 0 -90 49 -123 49c-15 0 -27 -6 -49 -46z" />
    <glyph glyph-name="Nsuperior" horiz-adv-x="479" 
d="M353 385l-229 344v-344h-54v420h56l229 -344v344h55v-420h-57z" />
    <glyph glyph-name="Ninferior" horiz-adv-x="479" 
d="M353 -150l-229 344v-344h-54v420h56l229 -343v343h55v-420h-57z" />
    <glyph glyph-name="Ncommaaccent.sc" horiz-adv-x="647" 
d="M161 574l329 -488v488h62v-574h-65l-330 488v-488h-62v574h66zM292 -154v89h70l11 -91l-64 -108l-24 23l40 87h-33z" />
    <glyph glyph-name="Ncaron.sc" horiz-adv-x="647" 
d="M487 0l-330 488v-488h-62v574h66l329 -488v488h62v-574h-65zM466 754l-97 -128h-81l-97 128h50l87 -89l89 89h49z" />
    <glyph glyph-name="Nacute.sc" horiz-adv-x="647" 
d="M487 0l-330 488v-488h-62v574h66l329 -488v488h62v-574h-65zM306 626h-54l122 128h97z" />
    <glyph glyph-name="N.sc" horiz-adv-x="647" 
d="M487 0l-330 488v-488h-62v574h66l329 -488v488h62v-574h-65z" />
    <glyph glyph-name="Msuperior" horiz-adv-x="549" 
d="M427 385v335l-134 -265h-35l-134 265v-335h-54v420h56l149 -294l150 294h55v-420h-53z" />
    <glyph glyph-name="Minferior" horiz-adv-x="549" 
d="M427 -150v335l-134 -265h-35l-134 265v-335h-54v420h56l149 -293l150 293h55v-420h-53z" />
    <glyph glyph-name="M.sc" horiz-adv-x="746" 
d="M589 0v476l-194 -380h-43l-195 382v-478h-62v574h66l212 -412l212 412h66v-574h-62z" />
    <glyph glyph-name="Lsuperior" horiz-adv-x="369" 
d="M342 385h-272v420h54v-375h218v-45z" />
    <glyph glyph-name="Lslash.sc" horiz-adv-x="498" 
d="M468 0h-367v227l-65 -34v60l65 34v287h62v-255l120 63v-60l-120 -63v-205h305v-54z" />
    <glyph glyph-name="Linferior" horiz-adv-x="369" 
d="M342 -150h-272v420h54v-375h218v-45z" />
    <glyph glyph-name="rinferior" horiz-adv-x="260" 
d="M111 165v-68c4 12 38 78 125 72v-48c-113 0 -125 -100 -125 -100v-171h-52v315h52z" />
    <glyph glyph-name="Ldot.sc" horiz-adv-x="494" 
d="M462 0h-367v574h62v-521h305v-53zM339 258v85h71v-85h-71z" />
    <glyph glyph-name="Lcommaaccent.sc" horiz-adv-x="492" 
d="M462 0h-367v574h62v-521h305v-53zM241 -154v89h70l11 -91l-64 -108l-23 23l40 87h-34z" />
    <glyph glyph-name="Lcaron.sc" horiz-adv-x="492" 
d="M462 0h-367v574h62v-521h305v-53zM206 485v89h70l10 -91l-64 -108l-22 23l40 87h-34z" />
    <glyph glyph-name="s_h" horiz-adv-x="1106" 
d="M655 729v-282c37 28 129 89 222 89c113 0 145 -76 145 -160v-376h-62v366c0 65 -20 117 -98 117c-79 0 -171 -61 -207 -93v-390h-62v690h-99c-78 0 -122 -47 -122 -119c0 -27 6 -49 17 -67c16 -6 31 -14 45 -20l-29 -45c-49 24 -112 45 -166 45c-66 0 -117 -29 -117 -85
c0 -71 92 -90 144 -104c120 -31 190 -75 190 -163c0 -100 -90 -143 -184 -143c-87 0 -173 35 -223 63l29 47c50 -28 128 -58 189 -58c62 0 127 27 127 88c0 72 -94 96 -159 114c-80 22 -175 52 -175 153c0 91 77 140 178 140c36 0 71 -7 103 -16c-7 17 -11 36 -11 59
c0 94 63 150 164 150h161z" />
    <glyph glyph-name="s_k" horiz-adv-x="1017" 
d="M964 525l-177 -213l210 -312h-67l-182 266l-93 -112v-154h-62v690h-99c-78 0 -122 -47 -122 -119c0 -27 6 -49 17 -67c16 -6 31 -14 45 -20l-29 -45c-49 24 -112 45 -166 45c-66 0 -117 -29 -117 -85c0 -71 92 -90 144 -104c120 -31 190 -75 190 -163
c0 -100 -90 -143 -184 -143c-87 0 -173 35 -223 63l29 47c50 -28 128 -58 189 -58c62 0 127 27 127 88c0 72 -94 96 -159 114c-80 22 -175 52 -175 153c0 91 77 140 178 140c36 0 71 -7 103 -16c-7 17 -11 36 -11 59c0 94 63 150 164 150h161v-499l238 295h71z" />
    <glyph glyph-name="s_l" horiz-adv-x="753" 
d="M660 0h-62v690h-104c-78 0 -122 -47 -122 -119c0 -27 6 -49 17 -67c16 -6 31 -14 45 -20l-29 -45c-49 24 -112 45 -166 45c-66 0 -117 -29 -117 -85c0 -71 92 -90 144 -104c120 -31 190 -75 190 -163c0 -100 -90 -143 -184 -143c-87 0 -173 35 -223 63l29 47
c50 -28 128 -58 189 -58c62 0 127 27 127 88c0 72 -94 96 -159 114c-80 22 -175 52 -175 153c0 91 77 140 178 140c36 0 71 -7 103 -16c-7 17 -11 36 -11 59c0 94 63 150 164 150h166v-729z" />
    <glyph glyph-name="Lacute.sc" horiz-adv-x="492" 
d="M461 0h-366v574h63v-521h303v-53zM109 626h-53l121 128h96z" />
    <glyph glyph-name="L.sc" horiz-adv-x="492" 
d="M462 0h-367v574h62v-520h305v-54z" />
    <glyph glyph-name="Ksuperior" horiz-adv-x="433" 
d="M70 385v420h54v-237l208 237h63l-179 -203l198 -217h-64l-165 182l-61 -69v-113h-54z" />
    <glyph glyph-name="Kinferior" horiz-adv-x="433" 
d="M70 -150v420h54v-237l208 237h63l-179 -203l198 -217h-64l-165 182l-61 -68v-114h-54z" />
    <glyph glyph-name="Kcommaaccent.sc" horiz-adv-x="579" 
d="M95 0v574h62v-335l298 335h74l-248 -276l277 -298h-76l-238 256l-87 -97v-159h-62zM258 -154v89h69l11 -91l-65 -108l-23 23l41 87h-33z" />
    <glyph glyph-name="K.sc" horiz-adv-x="579" 
d="M95 0v574h62v-335l298 335h74l-248 -276l277 -298h-76l-238 256l-87 -97v-159h-62z" />
    <glyph glyph-name="Jsuperior" horiz-adv-x="193" 
d="M123 805v-393c0 -66 0 -90 -110 -116l-18 40c75 23 75 30 75 75v394h53z" />
    <glyph glyph-name="Jinferior" horiz-adv-x="193" 
d="M123 270v-393c0 -66 0 -90 -110 -116l-18 40c75 23 75 30 75 75v394h53z" />
    <glyph glyph-name="semicoloninferior" horiz-adv-x="192" 
d="M66 54v73h59v-73h-59zM66 -150v73h58l8 -77l-52 -77l-18 19l31 62h-27z" />
    <glyph glyph-name="semicolonsuperior" horiz-adv-x="192" 
d="M66 589v73h59v-73h-59zM66 385v73h58l8 -77l-52 -77l-18 19l31 62h-27z" />
    <glyph glyph-name="Jcircumflex.sc" horiz-adv-x="252" 
d="M156 574v-540c0 -87 0 -116 -144 -151l-21 48c103 32 103 39 103 102v541h62zM164 754l98 -128h-50l-88 90l-87 -90h-50l97 128h80z" />
    <glyph glyph-name="J.sc" horiz-adv-x="253" 
d="M158 574v-540c0 -87 0 -116 -144 -151l-21 48c103 32 103 39 103 102v541h62z" />
    <glyph glyph-name="seven.dnom" horiz-adv-x="342" 
d="M315 380c0 0 -162 -190 -162 -380h-55c0 172 144 358 157 375h-224v45h284v-40z" />
    <glyph glyph-name="seven.numr" horiz-adv-x="342" 
d="M315 660c0 0 -162 -190 -162 -380h-55c0 172 144 358 157 375h-224v45h284v-40z" />
    <glyph glyph-name="seven.onum" horiz-adv-x="499" 
d="M473 525c0 0 -260 -322 -260 -651h-69c0 293 228 610 252 643h-364v57h441v-49z" />
    <glyph glyph-name="seven.tnum" horiz-adv-x="615" 
d="M532 651c0 0 -259 -322 -259 -651h-70c0 293 228 610 252 643h-364v57h441v-49z" />
    <glyph glyph-name="Itilde.sc" horiz-adv-x="252" 
d="M16 638l-39 16c24 46 45 77 87 77c49 0 90 -48 122 -48c16 0 28 5 50 46l38 -16c-22 -46 -45 -78 -87 -78c-49 0 -90 49 -122 49c-15 0 -27 -6 -49 -46zM157 0h-62v574h62v-574z" />
    <glyph glyph-name="seveneighths.onum" horiz-adv-x="739" 
d="M402 89c0 53 49 81 93 97c-34 14 -70 38 -70 81c0 50 48 83 119 83c70 0 120 -33 120 -83c0 -44 -38 -67 -71 -81c44 -16 93 -44 93 -97c0 -59 -61 -95 -142 -95s-142 36 -142 95zM492 574l-291 -574h-49l291 574h49zM289 541c0 0 -141 -157 -141 -311h-48
c0 137 120 287 136 306h-194v38h247v-33zM638 91c0 41 -51 63 -96 78c-45 -15 -92 -37 -92 -78c0 -38 41 -61 94 -61c51 0 94 23 94 61zM470 262c0 -36 44 -51 74 -60c30 8 73 25 73 60c0 29 -31 54 -73 54c-44 0 -74 -26 -74 -54z" />
    <glyph glyph-name="Isuperior" horiz-adv-x="193" 
d="M124 385h-54v420h54v-420z" />
    <glyph glyph-name="Iogonek.sc" horiz-adv-x="253" 
d="M56 -96c0 -44 51 -39 81 -39l-9 -44c-36 0 -127 -1 -127 75c0 42 45 78 99 104h-4v574h63v-574h-3c-38 -22 -100 -53 -100 -96z" />
    <glyph glyph-name="sinferior" horiz-adv-x="339" 
d="M183 31c73 -18 120 -45 120 -100c0 -60 -56 -88 -121 -88c-56 0 -114 22 -146 39l23 38c32 -17 83 -35 120 -35c38 0 72 12 72 45c0 38 -55 50 -96 61c-52 13 -113 33 -113 94c0 55 48 87 117 87c50 0 98 -18 130 -33l-24 -35c-30 14 -71 27 -105 27
c-39 0 -68 -14 -68 -44c0 -38 56 -47 91 -56z" />
    <glyph glyph-name="Imacron.sc" horiz-adv-x="252" 
d="M156 0h-61v574h61v-574zM-18 651v46h287v-46h-287z" />
    <glyph glyph-name="six.dnom" horiz-adv-x="408" 
d="M279 382c-87 0 -156 -60 -172 -160c16 16 54 46 118 46c90 0 141 -60 141 -133c0 -76 -58 -142 -154 -142c-111 0 -163 85 -163 187c0 139 94 247 229 247c34 0 59 -7 59 -7l-12 -42s-21 4 -46 4zM215 226c-58 0 -99 -34 -112 -58c2 -81 42 -130 109 -130
c68 0 101 49 101 96c0 44 -29 92 -98 92z" />
    <glyph glyph-name="six.numr" horiz-adv-x="408" 
d="M279 662c-87 0 -156 -60 -172 -160c16 16 54 46 118 46c90 0 141 -60 141 -133c0 -76 -58 -142 -154 -142c-111 0 -163 85 -163 187c0 139 94 247 229 247c34 0 59 -7 59 -7l-12 -42s-21 4 -46 4zM215 506c-58 0 -99 -34 -112 -58c2 -81 42 -130 109 -130
c68 0 101 49 101 96c0 44 -29 92 -98 92z" />
    <glyph glyph-name="six.onum" horiz-adv-x="610" 
d="M421 655c-122 0 -253 -88 -282 -294c25 31 88 85 193 85c145 0 222 -104 222 -222c0 -125 -88 -235 -235 -235c-172 0 -251 148 -251 290c-2 288 175 432 351 432c51 0 90 -11 90 -11l-16 -54s-33 9 -72 9zM324 392c-100 0 -170 -64 -190 -110v-6
c0 -119 57 -231 184 -231c114 0 171 91 171 179c0 80 -47 168 -165 168z" />
    <glyph glyph-name="six.tnum" horiz-adv-x="615" 
d="M423 655c-123 0 -254 -88 -282 -294c25 30 88 85 193 85c146 0 223 -104 223 -222c0 -125 -89 -235 -235 -235c-173 0 -251 148 -252 290c-2 288 175 432 352 432c50 0 89 -11 89 -11l-16 -54s-32 9 -72 9zM327 392c-101 0 -171 -64 -191 -110v-6
c0 -119 58 -231 185 -231c114 0 171 91 171 179c0 80 -48 168 -165 168z" />
    <glyph glyph-name="Iinferior" horiz-adv-x="193" 
d="M124 -150h-54v420h54v-420z" />
    <glyph glyph-name="Igrave.sc" horiz-adv-x="253" 
d="M158 0h-63v574h63v-574zM198 626h-53l-165 128h95z" />
    <glyph glyph-name="Idieresis.sc" horiz-adv-x="252" 
d="M158 0h-62v574h62v-574zM8 636v86h72v-86h-72zM173 636v86h71v-86h-71z" />
    <glyph glyph-name="slash.sc" horiz-adv-x="405" 
d="M371 648l-291 -722h-51l291 722h51z" />
    <glyph glyph-name="Icircumflex.sc" horiz-adv-x="252" 
d="M157 0h-62v574h62v-574zM166 754l98 -128h-50l-88 90l-87 -90h-51l98 128h80z" />
    <glyph glyph-name="spaceinferior" horiz-adv-x="182" 
 />
    <glyph glyph-name="spacesuperior" horiz-adv-x="182" 
 />
    <glyph glyph-name="Ibreve.sc" horiz-adv-x="252" 
d="M126 626c-86 0 -135 40 -135 103h49c0 -41 34 -57 86 -57s87 16 87 57h49c0 -63 -50 -103 -136 -103zM157 0h-62v574h62v-574z" />
    <glyph glyph-name="Iacute.sc" horiz-adv-x="253" 
d="M158 0h-63v574h63v-574zM109 626h-53l121 128h96z" />
    <glyph glyph-name="sterling.onum" horiz-adv-x="500" 
d="M76 213v45h90c-19 66 -81 105 -81 186c0 83 66 139 169 139c75 0 140 -32 186 -56l-30 -43c-55 27 -105 46 -152 46c-73 0 -111 -44 -111 -93c0 -67 65 -106 81 -179h144v-45h-141c-6 -75 -65 -140 -85 -160h284v-53h-364v45s99 71 105 168h-95z" />
    <glyph glyph-name="IJ.sc" horiz-adv-x="505" 
d="M157 0h-62v574h62v-574zM395 574v-540c0 -87 0 -116 -143 -151l-21 48c102 32 102 39 102 102v541h62z" />
    <glyph glyph-name="I.sc" horiz-adv-x="252" 
d="M157 0h-62v574h62v-574z" />
    <glyph glyph-name="Hsuperior" horiz-adv-x="468" 
d="M345 385v198h-221v-198h-54v420h54v-177h221v177h54v-420h-54z" />
    <glyph glyph-name="Hinferior" horiz-adv-x="468" 
d="M345 -150v198h-221v-198h-54v420h54v-177h221v177h54v-420h-54z" />
    <glyph glyph-name="Hbar.sc" horiz-adv-x="641" 
d="M480 0v274h-319v-274h-62v427h-66v41h66v106h62v-106h319v106h62v-106h65v-41h-65v-427h-62zM161 427v-99h319v99h-319z" />
    <glyph glyph-name="H.sc" horiz-adv-x="633" 
d="M476 0v274h-319v-274h-62v574h62v-246h319v246h62v-574h-62z" />
    <glyph glyph-name="Gsuperior" horiz-adv-x="464" 
d="M356 385v49c-36 -29 -81 -56 -136 -56c-89 0 -170 66 -170 217s81 217 174 217c70 0 129 -34 176 -66l-28 -38c-37 22 -89 56 -144 56c-72 0 -122 -62 -122 -169c0 -106 49 -171 122 -171c53 0 104 39 128 59v88h-122v44h174v-230h-52z" />
    <glyph glyph-name="three.dnom" horiz-adv-x="391" 
d="M35 37l26 38c22 -14 74 -37 125 -37c59 0 104 31 104 81c0 65 -80 87 -139 87h-21v46h24c56 0 117 22 117 72c0 36 -32 58 -82 58c-47 0 -88 -21 -111 -35l-22 34c12 10 67 46 140 46c85 0 128 -48 128 -99c0 -38 -25 -77 -84 -96c59 -14 104 -57 104 -114
c0 -62 -47 -125 -152 -125c-71 0 -134 30 -157 44z" />
    <glyph glyph-name="three.numr" horiz-adv-x="391" 
d="M35 317l26 38c22 -14 74 -37 125 -37c59 0 104 31 104 81c0 65 -80 87 -139 87h-21v46h24c56 0 117 22 117 72c0 36 -32 58 -82 58c-47 0 -88 -21 -111 -35l-22 34c12 10 67 46 140 46c85 0 128 -48 128 -99c0 -38 -25 -77 -84 -96c59 -14 104 -57 104 -114
c0 -62 -47 -125 -152 -125c-71 0 -134 30 -157 44z" />
    <glyph glyph-name="three.onum" horiz-adv-x="574" 
d="M41 -71l31 49c26 -17 112 -60 198 -60c99 0 178 57 178 148c0 118 -131 162 -229 162h-31v58h36c97 0 193 45 193 132c0 68 -56 108 -141 108c-76 0 -139 -34 -174 -58l-30 44c20 15 102 71 211 71c130 0 199 -77 199 -162c0 -61 -38 -129 -139 -163
c97 -23 172 -94 172 -192c0 -102 -77 -205 -238 -205c-106 0 -200 45 -236 68z" />
    <glyph glyph-name="three.tnum" horiz-adv-x="615" 
d="M60 57l32 49c26 -17 112 -60 197 -60c100 0 179 57 179 148c0 118 -131 162 -229 162h-31v58h36c96 0 193 45 193 132c0 68 -57 108 -141 108c-76 0 -139 -34 -174 -58l-30 44c20 15 102 71 211 71c130 0 199 -77 199 -162c0 -61 -38 -129 -139 -163
c97 -23 172 -94 172 -192c0 -102 -78 -205 -239 -205c-105 0 -199 45 -236 68z" />
    <glyph glyph-name="Ginferior" horiz-adv-x="465" 
d="M356 -150v50c-36 -30 -81 -57 -136 -57c-89 0 -170 66 -170 217s81 217 174 217c70 0 129 -34 176 -66l-28 -38c-37 22 -89 56 -144 56c-72 0 -122 -62 -122 -169c0 -106 49 -171 122 -171c53 0 104 39 128 60v87h-122v44h174v-230h-52z" />
    <glyph glyph-name="threeeighths.onum" horiz-adv-x="834" 
d="M497 89c0 53 49 81 93 97c-33 14 -70 38 -70 81c0 50 48 83 120 83c70 0 119 -33 119 -83c0 -45 -37 -68 -70 -81c44 -17 92 -44 92 -97c0 -59 -61 -95 -141 -95s-143 36 -143 95zM52 260l22 32c19 -12 65 -31 110 -31c50 0 91 26 91 66c0 53 -71 71 -122 71h-18v38h20
c49 0 101 18 101 59c0 29 -26 47 -70 47c-41 0 -77 -17 -96 -29l-20 29c11 9 58 38 122 38c73 0 111 -40 111 -82c0 -31 -21 -62 -72 -78c50 -12 90 -47 90 -93c0 -51 -41 -103 -132 -103c-63 0 -118 25 -137 36zM588 574l-292 -574h-48l291 574h49zM733 91
c0 41 -50 63 -94 78c-46 -15 -94 -38 -94 -78c0 -38 41 -61 95 -61c52 0 93 23 93 61zM565 262c0 -36 44 -51 74 -60c30 8 73 25 73 60c0 29 -30 54 -72 54c-44 0 -75 -26 -75 -54z" />
    <glyph glyph-name="threefifths" horiz-adv-x="938" 
d="M596 213l23 207h241v-45h-197l-11 -124c21 9 46 16 78 16c93 0 148 -62 148 -135c0 -71 -52 -139 -157 -139c-65 0 -117 28 -142 44l24 39c14 -9 63 -37 112 -37c57 0 108 36 108 93c0 49 -37 91 -104 91c-41 0 -76 -16 -94 -26zM50 317l26 38c23 -14 75 -37 126 -37
c58 0 104 31 104 81c0 65 -80 87 -139 87h-21v46h24c56 0 116 22 116 72c0 36 -31 58 -81 58c-48 0 -88 -21 -111 -35l-23 34c13 10 68 46 141 46c85 0 128 -48 128 -99c0 -38 -25 -77 -84 -96c59 -14 104 -57 104 -114c0 -62 -47 -125 -152 -125c-72 0 -134 30 -158 44z
M667 700l-335 -700h-56l335 700h56z" />
    <glyph glyph-name="threefifths.onum" horiz-adv-x="832" 
d="M527 174l21 170h208v-37h-172l-9 -101c18 7 40 13 67 13c82 0 130 -51 130 -110s-46 -115 -137 -115c-57 0 -101 24 -124 36l21 33c11 -7 55 -29 98 -29c50 0 94 29 94 75c0 39 -32 73 -91 73c-35 0 -65 -12 -81 -22zM52 260l22 32c19 -12 65 -31 110 -31
c50 0 91 26 91 66c0 53 -71 71 -122 71h-18v38h20c49 0 101 18 101 59c0 29 -26 47 -70 47c-41 0 -77 -17 -96 -29l-20 29c11 9 58 38 122 38c73 0 111 -40 111 -82c0 -31 -21 -62 -72 -78c50 -12 90 -47 90 -93c0 -51 -41 -103 -132 -103c-63 0 -118 25 -137 36zM588 574
l-292 -574h-48l291 574h49z" />
    <glyph glyph-name="Gdotaccent.sc" horiz-adv-x="624" 
d="M490 0v70c-50 -41 -113 -79 -191 -79c-122 0 -234 88 -234 296c0 207 111 296 237 296c96 0 177 -47 238 -91l-35 -45c-47 31 -121 80 -198 80c-104 0 -177 -88 -177 -240c0 -151 72 -241 176 -241c78 0 151 57 184 85v128h-172v52h233v-311h-61zM273 636v86h72v-86h-72z
" />
    <glyph glyph-name="Gcommaaccent.sc" horiz-adv-x="624" 
d="M490 0v70c-50 -41 -113 -79 -191 -79c-122 0 -234 88 -234 296c0 207 111 296 237 296c96 0 177 -47 238 -91l-35 -45c-47 31 -121 80 -198 80c-104 0 -177 -88 -177 -240c0 -151 72 -241 176 -241c78 0 151 57 184 85v128h-172v52h233v-311h-61zM288 -154v89h70l10 -91
l-63 -108l-24 23l41 87h-34z" />
    <glyph glyph-name="threequarters.onum" horiz-adv-x="811" 
d="M459 76v33l184 235h61v-231h59v-37h-59v-76h-47v76h-198zM52 260l22 32c19 -12 65 -31 110 -31c50 0 91 26 91 66c0 53 -71 71 -122 71h-18v38h20c49 0 101 18 101 59c0 29 -26 47 -70 47c-41 0 -77 -17 -96 -29l-20 29c11 9 58 38 122 38c73 0 111 -40 111 -82
c0 -31 -21 -62 -72 -78c50 -12 90 -47 90 -93c0 -51 -41 -103 -132 -103c-63 0 -118 25 -137 36zM588 574l-292 -574h-48l291 574h49zM509 113h148v193z" />
    <glyph glyph-name="Gbreve.sc" horiz-adv-x="624" 
d="M490 0v70c-50 -41 -113 -79 -191 -79c-122 0 -234 88 -234 296c0 207 111 296 237 296c96 0 177 -47 238 -91l-35 -45c-47 31 -121 80 -198 80c-104 0 -177 -88 -177 -240c0 -151 72 -241 176 -241c78 0 151 57 184 85v128h-172v52h233v-311h-61zM307 626
c-85 0 -135 40 -135 103h49c0 -41 34 -57 86 -57c53 0 87 16 87 57h49c0 -63 -50 -103 -136 -103z" />
    <glyph glyph-name="G.sc" horiz-adv-x="624" 
d="M490 0v70c-50 -41 -113 -79 -191 -79c-122 0 -234 88 -234 296c0 207 111 296 237 296c96 0 177 -47 238 -91l-35 -45c-47 31 -121 80 -198 80c-104 0 -177 -88 -177 -240c0 -151 72 -241 176 -241c78 0 151 57 184 85v128h-172v52h233v-311h-61z" />
    <glyph glyph-name="tinferior" horiz-adv-x="265" 
d="M27 126v39h46v79l52 12v-91h91v-39h-91v-205c0 -27 13 -34 30 -34c20 0 52 12 63 17l20 -39c-15 -6 -56 -22 -91 -22c-41 0 -74 19 -74 80v203h-46z" />
    <glyph glyph-name="Fsuperior" horiz-adv-x="381" 
d="M349 760h-225v-143h180v-44h-180v-188h-54v420h279v-45z" />
    <glyph glyph-name="Finferior" horiz-adv-x="381" 
d="M349 225h-225v-143h180v-44h-180v-188h-54v420h279v-45z" />
    <glyph glyph-name="F.sc" horiz-adv-x="510" 
d="M472 521h-315v-208h252v-53h-252v-260h-62v574h377v-53z" />
    <glyph glyph-name="two.dnom" horiz-adv-x="387" 
d="M338 45v-45h-296v34c0 88 69 127 140 173c55 35 101 65 101 110c0 37 -31 65 -87 65c-48 0 -95 -23 -116 -38l-26 35c30 20 81 48 147 48c83 0 136 -44 136 -109c0 -79 -78 -120 -150 -165c-51 -33 -85 -58 -85 -108h236z" />
    <glyph glyph-name="two.numr" horiz-adv-x="387" 
d="M338 325v-45h-296v34c0 88 69 127 140 173c55 35 101 65 101 110c0 37 -31 65 -87 65c-48 0 -95 -23 -116 -38l-26 35c30 20 81 48 147 48c83 0 136 -44 136 -109c0 -79 -78 -120 -150 -165c-51 -33 -85 -58 -85 -108h236z" />
    <glyph glyph-name="two.onum" horiz-adv-x="575" 
d="M58 0v50c0 110 101 167 201 215c99 48 183 85 183 159c0 68 -56 103 -142 103c-91 0 -159 -40 -190 -62l-33 45c52 36 124 73 224 73c120 0 205 -50 205 -158s-102 -156 -218 -212c-101 -50 -158 -81 -161 -157h380v-56h-449z" />
    <glyph glyph-name="two.tnum" horiz-adv-x="615" 
d="M528 57v-57h-452v51c0 148 109 211 223 288c86 59 162 114 162 196c0 69 -54 119 -147 119c-81 0 -153 -38 -185 -62l-34 45c48 34 124 74 221 74c126 0 211 -67 211 -175c0 -132 -125 -201 -243 -281c-87 -59 -138 -102 -138 -198h382z" />
    <glyph glyph-name="twofifths" horiz-adv-x="957" 
d="M615 213l24 207h240v-45h-197l-12 -124c21 9 47 16 79 16c93 0 148 -62 148 -135c0 -71 -51 -139 -156 -139c-66 0 -117 28 -144 44l26 39c12 -9 62 -37 112 -37c56 0 107 36 107 93c0 49 -36 91 -104 91c-40 0 -75 -16 -93 -26zM353 325v-45h-295v34
c0 88 69 127 140 173c54 35 101 65 101 110c0 37 -32 65 -87 65c-49 0 -95 -23 -116 -38l-26 35c30 20 81 48 147 48c83 0 135 -44 135 -109c0 -79 -78 -120 -150 -165c-51 -33 -84 -58 -84 -108h235zM686 700l-335 -700h-56l334 700h57z" />
    <glyph glyph-name="twofifths.onum" horiz-adv-x="849" 
d="M545 174l20 170h209v-37h-173l-9 -102c18 8 40 14 68 14c81 0 130 -51 130 -110s-45 -115 -138 -115c-56 0 -101 24 -124 36l21 33c13 -7 55 -29 98 -29c50 0 94 29 94 75c0 39 -31 73 -89 73c-36 0 -67 -12 -83 -22zM316 267v-37h-257v28c0 71 61 104 122 141
c47 29 88 54 88 90c0 30 -28 53 -76 53c-42 0 -82 -20 -101 -32l-22 30c26 17 70 40 127 40c73 0 119 -36 119 -90c0 -66 -69 -98 -132 -135c-45 -26 -73 -47 -73 -88h205zM605 574l-292 -574h-48l291 574h49z" />
    <glyph glyph-name="Eurosuperior" horiz-adv-x="465" 
d="M42 627v31h43c19 106 90 154 169 154c64 0 121 -32 168 -62l-28 -38c-36 22 -87 52 -137 52c-57 0 -99 -38 -115 -106h179v-31h-185c-1 -10 -1 -21 -1 -32c0 -13 0 -24 2 -35h184v-31h-179c17 -66 59 -103 115 -103c50 0 101 29 137 52l28 -38c-47 -30 -104 -62 -168 -62
c-78 0 -148 46 -168 151h-44v31h39c-1 11 -1 23 -1 35c0 11 0 22 1 32h-39z" />
    <glyph glyph-name="Euroinferior" horiz-adv-x="465" 
d="M42 92v31h43c19 106 90 154 169 154c64 0 121 -32 168 -62l-28 -38c-36 22 -87 52 -137 52c-57 0 -99 -38 -115 -106h179v-31h-185c-1 -10 -1 -21 -1 -32c0 -13 0 -24 2 -35h184v-31h-179c17 -66 59 -103 115 -103c50 0 101 29 137 52l28 -38c-47 -30 -104 -62 -168 -62
c-78 0 -148 47 -168 151h-44v31h39c-1 11 -1 23 -1 35c0 11 0 22 1 32h-39z" />
    <glyph glyph-name="Euro.onum" horiz-adv-x="638" 
d="M58 333v39h60c26 146 121 211 228 211c88 0 167 -45 228 -85l-32 -44c-49 31 -120 74 -192 74c-82 0 -145 -57 -167 -156h257v-39h-264c-1 -15 -2 -30 -2 -46c0 -18 1 -35 3 -51h263v-39h-256c23 -97 85 -151 166 -151c72 0 143 43 192 74l32 -45
c-61 -39 -140 -84 -228 -84c-105 0 -200 62 -227 206h-61v39h55c-1 16 -2 33 -2 51c0 16 0 31 2 46h-55z" />
    <glyph glyph-name="twothirds.onum" horiz-adv-x="845" 
d="M315 267v-37h-256v28c0 71 60 104 121 141c47 29 89 54 89 90c0 30 -28 53 -77 53c-42 0 -82 -20 -101 -32l-21 30c25 17 69 40 126 40c73 0 119 -36 119 -90c0 -66 -69 -98 -131 -135c-45 -26 -73 -47 -73 -88h204zM605 574l-292 -574h-48l291 574h49zM520 30l23 32
c19 -11 65 -30 109 -30c51 0 91 25 91 65c0 54 -71 71 -122 71h-17v39h20c49 0 101 17 101 58c0 29 -27 47 -70 47c-41 0 -78 -17 -96 -29l-21 29c12 9 59 38 122 38c75 0 113 -39 113 -81c0 -31 -23 -62 -74 -79c52 -11 91 -46 91 -93c0 -51 -42 -103 -133 -103
c-62 0 -116 26 -137 36z" />
    <glyph glyph-name="Eth.sc" horiz-adv-x="629" 
d="M564 287c0 -205 -108 -287 -282 -287h-181v260h-66v54h66v260h181c174 0 282 -82 282 -287zM500 287c0 161 -67 233 -221 233h-116v-206h150v-54h-150v-206h116c154 0 221 72 221 233z" />
    <glyph glyph-name="Esuperior" horiz-adv-x="397" 
d="M353 385h-283v420h279v-45h-225v-143h187v-44h-187v-143h229v-45z" />
    <glyph glyph-name="Eogonek.sc" horiz-adv-x="534" 
d="M374 -96c0 -44 52 -39 81 -39l-9 -44c-35 0 -127 -1 -127 75c0 42 45 78 100 104h-324v574h377v-53h-315v-207h261v-54h-261v-207h320v-53h-3c-38 -22 -100 -53 -100 -96z" />
    <glyph glyph-name="Eng.sc" horiz-adv-x="647" 
d="M552 574v-545c0 -83 -3 -111 -143 -146l-21 48c81 24 97 34 101 67l-332 490v-488h-62v574h66l329 -488v488h62z" />
    <glyph glyph-name="Emacron.sc" horiz-adv-x="534" 
d="M477 0h-382v574h377v-53h-315v-207h261v-54h-261v-207h320v-53zM141 651v46h287v-46h-287z" />
    <glyph glyph-name="Einferior" horiz-adv-x="397" 
d="M353 -150h-283v420h279v-45h-225v-143h187v-44h-187v-143h229v-45z" />
    <glyph glyph-name="Egrave.sc" horiz-adv-x="534" 
d="M477 0h-382v574h377v-53h-315v-207h261v-54h-261v-207h320v-53zM357 626h-54l-164 128h95z" />
    <glyph glyph-name="uinferior" horiz-adv-x="396" 
d="M287 -150v45c-25 -18 -81 -52 -137 -52c-72 0 -93 45 -93 98v224h51v-215c0 -37 12 -65 57 -65c46 0 99 32 122 51v229h51v-315h-51z" />
    <glyph glyph-name="Edotaccent.sc" horiz-adv-x="534" 
d="M477 0h-382v574h377v-53h-315v-207h261v-54h-261v-207h320v-53zM249 636v86h72v-86h-72z" />
    <glyph glyph-name="Edieresis.sc" horiz-adv-x="534" 
d="M477 0h-382v574h377v-53h-315v-207h261v-54h-261v-207h320v-53zM167 636v86h72v-86h-72zM332 636v86h71v-86h-71z" />
    <glyph glyph-name="Ecircumflex.sc" horiz-adv-x="534" 
d="M477 0h-382v574h377v-53h-315v-207h261v-54h-261v-207h320v-53zM326 754l97 -128h-49l-89 90l-87 -90h-51l97 128h82z" />
    <glyph glyph-name="Ecaron.sc" horiz-adv-x="534" 
d="M477 0h-382v574h377v-53h-315v-207h261v-54h-261v-207h320v-53zM423 754l-97 -128h-82l-97 128h51l87 -89l89 89h49z" />
    <glyph glyph-name="uni021a.sc" horiz-adv-x="511" 
d="M481 520h-194v-520h-63v520h-194v54h451v-54zM220 -154v89h70l11 -91l-65 -108l-23 23l40 87h-33z" />
    <glyph glyph-name="Eacute.sc" horiz-adv-x="534" 
d="M477 0h-382v574h377v-53h-315v-207h261v-54h-261v-207h320v-53zM268 626h-53l122 128h96z" />
    <glyph glyph-name="E.sc" horiz-adv-x="534" 
d="M477 0h-382v574h377v-53h-315v-207h261v-54h-261v-207h320v-53z" />
    </font>
</defs>
</svg>
