<?xml version="1.0" standalone="no"?>
<!DOCTYPE svg PUBLIC "-//W3C//DTD SVG 1.1//EN" "http://www.w3.org/Graphics/SVG/1.1/DTD/svg11.dtd" >
<svg xmlns="http://www.w3.org/2000/svg" xmlns:xlink="http://www.w3.org/1999/xlink" version="1.1">
<metadata>
Created by FontForge 20160405 at Thu Jun  7 08:24:32 2018
 By www-data
Copyright (c) 2012 by Yellow Design Studio. All rights reserved.
</metadata>
<defs>
<font id="VerbLight-Italic" horiz-adv-x="596" >
  <font-face 
    font-family="Verb Light"
    font-weight="300"
    font-style="italic"
    font-stretch="normal"
    units-per-em="1000"
    panose-1="2 0 3 0 3 0 0 9 0 4"
    ascent="800"
    descent="-200"
    x-height="525"
    cap-height="700"
    bbox="-171 -278 1333 945"
    underline-thickness="50"
    underline-position="-100"
    stemh="46"
    stemv="63"
    unicode-range="U+0020-FB06"
  />
<missing-glyph horiz-adv-x="269" 
 />
    <glyph glyph-name="f_f" unicode="ff" horiz-adv-x="690" 
d="M417 475l9 50h71l16 88c14 84 46 116 118 116c48 0 124 -24 149 -34l-29 -44c-21 7 -86 23 -114 23c-41 0 -55 -27 -62 -61l-16 -88h144l-8 -50h-144l-81 -466c-25 -142 -31 -175 -195 -217l-15 51c122 36 127 56 146 164l82 468h-71zM70 475l10 50h70l16 88
c14 84 47 116 118 116c48 0 124 -24 149 -34l-27 -44c-21 7 -87 23 -116 23c-41 0 -55 -27 -61 -61l-16 -88h141l-9 -50h-141l-81 -466c-25 -142 -31 -175 -195 -217l-15 51c123 36 128 56 146 164l82 468h-71z" />
    <glyph glyph-name="f_i" unicode="fi" horiz-adv-x="581" 
d="M70 475l10 50h70l16 88c14 84 48 116 114 116c40 0 101 -19 123 -27l-26 -45c-19 6 -66 17 -87 17c-41 0 -55 -27 -61 -61l-16 -88h143l-8 -50h-144l-81 -466c-25 -142 -31 -175 -195 -217l-15 51c123 36 128 56 146 164l82 468h-71zM440 0h-62l93 525h62zM487 639l15 87
h71l-14 -87h-72z" />
    <glyph glyph-name="f_l" unicode="fl" horiz-adv-x="591" 
d="M70 475l10 50h70l16 88c14 84 48 116 114 116c40 0 101 -19 123 -27l-26 -45c-19 6 -66 17 -87 17c-41 0 -55 -27 -61 -61l-16 -88h143l-8 -50h-144l-81 -466c-25 -142 -31 -175 -195 -217l-15 51c123 36 128 56 146 164l82 468h-71zM446 0h-63l129 729h63z" />
    <glyph glyph-name="f_f_i" unicode="ffi" horiz-adv-x="928" 
d="M70 475l10 50h70l16 88c14 84 47 116 118 116c48 0 124 -24 149 -34l-27 -44c-21 7 -87 23 -116 23c-41 0 -55 -27 -61 -61l-16 -88h141l-9 -50h-141l-81 -466c-25 -142 -31 -175 -195 -217l-15 51c123 36 128 56 146 164l82 468h-71zM417 475l9 50h71l16 88
c14 84 48 116 114 116c39 0 100 -19 123 -27l-26 -45c-20 6 -66 17 -87 17c-41 0 -55 -27 -62 -61l-16 -88h144l-8 -50h-144l-81 -466c-25 -142 -31 -175 -195 -217l-15 51c122 36 127 56 146 164l82 468h-71zM787 0h-62l93 525h62zM833 639l16 87h71l-15 -87h-72z" />
    <glyph glyph-name="f_f_l" unicode="ffl" horiz-adv-x="938" 
d="M70 475l10 50h70l16 88c14 84 47 116 118 116c48 0 124 -24 149 -34l-27 -44c-21 7 -87 23 -116 23c-41 0 -55 -27 -61 -61l-16 -88h141l-9 -50h-141l-81 -466c-25 -142 -31 -175 -195 -217l-15 51c123 36 128 56 146 164l82 468h-71zM417 475l9 50h71l16 88
c14 84 48 116 114 116c39 0 100 -19 123 -27l-26 -45c-20 6 -66 17 -87 17c-41 0 -55 -27 -62 -61l-16 -88h144l-8 -50h-144l-81 -466c-25 -142 -31 -175 -195 -217l-15 51c122 36 127 56 146 164l82 468h-71zM792 0h-62l129 729h62z" />
    <glyph glyph-name="f_f_b" unicode="ffb" horiz-adv-x="1285" 
d="M725 0l129 729h62l-49 -275c44 37 112 82 190 82c84 0 168 -48 168 -184c0 -208 -94 -363 -236 -363c-88 0 -149 51 -189 88l-13 -77h-62zM1047 482c-74 0 -135 -45 -191 -91l-46 -260c43 -46 102 -88 169 -88c114 0 182 152 182 303c0 85 -37 136 -114 136zM70 475
l10 50h70l16 88c14 84 47 116 118 116c48 0 124 -24 149 -34l-27 -44c-21 7 -87 23 -116 23c-41 0 -55 -27 -61 -61l-16 -88h141l-9 -50h-141l-81 -466c-25 -142 -31 -175 -195 -217l-15 51c123 36 128 56 146 164l82 468h-71zM417 475l9 50h71l16 88c14 84 48 116 114 116
c39 0 100 -19 123 -27l-26 -45c-20 6 -66 17 -87 17c-41 0 -55 -27 -62 -61l-16 -88h144l-8 -50h-144l-81 -466c-25 -142 -31 -175 -195 -217l-15 51c122 36 127 56 146 164l82 468h-71z" />
    <glyph glyph-name="f_f_h" unicode="ffh" horiz-adv-x="1286" 
d="M916 729l-50 -279c40 28 139 86 226 86c106 0 141 -71 124 -164l-65 -372h-63l65 366c11 65 0 117 -75 117c-78 0 -181 -62 -222 -94l-69 -389h-62l129 729h62zM70 475l10 50h70l16 88c14 84 47 116 118 116c48 0 124 -24 149 -34l-27 -44c-21 7 -87 23 -116 23
c-41 0 -55 -27 -61 -61l-16 -88h141l-9 -50h-141l-81 -466c-25 -142 -31 -175 -195 -217l-15 51c123 36 128 56 146 164l82 468h-71zM417 475l9 50h71l16 88c14 84 48 116 114 116c39 0 100 -19 123 -27l-26 -45c-20 6 -66 17 -87 17c-41 0 -55 -27 -62 -61l-16 -88h144
l-8 -50h-144l-81 -466c-25 -142 -31 -175 -195 -217l-15 51c122 36 127 56 146 164l82 468h-71z" />
    <glyph glyph-name="f_b" unicode="fb" horiz-adv-x="938" 
d="M378 0l129 729h62l-49 -275c45 37 112 82 190 82c84 0 169 -48 169 -184c0 -208 -95 -363 -237 -363c-88 0 -149 51 -189 88l-13 -77h-62zM700 482c-73 0 -135 -44 -191 -90l-46 -260c44 -46 103 -89 170 -89c114 0 181 152 181 303c0 85 -37 136 -114 136zM70 475l10 50
h70l16 88c14 84 48 116 114 116c40 0 101 -19 123 -27l-26 -45c-19 6 -66 17 -87 17c-41 0 -55 -27 -61 -61l-16 -88h143l-8 -50h-144l-81 -466c-25 -142 -31 -175 -195 -217l-15 51c123 36 128 56 146 164l82 468h-71z" />
    <glyph glyph-name="f_f_j" unicode="ffj" horiz-adv-x="928" 
d="M70 475l10 50h70l16 88c14 84 47 116 118 116c48 0 124 -24 149 -34l-27 -44c-21 7 -87 23 -116 23c-41 0 -55 -27 -61 -61l-16 -88h141l-9 -50h-141l-81 -466c-25 -142 -31 -175 -195 -217l-15 51c123 36 128 56 146 164l82 468h-71zM417 475l9 50h71l16 88
c14 84 48 116 114 116c39 0 100 -19 123 -27l-26 -45c-20 6 -66 17 -87 17c-41 0 -55 -27 -62 -61l-16 -88h144l-8 -50h-144l-81 -466c-25 -142 -31 -175 -195 -217l-15 51c122 36 127 56 146 164l82 468h-71zM880 525l-99 -556c-18 -102 -23 -135 -188 -177l-15 51
c123 36 128 55 140 124l100 558h62zM833 639l16 87h71l-15 -87h-72z" />
    <glyph glyph-name="f_f_k" unicode="ffk" horiz-adv-x="1197" 
d="M1187 525l-216 -214l155 -311h-64l-134 268l-114 -113l-27 -155h-62l129 729h62l-87 -493l282 289h76zM70 475l10 50h70l16 88c14 84 47 116 118 116c48 0 124 -24 149 -34l-27 -44c-21 7 -87 23 -116 23c-41 0 -55 -27 -61 -61l-16 -88h141l-9 -50h-141l-81 -466
c-25 -142 -31 -175 -195 -217l-15 51c123 36 128 56 146 164l82 468h-71zM417 475l9 50h71l16 88c14 84 48 116 114 116c39 0 100 -19 123 -27l-26 -45c-20 6 -66 17 -87 17c-41 0 -55 -27 -62 -61l-16 -88h144l-8 -50h-144l-81 -466c-25 -142 -31 -175 -195 -217l-15 51
c122 36 127 56 146 164l82 468h-71z" />
    <glyph glyph-name="f_f_t" unicode="fft" horiz-adv-x="1054" 
d="M70 475l10 50h70l16 88c14 84 47 116 118 116c48 0 124 -24 149 -34l-27 -44c-21 7 -87 23 -116 23c-41 0 -55 -27 -61 -61l-16 -88h141l-9 -50h-141l-81 -466c-25 -142 -31 -175 -195 -217l-15 51c123 36 128 56 146 164l82 468h-71zM417 475l9 50h71l16 88
c14 84 46 116 118 116c48 0 124 -24 149 -34l-29 -44c-21 7 -86 23 -114 23c-41 0 -55 -27 -62 -61l-16 -88h142l-9 -50h-141l-81 -466c-25 -142 -31 -175 -195 -217l-15 51c122 36 127 56 146 164l82 468h-71zM757 475l9 50h72l24 132l66 20l-27 -152h144l-9 -50h-144
l-67 -373c-8 -45 10 -58 40 -58c31 0 86 21 109 30l17 -51c-21 -9 -95 -34 -135 -34c-55 0 -108 27 -91 123l64 363h-72z" />
    <glyph glyph-name="f_h" unicode="fh" horiz-adv-x="939" 
d="M569 729l-50 -279c40 28 139 86 227 86c105 0 140 -71 123 -164l-65 -372h-63l65 366c12 65 0 117 -75 117c-77 0 -181 -62 -222 -94l-69 -389h-62l129 729h62zM70 475l10 50h70l16 88c14 84 48 116 114 116c40 0 101 -19 123 -27l-26 -45c-19 6 -66 17 -87 17
c-41 0 -55 -27 -61 -61l-16 -88h143l-8 -50h-144l-81 -466c-25 -142 -31 -175 -195 -217l-15 51c123 36 128 56 146 164l82 468h-71z" />
    <glyph glyph-name="f_j" unicode="fj" horiz-adv-x="581" 
d="M70 475l10 50h70l16 88c14 84 48 116 114 116c40 0 101 -19 123 -27l-26 -45c-19 6 -66 17 -87 17c-41 0 -55 -27 -61 -61l-16 -88h143l-8 -50h-144l-81 -466c-25 -142 -31 -175 -195 -217l-15 51c123 36 128 56 146 164l82 468h-71zM533 525l-99 -556
c-18 -102 -23 -135 -187 -177l-15 51c123 36 128 55 140 124l99 558h62zM487 639l15 87h71l-14 -87h-72z" />
    <glyph glyph-name="f_k" unicode="fk" horiz-adv-x="850" 
d="M841 525l-216 -214l154 -311h-63l-134 267l-115 -113l-27 -154h-62l129 729h62l-87 -493l282 289h77zM70 475l10 50h70l16 88c14 84 48 116 114 116c40 0 101 -19 123 -27l-26 -45c-19 6 -66 17 -87 17c-41 0 -55 -27 -61 -61l-16 -88h143l-8 -50h-144l-81 -466
c-25 -142 -31 -175 -195 -217l-15 51c123 36 128 56 146 164l82 468h-71z" />
    <glyph glyph-name="f_t" unicode="ft" horiz-adv-x="708" 
d="M70 475l10 50h70l16 88c14 84 47 116 118 116c48 0 124 -24 149 -34l-29 -44c-20 7 -86 23 -114 23c-41 0 -55 -27 -61 -61l-16 -88h141l-9 -50h-141l-81 -466c-25 -142 -31 -175 -195 -217l-15 51c123 36 128 56 146 164l82 468h-71zM411 475l9 50h71l24 132l66 20
l-27 -152h144l-9 -50h-144l-67 -373c-7 -45 11 -58 41 -58s86 21 108 30l17 -51c-21 -9 -94 -34 -134 -34c-56 0 -109 27 -92 123l64 363h-71z" />
    <glyph glyph-name=".notdef" horiz-adv-x="269" 
 />
    <glyph glyph-name="space" unicode=" " horiz-adv-x="285" 
 />
    <glyph glyph-name="exclam" unicode="!" horiz-adv-x="259" 
d="M38 0l17 103h78l-17 -103h-78zM237 700l-105 -496h-40l70 496h75z" />
    <glyph glyph-name="quotedbl" unicode="&#x22;" horiz-adv-x="396" 
d="M394 700l-59 -255h-44l32 255h71zM213 700l-57 -255h-46l32 255h71z" />
    <glyph glyph-name="numbersign" unicode="#" horiz-adv-x="749" 
d="M369 0l61 186h-204l-61 -186h-56l61 186h-138l9 52h146l74 223h-138l9 52h147l62 187h55l-62 -187h205l62 187h54l-62 -187h141l-9 -52h-149l-74 -223h140l-8 -52h-150l-61 -186h-54zM317 461l-74 -223h204l74 223h-204z" />
    <glyph glyph-name="dollar" unicode="$" horiz-adv-x="602" 
d="M256 -100h-51l16 93c-85 12 -161 51 -208 82l38 48c45 -28 110 -62 180 -74l51 288c-95 39 -176 75 -176 182c0 121 107 192 236 192h6l16 90h51l-17 -94c72 -11 138 -39 185 -66l-37 -45c-45 24 -104 45 -158 54l-47 -263c98 -40 188 -82 188 -196
c0 -133 -122 -202 -250 -202h-8zM464 184c0 72 -59 104 -135 135l-48 -273c100 1 183 52 183 138zM175 523c0 -64 43 -87 119 -118l44 249c-86 -1 -163 -46 -163 -131z" />
    <glyph glyph-name="percent" unicode="%" horiz-adv-x="983" 
d="M277 711c106 0 168 -60 168 -155c0 -128 -78 -220 -192 -220c-106 0 -169 60 -169 155c0 128 81 220 193 220zM255 382c81 0 134 83 134 172c0 59 -24 111 -112 111c-82 0 -136 -83 -136 -172c0 -59 24 -111 114 -111zM749 364c105 0 168 -60 168 -155
c0 -128 -79 -220 -193 -220c-106 0 -169 60 -169 155c0 128 81 220 194 220zM727 35c80 0 133 83 133 172c0 59 -24 111 -111 111c-83 0 -137 -83 -137 -172c0 -59 24 -111 115 -111zM775 700l-489 -700h-60l489 700h60z" />
    <glyph glyph-name="ampersand" unicode="&#x26;" horiz-adv-x="684" 
d="M625 0h-76l-74 91c-62 -59 -141 -102 -235 -102c-107 0 -187 56 -187 161c0 112 93 176 188 232c-39 51 -67 97 -67 163c0 116 94 166 177 166c75 0 150 -41 150 -132c0 -94 -85 -153 -175 -209l151 -187c45 59 78 128 97 186h66c-19 -63 -60 -156 -125 -234zM242 43
c77 0 143 39 196 94l-163 202c-83 -52 -157 -106 -157 -186c0 -51 28 -110 124 -110zM236 544c0 -56 29 -99 56 -132c79 47 148 94 148 166c0 47 -30 80 -90 80c-76 0 -114 -51 -114 -114z" />
    <glyph glyph-name="quotesingle" unicode="'" horiz-adv-x="216" 
d="M213 700l-57 -255h-46l32 255h71z" />
    <glyph glyph-name="parenleft" unicode="(" horiz-adv-x="300" 
d="M38 26l115 643c16 94 29 130 187 170l15 -49c-114 -33 -126 -52 -138 -121l-114 -642c-14 -83 -14 -90 85 -124l-20 -46c-146 41 -146 78 -130 169z" />
    <glyph glyph-name="parenright" unicode=")" horiz-adv-x="301" 
d="M278 669l-114 -643c-17 -93 -30 -129 -188 -169l-14 48c112 33 125 53 137 122l114 642c15 83 14 90 -85 124l20 46c145 -41 147 -78 130 -170z" />
    <glyph glyph-name="asterisk" unicode="*" horiz-adv-x="483" 
d="M218 344l42 151l-145 -67l-21 56l154 39l-130 91l40 46l111 -115l12 155l58 -10l-41 -150l143 68l20 -57l-154 -39l131 -91l-39 -45l-110 113l-13 -154z" />
    <glyph glyph-name="plus" unicode="+" horiz-adv-x="607" 
d="M320 557h55l-35 -198h220l-8 -52h-221l-35 -197h-54l34 197h-218l9 52h218z" />
    <glyph glyph-name="comma" unicode="," horiz-adv-x="238" 
d="M28 0l18 106h77l-8 -110l-91 -122l-20 25l61 101h-37z" />
    <glyph glyph-name="hyphen" unicode="-" horiz-adv-x="433" 
d="M345 256h-271l10 57h271z" />
    <glyph glyph-name="period" unicode="." horiz-adv-x="237" 
d="M28 0l19 106h78l-18 -106h-79z" />
    <glyph glyph-name="slash" unicode="/" horiz-adv-x="451" 
d="M506 790l-486 -880h-57l485 880h58z" />
    <glyph glyph-name="zero" unicode="0" horiz-adv-x="658" 
d="M373 711c173 0 231 -138 231 -265c0 -177 -81 -457 -301 -457c-174 0 -231 138 -231 265c0 177 81 457 301 457zM302 44c179 0 236 278 236 409c0 89 -30 203 -164 203c-179 0 -237 -278 -236 -409c0 -89 30 -203 164 -203z" />
    <glyph glyph-name="one" unicode="1" horiz-adv-x="350" 
d="M192 0h-65l112 628l-134 -67l-23 51l176 88h58z" />
    <glyph glyph-name="two" unicode="2" horiz-adv-x="570" 
d="M461 57l-9 -57h-448l9 51c27 155 137 211 271 292c107 65 200 127 199 212c-1 58 -46 99 -128 99c-79 0 -157 -38 -194 -62l-27 48c51 33 128 71 222 71c116 0 193 -57 193 -158c0 -136 -151 -212 -293 -299c-101 -61 -154 -104 -171 -197h376z" />
    <glyph glyph-name="three" unicode="3" horiz-adv-x="584" 
d="M3 62l37 47c21 -16 91 -63 191 -63c121 0 204 69 204 161c0 101 -98 149 -201 149h-31l10 58h36c104 0 215 66 215 150c0 55 -47 90 -122 90c-73 0 -143 -34 -181 -58l-23 48c22 15 109 67 212 67c114 0 180 -64 180 -142c0 -68 -50 -146 -173 -186
c78 -16 144 -86 144 -177c0 -111 -92 -217 -269 -217c-114 0 -190 47 -229 73z" />
    <glyph glyph-name="four" unicode="4" horiz-adv-x="612" 
d="M344 0l28 161h-357l9 52l424 487h85l-86 -482h107l-10 -57h-107l-28 -161h-65zM99 218h283l73 412z" />
    <glyph glyph-name="five" unicode="5" horiz-adv-x="574" 
d="M96 357l97 343h361l-9 -57h-309l-61 -232c34 16 74 29 125 29c126 0 201 -87 201 -201c0 -136 -107 -250 -275 -250c-106 0 -173 46 -212 73l37 45c16 -12 86 -60 171 -60c99 0 211 68 211 192c0 85 -51 145 -147 145c-68 0 -124 -30 -155 -47z" />
    <glyph glyph-name="six" unicode="6" horiz-adv-x="613" 
d="M485 655c-158 0 -290 -128 -338 -291c28 29 95 82 195 82c137 0 203 -99 203 -195c0 -132 -92 -262 -258 -262c-155 0 -224 122 -224 239c0 264 187 483 420 483c57 0 97 -14 97 -14l-25 -51s-29 9 -70 9zM334 392c-100 0 -183 -73 -205 -119c-2 -15 -2 -30 -2 -45
c0 -89 51 -183 158 -183c121 0 194 99 194 205c0 68 -44 142 -145 142z" />
    <glyph glyph-name="seven" unicode="7" horiz-adv-x="496" 
d="M531 651c0 0 -314 -322 -372 -651h-71c54 303 330 612 359 643h-355l9 57h437z" />
    <glyph glyph-name="eight" unicode="8" horiz-adv-x="623" 
d="M39 161c0 126 121 188 210 219c-50 25 -102 67 -102 148c0 112 102 183 229 183c115 0 193 -60 193 -153c0 -106 -102 -158 -173 -184c68 -32 145 -83 145 -180c0 -125 -133 -205 -281 -205c-127 0 -221 59 -221 172zM473 195c0 81 -83 127 -153 155
c-98 -31 -214 -81 -214 -187c0 -78 63 -119 152 -119c109 0 215 60 215 151zM211 524c0 -71 70 -104 112 -120c87 27 181 67 181 147c0 58 -50 106 -128 106c-89 0 -165 -60 -165 -133z" />
    <glyph glyph-name="nine" unicode="9" horiz-adv-x="613" 
d="M144 45c158 0 289 127 338 290c-29 -29 -95 -81 -195 -81c-137 0 -202 99 -202 195c0 132 92 262 257 262c155 0 224 -122 224 -239c0 -264 -186 -483 -419 -483c-57 0 -97 14 -97 14l25 51s29 -9 69 -9zM295 308c98 0 180 70 204 116c2 16 3 32 3 48
c0 89 -50 183 -157 183c-122 0 -194 -99 -194 -205c0 -68 43 -142 144 -142z" />
    <glyph glyph-name="colon" unicode=":" horiz-adv-x="243" 
d="M91 349l18 106h79l-19 -106h-78zM29 0l19 106h77l-17 -106h-79z" />
    <glyph glyph-name="semicolon" unicode=";" horiz-adv-x="258" 
d="M98 349l18 106h78l-17 -106h-79zM36 0l18 106h77l-8 -110l-91 -122l-20 25l61 101h-37z" />
    <glyph glyph-name="less" unicode="&#x3c;" horiz-adv-x="607" 
d="M45 309l8 50l529 211l-9 -66l-453 -174l389 -174l-10 -59z" />
    <glyph glyph-name="equal" unicode="=" horiz-adv-x="607" 
d="M73 397l7 52h494l-7 -52h-494zM41 219l10 53h493l-9 -53h-494z" />
    <glyph glyph-name="greater" unicode="&#x3e;" horiz-adv-x="607" 
d="M574 359l-8 -50l-530 -212l10 67l453 173l-390 175l10 58z" />
    <glyph glyph-name="question" unicode="?" horiz-adv-x="500" 
d="M115 0l17 103h78l-18 -103h-77zM495 563c0 -121 -119 -188 -250 -218l-31 -141h-49l24 180c127 27 241 77 241 175c0 68 -54 95 -119 95c-69 0 -128 -30 -187 -62l-28 48c49 30 128 71 219 71c90 0 180 -42 180 -148z" />
    <glyph glyph-name="at" unicode="@" horiz-adv-x="967" 
d="M402 -138c121 0 196 48 196 48l23 -35s-85 -54 -221 -54c-218 0 -350 161 -350 365c0 253 191 500 514 500c267 0 383 -180 344 -419c-27 -153 -98 -287 -234 -287c-95 0 -103 70 -99 117c-40 -32 -105 -73 -180 -73c-66 0 -123 49 -123 120c0 124 85 177 171 177
c59 0 131 -21 166 -28c3 21 7 41 11 60c12 71 -3 104 -80 104c-51 0 -116 -23 -167 -44l-17 47c63 26 138 44 190 44c92 0 146 -42 128 -146l-38 -213c-10 -56 -21 -121 51 -121c51 0 149 63 179 243c34 209 -52 378 -306 378c-286 0 -465 -221 -465 -458
c0 -185 112 -325 307 -325zM584 152c4 27 11 65 18 106c-31 5 -91 20 -139 20c-102 0 -134 -70 -134 -127s34 -80 83 -80c53 0 122 39 172 81z" />
    <glyph glyph-name="A" unicode="A" horiz-adv-x="672" 
d="M523 0l-35 182h-335l-99 -182h-75l393 700h72l147 -700h-68zM400 636l-217 -398h294z" />
    <glyph glyph-name="B" unicode="B" horiz-adv-x="668" 
d="M589 215c0 -133 -94 -215 -256 -215h-282l123 700h228c132 0 208 -61 208 -154c0 -112 -97 -167 -157 -175c48 -8 136 -48 136 -156zM525 219c0 80 -68 122 -161 122h-188l-51 -286h207c128 0 193 75 193 164zM545 541c0 60 -45 104 -148 104h-167l-44 -250h177
c75 0 182 45 182 146z" />
    <glyph glyph-name="C" unicode="C" horiz-adv-x="645" 
d="M654 603l-41 -44c-72 58 -130 93 -200 93c-148 0 -273 -157 -273 -376c0 -162 68 -228 154 -228c71 0 163 44 237 94l32 -51c-82 -51 -178 -102 -277 -102c-118 0 -214 78 -214 285c0 270 159 437 337 437c106 0 181 -58 245 -108z" />
    <glyph glyph-name="D" unicode="D" horiz-adv-x="698" 
d="M646 440c0 -257 -158 -440 -403 -440h-192l123 700h174c177 0 298 -82 298 -260zM579 439c0 149 -95 204 -245 204h-104l-104 -586h109c198 0 344 138 344 382z" />
    <glyph glyph-name="E" unicode="E" horiz-adv-x="592" 
d="M481 0h-430l123 700h424l-9 -57h-360l-46 -265h297l-10 -56h-297l-47 -265h365z" />
    <glyph glyph-name="F" unicode="F" horiz-adv-x="566" 
d="M589 643h-360l-46 -265h286l-9 -57h-287l-57 -321h-65l123 700h424z" />
    <glyph glyph-name="G" unicode="G" horiz-adv-x="701" 
d="M507 0l16 89c-66 -50 -147 -100 -237 -100c-118 0 -214 84 -214 275c0 300 168 447 334 447c109 0 197 -65 257 -117l-43 -43c-44 36 -121 101 -210 101c-147 0 -269 -154 -269 -378c0 -141 53 -228 152 -228c92 0 199 78 242 113l29 161h-200l9 55h263l-66 -375h-63z
" />
    <glyph glyph-name="H" unicode="H" horiz-adv-x="706" 
d="M485 0l59 339h-369l-59 -339h-65l123 700h65l-54 -305h369l54 305h65l-123 -700h-65z" />
    <glyph glyph-name="I" unicode="I" horiz-adv-x="272" 
d="M116 0h-65l123 700h65z" />
    <glyph glyph-name="J" unicode="J" horiz-adv-x="272" 
d="M240 700l-117 -661c-19 -102 -23 -135 -188 -177l-17 54c122 35 128 53 139 121l118 663h65z" />
    <glyph glyph-name="K" unicode="K" horiz-adv-x="640" 
d="M51 0l123 700h65l-72 -408l410 408h84l-343 -339l253 -361h-74l-222 319l-125 -123l-34 -196h-65z" />
    <glyph glyph-name="L" unicode="L" horiz-adv-x="539" 
d="M464 0h-413l123 700h65l-114 -643h348z" />
    <glyph glyph-name="M" unicode="M" horiz-adv-x="834" 
d="M614 0l102 582l-306 -465h-46l-143 479l-105 -596h-65l123 700h69l153 -510l337 510h69l-123 -700h-65z" />
    <glyph glyph-name="N" unicode="N" horiz-adv-x="722" 
d="M242 700l274 -611l108 611h65l-123 -700h-68l-275 612l-107 -612h-65l123 700h68z" />
    <glyph glyph-name="O" unicode="O" horiz-adv-x="742" 
d="M414 711c200 0 273 -129 274 -293c1 -180 -105 -429 -344 -429c-201 0 -273 128 -273 292c-1 181 104 430 343 430zM343 46c195 0 278 230 278 373c0 105 -30 234 -205 234c-196 0 -279 -230 -279 -373c0 -105 31 -234 206 -234z" />
    <glyph glyph-name="P" unicode="P" horiz-adv-x="638" 
d="M631 519c0 -160 -124 -239 -288 -239h-177l-50 -280h-65l123 700h228c128 0 229 -48 229 -181zM563 519c0 91 -68 124 -159 124h-174l-54 -306h166c119 0 221 54 221 182z" />
    <glyph glyph-name="Q" unicode="Q" horiz-adv-x="741" 
d="M414 711c200 0 273 -129 274 -293c1 -165 -88 -388 -287 -424l105 -101l-50 -42l-124 138c-192 5 -261 131 -261 292c-1 181 104 430 343 430zM343 46c195 0 278 230 278 373c0 105 -30 234 -205 234c-196 0 -279 -230 -279 -373c0 -105 31 -234 206 -234z" />
    <glyph glyph-name="R" unicode="R" horiz-adv-x="677" 
d="M495 0l-133 305h-192l-54 -305h-65l123 700h255c128 0 227 -48 227 -172c0 -135 -104 -208 -234 -221l141 -307h-68zM587 527c0 85 -67 117 -160 117h-197l-51 -283h193c129 0 215 56 215 166z" />
    <glyph glyph-name="S" unicode="S" horiz-adv-x="605" 
d="M338 389c100 -40 194 -82 194 -198c0 -133 -123 -202 -251 -202c-107 0 -208 48 -266 86l38 48c55 -34 140 -77 228 -77c101 0 185 52 185 138s-83 115 -181 153c-95 39 -176 75 -176 182c0 121 106 192 236 192c92 0 182 -36 241 -70l-38 -45c-58 32 -141 58 -205 58
c-87 0 -166 -45 -166 -131c0 -75 59 -93 161 -134z" />
    <glyph glyph-name="T" unicode="T" horiz-adv-x="561" 
d="M596 643h-223l-113 -643h-66l114 643h-222l9 57h510z" />
    <glyph glyph-name="U" unicode="U" horiz-adv-x="696" 
d="M669 700l-80 -457c-25 -139 -103 -254 -294 -254s-233 112 -207 262l79 449h66l-81 -453c-20 -111 -6 -200 143 -200s209 89 229 200l80 453h65z" />
    <glyph glyph-name="V" unicode="V" horiz-adv-x="669" 
d="M167 700l122 -632l342 632h78l-392 -700h-73l-147 700h70z" />
    <glyph glyph-name="W" unicode="W" horiz-adv-x="924" 
d="M566 0l-50 610l-268 -610h-73l-68 700h70l47 -619l273 619h66l49 -625l267 625h75l-315 -700h-73z" />
    <glyph glyph-name="X" unicode="X" horiz-adv-x="608" 
d="M111 700h70l135 -308l244 308h79l-292 -354l181 -346h-72l-146 303l-251 -303h-83l303 347z" />
    <glyph glyph-name="Y" unicode="Y" horiz-adv-x="620" 
d="M222 0l49 279l-181 421h69l149 -372l279 372h78l-330 -423l-48 -277h-65z" />
    <glyph glyph-name="Z" unicode="Z" horiz-adv-x="607" 
d="M-10 0l10 53l528 590h-402l10 57h486l-9 -53l-531 -590h431l-9 -57h-514z" />
    <glyph glyph-name="bracketleft" unicode="[" horiz-adv-x="333" 
d="M217 -144h-201l173 983h201l-8 -49h-136l-156 -885h136z" />
    <glyph glyph-name="backslash" unicode="\" horiz-adv-x="437" 
d="M289 -90l-178 880h52l178 -880h-52z" />
    <glyph glyph-name="bracketright" unicode="]" horiz-adv-x="334" 
d="M161 -144h-201l8 49h136l156 885h-136l9 49h201z" />
    <glyph glyph-name="asciicircum" unicode="^" horiz-adv-x="607" 
d="M472 354l-102 293l-201 -293h-75l250 346h64l131 -346h-67z" />
    <glyph glyph-name="underscore" unicode="_" horiz-adv-x="701" 
d="M544 -136h-540l8 50h540z" />
    <glyph glyph-name="grave" unicode="`" horiz-adv-x="215" 
d="M322 601h-49l-144 128h91z" />
    <glyph glyph-name="a" unicode="a" horiz-adv-x="598" 
d="M458 0h-63l15 85c-47 -44 -123 -96 -208 -96c-75 0 -153 47 -153 184c0 208 99 363 245 363c80 0 141 -51 180 -88l14 77h63zM213 42c82 0 148 52 208 106l43 245c-41 45 -97 89 -161 89c-119 0 -189 -152 -189 -303c0 -84 34 -137 99 -137z" />
    <glyph glyph-name="b" unicode="b" horiz-adv-x="595" 
d="M34 0l129 729h62l-49 -275c45 37 112 82 190 82c84 0 169 -48 169 -184c0 -208 -95 -363 -237 -363c-88 0 -149 51 -189 88l-13 -77h-62zM356 482c-73 0 -135 -45 -191 -91l-46 -260c43 -46 102 -88 170 -88c113 0 181 152 181 303c0 85 -37 136 -114 136z" />
    <glyph glyph-name="c" unicode="c" horiz-adv-x="517" 
d="M505 459l-36 -42c-23 15 -84 64 -151 64c-104 0 -205 -112 -205 -268c0 -106 44 -169 126 -169c66 0 143 49 172 64l27 -51c-44 -22 -126 -68 -208 -68c-107 0 -182 81 -182 218c0 212 136 329 262 329c89 0 159 -52 195 -77z" />
    <glyph glyph-name="d" unicode="d" horiz-adv-x="598" 
d="M458 0h-63l15 85c-47 -44 -123 -96 -208 -96c-75 0 -153 47 -153 184c0 208 99 363 245 363c80 0 141 -51 180 -88l50 281h63zM213 42c81 0 148 52 208 106l43 245c-41 45 -97 89 -161 89c-119 0 -189 -152 -189 -303c0 -84 34 -137 99 -137z" />
    <glyph glyph-name="e" unicode="e" horiz-adv-x="554" 
d="M508 402c0 -111 -109 -173 -335 -173h-62v-15c0 -110 48 -173 134 -173c77 0 159 51 197 73l27 -47c-45 -25 -136 -78 -230 -78c-114 0 -192 77 -192 228c0 183 117 319 289 319c113 0 172 -59 172 -134zM333 485c-108 0 -195 -87 -217 -210h64c182 0 264 50 264 127
c0 53 -48 83 -111 83z" />
    <glyph glyph-name="f" unicode="f" horiz-adv-x="344" 
d="M70 475l9 50h71l16 88c14 84 46 116 118 116c48 0 124 -24 149 -34l-29 -44c-21 7 -86 23 -114 23c-41 0 -55 -27 -62 -61l-16 -88h144l-8 -50h-144l-81 -466c-25 -142 -31 -175 -195 -217l-15 51c122 36 127 56 146 164l82 468h-71z" />
    <glyph glyph-name="g" unicode="g" 
d="M487 525h62l-99 -566c-24 -137 -113 -173 -220 -173c-67 0 -157 15 -227 36l22 56c73 -23 138 -38 205 -38c110 0 148 68 157 120l22 124c-48 -43 -123 -95 -207 -95c-75 0 -153 47 -153 184c0 208 99 363 245 363c80 0 140 -51 179 -89zM213 42c81 0 146 52 207 107
l44 245c-42 45 -99 88 -161 88c-119 0 -190 -152 -190 -303c0 -84 34 -137 100 -137z" />
    <glyph glyph-name="h" unicode="h" 
d="M225 729l-50 -279c40 28 139 86 226 86c106 0 141 -71 124 -164l-65 -372h-63l65 366c12 65 0 117 -75 117c-77 0 -181 -62 -222 -94l-69 -389h-62l129 729h62z" />
    <glyph glyph-name="i" unicode="i" horiz-adv-x="237" 
d="M96 0h-62l93 525h62zM143 639l15 87h71l-14 -87h-72z" />
    <glyph glyph-name="j" unicode="j" horiz-adv-x="237" 
d="M143 639l16 87h71l-15 -87h-72zM190 525l-99 -556c-19 -102 -23 -135 -188 -177l-15 51c123 36 128 55 140 124l100 558h62z" />
    <glyph glyph-name="k" unicode="k" horiz-adv-x="506" 
d="M497 525l-216 -214l154 -311h-63l-134 267l-115 -113l-27 -154h-62l129 729h62l-87 -493l282 289h77z" />
    <glyph glyph-name="l" unicode="l" horiz-adv-x="248" 
d="M103 0h-63l129 729h63z" />
    <glyph glyph-name="m" unicode="m" horiz-adv-x="908" 
d="M189 525l-14 -80c43 36 123 91 202 91c84 0 119 -47 125 -102c39 35 126 102 214 102c110 0 137 -75 122 -163l-66 -373h-63l66 366c11 62 -1 117 -72 117c-74 0 -159 -64 -204 -105l-66 -378h-62l65 366c12 62 0 117 -72 117c-73 0 -155 -62 -201 -103l-67 -380h-62
l93 525h62z" />
    <glyph glyph-name="n" unicode="n" 
d="M189 525l-14 -75c40 28 139 86 226 86c106 0 141 -71 124 -164l-65 -372h-63l65 366c12 65 0 117 -75 117c-77 0 -181 -62 -222 -94l-69 -389h-62l93 525h62z" />
    <glyph glyph-name="o" unicode="o" horiz-adv-x="601" 
d="M313 536c146 0 227 -86 227 -225c0 -180 -108 -322 -265 -322c-146 0 -227 86 -227 225c0 180 108 322 265 322zM274 42c127 0 202 132 202 269c0 98 -44 172 -162 172c-127 0 -202 -132 -202 -269c0 -99 44 -172 162 -172z" />
    <glyph glyph-name="p" unicode="p" horiz-adv-x="595" 
d="M-2 -204l129 729h62l-13 -71c45 37 112 82 189 82c85 0 169 -48 169 -184c0 -208 -94 -363 -237 -363c-87 0 -147 50 -188 87l-49 -280h-62zM355 482c-73 0 -134 -44 -190 -90l-46 -260c43 -46 102 -89 169 -89c115 0 182 152 182 303c0 85 -38 136 -115 136z" />
    <glyph glyph-name="q" unicode="q" horiz-adv-x="598" 
d="M422 -204h-63l51 289c-47 -44 -123 -96 -208 -96c-75 0 -153 47 -153 184c0 208 99 363 245 363c80 0 141 -51 180 -88l14 77h63zM213 42c81 0 148 52 208 106l43 245c-41 45 -97 89 -161 89c-119 0 -189 -152 -189 -303c0 -84 34 -137 99 -137z" />
    <glyph glyph-name="r" unicode="r" horiz-adv-x="374" 
d="M189 525l-20 -113c9 16 82 129 219 119l-11 -60c-167 0 -226 -167 -226 -167l-55 -304h-62l93 525h62z" />
    <glyph glyph-name="s" unicode="s" horiz-adv-x="506" 
d="M264 295c100 -35 164 -65 164 -151c0 -103 -95 -155 -202 -155c-90 0 -172 39 -218 68l35 43c48 -28 117 -59 182 -59c69 0 139 33 139 99c0 63 -64 79 -138 103c-71 23 -150 52 -150 144c0 96 88 149 191 149c78 0 156 -32 198 -57l-33 -43c-45 25 -106 48 -164 48
c-70 0 -129 -33 -129 -92c0 -62 66 -77 125 -97z" />
    <glyph glyph-name="t" unicode="t" horiz-adv-x="361" 
d="M63 475l9 50h72l24 132l65 20l-27 -152h145l-9 -50h-145l-66 -373c-8 -45 10 -58 40 -58c31 0 86 21 109 30l17 -51c-21 -9 -95 -34 -135 -34c-55 0 -108 27 -91 123l64 363h-72z" />
    <glyph glyph-name="u" unicode="u" 
d="M393 0l13 74c-41 -29 -138 -85 -225 -85c-106 0 -140 71 -124 164l66 372h62l-65 -366c-11 -65 1 -117 75 -117c79 0 181 61 221 92l70 391h62l-93 -525h-62z" />
    <glyph glyph-name="v" unicode="v" horiz-adv-x="542" 
d="M247 0h-63l-114 525h65l90 -458l252 458h72z" />
    <glyph glyph-name="w" unicode="w" horiz-adv-x="797" 
d="M479 0l-53 448l-216 -448h-64l-71 525h65l50 -457l216 457h61l50 -459l213 459h69l-256 -525h-64z" />
    <glyph glyph-name="x" unicode="x" horiz-adv-x="561" 
d="M413 0l-139 226l-217 -226h-86l267 264l-163 261h70l130 -222l208 222h83l-257 -260l175 -265h-71z" />
    <glyph glyph-name="y" unicode="y" horiz-adv-x="544" 
d="M-11 -154c113 36 143 60 197 155l-116 524h65l93 -449l252 449h71l-302 -525c-71 -123 -89 -163 -244 -208z" />
    <glyph glyph-name="z" unicode="z" horiz-adv-x="494" 
d="M-8 0l9 51l396 420h-311l9 54h391l-8 -51l-395 -420h320l-10 -54h-401z" />
    <glyph glyph-name="braceleft" unicode="{" horiz-adv-x="390" 
d="M37 316l11 64c93 -1 118 78 119 126l3 94c6 149 73 239 257 239h23l-9 -49h-18c-138 0 -178 -81 -185 -176l-4 -97c-4 -101 -46 -154 -129 -171c61 -16 104 -64 72 -169l-28 -92c-29 -94 -35 -179 117 -179h18l-7 -49h-19c-169 0 -221 92 -176 241l29 92
c30 98 -10 126 -74 126z" />
    <glyph glyph-name="bar" unicode="|" horiz-adv-x="243" 
d="M73 -123h-53l166 941h53z" />
    <glyph glyph-name="braceright" unicode="}" horiz-adv-x="389" 
d="M370 380l-11 -64c-93 1 -119 -78 -121 -126l-3 -94c-5 -149 -71 -239 -255 -239h-23l8 49h18c138 0 179 81 184 176l4 97c5 100 46 154 130 170c-62 17 -104 64 -72 170l28 92c28 94 35 179 -117 179h-19l9 49h18c169 0 221 -92 175 -241l-29 -92
c-30 -98 10 -126 76 -126z" />
    <glyph glyph-name="asciitilde" unicode="~" horiz-adv-x="607" 
d="M75 211l-48 21c51 78 105 107 163 107c98 0 149 -75 228 -75c30 0 63 12 105 70l48 -21c-51 -77 -105 -106 -163 -106c-99 0 -149 74 -228 74c-30 0 -62 -11 -105 -70z" />
    <glyph glyph-name="uni00A0" unicode="&#xa0;" horiz-adv-x="285" 
 />
    <glyph glyph-name="exclamdown" unicode="&#xa1;" horiz-adv-x="261" 
d="M144 597l17 103h79l-18 -103h-78zM185 496l-70 -496h-75l105 496h40z" />
    <glyph glyph-name="cent" unicode="&#xa2;" horiz-adv-x="557" 
d="M277 0h-52l13 77c-99 8 -166 87 -166 218c0 212 136 329 262 329l14 76h52l-14 -82c69 -15 122 -57 153 -79l-35 -42c-21 15 -70 55 -128 68l-75 -429c59 13 120 51 144 65l27 -50c-40 -21 -108 -61 -181 -72zM137 301c0 -100 38 -161 111 -169l76 436
c-97 -12 -187 -120 -187 -267z" />
    <glyph glyph-name="sterling" unicode="&#xa3;" horiz-adv-x="546" 
d="M71 262l9 49h105c-5 76 -55 126 -55 207c0 114 84 193 213 193c92 0 159 -43 208 -72l-37 -44c-58 34 -114 59 -168 59c-96 0 -153 -67 -153 -137c0 -82 52 -123 56 -206h165l-9 -49h-160c-19 -104 -108 -180 -137 -205h326l-9 -57h-411l8 48s136 95 160 214h-111z" />
    <glyph glyph-name="yen" unicode="&#xa5;" horiz-adv-x="650" 
d="M97 301l7 48h154l-151 351h69l150 -373l279 373h77l-273 -351h153l-9 -48h-182l-18 -24l-10 -54h197l-9 -48h-196l-31 -175h-65l31 175h-196l8 48h196l10 55l-10 23h-181z" />
    <glyph glyph-name="brokenbar" unicode="&#xa6;" horiz-adv-x="245" 
d="M167 405h-53l73 413h53zM74 -123h-53l73 413h53z" />
    <glyph glyph-name="section" unicode="&#xa7;" horiz-adv-x="543" 
d="M232 169c-104 34 -165 71 -165 148c0 73 56 118 130 135c-39 22 -67 55 -67 109c0 97 90 150 192 150c79 0 156 -32 198 -57l-33 -43c-45 25 -106 48 -165 48c-71 0 -129 -33 -129 -92c0 -62 66 -77 127 -97c98 -34 162 -66 162 -147c0 -75 -55 -119 -129 -136
c38 -22 67 -55 67 -110c0 -96 -89 -149 -191 -149c-79 0 -156 32 -199 57l33 43c46 -25 107 -48 165 -48c71 0 129 33 129 92c0 62 -65 77 -125 97zM281 418l-15 4c-74 -3 -136 -38 -136 -98c0 -61 64 -79 140 -104l12 -4c72 3 137 35 137 100c0 39 -24 70 -138 102z" />
    <glyph glyph-name="dieresis" unicode="&#xa8;" horiz-adv-x="231" 
d="M105 611l16 87h72l-15 -87h-73zM270 611l15 87h71l-16 -87h-70z" />
    <glyph glyph-name="copyright" unicode="&#xa9;" horiz-adv-x="846" 
d="M75 313c0 212 136 398 382 398c205 0 330 -134 330 -324c0 -212 -136 -398 -383 -398c-204 0 -329 134 -329 324zM114 314c0 -166 108 -287 294 -287c214 0 340 163 340 359c0 166 -108 287 -294 287c-214 0 -340 -163 -340 -359zM608 500l-32 -33c-25 21 -67 56 -129 56
c-87 0 -155 -91 -150 -217c3 -80 38 -129 94 -129c62 0 120 34 149 54l26 -37c-39 -26 -98 -62 -173 -62c-79 0 -143 59 -147 170c-7 170 91 265 202 265c75 0 128 -41 160 -67z" />
    <glyph glyph-name="ordfeminine" unicode="&#xaa;" horiz-adv-x="438" 
d="M371 385h-52l8 47c-29 -25 -75 -54 -126 -54c-50 0 -100 30 -100 115c0 123 63 214 154 214c50 0 88 -30 112 -51l8 44h52zM213 420c49 0 88 29 123 60l24 135c-25 26 -58 50 -96 50c-69 0 -109 -84 -109 -168c0 -47 19 -77 58 -77z" />
    <glyph glyph-name="guillemotleft" unicode="&#xab;" horiz-adv-x="682" 
d="M32 261l7 43l342 225l-12 -72l-275 -181l211 -179l-10 -61zM306 261l8 43l342 225l-13 -72l-275 -181l210 -179l-9 -61z" />
    <glyph glyph-name="logicalnot" unicode="&#xac;" horiz-adv-x="607" 
d="M549 90h-59l38 217h-508l9 52h567z" />
    <glyph glyph-name="registered" unicode="&#xae;" horiz-adv-x="523" 
d="M98 480c0 117 75 220 212 220c113 0 182 -74 182 -180c0 -117 -75 -220 -211 -220c-114 0 -183 74 -183 180zM132 481c0 -85 55 -148 151 -148c111 0 177 84 177 186c0 85 -57 148 -153 148c-111 0 -175 -84 -175 -186zM390 551c0 -33 -26 -57 -62 -63l33 -86h-34l-31 85
h-43l-15 -85h-33l35 201h89c38 0 61 -23 61 -52zM357 551c0 12 -7 22 -29 22h-60l-10 -55h52c31 0 47 15 47 33z" />
    <glyph glyph-name="macron" unicode="&#xaf;" horiz-adv-x="290" 
d="M114 626l8 46h285l-8 -46h-285z" />
    <glyph glyph-name="degree" unicode="&#xb0;" horiz-adv-x="443" 
d="M98 537c0 90 73 163 163 163s163 -73 163 -163s-73 -164 -163 -164s-163 74 -163 164zM143 537c0 -66 53 -119 118 -119s119 53 119 119c0 65 -54 118 -119 118s-118 -53 -118 -118z" />
    <glyph glyph-name="plusminus" unicode="&#xb1;" horiz-adv-x="607" 
d="M314 526h54l-30 -169h221l-8 -52h-222l-30 -171h-54l30 171h-218l9 52h218zM3 0l9 49h493l-8 -49h-494z" />
    <glyph glyph-name="twosuperior" unicode="&#xb2;" horiz-adv-x="385" 
d="M359 430l-8 -45h-293l6 34c15 94 87 128 169 175c68 39 123 73 123 119c-2 31 -28 54 -77 54c-48 0 -95 -22 -121 -38l-21 38c32 20 83 45 146 45c77 0 126 -38 126 -99c0 -82 -94 -128 -180 -177c-63 -36 -93 -58 -103 -106h233z" />
    <glyph glyph-name="threesuperior" unicode="&#xb3;" horiz-adv-x="389" 
d="M56 426l28 36c21 -13 64 -39 124 -39c70 0 117 38 117 87c0 57 -60 81 -123 81h-19l5 46h24c63 0 130 34 130 80c0 31 -28 50 -72 50s-90 -22 -114 -35l-19 38c15 9 72 42 142 42c75 0 118 -39 118 -88c0 -42 -32 -86 -105 -110c48 -10 88 -52 88 -105
c0 -66 -55 -131 -169 -131c-78 0 -130 33 -155 48z" />
    <glyph glyph-name="acute" unicode="&#xb4;" horiz-adv-x="215" 
d="M162 601h-57l137 128h103z" />
    <glyph glyph-name="mu" unicode="&#xb5;" 
d="M68 -204h-63l129 729h63l-68 -384c-7 -57 11 -99 78 -99c78 0 181 61 221 92l70 391h62l-93 -525h-62l13 74c-41 -29 -138 -85 -225 -85c-38 0 -66 9 -87 24z" />
    <glyph glyph-name="paragraph" unicode="&#xb6;" horiz-adv-x="615" 
d="M347 700h59l-156 -885h-59l84 469c-127 0 -205 60 -205 173c0 150 111 243 277 243zM369 -186l156 886h58l-156 -886h-58z" />
    <glyph glyph-name="periodcentered" unicode="&#xb7;" horiz-adv-x="241" 
d="M69 232l18 105h78l-18 -105h-78z" />
    <glyph glyph-name="cedilla" unicode="&#xb8;" horiz-adv-x="167" 
d="M-27 -150l23 41c20 -10 40 -13 54 -13c31 0 63 16 63 59c0 31 -16 65 -16 65h33s27 -35 27 -78c0 -55 -40 -92 -107 -92c-26 0 -54 6 -77 18z" />
    <glyph glyph-name="onesuperior" unicode="&#xb9;" horiz-adv-x="240" 
d="M186 385h-54l66 365l-83 -40l-18 39l115 56h48z" />
    <glyph glyph-name="ordmasculine" unicode="&#xba;" horiz-adv-x="435" 
d="M271 707c94 0 147 -52 147 -136c0 -107 -67 -193 -171 -193c-93 0 -147 52 -147 136c0 106 67 193 171 193zM247 420c76 0 120 74 120 150c0 54 -26 95 -96 95c-76 0 -120 -74 -120 -150c0 -54 26 -95 96 -95z" />
    <glyph glyph-name="guillemotright" unicode="&#xbb;" horiz-adv-x="680" 
d="M291 36l13 71l273 181l-208 180l9 61l262 -225l-6 -43zM17 36l13 71l274 181l-210 180l10 61l262 -225l-7 -43z" />
    <glyph glyph-name="onequarter" unicode="&#xbc;" horiz-adv-x="785" 
d="M359 93l6 39l262 288h69l-50 -283h67l-6 -44h-69l-16 -93h-54l16 93h-225zM613 700l-455 -700h-58l455 700h58zM182 280h-55l66 365l-83 -40l-18 39l115 56h49zM426 137h166l42 232z" />
    <glyph glyph-name="onehalf" unicode="&#xbd;" horiz-adv-x="818" 
d="M714 45l-8 -45h-292l5 34c16 94 87 128 169 175c67 38 122 72 122 118c0 32 -26 55 -76 55c-47 0 -96 -22 -121 -38l-21 38c32 20 82 45 145 45c79 0 127 -38 127 -99c0 -82 -94 -128 -181 -177c-62 -36 -93 -58 -102 -106h233zM182 280h-55l66 365l-83 -40l-18 39
l115 56h49zM613 700l-455 -700h-58l455 700h58z" />
    <glyph glyph-name="threequarters" unicode="&#xbe;" horiz-adv-x="908" 
d="M483 93l5 39l262 288h70l-51 -283h68l-7 -44h-69l-16 -93h-53l16 93h-225zM51 321l28 36c21 -13 64 -39 124 -39c70 0 117 38 117 87c0 57 -61 81 -123 81h-19l5 46h24c63 0 130 34 130 80c0 31 -27 50 -72 50s-90 -22 -114 -35l-19 38c15 9 72 42 142 42
c75 0 118 -39 118 -88c0 -42 -32 -86 -105 -110c48 -10 88 -52 88 -105c0 -66 -55 -131 -169 -131c-79 0 -130 33 -155 48zM737 700l-454 -700h-59l455 700h58zM549 137h167l41 232z" />
    <glyph glyph-name="questiondown" unicode="&#xbf;" horiz-adv-x="498" 
d="M403 700l-18 -103h-78l18 103h78zM22 137c0 121 119 188 251 218l31 141h49l-25 -180c-127 -27 -241 -77 -241 -175c0 -69 55 -95 120 -95c68 0 128 30 186 62l28 -48c-49 -30 -128 -71 -220 -71c-89 0 -179 42 -179 148z" />
    <glyph glyph-name="Agrave" unicode="&#xc0;" horiz-adv-x="672" 
d="M523 0l-35 182h-335l-99 -182h-75l393 700h72l147 -700h-68zM400 636l-217 -398h294zM487 752h-49l-143 128h90z" />
    <glyph glyph-name="Aacute" unicode="&#xc1;" horiz-adv-x="672" 
d="M523 0l-35 182h-335l-99 -182h-75l393 700h72l147 -700h-68zM400 636l-217 -398h294zM405 752h-57l137 128h104z" />
    <glyph glyph-name="Acircumflex" unicode="&#xc2;" horiz-adv-x="672" 
d="M523 0l-35 182h-335l-99 -182h-75l393 700h72l147 -700h-68zM400 636l-217 -398h294zM481 880l74 -128h-45l-73 90l-104 -90h-51l117 128h82z" />
    <glyph glyph-name="Atilde" unicode="&#xc3;" horiz-adv-x="672" 
d="M523 0l-35 182h-335l-99 -182h-75l393 700h72l147 -700h-68zM400 636l-217 -398h294zM315 765l-35 21c31 46 53 71 92 71c51 0 79 -49 113 -49c15 0 28 6 57 46l35 -22c-31 -46 -53 -71 -92 -71c-52 0 -79 49 -113 49c-15 0 -28 -5 -57 -45z" />
    <glyph glyph-name="Adieresis" unicode="&#xc4;" horiz-adv-x="672" 
d="M523 0l-35 182h-335l-99 -182h-75l393 700h72l147 -700h-68zM400 636l-217 -398h294zM301 762l16 87h72l-16 -87h-72zM466 762l15 87h71l-15 -87h-71z" />
    <glyph glyph-name="Aring" unicode="&#xc5;" horiz-adv-x="672" 
d="M523 0l-35 182h-335l-99 -182h-75l393 700h72l147 -700h-68zM400 636l-217 -398h294zM333 843c0 57 44 102 101 102c56 0 101 -45 101 -102c0 -56 -45 -101 -101 -101c-57 0 -101 45 -101 101zM373 843c0 -34 26 -60 61 -60c34 0 61 26 61 60c0 35 -27 62 -61 62
c-35 0 -61 -27 -61 -62z" />
    <glyph glyph-name="AE" unicode="&#xc6;" horiz-adv-x="980" 
d="M547 700h439l-10 -57h-359l-47 -265h298l-11 -56h-297l-48 -265h366l-10 -57h-430l32 182h-287l-153 -182h-86zM230 238h250l65 375z" />
    <glyph glyph-name="Ccedilla" unicode="&#xc7;" horiz-adv-x="646" 
d="M149 -150l23 41c20 -10 39 -13 53 -13c32 0 64 16 64 59c0 19 -6 40 -11 52c-114 4 -205 83 -205 285c0 270 159 437 337 437c106 0 181 -58 245 -108l-40 -44c-73 58 -131 93 -201 93c-148 0 -273 -157 -273 -376c0 -162 68 -228 154 -228c71 0 163 44 237 94l33 -51
c-75 -47 -162 -92 -252 -100c8 -14 20 -38 20 -67c0 -55 -40 -92 -107 -92c-26 0 -55 6 -77 18z" />
    <glyph glyph-name="Egrave" unicode="&#xc8;" horiz-adv-x="592" 
d="M469 752h-50l-144 128h91zM481 0h-430l123 700h425l-10 -57h-359l-47 -265h297l-10 -56h-297l-47 -265h365z" />
    <glyph glyph-name="Eacute" unicode="&#xc9;" horiz-adv-x="592" 
d="M386 752h-57l137 128h101zM481 0h-430l123 700h425l-10 -57h-359l-47 -265h297l-10 -56h-297l-47 -265h365z" />
    <glyph glyph-name="Ecircumflex" unicode="&#xca;" horiz-adv-x="592" 
d="M461 880l74 -128h-44l-74 90l-102 -90h-53l119 128h80zM481 0h-430l123 700h425l-10 -57h-359l-47 -265h297l-10 -56h-297l-47 -265h365z" />
    <glyph glyph-name="Edieresis" unicode="&#xcb;" horiz-adv-x="592" 
d="M481 0h-430l123 700h425l-10 -57h-359l-47 -265h297l-10 -56h-297l-47 -265h365zM283 762l15 87h73l-15 -87h-73zM448 762l15 87h72l-15 -87h-72z" />
    <glyph glyph-name="Igrave" unicode="&#xcc;" horiz-adv-x="272" 
d="M288 752h-50l-144 128h90zM117 0h-66l123 700h66z" />
    <glyph glyph-name="Iacute" unicode="&#xcd;" horiz-adv-x="272" 
d="M203 752h-57l137 128h103zM117 0h-66l123 700h66z" />
    <glyph glyph-name="Icircumflex" unicode="&#xce;" horiz-adv-x="272" 
d="M279 880l75 -128h-46l-72 90l-103 -90h-53l118 128h81zM117 0h-66l123 700h66z" />
    <glyph glyph-name="Idieresis" unicode="&#xcf;" horiz-adv-x="272" 
d="M117 0h-66l123 700h66zM101 762l15 87h72l-15 -87h-72zM265 762l16 87h71l-16 -87h-71z" />
    <glyph glyph-name="Eth" unicode="&#xd0;" horiz-adv-x="702" 
d="M650 440c0 -257 -158 -440 -403 -440h-192l56 322h-73l9 56h74l57 322h174c177 0 298 -82 298 -260zM351 322h-175l-46 -265h109c198 0 344 138 344 382c0 149 -95 204 -245 204h-105l-47 -265h175z" />
    <glyph glyph-name="Ntilde" unicode="&#xd1;" horiz-adv-x="722" 
d="M498 0l-274 610l-107 -610h-66l123 700h68l274 -611l108 611h65l-123 -700h-68zM344 765l-35 21c31 46 53 71 92 71c52 0 80 -49 114 -49c14 0 27 6 56 46l36 -22c-32 -46 -53 -71 -93 -71c-51 0 -79 49 -113 49c-14 0 -27 -5 -57 -45z" />
    <glyph glyph-name="Ograve" unicode="&#xd2;" horiz-adv-x="742" 
d="M414 711c200 0 273 -129 274 -293c1 -180 -105 -429 -344 -429c-201 0 -273 128 -273 292c-1 181 104 430 343 430zM343 46c195 0 278 230 278 373c0 105 -30 234 -205 234c-196 0 -279 -230 -279 -373c0 -105 31 -234 206 -234zM520 752h-49l-143 128h90z" />
    <glyph glyph-name="Oacute" unicode="&#xd3;" horiz-adv-x="742" 
d="M414 711c200 0 273 -129 274 -293c1 -180 -105 -429 -344 -429c-201 0 -273 128 -273 292c-1 181 104 430 343 430zM343 46c195 0 278 230 278 373c0 105 -30 234 -205 234c-196 0 -279 -230 -279 -373c0 -105 31 -234 206 -234zM438 752h-58l137 128h103z" />
    <glyph glyph-name="Ocircumflex" unicode="&#xd4;" horiz-adv-x="742" 
d="M414 711c200 0 273 -129 274 -293c1 -180 -105 -429 -344 -429c-201 0 -273 128 -273 292c-1 181 104 430 343 430zM343 46c195 0 278 230 278 373c0 105 -30 234 -205 234c-196 0 -279 -230 -279 -373c0 -105 31 -234 206 -234zM514 880l74 -128h-45l-73 90l-102 -90
h-53l117 128h82z" />
    <glyph glyph-name="Otilde" unicode="&#xd5;" horiz-adv-x="742" 
d="M414 711c200 0 273 -129 274 -293c1 -180 -105 -429 -344 -429c-201 0 -273 128 -273 292c-1 181 104 430 343 430zM343 46c195 0 278 230 278 373c0 105 -30 234 -205 234c-196 0 -279 -230 -279 -373c0 -105 31 -234 206 -234zM346 765l-35 21c31 46 53 71 92 71
c52 0 79 -49 113 -49c15 0 28 6 57 46l35 -22c-31 -46 -53 -71 -92 -71c-51 0 -79 49 -113 49c-15 0 -28 -5 -57 -45z" />
    <glyph glyph-name="Odieresis" unicode="&#xd6;" horiz-adv-x="742" 
d="M414 711c200 0 273 -129 274 -293c1 -180 -105 -429 -344 -429c-201 0 -273 128 -273 292c-1 181 104 430 343 430zM343 46c195 0 278 230 278 373c0 105 -30 234 -205 234c-196 0 -279 -230 -279 -373c0 -105 31 -234 206 -234zM334 762l16 87h71l-16 -87h-71zM498 762
l14 87h72l-15 -87h-71z" />
    <glyph glyph-name="multiply" unicode="&#xd7;" horiz-adv-x="607" 
d="M527 472l-180 -141l129 -139l-41 -34l-131 140l-179 -140l-34 39l178 139l-129 140l41 34l131 -141l182 142z" />
    <glyph glyph-name="Oslash" unicode="&#xd8;" horiz-adv-x="741" 
d="M725 700l-84 -94c33 -50 47 -116 48 -188c0 -180 -106 -429 -345 -429c-90 0 -154 26 -198 69l-52 -58h-62l85 94c-32 50 -46 115 -46 187c-1 181 104 430 343 430c90 0 154 -26 197 -69l53 58h61zM343 46c195 0 279 230 279 373c0 45 -6 95 -27 137l-407 -451
c31 -36 80 -59 155 -59zM138 280c0 -45 5 -94 25 -135l406 450c-31 35 -79 58 -153 58c-196 0 -278 -230 -278 -373z" />
    <glyph glyph-name="Ugrave" unicode="&#xd9;" horiz-adv-x="696" 
d="M669 700l-80 -457c-24 -139 -102 -254 -293 -254s-234 112 -208 262l79 449h66l-81 -453c-19 -111 -5 -200 143 -200c149 0 209 89 229 200l80 453h65zM499 752h-50l-144 128h91z" />
    <glyph glyph-name="Uacute" unicode="&#xda;" horiz-adv-x="696" 
d="M669 700l-80 -457c-24 -139 -102 -254 -293 -254s-234 112 -208 262l79 449h66l-81 -453c-19 -111 -5 -200 143 -200c149 0 209 89 229 200l80 453h65zM415 752h-58l138 128h103z" />
    <glyph glyph-name="Ucircumflex" unicode="&#xdb;" horiz-adv-x="696" 
d="M669 700l-80 -457c-24 -139 -102 -254 -293 -254s-234 112 -208 262l79 449h66l-81 -453c-19 -111 -5 -200 143 -200c149 0 209 89 229 200l80 453h65zM491 880l75 -128h-46l-72 90l-103 -90h-53l118 128h81z" />
    <glyph glyph-name="Udieresis" unicode="&#xdc;" horiz-adv-x="696" 
d="M669 700l-80 -457c-24 -139 -102 -254 -293 -254s-234 112 -208 262l79 449h66l-81 -453c-19 -111 -5 -200 143 -200c149 0 209 89 229 200l80 453h65zM313 762l15 87h72l-15 -87h-72zM477 762l15 87h71l-16 -87h-70z" />
    <glyph glyph-name="Yacute" unicode="&#xdd;" horiz-adv-x="620" 
d="M222 0l49 279l-181 421h68l150 -372l278 372h79l-330 -424l-48 -276h-65zM373 752h-57l137 128h104z" />
    <glyph glyph-name="Thorn" unicode="&#xde;" horiz-adv-x="649" 
d="M608 390c0 -160 -124 -239 -288 -239h-177l-27 -151h-65l123 700h65l-22 -129h163c128 0 228 -48 228 -181zM541 390c0 91 -69 124 -159 124h-175l-55 -306h168c118 0 221 54 221 182z" />
    <glyph glyph-name="germandbls" unicode="&#xdf;" horiz-adv-x="622" 
d="M386 711c115 0 228 -47 194 -223l-2 -10l-49 -32c-20 12 -66 38 -119 38c-64 0 -117 -38 -117 -96c0 -61 56 -75 110 -94c92 -34 140 -72 140 -148c0 -107 -97 -157 -186 -157c-77 0 -151 39 -192 70l32 43c38 -29 104 -61 157 -61c56 0 125 37 125 101
c0 60 -64 82 -118 102c-65 25 -130 54 -130 140c0 91 78 152 176 152c43 0 81 -12 113 -26c17 117 -46 148 -140 148c-92 0 -173 -29 -197 -168l-87 -490h-62l87 498c32 179 142 213 265 213z" />
    <glyph glyph-name="agrave" unicode="&#xe0;" horiz-adv-x="598" 
d="M458 0h-62l15 86c-46 -44 -122 -97 -209 -97c-75 0 -153 47 -153 184c0 208 99 363 245 363c81 0 142 -51 181 -89l14 78h62zM213 42c82 0 149 53 209 108l43 242c-42 46 -98 90 -162 90c-119 0 -189 -152 -189 -303c0 -84 34 -137 99 -137zM434 601h-50l-144 128h90z
" />
    <glyph glyph-name="aacute" unicode="&#xe1;" horiz-adv-x="598" 
d="M458 0h-62l15 86c-46 -44 -122 -97 -209 -97c-75 0 -153 47 -153 184c0 208 99 363 245 363c81 0 142 -51 181 -89l14 78h62zM213 42c82 0 149 53 209 108l43 242c-42 46 -98 90 -162 90c-119 0 -189 -152 -189 -303c0 -84 34 -137 99 -137zM330 601h-57l137 128h102z
" />
    <glyph glyph-name="acircumflex" unicode="&#xe2;" horiz-adv-x="598" 
d="M458 0h-62l15 86c-46 -44 -122 -97 -209 -97c-75 0 -153 47 -153 184c0 208 99 363 245 363c81 0 142 -51 181 -89l14 78h62zM213 42c82 0 149 53 209 108l43 242c-42 46 -98 90 -162 90c-119 0 -189 -152 -189 -303c0 -84 34 -137 99 -137zM426 729l74 -128h-46l-72 90
l-103 -90h-53l119 128h81z" />
    <glyph glyph-name="atilde" unicode="&#xe3;" horiz-adv-x="598" 
d="M458 0h-62l15 86c-46 -44 -122 -97 -209 -97c-75 0 -153 47 -153 184c0 208 99 363 245 363c81 0 142 -51 181 -89l14 78h62zM213 42c82 0 149 53 209 108l43 242c-42 46 -98 90 -162 90c-119 0 -189 -152 -189 -303c0 -84 34 -137 99 -137zM261 614l-36 21
c32 46 53 71 93 71c51 0 79 -49 113 -49c15 0 27 6 57 46l35 -22c-31 -46 -53 -71 -92 -71c-52 0 -79 49 -113 49c-15 0 -28 -5 -57 -45z" />
    <glyph glyph-name="adieresis" unicode="&#xe4;" horiz-adv-x="598" 
d="M458 0h-62l15 86c-46 -44 -122 -97 -209 -97c-75 0 -153 47 -153 184c0 208 99 363 245 363c81 0 142 -51 181 -89l14 78h62zM213 42c82 0 149 53 209 108l43 242c-42 46 -98 90 -162 90c-119 0 -189 -152 -189 -303c0 -84 34 -137 99 -137zM249 611l14 87h73l-14 -87
h-73zM413 611l15 87h70l-14 -87h-71z" />
    <glyph glyph-name="aring" unicode="&#xe5;" horiz-adv-x="598" 
d="M458 0h-62l15 86c-46 -44 -122 -97 -209 -97c-75 0 -153 47 -153 184c0 208 99 363 245 363c81 0 142 -51 181 -89l14 78h62zM213 42c82 0 149 53 209 108l43 242c-42 46 -98 90 -162 90c-119 0 -189 -152 -189 -303c0 -84 34 -137 99 -137zM280 692c0 57 44 102 100 102
c57 0 102 -45 102 -102c0 -56 -45 -101 -102 -101c-56 0 -100 45 -100 101zM320 692c0 -34 26 -60 60 -60c35 0 62 26 62 60c0 35 -27 62 -62 62c-34 0 -60 -27 -60 -62z" />
    <glyph glyph-name="ae" unicode="&#xe6;" horiz-adv-x="925" 
d="M459 0h-63l15 86c-47 -44 -124 -97 -209 -97c-75 0 -153 47 -153 184c0 208 99 363 245 363c81 0 141 -51 180 -89l14 78h63l-7 -39c45 32 100 50 163 50c112 0 172 -59 172 -134c0 -111 -109 -173 -335 -173h-61v-15c0 -110 47 -173 132 -173c78 0 160 51 197 73l29 -47
c-46 -25 -136 -78 -232 -78c-59 0 -108 20 -142 61zM213 42c82 0 149 53 209 107l1 5c-4 19 -5 40 -5 63c0 67 16 128 44 178c-41 45 -96 87 -159 87c-119 0 -189 -152 -189 -303c0 -84 34 -137 99 -137zM704 485c-108 0 -194 -87 -216 -210h63c182 0 265 50 265 127
c0 53 -49 83 -112 83z" />
    <glyph glyph-name="ccedilla" unicode="&#xe7;" horiz-adv-x="517" 
d="M79 -150l24 41c20 -10 40 -13 54 -13c31 0 63 16 63 59c0 20 -7 41 -11 53c-96 10 -161 89 -161 217c0 212 136 329 262 329c89 0 159 -52 195 -77l-36 -42c-23 15 -84 64 -151 64c-104 0 -205 -112 -205 -268c0 -106 44 -169 126 -169c66 0 143 49 172 64l27 -51
c-42 -21 -117 -62 -194 -67c9 -14 20 -38 20 -66c0 -55 -40 -92 -106 -92c-27 0 -57 6 -79 18z" />
    <glyph glyph-name="egrave" unicode="&#xe8;" horiz-adv-x="554" 
d="M508 402c0 -111 -108 -173 -335 -173h-61v-15c0 -110 47 -173 133 -173c77 0 159 51 197 73l28 -47c-45 -25 -137 -78 -231 -78c-114 0 -192 77 -192 228c0 183 117 319 289 319c113 0 172 -59 172 -134zM333 485c-108 0 -194 -87 -216 -210h63c182 0 265 50 265 127
c0 53 -49 83 -112 83zM419 601h-49l-144 128h90z" />
    <glyph glyph-name="eacute" unicode="&#xe9;" horiz-adv-x="554" 
d="M508 402c0 -111 -108 -173 -335 -173h-61v-15c0 -110 47 -173 133 -173c77 0 159 51 197 73l28 -47c-45 -25 -137 -78 -231 -78c-114 0 -192 77 -192 228c0 183 117 319 289 319c113 0 172 -59 172 -134zM333 485c-108 0 -194 -87 -216 -210h63c182 0 265 50 265 127
c0 53 -49 83 -112 83zM336 601h-57l137 128h102z" />
    <glyph glyph-name="ecircumflex" unicode="&#xea;" horiz-adv-x="554" 
d="M508 402c0 -111 -108 -173 -335 -173h-61v-15c0 -110 47 -173 133 -173c77 0 159 51 197 73l28 -47c-45 -25 -137 -78 -231 -78c-114 0 -192 77 -192 228c0 183 117 319 289 319c113 0 172 -59 172 -134zM333 485c-108 0 -194 -87 -216 -210h63c182 0 265 50 265 127
c0 53 -49 83 -112 83zM412 729l74 -128h-46l-72 90l-103 -90h-53l118 128h82z" />
    <glyph glyph-name="edieresis" unicode="&#xeb;" horiz-adv-x="554" 
d="M508 402c0 -111 -108 -173 -335 -173h-61v-15c0 -110 47 -173 133 -173c77 0 159 51 197 73l28 -47c-45 -25 -137 -78 -231 -78c-114 0 -192 77 -192 228c0 183 117 319 289 319c113 0 172 -59 172 -134zM333 485c-108 0 -194 -87 -216 -210h63c182 0 265 50 265 127
c0 53 -49 83 -112 83zM233 611l15 87h73l-15 -87h-73zM398 611l15 87h70l-15 -87h-70z" />
    <glyph glyph-name="igrave" unicode="&#xec;" horiz-adv-x="237" 
d="M243 601h-49l-145 128h91zM97 0h-63l93 525h63z" />
    <glyph glyph-name="iacute" unicode="&#xed;" horiz-adv-x="237" 
d="M159 601h-57l137 128h102zM97 0h-63l93 525h63z" />
    <glyph glyph-name="icircumflex" unicode="&#xee;" horiz-adv-x="237" 
d="M235 729l74 -128h-45l-73 90l-102 -90h-53l118 128h81zM97 0h-63l93 525h63z" />
    <glyph glyph-name="idieresis" unicode="&#xef;" horiz-adv-x="237" 
d="M97 0h-63l93 525h63zM56 611l16 87h72l-16 -87h-72zM221 611l15 87h71l-15 -87h-71z" />
    <glyph glyph-name="eth" unicode="&#xf0;" horiz-adv-x="607" 
d="M289 570h-79l105 71c-15 4 -32 6 -50 6c-41 0 -76 -9 -76 -9l-5 53s37 9 84 9c39 0 74 -7 106 -19l71 48h78l-105 -71c82 -55 129 -161 129 -310c0 -224 -115 -359 -287 -359c-129 0 -215 73 -215 210c0 155 114 277 266 277c134 0 177 -96 177 -96
c-3 93 -38 196 -122 242zM473 273c0 91 -52 150 -152 150c-136 0 -211 -111 -211 -228c0 -86 41 -153 149 -153c154 0 214 133 214 231z" />
    <glyph glyph-name="ntilde" unicode="&#xf1;" 
d="M190 525l-13 -74c41 28 139 85 225 85c105 0 140 -71 124 -164l-66 -372h-62l65 366c11 65 -1 117 -75 117c-78 0 -179 -61 -222 -93l-69 -390h-63l93 525h63zM250 614l-35 21c31 46 53 71 92 71c52 0 80 -49 114 -49c14 0 27 6 56 46l36 -22c-32 -46 -53 -71 -93 -71
c-51 0 -79 49 -113 49c-14 0 -27 -5 -57 -45z" />
    <glyph glyph-name="ograve" unicode="&#xf2;" horiz-adv-x="601" 
d="M313 536c146 0 227 -86 227 -225c0 -180 -108 -322 -265 -322c-146 0 -227 86 -227 225c0 180 108 322 265 322zM274 42c127 0 202 132 202 269c0 98 -44 172 -162 172c-127 0 -202 -132 -202 -269c0 -99 44 -172 162 -172zM425 601h-50l-144 128h91z" />
    <glyph glyph-name="oacute" unicode="&#xf3;" horiz-adv-x="601" 
d="M313 536c146 0 227 -86 227 -225c0 -180 -108 -322 -265 -322c-146 0 -227 86 -227 225c0 180 108 322 265 322zM274 42c127 0 202 132 202 269c0 98 -44 172 -162 172c-127 0 -202 -132 -202 -269c0 -99 44 -172 162 -172zM342 601h-58l137 128h103z" />
    <glyph glyph-name="ocircumflex" unicode="&#xf4;" horiz-adv-x="601" 
d="M313 536c146 0 227 -86 227 -225c0 -180 -108 -322 -265 -322c-146 0 -227 86 -227 225c0 180 108 322 265 322zM274 42c127 0 202 132 202 269c0 98 -44 172 -162 172c-127 0 -202 -132 -202 -269c0 -99 44 -172 162 -172zM417 729l75 -128h-46l-72 90l-103 -90h-53
l118 128h81z" />
    <glyph glyph-name="otilde" unicode="&#xf5;" horiz-adv-x="601" 
d="M313 536c146 0 227 -86 227 -225c0 -180 -108 -322 -265 -322c-146 0 -227 86 -227 225c0 180 108 322 265 322zM274 42c127 0 202 132 202 269c0 98 -44 172 -162 172c-127 0 -202 -132 -202 -269c0 -99 44 -172 162 -172zM250 612l-39 15c30 45 54 78 96 78
s81 -42 119 -42c16 0 28 5 52 40l38 -15c-29 -45 -53 -78 -94 -78c-43 0 -83 42 -120 42c-16 0 -27 -5 -52 -40z" />
    <glyph glyph-name="odieresis" unicode="&#xf6;" horiz-adv-x="601" 
d="M313 536c146 0 227 -86 227 -225c0 -180 -108 -322 -265 -322c-146 0 -227 86 -227 225c0 180 108 322 265 322zM274 42c127 0 202 132 202 269c0 98 -44 172 -162 172c-127 0 -202 -132 -202 -269c0 -99 44 -172 162 -172zM239 611l15 87h72l-14 -87h-73zM403 611l16 87
h70l-15 -87h-71z" />
    <glyph glyph-name="divide" unicode="&#xf7;" horiz-adv-x="607" 
d="M58 307l9 52h493l-8 -52h-494zM284 493c-3 30 26 56 59 56c24 0 46 -19 48 -42c4 -31 -26 -57 -57 -57c-26 0 -47 19 -50 43zM226 160c-3 31 26 57 58 57c26 0 46 -19 48 -43c4 -30 -25 -56 -56 -56c-26 0 -48 19 -50 42z" />
    <glyph glyph-name="oslash" unicode="&#xf8;" horiz-adv-x="602" 
d="M509 525h59l-68 -73c26 -37 40 -85 40 -141c0 -180 -107 -322 -265 -322c-67 0 -120 18 -158 50l-36 -39h-58l65 71c-26 37 -40 85 -40 143c0 180 108 322 265 322c67 0 120 -19 158 -52zM112 214c0 -37 6 -70 19 -97l301 325c-26 25 -65 41 -118 41
c-126 0 -202 -132 -202 -269zM275 42c126 0 202 132 202 269c0 35 -6 68 -19 95l-301 -324c26 -26 64 -40 118 -40z" />
    <glyph glyph-name="ugrave" unicode="&#xf9;" 
d="M393 0l13 73c-42 -29 -139 -84 -225 -84c-106 0 -140 71 -124 164l66 372h62l-65 -366c-11 -65 2 -117 75 -117c79 0 181 61 222 92l69 391h62l-93 -525h-62zM419 601h-50l-143 128h90z" />
    <glyph glyph-name="uacute" unicode="&#xfa;" 
d="M393 0l13 73c-42 -29 -139 -84 -225 -84c-106 0 -140 71 -124 164l66 372h62l-65 -366c-11 -65 2 -117 75 -117c79 0 181 61 222 92l69 391h62l-93 -525h-62zM336 601h-58l137 128h103z" />
    <glyph glyph-name="ucircumflex" unicode="&#xfb;" 
d="M393 0l13 73c-42 -29 -139 -84 -225 -84c-106 0 -140 71 -124 164l66 372h62l-65 -366c-11 -65 2 -117 75 -117c79 0 181 61 222 92l69 391h62l-93 -525h-62zM411 729l76 -128h-46l-73 90l-103 -90h-53l119 128h80z" />
    <glyph glyph-name="udieresis" unicode="&#xfc;" 
d="M393 0l13 73c-42 -29 -139 -84 -225 -84c-106 0 -140 71 -124 164l66 372h62l-65 -366c-11 -65 2 -117 75 -117c79 0 181 61 222 92l69 391h62l-93 -525h-62zM233 611l15 87h72l-14 -87h-73zM397 611l16 87h71l-15 -87h-72z" />
    <glyph glyph-name="yacute" unicode="&#xfd;" horiz-adv-x="544" 
d="M-11 -154c113 36 142 60 196 154l-115 525h65l92 -451l253 451h70l-301 -525c-71 -123 -89 -163 -244 -208zM311 601h-57l137 128h103z" />
    <glyph glyph-name="thorn" unicode="&#xfe;" horiz-adv-x="595" 
d="M225 729l-49 -275c45 37 112 82 189 82c85 0 169 -48 169 -184c0 -208 -94 -363 -237 -363c-87 0 -147 50 -188 87l-49 -280h-62l165 933h62zM355 482c-73 0 -134 -44 -190 -90l-46 -260c43 -46 102 -89 169 -89c115 0 182 152 182 303c0 85 -38 136 -115 136z" />
    <glyph glyph-name="ydieresis" unicode="&#xff;" horiz-adv-x="544" 
d="M-11 -154c113 36 142 60 196 154l-115 525h65l92 -451l253 451h70l-301 -525c-71 -123 -89 -163 -244 -208zM208 611l15 87h73l-15 -87h-73zM372 611l16 87h72l-16 -87h-72z" />
    <glyph glyph-name="Amacron" unicode="&#x100;" horiz-adv-x="672" 
d="M523 0l-35 182h-335l-99 -182h-75l393 700h72l147 -700h-68zM400 636l-217 -398h294zM279 777l8 46h285l-8 -46h-285z" />
    <glyph glyph-name="amacron" unicode="&#x101;" horiz-adv-x="598" 
d="M458 0h-62l15 86c-46 -44 -122 -97 -209 -97c-75 0 -153 47 -153 184c0 208 99 363 245 363c81 0 142 -51 181 -89l14 78h62zM213 42c82 0 149 53 209 108l43 242c-42 46 -98 90 -162 90c-119 0 -189 -152 -189 -303c0 -84 34 -137 99 -137zM225 626l8 46h285l-8 -46
h-285z" />
    <glyph glyph-name="Abreve" unicode="&#x102;" horiz-adv-x="672" 
d="M523 0l-35 182h-335l-99 -182h-75l393 700h72l147 -700h-68zM400 636l-217 -398h294zM416 752c-82 0 -125 41 -114 103h49c-6 -41 16 -57 66 -57c51 0 94 16 101 57h51c-10 -63 -65 -103 -153 -103z" />
    <glyph glyph-name="abreve" unicode="&#x103;" horiz-adv-x="598" 
d="M458 0h-62l15 86c-46 -44 -122 -97 -209 -97c-75 0 -153 47 -153 184c0 208 99 363 245 363c81 0 142 -51 181 -89l14 78h62zM213 42c82 0 149 53 209 108l43 242c-42 46 -98 90 -162 90c-119 0 -189 -152 -189 -303c0 -84 34 -137 99 -137zM359 601
c-82 0 -126 41 -115 103h49c-5 -41 16 -57 67 -57s94 16 101 57h51c-11 -63 -65 -103 -153 -103z" />
    <glyph glyph-name="Aogonek" unicode="&#x104;" horiz-adv-x="672" 
d="M523 0l-35 182h-335l-99 -182h-75l393 700h72l147 -700h-3c-82 -40 -119 -70 -119 -105c0 -32 43 -30 76 -30l-16 -44c-38 0 -115 0 -115 66c0 47 44 82 114 113h-5zM400 636l-217 -398h294z" />
    <glyph glyph-name="aogonek" unicode="&#x105;" horiz-adv-x="599" 
d="M337 -105c0 -32 42 -30 75 -30l-16 -44c-38 0 -114 0 -114 66c0 48 44 82 114 113h-1l15 85c-47 -44 -123 -96 -208 -96c-75 0 -153 47 -153 184c0 208 99 363 245 363c80 0 141 -51 180 -88l14 77h63l-93 -524v-1h-2c-84 -40 -119 -70 -119 -105zM213 42
c82 0 148 52 208 106l43 245c-41 45 -97 89 -161 89c-119 0 -189 -152 -189 -303c0 -84 34 -137 99 -137z" />
    <glyph glyph-name="Cacute" unicode="&#x106;" horiz-adv-x="645" 
d="M654 603l-41 -44c-73 58 -130 93 -200 93c-148 0 -274 -157 -274 -376c0 -162 69 -228 155 -228c71 0 162 44 236 94l33 -51c-82 -51 -178 -102 -277 -102c-118 0 -214 78 -214 285c0 270 159 437 337 437c106 0 180 -58 245 -108zM447 752h-57l137 128h103z" />
    <glyph glyph-name="cacute" unicode="&#x107;" horiz-adv-x="517" 
d="M505 459l-35 -42c-23 15 -85 64 -152 64c-104 0 -205 -112 -205 -268c0 -106 44 -169 126 -169c67 0 144 49 172 64l27 -51c-44 -22 -125 -68 -207 -68c-108 0 -183 81 -183 218c0 212 136 329 262 329c89 0 159 -52 195 -77zM325 601h-57l137 128h102z" />
    <glyph glyph-name="Cdotaccent" unicode="&#x10a;" horiz-adv-x="645" 
d="M654 603l-41 -44c-73 58 -130 93 -200 93c-148 0 -274 -157 -274 -376c0 -162 69 -228 155 -228c71 0 162 44 236 94l33 -51c-82 -51 -178 -102 -277 -102c-118 0 -214 78 -214 285c0 270 159 437 337 437c106 0 180 -58 245 -108zM392 762l16 87h73l-16 -87h-73z" />
    <glyph glyph-name="cdotaccent" unicode="&#x10b;" horiz-adv-x="517" 
d="M505 459l-35 -42c-23 15 -85 64 -152 64c-104 0 -205 -112 -205 -268c0 -106 44 -169 126 -169c67 0 144 49 172 64l27 -51c-44 -22 -125 -68 -207 -68c-108 0 -183 81 -183 218c0 212 136 329 262 329c89 0 159 -52 195 -77zM303 611l15 87h73l-15 -87h-73z" />
    <glyph glyph-name="Ccaron" unicode="&#x10c;" horiz-adv-x="645" 
d="M654 603l-41 -44c-73 58 -130 93 -200 93c-148 0 -274 -157 -274 -376c0 -162 69 -228 155 -228c71 0 162 44 236 94l33 -51c-82 -51 -178 -102 -277 -102c-118 0 -214 78 -214 285c0 270 159 437 337 437c106 0 180 -58 245 -108zM397 752l-73 128h45l72 -89l104 89h52
l-118 -128h-82z" />
    <glyph glyph-name="ccaron" unicode="&#x10d;" horiz-adv-x="517" 
d="M505 459l-35 -42c-23 15 -85 64 -152 64c-104 0 -205 -112 -205 -268c0 -106 44 -169 126 -169c67 0 144 49 172 64l27 -51c-44 -22 -125 -68 -207 -68c-108 0 -183 81 -183 218c0 212 136 329 262 329c89 0 159 -52 195 -77zM298 601l-75 128h46l73 -89l103 89h52
l-118 -128h-81z" />
    <glyph glyph-name="Dcaron" unicode="&#x10e;" horiz-adv-x="698" 
d="M646 440c0 -257 -158 -440 -403 -440h-192l123 700h174c177 0 298 -82 298 -260zM579 439c0 149 -95 204 -245 204h-104l-104 -586h109c198 0 344 138 344 382zM406 752l-75 128h46l72 -89l103 89h53l-118 -128h-81z" />
    <glyph glyph-name="dcaron" unicode="&#x10f;" horiz-adv-x="615" 
d="M458 0h-63l15 85c-47 -44 -123 -96 -208 -96c-75 0 -153 47 -153 184c0 208 99 363 245 363c80 0 141 -51 180 -88l50 281h63zM213 42c81 0 148 52 208 106l43 245c-41 45 -97 89 -161 89c-119 0 -189 -152 -189 -303c0 -84 34 -137 99 -137zM633 640l14 89h70l-5 -91
l-83 -108l-19 23l56 87h-33z" />
    <glyph glyph-name="Dcroat" unicode="&#x110;" horiz-adv-x="702" 
d="M650 440c0 -257 -158 -440 -403 -440h-192l56 322h-73l9 56h74l57 322h174c177 0 298 -82 298 -260zM351 322h-175l-46 -265h109c198 0 344 138 344 382c0 149 -95 204 -245 204h-105l-47 -265h175z" />
    <glyph glyph-name="dcroat" unicode="&#x111;" horiz-adv-x="598" 
d="M458 0h-62l15 86c-46 -44 -122 -97 -209 -97c-75 0 -153 47 -153 184c0 208 99 363 245 363c81 0 142 -51 181 -89l27 152h-168l7 46h169l15 84h62l-15 -84h65l-6 -46h-67zM213 42c82 0 149 53 209 108l43 243c-42 45 -98 89 -162 89c-119 0 -189 -152 -189 -303
c0 -84 34 -137 99 -137z" />
    <glyph glyph-name="Emacron" unicode="&#x112;" horiz-adv-x="592" 
d="M481 0h-430l123 700h425l-10 -57h-359l-47 -265h297l-10 -56h-297l-47 -265h365zM261 777l8 46h284l-8 -46h-284z" />
    <glyph glyph-name="emacron" unicode="&#x113;" horiz-adv-x="554" 
d="M508 402c0 -111 -108 -173 -335 -173h-61v-15c0 -110 47 -173 133 -173c77 0 159 51 197 73l28 -47c-45 -25 -137 -78 -231 -78c-114 0 -192 77 -192 228c0 183 117 319 289 319c113 0 172 -59 172 -134zM333 485c-108 0 -194 -87 -216 -210h63c182 0 265 50 265 127
c0 53 -49 83 -112 83zM213 626l8 46h285l-8 -46h-285z" />
    <glyph glyph-name="Edotaccent" unicode="&#x116;" horiz-adv-x="592" 
d="M481 0h-430l123 700h425l-10 -57h-359l-47 -265h297l-10 -56h-297l-47 -265h365zM365 762l15 87h71l-15 -87h-71z" />
    <glyph glyph-name="edotaccent" unicode="&#x117;" horiz-adv-x="554" 
d="M508 402c0 -111 -108 -173 -335 -173h-61v-15c0 -110 47 -173 133 -173c77 0 159 51 197 73l28 -47c-45 -25 -137 -78 -231 -78c-114 0 -192 77 -192 228c0 183 117 319 289 319c113 0 172 -59 172 -134zM333 485c-108 0 -194 -87 -216 -210h63c182 0 265 50 265 127
c0 53 -49 83 -112 83zM314 611l15 87h73l-15 -87h-73z" />
    <glyph glyph-name="Eogonek" unicode="&#x118;" horiz-adv-x="592" 
d="M481 0h-3c-82 -40 -118 -70 -118 -105c0 -32 41 -30 75 -30l-16 -44c-38 0 -113 0 -113 66c0 48 44 82 114 113h-369l123 700h424l-9 -57h-360l-46 -265h297l-10 -56h-297l-47 -265h365z" />
    <glyph glyph-name="eogonek" unicode="&#x119;" horiz-adv-x="555" 
d="M509 402c0 -111 -109 -173 -335 -173h-62v-15c0 -110 48 -173 134 -173c77 0 159 51 197 73l27 -47c-33 -18 -89 -51 -153 -67c-82 -40 -118 -70 -118 -105c0 -32 42 -30 75 -30l-16 -44c-38 0 -114 0 -114 66c0 42 34 74 91 102c-112 2 -187 79 -187 228
c0 183 117 319 289 319c113 0 172 -59 172 -134zM334 485c-108 0 -195 -87 -217 -210h64c182 0 264 50 264 127c0 53 -48 83 -111 83z" />
    <glyph glyph-name="Ecaron" unicode="&#x11a;" horiz-adv-x="592" 
d="M359 752l-75 128h46l72 -89l104 89h52l-119 -128h-80zM481 0h-430l123 700h425l-10 -57h-359l-47 -265h297l-10 -56h-297l-47 -265h365z" />
    <glyph glyph-name="ecaron" unicode="&#x11b;" horiz-adv-x="554" 
d="M508 402c0 -111 -108 -173 -335 -173h-61v-15c0 -110 47 -173 133 -173c77 0 159 51 197 73l28 -47c-45 -25 -137 -78 -231 -78c-114 0 -192 77 -192 228c0 183 117 319 289 319c113 0 172 -59 172 -134zM333 485c-108 0 -194 -87 -216 -210h63c182 0 265 50 265 127
c0 53 -49 83 -112 83zM308 601l-73 128h45l73 -89l103 89h53l-119 -128h-82z" />
    <glyph glyph-name="Gbreve" unicode="&#x11e;" horiz-adv-x="701" 
d="M507 0l15 89c-65 -50 -146 -100 -236 -100c-118 0 -214 84 -214 275c0 300 168 447 334 447c109 0 197 -65 257 -117l-43 -43c-44 36 -121 101 -210 101c-147 0 -270 -154 -270 -378c0 -141 54 -228 153 -228c93 0 199 79 242 113l28 161h-199l9 55h263l-66 -375h-63z
M428 752c-82 0 -126 41 -115 103h49c-5 -41 16 -57 67 -57s93 16 101 57h51c-11 -63 -66 -103 -153 -103z" />
    <glyph glyph-name="gbreve" unicode="&#x11f;" 
d="M350 601c-81 0 -125 41 -114 103h49c-6 -41 16 -57 66 -57c52 0 94 16 102 57h50c-10 -63 -65 -103 -153 -103zM487 525h62l-99 -566c-24 -137 -113 -173 -220 -173c-67 0 -157 15 -227 36l22 56c73 -23 138 -38 205 -38c110 0 148 68 157 120l22 124
c-48 -43 -123 -95 -207 -95c-75 0 -153 47 -153 184c0 208 99 363 245 363c80 0 140 -51 179 -89zM213 42c81 0 146 52 207 107l44 245c-42 45 -99 88 -161 88c-119 0 -190 -152 -190 -303c0 -84 34 -137 100 -137z" />
    <glyph glyph-name="Gdotaccent" unicode="&#x120;" horiz-adv-x="701" 
d="M507 0l15 89c-65 -50 -146 -100 -236 -100c-118 0 -214 84 -214 275c0 300 168 447 334 447c109 0 197 -65 257 -117l-43 -43c-44 36 -121 101 -210 101c-147 0 -270 -154 -270 -378c0 -141 54 -228 153 -228c93 0 199 79 242 113l28 161h-199l9 55h263l-66 -375h-63z
M394 762l15 87h72l-14 -87h-73z" />
    <glyph glyph-name="gdotaccent" unicode="&#x121;" 
d="M316 611l16 87h72l-16 -87h-72zM487 525h62l-99 -566c-24 -137 -113 -173 -220 -173c-67 0 -157 15 -227 36l22 56c73 -23 138 -38 205 -38c110 0 148 68 157 120l22 124c-48 -43 -123 -95 -207 -95c-75 0 -153 47 -153 184c0 208 99 363 245 363c80 0 140 -51 179 -89z
M213 42c81 0 146 52 207 107l44 245c-42 45 -99 88 -161 88c-119 0 -190 -152 -190 -303c0 -84 34 -137 100 -137z" />
    <glyph glyph-name="Gcommaaccent" unicode="&#x122;" horiz-adv-x="701" 
d="M507 0l16 89c-66 -50 -147 -100 -237 -100c-118 0 -214 84 -214 275c0 300 168 447 334 447c109 0 197 -65 257 -117l-43 -43c-44 36 -121 101 -210 101c-147 0 -269 -154 -269 -378c0 -141 53 -228 152 -228c92 0 199 78 242 113l29 161h-200l9 55h263l-66 -375h-63z
M250 -154l15 89h70l-6 -91l-82 -108l-19 23l56 87h-34z" />
    <glyph glyph-name="gcommaaccent" unicode="&#x123;" 
d="M407 700l-15 -89h-69l5 92l82 107l20 -23l-56 -87h33zM487 525h62l-99 -566c-24 -137 -113 -173 -220 -173c-67 0 -157 15 -227 36l22 56c73 -23 138 -38 205 -38c110 0 148 68 157 120l22 124c-48 -43 -123 -95 -207 -95c-75 0 -153 47 -153 184c0 208 99 363 245 363
c80 0 140 -51 179 -89zM213 42c81 0 146 52 207 107l44 245c-42 45 -99 88 -161 88c-119 0 -190 -152 -190 -303c0 -84 34 -137 100 -137z" />
    <glyph glyph-name="Hbar" unicode="&#x126;" horiz-adv-x="713" 
d="M489 0l59 339h-369l-59 -339h-65l91 521h-73l7 46h74l24 133h65l-24 -133h369l24 133h65l-24 -133h76l-8 -46h-76l-91 -521h-65zM211 521l-22 -126h369l22 126h-369z" />
    <glyph glyph-name="hbar" unicode="&#x127;" 
d="M75 599l8 46h65l15 84h63l-15 -84h169l-8 -46h-169l-27 -148c41 28 139 85 226 85c105 0 140 -71 124 -164l-66 -372h-62l65 366c11 65 -1 117 -75 117c-78 0 -179 -61 -222 -93l-69 -390h-63l106 599h-65z" />
    <glyph glyph-name="Itilde" unicode="&#x128;" horiz-adv-x="272" 
d="M114 765l-36 21c32 46 53 71 93 71c51 0 79 -49 113 -49c14 0 27 6 57 46l35 -22c-31 -46 -53 -71 -92 -71c-52 0 -80 49 -114 49c-14 0 -27 -5 -56 -45zM117 0h-66l123 700h66z" />
    <glyph glyph-name="itilde" unicode="&#x129;" horiz-adv-x="237" 
d="M69 614l-35 21c31 46 53 71 92 71c52 0 80 -49 114 -49c14 0 27 6 56 46l36 -22c-32 -46 -53 -71 -93 -71c-51 0 -79 49 -113 49c-14 0 -27 -5 -57 -45zM97 0h-63l93 525h63z" />
    <glyph glyph-name="Imacron" unicode="&#x12a;" horiz-adv-x="272" 
d="M117 0h-66l123 700h66zM79 777l8 46h285l-8 -46h-285z" />
    <glyph glyph-name="imacron" unicode="&#x12b;" horiz-adv-x="237" 
d="M97 0h-63l93 525h63zM33 626l8 46h285l-8 -46h-285z" />
    <glyph glyph-name="Ibreve" unicode="&#x12c;" horiz-adv-x="272" 
d="M216 752c-82 0 -126 41 -115 103h49c-5 -41 16 -57 67 -57s93 16 101 57h51c-11 -63 -66 -103 -153 -103zM117 0h-66l123 700h66z" />
    <glyph glyph-name="ibreve" unicode="&#x12d;" horiz-adv-x="237" 
d="M171 601c-81 0 -125 41 -114 103h49c-6 -41 16 -57 66 -57c52 0 94 16 101 57h51c-10 -63 -65 -103 -153 -103zM97 0h-63l93 525h63z" />
    <glyph glyph-name="Iogonek" unicode="&#x12e;" horiz-adv-x="272" 
d="M116 0h-3c-83 -40 -118 -70 -118 -105c0 -32 41 -30 75 -30l-17 -44c-37 0 -114 0 -114 66c0 47 45 82 115 113h-3l123 700h65z" />
    <glyph glyph-name="iogonek" unicode="&#x12f;" horiz-adv-x="237" 
d="M97 0h-3c-83 -40 -119 -70 -119 -105c0 -32 42 -30 75 -30l-16 -44c-38 0 -114 0 -114 66c0 47 45 82 114 113l92 525h63zM143 639l14 87h72l-15 -87h-71z" />
    <glyph glyph-name="Idotaccent" unicode="&#x130;" horiz-adv-x="272" 
d="M117 0h-66l123 700h66zM182 762l16 87h72l-15 -87h-73z" />
    <glyph glyph-name="dotlessi" unicode="&#x131;" horiz-adv-x="237" 
d="M96 0h-62l93 525h62z" />
    <glyph glyph-name="IJ" unicode="&#x132;" horiz-adv-x="544" 
d="M507 700l-117 -661c-18 -102 -22 -135 -188 -177l-15 54c122 35 126 53 138 121l117 663h65zM116 0h-65l123 700h65z" />
    <glyph glyph-name="ij" unicode="&#x133;" horiz-adv-x="475" 
d="M379 639l16 87h72l-16 -87h-72zM426 525l-98 -556c-19 -102 -24 -135 -188 -177l-15 51c123 36 128 55 140 124l99 558h62zM96 0h-62l93 525h62zM143 639l15 87h71l-14 -87h-72z" />
    <glyph glyph-name="Jcircumflex" unicode="&#x134;" horiz-adv-x="272" 
d="M239 700l-117 -661c-18 -102 -23 -135 -188 -177l-16 54c122 35 127 53 139 121l117 663h65zM279 880l75 -128h-46l-73 90l-102 -90h-53l117 128h82z" />
    <glyph glyph-name="jcircumflex" unicode="&#x135;" horiz-adv-x="237" 
d="M190 525l-99 -556c-18 -102 -23 -135 -188 -177l-15 51c123 36 128 55 140 124l100 558h62zM234 729l75 -128h-46l-72 90l-103 -90h-53l119 128h80z" />
    <glyph glyph-name="Kcommaaccent" unicode="&#x136;" horiz-adv-x="640" 
d="M51 0l123 700h65l-72 -408l410 408h84l-343 -339l253 -361h-74l-222 319l-125 -123l-34 -196h-65zM207 -154l15 89h69l-5 -91l-82 -108l-20 23l55 87h-32z" />
    <glyph glyph-name="kcommaaccent" unicode="&#x137;" horiz-adv-x="506" 
d="M497 525l-216 -214l154 -311h-63l-134 267l-115 -113l-27 -154h-62l129 729h62l-87 -493l282 289h77zM150 -154l16 89h70l-6 -91l-82 -108l-20 23l56 87h-34z" />
    <glyph glyph-name="kgreenlandic" unicode="&#x138;" horiz-adv-x="506" 
d="M497 525l-216 -214l154 -311h-63l-134 267l-115 -113l-27 -154h-62l93 525h62l-51 -289l282 289h77z" />
    <glyph glyph-name="Lacute" unicode="&#x139;" horiz-adv-x="539" 
d="M203 752h-57l137 128h103zM465 0h-414l123 700h66l-115 -643h348z" />
    <glyph glyph-name="lacute" unicode="&#x13a;" horiz-adv-x="248" 
d="M196 781h-57l137 128h102zM102 0h-62l129 729h62z" />
    <glyph glyph-name="Lcommaaccent" unicode="&#x13b;" horiz-adv-x="539" 
d="M195 -154l15 89h69l-5 -91l-82 -108l-20 23l56 87h-33zM464 0h-413l123 700h65l-114 -643h348z" />
    <glyph glyph-name="lcommaaccent" unicode="&#x13c;" horiz-adv-x="248" 
d="M8 -154l16 89h69l-5 -91l-83 -108l-19 23l55 87h-33zM101 0h-62l128 729h62z" />
    <glyph glyph-name="Lcaron" unicode="&#x13d;" horiz-adv-x="539" 
d="M286 611l15 89h70l-5 -91l-83 -108l-19 23l56 87h-34zM464 0h-413l123 700h65l-114 -643h348z" />
    <glyph glyph-name="lcaron" unicode="&#x13e;" horiz-adv-x="260" 
d="M278 640l15 89h70l-5 -91l-83 -108l-19 23l56 87h-34zM103 0h-63l129 729h63z" />
    <glyph glyph-name="Ldot" unicode="&#x13f;" horiz-adv-x="541" 
d="M464 0h-413l123 700h65l-114 -643h348zM386 318l14 87h73l-14 -87h-73z" />
    <glyph glyph-name="ldot" unicode="&#x140;" horiz-adv-x="268" 
d="M103 0h-63l129 729h63zM220 318l15 87h73l-15 -87h-73z" />
    <glyph glyph-name="Lslash" unicode="&#x141;" horiz-adv-x="551" 
d="M474 0h-413l49 280l-80 -40l12 65l80 40l62 355h65l-57 -319l151 77l-11 -66l-151 -76l-46 -259h349z" />
    <glyph glyph-name="lslash" unicode="&#x142;" horiz-adv-x="266" 
d="M112 0h-63l55 313l-74 -37l11 65l75 38l62 350h63l-56 -315l76 39l-11 -66l-77 -39z" />
    <glyph glyph-name="Nacute" unicode="&#x143;" horiz-adv-x="722" 
d="M498 0l-274 610l-107 -610h-66l123 700h68l274 -611l108 611h65l-123 -700h-68zM433 752h-57l137 128h104z" />
    <glyph glyph-name="nacute" unicode="&#x144;" 
d="M190 525l-13 -74c41 28 139 85 225 85c105 0 140 -71 124 -164l-66 -372h-62l65 366c11 65 -1 117 -75 117c-78 0 -179 -61 -222 -93l-69 -390h-63l93 525h63zM341 601h-58l138 128h102z" />
    <glyph glyph-name="Ncommaaccent" unicode="&#x145;" horiz-adv-x="722" 
d="M242 700l274 -611l108 611h65l-123 -700h-68l-275 612l-107 -612h-65l123 700h68zM252 -154l15 89h70l-5 -91l-83 -108l-20 23l56 87h-33z" />
    <glyph glyph-name="ncommaaccent" unicode="&#x146;" 
d="M189 525l-14 -75c40 28 139 86 226 86c106 0 141 -71 124 -164l-65 -372h-63l65 366c12 65 0 117 -75 117c-77 0 -181 -62 -222 -94l-69 -389h-62l93 525h62zM185 -154l15 89h69l-5 -91l-82 -108l-20 23l56 87h-33z" />
    <glyph glyph-name="Ncaron" unicode="&#x147;" horiz-adv-x="722" 
d="M498 0l-274 610l-107 -610h-66l123 700h68l274 -611l108 611h65l-123 -700h-68zM407 752l-75 128h46l73 -89l102 89h53l-117 -128h-82z" />
    <glyph glyph-name="ncaron" unicode="&#x148;" 
d="M190 525l-13 -74c41 28 139 85 225 85c105 0 140 -71 124 -164l-66 -372h-62l65 366c11 65 -1 117 -75 117c-78 0 -179 -61 -222 -93l-69 -390h-63l93 525h63zM311 601l-75 128h45l73 -89l103 89h54l-119 -128h-81z" />
    <glyph glyph-name="napostrophe" unicode="&#x149;" 
d="M190 525l-13 -74c41 28 139 85 225 85c105 0 140 -71 124 -164l-66 -372h-62l65 366c11 65 -1 117 -75 117c-78 0 -179 -61 -222 -93l-69 -390h-63l93 525h63zM156 690l16 89h70l-6 -92l-82 -107l-21 23l57 87h-34z" />
    <glyph glyph-name="Eng" unicode="&#x14a;" horiz-adv-x="722" 
d="M689 700l-117 -666c-18 -99 -26 -131 -188 -172l-16 54c82 25 117 38 130 82l-275 614l-107 -612h-65l123 700h68l274 -611l108 611h65z" />
    <glyph glyph-name="eng" unicode="&#x14b;" 
d="M454 -31c-18 -102 -23 -135 -187 -177l-15 51c123 36 128 55 140 124l71 399c11 65 -1 117 -76 117c-77 0 -181 -62 -222 -94l-69 -389h-62l93 525h62l-14 -75c40 28 139 86 226 86c106 0 141 -71 124 -164z" />
    <glyph glyph-name="Omacron" unicode="&#x14c;" horiz-adv-x="742" 
d="M414 711c200 0 273 -129 274 -293c1 -180 -105 -429 -344 -429c-201 0 -273 128 -273 292c-1 181 104 430 343 430zM343 46c195 0 278 230 278 373c0 105 -30 234 -205 234c-196 0 -279 -230 -279 -373c0 -105 31 -234 206 -234zM312 777l7 46h285l-8 -46h-284z" />
    <glyph glyph-name="omacron" unicode="&#x14d;" horiz-adv-x="601" 
d="M313 536c146 0 227 -86 227 -225c0 -180 -108 -322 -265 -322c-146 0 -227 86 -227 225c0 180 108 322 265 322zM274 42c127 0 202 132 202 269c0 98 -44 172 -162 172c-127 0 -202 -132 -202 -269c0 -99 44 -172 162 -172zM216 626l7 45h285l-7 -45h-285z" />
    <glyph glyph-name="Obreve" unicode="&#x14e;" horiz-adv-x="742" 
d="M414 711c200 0 273 -129 274 -293c1 -180 -105 -429 -344 -429c-201 0 -273 128 -273 292c-1 181 104 430 343 430zM343 46c195 0 278 230 278 373c0 105 -30 234 -205 234c-196 0 -279 -230 -279 -373c0 -105 31 -234 206 -234zM449 752c-81 0 -125 41 -114 103h49
c-6 -41 16 -57 66 -57c51 0 94 16 101 57h51c-10 -63 -65 -103 -153 -103z" />
    <glyph glyph-name="obreve" unicode="&#x14f;" horiz-adv-x="601" 
d="M313 536c146 0 227 -86 227 -225c0 -180 -108 -322 -265 -322c-146 0 -227 86 -227 225c0 180 108 322 265 322zM274 42c127 0 202 132 202 269c0 98 -44 172 -162 172c-127 0 -202 -132 -202 -269c0 -99 44 -172 162 -172zM354 601c-82 0 -126 41 -115 103h49
c-5 -41 16 -57 67 -57s93 16 101 57h51c-11 -63 -65 -103 -153 -103z" />
    <glyph glyph-name="Ohungarumlaut" unicode="&#x150;" horiz-adv-x="742" 
d="M414 711c200 0 273 -129 274 -293c1 -180 -105 -429 -344 -429c-201 0 -273 128 -273 292c-1 181 104 430 343 430zM343 46c195 0 278 230 278 373c0 105 -30 234 -205 234c-196 0 -279 -230 -279 -373c0 -105 31 -234 206 -234zM526 752h-44l94 128h88zM384 752h-43
l93 128h88z" />
    <glyph glyph-name="ohungarumlaut" unicode="&#x151;" horiz-adv-x="601" 
d="M313 536c146 0 227 -86 227 -225c0 -180 -108 -322 -265 -322c-146 0 -227 86 -227 225c0 180 108 322 265 322zM274 42c127 0 202 132 202 269c0 98 -44 172 -162 172c-127 0 -202 -132 -202 -269c0 -99 44 -172 162 -172zM429 601h-43l93 128h89zM287 601h-43l92 128
h90z" />
    <glyph glyph-name="OE" unicode="&#x152;" horiz-adv-x="1100" 
d="M990 0h-430l17 96c-56 -64 -132 -107 -232 -107c-201 0 -273 128 -273 292c-1 181 104 430 343 430c131 0 208 -56 245 -141l23 130h423l-9 -57h-359l-47 -265h298l-10 -56h-298l-47 -265h365zM344 46c195 0 278 230 278 373c0 105 -30 234 -205 234
c-196 0 -279 -230 -279 -373c0 -105 31 -234 206 -234z" />
    <glyph glyph-name="oe" unicode="&#x153;" horiz-adv-x="978" 
d="M933 402c0 -111 -108 -173 -334 -173h-63v-15c0 -110 49 -173 134 -173c76 0 158 51 197 73l27 -47c-45 -25 -136 -78 -230 -78c-83 0 -148 41 -177 124c-46 -76 -121 -124 -212 -124c-146 0 -227 86 -227 225c0 180 108 322 265 322c108 0 180 -47 211 -128
c50 79 134 128 238 128c112 0 171 -59 171 -134zM274 42c127 0 202 132 202 269c0 98 -44 172 -162 172c-127 0 -202 -132 -202 -269c0 -99 44 -172 162 -172zM758 485c-108 0 -195 -87 -217 -210h65c181 0 263 50 263 127c0 53 -47 83 -111 83z" />
    <glyph glyph-name="Racute" unicode="&#x154;" horiz-adv-x="677" 
d="M495 0l-133 305h-192l-53 -305h-66l123 700h256c127 0 226 -48 226 -172c0 -134 -103 -208 -233 -221l140 -307h-68zM587 527c0 85 -67 117 -160 117h-197l-50 -283h193c128 0 214 56 214 166zM426 752h-58l139 128h102z" />
    <glyph glyph-name="racute" unicode="&#x155;" horiz-adv-x="374" 
d="M190 525l-21 -113c10 16 82 129 220 119l-11 -60c-168 0 -227 -167 -227 -167l-54 -304h-63l93 525h63zM258 601h-57l137 128h103z" />
    <glyph glyph-name="Rcommaaccent" unicode="&#x156;" horiz-adv-x="677" 
d="M495 0l-133 305h-192l-54 -305h-65l123 700h255c128 0 227 -48 227 -172c0 -135 -104 -208 -234 -221l141 -307h-68zM587 527c0 85 -67 117 -160 117h-197l-51 -283h193c129 0 215 56 215 166zM223 -154l15 89h70l-5 -91l-83 -108l-19 23l55 87h-33z" />
    <glyph glyph-name="rcommaaccent" unicode="&#x157;" horiz-adv-x="374" 
d="M190 525l-21 -113c10 16 82 129 220 119l-10 -60c-170 0 -228 -167 -228 -167l-54 -304h-62l93 525h62zM3 -154l16 89h69l-6 -91l-82 -108l-20 23l56 87h-33z" />
    <glyph glyph-name="Rcaron" unicode="&#x158;" horiz-adv-x="677" 
d="M495 0l-133 305h-192l-53 -305h-66l123 700h256c127 0 226 -48 226 -172c0 -134 -103 -208 -233 -221l140 -307h-68zM587 527c0 85 -67 117 -160 117h-197l-50 -283h193c128 0 214 56 214 166zM399 752l-73 128h44l74 -89l102 89h53l-118 -128h-82z" />
    <glyph glyph-name="rcaron" unicode="&#x159;" horiz-adv-x="374" 
d="M190 525l-21 -113c10 16 82 129 220 119l-11 -60c-168 0 -227 -167 -227 -167l-54 -304h-63l93 525h63zM231 601l-73 128h44l73 -89l103 89h53l-118 -128h-82z" />
    <glyph glyph-name="Sacute" unicode="&#x15a;" horiz-adv-x="605" 
d="M369 752h-56l137 128h102zM338 389c100 -40 194 -82 194 -198c0 -133 -123 -202 -251 -202c-107 0 -207 48 -266 86l39 48c54 -34 139 -77 228 -77c100 0 184 52 184 138s-83 115 -181 153c-95 39 -176 75 -176 182c0 121 106 192 236 192c93 0 182 -36 241 -70l-38 -45
c-58 32 -141 58 -205 58c-87 0 -166 -45 -166 -131c0 -75 59 -93 161 -134z" />
    <glyph glyph-name="sacute" unicode="&#x15b;" horiz-adv-x="506" 
d="M294 601h-58l137 128h103zM264 295c100 -35 164 -65 164 -151c0 -103 -95 -155 -202 -155c-90 0 -172 39 -218 68l35 43c48 -28 117 -59 182 -59c69 0 139 33 139 99c0 63 -64 79 -138 103c-71 23 -150 52 -150 144c0 96 88 149 191 149c78 0 156 -32 198 -57l-33 -43
c-45 25 -106 48 -164 48c-70 0 -129 -33 -129 -92c0 -62 66 -77 125 -97z" />
    <glyph glyph-name="Scircumflex" unicode="&#x15c;" horiz-adv-x="605" 
d="M447 880l73 -128h-45l-72 90l-103 -90h-54l119 128h82zM338 389c100 -40 194 -82 194 -198c0 -133 -123 -202 -251 -202c-107 0 -207 48 -266 86l39 48c54 -34 139 -77 228 -77c100 0 184 52 184 138s-83 115 -181 153c-95 39 -176 75 -176 182c0 121 106 192 236 192
c93 0 182 -36 241 -70l-38 -45c-58 32 -141 58 -205 58c-87 0 -166 -45 -166 -131c0 -75 59 -93 161 -134z" />
    <glyph glyph-name="scircumflex" unicode="&#x15d;" horiz-adv-x="506" 
d="M370 729l75 -128h-45l-74 90l-102 -90h-54l120 128h80zM264 295c100 -35 164 -65 164 -151c0 -103 -95 -155 -202 -155c-90 0 -172 39 -218 68l35 43c48 -28 117 -59 182 -59c69 0 139 33 139 99c0 63 -64 79 -138 103c-71 23 -150 52 -150 144c0 96 88 149 191 149
c78 0 156 -32 198 -57l-33 -43c-45 25 -106 48 -164 48c-70 0 -129 -33 -129 -92c0 -62 66 -77 125 -97z" />
    <glyph glyph-name="Scedilla" unicode="&#x15e;" horiz-adv-x="605" 
d="M338 389c100 -40 194 -82 194 -198c0 -128 -114 -196 -237 -201c9 -14 20 -38 20 -66c0 -55 -39 -92 -107 -92c-27 0 -55 6 -78 18l24 41c20 -10 38 -13 53 -13c32 0 64 16 64 59c0 20 -7 41 -11 53c-99 6 -191 49 -245 85l38 48c55 -34 140 -77 228 -77
c101 0 185 52 185 138s-83 115 -181 153c-95 39 -176 75 -176 182c0 121 106 192 236 192c92 0 182 -36 241 -70l-38 -45c-58 32 -141 58 -205 58c-87 0 -166 -45 -166 -131c0 -75 59 -93 161 -134z" />
    <glyph glyph-name="scedilla" unicode="&#x15f;" horiz-adv-x="506" 
d="M264 295c100 -35 164 -65 164 -151c0 -98 -85 -149 -185 -154c9 -14 20 -38 20 -66c0 -55 -39 -92 -107 -92c-25 0 -55 6 -78 18l23 41c20 -10 41 -13 55 -13c31 0 62 16 62 59c0 20 -7 40 -11 53c-83 5 -157 40 -199 67l35 43c48 -28 117 -59 182 -59
c69 0 139 33 139 99c0 63 -64 79 -138 103c-71 23 -150 52 -150 144c0 96 88 149 191 149c78 0 156 -32 198 -57l-33 -43c-45 25 -106 48 -164 48c-70 0 -129 -33 -129 -92c0 -62 66 -77 125 -97z" />
    <glyph glyph-name="Scaron" unicode="&#x160;" horiz-adv-x="605" 
d="M343 752l-74 128h46l72 -89l103 89h53l-118 -128h-82zM338 389c100 -40 194 -82 194 -198c0 -133 -123 -202 -251 -202c-107 0 -207 48 -266 86l39 48c54 -34 139 -77 228 -77c100 0 184 52 184 138s-83 115 -181 153c-95 39 -176 75 -176 182c0 121 106 192 236 192
c93 0 182 -36 241 -70l-38 -45c-58 32 -141 58 -205 58c-87 0 -166 -45 -166 -131c0 -75 59 -93 161 -134z" />
    <glyph glyph-name="scaron" unicode="&#x161;" horiz-adv-x="506" 
d="M267 601l-75 128h46l73 -89l103 89h53l-120 -128h-80zM264 295c100 -35 164 -65 164 -151c0 -103 -95 -155 -202 -155c-90 0 -172 39 -218 68l35 43c48 -28 117 -59 182 -59c69 0 139 33 139 99c0 63 -64 79 -138 103c-71 23 -150 52 -150 144c0 96 88 149 191 149
c78 0 156 -32 198 -57l-33 -43c-45 25 -106 48 -164 48c-70 0 -129 -33 -129 -92c0 -62 66 -77 125 -97z" />
    <glyph glyph-name="Tcedilla" unicode="&#x162;" horiz-adv-x="561" 
d="M596 643h-223l-113 -643h-17c5 -6 26 -37 26 -76c0 -55 -39 -92 -107 -92c-25 0 -54 6 -77 18l23 41c20 -10 41 -13 54 -13c31 0 63 16 63 59c0 27 -12 56 -15 63h-15l113 643h-222l9 57h510z" />
    <glyph glyph-name="tcedilla" unicode="&#x163;" horiz-adv-x="363" 
d="M65 475l8 50h73l23 132l66 20l-27 -152h145l-9 -50h-145l-66 -373c-8 -45 11 -58 39 -58c32 0 87 21 109 30l18 -51c-20 -8 -83 -30 -123 -33c8 -14 19 -38 19 -66c0 -55 -39 -92 -107 -92c-25 0 -55 6 -77 18l23 41c20 -10 40 -13 53 -13c32 0 64 16 64 59
c0 20 -7 42 -12 54c-45 8 -81 39 -66 121l64 363h-72z" />
    <glyph glyph-name="Tcaron" unicode="&#x164;" horiz-adv-x="561" 
d="M320 752l-74 128h46l72 -89l103 89h53l-119 -128h-81zM597 643h-224l-113 -643h-65l113 643h-222l9 57h511z" />
    <glyph glyph-name="tcaron" unicode="&#x165;" horiz-adv-x="361" 
d="M63 475l9 50h72l24 132l65 20l-27 -152h145l-9 -50h-145l-66 -373c-8 -45 10 -58 40 -58c31 0 86 21 109 30l17 -51c-21 -9 -95 -34 -135 -34c-55 0 -108 27 -91 123l64 363h-72zM305 690l15 89h70l-5 -92l-83 -107l-20 23l57 87h-34z" />
    <glyph glyph-name="Tbar" unicode="&#x166;" horiz-adv-x="572" 
d="M128 235l7 45h113l64 363h-221l9 57h510l-9 -57h-223l-65 -363h113l-8 -45h-113l-41 -235h-65l41 235h-112z" />
    <glyph glyph-name="tbar" unicode="&#x167;" horiz-adv-x="363" 
d="M66 475l9 50h71l24 132l65 20l-27 -152h146l-9 -50h-146l-25 -142h114l-8 -46h-114l-32 -185c-8 -45 11 -58 40 -58c30 0 87 21 108 30l17 -51c-21 -9 -94 -34 -133 -34c-56 0 -110 27 -93 123l31 175h-51l7 46h52l25 142h-71z" />
    <glyph glyph-name="Utilde" unicode="&#x168;" horiz-adv-x="696" 
d="M326 765l-35 21c31 46 53 71 92 71c52 0 79 -49 113 -49c15 0 28 6 57 46l35 -22c-31 -46 -53 -71 -92 -71c-51 0 -79 49 -113 49c-15 0 -28 -5 -57 -45zM669 700l-80 -457c-24 -139 -102 -254 -293 -254s-234 112 -208 262l79 449h66l-81 -453
c-19 -111 -5 -200 143 -200c149 0 209 89 229 200l80 453h65z" />
    <glyph glyph-name="utilde" unicode="&#x169;" 
d="M393 0l13 73c-42 -29 -139 -84 -225 -84c-106 0 -140 71 -124 164l66 372h62l-65 -366c-11 -65 2 -117 75 -117c79 0 181 61 222 92l69 391h62l-93 -525h-62zM248 614l-35 21c31 46 53 71 92 71c51 0 79 -49 113 -49c15 0 28 6 57 46l35 -22c-31 -46 -53 -71 -92 -71
c-52 0 -79 49 -113 49c-15 0 -28 -5 -57 -45z" />
    <glyph glyph-name="Umacron" unicode="&#x16a;" horiz-adv-x="696" 
d="M669 700l-80 -457c-24 -139 -102 -254 -293 -254s-234 112 -208 262l79 449h66l-81 -453c-19 -111 -5 -200 143 -200c149 0 209 89 229 200l80 453h65zM290 777l8 46h285l-8 -46h-285z" />
    <glyph glyph-name="umacron" unicode="&#x16b;" 
d="M393 0l13 73c-42 -29 -139 -84 -225 -84c-106 0 -140 71 -124 164l66 372h62l-65 -366c-11 -65 2 -117 75 -117c79 0 181 61 222 92l69 391h62l-93 -525h-62zM210 626l8 46h284l-8 -46h-284z" />
    <glyph glyph-name="Ubreve" unicode="&#x16c;" horiz-adv-x="696" 
d="M428 752c-82 0 -126 41 -115 103h49c-6 -41 16 -57 67 -57s93 16 101 57h50c-10 -63 -65 -103 -152 -103zM669 700l-80 -457c-24 -139 -102 -254 -293 -254s-234 112 -208 262l79 449h66l-81 -453c-19 -111 -5 -200 143 -200c149 0 209 89 229 200l80 453h65z" />
    <glyph glyph-name="ubreve" unicode="&#x16d;" 
d="M393 0l13 73c-42 -29 -139 -84 -225 -84c-106 0 -140 71 -124 164l66 372h62l-65 -366c-11 -65 2 -117 75 -117c79 0 181 61 222 92l69 391h62l-93 -525h-62zM348 601c-82 0 -126 40 -115 102h49c-5 -41 16 -57 67 -57s93 16 101 57h51c-11 -63 -65 -102 -153 -102z" />
    <glyph glyph-name="Uring" unicode="&#x16e;" horiz-adv-x="696" 
d="M343 843c0 57 45 102 101 102c57 0 102 -45 102 -102c0 -56 -45 -101 -102 -101c-56 0 -101 45 -101 101zM384 843c0 -34 26 -60 60 -60c35 0 62 26 62 60c0 35 -27 62 -62 62c-34 0 -60 -27 -60 -62zM669 700l-80 -457c-24 -139 -102 -254 -293 -254s-234 112 -208 262
l79 449h66l-81 -453c-19 -111 -5 -200 143 -200c149 0 209 89 229 200l80 453h65z" />
    <glyph glyph-name="uring" unicode="&#x16f;" 
d="M393 0l13 73c-42 -29 -139 -84 -225 -84c-106 0 -140 71 -124 164l66 372h62l-65 -366c-11 -65 2 -117 75 -117c79 0 181 61 222 92l69 391h62l-93 -525h-62zM264 692c0 57 44 102 100 102c57 0 102 -45 102 -102c0 -56 -45 -101 -102 -101c-56 0 -100 45 -100 101z
M304 692c0 -34 26 -60 60 -60c35 0 62 26 62 60c0 35 -27 62 -62 62c-34 0 -60 -27 -60 -62z" />
    <glyph glyph-name="Uhungarumlaut" unicode="&#x170;" horiz-adv-x="696" 
d="M669 700l-80 -457c-24 -139 -102 -254 -293 -254s-234 112 -208 262l79 449h66l-81 -453c-19 -111 -5 -200 143 -200c149 0 209 89 229 200l80 453h65zM504 752h-44l93 128h90zM362 752h-43l92 128h90z" />
    <glyph glyph-name="uhungarumlaut" unicode="&#x171;" 
d="M393 0l13 73c-42 -29 -139 -84 -225 -84c-106 0 -140 71 -124 164l66 372h62l-65 -366c-11 -65 2 -117 75 -117c79 0 181 61 222 92l69 391h62l-93 -525h-62zM281 601h-43l94 128h88zM423 601h-43l94 128h88z" />
    <glyph glyph-name="Uogonek" unicode="&#x172;" horiz-adv-x="696" 
d="M268 -105c0 -32 43 -30 76 -30l-16 -44c-37 0 -115 0 -115 66c0 42 35 74 91 102h-9c-191 0 -233 112 -207 262l79 449h66l-81 -453c-20 -111 -6 -200 143 -200s209 89 229 200l80 453h65l-80 -457c-21 -115 -77 -214 -205 -244c-80 -40 -116 -69 -116 -104z" />
    <glyph glyph-name="uogonek" unicode="&#x173;" 
d="M393 0l13 74c-41 -29 -138 -85 -225 -85c-106 0 -140 71 -124 164l66 372h62l-65 -366c-11 -65 1 -117 75 -117c79 0 181 61 221 92l70 391h62l-93 -525h-3c-81 -40 -118 -70 -118 -105c0 -32 41 -30 75 -30l-16 -44c-37 0 -113 0 -113 66c0 48 44 82 114 113h-1z" />
    <glyph glyph-name="Wcircumflex" unicode="&#x174;" horiz-adv-x="924" 
d="M567 0l-51 610l-268 -610h-73l-68 700h70l48 -621l272 621h66l49 -625l267 625h75l-315 -700h-72zM603 880l74 -128h-45l-73 90l-103 -90h-53l119 128h81z" />
    <glyph glyph-name="wcircumflex" unicode="&#x175;" horiz-adv-x="797" 
d="M479 0l-52 449l-216 -449h-64l-72 525h65l51 -457l215 457h62l50 -459l212 459h69l-256 -525h-64zM514 729l75 -128h-46l-72 90l-103 -90h-53l118 128h81z" />
    <glyph glyph-name="ycircumflex" unicode="&#x177;" horiz-adv-x="543" 
d="M69 525h65l92 -448l253 448h70l-421 -729h-71l126 210zM386 729l75 -128h-46l-73 90l-102 -90h-53l117 128h82z" />
    <glyph glyph-name="Ydieresis" unicode="&#x178;" horiz-adv-x="620" 
d="M222 0l49 279l-181 421h68l150 -372l278 372h79l-330 -424l-48 -276h-65zM270 762l15 87h72l-15 -87h-72zM434 762l15 87h72l-15 -87h-72z" />
    <glyph glyph-name="Zacute" unicode="&#x179;" horiz-adv-x="607" 
d="M503 0h-513l9 53l527 590h-400l10 57h485l-8 -53l-529 -590h429zM374 752h-57l137 128h104z" />
    <glyph glyph-name="zacute" unicode="&#x17a;" horiz-adv-x="494" 
d="M-8 0l9 51l396 420h-311l9 54h391l-8 -51l-395 -420h320l-10 -54h-401zM286 601h-57l136 128h104z" />
    <glyph glyph-name="Zdotaccent" unicode="&#x17b;" horiz-adv-x="607" 
d="M-10 0l9 53l527 590h-400l10 57h485l-8 -53l-529 -590h429l-10 -57h-513zM354 762l15 87h72l-14 -87h-73z" />
    <glyph glyph-name="zdotaccent" unicode="&#x17c;" horiz-adv-x="494" 
d="M-8 0l9 51l396 420h-311l9 54h391l-8 -51l-395 -420h320l-10 -54h-401zM264 611l15 87h72l-15 -87h-72z" />
    <glyph glyph-name="Zcaron" unicode="&#x17d;" horiz-adv-x="607" 
d="M503 0h-513l9 53l527 590h-400l10 57h485l-8 -53l-529 -590h429zM347 752l-74 128h45l73 -89l102 89h54l-118 -128h-82z" />
    <glyph glyph-name="zcaron" unicode="&#x17e;" horiz-adv-x="494" 
d="M-8 0l9 51l396 420h-311l9 54h391l-8 -51l-395 -420h320l-10 -54h-401zM259 601l-74 128h45l74 -89l103 89h53l-120 -128h-81z" />
    <glyph glyph-name="longs" unicode="&#x17f;" horiz-adv-x="280" 
d="M69 475l9 50h71l16 88c14 84 46 116 118 116c48 0 124 -24 149 -34l-29 -44c-21 7 -86 23 -114 23c-41 0 -55 -27 -62 -61l-105 -603c-25 -142 -31 -175 -195 -218l-15 52c123 35 128 55 146 164l82 467h-71z" />
    <glyph glyph-name="florin" unicode="&#x192;" horiz-adv-x="528" 
d="M161 475l20 50h73l37 88c38 92 75 116 136 116c51 0 122 -27 152 -39l-38 -42c-22 7 -83 26 -112 25c-29 0 -56 -14 -74 -57l-38 -91h143l-20 -50h-143l-281 -679h-63l281 679h-73z" />
    <glyph glyph-name="AEacute" unicode="&#x1fc;" horiz-adv-x="980" 
d="M547 700h439l-10 -57h-359l-47 -265h298l-11 -56h-297l-48 -265h366l-9 -57h-430l31 182h-287l-153 -182h-86zM230 238h250l66 375zM600 752h-58l137 128h104z" />
    <glyph glyph-name="aeacute" unicode="&#x1fd;" horiz-adv-x="925" 
d="M459 0h-62l15 87c-46 -44 -123 -98 -210 -98c-75 0 -153 47 -153 184c0 208 99 363 245 363c81 0 142 -52 181 -90l14 79h62l-7 -39c45 32 100 50 163 50c112 0 172 -59 172 -134c0 -111 -109 -173 -335 -173h-61v-15c0 -110 47 -173 133 -173c77 0 159 51 197 73l28 -47
c-46 -25 -136 -78 -231 -78c-59 0 -109 20 -143 61zM213 42c83 0 150 53 210 108c-4 21 -5 43 -5 67c0 67 16 129 44 179c-42 44 -97 86 -159 86c-119 0 -189 -152 -189 -303c0 -84 34 -137 99 -137zM704 485c-107 0 -194 -87 -216 -210h63c183 0 265 50 265 127
c0 53 -48 83 -112 83zM519 601h-57l136 128h104z" />
    <glyph glyph-name="Oslashacute" unicode="&#x1fe;" horiz-adv-x="741" 
d="M725 700l-85 -94c33 -50 47 -116 48 -188c1 -180 -105 -429 -344 -429c-90 0 -154 26 -198 69l-52 -58h-62l85 94c-32 50 -46 115 -46 187c-1 181 104 430 343 430c90 0 154 -26 197 -69l53 58h61zM343 46c195 0 278 230 278 373c0 45 -6 95 -26 137l-407 -451
c31 -36 80 -59 155 -59zM138 280c0 -45 5 -94 25 -135l406 450c-31 35 -79 58 -153 58c-196 0 -278 -230 -278 -373zM436 752h-57l137 128h103z" />
    <glyph glyph-name="oslashacute" unicode="&#x1ff;" horiz-adv-x="602" 
d="M508 525h59l-67 -72c26 -37 40 -85 40 -142c0 -180 -108 -322 -265 -322c-67 0 -120 18 -158 51l-37 -40h-58l66 71c-27 37 -40 86 -40 143c0 180 108 322 265 322c67 0 120 -18 158 -51zM112 214c0 -36 6 -69 19 -96l300 324c-26 25 -64 41 -117 41
c-127 0 -202 -132 -202 -269zM274 42c127 0 202 132 202 269c0 36 -6 68 -19 95l-301 -324c26 -25 64 -40 118 -40zM520 729l-182 -128h-57l137 128h102z" />
    <glyph glyph-name="Scommaaccent" unicode="&#x218;" horiz-adv-x="605" 
d="M190 -154l15 89h70l-5 -91l-83 -108l-20 23l57 87h-34zM338 389c100 -40 194 -82 194 -198c0 -133 -123 -202 -251 -202c-107 0 -208 48 -266 86l38 48c55 -34 140 -77 228 -77c101 0 185 52 185 138s-83 115 -181 153c-95 39 -176 75 -176 182c0 121 106 192 236 192
c92 0 182 -36 241 -70l-38 -45c-58 32 -141 58 -205 58c-87 0 -166 -45 -166 -131c0 -75 59 -93 161 -134z" />
    <glyph glyph-name="scommaaccent" unicode="&#x219;" horiz-adv-x="506" 
d="M139 -154l15 89h68l-4 -91l-82 -108l-20 23l55 87h-32zM264 295c100 -35 164 -65 164 -151c0 -103 -95 -155 -202 -155c-90 0 -172 39 -218 68l35 43c48 -28 117 -59 182 -59c69 0 139 33 139 99c0 63 -64 79 -138 103c-71 23 -150 52 -150 144c0 96 88 149 191 149
c78 0 156 -32 198 -57l-33 -43c-45 25 -106 48 -164 48c-70 0 -129 -33 -129 -92c0 -62 66 -77 125 -97z" />
    <glyph glyph-name="uni021a" unicode="&#x21a;" horiz-adv-x="561" 
d="M165 -154l15 89h70l-5 -91l-83 -108l-20 23l56 87h-33zM596 643h-223l-113 -643h-66l114 643h-222l9 57h510z" />
    <glyph glyph-name="uni021b" unicode="&#x21b;" horiz-adv-x="362" 
d="M64 475l9 50h72l24 132l65 20l-27 -152h145l-9 -50h-145l-66 -373c-8 -45 10 -58 40 -58c31 0 86 21 109 30l18 -51c-22 -9 -96 -34 -136 -34c-54 0 -108 27 -91 123l64 363h-72zM52 -154l15 89h70l-6 -91l-82 -108l-20 23l56 87h-33z" />
    <glyph glyph-name="hsuperior" unicode="&#x2b0;" horiz-adv-x="391" 
d="M201 822l-30 -165c26 17 85 50 139 50c67 0 90 -43 80 -102l-39 -220h-51l39 215c6 36 -1 65 -45 65c-47 0 -107 -34 -131 -53l-40 -227h-51l77 437h52z" />
    <glyph glyph-name="jsuperior" unicode="&#x2b2;" horiz-adv-x="192" 
d="M151 762l10 59h57l-10 -59h-57zM194 700l-58 -327c-11 -66 -15 -89 -126 -116l-13 40c76 22 81 33 88 73l58 330h51z" />
    <glyph glyph-name="wsuperior" unicode="&#x2b7;" horiz-adv-x="496" 
d="M343 385l-33 254l-127 -254h-50l-48 315h54l29 -263l126 263h49l31 -264l122 264h56l-158 -315h-51z" />
    <glyph glyph-name="ysuperior" unicode="&#x2b8;" horiz-adv-x="355" 
d="M49 299c66 20 87 33 119 86l-75 315h54l55 -256l146 256h60l-187 -315c-42 -72 -58 -101 -159 -128z" />
    <glyph glyph-name="circumflex" unicode="&#x2c6;" horiz-adv-x="269" 
d="M303 729l75 -128h-46l-72 90l-103 -90h-53l119 128h80z" />
    <glyph glyph-name="caron" unicode="&#x2c7;" horiz-adv-x="271" 
d="M202 601l-75 128h46l72 -89l103 89h53l-118 -128h-81z" />
    <glyph glyph-name="breve" unicode="&#x2d8;" horiz-adv-x="265" 
d="M238 601c-82 0 -126 41 -115 103h49c-5 -41 16 -57 67 -57s93 16 101 57h51c-11 -63 -66 -103 -153 -103z" />
    <glyph glyph-name="dotaccent" unicode="&#x2d9;" horiz-adv-x="75" 
d="M108 611l16 87h72l-15 -87h-73z" />
    <glyph glyph-name="ring" unicode="&#x2da;" horiz-adv-x="215" 
d="M60 692c0 57 45 102 101 102s102 -45 102 -102c0 -56 -46 -101 -102 -101s-101 45 -101 101zM100 692c0 -34 27 -60 61 -60s61 26 61 60c0 35 -27 62 -61 62s-61 -27 -61 -62z" />
    <glyph glyph-name="ogonek" unicode="&#x2db;" horiz-adv-x="149" 
d="M30 -105c0 -32 42 -30 75 -30l-16 -44c-38 0 -114 0 -114 66c0 53 56 90 141 124l35 -10c-84 -41 -121 -71 -121 -106z" />
    <glyph glyph-name="tilde" unicode="&#x2dc;" horiz-adv-x="289" 
d="M145 614l-35 21c31 46 53 71 92 71c52 0 79 -49 113 -49c15 0 28 6 57 46l35 -22c-31 -46 -53 -71 -92 -71c-51 0 -79 49 -113 49c-15 0 -28 -5 -57 -45z" />
    <glyph glyph-name="hungarumlaut" unicode="&#x2dd;" horiz-adv-x="299" 
d="M290 601h-43l92 128h90zM149 601h-44l93 128h89z" />
    <glyph glyph-name="xsuperior" unicode="&#x2e3;" horiz-adv-x="378" 
d="M315 385l-83 132l-127 -132h-69l166 158l-103 157h57l76 -129l122 129h67l-159 -157l109 -158h-56z" />
    <glyph glyph-name="pi" unicode="&#x3c0;" horiz-adv-x="556" 
d="M559 525l-10 -56h-89l-83 -469h-61l83 469h-185l-83 -469h-61l83 469h-88l10 56h484z" />
    <glyph glyph-name="Wgrave" unicode="&#x1e80;" horiz-adv-x="924" 
d="M567 0l-51 610l-268 -610h-73l-68 700h70l48 -621l272 621h66l49 -625l267 625h75l-315 -700h-72zM610 752h-50l-143 128h89z" />
    <glyph glyph-name="wgrave" unicode="&#x1e81;" horiz-adv-x="797" 
d="M479 0l-52 449l-216 -449h-64l-72 525h65l51 -457l215 457h62l50 -459l212 459h69l-256 -525h-64zM522 601h-50l-144 128h91z" />
    <glyph glyph-name="Wacute" unicode="&#x1e82;" horiz-adv-x="924" 
d="M567 0l-51 610l-268 -610h-73l-68 700h70l48 -621l272 621h66l49 -625l267 625h75l-315 -700h-72zM526 752h-57l137 128h103z" />
    <glyph glyph-name="wacute" unicode="&#x1e83;" horiz-adv-x="797" 
d="M479 0l-52 449l-216 -449h-64l-72 525h65l51 -457l215 457h62l50 -459l212 459h69l-256 -525h-64zM439 601h-57l137 128h102z" />
    <glyph glyph-name="Wdieresis" unicode="&#x1e84;" horiz-adv-x="924" 
d="M567 0l-51 610l-268 -610h-73l-68 700h70l48 -621l272 621h66l49 -625l267 625h75l-315 -700h-72zM421 752l16 86h73l-16 -86h-73zM586 752l15 86h72l-15 -86h-72z" />
    <glyph glyph-name="wdieresis" unicode="&#x1e85;" horiz-adv-x="797" 
d="M479 0l-52 449l-216 -449h-64l-72 525h65l51 -457l215 457h62l50 -459l212 459h69l-256 -525h-64zM336 611l15 87h72l-14 -87h-73zM500 611l16 87h70l-16 -87h-70z" />
    <glyph glyph-name="Ygrave" unicode="&#x1ef2;" horiz-adv-x="620" 
d="M222 0l49 279l-181 421h68l150 -372l278 372h79l-330 -424l-48 -276h-65zM457 752h-49l-143 128h88z" />
    <glyph glyph-name="ygrave" unicode="&#x1ef3;" horiz-adv-x="544" 
d="M-11 -154c113 36 142 60 196 154l-115 525h65l92 -451l253 451h70l-301 -525c-71 -123 -89 -163 -244 -208zM395 601h-50l-143 128h89z" />
    <glyph glyph-name="endash" unicode="&#x2013;" horiz-adv-x="564" 
d="M476 257h-402l10 56h401z" />
    <glyph glyph-name="emdash" unicode="&#x2014;" horiz-adv-x="667" 
d="M579 257h-505l10 56h503z" />
    <glyph glyph-name="quoteleft" unicode="&#x2018;" horiz-adv-x="231" 
d="M204 594l-17 -106h-77l8 109l91 123l20 -26l-61 -100h36z" />
    <glyph glyph-name="quoteright" unicode="&#x2019;" horiz-adv-x="223" 
d="M128 594l17 106h77l-8 -109l-91 -123l-20 26l61 100h-36z" />
    <glyph glyph-name="quotesinglbase" unicode="&#x201a;" horiz-adv-x="238" 
d="M28 0l18 106h77l-8 -110l-91 -122l-20 25l61 101h-37z" />
    <glyph glyph-name="quotedblleft" unicode="&#x201c;" horiz-adv-x="400" 
d="M204 594l-17 -106h-77l8 109l91 123l20 -26l-61 -100h36zM374 594l-18 -106h-77l8 109l91 123l20 -26l-61 -100h37z" />
    <glyph glyph-name="quotedblright" unicode="&#x201d;" horiz-adv-x="392" 
d="M297 594l18 106h76l-8 -109l-91 -123l-20 26l61 100h-36zM128 594l17 106h77l-8 -109l-91 -123l-20 26l61 100h-36z" />
    <glyph glyph-name="quotedblbase" unicode="&#x201e;" horiz-adv-x="407" 
d="M197 0l19 106h75l-7 -110l-91 -122l-20 25l61 101h-37zM28 0l18 106h77l-8 -110l-91 -122l-20 25l61 101h-37z" />
    <glyph glyph-name="dagger" unicode="&#x2020;" horiz-adv-x="566" 
d="M51 402l10 58l222 -8l44 248h52l-44 -248l226 8l-9 -58l-224 8l-108 -614h-52l108 614z" />
    <glyph glyph-name="daggerdbl" unicode="&#x2021;" horiz-adv-x="616" 
d="M75 402l10 58l222 -8l44 248h52l-44 -248l226 8l-9 -58l-224 8l-39 -220l226 8l-9 -58l-225 8l-62 -352h-52l62 352l-224 -8l10 58l222 -8l39 220z" />
    <glyph glyph-name="bullet" unicode="&#x2022;" horiz-adv-x="426" 
d="M91 284c0 66 52 120 119 120c66 0 120 -54 120 -120s-54 -119 -120 -119c-67 0 -119 53 -119 119z" />
    <glyph glyph-name="ellipsis" unicode="&#x2026;" horiz-adv-x="616" 
d="M28 0l19 106h78l-18 -106h-79zM219 0l18 106h78l-18 -106h-78zM408 0l19 106h77l-18 -106h-78z" />
    <glyph glyph-name="perthousand" unicode="&#x2030;" horiz-adv-x="1399" 
d="M277 711c106 0 168 -60 168 -155c0 -128 -78 -220 -192 -220c-106 0 -169 60 -169 155c0 128 81 220 193 220zM255 382c81 0 134 83 134 172c0 59 -24 111 -112 111c-82 0 -136 -83 -136 -172c0 -59 24 -111 114 -111zM749 364c105 0 168 -60 168 -155
c0 -128 -79 -220 -193 -220c-106 0 -169 60 -169 155c0 128 81 220 194 220zM727 35c80 0 133 83 133 172c0 59 -24 111 -111 111c-83 0 -137 -83 -137 -172c0 -59 24 -111 115 -111zM775 700l-489 -700h-60l489 700h60zM1165 364c106 0 168 -60 168 -155
c0 -128 -78 -220 -192 -220c-106 0 -169 60 -169 155c0 128 81 220 193 220zM1144 35c80 0 133 83 133 172c0 59 -24 111 -111 111c-83 0 -137 -83 -137 -172c0 -59 24 -111 115 -111z" />
    <glyph glyph-name="guilsinglleft" unicode="&#x2039;" horiz-adv-x="407" 
d="M32 261l7 43l342 225l-12 -72l-275 -181l211 -179l-10 -61z" />
    <glyph glyph-name="guilsinglright" unicode="&#x203a;" horiz-adv-x="406" 
d="M17 36l13 71l274 181l-210 180l10 61l262 -225l-7 -43z" />
    <glyph glyph-name="fraction" unicode="&#x2044;" horiz-adv-x="151" 
d="M341 700l-453 -700h-59l453 700h59z" />
    <glyph glyph-name="zerosuperior" unicode="&#x2070;" horiz-adv-x="434" 
d="M289 812c114 0 152 -85 152 -164c0 -101 -50 -270 -194 -270c-114 0 -152 85 -152 164c0 100 50 270 194 270zM247 421c107 0 140 162 140 233c0 51 -17 115 -98 115c-107 0 -141 -162 -141 -233c0 -51 18 -115 99 -115z" />
    <glyph glyph-name="foursuperior" unicode="&#x2074;" horiz-adv-x="414" 
d="M273 385l16 93h-225l6 39l261 288h71l-51 -283h66l-6 -44h-68l-17 -93h-53zM131 522h166l41 231z" />
    <glyph glyph-name="fivesuperior" unicode="&#x2075;" horiz-adv-x="385" 
d="M111 598l60 207h238l-7 -45h-195l-31 -122c20 8 44 14 72 14c83 0 130 -55 130 -124c0 -80 -65 -150 -173 -150c-72 0 -119 31 -143 48l28 35c14 -9 56 -37 110 -37c58 0 123 37 123 104c0 47 -30 80 -87 80c-42 0 -76 -17 -95 -27z" />
    <glyph glyph-name="sixsuperior" unicode="&#x2076;" horiz-adv-x="407" 
d="M362 767c-94 0 -173 -65 -204 -157c20 18 59 44 117 44c86 0 131 -59 131 -121c0 -78 -59 -155 -165 -155c-102 0 -149 75 -149 150c0 155 117 284 268 284c39 0 65 -10 65 -10l-19 -39s-18 4 -44 4zM265 612c-57 0 -103 -37 -119 -61c-1 -8 -1 -17 -1 -25
c0 -52 30 -103 94 -103c72 0 113 53 113 110c0 38 -26 79 -87 79z" />
    <glyph glyph-name="sevensuperior" unicode="&#x2077;" horiz-adv-x="334" 
d="M393 765c0 0 -194 -190 -228 -380h-58c33 178 208 362 221 375h-218l6 45h282z" />
    <glyph glyph-name="eightsuperior" unicode="&#x2078;" horiz-adv-x="411" 
d="M75 485c0 72 71 109 127 129c-31 17 -61 43 -61 88c0 65 64 110 148 110c77 0 128 -37 128 -94c0 -60 -57 -91 -102 -109c43 -19 89 -51 89 -107c0 -74 -83 -124 -181 -124c-88 0 -148 37 -148 107zM348 503c0 46 -49 71 -90 88c-59 -18 -128 -46 -128 -104
c0 -44 37 -66 92 -66c64 0 126 33 126 82zM194 698c0 -39 39 -56 65 -67c50 15 105 37 105 81c0 32 -29 59 -75 59c-52 0 -95 -33 -95 -73z" />
    <glyph glyph-name="ninesuperior" unicode="&#x2079;" horiz-adv-x="407" 
d="M149 423c93 0 173 64 204 156c-19 -17 -58 -43 -117 -43c-87 0 -130 59 -130 120c0 79 58 156 163 156c102 0 150 -75 150 -151c0 -154 -117 -283 -268 -283c-39 0 -65 10 -65 10l19 39s18 -4 44 -4zM245 578c59 0 108 40 121 65c1 7 1 14 1 21c0 52 -31 103 -95 103
c-72 0 -114 -53 -114 -110c0 -38 27 -79 87 -79z" />
    <glyph glyph-name="plussuperior" unicode="&#x207a;" horiz-adv-x="394" 
d="M250 721h43l-21 -116h134l-5 -40h-136l-20 -116h-42l20 116h-136l7 40h136z" />
    <glyph glyph-name="parenleftsuperior" unicode="&#x207d;" horiz-adv-x="217" 
d="M81 412l65 364c11 65 19 87 127 112l11 -35c-69 -20 -77 -32 -84 -73l-66 -373c-9 -49 -9 -55 50 -75l-14 -33c-100 26 -100 52 -89 113z" />
    <glyph glyph-name="parenrightsuperior" unicode="&#x207e;" horiz-adv-x="217" 
d="M238 776l-65 -365c-12 -64 -19 -87 -126 -112l-12 36c68 19 77 30 84 71l67 375c9 48 7 54 -51 74l15 33c98 -25 100 -51 88 -112z" />
    <glyph glyph-name="nsuperior" unicode="&#x207f;" horiz-adv-x="391" 
d="M179 700l-8 -43c26 17 85 50 139 50c67 0 90 -43 80 -102l-38 -220h-52l39 215c6 36 -1 65 -45 65c-47 0 -107 -34 -131 -53l-40 -227h-51l56 315h51z" />
    <glyph glyph-name="zeroinferior" unicode="&#x2080;" horiz-adv-x="434" 
d="M197 277c114 0 152 -85 152 -164c0 -101 -50 -270 -194 -270c-114 0 -152 85 -152 164c0 100 50 270 194 270zM155 -114c107 0 140 162 140 233c0 51 -17 115 -98 115c-107 0 -141 -162 -141 -233c0 -51 18 -115 99 -115z" />
    <glyph glyph-name="oneinferior" unicode="&#x2081;" horiz-adv-x="245" 
d="M97 -150h-54l66 365l-83 -40l-18 39l115 56h48z" />
    <glyph glyph-name="twoinferior" unicode="&#x2082;" horiz-adv-x="382" 
d="M262 -105l-8 -45h-293l6 34c15 94 87 128 169 175c68 39 123 73 123 119c-2 31 -28 54 -77 54c-48 0 -95 -22 -121 -38l-21 38c32 20 83 45 146 45c77 0 126 -38 126 -99c0 -82 -94 -128 -180 -177c-63 -36 -93 -58 -103 -106h233z" />
    <glyph glyph-name="threeinferior" unicode="&#x2083;" horiz-adv-x="385" 
d="M-41 -109l28 36c21 -13 64 -39 124 -39c70 0 117 38 117 87c0 57 -61 81 -123 81h-19l5 46h24c63 0 130 34 130 80c0 31 -27 50 -72 50c-44 0 -90 -22 -114 -35l-19 38c15 9 72 42 142 42c75 0 118 -39 118 -88c0 -42 -32 -86 -105 -110c48 -10 88 -52 88 -105
c0 -66 -55 -131 -169 -131c-78 0 -130 33 -155 48z" />
    <glyph glyph-name="fourinferior" unicode="&#x2084;" horiz-adv-x="409" 
d="M176 -150l16 93h-225l6 39l261 288h71l-51 -283h66l-6 -44h-68l-17 -93h-53zM34 -13h166l41 231z" />
    <glyph glyph-name="fiveinferior" unicode="&#x2085;" horiz-adv-x="383" 
d="M15 63l60 207h238l-7 -45h-195l-31 -122c20 8 44 14 72 14c83 0 130 -55 130 -124c0 -80 -65 -150 -173 -150c-72 0 -119 31 -143 48l28 35c14 -9 56 -37 110 -37c58 0 123 37 123 104c0 47 -30 80 -87 80c-42 0 -76 -17 -95 -27z" />
    <glyph glyph-name="sixinferior" unicode="&#x2086;" horiz-adv-x="407" 
d="M268 232c-94 0 -173 -65 -204 -157c20 18 59 44 117 44c86 0 131 -59 131 -121c0 -78 -59 -155 -165 -155c-102 0 -149 75 -149 150c0 155 117 284 268 284c39 0 65 -10 65 -10l-19 -39s-18 4 -44 4zM171 77c-57 0 -103 -37 -119 -61c-1 -8 -1 -16 -1 -25
c0 -52 30 -103 94 -103c72 0 113 53 113 110c0 38 -26 79 -87 79z" />
    <glyph glyph-name="seveninferior" unicode="&#x2087;" horiz-adv-x="343" 
d="M302 230c0 0 -194 -190 -228 -380h-58c33 178 208 362 221 375h-218l6 45h282z" />
    <glyph glyph-name="eightinferior" unicode="&#x2088;" horiz-adv-x="409" 
d="M-19 -50c0 72 71 109 127 129c-31 17 -61 43 -61 88c0 65 63 110 148 110c77 0 128 -37 128 -94c0 -60 -57 -91 -102 -109c43 -19 89 -51 89 -107c0 -74 -83 -124 -181 -124c-87 0 -148 37 -148 107zM254 -32c0 46 -49 71 -90 88c-59 -18 -128 -46 -128 -104
c0 -44 37 -66 92 -66c64 0 126 33 126 82zM100 163c0 -39 39 -56 65 -67c50 15 105 37 105 81c0 32 -29 59 -75 59c-52 0 -95 -33 -95 -73z" />
    <glyph glyph-name="nineinferior" unicode="&#x2089;" horiz-adv-x="408" 
d="M56 -112c93 0 173 65 204 156c-19 -17 -58 -43 -117 -43c-87 0 -130 59 -130 120c0 79 58 156 163 156c102 0 150 -75 150 -151c0 -154 -117 -283 -268 -283c-39 0 -65 10 -65 10l19 39s18 -4 44 -4zM152 43c59 0 108 40 121 65c1 7 1 14 1 21c0 52 -31 103 -95 103
c-72 0 -114 -53 -114 -110c0 -38 27 -79 87 -79z" />
    <glyph glyph-name="parenleftinferior" unicode="&#x208d;" horiz-adv-x="219" 
d="M-12 -123l65 364c11 65 19 87 127 112l11 -35c-69 -20 -77 -32 -84 -73l-66 -373c-9 -49 -9 -55 50 -75l-14 -33c-100 26 -100 52 -89 113z" />
    <glyph glyph-name="parenrightinferior" unicode="&#x208e;" horiz-adv-x="218" 
d="M144 241l-65 -365c-12 -64 -19 -87 -126 -112l-12 36c68 19 77 30 84 71l67 375c9 48 7 54 -51 74l15 33c98 -25 100 -51 88 -112z" />
    <glyph glyph-name="colonmonetary" unicode="&#x20a1;" horiz-adv-x="566" 
d="M155 0h-45l44 110c-48 36 -77 99 -77 185c0 212 136 329 261 329c8 0 16 -1 24 -2l32 78h45l-35 -86c13 -3 24 -7 35 -12l40 98h45l-47 -116c28 -16 50 -34 67 -45l-35 -42c-11 8 -29 22 -53 36l-161 -399c63 11 129 52 155 67l27 -50c-44 -23 -123 -69 -205 -74l-31 -77
h-45l32 79c-13 2 -26 6 -37 10zM142 301c0 -57 12 -102 37 -131l162 399c-102 -4 -199 -115 -199 -268zM213 144c11 -6 23 -10 36 -11l170 419c-11 5 -23 9 -35 12z" />
    <glyph glyph-name="lira" unicode="&#x20a4;" horiz-adv-x="550" 
d="M86 326l8 47h81c-16 46 -41 88 -41 145c0 113 84 193 213 193c92 0 159 -43 208 -72l-37 -44c-58 34 -114 59 -168 59c-96 0 -153 -67 -153 -137c0 -59 27 -97 43 -144h187l-7 -47h-169c1 -8 2 -16 2 -24c0 -18 -2 -34 -6 -50h159l-7 -46h-167
c-33 -75 -96 -129 -120 -149h326l-9 -57h-411l8 48s96 66 141 158h-102l8 46h111c3 14 6 29 6 45c0 10 -1 20 -3 29h-101z" />
    <glyph glyph-name="peseta" unicode="&#x20a7;" horiz-adv-x="660" 
d="M106 469l6 40h31l34 191h228c128 0 229 -48 229 -181v-10h24l-7 -40h-22c-23 -127 -137 -189 -283 -189h-177l-50 -280h-65l82 469h-30zM566 519c0 91 -69 124 -159 124h-175l-23 -134h357v10zM345 337c102 0 191 40 215 132h-358l-23 -132h166z" />
    <glyph glyph-name="uni20A9" unicode="&#x20a9;" horiz-adv-x="1006" 
d="M609 0l-50 610l-268 -610h-73l-24 238h-139l9 48h126l-12 126h-92l8 47h79l-23 241h70l18 -241h196l107 241h64l19 -241h195l103 241h75l-109 -241h81l-9 -47h-93l-57 -126h128l-8 -48h-141l-107 -238h-73zM242 412l10 -126h106l56 126h-172zM628 412l10 -126h107l54 126
h-171zM724 238h-82l13 -163zM337 238h-82l13 -159z" />
    <glyph glyph-name="Euro" unicode="&#x20ac;" horiz-adv-x="702" 
d="M75 408l7 46h58c53 162 176 257 309 257c107 0 182 -58 245 -108l-40 -44c-72 58 -130 93 -201 93c-103 0 -196 -77 -242 -198h306l-7 -46h-314c-10 -38 -15 -79 -16 -122h308l-8 -46h-299c9 -136 75 -192 155 -192c70 0 161 44 236 94l32 -51
c-81 -51 -178 -102 -277 -102c-112 0 -203 69 -213 251h-69l8 46h60c1 43 6 84 14 122h-52z" />
    <glyph glyph-name="uni2116" unicode="&#x2116;" horiz-adv-x="1112" 
d="M243 700l274 -611l108 611h65l-123 -700h-68l-275 612l-107 -612h-65l123 700h68zM917 691c110 0 172 -63 172 -162c0 -131 -80 -236 -196 -236c-110 0 -172 63 -172 162c0 131 80 236 196 236zM895 341c88 0 139 92 139 184c0 67 -32 118 -119 118s-138 -92 -138 -184
c0 -67 31 -118 118 -118zM706 189l8 45h291l-7 -45h-292z" />
    <glyph glyph-name="uni2117" unicode="&#x2117;" horiz-adv-x="846" 
d="M621 450c0 -100 -72 -147 -170 -147h-90l-28 -164h-49l74 421h139c73 0 124 -35 124 -110zM572 450c0 51 -36 68 -82 68h-91l-30 -172h91c60 0 112 37 112 104zM75 313c0 212 136 398 382 398c205 0 330 -134 330 -324c0 -212 -136 -398 -383 -398
c-204 0 -329 134 -329 324zM114 314c0 -166 108 -287 294 -287c214 0 340 163 340 359c0 166 -108 287 -294 287c-214 0 -340 -163 -340 -359z" />
    <glyph glyph-name="servicemark" unicode="&#x2120;" horiz-adv-x="659" 
d="M562 476l28 159l-92 -122h-29l-47 129l-29 -166h-42l39 224h44l54 -146l110 146h45l-39 -224h-42zM253 604c32 -10 70 -26 71 -64c0 -44 -47 -68 -103 -68c-47 0 -88 19 -113 32l23 29c22 -11 55 -27 90 -27c26 0 58 10 58 31c0 22 -37 28 -77 40c-32 10 -64 26 -64 63
c0 38 40 64 94 64c42 0 83 -15 104 -28l-22 -27c-22 9 -48 21 -79 21c-30 0 -51 -10 -51 -29c0 -22 31 -25 69 -37z" />
    <glyph glyph-name="trademark" unicode="&#x2122;" horiz-adv-x="651" 
d="M553 476l28 161l-93 -124h-28l-47 129l-29 -166h-42l39 224h44l54 -146l111 146h44l-39 -224h-42zM335 665h-82l-33 -189h-42l33 189h-80l6 35h203z" />
    <glyph glyph-name="Omega" unicode="&#x2126;" horiz-adv-x="740" 
d="M432 711c165 0 254 -88 254 -253c0 -267 -135 -366 -206 -401h120l-10 -57h-217l10 55c118 44 236 161 236 408c0 114 -51 190 -189 190c-230 0 -289 -247 -289 -417c0 -105 55 -156 127 -181l-8 -55h-218l9 57h120c-39 26 -97 78 -97 194c0 246 115 460 358 460z" />
    <glyph glyph-name="onethird" unicode="&#x2153;" horiz-adv-x="811" 
d="M403 41l29 36c20 -13 63 -39 123 -39c71 0 118 38 118 87c0 57 -61 81 -123 81h-20l7 46h23c62 0 129 34 129 80c0 31 -27 50 -70 50c-45 0 -92 -22 -117 -35l-18 38c15 9 72 42 142 42c75 0 118 -39 118 -88c0 -42 -31 -86 -105 -110c49 -10 88 -52 88 -105
c0 -66 -55 -131 -169 -131c-78 0 -131 33 -155 48zM183 280h-55l66 365l-83 -40l-18 39l115 56h49zM613 700l-455 -700h-56l454 700h57z" />
    <glyph glyph-name="twothirds" unicode="&#x2154;" horiz-adv-x="946" 
d="M539 41l28 36c21 -13 63 -39 123 -39c71 0 119 38 119 87c0 57 -61 81 -124 81h-19l6 46h24c62 0 130 34 130 80c0 31 -29 50 -72 50c-45 0 -92 -22 -115 -35l-18 38c14 9 71 42 141 42c75 0 118 -39 118 -88c0 -42 -31 -86 -104 -110c48 -10 87 -52 87 -105
c0 -66 -54 -131 -169 -131c-79 0 -130 33 -155 48zM356 325l-8 -45h-293l5 34c16 94 88 128 170 175c66 38 122 72 122 118c0 32 -28 55 -76 55s-96 -22 -121 -38l-22 38c32 20 83 45 147 45c78 0 126 -38 126 -99c0 -82 -94 -128 -181 -177c-62 -36 -92 -58 -102 -106h233z
M752 700l-455 -700h-56l454 700h57z" />
    <glyph glyph-name="oneeighth" unicode="&#x215b;" horiz-adv-x="816" 
d="M405 100c0 72 71 109 127 129c-31 17 -61 43 -61 88c0 65 63 110 148 110c77 0 129 -37 129 -94c0 -59 -58 -90 -104 -108c43 -20 89 -51 89 -108c0 -74 -82 -124 -180 -124c-86 0 -148 37 -148 107zM612 700l-455 -700h-57l455 700h57zM677 118c0 46 -48 71 -90 88
c-58 -18 -127 -46 -127 -104c0 -44 38 -66 92 -66c64 0 125 33 125 82zM182 280h-55l66 365l-83 -40l-18 39l115 56h49zM523 313c0 -39 39 -56 66 -67c51 16 106 37 106 81c0 32 -30 59 -76 59c-52 0 -96 -33 -96 -73z" />
    <glyph glyph-name="threeeighths" unicode="&#x215c;" horiz-adv-x="938" 
d="M528 100c0 72 71 109 127 129c-31 17 -61 43 -61 88c0 65 62 110 147 110c78 0 129 -37 129 -94c0 -60 -57 -91 -102 -109c42 -19 87 -51 87 -107c0 -74 -81 -124 -179 -124c-86 0 -148 37 -148 107zM51 321l28 36c21 -13 64 -39 124 -39c70 0 117 38 117 87
c0 57 -61 81 -123 81h-19l5 46h24c63 0 130 34 130 80c0 31 -28 50 -72 50c-45 0 -90 -22 -114 -35l-19 38c14 9 71 42 142 42c75 0 118 -39 118 -88c0 -42 -32 -86 -105 -110c48 -10 88 -52 88 -105c0 -66 -55 -131 -169 -131c-79 0 -130 33 -155 48zM735 700l-454 -700
h-57l455 700h56zM801 118c0 46 -48 71 -90 88c-59 -18 -128 -46 -128 -104c0 -44 38 -66 92 -66c64 0 126 33 126 82zM647 313c0 -39 38 -56 65 -67c51 16 105 37 105 81c0 32 -29 59 -75 59c-52 0 -95 -33 -95 -73z" />
    <glyph glyph-name="fiveeighths" unicode="&#x215d;" horiz-adv-x="919" 
d="M507 100c0 71 71 109 128 129c-32 17 -62 43 -62 88c0 65 65 110 148 110c78 0 129 -37 129 -94c0 -59 -57 -91 -102 -109c43 -19 88 -51 88 -107c0 -74 -83 -124 -181 -124c-86 0 -148 37 -148 107zM104 493l61 207h238l-8 -45h-194l-32 -122c21 8 44 14 73 14
c83 0 130 -55 130 -124c0 -80 -65 -150 -174 -150c-71 0 -118 31 -143 48l29 35c13 -9 56 -37 110 -37c57 0 123 37 123 104c0 47 -30 80 -87 80c-42 0 -76 -17 -96 -27zM715 700l-454 -700h-57l456 700h55zM781 118c0 46 -49 71 -91 88c-58 -18 -127 -46 -127 -104
c0 -44 37 -66 91 -66c64 0 127 33 127 82zM627 313c0 -39 38 -56 65 -67c51 16 105 37 105 81c0 32 -30 59 -76 59c-52 0 -94 -33 -94 -73z" />
    <glyph glyph-name="seveneighths" unicode="&#x215e;" horiz-adv-x="820" 
d="M411 100c0 72 70 109 127 129c-32 17 -61 43 -61 88c0 65 64 110 147 110c78 0 129 -37 129 -94c0 -59 -57 -91 -102 -109c43 -19 88 -51 88 -107c0 -74 -83 -124 -181 -124c-86 0 -147 37 -147 107zM620 700l-455 -700h-56l454 700h57zM382 660c0 0 -194 -190 -228 -380
h-58c33 178 208 362 221 375h-218l6 45h282zM684 118c0 46 -49 71 -91 88c-59 -18 -128 -46 -128 -104c0 -44 39 -66 92 -66c65 0 127 33 127 82zM530 313c0 -39 39 -56 64 -67c51 16 106 37 106 81c0 32 -29 59 -75 59c-52 0 -95 -33 -95 -73z" />
    <glyph glyph-name="partialdiff" unicode="&#x2202;" horiz-adv-x="613" 
d="M485 380c-4 124 -65 267 -223 267c-42 0 -77 -9 -77 -9l-4 53s37 9 83 9c173 0 280 -128 280 -352s-115 -359 -287 -359c-129 0 -215 73 -215 210c0 155 114 277 266 277c134 0 177 -96 177 -96zM470 273c0 91 -52 150 -152 150c-137 0 -211 -111 -211 -228
c0 -86 40 -153 149 -153c154 0 214 133 214 231z" />
    <glyph glyph-name="Delta" unicode="&#x2206;" horiz-adv-x="669" 
d="M587 0h-612l393 700h74zM515 57l-120 565l-321 -565h441z" />
    <glyph glyph-name="product" unicode="&#x220f;" horiz-adv-x="684" 
d="M716 700l-10 -56h-108l-114 -644h-65l114 644h-266l-114 -644h-65l113 644h-107l9 56h613z" />
    <glyph glyph-name="summation" unicode="&#x2211;" horiz-adv-x="545" 
d="M127 700h426l-8 -57h-352l231 -293l-325 -293h341l-10 -57h-426l9 56l332 297l-228 291z" />
    <glyph glyph-name="minus" unicode="&#x2212;" horiz-adv-x="607" 
d="M57 307l9 52h493l-8 -52h-494z" />
    <glyph glyph-name="radical" unicode="&#x221a;" horiz-adv-x="560" 
d="M611 700l-418 -700h-38l-117 340h66l80 -241l356 601h71z" />
    <glyph glyph-name="infinity" unicode="&#x221e;" horiz-adv-x="925" 
d="M253 413c89 0 147 -58 206 -121c100 76 159 121 244 121c98 0 148 -60 148 -136c0 -96 -80 -174 -194 -174c-90 0 -147 59 -206 121c-99 -76 -160 -121 -243 -121c-98 0 -149 60 -149 136c0 95 79 174 194 174zM209 154c66 0 126 42 209 106c-74 76 -110 102 -162 102
c-96 0 -139 -68 -139 -125c0 -40 30 -83 92 -83zM701 362c-67 0 -125 -42 -208 -106c72 -75 107 -102 161 -102c96 0 139 68 139 125c0 40 -30 83 -92 83z" />
    <glyph glyph-name="integral" unicode="&#x222b;" horiz-adv-x="393" 
d="M126 85l97 553c26 147 66 201 213 201h28l-8 -49h-24c-117 0 -129 -72 -148 -179l-97 -553c-26 -147 -67 -201 -214 -201h-28l8 49h24c118 0 130 72 149 179z" />
    <glyph glyph-name="approxequal" unicode="&#x2248;" horiz-adv-x="607" 
d="M84 191l-44 19c48 71 98 99 152 99c92 0 140 -69 213 -69c29 0 60 9 100 64l43 -19c-48 -72 -98 -99 -152 -99c-92 0 -139 69 -213 69c-28 0 -59 -9 -99 -64zM116 368l-44 19c48 71 98 98 152 98c91 0 138 -69 212 -69c29 0 60 10 100 64l44 -19
c-48 -71 -99 -98 -153 -98c-92 0 -139 69 -213 69c-28 0 -59 -10 -98 -64z" />
    <glyph glyph-name="notequal" unicode="&#x2260;" horiz-adv-x="607" 
d="M72 397l7 52h268l103 171l45 -20l-91 -151h169l-7 -52h-194l-75 -125h246l-9 -53h-269l-102 -169l-44 20l89 149h-168l10 53h190l76 125h-244z" />
    <glyph glyph-name="lessequal" unicode="&#x2264;" horiz-adv-x="607" 
d="M581 478l-451 -168l389 -169l-9 -59l-456 208l8 47l530 208zM2 0l9 49h493l-8 -49h-494z" />
    <glyph glyph-name="greaterequal" unicode="&#x2265;" horiz-adv-x="607" 
d="M559 337l-9 -47l-529 -208l11 67l450 168l-389 169l10 59zM508 49l-7 -49h-494l8 49h493z" />
    <glyph glyph-name="uni2318" unicode="&#x2318;" horiz-adv-x="814" 
d="M582 39c-84 0 -149 66 -135 153c3 18 7 37 9 54h-116l-12 -66c-16 -89 -51 -141 -138 -141c-78 0 -140 58 -140 130c0 91 80 127 170 127h76l19 108h-60c-77 0 -140 59 -140 130s61 128 136 128c65 0 151 -45 134 -154l-9 -54h117l12 66c11 61 32 120 108 138
c11 3 22 4 33 3c75 -2 136 -60 136 -131c0 -89 -80 -126 -170 -126h-76l-19 -108h62c76 0 137 -58 137 -130c0 -71 -59 -127 -134 -127zM560 541l-15 -87h100c48 0 86 35 86 78c0 44 -39 80 -87 80s-78 -38 -84 -71zM287 246h-100c-48 0 -85 -35 -85 -78
c0 -44 39 -79 88 -79c45 0 73 25 81 70zM252 612c-48 0 -85 -36 -85 -79c0 -44 38 -79 87 -79h69c4 19 8 39 11 58c9 55 -26 100 -82 100zM580 246h-72l-10 -58c-11 -53 27 -99 83 -99c47 0 84 35 84 78c0 44 -39 79 -85 79zM348 296h118l20 108h-119z" />
    <glyph glyph-name="lozenge" unicode="&#x25ca;" horiz-adv-x="548" 
d="M304 700h78l128 -350l-252 -350h-78l-127 350zM444 360l-105 286l-220 -305l104 -289z" />
    <glyph glyph-name="commaaccent" unicode="&#xf6c3;" horiz-adv-x="76" 
d="M-9 -154l16 89h69l-6 -91l-82 -108l-20 23l56 87h-33z" />
    <glyph glyph-name="centinferior" unicode="&#xf6df;" horiz-adv-x="367" 
d="M140 -150h-40l8 47c-63 5 -107 52 -107 133c0 123 83 193 163 194l8 46h42l-9 -51c42 -10 75 -33 96 -46l-27 -34c-14 9 -44 30 -77 38l-41 -234c34 8 68 27 85 35l20 -39c-25 -11 -67 -33 -113 -40zM54 34c0 -54 22 -87 61 -93l41 237c-56 -11 -102 -67 -102 -144z" />
    <glyph glyph-name="centsuperior" unicode="&#xf6e0;" horiz-adv-x="367" 
d="M233 385h-40l8 46c-63 6 -107 52 -107 134c0 124 82 193 163 194l8 46h42l-9 -51c41 -10 75 -33 96 -46l-27 -34c-14 9 -44 30 -77 38l-41 -234c34 7 68 27 85 35l20 -39c-25 -12 -68 -34 -113 -41zM147 569c0 -54 22 -87 61 -93l41 237c-56 -11 -102 -67 -102 -144z" />
    <glyph glyph-name="commainferior" unicode="&#xf6e1;" horiz-adv-x="183" 
d="M-18 -150l12 73h60l-6 -77l-65 -77l-15 19l41 62h-27z" />
    <glyph glyph-name="commasuperior" unicode="&#xf6e2;" horiz-adv-x="179" 
d="M75 385l12 73h60l-6 -77l-65 -77l-15 19l41 62h-27z" />
    <glyph glyph-name="dollarinferior" unicode="&#xf6e3;" horiz-adv-x="402" 
d="M131 -210h-40l10 56c-54 9 -103 32 -134 52l29 38c28 -18 69 -38 113 -45l27 155c-59 22 -113 46 -113 113c0 72 65 118 152 118h1l10 54h41l-10 -58c46 -7 88 -25 118 -41l-29 -36c-27 14 -64 27 -97 33l-26 -143c60 -23 121 -48 121 -119c0 -79 -74 -124 -161 -124h-3z
M249 -39c0 37 -33 54 -75 71l-26 -144c55 2 101 30 101 73zM80 162c0 -33 24 -46 65 -62l23 132c-48 -3 -88 -27 -88 -70z" />
    <glyph glyph-name="dollarsuperior" unicode="&#xf6e4;" horiz-adv-x="401" 
d="M224 325h-40l10 56c-54 9 -103 32 -134 52l29 38c28 -18 69 -38 113 -45l27 155c-59 22 -113 46 -113 113c0 72 65 118 152 118h1l10 54h41l-10 -58c46 -7 88 -25 118 -41l-29 -36c-27 14 -64 27 -97 33l-26 -143c60 -23 121 -48 121 -119c0 -79 -74 -124 -161 -124h-3z
M342 496c0 37 -33 54 -75 71l-26 -144c55 2 101 30 101 73zM173 697c0 -33 24 -46 65 -62l23 132c-48 -3 -88 -27 -88 -70z" />
    <glyph glyph-name="periodinferior" unicode="&#xf6e7;" horiz-adv-x="179" 
d="M-19 -150l12 73h59l-12 -73h-59z" />
    <glyph glyph-name="periodsuperior" unicode="&#xf6e8;" horiz-adv-x="177" 
d="M75 385l12 73h59l-12 -73h-59z" />
    <glyph glyph-name="asuperior" unicode="&#xf6e9;" horiz-adv-x="394" 
d="M351 385h-52l8 47c-29 -25 -75 -54 -126 -54c-50 0 -100 30 -100 115c0 123 63 214 154 214c50 0 88 -30 112 -51l8 44h52zM193 420c49 0 88 29 123 60l24 135c-25 26 -58 50 -96 50c-69 0 -109 -84 -109 -168c0 -47 19 -77 58 -77z" />
    <glyph glyph-name="bsuperior" unicode="&#xf6ea;" horiz-adv-x="394" 
d="M73 385l77 437h52l-29 -163c27 21 69 48 117 48c53 0 108 -29 108 -116c0 -122 -60 -213 -148 -213c-56 0 -95 29 -119 50l-7 -43h-51zM278 665c-45 0 -80 -27 -114 -53l-25 -141c25 -27 60 -51 101 -51c66 0 105 84 105 167c0 49 -22 78 -67 78z" />
    <glyph glyph-name="dsuperior" unicode="&#xf6eb;" horiz-adv-x="394" 
d="M351 385h-52l8 47c-29 -25 -75 -54 -126 -54c-50 0 -100 30 -100 115c0 123 63 214 154 214c50 0 88 -29 112 -50l29 165h52zM193 420c49 0 88 29 123 60l23 135c-24 26 -57 50 -95 50c-69 0 -109 -84 -109 -168c0 -47 19 -77 58 -77z" />
    <glyph glyph-name="esuperior" unicode="&#xf6ec;" horiz-adv-x="370" 
d="M380 622c0 -69 -71 -102 -208 -102h-39v-3c0 -64 30 -99 81 -99c46 0 95 28 123 42l20 -36c-28 -14 -88 -46 -150 -46c-75 0 -126 46 -126 140c0 108 73 189 183 189c75 0 116 -36 116 -85zM263 667c-64 0 -114 -47 -127 -115h40c106 0 153 28 153 69c0 29 -26 46 -66 46
z" />
    <glyph glyph-name="isuperior" unicode="&#xf6ed;" horiz-adv-x="168" 
d="M124 385h-51l56 315h51zM137 762l10 59h57l-9 -59h-58z" />
    <glyph glyph-name="lsuperior" unicode="&#xf6ee;" horiz-adv-x="169" 
d="M124 385h-51l77 437h52z" />
    <glyph glyph-name="msuperior" unicode="&#xf6ef;" horiz-adv-x="590" 
d="M180 700l-9 -46c26 21 74 53 124 53c51 0 76 -26 82 -59c24 21 78 59 131 59c69 0 89 -45 79 -100l-38 -222h-51l39 215c6 35 -1 65 -43 65c-43 0 -92 -34 -119 -58l-38 -222h-53l39 215c7 35 0 65 -42 65s-91 -33 -118 -57l-39 -223h-51l56 315h51z" />
    <glyph glyph-name="osuperior" unicode="&#xf6f0;" horiz-adv-x="396" 
d="M251 707c94 0 148 -52 148 -138c0 -105 -67 -191 -170 -191c-94 0 -148 52 -148 138c0 105 67 191 170 191zM228 420c76 0 119 74 119 150c0 54 -25 95 -95 95c-76 0 -119 -74 -119 -150c0 -54 25 -95 95 -95z" />
    <glyph glyph-name="rsuperior" unicode="&#xf6f1;" horiz-adv-x="260" 
d="M180 700l-12 -68c6 12 52 78 137 72l-7 -48c-106 0 -143 -103 -143 -103l-31 -168h-51l56 315h51z" />
    <glyph glyph-name="ssuperior" unicode="&#xf6f2;" horiz-adv-x="340" 
d="M230 565c62 -19 103 -38 103 -92c0 -61 -58 -95 -128 -95c-60 0 -115 25 -145 43l28 34c30 -17 74 -35 117 -35c41 0 77 15 77 49c0 36 -39 43 -85 58c-45 13 -96 31 -96 88c0 56 53 92 123 92c52 0 102 -21 130 -36l-24 -34c-29 14 -69 29 -105 29
c-43 0 -73 -16 -73 -47c0 -34 39 -42 78 -54z" />
    <glyph glyph-name="tsuperior" unicode="&#xf6f3;" horiz-adv-x="261" 
d="M90 661l7 39h44l14 79l54 12l-17 -91h91l-6 -39h-92l-36 -205c-5 -26 7 -34 26 -34c16 0 50 12 64 17l15 -40c-16 -6 -63 -21 -92 -21c-40 0 -74 22 -63 85l35 198h-44z" />
    <glyph glyph-name="apple" unicode="&#xf8ff;" horiz-adv-x="906" 
d="M745 327c-13 -5 -13 -16 -3 -23l28 -20c11 -7 10 -15 -3 -18l-34 -6c-14 -2 -16 -12 -7 -22l24 -24c8 -9 6 -17 -8 -17l-35 2c-13 0 -18 -9 -10 -20l18 -30c7 -11 2 -17 -11 -15l-34 9c-12 4 -19 -5 -15 -17l11 -33c5 -12 -1 -18 -13 -12l-31 15c-11 6 -20 0 -19 -14
l5 -33c1 -14 -5 -17 -15 -9l-28 21c-10 8 -20 3 -21 -10l-2 -34c-1 -13 -9 -15 -17 -6l-23 27c-9 9 -18 8 -22 -5l-10 -33c-3 -13 -12 -13 -18 -2l-17 30c-6 12 -15 12 -23 0l-15 -30c-6 -11 -15 -11 -18 2l-10 33c-4 13 -13 14 -22 5l-23 -27c-8 -9 -15 -7 -17 6l-2 34
c-1 13 -11 18 -22 10l-26 -21c-11 -8 -19 -5 -16 9l5 33c1 14 -8 20 -20 14l-30 -15c-12 -6 -18 0 -13 12l11 33c5 12 -3 21 -15 17l-34 -9c-13 -2 -18 4 -11 15l19 30c7 11 2 20 -11 20l-35 -2c-14 0 -16 8 -8 17l25 24c8 10 6 20 -8 22l-33 6c-14 3 -15 11 -4 18l28 20
c3 2 5 5 6 6c6 5 13 2 18 -6l16 -31c6 -12 14 -10 18 2l9 34c4 12 14 14 22 4l23 -26c9 -10 16 -7 17 6l2 34c2 13 11 17 21 9l28 -21c11 -8 18 -4 15 9l-4 34c-2 13 7 19 18 13l31 -14c12 -6 18 0 14 12l-11 33c-5 12 2 20 14 16l7 -1c26 -50 49 -145 49 -205
c-8 -10 -17 -18 -46 -18h-4c0 14 -5 26 -16 35c7 -8 9 -17 9 -27v-7c-11 1 -16 8 -16 19c0 27 -18 49 -51 49c-27 0 -47 -23 -47 -54c0 -38 33 -65 92 -65c144 0 278 190 278 319c0 38 -26 67 -64 67c-30 0 -60 -24 -60 -58s21 -54 58 -58c-8 -32 -15 -60 -29 -85
c-8 62 -29 119 -58 150c29 -38 47 -97 52 -161l-14 -20c0 100 -36 197 -89 224c-3 6 2 13 12 15l34 6c12 2 14 10 3 17l-29 19c-10 9 -9 18 3 23l31 14c14 4 14 13 0 18l-31 13c-9 4 -11 8 -10 14c4 2 6 4 7 8l17 30c6 12 15 11 18 -1l10 -33c4 -13 13 -16 22 -5l23 26
c8 10 16 8 17 -5l2 -35c1 -14 11 -17 21 -9l28 21c10 8 16 3 15 -10l-5 -34c-1 -13 8 -19 19 -13l31 16c12 5 18 0 13 -14l-11 -31c-4 -13 3 -21 15 -17l34 7c13 4 18 -2 11 -14l-18 -29c-8 -11 -3 -21 10 -20l35 2c14 0 16 -8 8 -17l-24 -26c-9 -9 -7 -19 7 -21l34 -6
c13 -3 14 -10 3 -19l-28 -19c-10 -7 -10 -17 3 -22l31 -13c12 -5 12 -13 0 -18zM364 124c144 0 278 189 278 319c0 19 -7 37 -20 49c8 -12 12 -25 12 -41c0 -66 -34 -146 -85 -210c-52 -64 -122 -113 -196 -113c-19 0 -36 3 -49 9c14 -9 35 -13 60 -13z" />
    <glyph glyph-name="s_t" unicode="&#xfb06;" horiz-adv-x="866" 
d="M569 475l9 50h72l6 35c14 73 -9 130 -96 130c-89 0 -146 -61 -146 -141c0 -19 3 -36 10 -49c15 -7 29 -15 41 -21l-33 -43c-44 25 -106 48 -164 48c-70 0 -129 -33 -129 -92c0 -62 66 -77 126 -97c100 -35 163 -65 163 -151c0 -103 -95 -155 -202 -155
c-89 0 -171 39 -218 68l35 42c48 -28 117 -59 182 -59c68 0 139 34 139 100c0 63 -63 79 -138 103c-71 23 -150 52 -150 144c0 96 89 149 191 149c39 0 78 -8 112 -19c-4 12 -6 26 -6 42c0 98 79 170 190 170c112 0 174 -68 153 -179l-5 -25h145l-9 -50h-145l-66 -373
c-7 -45 11 -58 41 -58s86 21 108 30l17 -51c-21 -9 -94 -34 -134 -34c-56 0 -109 27 -92 123l65 363h-72z" />
    <glyph glyph-name="eight.numr" horiz-adv-x="414" 
d="M59 380c0 72 70 109 127 129c-32 17 -61 43 -61 88c0 65 63 110 148 110c77 0 128 -37 128 -94c0 -59 -56 -91 -102 -109c43 -19 89 -51 89 -107c0 -74 -83 -124 -181 -124c-88 0 -148 37 -148 107zM332 398c0 46 -49 71 -91 88c-58 -18 -128 -46 -128 -104
c0 -44 38 -66 92 -66c64 0 127 33 127 82zM178 593c0 -39 39 -56 64 -67c51 16 106 37 106 81c0 32 -29 59 -75 59c-52 0 -95 -33 -95 -73z" />
    <glyph glyph-name="Qsuperior" horiz-adv-x="488" 
d="M315 812c129 0 177 -76 178 -178c1 -91 -49 -221 -169 -250l64 -59l-39 -33l-81 86c-124 2 -170 77 -171 178c-1 103 62 256 218 256zM272 424c118 0 167 129 167 209c0 63 -18 133 -122 133c-118 0 -166 -130 -166 -210c0 -63 18 -132 121 -132z" />
    <glyph glyph-name="f_f.calt" horiz-adv-x="690" 
d="M70 475l10 50h70l16 88c14 84 47 116 118 116c48 0 124 -24 149 -34l-27 -44c-21 7 -87 23 -116 23c-41 0 -55 -27 -61 -61l-16 -88h141l-9 -50h-141l-81 -466c-25 -142 -31 -175 -195 -217l-15 51c123 36 128 56 146 164l82 468h-71zM417 475l9 50h71l16 88
c14 84 48 116 114 116c39 0 100 -19 123 -27l-26 -45c-20 6 -66 17 -87 17c-41 0 -55 -27 -62 -61l-16 -88h144l-8 -50h-144l-81 -466c-25 -142 -31 -175 -195 -217l-15 51c122 36 127 56 146 164l82 468h-71z" />
    <glyph glyph-name="f_f.ss01" horiz-adv-x="656" 
d="M70 475l9 50h71l14 78c17 92 72 116 133 116c62 0 144 -18 205 -33c19 30 48 43 94 43c49 0 125 -24 150 -34l-30 -44c-21 7 -85 23 -115 23c-40 0 -54 -27 -60 -61l-16 -88h143l-9 -50h-142l-81 -466c-26 -142 -32 -175 -196 -217l-15 51c123 36 127 56 147 164l82 468
h-250l-81 -466c-26 -142 -31 -175 -196 -217l-15 51c123 36 127 56 147 164l82 468h-71zM227 603l-14 -78h249l21 112c-39 8 -132 27 -178 27c-59 0 -74 -36 -78 -61z" />
    <glyph glyph-name="f_f_b.ss01" horiz-adv-x="1245" 
d="M71 475l9 50h70l14 78c17 92 72 116 133 116c63 0 149 -19 210 -35c26 34 64 45 105 45c58 0 137 -17 196 -32l6 32h62l-49 -275c44 37 112 82 190 82c83 0 168 -48 168 -184c0 -208 -94 -363 -237 -363c-87 0 -147 50 -188 87l-13 -76h-62l114 646
c-35 8 -132 28 -179 28c-59 0 -75 -36 -78 -61l-16 -88h143l-10 -50h-142l-81 -466c-25 -142 -31 -175 -195 -217l-15 51c123 36 128 56 146 164l82 468h-250l-81 -466c-26 -142 -31 -175 -196 -217l-15 51c123 36 127 56 147 164l82 468h-70zM1006 482
c-73 0 -133 -45 -190 -91l-46 -260c43 -46 102 -88 169 -88c114 0 182 152 182 303c0 85 -38 136 -115 136zM213 525h250l21 112c-37 7 -132 27 -179 27c-59 0 -74 -36 -78 -61z" />
    <glyph glyph-name="f_f_h.ss01" horiz-adv-x="1246" 
d="M71 475l9 50h70l14 78c17 92 72 116 133 116c63 0 149 -19 210 -35c26 34 64 45 105 45c58 0 137 -17 196 -32l6 32h62l-49 -278c40 28 138 85 225 85c106 0 141 -71 124 -164l-65 -372h-63l65 366c11 65 -1 117 -75 117c-79 0 -182 -62 -222 -94l-69 -389h-62l114 646
c-35 8 -132 28 -179 28c-59 0 -75 -36 -78 -61l-16 -88h143l-10 -50h-142l-81 -466c-25 -142 -31 -175 -195 -217l-15 51c123 36 128 56 146 164l82 468h-250l-81 -466c-26 -142 -31 -175 -196 -217l-15 51c123 36 127 56 147 164l82 468h-70zM463 525l21 112
c-37 7 -132 27 -179 27c-59 0 -74 -36 -78 -61l-14 -78h250z" />
    <glyph glyph-name="f_f_i.ss01" horiz-adv-x="860" 
d="M818 695l-28 -46c-29 7 -124 25 -169 25c-59 0 -76 -36 -79 -61l-16 -88h289l-93 -525h-63l84 475h-226l-81 -466c-25 -142 -31 -175 -195 -217l-15 51c123 36 128 56 146 164l82 468h-250l-81 -466c-26 -142 -31 -175 -196 -217l-15 51c123 36 127 56 147 164l82 468
h-70l9 50h70l14 78c17 92 72 116 133 116c63 0 149 -19 210 -35c26 34 65 45 106 45c62 0 149 -19 205 -34zM463 525l21 112c-37 7 -132 27 -179 27c-59 0 -74 -36 -78 -61l-14 -78h250z" />
    <glyph glyph-name="f_f_j.ss01" horiz-adv-x="861" 
d="M71 475l9 50h70l14 78c17 92 72 116 133 116c63 0 149 -19 210 -35c26 34 65 45 106 45c62 0 149 -19 205 -34l-28 -46c-29 7 -124 25 -169 25c-59 0 -76 -36 -79 -61l-16 -88h290l-100 -556c-18 -102 -23 -135 -187 -177l-15 51c123 36 129 55 141 124l90 508h-228
l-81 -466c-25 -142 -31 -175 -195 -217l-15 51c123 36 128 56 146 164l82 468h-250l-81 -466c-26 -142 -31 -175 -196 -217l-15 51c123 36 127 56 147 164l82 468h-70zM463 525l21 112c-37 7 -132 27 -179 27c-59 0 -74 -36 -78 -61l-14 -78h250z" />
    <glyph glyph-name="f_f_k.ss01" horiz-adv-x="1156" 
d="M71 475l9 50h70l14 78c17 92 72 116 133 116c63 0 149 -19 210 -35c26 34 64 45 105 45c58 0 137 -17 196 -32l6 32h62l-87 -493l282 289h76l-216 -215l156 -310h-64l-135 268l-114 -113l-27 -155h-62l114 646c-35 8 -132 28 -179 28c-59 0 -75 -36 -78 -61l-16 -88h143
l-10 -50h-142l-81 -466c-25 -142 -31 -175 -195 -217l-15 51c123 36 128 56 146 164l82 468h-250l-81 -466c-26 -142 -31 -175 -196 -217l-15 51c123 36 127 56 147 164l82 468h-70zM463 525l21 112c-37 7 -132 27 -179 27c-59 0 -74 -36 -78 -61l-14 -78h250z" />
    <glyph glyph-name="f.calt" horiz-adv-x="344" 
d="M70 475l10 50h70l16 88c14 84 48 116 114 116c40 0 101 -19 123 -27l-26 -45c-19 6 -66 17 -87 17c-41 0 -55 -27 -61 -61l-16 -88h143l-8 -50h-144l-81 -466c-25 -142 -31 -175 -195 -217l-15 51c123 36 128 56 146 164l82 468h-71z" />
    <glyph glyph-name="f_f_l.ss01" horiz-adv-x="893" 
d="M71 475l9 50h70l14 78c17 92 72 116 133 116c63 0 149 -19 210 -35c26 34 64 45 105 45c58 0 137 -17 196 -32l6 32h62l-129 -729h-62l114 646c-35 8 -132 28 -179 28c-59 0 -75 -36 -78 -61l-16 -88h143l-10 -50h-142l-81 -466c-25 -142 -31 -175 -195 -217l-15 51
c123 36 128 56 146 164l82 468h-250l-81 -466c-26 -142 -31 -175 -196 -217l-15 51c123 36 127 56 147 164l82 468h-70zM463 525l21 112c-37 7 -132 27 -179 27c-59 0 -74 -36 -78 -61l-14 -78h250z" />
    <glyph glyph-name="f_f_t.ss01" horiz-adv-x="975" 
d="M745 695l-30 -44c-20 7 -85 23 -114 23c-41 0 -54 -27 -60 -61l-16 -88h234l24 132l66 20l-27 -152h143l-8 -50h-144l-67 -373c-7 -45 10 -58 40 -58c31 0 86 21 108 30l18 -51c-21 -9 -94 -34 -134 -34c-56 0 -110 27 -93 123l65 363h-234l-81 -466
c-25 -142 -31 -175 -195 -217l-15 51c122 36 128 56 147 164l82 468h-250l-81 -466c-26 -142 -31 -175 -196 -217l-15 51c123 36 127 56 147 164l82 468h-71l8 50h72l14 78c17 92 72 116 133 116c62 0 144 -18 205 -33c19 30 48 43 94 43c48 0 124 -24 149 -34zM462 525
l21 112c-39 8 -132 27 -178 27c-59 0 -74 -36 -78 -61l-14 -78h249z" />
    <glyph glyph-name="f_h.ss01" horiz-adv-x="934" 
d="M71 475l9 50h70l16 88c17 92 72 116 133 116c59 0 137 -16 197 -31l6 31h62l-49 -278c40 28 139 85 225 85c106 0 141 -71 124 -164l-65 -372h-64l65 366c11 65 0 117 -75 117c-79 0 -182 -62 -221 -94l-69 -389h-62l114 647c-37 7 -133 27 -180 27
c-59 0 -74 -36 -78 -61l-16 -88h144l-9 -50h-144l-81 -466c-25 -142 -31 -175 -195 -217l-15 51c123 36 128 56 147 164l82 468h-71z" />
    <glyph glyph-name="exclamsuperior" horiz-adv-x="188" 
d="M79 385l12 69h59l-12 -69h-59zM213 805l-67 -295h-31l36 295h62z" />
    <glyph glyph-name="f_i.ss01" horiz-adv-x="548" 
d="M71 475l9 50h70l16 88c17 92 72 116 134 116s149 -19 206 -34l-28 -46c-30 7 -124 25 -170 25c-59 0 -74 -36 -79 -61l-16 -88h290l-93 -525h-63l84 475h-227l-81 -466c-25 -142 -31 -175 -195 -217l-15 51c123 36 128 56 147 164l82 468h-71z" />
    <glyph glyph-name="f_j.ss01" horiz-adv-x="549" 
d="M71 475l9 50h70l16 88c17 92 72 116 134 116s149 -19 206 -34l-28 -46c-30 7 -124 25 -170 25c-59 0 -74 -36 -79 -61l-16 -88h291l-100 -556c-18 -102 -22 -135 -187 -177l-15 51c123 36 128 55 140 124l90 508h-228l-81 -466c-25 -142 -31 -175 -195 -217l-15 51
c123 36 128 56 147 164l82 468h-71z" />
    <glyph glyph-name="f_k.ss01" horiz-adv-x="844" 
d="M71 475l9 50h70l16 88c17 92 72 116 133 116c59 0 137 -16 197 -31l6 31h62l-87 -492l281 288h76l-215 -214l155 -311h-64l-134 268l-114 -113l-27 -155h-62l114 647c-37 7 -133 27 -180 27c-59 0 -74 -36 -78 -61l-16 -88h144l-9 -50h-144l-81 -466
c-25 -142 -31 -175 -195 -217l-15 51c123 36 127 56 147 164l82 468h-71z" />
    <glyph glyph-name="exclaminferior" horiz-adv-x="188" 
d="M-15 -150l12 69h59l-12 -69h-59zM119 270l-67 -295h-31l36 295h62z" />
    <glyph glyph-name="f_l.ss01" horiz-adv-x="581" 
d="M71 475l9 50h70l16 88c17 92 72 116 133 116c59 0 137 -16 197 -31l6 31h62l-129 -729h-62l114 647c-37 7 -133 27 -180 27c-59 0 -74 -36 -78 -61l-16 -88h144l-9 -50h-144l-81 -466c-25 -142 -31 -175 -195 -217l-15 51c123 36 127 56 147 164l82 468h-71z" />
    <glyph glyph-name="f_t.ss01" horiz-adv-x="664" 
d="M433 695l-28 -44c-21 7 -87 23 -115 23c-41 0 -55 -27 -61 -61l-16 -88h233l23 132l67 20l-27 -152h145l-9 -50h-145l-67 -373c-7 -45 12 -58 40 -58c31 0 87 21 108 30l18 -51c-22 -9 -94 -34 -134 -34c-56 0 -109 27 -92 123l64 363h-233l-81 -466
c-25 -142 -31 -175 -195 -217l-15 51c123 36 128 56 147 164l82 468h-71l9 50h70l16 88c15 84 47 116 118 116c48 0 125 -24 149 -34z" />
    <glyph glyph-name="finferior" horiz-adv-x="243" 
d="M-2 126l7 39h44l8 43c10 56 31 79 81 79c35 0 83 -15 101 -23l-25 -34c-13 4 -51 14 -67 14c-25 0 -34 -15 -38 -35l-8 -44h88l-7 -39h-88l-46 -264c-15 -90 -20 -112 -131 -139l-13 40c76 22 80 33 91 97l47 266h-44z" />
    <glyph glyph-name="exclamdownsuperior" horiz-adv-x="189" 
d="M142 736l11 69h60l-12 -69h-59zM177 680l-38 -295h-61l66 295h33z" />
    <glyph glyph-name="five.dnom" horiz-adv-x="386" 
d="M44 213l60 207h238l-7 -45h-194l-32 -122c21 8 44 14 72 14c83 0 130 -55 130 -124c0 -80 -64 -150 -173 -150c-72 0 -118 31 -143 48l29 35c13 -9 56 -37 109 -37c58 0 124 37 124 104c0 47 -31 80 -88 80c-41 0 -76 -17 -95 -27z" />
    <glyph glyph-name="five.numr" horiz-adv-x="386" 
d="M93 493l60 207h238l-7 -45h-195l-31 -122c20 8 44 14 72 14c83 0 130 -55 130 -124c0 -80 -65 -150 -173 -150c-72 0 -119 31 -143 48l28 35c14 -9 56 -37 110 -37c58 0 123 37 123 104c0 47 -30 80 -87 80c-42 0 -76 -17 -95 -27z" />
    <glyph glyph-name="five.onum" horiz-adv-x="566" 
d="M68 231l97 343h361l-9 -57h-309l-61 -232c34 16 75 29 126 29c126 0 200 -87 200 -201c0 -136 -105 -250 -275 -250c-105 0 -173 46 -211 73l36 45c16 -12 86 -60 171 -60c99 0 212 68 212 192c0 85 -52 145 -148 145c-67 0 -124 -30 -155 -47z" />
    <glyph glyph-name="five.tnum" horiz-adv-x="615" 
d="M115 357l97 343h361l-9 -57h-308l-62 -232c34 16 75 29 126 29c125 0 200 -87 200 -201c0 -136 -106 -250 -274 -250c-107 0 -174 46 -212 73l36 45c16 -12 86 -60 171 -60c100 0 212 68 212 192c0 85 -52 145 -147 145c-68 0 -125 -30 -156 -47z" />
    <glyph glyph-name="exclamdowninferior" horiz-adv-x="187" 
d="M47 201l11 69h60l-12 -69h-59zM82 145l-38 -295h-61l66 295h33z" />
    <glyph glyph-name="fiveeighths.onum" horiz-adv-x="817" 
d="M444 83c0 58 59 89 108 105c-28 14 -54 36 -54 73c0 52 56 89 129 89c67 0 113 -31 113 -78c0 -48 -49 -74 -89 -88c38 -16 78 -42 78 -89c0 -60 -70 -101 -156 -101c-75 0 -129 31 -129 89zM88 404l51 170h207l-6 -39h-169l-26 -97c18 7 38 11 62 11
c74 0 115 -46 115 -102c0 -66 -56 -123 -150 -123c-63 0 -104 26 -125 40l25 30c11 -7 48 -30 95 -30c51 0 107 28 107 82c0 38 -27 65 -77 65c-37 0 -66 -13 -82 -23zM619 574l-389 -574h-50l389 574h50zM680 96c0 39 -44 59 -80 73c-51 -15 -109 -38 -109 -84
c0 -36 34 -54 82 -54c55 0 107 26 107 65zM546 257c0 -30 32 -46 55 -54c44 12 92 28 92 64c0 27 -26 48 -66 48c-44 0 -81 -27 -81 -58z" />
    <glyph glyph-name="exclamdown.sc" horiz-adv-x="255" 
d="M125 484l14 90h72l-14 -90h-72zM165 405l-55 -405h-72l89 405h38z" />
    <glyph glyph-name="fivesixths" horiz-adv-x="897" 
d="M772 382c-94 0 -173 -65 -204 -157c20 18 59 44 117 44c86 0 131 -59 131 -121c0 -78 -59 -155 -165 -155c-102 0 -149 75 -149 150c0 155 117 284 268 284c39 0 65 -10 65 -10l-19 -39s-18 4 -44 4zM105 493l60 207h238l-8 -45h-194l-31 -122c20 8 44 14 72 14
c83 0 130 -55 130 -124c0 -80 -65 -150 -174 -150c-71 0 -118 31 -143 48l29 35c13 -9 56 -37 110 -37c57 0 123 37 123 104c0 47 -30 80 -87 80c-42 0 -76 -17 -96 -27zM714 700l-454 -700h-57l456 700h55zM675 227c-57 0 -103 -37 -119 -61c-1 -8 -1 -17 -1 -25
c0 -52 30 -103 94 -103c72 0 113 53 113 110c0 38 -26 79 -87 79z" />
    <glyph glyph-name="fivesixths.onum" horiz-adv-x="797" 
d="M671 312c-81 0 -150 -52 -176 -127c17 14 50 35 101 35c76 0 115 -47 115 -99c0 -65 -50 -127 -142 -127c-90 0 -131 62 -131 126c0 126 100 230 230 230c34 0 57 -8 57 -8l-16 -34s-16 4 -38 4zM88 404l51 170h207l-6 -39h-168l-26 -97c18 6 37 11 61 11
c74 0 115 -46 115 -102c0 -66 -56 -123 -149 -123c-64 0 -104 26 -126 40l25 30c12 -7 49 -30 95 -30c52 0 107 28 107 82c0 38 -27 65 -77 65c-37 0 -65 -13 -82 -23zM618 574l-389 -574h-50l389 574h50zM588 184c-50 0 -91 -29 -104 -49v-17c0 -43 27 -85 83 -85
c62 0 97 41 97 87c0 31 -23 64 -76 64z" />
    <glyph glyph-name="exclam.sc" horiz-adv-x="254" 
d="M38 0l15 90h72l-14 -90h-73zM211 574l-88 -405h-38l54 405h72z" />
    <glyph glyph-name="einferior" horiz-adv-x="367" 
d="M286 87c0 -69 -72 -102 -208 -102h-39v-3c0 -64 29 -99 81 -99c46 0 95 28 123 42l20 -36c-28 -14 -88 -46 -150 -46c-75 0 -126 46 -126 140c0 108 73 189 183 189c75 0 116 -36 116 -85zM169 132c-64 0 -114 -47 -127 -115h40c104 0 153 28 153 69c0 29 -26 46 -66 46z
" />
    <glyph glyph-name="eight.tnum" horiz-adv-x="615" 
d="M35 161c0 126 121 188 210 219c-50 25 -102 67 -102 148c0 112 102 183 229 183c114 0 193 -60 193 -153c0 -106 -102 -158 -173 -184c68 -32 145 -83 145 -180c0 -125 -134 -205 -281 -205c-127 0 -221 59 -221 172zM469 195c0 81 -84 127 -153 155
c-98 -31 -214 -81 -214 -187c0 -78 63 -119 152 -119c109 0 215 60 215 151zM207 524c0 -71 70 -104 112 -120c87 27 181 67 181 147c0 58 -50 106 -128 106c-89 0 -165 -60 -165 -133z" />
    <glyph glyph-name="four.dnom" horiz-adv-x="413" 
d="M203 0l16 93h-224l6 39l261 288h70l-51 -283h66l-5 -44h-69l-16 -93h-54zM62 137h165l41 231z" />
    <glyph glyph-name="four.numr" horiz-adv-x="411" 
d="M253 280l16 93h-225l7 39l261 288h70l-51 -283h66l-6 -44h-68l-16 -93h-54zM112 417h165l42 232z" />
    <glyph glyph-name="four.onum" horiz-adv-x="605" 
d="M318 -126l28 161h-357l9 52l424 487h85l-86 -482h107l-10 -57h-107l-28 -161h-65zM73 92h283l74 413z" />
    <glyph glyph-name="four.tnum" horiz-adv-x="615" 
d="M345 0l28 161h-355l9 52l424 487h83l-86 -482h106l-9 -57h-107l-28 -161h-65zM101 218h282l73 412z" />
    <glyph glyph-name="fourfifths" horiz-adv-x="957" 
d="M260 280l16 93h-225l6 39l261 288h71l-51 -283h66l-6 -44h-68l-17 -93h-53zM602 213l59 207h239l-8 -45h-195l-32 -123c21 9 45 15 74 15c83 0 129 -55 129 -124c0 -80 -64 -150 -173 -150c-71 0 -119 31 -143 48l29 35c14 -9 56 -37 110 -37c58 0 123 37 123 104
c0 47 -30 80 -86 80c-43 0 -78 -17 -98 -27zM755 700l-453 -700h-58l455 700h56zM118 417h166l42 232z" />
    <glyph glyph-name="fourfifths.onum" horiz-adv-x="851" 
d="M227 230l13 75h-196l5 34l224 235h64l-42 -231h58l-6 -38h-59l-13 -75h-48zM526 174l50 170h208l-6 -38h-170l-27 -99c18 7 39 12 64 12c74 0 115 -45 115 -102c0 -66 -57 -123 -150 -123c-63 0 -105 26 -126 40l25 30c12 -7 50 -30 95 -30c51 0 108 29 108 82
c0 39 -27 66 -77 66c-36 0 -66 -14 -82 -23zM657 574l-390 -574h-51l390 574h51zM104 343h143l33 188z" />
    <glyph glyph-name="eight.onum" horiz-adv-x="623" 
d="M39 161c0 126 121 188 210 219c-50 25 -102 67 -102 148c0 112 102 183 229 183c115 0 193 -60 193 -153c0 -106 -102 -158 -173 -184c68 -32 145 -83 145 -180c0 -125 -133 -205 -281 -205c-127 0 -221 59 -221 172zM473 195c0 81 -83 127 -153 155
c-98 -31 -214 -81 -214 -187c0 -78 63 -119 152 -119c109 0 215 60 215 151zM211 524c0 -71 70 -104 112 -120c87 27 181 67 181 147c0 58 -50 106 -128 106c-89 0 -165 -60 -165 -133z" />
    <glyph glyph-name="eight.dnom" horiz-adv-x="413" 
d="M9 100c0 72 70 109 127 129c-32 17 -61 43 -61 88c0 65 65 110 148 110c77 0 128 -37 128 -94c0 -59 -56 -91 -102 -109c43 -19 89 -51 89 -107c0 -74 -83 -124 -181 -124c-86 0 -148 37 -148 107zM282 118c0 46 -49 71 -91 88c-58 -18 -128 -46 -128 -104
c0 -44 38 -66 92 -66c65 0 127 33 127 82zM128 313c0 -39 39 -56 64 -67c51 16 106 37 106 81c0 32 -29 59 -75 59c-52 0 -95 -33 -95 -73z" />
    <glyph glyph-name="dollar.onum" horiz-adv-x="557" 
d="M235 -82h-47l13 77c-73 11 -140 42 -182 68l35 44c40 -23 96 -50 157 -60l40 226c-83 30 -155 63 -155 153c0 98 91 157 206 157h4l13 74h46l-14 -78c63 -9 122 -33 164 -55l-34 -43c-40 20 -92 38 -139 45l-36 -207c84 -32 166 -67 166 -163c0 -107 -105 -165 -219 -165
h-5zM410 151c0 56 -51 82 -115 106l-38 -213c84 1 153 42 153 107zM161 428c0 -50 36 -68 101 -93l34 195c-72 -2 -135 -38 -135 -102z" />
    <glyph glyph-name="frenchfranc" horiz-adv-x="585" 
d="M30 138l7 46h56l93 516h422l-9 -57h-358l-48 -265h286l-9 -57h-286l-25 -137h178l-7 -46h-179l-25 -138h-65l24 138h-55z" />
    <glyph glyph-name="frenchfranc.onum" horiz-adv-x="529" 
d="M25 111l6 41h50l75 422h371l-7 -54h-311l-39 -207h248l-8 -53h-248l-19 -108h154l-6 -41h-156l-19 -111h-61l19 111h-49z" />
    <glyph glyph-name="frenchfrancinferior" horiz-adv-x="390" 
d="M-26 -72l6 33h36l55 309h277l-7 -45h-223l-28 -143h178l-7 -44h-177l-14 -77h112l-4 -33h-114l-14 -78h-53l13 78h-36z" />
    <glyph glyph-name="frenchfrancsuperior" horiz-adv-x="390" 
d="M72 463l6 33h36l55 309h277l-7 -45h-223l-28 -143h178l-7 -44h-177l-14 -77h112l-4 -33h-114l-14 -78h-53l13 78h-36z" />
    <glyph glyph-name="fsuperior" horiz-adv-x="243" 
d="M96 661l7 39h44l8 43c10 56 31 79 81 79c35 0 83 -15 101 -23l-25 -34c-13 4 -51 14 -67 14c-25 0 -34 -15 -38 -35l-8 -44h88l-7 -39h-88l-46 -264c-15 -90 -20 -112 -131 -139l-13 40c76 22 80 33 91 97l47 266h-44z" />
    <glyph glyph-name="dinferior" horiz-adv-x="392" 
d="M254 -150h-52l8 47c-29 -24 -75 -54 -126 -54c-50 0 -100 30 -100 115c0 123 63 214 154 214c50 0 88 -29 112 -50l29 165h52zM96 -115c49 0 88 30 123 60l23 135c-24 26 -57 50 -95 50c-69 0 -109 -84 -109 -168c0 -47 19 -77 58 -77z" />
    <glyph glyph-name="csuperior" horiz-adv-x="354" 
d="M381 656l-26 -34c-17 11 -57 41 -100 41c-62 0 -120 -61 -120 -147c0 -59 28 -94 75 -94c42 0 91 28 112 38l20 -38c-30 -15 -84 -44 -139 -44c-70 0 -121 47 -121 134c0 125 85 195 165 195c60 0 108 -34 134 -51z" />
    <glyph glyph-name="copyright.sc" horiz-adv-x="748" 
d="M62 261c0 171 116 322 329 322c180 0 289 -111 289 -270c0 -171 -116 -322 -328 -322c-180 0 -290 111 -290 270zM96 261c0 -138 95 -239 258 -239c185 0 293 132 293 291c0 138 -95 239 -258 239c-185 0 -293 -132 -293 -291zM524 410l-28 -27c-22 17 -58 46 -113 46
c-75 0 -134 -75 -128 -178c4 -66 35 -106 83 -106c55 0 104 28 129 44l24 -30c-35 -21 -85 -51 -151 -51c-69 0 -125 49 -128 140c-9 139 75 217 172 217c66 0 112 -34 140 -55z" />
    <glyph glyph-name="colonsuperior" horiz-adv-x="180" 
d="M111 589l13 73h59l-12 -73h-60zM75 385l13 73h59l-12 -73h-60z" />
    <glyph glyph-name="colonmonetarysuperior" horiz-adv-x="371" 
d="M153 385h-31l27 66c-31 21 -50 60 -50 114c0 124 84 194 164 194c5 0 10 0 14 -1l20 47h33l-22 -52l20 -7l25 59h31l-30 -71c18 -9 33 -19 45 -26l-27 -34c-8 5 -19 13 -34 21l-90 -218c36 6 73 27 91 36l20 -39c-28 -13 -79 -40 -130 -43l-19 -46h-32l20 47
c-8 1 -16 3 -23 6zM152 569c0 -29 6 -52 18 -68l89 213c-57 -8 -107 -66 -107 -145zM194 482c6 -3 14 -6 22 -7l96 232l-21 6z" />
    <glyph glyph-name="germandblsinferior" horiz-adv-x="417" 
d="M205 277c87 0 151 -36 134 -135l-1 -7l-36 -26c-14 7 -45 22 -74 22c-39 0 -68 -19 -68 -50c0 -33 35 -41 70 -52c55 -19 88 -40 88 -91c0 -61 -57 -95 -117 -95c-54 0 -103 25 -130 44l24 35c25 -18 69 -38 102 -38c32 0 70 18 70 51c0 34 -37 44 -73 57
c-42 15 -85 33 -85 87s48 93 113 93c25 0 48 -6 68 -13c8 58 -29 76 -88 76s-107 -17 -121 -94l-52 -291h-51l53 297c18 102 83 130 174 130z" />
    <glyph glyph-name="germandblssuperior" horiz-adv-x="421" 
d="M300 812c87 0 151 -36 134 -135l-1 -7l-36 -26c-14 7 -45 22 -74 22c-39 0 -68 -19 -68 -50c0 -33 35 -41 70 -52c55 -19 88 -40 88 -91c0 -61 -57 -95 -117 -95c-54 0 -103 25 -130 44l24 35c25 -18 69 -38 102 -38c32 0 70 18 70 51c0 34 -37 44 -73 57
c-42 15 -85 33 -85 87s48 93 113 93c25 0 48 -6 68 -13c8 58 -29 76 -88 76s-107 -17 -121 -94l-52 -291h-51l53 297c18 102 83 130 174 130z" />
    <glyph glyph-name="ginferior" horiz-adv-x="393" 
d="M259 165h52l-59 -333c-16 -88 -71 -110 -143 -110c-46 0 -103 9 -150 22l16 43c46 -13 89 -23 132 -23c65 0 88 36 93 67l12 67c-28 -24 -75 -55 -128 -55c-48 0 -98 30 -98 115c0 123 62 214 152 214c52 0 89 -30 113 -51zM98 -115c49 0 86 30 122 60l24 134
c-23 26 -58 51 -95 51c-70 0 -110 -84 -110 -168c0 -47 21 -77 59 -77z" />
    <glyph glyph-name="colonmonetaryinferior" horiz-adv-x="369" 
d="M56 -150h-31l27 66c-31 22 -50 60 -50 114c0 124 84 194 164 194c5 0 10 0 14 -1l20 47h33l-22 -52c7 -2 14 -4 20 -7l25 59h31l-29 -71c18 -9 32 -19 44 -26l-27 -34c-8 5 -19 13 -34 21l-90 -218c36 7 73 28 91 36l20 -39c-28 -13 -79 -40 -130 -43l-19 -46h-32l20 48
c-8 1 -16 3 -23 5zM55 34c0 -29 6 -52 18 -68l89 213c-57 -8 -107 -66 -107 -145zM97 -53c6 -3 14 -5 22 -6l96 231l-21 6z" />
    <glyph glyph-name="colonmonetary.onum" horiz-adv-x="505" 
d="M135 0h-40l37 89c-43 30 -69 83 -69 156c0 173 116 267 225 267c7 0 14 -1 20 -1l27 63h41l-30 -70c11 -3 21 -7 31 -11l34 81h41l-41 -97c24 -12 43 -26 58 -35l-32 -39c-10 6 -25 17 -45 28l-132 -315c52 9 108 41 130 53l24 -46c-37 -19 -107 -56 -177 -60l-26 -63
h-41l27 65c-11 1 -22 4 -32 8zM124 250c0 -46 11 -82 32 -105l132 316c-86 -6 -164 -95 -164 -211zM186 123c10 -5 21 -7 32 -8l140 333c-10 4 -21 7 -31 10z" />
    <glyph glyph-name="coloninferior" horiz-adv-x="180" 
d="M17 54l13 73h59l-12 -73h-60zM-19 -150l13 73h59l-12 -73h-60z" />
    <glyph glyph-name="gsuperior" horiz-adv-x="398" 
d="M356 700h52l-59 -333c-16 -88 -71 -110 -143 -110c-46 0 -103 9 -150 22l16 43c46 -13 89 -23 132 -23c65 0 88 36 93 67l12 67c-28 -25 -75 -55 -128 -55c-48 0 -98 30 -98 115c0 123 62 214 152 214c52 0 89 -30 113 -51zM195 420c49 0 86 29 122 59l24 135
c-23 26 -58 51 -95 51c-70 0 -110 -84 -110 -168c0 -47 21 -77 59 -77z" />
    <glyph glyph-name="cinferior" horiz-adv-x="351" 
d="M286 121l-26 -34c-17 11 -58 41 -100 41c-62 0 -120 -61 -120 -147c0 -59 28 -94 75 -94c42 0 91 28 112 38l20 -38c-30 -15 -85 -44 -139 -44c-70 0 -121 47 -121 134c0 125 84 195 165 195c59 0 108 -34 134 -51z" />
    <glyph glyph-name="cent.onum" horiz-adv-x="503" 
d="M243 0h-47l11 62c-89 7 -147 72 -147 182c0 173 116 267 225 267h1l11 63h47l-12 -68c59 -13 107 -47 134 -65l-32 -39c-19 11 -62 44 -111 55l-60 -340c51 10 103 39 124 51l24 -46c-34 -17 -94 -49 -157 -58zM121 249c0 -80 32 -129 95 -135l60 345
c-83 -11 -155 -98 -155 -210z" />
    <glyph glyph-name="c_t" horiz-adv-x="878" 
d="M668 560c12 71 -8 130 -89 130c-80 0 -136 -61 -136 -140c0 -23 5 -44 15 -60l46 -31l-35 -42c-23 15 -85 64 -151 64c-105 0 -206 -112 -206 -268c0 -106 45 -169 127 -169c66 0 143 49 171 64l27 -51c-43 -22 -125 -68 -207 -68c-108 0 -182 81 -182 218
c0 212 136 329 261 329c37 0 71 -9 100 -21c-3 13 -5 27 -5 44c0 98 76 170 179 170c109 0 164 -70 146 -179l-5 -25h145l-10 -50h-144l-66 -373c-8 -45 11 -58 40 -58c31 0 86 21 108 30l19 -51c-22 -9 -96 -34 -135 -34c-55 0 -109 27 -92 123l64 363h-72l9 50h72z" />
    <glyph glyph-name="c_l" horiz-adv-x="765" 
d="M619 0h-62l122 690h-94c-84 0 -139 -62 -139 -137c0 -24 4 -47 14 -65l44 -29l-35 -42c-23 15 -85 64 -151 64c-105 0 -206 -112 -206 -268c0 -106 45 -169 127 -169c66 0 143 49 171 64l27 -51c-43 -22 -125 -68 -207 -68c-108 0 -182 81 -182 218
c0 212 136 329 261 329c38 0 72 -10 102 -22c-4 13 -6 27 -6 45c0 95 69 170 177 170h166z" />
    <glyph glyph-name="c_k" horiz-adv-x="1023" 
d="M1014 525l-216 -214l155 -311h-64l-134 268l-114 -113l-27 -155h-62l122 690h-89c-84 0 -139 -62 -139 -137c0 -24 4 -47 14 -65l44 -29l-35 -42c-23 15 -85 64 -151 64c-105 0 -206 -112 -206 -268c0 -106 45 -169 127 -169c66 0 143 49 171 64l27 -51
c-43 -22 -125 -68 -207 -68c-108 0 -182 81 -182 218c0 212 136 329 261 329c38 0 72 -10 102 -22c-4 13 -6 27 -6 45c0 95 69 170 177 170h161l-87 -493l282 289h76z" />
    <glyph glyph-name="c_h" horiz-adv-x="1113" 
d="M743 729l-49 -279c41 28 137 86 224 86c108 0 142 -71 125 -164l-65 -372h-63l65 366c11 65 -1 117 -75 117c-79 0 -181 -62 -222 -94l-69 -389h-62l122 690h-89c-84 0 -139 -62 -139 -137c0 -24 4 -47 14 -65l44 -29l-35 -42c-23 15 -85 64 -151 64
c-105 0 -206 -112 -206 -268c0 -106 45 -169 127 -169c66 0 143 49 171 64l27 -51c-43 -22 -125 -68 -207 -68c-108 0 -182 81 -182 218c0 212 136 329 261 329c38 0 72 -10 102 -22c-4 13 -6 27 -6 45c0 95 68 170 177 170h161z" />
    <glyph glyph-name="hinferior" horiz-adv-x="390" 
d="M108 287l-30 -165c26 17 85 50 139 50c67 0 90 -43 80 -102l-39 -220h-51l39 215c6 36 -1 65 -45 65c-47 0 -107 -34 -131 -53l-40 -227h-51l77 437h52z" />
    <glyph glyph-name="brokenbar.sc" horiz-adv-x="250" 
d="M155 332h-49l60 339h49zM79 -101h-49l60 339h49z" />
    <glyph glyph-name="bracketrightsuperior" horiz-adv-x="239" 
d="M173 299h-138l6 35h83l92 519h-83l6 35h138z" />
    <glyph glyph-name="bracketrightinferior" horiz-adv-x="240" 
d="M80 -236h-138l6 35h83l92 519h-83l6 35h138z" />
    <glyph glyph-name="bracketright.sc" horiz-adv-x="326" 
d="M153 -118h-180l8 44h116l128 718h-117l7 44h180z" />
    <glyph glyph-name="bracketleftsuperior" horiz-adv-x="238" 
d="M204 299h-138l104 589h138l-7 -35h-83l-92 -519h84z" />
    <glyph glyph-name="bracketleftinferior" horiz-adv-x="239" 
d="M110 -236h-138l104 589h138l-7 -35h-83l-92 -519h84z" />
    <glyph glyph-name="bracketleft.sc" horiz-adv-x="327" 
d="M206 -118h-180l142 806h180l-8 -44h-116l-128 -718h117z" />
    <glyph glyph-name="bracerightsuperior" horiz-adv-x="273" 
d="M298 615l-8 -43c-57 1 -71 -43 -72 -73l-3 -58c-3 -91 -48 -142 -162 -142h-18l6 35h12c81 0 103 46 107 98l1 58c1 65 31 95 87 104c-44 11 -72 40 -51 107l17 50c16 52 20 103 -70 103h-11l6 34h12c104 0 146 -53 116 -145l-17 -54c-18 -55 5 -74 48 -74z" />
    <glyph glyph-name="bracerightinferior" horiz-adv-x="274" 
d="M204 80l-8 -43c-57 1 -71 -43 -72 -73l-3 -58c-3 -91 -48 -142 -162 -142h-18l6 35h12c81 0 103 46 107 98l1 58c1 65 31 95 87 104c-44 11 -72 40 -51 107l17 50c16 52 20 103 -70 103h-11l6 34h12c104 0 146 -53 116 -145l-17 -54c-18 -55 5 -74 48 -74z" />
    <glyph glyph-name="iinferior" horiz-adv-x="168" 
d="M30 -150h-51l56 315h51zM43 227l10 59h57l-9 -59h-58z" />
    <glyph glyph-name="braceright.sc" horiz-adv-x="377" 
d="M331 313l-10 -55c-80 0 -101 -62 -102 -102l-2 -78c-4 -124 -63 -195 -223 -195h-21l7 43h16c119 0 151 65 156 141l3 78c3 86 40 128 113 141c-56 14 -93 53 -65 142l22 73c23 74 28 143 -101 143h-16l7 44h16c147 0 198 -75 157 -199l-24 -74c-25 -78 9 -102 67 -102z
" />
    <glyph glyph-name="braceleftsuperior" horiz-adv-x="274" 
d="M78 572l6 43c59 0 75 44 76 73l1 58c3 91 49 142 163 142h18l-6 -34h-12c-82 0 -104 -47 -107 -100l-3 -57c-3 -64 -31 -94 -85 -104c43 -11 70 -40 49 -106l-16 -49c-16 -53 -20 -104 69 -104h12l-5 -35h-12c-104 0 -144 53 -117 145l16 55c16 55 -4 73 -47 73z" />
    <glyph glyph-name="braceleftinferior" horiz-adv-x="275" 
d="M-15 37l6 43c59 0 75 44 76 73l1 58c3 91 49 142 163 142h18l-6 -34h-12c-82 0 -104 -47 -107 -100l-3 -57c-3 -64 -31 -94 -85 -104c43 -11 70 -40 49 -106l-16 -49c-16 -53 -20 -104 69 -104h12l-5 -35h-12c-104 0 -144 53 -117 145l16 55c16 55 -4 73 -47 73z" />
    <glyph glyph-name="braceleft.sc" horiz-adv-x="377" 
d="M40 258l10 55c81 -1 103 62 103 101l1 79c2 123 63 195 222 195h22l-8 -44h-16c-117 0 -150 -65 -154 -140l-3 -78c-4 -87 -41 -129 -116 -142c58 -13 97 -53 68 -142l-23 -72c-24 -74 -28 -144 100 -144h17l-7 -43h-16c-146 0 -196 74 -157 198l24 75
c25 77 -8 102 -67 102z" />
    <glyph glyph-name="binferior" horiz-adv-x="392" 
d="M-21 -150l77 437h52l-29 -163c27 21 68 48 117 48c53 0 108 -29 108 -116c0 -122 -60 -213 -148 -213c-56 0 -95 30 -119 51l-7 -44h-51zM184 130c-44 0 -80 -27 -114 -53l-25 -141c25 -26 60 -51 101 -51c66 0 105 84 105 167c0 49 -22 78 -67 78z" />
    <glyph glyph-name="bar.sc" horiz-adv-x="249" 
d="M78 -101h-49l136 772h49z" />
    <glyph glyph-name="backslash.sc" horiz-adv-x="399" 
d="M257 -74l-162 722h49l161 -722h-48z" />
    <glyph glyph-name="at.sc" horiz-adv-x="804" 
d="M323 -113c98 0 159 39 159 39l18 -29s-69 -44 -177 -44c-177 0 -282 131 -282 298c0 210 157 412 415 412c217 0 308 -148 279 -340c-21 -121 -77 -240 -192 -240c-76 0 -85 57 -82 95c-33 -26 -85 -58 -146 -58c-51 0 -99 39 -99 97c0 101 71 146 142 146
c46 0 102 -16 131 -23c4 18 6 34 9 49c11 57 -2 83 -62 83c-42 0 -92 -19 -135 -36l-15 41c54 22 114 37 159 37c75 0 117 -35 103 -120l-31 -173c-9 -46 -17 -100 38 -100c46 0 121 57 144 202c27 166 -41 305 -244 305c-232 0 -377 -181 -377 -375
c0 -150 90 -266 245 -266zM468 125l16 84c-25 5 -71 17 -109 17c-80 0 -106 -55 -106 -102c0 -44 27 -62 64 -62c42 0 95 29 135 63z" />
    <glyph glyph-name="asterisksuperior" horiz-adv-x="316" 
d="M183 588l29 91l-89 -45l-16 43l97 20l-84 51l30 35l68 -72l3 94l46 -7l-29 -90l88 45l16 -44l-96 -19l83 -51l-30 -35l-66 70l-4 -92z" />
    <glyph glyph-name="jinferior" horiz-adv-x="169" 
d="M43 227l10 59h57l-10 -59h-57zM86 165l-58 -327c-11 -66 -15 -89 -126 -116l-13 40c76 22 81 33 88 73l58 330h51z" />
    <glyph glyph-name="asteriskinferior" horiz-adv-x="320" 
d="M93 53l29 91l-89 -45l-16 43l97 20l-84 51l30 35l68 -72l3 94l46 -7l-29 -90l88 45l16 -44l-96 -19l83 -51l-30 -35l-66 70l-4 -92z" />
    <glyph glyph-name="ampersandsuperior" horiz-adv-x="452" 
d="M445 385h-59l-43 50c-39 -34 -88 -57 -146 -57c-72 0 -124 36 -124 100c0 66 57 104 116 136c-25 30 -42 57 -42 96c0 68 58 102 116 102c54 0 102 -28 102 -83c0 -56 -54 -92 -110 -125l88 -102c26 33 46 71 57 104h53c-12 -38 -38 -93 -79 -140zM199 419
c43 0 82 20 114 50l-97 113c-48 -29 -90 -60 -90 -103c0 -26 16 -60 73 -60zM196 710c0 -30 15 -55 32 -75c47 26 87 52 87 92c0 27 -17 45 -52 45c-44 0 -67 -27 -67 -62z" />
    <glyph glyph-name="ampersandinferior" horiz-adv-x="447" 
d="M350 -150h-59l-43 50c-39 -33 -88 -57 -146 -57c-72 0 -124 36 -124 100c0 66 57 104 116 136c-25 30 -42 57 -42 96c0 68 58 102 116 102c54 0 102 -28 102 -83c0 -56 -54 -92 -110 -125l88 -102c26 33 46 71 57 104h53c-12 -38 -38 -93 -79 -139zM104 -116
c43 0 82 21 114 50l-97 113c-48 -29 -90 -59 -90 -103c0 -26 16 -60 73 -60zM101 175c0 -30 15 -55 32 -75c47 26 87 52 87 92c0 27 -17 45 -52 45c-45 0 -67 -27 -67 -62z" />
    <glyph glyph-name="ampersand.sc" horiz-adv-x="612" 
d="M533 0h-69l-64 73c-53 -48 -121 -82 -202 -82c-96 0 -167 48 -167 136c0 90 79 142 161 187c-35 41 -59 79 -59 132c0 93 79 137 154 137c67 0 136 -36 136 -110c0 -77 -74 -126 -152 -172l129 -148c37 48 65 103 81 150h64c-16 -52 -51 -129 -108 -193zM199 40
c64 0 120 30 166 74l-140 161c-70 -42 -132 -85 -132 -148c0 -39 24 -87 106 -87zM191 445c0 -44 24 -79 47 -106c68 37 126 74 126 131c0 39 -26 65 -76 65c-64 0 -97 -40 -97 -90z" />
    <glyph glyph-name="kinferior" horiz-adv-x="342" 
d="M283 165l-135 -129l99 -186h-52l-82 153l-68 -64l-15 -89h-51l77 437h52l-51 -283l163 161h63z" />
    <glyph glyph-name="ksuperior" horiz-adv-x="344" 
d="M377 700l-135 -129l99 -186h-52l-82 153l-68 -65l-15 -88h-51l77 437h52l-51 -283l163 161h63z" />
    <glyph glyph-name="ainferior" horiz-adv-x="393" 
d="M256 -150h-52l8 47c-29 -24 -75 -54 -126 -54c-50 0 -100 30 -100 115c0 123 63 214 154 214c50 0 88 -30 112 -51l8 44h52zM98 -115c49 0 88 30 123 60l24 135c-25 26 -58 50 -96 50c-69 0 -109 -84 -109 -168c0 -47 19 -77 58 -77z" />
    <glyph glyph-name="Zsuperior" horiz-adv-x="409" 
d="M52 385l8 42l317 333h-244l7 45h313l-6 -41l-318 -334h261l-7 -45h-331z" />
    <glyph glyph-name="Zinferior" horiz-adv-x="409" 
d="M-42 -150l8 42l317 333h-244l7 45h313l-6 -41l-318 -334h261l-7 -45h-331z" />
    <glyph glyph-name="Zdotaccent.sc" horiz-adv-x="544" 
d="M538 574l-8 -49l-451 -471h371l-8 -54h-451l8 50l448 470h-344l8 54h427zM297 636l14 87h73l-15 -87h-72z" />
    <glyph glyph-name="Zcaron.sc" horiz-adv-x="544" 
d="M538 574l-8 -49l-451 -471h371l-8 -54h-451l8 50l448 470h-344l8 54h427zM291 626l-74 128h45l73 -89l103 89h53l-118 -128h-82z" />
    <glyph glyph-name="Zacute.sc" horiz-adv-x="544" 
d="M538 574l-8 -49l-451 -471h371l-8 -54h-451l8 50l448 470h-344l8 54h427zM319 626h-58l137 128h103z" />
    <glyph glyph-name="Z.sc" horiz-adv-x="544" 
d="M538 574l-8 -49l-451 -471h371l-8 -54h-451l8 50l448 470h-344l8 54h427z" />
    <glyph glyph-name="linferior" horiz-adv-x="169" 
d="M30 -150h-51l77 437h52z" />
    <glyph glyph-name="Ysuperior" horiz-adv-x="406" 
d="M191 385l29 167l-115 253h56l90 -214l163 214h64l-204 -254l-29 -166h-54z" />
    <glyph glyph-name="lira.onum" horiz-adv-x="500" 
d="M73 268l6 40h70c-15 37 -35 71 -35 117c0 93 72 158 184 158c80 0 142 -37 183 -62l-33 -39c-50 27 -100 48 -146 48c-82 0 -128 -51 -128 -108c0 -47 23 -76 37 -114h163l-7 -40h-146c1 -7 2 -14 2 -21c0 -13 -2 -25 -5 -37h138l-7 -40h-144c-28 -59 -80 -101 -101 -117
h282l-9 -53h-360l7 44s83 52 121 126h-89l6 40h98c2 10 4 20 4 31c0 9 -1 18 -3 27h-88z" />
    <glyph glyph-name="lirainferior" horiz-adv-x="365" 
d="M12 46l3 32h49c-11 25 -25 50 -25 83c0 69 53 116 135 116c63 0 108 -28 140 -48l-29 -33c-36 21 -71 36 -105 36c-55 0 -88 -36 -88 -75c0 -31 16 -53 27 -79h116l-5 -32h-102c0 -5 1 -10 1 -15c0 -9 -1 -17 -3 -25h96l-5 -32h-102c-20 -39 -55 -67 -69 -79h199l-7 -45
h-268l6 38s58 35 86 86h-64l5 32h71c1 6 2 13 2 20s-1 13 -2 20h-62z" />
    <glyph glyph-name="lirasuperior" horiz-adv-x="369" 
d="M108 581l3 32h49c-11 25 -25 50 -25 83c0 69 53 116 135 116c63 0 108 -28 140 -48l-29 -33c-36 21 -71 36 -105 36c-54 0 -88 -36 -88 -75c0 -31 16 -53 27 -79h116l-5 -32h-102c0 -5 1 -10 1 -15c0 -9 -1 -17 -3 -25h96l-5 -32h-102c-20 -40 -55 -67 -69 -79h199
l-7 -45h-268l6 38s58 34 86 86h-64l5 32h71c1 6 2 13 2 20s-1 13 -2 20h-62z" />
    <glyph glyph-name="Yinferior" horiz-adv-x="406" 
d="M97 -150l29 167l-115 253h56l90 -214l163 214h64l-204 -254l-29 -166h-54z" />
    <glyph glyph-name="Ygrave.sc" horiz-adv-x="564" 
d="M196 0l40 226l-161 348h66l130 -300l234 300h75l-283 -348l-39 -226h-62zM413 626h-50l-145 128h91z" />
    <glyph glyph-name="Ydieresis.sc" horiz-adv-x="564" 
d="M196 0l40 226l-161 348h66l130 -300l234 300h75l-283 -348l-39 -226h-62zM221 636l15 87h72l-14 -87h-73zM385 636l16 87h70l-16 -87h-70z" />
    <glyph glyph-name="Yacute.sc" horiz-adv-x="564" 
d="M196 0l40 226l-161 348h66l130 -300l234 300h75l-283 -348l-39 -226h-62zM325 626h-57l138 128h101z" />
    <glyph glyph-name="Y.sc" horiz-adv-x="564" 
d="M196 0l40 228l-161 346h65l130 -301l235 301h75l-283 -348l-39 -226h-62z" />
    <glyph glyph-name="Xsuperior" horiz-adv-x="409" 
d="M121 805h58l81 -178l143 178h64l-181 -211l115 -209h-61l-85 176l-148 -176h-68l188 209z" />
    <glyph glyph-name="Xinferior" horiz-adv-x="409" 
d="M27 270h58l81 -178l143 178h64l-181 -211l115 -209h-61l-85 176l-148 -176h-68l188 209z" />
    <glyph glyph-name="minferior" horiz-adv-x="586" 
d="M85 165l-9 -46c26 21 74 53 124 53c51 0 76 -26 82 -59c24 21 78 59 131 59c69 0 89 -45 79 -100l-38 -222h-51l39 215c6 35 -1 65 -43 65c-43 0 -92 -34 -119 -58l-38 -222h-53l39 215c7 35 0 65 -42 65s-91 -33 -118 -57l-39 -223h-51l56 315h51z" />
    <glyph glyph-name="X.sc" horiz-adv-x="543" 
d="M87 574h67l118 -251l205 251h77l-251 -289l160 -285h-70l-127 247l-211 -247h-79l259 285z" />
    <glyph glyph-name="Wsuperior" horiz-adv-x="600" 
d="M410 385l-32 349l-156 -349h-59l-47 420h58l30 -353l160 353h51l31 -357l155 357h62l-195 -420h-58z" />
    <glyph glyph-name="Winferior" horiz-adv-x="599" 
d="M315 -150l-32 349l-156 -349h-59l-47 420h58l30 -353l160 353h51l31 -356l155 356h62l-195 -420h-58z" />
    <glyph glyph-name="Wgrave.sc" horiz-adv-x="827" 
d="M496 0l-49 494l-225 -494h-66l-67 574h67l47 -501l227 501h60l47 -505l224 505h71l-268 -574h-68zM540 626h-49l-144 128h91z" />
    <glyph glyph-name="Wdieresis.sc" horiz-adv-x="827" 
d="M496 0l-49 494l-225 -494h-66l-67 574h67l47 -501l227 501h60l47 -505l224 505h71l-268 -574h-68zM353 636l15 87h73l-16 -87h-72zM518 636l15 87h71l-16 -87h-70z" />
    <glyph glyph-name="Wcircumflex.sc" horiz-adv-x="827" 
d="M496 0l-49 494l-225 -494h-66l-67 574h67l47 -501l227 501h60l47 -505l224 505h71l-268 -574h-68zM533 754l74 -128h-45l-73 90l-103 -90h-53l118 128h82z" />
    <glyph glyph-name="Wacute.sc" horiz-adv-x="827" 
d="M496 0l-49 494l-225 -494h-66l-67 574h67l47 -501l227 501h60l47 -505l224 505h71l-268 -574h-68zM456 626h-57l138 128h102z" />
    <glyph glyph-name="W.sc" horiz-adv-x="827" 
d="M495 0l-48 493l-225 -493h-67l-66 574h66l47 -501l227 501h61l47 -505l223 505h72l-269 -574h-68z" />
    <glyph glyph-name="Vsuperior" horiz-adv-x="439" 
d="M169 805l73 -369l202 369h63l-243 -420h-58l-96 420h59z" />
    <glyph glyph-name="Vinferior" horiz-adv-x="439" 
d="M75 270l73 -369l202 369h63l-243 -420h-58l-96 420h59z" />
    <glyph glyph-name="nine.dnom" horiz-adv-x="408" 
d="M80 38c94 0 174 64 204 156c-19 -17 -58 -43 -117 -43c-86 0 -130 59 -130 120c0 79 59 156 164 156c102 0 149 -75 149 -151c0 -154 -117 -283 -267 -283c-40 0 -65 10 -65 10l19 39s18 -4 43 -4zM177 193c57 0 104 38 120 62c0 8 1 16 1 24c0 52 -31 103 -95 103
c-72 0 -113 -53 -113 -110c0 -38 26 -79 87 -79z" />
    <glyph glyph-name="nine.numr" horiz-adv-x="408" 
d="M130 318c94 0 174 64 204 156c-19 -17 -58 -43 -117 -43c-86 0 -130 59 -130 120c0 79 58 156 164 156c102 0 149 -75 149 -151c0 -154 -117 -283 -268 -283c-39 0 -65 10 -65 10l19 39s18 -4 44 -4zM227 473c57 0 104 38 120 62c0 8 1 16 1 24c0 52 -31 103 -95 103
c-72 0 -113 -53 -113 -110c0 -38 26 -79 87 -79z" />
    <glyph glyph-name="nine.onum" horiz-adv-x="603" 
d="M118 -84c158 0 290 127 339 291c-29 -30 -95 -82 -196 -82c-136 0 -202 99 -202 195c0 132 92 262 258 262c154 0 224 -122 224 -239c0 -264 -187 -483 -420 -483c-57 0 -97 14 -97 14l25 51s29 -9 69 -9zM270 179c99 0 182 73 205 119c1 15 2 30 2 45
c0 89 -51 183 -158 183c-122 0 -194 -99 -194 -205c0 -68 43 -142 145 -142z" />
    <glyph glyph-name="nine.tnum" horiz-adv-x="615" 
d="M146 45c158 0 290 127 338 291c-28 -29 -95 -82 -195 -82c-137 0 -203 99 -203 195c0 132 92 262 258 262c155 0 224 -122 224 -239c0 -264 -187 -483 -420 -483c-57 0 -97 14 -97 14l25 51s29 -9 70 -9zM297 308c99 0 182 73 205 119c1 15 2 30 2 45
c0 89 -51 183 -158 183c-121 0 -194 -99 -194 -205c0 -68 44 -142 145 -142z" />
    <glyph glyph-name="V.sc" horiz-adv-x="605" 
d="M147 574l109 -513l287 513h74l-334 -574h-70l-132 574h66z" />
    <glyph glyph-name="Utilde.sc" horiz-adv-x="620" 
d="M262 638l-35 22c31 46 53 71 92 71c51 0 79 -49 113 -49c15 0 28 6 57 46l35 -22c-31 -46 -53 -71 -92 -71c-52 0 -79 49 -113 49c-15 0 -28 -5 -57 -46zM579 574l-66 -372c-20 -116 -87 -211 -256 -211s-207 94 -185 219l64 364h62l-66 -369c-16 -88 -2 -159 124 -159
c129 0 179 71 195 159l66 369h62z" />
    <glyph glyph-name="ninferior" horiz-adv-x="390" 
d="M85 165l-8 -43c26 17 85 50 139 50c67 0 90 -43 80 -102l-38 -220h-52l39 215c6 36 -1 65 -45 65c-47 0 -107 -34 -131 -53l-40 -227h-51l56 315h51z" />
    <glyph glyph-name="Usuperior" horiz-adv-x="457" 
d="M480 805l-48 -271c-15 -86 -62 -156 -187 -156c-128 0 -155 72 -138 165l46 262h53l-47 -269c-12 -62 -3 -112 86 -112c88 0 123 50 134 112l47 269h54z" />
    <glyph glyph-name="Uring.sc" horiz-adv-x="620" 
d="M278 717c0 56 45 102 101 102s102 -46 102 -102s-46 -101 -102 -101s-101 45 -101 101zM318 717c0 -34 27 -60 61 -60s61 26 61 60s-27 61 -61 61s-61 -27 -61 -61zM579 574l-66 -372c-20 -116 -87 -211 -256 -211s-207 94 -185 219l64 364h62l-66 -369
c-16 -88 -2 -159 124 -159c129 0 179 71 195 159l66 369h62z" />
    <glyph glyph-name="Uogonek.sc" horiz-adv-x="620" 
d="M579 574l-65 -372c-17 -95 -65 -175 -173 -202c-83 -40 -119 -70 -119 -105c0 -32 41 -30 75 -30l-16 -44c-38 0 -114 0 -114 66c0 43 35 75 94 104h-3c-170 0 -207 94 -185 219l64 364h62l-66 -369c-16 -88 -3 -159 123 -159c129 0 179 71 195 159l66 369h62z" />
    <glyph glyph-name="Umacron.sc" horiz-adv-x="620" 
d="M226 651l9 46h284l-8 -46h-285zM579 574l-66 -372c-20 -116 -87 -211 -256 -211s-207 94 -185 219l64 364h62l-66 -369c-16 -88 -2 -159 124 -159c129 0 179 71 195 159l66 369h62z" />
    <glyph glyph-name="numbersign.onum" horiz-adv-x="669" 
d="M322 0l50 150h-174l-51 -150h-51l51 150h-119l8 47h127l61 179h-119l7 47h128l51 151h51l-52 -151h175l51 151h51l-52 -151h120l-7 -47h-129l-61 -179h122l-8 -47h-130l-51 -150h-49zM274 376l-60 -179h174l61 179h-175z" />
    <glyph glyph-name="numbersigninferior" horiz-adv-x="486" 
d="M189 -150l36 107h-121l-36 -107h-43l36 107h-83l7 40h90l42 125h-83l6 40h91l37 108h43l-37 -108h120l36 108h43l-36 -108h85l-7 -40h-92l-42 -125h85l-7 -40h-91l-36 -107h-43zM160 122l-42 -125h120l42 125h-120z" />
    <glyph glyph-name="numbersignsuperior" horiz-adv-x="487" 
d="M285 385l36 107h-121l-36 -107h-43l36 107h-83l7 40h90l42 125h-83l6 40h91l37 108h43l-37 -108h120l36 108h43l-36 -108h85l-7 -40h-92l-42 -125h85l-7 -40h-91l-36 -107h-43zM256 657l-42 -125h120l42 125h-120z" />
    <glyph glyph-name="Uinferior" horiz-adv-x="457" 
d="M387 270l-48 -271c-15 -86 -62 -156 -187 -156c-128 0 -155 72 -138 165l46 262h53l-47 -269c-12 -62 -3 -112 86 -112c88 0 123 50 134 112l47 269h54z" />
    <glyph glyph-name="Uhungarumlaut.sc" horiz-adv-x="620" 
d="M441 626h-44l94 128h88zM298 626h-44l94 128h89zM579 574l-66 -372c-20 -116 -87 -211 -256 -211s-207 94 -185 219l64 364h62l-66 -369c-16 -88 -2 -159 124 -159c129 0 179 71 195 159l66 369h62z" />
    <glyph glyph-name="Ugrave.sc" horiz-adv-x="620" 
d="M436 626h-49l-144 128h90zM579 574l-66 -372c-20 -116 -87 -211 -256 -211s-207 94 -185 219l64 364h62l-66 -369c-16 -88 -2 -159 124 -159c129 0 179 71 195 159l66 369h62z" />
    <glyph glyph-name="Udieresis.sc" horiz-adv-x="620" 
d="M249 636l14 87h73l-15 -87h-72zM413 636l15 87h72l-15 -87h-72zM579 574l-66 -372c-20 -116 -87 -211 -256 -211s-207 94 -185 219l64 364h62l-66 -369c-16 -88 -2 -159 124 -159c129 0 179 71 195 159l66 369h62z" />
    <glyph glyph-name="Ucircumflex.sc" horiz-adv-x="620" 
d="M428 754l74 -128h-44l-73 90l-104 -90h-52l119 128h80zM579 574l-66 -372c-20 -116 -87 -211 -256 -211s-207 94 -185 219l64 364h62l-66 -369c-16 -88 -2 -159 124 -159c129 0 179 71 195 159l66 369h62z" />
    <glyph glyph-name="Ubreve.sc" horiz-adv-x="620" 
d="M364 626c-82 0 -126 41 -115 102h50c-6 -40 15 -56 66 -56s94 16 101 56h51c-11 -62 -65 -102 -153 -102zM579 574l-66 -372c-20 -116 -87 -211 -256 -211s-207 94 -185 219l64 364h62l-66 -369c-16 -88 -2 -159 124 -159c129 0 179 71 195 159l66 369h62z" />
    <glyph glyph-name="Uacute.sc" horiz-adv-x="620" 
d="M353 626h-58l137 128h103zM579 574l-66 -372c-20 -116 -87 -211 -256 -211s-207 94 -185 219l64 364h62l-66 -369c-16 -88 -2 -159 124 -159c129 0 179 71 195 159l66 369h62z" />
    <glyph glyph-name="U.sc" horiz-adv-x="620" 
d="M579 574l-65 -372c-21 -116 -88 -211 -256 -211c-170 0 -207 94 -185 219l64 364h62l-66 -369c-16 -88 -3 -159 123 -159c129 0 179 71 195 159l66 369h62z" />
    <glyph glyph-name="Tsuperior" horiz-adv-x="381" 
d="M435 760h-137l-67 -375h-54l67 375h-137l7 45h328z" />
    <glyph glyph-name="oinferior" horiz-adv-x="394" 
d="M157 172c94 0 148 -52 148 -138c0 -105 -67 -191 -170 -191c-94 0 -148 52 -148 138c0 105 67 191 170 191zM134 -115c76 0 119 74 119 150c0 54 -25 95 -95 95c-76 0 -119 -74 -119 -150c0 -54 25 -95 95 -95z" />
    <glyph glyph-name="Tinferior" horiz-adv-x="381" 
d="M341 225h-137l-67 -375h-54l67 375h-137l7 45h328z" />
    <glyph glyph-name="Thorn.sc" horiz-adv-x="580" 
d="M529 317c0 -126 -104 -195 -248 -195h-156l-21 -122h-62l101 574h62l-18 -104h139c115 0 203 -41 203 -153zM465 317c0 74 -60 99 -138 99h-148l-45 -241h145c100 0 186 43 186 142z" />
    <glyph glyph-name="one.dnom" horiz-adv-x="245" 
d="M124 0h-55l67 365l-83 -40l-19 39l115 56h49z" />
    <glyph glyph-name="one.numr" horiz-adv-x="246" 
d="M174 280h-55l67 365l-83 -40l-19 39l116 56h48z" />
    <glyph glyph-name="one.onum" horiz-adv-x="346" 
d="M195 0h-65l89 502l-134 -67l-23 51l177 88h57z" />
    <glyph glyph-name="one.tnum" horiz-adv-x="615" 
d="M36 0l9 57h203l101 571l-188 -92l-22 49l230 115h57l-113 -643h204l-9 -57h-472z" />
    <glyph glyph-name="Tcedilla.sc" horiz-adv-x="502" 
d="M57 -151l23 41c20 -10 38 -13 53 -13c32 0 64 16 64 59c0 28 -13 59 -16 64h-15l93 520h-193l8 54h447l-9 -54h-191l-92 -520h-15c3 -5 27 -37 27 -77c0 -55 -39 -92 -107 -92c-26 0 -55 6 -77 18z" />
    <glyph glyph-name="oneeighth.onum" horiz-adv-x="726" 
d="M352 83c0 58 59 89 108 105c-27 14 -52 36 -52 73c0 52 55 89 127 89c69 0 114 -31 114 -78c0 -48 -49 -74 -89 -88c38 -16 78 -42 78 -89c0 -60 -71 -101 -157 -101c-75 0 -129 31 -129 89zM528 574l-390 -574h-50l389 574h51zM156 230h-47l53 297l-71 -33l-17 34
l100 46h42zM588 96c0 39 -43 59 -79 73c-51 -15 -109 -38 -109 -84c0 -36 34 -54 81 -54c56 0 107 26 107 65zM455 257c0 -30 31 -46 54 -54c44 12 92 28 92 64c0 27 -24 48 -65 48c-44 0 -81 -27 -81 -58z" />
    <glyph glyph-name="onefifth" horiz-adv-x="815" 
d="M459 213l60 207h239l-7 -45h-195l-33 -123c21 9 45 15 74 15c84 0 130 -55 130 -124c0 -80 -65 -150 -173 -150c-72 0 -119 31 -143 48l29 35c13 -9 55 -37 109 -37c58 0 124 37 124 104c0 47 -30 80 -88 80c-41 0 -77 -17 -96 -27zM613 700l-455 -700h-56l454 700h57z
M183 280h-55l66 365l-83 -40l-18 39l115 56h49z" />
    <glyph glyph-name="onefifth.onum" horiz-adv-x="725" 
d="M399 174l50 170h208l-6 -38h-169l-27 -99c18 7 39 12 64 12c74 0 114 -45 114 -102c0 -66 -56 -123 -150 -123c-63 0 -104 26 -125 40l25 30c11 -7 48 -30 96 -30c50 0 106 29 106 82c0 39 -26 66 -77 66c-35 0 -65 -14 -82 -23zM529 574l-390 -574h-51l390 574h51z
M157 230h-47l53 297l-71 -33l-17 34l100 46h42z" />
    <glyph glyph-name="Tcaron.sc" horiz-adv-x="503" 
d="M515 520h-193l-92 -520h-62l92 520h-193l8 54h448zM269 626l-75 128h45l73 -89l104 89h52l-119 -128h-80z" />
    <glyph glyph-name="onehalf.onum" horiz-adv-x="728" 
d="M623 39l-7 -39h-255l4 28c12 77 74 105 146 144c59 32 107 59 105 97c-1 24 -24 43 -66 43c-43 0 -82 -19 -106 -32l-19 33c28 16 73 37 128 37c68 0 111 -33 111 -83c0 -66 -82 -104 -156 -144c-55 -29 -80 -46 -87 -84h202zM156 230h-47l53 297l-71 -33l-17 34l100 46
h42zM529 574l-390 -574h-52l390 574h52z" />
    <glyph glyph-name="Tbar.sc" horiz-adv-x="514" 
d="M108 190l7 42h97l52 288h-193l8 54h448l-8 -54h-193l-52 -288h97l-7 -42h-97l-34 -190h-62l34 190h-97z" />
    <glyph glyph-name="T.sc" horiz-adv-x="503" 
d="M514 520h-193l-92 -520h-62l92 520h-192l8 54h447z" />
    <glyph glyph-name="onequarter.onum" horiz-adv-x="699" 
d="M313 75l5 34l225 235h62l-42 -231h57l-5 -38h-59l-13 -75h-48l13 75h-195zM529 574l-390 -574h-52l390 574h52zM156 230h-47l53 297l-71 -33l-17 34l100 46h42zM373 113h142l34 188z" />
    <glyph glyph-name="onesixth" horiz-adv-x="795" 
d="M671 382c-94 0 -174 -65 -205 -158c20 18 58 45 117 45c87 0 131 -59 131 -121c0 -78 -58 -155 -164 -155c-102 0 -149 75 -149 150c0 155 117 284 267 284c39 0 65 -10 65 -10l-19 -39s-18 4 -43 4zM613 700l-455 -700h-56l454 700h57zM574 227c-58 0 -105 -38 -120 -63
c-1 -7 -1 -15 -1 -23c0 -52 31 -103 94 -103c73 0 114 53 114 110c0 38 -27 79 -87 79zM182 280h-54l66 365l-83 -40l-19 39l116 56h48z" />
    <glyph glyph-name="onesixth.onum" horiz-adv-x="708" 
d="M581 312c-81 0 -150 -52 -176 -127c17 14 50 35 101 35c76 0 115 -47 115 -99c0 -65 -50 -127 -142 -127c-90 0 -131 62 -131 126c0 126 100 230 230 230c34 0 57 -8 57 -8l-16 -34s-16 4 -38 4zM529 574l-390 -574h-51l390 574h51zM498 184c-50 0 -91 -29 -104 -49v-17
c0 -43 27 -85 83 -85c62 0 97 41 97 87c0 31 -23 64 -76 64zM157 230h-47l53 297l-72 -33l-16 34l100 46h42z" />
    <glyph glyph-name="Ssuperior" horiz-adv-x="408" 
d="M283 620c60 -23 119 -48 119 -118c0 -79 -74 -124 -161 -124c-70 0 -137 30 -176 55l29 38c36 -22 92 -48 147 -48c57 0 106 29 106 73c0 49 -56 63 -117 87c-59 22 -109 46 -109 111c0 73 64 118 152 118c61 0 121 -24 160 -45l-29 -36c-36 19 -91 36 -131 36
c-50 0 -95 -24 -95 -70c0 -42 40 -51 105 -77z" />
    <glyph glyph-name="Sinferior" horiz-adv-x="408" 
d="M189 85c60 -23 119 -48 119 -118c0 -79 -75 -124 -161 -124c-71 0 -137 30 -176 55l29 38c36 -22 93 -48 147 -48c57 0 106 29 106 73c0 49 -56 63 -117 87c-59 22 -109 46 -109 111c0 73 64 118 152 118c61 0 121 -24 160 -45l-29 -36c-36 19 -91 36 -131 36
c-50 0 -95 -24 -95 -70c0 -42 40 -51 105 -77z" />
    <glyph glyph-name="onethird.onum" horiz-adv-x="720" 
d="M350 34l25 31c18 -11 56 -32 108 -32c60 0 101 30 101 69c0 47 -53 66 -108 66h-16l5 39h20c54 0 112 27 112 64c0 25 -24 41 -63 41s-79 -19 -100 -29l-16 32c13 8 61 35 123 35c66 0 103 -33 103 -74c0 -33 -26 -69 -89 -88c43 -9 78 -43 78 -87
c0 -53 -48 -107 -148 -107c-68 0 -113 28 -135 40zM156 230h-47l53 297l-71 -33l-17 34l100 46h42zM528 574l-390 -574h-51l390 574h51z" />
    <glyph glyph-name="Scommaaccent.sc" horiz-adv-x="541" 
d="M156 -154l16 89h68l-4 -91l-84 -108l-18 23l55 87h-33zM295 320c88 -33 169 -67 169 -163c0 -107 -105 -166 -220 -166c-95 0 -182 41 -235 72l36 45c49 -28 123 -64 200 -64c83 0 156 41 156 108s-75 89 -161 122c-81 30 -153 60 -153 151c0 99 90 158 206 158
c82 0 160 -30 213 -59l-34 -43c-52 26 -122 49 -181 49c-71 0 -139 -36 -139 -103c0 -59 55 -73 143 -107z" />
    <glyph glyph-name="Scircumflex.sc" horiz-adv-x="541" 
d="M391 754l74 -128h-44l-74 90l-103 -90h-53l120 128h80zM295 320c88 -33 169 -67 169 -163c0 -107 -105 -166 -220 -166c-95 0 -182 41 -235 72l36 45c49 -28 123 -64 200 -64c83 0 156 41 156 108s-75 89 -161 122c-81 30 -153 60 -153 151c0 99 90 158 206 158
c82 0 160 -30 214 -59l-35 -43c-52 26 -122 49 -181 49c-71 0 -139 -36 -139 -103c0 -59 55 -73 143 -107z" />
    <glyph glyph-name="Scedilla.sc" horiz-adv-x="541" 
d="M295 320c88 -33 169 -67 169 -163c0 -103 -98 -162 -208 -166c8 -13 21 -38 21 -68c0 -55 -39 -91 -105 -91c-27 0 -56 6 -79 18l24 40c19 -10 39 -13 54 -13c30 0 63 16 63 59c0 21 -8 43 -12 56c-86 5 -164 42 -213 71l36 45c49 -28 123 -64 200 -64
c83 0 156 41 156 108s-75 89 -161 122c-81 30 -153 60 -153 151c0 99 90 158 206 158c82 0 160 -30 213 -59l-34 -43c-52 26 -122 49 -181 49c-71 0 -139 -36 -139 -103c0 -59 55 -73 143 -107z" />
    <glyph glyph-name="Scaron.sc" horiz-adv-x="541" 
d="M289 626l-76 128h46l73 -89l103 89h52l-117 -128h-81zM295 320c88 -33 169 -67 169 -163c0 -107 -105 -166 -220 -166c-95 0 -182 41 -235 72l36 45c49 -28 123 -64 200 -64c83 0 156 41 156 108s-75 89 -161 122c-81 30 -153 60 -153 151c0 99 90 158 206 158
c82 0 160 -30 214 -59l-35 -43c-52 26 -122 49 -181 49c-71 0 -139 -36 -139 -103c0 -59 55 -73 143 -107z" />
    <glyph glyph-name="Sacute.sc" horiz-adv-x="541" 
d="M315 626h-57l137 128h103zM295 320c88 -33 169 -67 169 -163c0 -107 -105 -166 -220 -166c-95 0 -182 41 -235 72l36 45c49 -28 123 -64 200 -64c83 0 156 41 156 108s-75 89 -161 122c-81 30 -153 60 -153 151c0 99 90 158 206 158c82 0 160 -30 214 -59l-35 -43
c-52 26 -122 49 -181 49c-71 0 -139 -36 -139 -103c0 -59 55 -73 143 -107z" />
    <glyph glyph-name="S.sc" horiz-adv-x="541" 
d="M295 320c88 -33 169 -67 169 -163c0 -107 -105 -166 -220 -166c-95 0 -182 41 -235 72l36 45c49 -28 123 -64 200 -64c83 0 156 41 156 108s-75 89 -161 122c-81 30 -153 60 -153 151c0 99 90 158 206 158c82 0 160 -30 213 -59l-34 -43c-52 26 -122 49 -181 49
c-71 0 -139 -36 -139 -103c0 -59 55 -73 143 -107z" />
    <glyph glyph-name="Rsuperior" horiz-adv-x="447" 
d="M363 385l-85 178h-109l-32 -178h-53l74 420h166c88 0 148 -31 148 -108c0 -76 -60 -124 -142 -133l87 -179h-54zM418 697c0 48 -41 65 -96 65h-118l-28 -156h116c75 0 126 32 126 91z" />
    <glyph glyph-name="Rinferior" horiz-adv-x="446" 
d="M268 -150l-85 178h-109l-32 -178h-53l74 420h166c88 0 148 -31 148 -108c0 -76 -60 -124 -142 -133l87 -179h-54zM323 162c0 48 -41 65 -96 65h-118l-28 -156h116c75 0 126 32 126 91z" />
    <glyph glyph-name="paragraph.sc" horiz-adv-x="557" 
d="M297 574h55l-128 -726h-55l68 379c-111 0 -181 50 -181 147c0 125 98 200 241 200zM325 -153l128 727h55l-128 -727h-55z" />
    <glyph glyph-name="Rcommaaccent.sc" horiz-adv-x="603" 
d="M428 0l-119 247h-161l-44 -247h-62l101 574h224c116 0 201 -41 201 -144c0 -108 -87 -170 -201 -181l125 -249h-64zM503 429c0 68 -59 93 -138 93h-168l-41 -223h165c109 0 182 44 182 130zM182 -154l15 89h69l-5 -91l-82 -108l-19 23l56 87h-34z" />
    <glyph glyph-name="parenleft.sc" horiz-adv-x="298" 
d="M45 29l91 513c14 82 26 113 166 146l15 -44c-98 -27 -108 -43 -118 -98l-93 -521c-12 -67 -12 -74 74 -101l-19 -41c-130 34 -131 66 -116 146z" />
    <glyph glyph-name="Rcaron.sc" horiz-adv-x="603" 
d="M428 0l-119 247h-160l-45 -247h-62l101 574h225c115 0 200 -41 200 -144c0 -107 -87 -170 -200 -181l124 -249h-64zM504 429c0 68 -60 93 -139 93h-167l-42 -223h165c109 0 183 44 183 130zM335 626l-74 128h45l73 -89l104 89h52l-118 -128h-82z" />
    <glyph glyph-name="Racute.sc" horiz-adv-x="603" 
d="M428 0l-119 247h-160l-45 -247h-62l101 574h225c115 0 200 -41 200 -144c0 -107 -87 -170 -200 -181l124 -249h-64zM504 429c0 68 -60 93 -139 93h-167l-42 -223h165c109 0 183 44 183 130zM363 626h-58l137 128h103z" />
    <glyph glyph-name="R.sc" horiz-adv-x="603" 
d="M428 0l-119 247h-161l-44 -247h-62l101 574h224c116 0 201 -41 201 -144c0 -108 -87 -170 -201 -181l125 -249h-64zM503 429c0 68 -59 93 -138 93h-168l-41 -223h165c109 0 182 44 182 130z" />
    <glyph glyph-name="parenright.sc" horiz-adv-x="296" 
d="M247 542l-92 -513c-14 -83 -25 -113 -165 -146l-15 43c97 27 108 43 118 99l93 520c11 67 12 74 -74 102l19 41c129 -34 131 -67 116 -146z" />
    <glyph glyph-name="f_b.ss01" horiz-adv-x="933" 
d="M70 475l9 50h70l16 88c17 92 72 116 133 116c59 0 137 -16 197 -31l6 31h62l-49 -274c44 37 113 81 189 81c83 0 168 -48 168 -184c0 -208 -93 -363 -236 -363c-87 0 -148 50 -188 87l-13 -76h-62l114 647c-37 7 -133 27 -180 27c-59 0 -74 -36 -78 -61l-16 -88h144
l-9 -50h-144l-81 -466c-25 -142 -31 -175 -195 -217l-15 51c123 36 127 56 147 164l82 468h-71zM693 482c-72 0 -133 -44 -190 -90l-46 -261c42 -46 102 -88 169 -88c115 0 181 152 181 303c0 85 -37 136 -114 136z" />
    <glyph glyph-name="Qinferior" horiz-adv-x="488" 
d="M221 277c129 0 177 -76 178 -178c1 -91 -49 -221 -169 -250l64 -59l-39 -33l-81 86c-124 3 -170 78 -171 178c-1 103 62 256 218 256zM178 -111c118 0 167 129 167 209c0 63 -18 133 -122 133c-118 0 -166 -130 -166 -210c0 -63 18 -132 121 -132z" />
    <glyph glyph-name="Q.sc" horiz-adv-x="657" 
d="M355 583c175 0 240 -104 241 -242c1 -130 -72 -310 -240 -344l89 -82l-46 -40l-110 116c-169 3 -232 106 -233 241c-1 145 88 351 299 351zM296 45c167 0 237 183 237 297c0 86 -27 186 -176 186c-168 0 -237 -183 -237 -296c0 -86 26 -187 176 -187z" />
    <glyph glyph-name="Psuperior" horiz-adv-x="426" 
d="M458 692c0 -92 -74 -144 -180 -144h-111l-30 -163h-53l74 420h150c86 0 150 -32 150 -113zM402 691c0 52 -41 69 -94 69h-104l-30 -168h100c69 0 128 31 128 99z" />
    <glyph glyph-name="percent.onum" horiz-adv-x="872" 
d="M235 583c94 0 149 -50 149 -129c0 -103 -67 -178 -166 -178c-94 0 -150 49 -150 129c0 103 69 178 167 178zM219 317c69 0 113 66 113 135c0 48 -20 90 -97 90c-70 0 -114 -67 -114 -135c0 -49 20 -90 98 -90zM649 298c93 0 148 -49 148 -129c0 -103 -66 -178 -166 -178
c-93 0 -149 50 -149 129c0 103 69 178 167 178zM633 32c69 0 112 67 112 135c0 49 -20 90 -96 90c-70 0 -114 -66 -114 -135c0 -48 20 -90 98 -90zM670 574l-420 -574h-54l419 574h55z" />
    <glyph glyph-name="percentinferior" horiz-adv-x="631" 
d="M135 277c67 0 107 -37 107 -94c0 -75 -49 -131 -124 -131c-67 0 -108 36 -108 93c0 75 50 132 125 132zM121 86c48 0 78 48 78 95c0 33 -14 62 -65 62c-49 0 -81 -48 -81 -96c0 -33 14 -61 68 -61zM434 68c68 0 108 -36 108 -93c0 -75 -48 -132 -123 -132
c-68 0 -109 37 -109 94c0 75 51 131 124 131zM420 -123c49 0 80 48 80 96c0 33 -15 61 -67 61c-49 0 -80 -48 -80 -95c0 -34 15 -62 67 -62zM451 270l-308 -427h-46l309 427h45z" />
    <glyph glyph-name="percentsuperior" horiz-adv-x="632" 
d="M224 812c67 0 107 -37 107 -94c0 -75 -49 -131 -124 -131c-67 0 -108 36 -108 93c0 75 50 132 125 132zM210 621c48 0 78 48 78 95c0 33 -14 62 -65 62c-49 0 -81 -48 -81 -96c0 -33 14 -61 68 -61zM523 603c68 0 108 -36 108 -93c0 -75 -48 -132 -123 -132
c-68 0 -109 37 -109 94c0 75 51 131 124 131zM509 412c49 0 80 48 80 96c0 33 -15 61 -67 61c-49 0 -80 -48 -80 -95c0 -34 15 -62 67 -62zM540 805l-308 -427h-46l309 427h45z" />
    <glyph glyph-name="Pinferior" horiz-adv-x="425" 
d="M363 157c0 -92 -74 -144 -180 -144h-111l-30 -163h-53l74 420h150c86 0 150 -32 150 -113zM307 156c0 52 -41 69 -94 69h-104l-30 -168h100c69 0 128 31 128 99z" />
    <glyph glyph-name="P.sc" horiz-adv-x="571" 
d="M547 421c0 -126 -103 -194 -248 -194h-154l-41 -227h-62l101 574h200c116 0 204 -41 204 -153zM482 422c0 73 -59 99 -136 99h-150l-43 -241h143c101 0 186 43 186 142z" />
    <glyph glyph-name="Otilde.sc" horiz-adv-x="657" 
d="M355 583c175 0 240 -104 241 -242c1 -144 -89 -350 -299 -350c-175 0 -240 104 -241 241c-1 145 88 351 299 351zM296 45c167 0 237 183 237 297c0 86 -27 186 -176 186c-168 0 -237 -183 -237 -296c0 -86 26 -187 176 -187zM282 638l-35 22c31 46 53 71 92 71
c52 0 79 -49 113 -49c15 0 28 6 57 46l35 -22c-31 -46 -53 -71 -92 -71c-51 0 -79 49 -113 49c-15 0 -28 -5 -57 -46z" />
    <glyph glyph-name="Osuperior" horiz-adv-x="488" 
d="M315 812c129 0 177 -76 178 -178c1 -103 -62 -256 -219 -256c-128 0 -176 76 -177 178c-1 103 62 256 218 256zM272 424c118 0 167 129 167 209c0 63 -18 133 -122 133c-118 0 -166 -130 -166 -210c0 -63 18 -132 121 -132z" />
    <glyph glyph-name="Oslashacute.sc" horiz-adv-x="656" 
d="M617 574l-68 -71c32 -43 46 -99 47 -162c1 -144 -89 -350 -299 -350c-82 0 -139 22 -178 60l-49 -51h-53l78 81c-27 41 -39 93 -39 151c-1 145 88 351 299 351c75 0 130 -20 168 -53l42 44h52zM296 45c167 0 237 183 237 297c0 39 -6 81 -27 116l-345 -363
c26 -30 68 -50 135 -50zM120 232c0 -35 4 -72 19 -104l344 360c-27 24 -67 40 -126 40c-168 0 -237 -183 -237 -296zM364 626h-58l138 128h103z" />
    <glyph glyph-name="perthousand.onum" horiz-adv-x="1234" 
d="M235 583c94 0 149 -50 149 -129c0 -103 -67 -178 -166 -178c-94 0 -150 49 -150 129c0 103 69 178 167 178zM219 317c69 0 113 66 113 135c0 48 -20 90 -97 90c-70 0 -114 -67 -114 -135c0 -49 20 -90 98 -90zM649 298c93 0 148 -49 148 -129c0 -103 -66 -178 -166 -178
c-93 0 -149 50 -149 129c0 103 69 178 167 178zM633 32c69 0 112 67 112 135c0 49 -20 90 -96 90c-70 0 -114 -66 -114 -135c0 -48 20 -90 98 -90zM670 574l-420 -574h-54l419 574h55zM1013 298c94 0 148 -49 148 -129c0 -103 -67 -178 -166 -178c-94 0 -150 50 -150 129
c0 103 70 178 168 178zM996 32c69 0 114 67 114 135c0 49 -21 90 -97 90c-70 0 -115 -66 -115 -135c0 -48 20 -90 98 -90z" />
    <glyph glyph-name="Omacron.sc" horiz-adv-x="657" 
d="M355 583c175 0 240 -104 241 -242c1 -144 -89 -350 -299 -350c-175 0 -240 104 -241 241c-1 145 88 351 299 351zM296 45c167 0 237 183 237 297c0 86 -27 186 -176 186c-168 0 -237 -183 -237 -296c0 -86 26 -187 176 -187zM246 651l8 46h285l-8 -46h-285z" />
    <glyph glyph-name="peseta.onum" horiz-adv-x="595" 
d="M89 383l5 33h27l28 158h200c115 0 203 -41 203 -153v-5h22l-6 -33h-20c-19 -102 -116 -156 -244 -156h-154l-41 -227h-61l67 383h-26zM489 422c0 74 -60 99 -138 99h-149l-19 -105h306v6zM302 279c86 0 162 32 182 104h-307l-19 -104h144z" />
    <glyph glyph-name="pesetainferior" horiz-adv-x="437" 
d="M20 126l5 29h18l21 115h150c86 0 150 -32 150 -113v-2h14l-4 -29h-13c-15 -73 -83 -113 -176 -113h-112l-29 -163h-54l48 276h-18zM308 156c0 52 -41 69 -94 69h-104l-13 -70h211v1zM180 57c59 0 109 22 123 69h-211l-12 -69h100z" />
    <glyph glyph-name="pesetasuperior" horiz-adv-x="435" 
d="M114 661l5 29h18l21 115h150c86 0 150 -32 150 -113v-2h14l-4 -29h-13c-15 -73 -83 -113 -176 -113h-112l-29 -163h-54l48 276h-18zM402 691c0 52 -41 69 -94 69h-104l-13 -70h211v1zM274 592c59 0 109 22 123 69h-211l-12 -69h100z" />
    <glyph glyph-name="Oinferior" horiz-adv-x="487" 
d="M220 277c129 0 177 -76 178 -178c1 -103 -62 -256 -219 -256c-128 0 -176 76 -177 178c-1 103 62 256 218 256zM177 -111c118 0 167 129 167 209c0 63 -18 133 -122 133c-118 0 -166 -130 -166 -210c0 -63 18 -132 121 -132z" />
    <glyph glyph-name="pinferior" horiz-adv-x="392" 
d="M-43 -272l77 437h52l-8 -41c27 21 68 48 118 48c52 0 107 -29 107 -116c0 -122 -59 -213 -148 -213c-55 0 -93 29 -118 50l-29 -165h-51zM182 130c-43 0 -78 -26 -112 -51l-25 -143c25 -26 60 -51 101 -51c66 0 105 84 105 167c0 49 -23 78 -69 78z" />
    <glyph glyph-name="Ohungarumlaut.sc" horiz-adv-x="657" 
d="M355 583c175 0 240 -104 241 -242c1 -144 -89 -350 -299 -350c-175 0 -240 104 -241 241c-1 145 88 351 299 351zM296 45c167 0 237 183 237 297c0 86 -27 186 -176 186c-168 0 -237 -183 -237 -296c0 -86 26 -187 176 -187zM460 626h-43l92 128h90zM319 626h-44l93 128
h89z" />
    <glyph glyph-name="plusinferior" horiz-adv-x="395" 
d="M157 186h43l-21 -116h134l-5 -40h-136l-20 -116h-42l20 116h-136l7 40h136z" />
    <glyph glyph-name="Ograve.sc" horiz-adv-x="657" 
d="M355 583c175 0 240 -104 241 -242c1 -144 -89 -350 -299 -350c-175 0 -240 104 -241 241c-1 145 88 351 299 351zM296 45c167 0 237 183 237 297c0 86 -27 186 -176 186c-168 0 -237 -183 -237 -296c0 -86 26 -187 176 -187zM456 626h-50l-144 128h91z" />
    <glyph glyph-name="Odieresis.sc" horiz-adv-x="657" 
d="M355 583c175 0 240 -104 241 -242c1 -144 -89 -350 -299 -350c-175 0 -240 104 -241 241c-1 145 88 351 299 351zM296 45c167 0 237 183 237 297c0 86 -27 186 -176 186c-168 0 -237 -183 -237 -296c0 -86 26 -187 176 -187zM269 636l15 87h73l-15 -87h-73zM433 636
l15 87h71l-15 -87h-71z" />
    <glyph glyph-name="Ocircumflex.sc" horiz-adv-x="657" 
d="M355 583c175 0 240 -104 241 -242c1 -144 -89 -350 -299 -350c-175 0 -240 104 -241 241c-1 145 88 351 299 351zM296 45c167 0 237 183 237 297c0 86 -27 186 -176 186c-168 0 -237 -183 -237 -296c0 -86 26 -187 176 -187zM448 754l75 -128h-46l-73 90l-102 -90h-53
l118 128h81z" />
    <glyph glyph-name="psuperior" horiz-adv-x="396" 
d="M54 263l77 437h52l-8 -41c27 21 68 48 118 48c52 0 107 -29 107 -116c0 -122 -59 -213 -148 -213c-55 0 -93 29 -118 50l-29 -165h-51zM279 665c-43 0 -78 -26 -112 -51l-25 -143c25 -27 60 -51 101 -51c66 0 105 84 105 167c0 49 -23 78 -69 78z" />
    <glyph glyph-name="Obreve.sc" horiz-adv-x="657" 
d="M355 583c175 0 240 -104 241 -242c1 -144 -89 -350 -299 -350c-175 0 -240 104 -241 241c-1 145 88 351 299 351zM296 45c167 0 237 183 237 297c0 86 -27 186 -176 186c-168 0 -237 -183 -237 -296c0 -86 26 -187 176 -187zM384 626c-81 0 -125 41 -114 102h49
c-6 -40 16 -56 66 -56c52 0 94 16 101 56h51c-10 -62 -65 -102 -153 -102z" />
    <glyph glyph-name="qinferior" horiz-adv-x="393" 
d="M234 -272h-51l30 170c-30 -25 -75 -55 -127 -55c-50 0 -100 30 -100 115c0 123 63 214 154 214c50 0 88 -30 112 -51l8 44h51zM98 -115c49 0 89 30 123 61l24 134c-25 26 -58 50 -96 50c-69 0 -109 -84 -109 -168c0 -47 19 -77 58 -77z" />
    <glyph glyph-name="qsuperior" horiz-adv-x="396" 
d="M329 263h-51l30 169c-30 -24 -75 -54 -127 -54c-50 0 -100 30 -100 115c0 123 63 214 154 214c50 0 88 -30 112 -51l8 44h51zM193 420c49 0 89 30 123 60l24 135c-25 26 -58 50 -96 50c-69 0 -109 -84 -109 -168c0 -47 19 -77 58 -77z" />
    <glyph glyph-name="Oacute.sc" horiz-adv-x="657" 
d="M355 583c175 0 240 -104 241 -242c1 -144 -89 -350 -299 -350c-175 0 -240 104 -241 241c-1 145 88 351 299 351zM296 45c167 0 237 183 237 297c0 86 -27 186 -176 186c-168 0 -237 -183 -237 -296c0 -86 26 -187 176 -187zM371 626h-57l138 128h102z" />
    <glyph glyph-name="question.sc" horiz-adv-x="448" 
d="M94 0l15 90h73l-15 -90h-73zM425 458c0 -100 -103 -154 -217 -179l-26 -110h-44l19 147c110 22 206 62 206 138c0 53 -46 76 -102 76c-59 0 -110 -24 -161 -50l-26 45c42 24 111 58 192 58s159 -37 159 -125z" />
    <glyph glyph-name="OE.sc" horiz-adv-x="968" 
d="M857 0h-378l13 70c-48 -47 -112 -79 -194 -79c-175 0 -240 104 -241 241c-1 145 88 351 299 351c110 0 177 -42 211 -107l19 98h373l-9 -54h-311l-39 -206h257l-9 -54h-258l-40 -206h317zM297 45c167 0 237 183 237 297c0 86 -27 186 -176 186
c-168 0 -237 -183 -237 -296c0 -86 26 -187 176 -187z" />
    <glyph glyph-name="questiondown.sc" horiz-adv-x="451" 
d="M350 574l-15 -90h-72l15 90h72zM19 116c0 100 104 154 219 178l25 111h44l-20 -147c-109 -22 -205 -62 -205 -138c0 -53 46 -76 102 -76c59 0 110 24 161 50l26 -45c-41 -24 -112 -58 -191 -58c-81 0 -161 37 -161 125z" />
    <glyph glyph-name="questiondowninferior" horiz-adv-x="327" 
d="M219 270l-12 -69h-60l12 69h60zM-29 -64c0 74 76 115 160 131l17 78h37l-13 -108c-82 -15 -148 -41 -148 -96c0 -39 32 -53 71 -53c43 0 78 17 114 36l22 -38c-31 -17 -81 -43 -141 -43c-63 0 -119 29 -119 93z" />
    <glyph glyph-name="questiondownsuperior" horiz-adv-x="334" 
d="M316 805l-12 -69h-60l12 69h60zM68 471c0 74 76 115 160 131l17 78h37l-13 -108c-82 -15 -148 -41 -148 -96c0 -39 32 -53 71 -53c43 0 78 17 114 36l22 -38c-31 -17 -81 -43 -141 -43c-63 0 -119 29 -119 93z" />
    <glyph glyph-name="questioninferior" horiz-adv-x="333" 
d="M27 -150l12 69h59l-12 -69h-59zM275 184c0 -74 -76 -115 -160 -131l-18 -78h-37l14 108c81 15 148 41 148 96c0 39 -33 53 -71 53c-42 0 -79 -17 -115 -36l-21 38c29 17 81 43 141 43c63 0 119 -29 119 -93z" />
    <glyph glyph-name="questionsuperior" horiz-adv-x="328" 
d="M117 385l12 69h59l-12 -69h-59zM365 719c0 -74 -76 -115 -160 -131l-18 -78h-37l14 108c81 15 148 41 148 96c0 39 -32 53 -71 53c-42 0 -79 -17 -115 -36l-21 38c29 17 81 43 141 43c63 0 119 -29 119 -93z" />
    <glyph glyph-name="O.sc" horiz-adv-x="657" 
d="M355 583c175 0 240 -104 241 -242c1 -144 -89 -350 -299 -350c-175 0 -240 104 -241 241c-1 145 88 351 299 351zM296 45c167 0 237 183 237 297c0 86 -27 186 -176 186c-168 0 -237 -183 -237 -296c0 -86 26 -187 176 -187z" />
    <glyph glyph-name="Ntilde.sc" horiz-adv-x="644" 
d="M431 0l-240 495l-87 -495h-62l101 574h64l240 -493l87 493h63l-101 -574h-65zM281 638l-35 22c31 46 53 71 92 71c52 0 80 -49 114 -49c14 0 27 6 57 46l35 -22c-31 -46 -53 -71 -92 -71c-52 0 -80 49 -114 49c-14 0 -27 -5 -57 -46z" />
    <glyph glyph-name="Nsuperior" horiz-adv-x="472" 
d="M213 805l166 -352l61 352h52l-73 -420h-54l-166 351l-62 -351h-53l74 420h55z" />
    <glyph glyph-name="Ninferior" horiz-adv-x="472" 
d="M118 270l166 -352l61 352h52l-73 -420h-54l-166 351l-62 -351h-53l74 420h55z" />
    <glyph glyph-name="Ncommaaccent.sc" horiz-adv-x="644" 
d="M430 0l-239 495l-87 -495h-62l101 574h64l240 -494l87 494h63l-101 -574h-66zM211 -154l15 89h70l-5 -91l-83 -108l-20 23l57 87h-34z" />
    <glyph glyph-name="Ncaron.sc" horiz-adv-x="644" 
d="M431 0l-240 495l-87 -495h-62l101 574h64l240 -493l87 493h63l-101 -574h-65zM345 626l-75 128h46l73 -89l102 89h53l-117 -128h-82z" />
    <glyph glyph-name="Nacute.sc" horiz-adv-x="644" 
d="M431 0l-240 495l-87 -495h-62l101 574h64l240 -493l87 493h63l-101 -574h-65zM372 626h-58l138 128h101z" />
    <glyph glyph-name="N.sc" horiz-adv-x="644" 
d="M207 574l240 -494l87 494h63l-101 -574h-66l-239 495l-87 -495h-62l101 574h64z" />
    <glyph glyph-name="Msuperior" horiz-adv-x="544" 
d="M436 385l59 330l-179 -260h-33l-86 269l-60 -339h-53l74 420h55l94 -293l201 293h57l-74 -420h-55z" />
    <glyph glyph-name="Minferior" horiz-adv-x="543" 
d="M341 -150l59 330l-179 -260h-33l-86 269l-60 -339h-53l74 420h55l94 -292l201 292h57l-74 -420h-55z" />
    <glyph glyph-name="M.sc" horiz-adv-x="742" 
d="M532 0l83 472l-259 -376h-42l-125 386l-85 -482h-62l101 574h66l133 -412l286 412h67l-101 -574h-62z" />
    <glyph glyph-name="Lsuperior" horiz-adv-x="362" 
d="M353 385h-269l74 420h53l-66 -375h215z" />
    <glyph glyph-name="Lslash.sc" horiz-adv-x="491" 
d="M288 322l-130 -63l-36 -206h301l-8 -53h-364l40 227l-70 -34l11 60l69 34l51 287h62l-45 -254l128 62z" />
    <glyph glyph-name="Linferior" horiz-adv-x="362" 
d="M259 -150h-270l74 420h53l-66 -375h215z" />
    <glyph glyph-name="rinferior" horiz-adv-x="262" 
d="M85 165l-12 -68c6 12 52 78 137 72l-7 -48c-106 0 -143 -103 -143 -103l-31 -168h-51l56 315h51z" />
    <glyph glyph-name="Ldot.sc" horiz-adv-x="485" 
d="M405 0h-363l101 574h62l-92 -521h300zM325 257l16 87h73l-16 -87h-73z" />
    <glyph glyph-name="Lcommaaccent.sc" horiz-adv-x="483" 
d="M405 0h-363l101 574h62l-92 -521h300zM162 -154l15 89h70l-7 -91l-81 -108l-20 23l56 87h-33z" />
    <glyph glyph-name="Lcaron.sc" horiz-adv-x="483" 
d="M405 0h-363l101 574h62l-92 -521h300zM238 485l16 89h69l-5 -91l-83 -108l-18 23l55 87h-34z" />
    <glyph glyph-name="s_h" horiz-adv-x="1101" 
d="M265 295c100 -35 163 -65 163 -151c0 -103 -95 -155 -202 -155c-89 0 -171 39 -218 68l35 43c48 -28 117 -59 182 -59c68 0 139 33 139 99c0 63 -63 79 -138 103c-71 23 -150 52 -150 144c0 96 89 149 191 149c40 0 80 -8 114 -20c-4 13 -7 29 -7 47c0 98 75 166 187 166
h170l-50 -279c39 28 140 86 227 86c105 0 140 -71 123 -164l-65 -372h-63l65 366c12 65 0 117 -75 117c-78 0 -181 -62 -222 -94l-69 -389h-62l122 690h-103c-90 0 -144 -65 -144 -137c0 -22 4 -40 11 -54c15 -7 28 -14 39 -20l-33 -43c-44 25 -106 48 -164 48
c-70 0 -129 -33 -129 -92c0 -62 66 -77 126 -97z" />
    <glyph glyph-name="s_k" horiz-adv-x="1012" 
d="M1003 525l-216 -214l154 -311h-63l-134 267l-115 -113l-27 -154h-62l122 690h-103c-90 0 -144 -65 -144 -137c0 -22 4 -40 11 -54c15 -7 28 -14 39 -20l-33 -43c-44 25 -106 48 -164 48c-70 0 -129 -33 -129 -92c0 -62 66 -77 126 -97c100 -35 163 -65 163 -151
c0 -103 -95 -155 -202 -155c-89 0 -171 39 -218 68l35 43c48 -28 117 -59 182 -59c68 0 139 33 139 99c0 63 -63 79 -138 103c-71 23 -150 52 -150 144c0 96 89 149 191 149c40 0 80 -8 114 -20c-4 13 -7 29 -7 47c0 98 75 166 187 166h170l-87 -493l282 289h77z" />
    <glyph glyph-name="s_l" horiz-adv-x="753" 
d="M608 0h-63l122 690h-108c-90 0 -144 -65 -144 -137c0 -22 4 -40 11 -54c15 -7 28 -14 39 -20l-33 -43c-44 25 -106 48 -164 48c-70 0 -129 -33 -129 -92c0 -62 66 -77 126 -97c100 -35 163 -65 163 -151c0 -103 -95 -155 -202 -155c-89 0 -171 39 -218 68l35 43
c48 -28 117 -59 182 -59c68 0 139 33 139 99c0 63 -63 79 -138 103c-71 23 -150 52 -150 144c0 96 89 149 191 149c40 0 80 -8 114 -20c-4 13 -7 29 -7 47c0 98 75 166 187 166h176z" />
    <glyph glyph-name="Lacute.sc" horiz-adv-x="483" 
d="M406 0h-364l101 574h62l-92 -521h300zM165 626h-58l138 128h103z" />
    <glyph glyph-name="L.sc" horiz-adv-x="483" 
d="M405 0h-363l101 574h62l-92 -521h300z" />
    <glyph glyph-name="Ksuperior" horiz-adv-x="427" 
d="M84 385l74 420h53l-41 -232l242 232h69l-213 -203l157 -217h-59l-134 183l-76 -72l-19 -111h-53z" />
    <glyph glyph-name="Kinferior" horiz-adv-x="427" 
d="M-11 -150l74 420h53l-41 -232l242 232h69l-213 -203l157 -217h-59l-134 183l-76 -71l-19 -112h-53z" />
    <glyph glyph-name="Kcommaaccent.sc" horiz-adv-x="573" 
d="M42 0l101 574h62l-58 -328l346 328h80l-294 -278l222 -296h-70l-193 258l-106 -100l-28 -158h-62zM177 -154l15 89h68l-4 -91l-82 -108l-20 23l56 87h-33z" />
    <glyph glyph-name="K.sc" horiz-adv-x="573" 
d="M42 0l101 574h62l-58 -328l346 328h80l-294 -278l222 -296h-70l-193 258l-106 -100l-28 -158h-62z" />
    <glyph glyph-name="Jsuperior" horiz-adv-x="191" 
d="M211 805l-70 -393c-11 -66 -15 -90 -127 -116l-13 43c76 20 80 31 87 72l69 394h54z" />
    <glyph glyph-name="Jinferior" horiz-adv-x="191" 
d="M117 270l-70 -393c-11 -66 -15 -90 -127 -116l-13 43c76 20 80 31 87 72l69 394h54z" />
    <glyph glyph-name="semicoloninferior" horiz-adv-x="189" 
d="M20 54l12 73h61l-12 -73h-61zM-16 -150l12 73h60l-6 -77l-65 -77l-15 19l41 62h-27z" />
    <glyph glyph-name="semicolonsuperior" horiz-adv-x="189" 
d="M115 589l12 73h61l-12 -73h-61zM79 385l12 73h60l-6 -77l-65 -77l-15 19l41 62h-27z" />
    <glyph glyph-name="Jcircumflex.sc" horiz-adv-x="253" 
d="M207 574l-95 -540c-16 -87 -20 -116 -167 -151l-16 51c105 28 110 44 119 99l96 541h63zM245 754l74 -128h-45l-73 90l-103 -90h-53l118 128h82z" />
    <glyph glyph-name="J.sc" horiz-adv-x="253" 
d="M207 574l-96 -540c-15 -87 -20 -116 -166 -151l-16 51c105 28 109 44 119 99l95 541h64z" />
    <glyph glyph-name="seven.dnom" horiz-adv-x="338" 
d="M326 380c0 0 -194 -190 -228 -380h-58c33 178 208 362 221 375h-218l6 45h282z" />
    <glyph glyph-name="seven.numr" horiz-adv-x="337" 
d="M374 660c0 0 -193 -190 -227 -380h-58c33 178 207 362 220 375h-218l7 45h281z" />
    <glyph glyph-name="seven.onum" horiz-adv-x="493" 
d="M506 525c0 0 -314 -322 -372 -651h-71c54 303 330 612 359 643h-355l9 57h437z" />
    <glyph glyph-name="seven.tnum" horiz-adv-x="615" 
d="M590 651c0 0 -314 -322 -372 -651h-71c54 303 330 612 359 643h-356l10 57h437z" />
    <glyph glyph-name="Itilde.sc" horiz-adv-x="252" 
d="M79 638l-35 22c31 46 53 71 92 71c52 0 80 -49 114 -49c14 0 27 6 56 46l36 -22c-32 -46 -53 -71 -93 -71c-51 0 -79 49 -113 49c-14 0 -27 -5 -57 -46zM104 0h-62l101 574h62z" />
    <glyph glyph-name="seveneighths.onum" horiz-adv-x="729" 
d="M359 83c0 58 58 88 107 105c-28 14 -52 36 -52 73c0 52 54 89 128 89c68 0 112 -31 112 -78c0 -48 -48 -74 -88 -88c38 -16 79 -42 79 -89c0 -60 -72 -101 -157 -101c-76 0 -129 31 -129 89zM534 574l-389 -574h-50l389 574h50zM328 540c0 0 -168 -156 -195 -310h-51
c26 146 179 297 187 305h-188l5 39h247zM595 96c0 38 -44 58 -80 72c-50 -15 -108 -37 -108 -83c0 -36 32 -54 80 -54c55 0 108 26 108 65zM459 257c0 -31 34 -46 57 -55c45 13 92 29 92 65c0 27 -27 48 -66 48c-45 0 -83 -27 -83 -58z" />
    <glyph glyph-name="Isuperior" horiz-adv-x="191" 
d="M137 385h-53l74 420h53z" />
    <glyph glyph-name="Iogonek.sc" horiz-adv-x="253" 
d="M-16 -105c0 -32 41 -30 75 -30l-16 -44c-38 0 -114 0 -114 66c0 48 44 82 114 113h-1l101 574h63l-101 -574h-3c-82 -40 -118 -70 -118 -105z" />
    <glyph glyph-name="sinferior" horiz-adv-x="338" 
d="M135 30c62 -19 103 -38 103 -92c0 -61 -58 -95 -128 -95c-60 0 -115 25 -145 43l28 34c30 -17 74 -35 117 -35c41 0 77 15 77 49c0 36 -39 43 -85 58c-45 13 -96 31 -96 88c0 56 53 92 123 92c52 0 102 -21 130 -36l-24 -34c-29 14 -69 29 -105 29c-43 0 -73 -16 -73 -47
c0 -34 39 -42 78 -54z" />
    <glyph glyph-name="Imacron.sc" horiz-adv-x="252" 
d="M104 0h-62l101 574h62zM45 651l7 46h285l-7 -46h-285z" />
    <glyph glyph-name="six.dnom" horiz-adv-x="409" 
d="M295 382c-94 0 -173 -65 -204 -157c20 18 59 44 117 44c86 0 131 -59 131 -121c0 -78 -59 -155 -165 -155c-102 0 -149 75 -149 150c0 155 117 284 268 284c39 0 65 -10 65 -10l-19 -39s-18 4 -44 4zM198 227c-57 0 -103 -37 -119 -61c-1 -8 -1 -17 -1 -25
c0 -52 30 -103 94 -103c72 0 113 53 113 110c0 38 -26 79 -87 79z" />
    <glyph glyph-name="six.numr" horiz-adv-x="409" 
d="M344 662c-94 0 -173 -65 -204 -157c20 18 59 44 117 44c86 0 131 -59 131 -121c0 -78 -59 -155 -165 -155c-102 0 -149 75 -149 150c0 155 117 284 268 284c39 0 65 -10 65 -10l-19 -39s-18 4 -44 4zM247 507c-57 0 -103 -37 -119 -61c-1 -8 -1 -17 -1 -25
c0 -52 30 -103 94 -103c72 0 113 53 113 110c0 38 -26 79 -87 79z" />
    <glyph glyph-name="six.onum" horiz-adv-x="613" 
d="M485 655c-158 0 -290 -128 -338 -291c28 29 95 82 195 82c137 0 203 -99 203 -195c0 -132 -92 -262 -258 -262c-155 0 -224 122 -224 239c0 264 187 483 420 483c57 0 97 -14 97 -14l-25 -51s-29 9 -70 9zM334 392c-100 0 -183 -73 -205 -119c-2 -15 -2 -30 -2 -45
c0 -89 51 -183 158 -183c121 0 194 99 194 205c0 68 -44 142 -145 142z" />
    <glyph glyph-name="six.tnum" horiz-adv-x="615" 
d="M486 655c-158 0 -290 -128 -338 -291c29 30 94 82 195 82c137 0 202 -99 202 -195c0 -132 -92 -262 -257 -262c-155 0 -224 122 -224 239c0 264 186 483 419 483c57 0 97 -14 97 -14l-25 -51s-29 9 -69 9zM335 392c-98 0 -180 -71 -205 -117c-1 -15 -2 -31 -2 -47
c0 -89 50 -183 157 -183c122 0 194 99 194 205c0 68 -43 142 -144 142z" />
    <glyph glyph-name="Iinferior" horiz-adv-x="190" 
d="M42 -150h-53l74 420h53z" />
    <glyph glyph-name="Igrave.sc" horiz-adv-x="252" 
d="M104 0h-62l101 574h62zM254 626h-49l-144 128h89z" />
    <glyph glyph-name="Idieresis.sc" horiz-adv-x="252" 
d="M104 0h-62l101 574h62zM68 636l15 87h72l-16 -87h-71zM231 636l16 87h71l-15 -87h-72z" />
    <glyph glyph-name="slash.sc" horiz-adv-x="415" 
d="M436 648l-414 -722h-54l415 722h53z" />
    <glyph glyph-name="Icircumflex.sc" horiz-adv-x="252" 
d="M104 0h-62l101 574h62zM245 754l75 -128h-45l-74 90l-102 -90h-53l118 128h81z" />
    <glyph glyph-name="spaceinferior" horiz-adv-x="187" 
 />
    <glyph glyph-name="spacesuperior" horiz-adv-x="187" 
 />
    <glyph glyph-name="Ibreve.sc" horiz-adv-x="252" 
d="M182 626c-81 0 -125 41 -114 102h49c-6 -40 16 -56 66 -56c51 0 94 16 101 56h51c-11 -62 -65 -102 -153 -102zM104 0h-62l101 574h62z" />
    <glyph glyph-name="Iacute.sc" horiz-adv-x="252" 
d="M104 0h-62l101 574h62zM170 626h-57l137 128h103z" />
    <glyph glyph-name="sterling.onum" horiz-adv-x="497" 
d="M61 213l8 45h91c-7 60 -50 101 -50 167c0 93 72 158 185 158c80 0 141 -37 183 -62l-34 -39c-49 27 -99 48 -145 48c-82 0 -129 -51 -129 -108c0 -65 45 -98 49 -164h143l-8 -45h-138c-17 -81 -90 -140 -115 -160h282l-9 -53h-360l7 44s116 73 137 169h-97z" />
    <glyph glyph-name="IJ.sc" horiz-adv-x="506" 
d="M442 574l-96 -540c-16 -87 -20 -116 -167 -151l-16 51c105 28 110 44 120 99l95 541h64zM104 0h-62l101 574h62z" />
    <glyph glyph-name="I.sc" horiz-adv-x="252" 
d="M104 0h-62l101 574h62z" />
    <glyph glyph-name="Hsuperior" horiz-adv-x="464" 
d="M356 385l35 198h-219l-35 -198h-53l74 420h53l-31 -177h219l31 177h54l-74 -420h-54z" />
    <glyph glyph-name="Hinferior" horiz-adv-x="463" 
d="M261 -150l35 198h-219l-35 -198h-53l74 420h53l-31 -177h219l31 177h54l-74 -420h-54z" />
    <glyph glyph-name="Hbar.sc" horiz-adv-x="636" 
d="M423 0l47 274h-314l-48 -274h-62l75 427h-65l8 41h64l19 106h62l-19 -106h314l19 106h63l-19 -106h65l-7 -41h-65l-74 -427h-63zM183 427l-17 -99h314l17 99h-314z" />
    <glyph glyph-name="H.sc" horiz-adv-x="629" 
d="M419 0l47 274h-314l-48 -274h-62l101 574h62l-44 -246h315l43 246h63l-100 -574h-63z" />
    <glyph glyph-name="Gsuperior" horiz-adv-x="461" 
d="M370 385l9 50c-40 -29 -88 -57 -142 -57c-76 0 -139 53 -139 169c0 177 103 265 211 265c70 0 128 -38 168 -69l-32 -37c-30 23 -77 58 -132 58c-89 0 -159 -89 -159 -211c0 -82 31 -129 92 -129c55 0 117 43 142 63l15 84h-119l8 44h170l-40 -230h-52z" />
    <glyph glyph-name="three.dnom" horiz-adv-x="391" 
d="M-12 41l27 36c22 -13 65 -39 124 -39c72 0 118 38 118 87c0 57 -61 81 -124 81h-18l5 46h24c63 0 130 34 130 80c0 31 -28 50 -72 50c-45 0 -90 -22 -114 -35l-19 38c14 9 71 42 141 42c76 0 119 -39 119 -88c0 -42 -32 -86 -105 -110c48 -10 88 -52 88 -105
c0 -66 -55 -131 -170 -131c-76 0 -129 33 -154 48z" />
    <glyph glyph-name="three.numr" horiz-adv-x="391" 
d="M38 321l27 36c21 -13 65 -39 124 -39c71 0 118 38 118 87c0 57 -61 81 -124 81h-19l6 46h24c63 0 130 34 130 80c0 31 -29 50 -72 50c-45 0 -90 -22 -114 -35l-19 38c14 9 71 42 141 42c76 0 119 -39 119 -88c0 -42 -32 -86 -105 -110c48 -10 88 -52 88 -105
c0 -66 -55 -131 -170 -131c-77 0 -129 33 -154 48z" />
    <glyph glyph-name="three.onum" horiz-adv-x="575" 
d="M-23 -66l36 46c22 -15 92 -62 192 -62c121 0 204 69 204 161c0 101 -99 148 -201 148h-31l10 59h35c105 0 216 66 216 150c0 55 -47 90 -122 90c-73 0 -143 -34 -181 -58l-23 48c22 15 108 67 212 67c113 0 180 -64 180 -143c0 -67 -50 -145 -173 -185
c78 -16 144 -86 144 -177c0 -111 -92 -217 -269 -217c-114 0 -190 47 -229 73z" />
    <glyph glyph-name="three.tnum" horiz-adv-x="615" 
d="M18 62l37 47c22 -16 92 -63 191 -63c122 0 204 69 204 161c0 101 -98 149 -201 149h-31l10 58h36c104 0 215 66 215 150c0 55 -47 90 -122 90c-73 0 -143 -34 -181 -58l-23 48c22 15 109 67 212 67c113 0 181 -64 181 -142c0 -68 -50 -146 -174 -186
c78 -16 145 -86 145 -177c0 -111 -93 -217 -270 -217c-114 0 -190 47 -229 73z" />
    <glyph glyph-name="Ginferior" horiz-adv-x="461" 
d="M276 -150l9 51c-40 -30 -88 -58 -142 -58c-76 0 -139 53 -139 169c0 177 103 265 211 265c70 0 128 -38 168 -69l-32 -37c-30 23 -77 58 -132 58c-89 0 -159 -89 -159 -211c0 -82 31 -129 92 -129c55 0 117 43 142 64l15 83h-119l8 44h170l-40 -230h-52z" />
    </font>
</defs>
</svg>
