<?xml version="1.0" standalone="no"?>
<!DOCTYPE svg PUBLIC "-//W3C//DTD SVG 1.1//EN" "http://www.w3.org/Graphics/SVG/1.1/DTD/svg11.dtd" >
<svg xmlns="http://www.w3.org/2000/svg" xmlns:xlink="http://www.w3.org/1999/xlink" version="1.1">
<metadata>
Created by FontForge 20160405 at Thu Jun  7 08:25:07 2018
 By www-data
Copyright (c) 2012 by Yellow Design Studio. All rights reserved.
</metadata>
<defs>
<font id="VerbMedium-Italic" horiz-adv-x="622" >
  <font-face 
    font-family="Verb Medium"
    font-weight="500"
    font-style="italic"
    font-stretch="normal"
    units-per-em="1000"
    panose-1="2 0 6 0 3 0 0 9 0 4"
    ascent="800"
    descent="-200"
    x-height="525"
    cap-height="700"
    bbox="-172 -283 1361 951"
    underline-thickness="50"
    underline-position="-100"
    stemh="63"
    stemv="103"
    unicode-range="U+0020-FB06"
  />
<missing-glyph horiz-adv-x="266" 
 />
    <glyph glyph-name="f_f" unicode="ff" horiz-adv-x="725" 
d="M57 447l14 78h71l10 58c17 101 54 146 142 146c61 0 137 -28 167 -42l-40 -69c-22 7 -81 22 -109 22c-32 0 -49 -20 -56 -56l-11 -59h129l-14 -78h-128l-74 -419c-28 -154 -35 -199 -228 -245l-23 81c122 36 127 54 145 158l76 425h-71zM420 447l13 78h72l10 58
c16 101 53 146 141 146c61 0 137 -28 168 -42l-47 -69c-20 7 -76 22 -103 22c-32 0 -49 -20 -56 -56l-11 -59h137l-14 -78h-136l-74 -419c-28 -154 -35 -199 -228 -245l-23 81c122 36 127 54 146 158l76 425h-71z" />
    <glyph glyph-name="f_i" unicode="fi" horiz-adv-x="615" 
d="M57 447l14 78h71l10 58c17 101 55 146 139 146c46 0 111 -23 137 -34l-38 -71c-19 6 -58 16 -78 16c-32 0 -49 -20 -56 -56l-11 -59h136l-13 -78h-136l-74 -419c-28 -154 -35 -199 -228 -245l-23 81c122 36 127 54 145 158l76 425h-71zM487 0h-103l93 525h103zM490 620
l19 106h111l-18 -106h-112z" />
    <glyph glyph-name="f_l" unicode="fl" 
d="M57 447l14 78h71l10 58c17 101 55 146 139 146c46 0 111 -23 137 -34l-38 -71c-19 6 -58 16 -78 16c-32 0 -49 -20 -56 -56l-11 -59h136l-13 -78h-136l-74 -419c-28 -154 -35 -199 -228 -245l-23 81c122 36 127 54 145 158l76 425h-71zM491 0h-103l129 729h103z" />
    <glyph glyph-name="f_f_i" unicode="ffi" horiz-adv-x="977" 
d="M57 447l14 78h71l10 58c17 101 54 146 142 146c61 0 137 -28 167 -42l-40 -69c-22 7 -81 22 -109 22c-32 0 -49 -20 -56 -56l-11 -59h129l-14 -78h-128l-74 -419c-28 -154 -35 -199 -228 -245l-23 81c122 36 127 54 145 158l76 425h-71zM420 447l13 78h72l10 58
c16 101 55 146 139 146c45 0 110 -23 137 -34l-38 -71c-20 6 -58 16 -79 16c-32 0 -49 -20 -56 -56l-11 -59h137l-14 -78h-136l-74 -419c-28 -154 -35 -199 -228 -245l-23 81c122 36 127 54 146 158l76 425h-71zM850 0h-103l93 525h103zM852 620l19 106h111l-18 -106h-112z
" />
    <glyph glyph-name="f_f_l" unicode="ffl" horiz-adv-x="985" 
d="M57 447l14 78h71l10 58c17 101 54 146 142 146c61 0 137 -28 167 -42l-40 -69c-22 7 -81 22 -109 22c-32 0 -49 -20 -56 -56l-11 -59h129l-14 -78h-128l-74 -419c-28 -154 -35 -199 -228 -245l-23 81c122 36 127 54 145 158l76 425h-71zM420 447l13 78h72l10 58
c16 101 55 146 139 146c45 0 110 -23 137 -34l-38 -71c-20 6 -58 16 -79 16c-32 0 -49 -20 -56 -56l-11 -59h137l-14 -78h-136l-74 -419c-28 -154 -35 -199 -228 -245l-23 81c122 36 127 54 146 158l76 425h-71zM853 0h-103l129 729h103z" />
    <glyph glyph-name="f_f_b" unicode="ffb" horiz-adv-x="1333" 
d="M747 0l129 729h103l-47 -268c43 34 109 75 184 75c84 0 168 -49 168 -189c0 -208 -97 -358 -242 -358c-85 0 -142 45 -180 79l-12 -68h-103zM57 447l14 78h71l10 58c17 101 54 146 142 146c61 0 137 -28 167 -42l-40 -69c-22 7 -81 22 -109 22c-32 0 -49 -20 -56 -56
l-11 -59h129l-14 -78h-128l-74 -419c-28 -154 -35 -199 -228 -245l-23 81c122 36 127 54 145 158l76 425h-71zM420 447l13 78h72l10 58c16 101 55 146 139 146c45 0 110 -23 137 -34l-38 -71c-20 6 -58 16 -79 16c-32 0 -49 -20 -56 -56l-11 -59h137l-14 -78h-136l-74 -419
c-28 -154 -35 -199 -228 -245l-23 81c122 36 127 54 146 158l76 425h-71zM1082 451c-64 0 -117 -38 -166 -79l-40 -222c38 -41 87 -76 144 -76c100 0 159 130 159 262c0 72 -32 115 -97 115z" />
    <glyph glyph-name="f_f_h" unicode="ffh" horiz-adv-x="1333" 
d="M979 729l-48 -271c44 29 130 78 212 78c111 0 149 -72 131 -173l-64 -363h-103l62 352c10 57 1 101 -63 101c-66 0 -151 -50 -190 -81l-66 -372h-103l129 729h103zM57 447l14 78h71l10 58c17 101 54 146 142 146c61 0 137 -28 167 -42l-40 -69c-22 7 -81 22 -109 22
c-32 0 -49 -20 -56 -56l-11 -59h129l-14 -78h-128l-74 -419c-28 -154 -35 -199 -228 -245l-23 81c122 36 127 54 145 158l76 425h-71zM420 447l13 78h72l10 58c16 101 55 146 139 146c45 0 110 -23 137 -34l-38 -71c-20 6 -58 16 -79 16c-32 0 -49 -20 -56 -56l-11 -59h137
l-14 -78h-136l-74 -419c-28 -154 -35 -199 -228 -245l-23 81c122 36 127 54 146 158l76 425h-71z" />
    <glyph glyph-name="f_b" unicode="fb" horiz-adv-x="971" 
d="M384 0l129 729h103l-48 -269c43 34 109 76 186 76c84 0 168 -49 168 -189c0 -208 -97 -358 -242 -358c-86 0 -143 46 -181 80l-12 -69h-103zM57 447l14 78h71l10 58c17 101 55 146 139 146c46 0 111 -23 137 -34l-38 -71c-19 6 -58 16 -78 16c-32 0 -49 -20 -56 -56
l-11 -59h136l-13 -78h-136l-74 -419c-28 -154 -35 -199 -228 -245l-23 81c122 36 127 54 145 158l76 425h-71zM720 451c-64 0 -118 -39 -168 -80l-39 -220c38 -41 88 -77 145 -77c100 0 158 130 158 262c0 72 -31 115 -96 115z" />
    <glyph glyph-name="f_f_j" unicode="ffj" horiz-adv-x="977" 
d="M57 447l14 78h71l10 58c17 101 54 146 142 146c61 0 137 -28 167 -42l-40 -69c-22 7 -81 22 -109 22c-32 0 -49 -20 -56 -56l-11 -59h129l-14 -78h-128l-74 -419c-28 -154 -35 -199 -228 -245l-23 81c122 36 127 54 145 158l76 425h-71zM420 447l13 78h72l10 58
c16 101 55 146 139 146c45 0 110 -23 137 -34l-38 -71c-20 6 -58 16 -79 16c-32 0 -49 -20 -56 -56l-11 -59h137l-14 -78h-136l-74 -419c-28 -154 -35 -199 -228 -245l-23 81c122 36 127 54 146 158l76 425h-71zM943 525l-96 -534c-21 -118 -27 -162 -221 -208l-23 81
c123 36 128 53 140 120l97 541h103zM852 620l19 106h111l-18 -106h-112z" />
    <glyph glyph-name="f_f_k" unicode="ffk" horiz-adv-x="1260" 
d="M1262 525l-217 -214l155 -311h-105l-120 242l-100 -98l-25 -144h-103l129 729h103l-80 -449l238 245h125zM57 447l14 78h71l10 58c17 101 54 146 142 146c61 0 137 -28 167 -42l-40 -69c-22 7 -81 22 -109 22c-32 0 -49 -20 -56 -56l-11 -59h129l-14 -78h-128l-74 -419
c-28 -154 -35 -199 -228 -245l-23 81c122 36 127 54 145 158l76 425h-71zM420 447l13 78h72l10 58c16 101 55 146 139 146c45 0 110 -23 137 -34l-38 -71c-20 6 -58 16 -79 16c-32 0 -49 -20 -56 -56l-11 -59h137l-14 -78h-136l-74 -419c-28 -154 -35 -199 -228 -245l-23 81
c122 36 127 54 146 158l76 425h-71z" />
    <glyph glyph-name="f_f_t" unicode="fft" horiz-adv-x="1111" 
d="M57 447l14 78h71l10 58c17 101 54 146 142 146c61 0 137 -28 167 -42l-40 -69c-22 7 -81 22 -109 22c-32 0 -49 -20 -56 -56l-11 -59h129l-14 -78h-128l-74 -419c-28 -154 -35 -199 -228 -245l-23 81c122 36 127 54 145 158l76 425h-71zM420 447l13 78h72l10 58
c16 101 53 146 141 146c61 0 137 -28 168 -42l-47 -69c-20 7 -76 22 -103 22c-32 0 -49 -20 -56 -56l-11 -59h129l-13 -78h-129l-74 -419c-28 -154 -35 -199 -228 -245l-23 81c122 36 127 54 146 158l76 425h-71zM778 447l13 78h72l24 132l106 20l-27 -152h143l-14 -78h-143
l-56 -314c-8 -43 10 -54 36 -54c28 0 76 18 97 26l27 -81c-28 -11 -103 -35 -153 -35c-76 0 -127 45 -108 156l54 302h-71z" />
    <glyph glyph-name="f_h" unicode="fh" horiz-adv-x="970" 
d="M616 729l-48 -272c43 29 131 79 213 79c110 0 149 -72 131 -173l-64 -363h-104l63 352c10 57 1 101 -63 101c-66 0 -152 -50 -191 -81l-66 -372h-103l129 729h103zM57 447l14 78h71l10 58c17 101 55 146 139 146c46 0 111 -23 137 -34l-38 -71c-19 6 -58 16 -78 16
c-32 0 -49 -20 -56 -56l-11 -59h136l-13 -78h-136l-74 -419c-28 -154 -35 -199 -228 -245l-23 81c122 36 127 54 145 158l76 425h-71z" />
    <glyph glyph-name="f_j" unicode="fj" horiz-adv-x="615" 
d="M57 447l14 78h71l10 58c17 101 55 146 139 146c46 0 111 -23 137 -34l-38 -71c-19 6 -58 16 -78 16c-32 0 -49 -20 -56 -56l-11 -59h136l-13 -78h-136l-74 -419c-28 -154 -35 -199 -228 -245l-23 81c122 36 127 54 145 158l76 425h-71zM580 525l-95 -534
c-21 -118 -28 -162 -221 -208l-23 81c123 36 128 53 140 120l96 541h103zM490 620l19 106h111l-18 -106h-112z" />
    <glyph glyph-name="f_k" unicode="fk" horiz-adv-x="898" 
d="M900 525l-217 -214l155 -311h-105l-120 242l-101 -99l-25 -143h-103l129 729h103l-80 -450l238 246h126zM57 447l14 78h71l10 58c17 101 55 146 139 146c46 0 111 -23 137 -34l-38 -71c-19 6 -58 16 -78 16c-32 0 -49 -20 -56 -56l-11 -59h136l-13 -78h-136l-74 -419
c-28 -154 -35 -199 -228 -245l-23 81c122 36 127 54 145 158l76 425h-71z" />
    <glyph glyph-name="f_t" unicode="ft" horiz-adv-x="749" 
d="M57 447l14 78h71l10 58c17 101 54 146 142 146c61 0 137 -28 167 -42l-46 -69c-20 7 -76 22 -103 22c-32 0 -49 -20 -56 -56l-11 -59h129l-14 -78h-128l-74 -419c-28 -154 -35 -199 -228 -245l-23 81c122 36 127 54 145 158l76 425h-71zM416 447l13 78h71l24 132l107 20
l-28 -152h143l-13 -78h-144l-56 -314c-7 -43 11 -54 37 -54c27 0 76 18 97 26l26 -81c-28 -11 -102 -35 -152 -35c-76 0 -128 45 -108 156l53 302h-70z" />
    <glyph glyph-name=".notdef" horiz-adv-x="266" 
 />
    <glyph glyph-name="space" unicode=" " horiz-adv-x="278" 
 />
    <glyph glyph-name="exclam" unicode="!" horiz-adv-x="270" 
d="M26 0l21 128h114l-21 -128h-114zM268 700l-116 -485h-64l55 485h125z" />
    <glyph glyph-name="quotedbl" unicode="&#x22;" horiz-adv-x="415" 
d="M427 700l-66 -264h-67l28 264h105zM232 700l-64 -264h-69l28 264h105z" />
    <glyph glyph-name="numbersign" unicode="#" horiz-adv-x="742" 
d="M351 0l57 172h-175l-56 -172h-85l57 172h-126l13 80h139l64 195h-126l14 81h139l57 172h84l-57 -172h175l57 172h83l-57 -172h128l-14 -81h-141l-64 -195h128l-13 -80h-141l-57 -172h-83zM324 447l-64 -195h174l64 195h-174z" />
    <glyph glyph-name="dollar" unicode="$" horiz-adv-x="626" 
d="M283 -100h-77l17 96c-88 15 -166 54 -216 88l59 75c44 -27 108 -59 173 -73l40 229l-16 7c-88 37 -166 79 -166 186c0 121 103 203 250 203h2l16 90h77l-17 -97c74 -14 141 -44 191 -72l-58 -73c-40 23 -97 44 -149 55l-38 -213l13 -5c90 -37 178 -82 178 -196
c0 -130 -115 -211 -262 -211h-2zM450 188c0 50 -42 76 -99 99l-37 -207c76 5 136 45 136 108zM212 517c0 -47 33 -66 87 -88l34 190c-66 -5 -121 -40 -121 -102z" />
    <glyph glyph-name="percent" unicode="%" horiz-adv-x="994" 
d="M279 711c110 0 176 -61 176 -156c0 -123 -77 -219 -201 -219c-110 0 -177 61 -177 156c0 123 79 219 202 219zM257 402c72 0 115 76 115 147c0 53 -21 96 -95 96c-73 0 -116 -76 -116 -147c0 -53 21 -96 96 -96zM759 364c109 0 176 -61 176 -156
c0 -123 -77 -219 -201 -219c-110 0 -177 61 -177 156c0 123 79 219 202 219zM737 55c72 0 115 76 115 147c0 53 -22 96 -95 96s-117 -76 -117 -147c0 -53 22 -96 97 -96zM793 700l-487 -700h-86l485 700h88z" />
    <glyph glyph-name="ampersand" unicode="&#x26;" horiz-adv-x="701" 
d="M653 0h-115l-62 75c-62 -51 -139 -86 -230 -86c-120 0 -204 62 -204 168c0 108 90 171 183 225c-38 48 -65 93 -65 156c0 112 94 173 196 173c96 0 171 -52 171 -141c0 -92 -84 -152 -173 -207l125 -151c37 49 65 105 83 157h106c-19 -62 -61 -154 -128 -231zM251 70
c62 0 119 30 168 75l-141 172c-72 -46 -132 -93 -132 -156c0 -44 26 -91 105 -91zM256 535c0 -42 22 -79 46 -110c71 41 128 81 128 140c0 37 -24 68 -76 68c-64 0 -98 -46 -98 -98z" />
    <glyph glyph-name="quotesingle" unicode="'" horiz-adv-x="221" 
d="M232 700l-64 -264h-69l28 264h105z" />
    <glyph glyph-name="parenleft" unicode="(" horiz-adv-x="314" 
d="M30 59l103 577c21 119 35 160 222 203l20 -68c-109 -33 -120 -52 -132 -118l-109 -610c-13 -77 -12 -90 78 -123l-29 -63c-172 44 -173 92 -153 202z" />
    <glyph glyph-name="parenright" unicode=")" horiz-adv-x="315" 
d="M300 636l-103 -577c-21 -118 -35 -159 -222 -202l-20 67c108 33 120 53 132 119l109 610c13 77 12 90 -78 123l29 63c171 -44 173 -92 153 -203z" />
    <glyph glyph-name="asterisk" unicode="*" horiz-adv-x="482" 
d="M200 335l54 149l-139 -79l-31 85l158 27l-138 81l59 69l102 -124v158l88 -16l-54 -148l138 80l31 -85l-155 -28l135 -80l-58 -69l-101 120l-1 -155z" />
    <glyph glyph-name="plus" unicode="+" 
d="M315 563h83l-34 -190h210l-13 -80h-211l-33 -189h-82l33 189h-209l14 80h209z" />
    <glyph glyph-name="comma" unicode="," horiz-adv-x="251" 
d="M16 0l23 135h113l-14 -146l-119 -132l-26 37l75 106h-52z" />
    <glyph glyph-name="hyphen" unicode="-" horiz-adv-x="432" 
d="M353 241h-293l15 87h293z" />
    <glyph glyph-name="period" unicode="." horiz-adv-x="249" 
d="M17 0l24 135h113l-23 -135h-114z" />
    <glyph glyph-name="slash" unicode="/" horiz-adv-x="468" 
d="M527 790l-481 -880h-86l481 880h86z" />
    <glyph glyph-name="zero" unicode="0" horiz-adv-x="673" 
d="M376 711c191 0 253 -144 253 -279c0 -159 -73 -443 -314 -443c-192 0 -254 143 -254 278c0 160 73 444 315 444zM314 75c159 0 207 260 207 368c0 82 -25 182 -145 182c-159 0 -208 -260 -207 -368c0 -83 25 -182 145 -182z" />
    <glyph glyph-name="one" unicode="1" horiz-adv-x="379" 
d="M236 0h-108l106 589l-131 -64l-35 78l192 97h99z" />
    <glyph glyph-name="two" unicode="2" horiz-adv-x="589" 
d="M495 91l-14 -91h-487l11 60c27 157 141 218 269 294c112 66 195 115 194 186c-1 47 -39 80 -110 80c-75 0 -155 -39 -194 -63l-41 76c51 33 138 78 245 78c132 0 208 -68 208 -169c0 -139 -151 -214 -285 -291c-98 -56 -141 -90 -154 -160h358z" />
    <glyph glyph-name="three" unicode="3" horiz-adv-x="600" 
d="M-7 76l56 70c45 -29 113 -66 198 -66c104 0 172 56 172 130c0 89 -93 123 -189 123h-31l15 92h36c91 0 197 46 197 122c0 45 -38 73 -102 73c-69 0 -144 -34 -185 -58l-35 75c26 18 121 74 238 74c128 0 194 -67 194 -149c0 -72 -52 -142 -161 -181
c73 -19 132 -85 132 -173c0 -105 -84 -219 -273 -219c-133 0 -223 60 -262 87z" />
    <glyph glyph-name="four" unicode="4" horiz-adv-x="641" 
d="M339 0l26 148h-360l13 78l410 474h142l-82 -461h106l-15 -91h-107l-26 -148h-107zM138 239h243l63 357z" />
    <glyph glyph-name="five" unicode="5" horiz-adv-x="590" 
d="M84 353l98 347h398l-14 -91h-310l-45 -178c31 11 65 18 105 18c137 0 212 -92 212 -207c0 -134 -106 -253 -284 -253c-121 0 -201 56 -242 87l60 69c21 -16 89 -63 172 -63c89 0 183 56 183 157c0 71 -44 121 -129 121c-62 0 -112 -26 -146 -44z" />
    <glyph glyph-name="six" unicode="6" horiz-adv-x="627" 
d="M498 622c-139 0 -263 -94 -314 -239c31 28 89 66 177 66c136 0 209 -94 209 -200c0 -133 -96 -260 -269 -260c-168 0 -248 124 -248 252c0 258 190 470 441 470c69 0 111 -16 111 -16l-39 -81s-29 8 -68 8zM334 366c-82 0 -150 -57 -173 -95c-1 -11 -1 -23 -1 -35
c0 -80 45 -158 138 -158c105 0 164 83 164 167c0 60 -38 121 -128 121z" />
    <glyph glyph-name="seven" unicode="7" horiz-adv-x="512" 
d="M546 618c0 0 -308 -314 -362 -618h-115c50 285 322 582 347 609h-335l15 91h463z" />
    <glyph glyph-name="eight" unicode="8" horiz-adv-x="637" 
d="M28 168c0 118 107 180 200 215c-51 31 -92 74 -92 145c0 109 99 183 243 183c132 0 214 -63 214 -158c0 -93 -83 -147 -159 -179c67 -33 134 -84 134 -177c0 -125 -128 -208 -296 -208c-147 0 -244 64 -244 179zM458 202c0 68 -70 109 -130 135
c-89 -30 -190 -73 -190 -161c0 -65 53 -103 134 -103c97 0 186 53 186 129zM240 518c0 -55 51 -84 92 -101c77 23 154 57 154 123c0 47 -40 89 -108 89c-76 0 -138 -52 -138 -111z" />
    <glyph glyph-name="nine" unicode="9" horiz-adv-x="627" 
d="M146 78c139 0 263 94 314 239c-31 -28 -89 -66 -177 -66c-136 0 -209 94 -209 200c0 133 96 260 269 260c168 0 248 -124 248 -252c0 -258 -190 -470 -441 -470c-69 0 -111 16 -111 16l39 81s29 -8 68 -8zM310 334c82 0 150 56 173 94c1 12 1 24 1 36
c0 80 -45 158 -138 158c-105 0 -164 -83 -164 -167c0 -60 38 -121 128 -121z" />
    <glyph glyph-name="colon" unicode=":" horiz-adv-x="258" 
d="M78 332l23 135h114l-24 -135h-113zM19 0l23 135h113l-22 -135h-114z" />
    <glyph glyph-name="semicolon" unicode=";" horiz-adv-x="270" 
d="M84 332l22 135h114l-23 -135h-113zM24 0l23 135h113l-14 -146l-119 -132l-26 37l75 106h-52z" />
    <glyph glyph-name="less" unicode="&#x3c;" 
d="M509 88l-463 209l12 74l537 208l-14 -97l-419 -154l362 -153z" />
    <glyph glyph-name="equal" unicode="=" 
d="M75 386l12 80h502l-12 -80h-502zM42 202l14 81h502l-14 -81h-502z" />
    <glyph glyph-name="greater" unicode="&#x3e;" 
d="M588 371l-12 -74l-538 -209l15 98l420 153l-363 154l14 86z" />
    <glyph glyph-name="question" unicode="?" horiz-adv-x="519" 
d="M102 0l21 128h114l-22 -128h-113zM517 552c0 -128 -124 -194 -258 -222l-28 -115h-70l22 175c130 26 226 68 226 149c0 55 -42 81 -103 81c-63 0 -121 -28 -177 -58l-38 78c47 28 132 71 231 71c108 0 195 -53 195 -159z" />
    <glyph glyph-name="at" unicode="@" horiz-adv-x="960" 
d="M397 -133c119 0 195 46 195 46l25 -39s-88 -53 -222 -53c-221 0 -354 159 -354 368c0 259 194 497 516 497c273 0 383 -181 354 -394c-20 -138 -82 -317 -242 -317c-102 0 -114 72 -111 119c-39 -32 -102 -71 -174 -71s-129 53 -129 128c0 117 85 171 177 171
c58 0 128 -19 162 -26l9 52c11 65 -5 93 -74 93c-49 0 -114 -20 -170 -42l-21 63c68 26 145 44 203 44c108 0 160 -48 140 -159l-33 -189c-13 -67 -22 -127 44 -127c61 0 150 91 171 261c25 179 -52 348 -308 348c-289 0 -464 -216 -464 -452c0 -185 111 -321 306 -321z
M569 160l17 91c-29 5 -84 19 -128 19c-89 0 -119 -58 -119 -109c0 -52 31 -73 75 -73c46 0 107 31 155 72z" />
    <glyph glyph-name="A" unicode="A" horiz-adv-x="687" 
d="M504 0l-27 160h-302l-83 -160h-124l389 700h118l142 -700h-113zM403 601l-183 -354h242z" />
    <glyph glyph-name="B" unicode="B" horiz-adv-x="679" 
d="M613 215c0 -136 -96 -215 -262 -215h-314l123 700h250c142 0 224 -61 224 -157c0 -107 -96 -163 -155 -171c47 -8 134 -50 134 -157zM507 225c0 66 -56 102 -143 102h-162l-44 -242h176c113 0 173 59 173 140zM525 529c0 50 -38 86 -128 86h-144l-38 -207h152
c69 0 158 37 158 121z" />
    <glyph glyph-name="C" unicode="C" horiz-adv-x="650" 
d="M669 603l-61 -75c-72 53 -130 86 -196 86c-138 0 -241 -146 -241 -335c0 -134 54 -193 133 -193c65 0 150 38 228 85l48 -84c-92 -52 -192 -98 -297 -98c-127 0 -223 83 -223 284c0 273 156 438 342 438c113 0 195 -58 267 -108z" />
    <glyph glyph-name="D" unicode="D" horiz-adv-x="709" 
d="M669 432c0 -208 -121 -432 -398 -432h-234l123 700h196c205 0 313 -98 313 -268zM560 430c0 130 -82 178 -221 178h-87l-92 -516h96c191 0 304 142 304 338z" />
    <glyph glyph-name="E" unicode="E" horiz-adv-x="602" 
d="M499 0h-462l122 700h457l-15 -92h-350l-38 -213h288l-16 -90h-287l-39 -213h355z" />
    <glyph glyph-name="F" unicode="F" horiz-adv-x="576" 
d="M601 608h-350l-38 -213h277l-14 -91h-278l-54 -304h-107l122 700h457z" />
    <glyph glyph-name="G" unicode="G" horiz-adv-x="706" 
d="M485 0l14 80c-62 -48 -134 -91 -218 -91c-124 0 -221 87 -221 276c0 296 163 446 341 446c117 0 211 -63 281 -115l-63 -74c-53 37 -125 92 -208 92c-137 0 -239 -144 -239 -336c0 -119 42 -197 134 -197c80 0 172 67 211 98l22 122h-182l15 87h283l-68 -388h-102z" />
    <glyph glyph-name="H" unicode="H" horiz-adv-x="715" 
d="M466 0l56 322h-322l-56 -322h-107l123 700h107l-51 -288h322l51 288h108l-123 -700h-108z" />
    <glyph glyph-name="I" unicode="I" horiz-adv-x="286" 
d="M144 0h-107l123 700h107z" />
    <glyph glyph-name="J" unicode="J" horiz-adv-x="286" 
d="M267 700l-114 -649c-22 -118 -28 -162 -222 -208l-26 86c120 34 128 51 139 117l116 654h107z" />
    <glyph glyph-name="K" unicode="K" horiz-adv-x="664" 
d="M37 0l123 700h107l-64 -363l362 363h138l-341 -336l242 -364h-120l-193 294l-115 -113l-32 -181h-107z" />
    <glyph glyph-name="L" unicode="L" horiz-adv-x="552" 
d="M482 0h-445l123 700h107l-108 -609h338z" />
    <glyph glyph-name="M" unicode="M" horiz-adv-x="843" 
d="M594 0l90 513l-261 -396h-64l-122 416l-93 -533h-107l123 700h111l135 -462l307 462h111l-123 -700h-107z" />
    <glyph glyph-name="N" unicode="N" horiz-adv-x="731" 
d="M270 700l238 -549l97 549h108l-123 -700h-110l-239 551l-97 -551h-107l123 700h110z" />
    <glyph glyph-name="O" unicode="O" horiz-adv-x="754" 
d="M412 711c209 0 300 -124 301 -300c0 -162 -92 -422 -353 -422c-210 0 -300 123 -300 299c-1 163 91 423 352 423zM357 81c175 0 245 204 245 329c0 103 -35 208 -186 208c-176 0 -246 -204 -246 -329c0 -103 35 -208 187 -208z" />
    <glyph glyph-name="P" unicode="P" horiz-adv-x="652" 
d="M653 509c0 -141 -105 -245 -287 -245h-175l-47 -264h-107l123 700h244c152 0 249 -57 249 -191zM542 507c0 76 -59 102 -138 102h-152l-46 -255h147c108 0 189 50 189 153z" />
    <glyph glyph-name="Q" unicode="Q" horiz-adv-x="753" 
d="M412 711c209 0 300 -124 301 -300c0 -141 -70 -356 -259 -410l98 -93l-79 -67l-131 148c-197 7 -282 128 -282 299c-1 163 91 423 352 423zM357 81c175 0 245 204 245 329c0 103 -35 208 -186 208c-176 0 -246 -204 -246 -329c0 -103 35 -208 187 -208z" />
    <glyph glyph-name="R" unicode="R" horiz-adv-x="689" 
d="M476 0l-127 288h-154l-51 -288h-107l123 700h273c150 0 245 -55 245 -181c0 -119 -87 -211 -226 -228l135 -291h-111zM566 516c0 73 -60 97 -140 97h-173l-44 -238h173c112 0 184 49 184 141z" />
    <glyph glyph-name="S" unicode="S" 
d="M381 396c90 -37 178 -82 178 -196c0 -130 -115 -211 -262 -211c-118 0 -229 52 -293 95l58 75c59 -35 150 -79 232 -79c84 0 152 41 152 108c0 74 -90 95 -186 134c-88 37 -166 79 -166 186c0 121 103 203 250 203c104 0 202 -41 269 -79l-58 -73c-57 32 -144 61 -208 61
c-72 0 -138 -35 -138 -103c0 -67 69 -78 172 -121z" />
    <glyph glyph-name="T" unicode="T" horiz-adv-x="575" 
d="M609 608h-213l-108 -608h-108l108 608h-213l15 92h534z" />
    <glyph glyph-name="U" unicode="U" horiz-adv-x="705" 
d="M693 700l-79 -447c-26 -145 -101 -264 -307 -264c-219 0 -258 124 -229 287l74 424h109l-79 -441c-18 -99 -5 -177 126 -177c132 0 181 78 199 177l78 441h108z" />
    <glyph glyph-name="V" unicode="V" horiz-adv-x="685" 
d="M205 700l98 -585l301 585h131l-387 -700h-119l-143 700h119z" />
    <glyph glyph-name="W" unicode="W" horiz-adv-x="943" 
d="M559 0l-43 549l-240 -549h-111l-69 700h119l34 -555l242 555h97l41 -558l230 558h126l-315 -700h-111z" />
    <glyph glyph-name="X" unicode="X" horiz-adv-x="630" 
d="M98 700h117l114 -285l213 285h131l-287 -350l176 -350h-119l-125 280l-219 -280h-136l298 350z" />
    <glyph glyph-name="Y" unicode="Y" horiz-adv-x="638" 
d="M211 0l49 279l-179 421h114l127 -337l245 337h127l-328 -423l-48 -277h-107z" />
    <glyph glyph-name="Z" unicode="Z" horiz-adv-x="620" 
d="M-16 0l14 84l484 524h-368l15 92h511l-13 -84l-486 -524h396l-15 -92h-538z" />
    <glyph glyph-name="bracketleft" unicode="[" horiz-adv-x="346" 
d="M239 -144h-236l173 983h236l-11 -67h-129l-150 -848h129z" />
    <glyph glyph-name="backslash" unicode="\" horiz-adv-x="454" 
d="M286 -90l-178 880h78l177 -880h-77z" />
    <glyph glyph-name="bracketright" unicode="]" horiz-adv-x="347" 
d="M187 -144h-236l11 68h129l150 848h-129l12 67h236z" />
    <glyph glyph-name="asciicircum" unicode="^" 
d="M454 340l-82 267l-173 -267h-120l250 360h106l127 -360h-108z" />
    <glyph glyph-name="underscore" unicode="_" horiz-adv-x="704" 
d="M555 -155h-565l13 76h564z" />
    <glyph glyph-name="grave" unicode="`" horiz-adv-x="228" 
d="M346 596h-80l-146 133h124z" />
    <glyph glyph-name="a" unicode="a" horiz-adv-x="611" 
d="M484 0h-104l13 75c-44 -39 -116 -86 -199 -86c-77 0 -156 48 -156 189c0 208 100 358 248 358c81 0 138 -46 175 -80l12 69h104zM229 73c70 0 128 44 180 91l37 210c-35 40 -84 77 -138 77c-104 0 -164 -130 -164 -262c0 -71 29 -116 85 -116z" />
    <glyph glyph-name="b" unicode="b" horiz-adv-x="608" 
d="M21 0l129 729h103l-48 -269c43 34 109 76 185 76c85 0 169 -49 169 -189c0 -208 -98 -358 -243 -358c-85 0 -141 45 -180 79l-12 -68h-103zM356 451c-63 0 -117 -39 -167 -80l-39 -221c38 -41 88 -76 145 -76c99 0 158 130 158 262c0 72 -32 115 -97 115z" />
    <glyph glyph-name="c" unicode="c" horiz-adv-x="520" 
d="M516 460l-51 -71c-27 16 -85 58 -144 58c-95 0 -177 -103 -177 -230c0 -86 37 -139 108 -139c57 0 128 41 161 57l38 -81c-48 -22 -135 -65 -219 -65c-113 0 -195 76 -195 219c0 216 137 328 265 328c97 0 170 -50 214 -76z" />
    <glyph glyph-name="d" unicode="d" horiz-adv-x="611" 
d="M484 0h-104l13 75c-44 -39 -116 -86 -199 -86c-77 0 -156 48 -156 189c0 208 100 358 248 358c81 0 138 -46 175 -80l48 273h104zM229 73c70 0 128 44 180 91l37 210c-35 40 -84 77 -138 77c-104 0 -164 -130 -164 -262c0 -71 29 -116 85 -116z" />
    <glyph glyph-name="e" unicode="e" horiz-adv-x="561" 
d="M525 394c0 -125 -122 -173 -326 -173h-58v-10c0 -89 38 -142 115 -142c68 0 146 42 195 67l36 -73c-43 -22 -145 -74 -248 -74c-121 0 -203 72 -203 227c0 183 116 320 299 320c120 0 190 -60 190 -142zM331 459c-92 0 -158 -79 -181 -175h55c148 0 219 40 219 105
c0 44 -39 70 -93 70z" />
    <glyph glyph-name="f" unicode="f" horiz-adv-x="363" 
d="M58 447l13 78h72l10 58c16 101 53 146 141 146c61 0 137 -28 168 -42l-47 -69c-20 7 -76 22 -103 22c-32 0 -49 -20 -56 -56l-11 -59h137l-14 -78h-136l-74 -419c-28 -154 -35 -199 -228 -245l-23 81c122 36 127 54 146 158l76 425h-71z" />
    <glyph glyph-name="g" unicode="g" horiz-adv-x="609" 
d="M472 525h103l-96 -547c-27 -152 -114 -192 -239 -192c-78 0 -172 16 -248 39l33 85c69 -22 142 -39 209 -39c99 0 132 55 141 105l17 98c-45 -39 -116 -85 -198 -85c-77 0 -156 48 -156 189c0 208 100 358 248 358c80 0 137 -46 174 -80zM229 73c69 0 126 44 179 90
l37 212c-35 40 -85 76 -138 76c-103 0 -164 -130 -164 -262c0 -71 30 -116 86 -116z" />
    <glyph glyph-name="h" unicode="h" horiz-adv-x="608" 
d="M253 729l-48 -272c44 30 131 79 212 79c111 0 150 -72 131 -173l-63 -363h-104l63 352c10 57 0 101 -63 101c-66 0 -152 -50 -191 -81l-66 -372h-103l129 729h103z" />
    <glyph glyph-name="i" unicode="i" horiz-adv-x="252" 
d="M124 0h-103l93 525h103zM127 620l18 106h111l-17 -106h-112z" />
    <glyph glyph-name="j" unicode="j" horiz-adv-x="252" 
d="M127 620l18 106h112l-18 -106h-112zM217 525l-95 -534c-22 -118 -28 -162 -221 -208l-23 81c122 36 128 53 139 120l97 541h103z" />
    <glyph glyph-name="k" unicode="k" horiz-adv-x="535" 
d="M537 525l-217 -214l155 -311h-105l-121 241l-100 -98l-25 -143h-103l129 729h103l-80 -450l238 246h126z" />
    <glyph glyph-name="l" unicode="l" horiz-adv-x="260" 
d="M128 0h-103l129 729h103z" />
    <glyph glyph-name="m" unicode="m" horiz-adv-x="917" 
d="M217 525l-13 -73c42 34 116 84 191 84c82 0 120 -41 129 -97c37 34 122 97 206 97c113 0 145 -74 128 -171l-64 -365h-104l64 352c10 55 1 101 -60 101s-132 -52 -173 -89l-63 -364h-103l63 352c11 55 2 101 -60 101c-60 0 -129 -50 -169 -87l-65 -366h-103l93 525h103z
" />
    <glyph glyph-name="n" unicode="n" horiz-adv-x="608" 
d="M217 525l-12 -68c44 30 131 79 212 79c111 0 150 -72 131 -173l-63 -363h-104l63 352c10 57 0 101 -63 101c-66 0 -152 -50 -191 -81l-66 -372h-103l93 525h103z" />
    <glyph glyph-name="o" unicode="o" horiz-adv-x="611" 
d="M313 536c156 0 247 -87 247 -231c0 -174 -105 -316 -277 -316c-155 0 -246 87 -246 231c0 174 104 316 276 316zM281 71c111 0 174 116 174 234c0 87 -39 149 -140 149c-111 0 -174 -116 -174 -234c0 -88 40 -149 140 -149z" />
    <glyph glyph-name="p" unicode="p" horiz-adv-x="608" 
d="M-15 -204l129 729h103l-12 -65c43 34 109 76 185 76c85 0 169 -49 169 -189c0 -208 -97 -358 -243 -358c-85 0 -141 45 -180 79l-48 -272h-103zM356 451c-63 0 -117 -39 -167 -80l-39 -220c38 -41 88 -77 145 -77c100 0 158 130 158 262c0 72 -32 115 -97 115z" />
    <glyph glyph-name="q" unicode="q" horiz-adv-x="611" 
d="M448 -204h-104l49 279c-44 -39 -116 -86 -199 -86c-77 0 -156 48 -156 189c0 208 100 358 248 358c81 0 138 -46 175 -80l12 69h104zM229 73c70 0 128 44 180 91l37 210c-35 40 -84 77 -138 77c-104 0 -164 -130 -164 -262c0 -71 29 -116 85 -116z" />
    <glyph glyph-name="r" unicode="r" horiz-adv-x="396" 
d="M217 525l-20 -111c12 21 83 127 217 117l-17 -98c-169 0 -225 -173 -225 -173l-48 -260h-103l93 525h103z" />
    <glyph glyph-name="s" unicode="s" horiz-adv-x="519" 
d="M290 306c95 -30 164 -67 164 -155c0 -102 -93 -162 -214 -162c-100 0 -190 41 -242 74l52 70c50 -29 127 -62 191 -62c57 0 107 26 107 72c0 51 -60 63 -131 85c-70 22 -154 54 -154 150s85 158 203 158c87 0 174 -34 221 -61l-50 -68c-45 23 -111 48 -168 48
s-101 -25 -101 -68c0 -50 60 -61 122 -81z" />
    <glyph glyph-name="t" unicode="t" horiz-adv-x="387" 
d="M54 447l13 78h71l24 132l106 20l-27 -152h143l-13 -78h-144l-56 -314c-7 -43 11 -54 37 -54c27 0 76 18 97 26l26 -81c-28 -11 -102 -35 -152 -35c-76 0 -128 45 -108 156l53 302h-70z" />
    <glyph glyph-name="u" unicode="u" horiz-adv-x="607" 
d="M377 0l12 66c-44 -30 -131 -77 -212 -77c-111 0 -149 72 -131 173l64 363h103l-63 -352c-10 -57 0 -101 64 -101c65 0 151 49 190 79l66 374h103l-93 -525h-103z" />
    <glyph glyph-name="v" unicode="v" horiz-adv-x="559" 
d="M275 0h-102l-114 525h107l72 -419l221 419h117z" />
    <glyph glyph-name="w" unicode="w" horiz-adv-x="814" 
d="M472 0l-46 398l-192 -398h-100l-69 525h106l35 -416l194 416h90l42 -416l182 416h113l-255 -525h-100z" />
    <glyph glyph-name="x" unicode="x" horiz-adv-x="578" 
d="M399 0l-117 209l-186 -209h-136l260 263l-156 262h111l109 -204l180 204h130l-250 -261l168 -264h-113z" />
    <glyph glyph-name="y" unicode="y" horiz-adv-x="561" 
d="M-9 -134c99 32 136 50 184 130l-115 529h107l76 -405l219 405h116l-298 -525c-66 -114 -95 -174 -265 -217z" />
    <glyph glyph-name="z" unicode="z" horiz-adv-x="521" 
d="M-14 0l13 76l366 363h-290l14 86h430l-12 -76l-366 -363h300l-15 -86h-440z" />
    <glyph glyph-name="braceleft" unicode="{" horiz-adv-x="391" 
d="M25 309l13 78c93 -1 116 69 117 119l4 97c6 156 86 236 266 236h33l-12 -66h-18c-119 0 -153 -73 -159 -154l-4 -94c-5 -115 -54 -163 -146 -179c75 -18 119 -68 84 -181l-23 -77c-26 -81 -33 -165 97 -165h18l-10 -66h-19c-162 0 -242 86 -195 242l28 91
c27 86 -3 119 -74 119z" />
    <glyph glyph-name="bar" unicode="|" horiz-adv-x="243" 
d="M87 -123h-80l166 941h80z" />
    <glyph glyph-name="braceright" unicode="}" horiz-adv-x="390" 
d="M383 387l-13 -78c-93 1 -117 -69 -119 -119l-3 -97c-6 -156 -85 -236 -265 -236h-33l11 66h18c120 0 154 73 159 154l4 94c5 113 54 162 146 178c-75 18 -118 69 -84 182l24 77c24 81 32 165 -97 165h-19l11 66h18c163 0 242 -86 194 -242l-28 -91
c-26 -86 4 -119 76 -119z" />
    <glyph glyph-name="asciitilde" unicode="~" 
d="M85 196l-66 29c52 86 108 129 177 129c99 0 153 -75 230 -75c29 0 59 11 101 70l67 -29c-53 -85 -108 -128 -178 -128c-99 0 -153 74 -230 74c-29 0 -58 -10 -101 -70z" />
    <glyph glyph-name="uni00A0" unicode="&#xa0;" horiz-adv-x="278" 
 />
    <glyph glyph-name="exclamdown" unicode="&#xa1;" horiz-adv-x="272" 
d="M127 572l21 128h114l-21 -128h-114zM200 485l-55 -485h-125l116 485h64z" />
    <glyph glyph-name="cent" unicode="&#xa2;" horiz-adv-x="562" 
d="M299 0h-78l13 78c-101 9 -172 84 -172 218c0 216 137 328 265 328h3l14 76h78l-16 -88c62 -18 113 -53 146 -73l-50 -69c-23 14 -65 44 -111 58l-62 -354c47 14 95 39 121 52l37 -79c-40 -18 -104 -52 -174 -65zM169 305c0 -75 28 -124 81 -136l64 362
c-81 -20 -145 -114 -145 -226z" />
    <glyph glyph-name="sterling" unicode="&#xa3;" horiz-adv-x="563" 
d="M62 256l12 68h99c-12 64 -52 114 -52 192c0 117 84 195 219 195c106 0 182 -51 234 -85l-56 -66c-56 35 -112 60 -164 60c-81 0 -128 -53 -128 -112c0 -69 45 -111 53 -184h162l-12 -68h-155c-20 -83 -87 -144 -116 -165h306l-14 -91h-444l13 75s129 71 153 181h-110z
" />
    <glyph glyph-name="yen" unicode="&#xa5;" horiz-adv-x="677" 
d="M96 293l10 67h140l-144 340h114l127 -337l245 337h126l-263 -340h139l-12 -67h-178l-14 -18l-8 -48h189l-12 -67h-189l-27 -160h-108l28 160h-187l11 67h188l9 52l-6 14h-178z" />
    <glyph glyph-name="brokenbar" unicode="&#xa6;" horiz-adv-x="245" 
d="M181 405h-80l73 413h80zM88 -123h-80l73 413h80z" />
    <glyph glyph-name="section" unicode="&#xa7;" horiz-adv-x="559" 
d="M221 158c-96 30 -165 69 -165 152c0 66 44 113 120 136c-33 23 -57 56 -57 107c0 96 86 158 204 158c87 0 174 -34 221 -61l-50 -68c-44 23 -112 48 -169 48s-101 -25 -101 -68c0 -50 60 -61 123 -81c92 -29 163 -67 163 -152c0 -72 -51 -116 -119 -136
c33 -23 57 -56 57 -107c0 -96 -86 -158 -204 -158c-87 0 -173 34 -221 61l50 68c46 -23 113 -48 170 -48s100 25 100 68c0 50 -59 61 -122 81zM273 403l-7 2c-67 -7 -108 -39 -108 -81c0 -50 60 -65 137 -89l4 -1c67 6 109 37 109 81c0 48 -53 64 -135 88z" />
    <glyph glyph-name="dieresis" unicode="&#xa8;" horiz-adv-x="242" 
d="M91 606l18 104h96l-17 -104h-97zM266 606l18 104h96l-19 -104h-95z" />
    <glyph glyph-name="copyright" unicode="&#xa9;" horiz-adv-x="824" 
d="M64 313c0 212 136 398 382 398c205 0 330 -134 330 -324c0 -212 -136 -398 -383 -398c-204 0 -329 134 -329 324zM103 314c0 -166 108 -287 294 -287c214 0 340 163 340 359c0 166 -108 287 -294 287c-214 0 -340 -163 -340 -359zM597 500l-32 -33c-25 21 -67 56 -129 56
c-87 0 -155 -91 -150 -217c3 -80 36 -129 94 -129c62 0 120 34 149 54l26 -37c-39 -26 -98 -62 -173 -62c-79 0 -143 59 -147 170c-7 170 91 265 202 265c75 0 128 -41 160 -67z" />
    <glyph glyph-name="ordfeminine" unicode="&#xaa;" horiz-adv-x="436" 
d="M381 385h-76l7 41c-27 -22 -71 -48 -121 -48c-51 0 -102 31 -102 118c0 123 64 211 156 211c50 0 86 -27 109 -46l7 39h76zM217 439c43 0 77 24 107 51l20 114c-22 22 -50 42 -82 42c-60 0 -95 -70 -95 -143c0 -41 17 -64 50 -64z" />
    <glyph glyph-name="guillemotleft" unicode="&#xab;" horiz-adv-x="683" 
d="M24 244l11 65l340 219l-18 -109l-240 -151l186 -149l-16 -93zM644 419l-241 -151l186 -149l-15 -93l-263 218l11 65l341 219z" />
    <glyph glyph-name="logicalnot" unicode="&#xac;" 
d="M558 90h-87l35 203h-487l14 80h575z" />
    <glyph glyph-name="registered" unicode="&#xae;" horiz-adv-x="502" 
d="M88 480c0 117 75 220 212 220c113 0 182 -74 182 -180c0 -117 -75 -220 -211 -220c-114 0 -183 74 -183 180zM122 481c0 -85 55 -148 151 -148c111 0 177 84 177 186c0 85 -57 148 -153 148c-111 0 -175 -84 -175 -186zM380 551c0 -33 -26 -57 -62 -63l33 -86h-34l-31 85
h-43l-15 -85h-33l35 201h89c38 0 61 -23 61 -52zM347 551c0 12 -7 22 -29 22h-60l-10 -55h52c31 0 47 15 47 33z" />
    <glyph glyph-name="macron" unicode="&#xaf;" horiz-adv-x="300" 
d="M113 621l11 66h295l-11 -66h-295z" />
    <glyph glyph-name="degree" unicode="&#xb0;" horiz-adv-x="432" 
d="M85 531c0 93 77 170 170 170c94 0 170 -77 170 -170c0 -94 -76 -171 -170 -171c-93 0 -170 77 -170 171zM150 531c0 -59 47 -106 105 -106s106 47 106 106c0 58 -48 105 -106 105s-105 -47 -105 -105z" />
    <glyph glyph-name="plusminus" unicode="&#xb1;" 
d="M310 534h83l-28 -154h210l-12 -80h-212l-27 -155h-83l27 155h-208l14 80h208zM7 0l12 71h502l-11 -71h-503z" />
    <glyph glyph-name="twosuperior" unicode="&#xb2;" horiz-adv-x="398" 
d="M378 450l-11 -65h-316l7 39c16 95 90 133 168 176c71 40 120 66 120 104c-2 25 -24 43 -65 43c-45 0 -91 -21 -122 -39l-30 55c32 19 89 49 160 49c87 0 136 -45 136 -106c0 -83 -94 -128 -176 -172c-62 -33 -86 -49 -94 -84h223z" />
    <glyph glyph-name="threesuperior" unicode="&#xb3;" horiz-adv-x="395" 
d="M47 434l39 50c34 -19 74 -41 128 -41c61 0 99 30 99 69c0 49 -56 66 -117 66h-18l8 65h24c57 0 120 24 120 63c0 26 -24 41 -60 41c-44 0 -93 -23 -117 -35l-27 54c18 10 79 46 157 46c84 0 127 -42 127 -92c0 -44 -33 -84 -98 -107c46 -12 81 -52 81 -102
c0 -63 -50 -133 -172 -133c-89 0 -149 40 -174 56z" />
    <glyph glyph-name="acute" unicode="&#xb4;" horiz-adv-x="228" 
d="M183 596h-91l141 133h139z" />
    <glyph glyph-name="mu" unicode="&#xb5;" horiz-adv-x="609" 
d="M95 -204h-103l129 729h103l-62 -352c-11 -57 0 -101 63 -101c65 0 151 49 190 79l66 374h103l-93 -525h-103l12 66c-45 -30 -130 -77 -212 -77c-22 0 -41 3 -58 9z" />
    <glyph glyph-name="paragraph" unicode="&#xb6;" horiz-adv-x="662" 
d="M355 700h95l-156 -885h-91l79 438c-130 0 -219 60 -219 186c0 169 127 261 292 261zM396 -186l156 886h89l-156 -886h-89z" />
    <glyph glyph-name="periodcentered" unicode="&#xb7;" horiz-adv-x="254" 
d="M56 217l23 135h114l-23 -135h-114z" />
    <glyph glyph-name="cedilla" unicode="&#xb8;" horiz-adv-x="174" 
d="M-32 -156l32 56c20 -10 39 -12 51 -12c29 0 58 13 58 52c0 30 -16 62 -16 62h48s27 -35 27 -79c0 -63 -48 -98 -116 -98c-27 0 -59 6 -84 19z" />
    <glyph glyph-name="onesuperior" unicode="&#xb9;" horiz-adv-x="248" 
d="M202 385h-79l63 342l-81 -38l-26 55l124 61h73z" />
    <glyph glyph-name="ordmasculine" unicode="&#xba;" horiz-adv-x="428" 
d="M267 707c98 0 157 -52 157 -137c0 -105 -66 -192 -181 -192c-97 0 -156 52 -156 137c0 104 66 192 180 192zM245 437c68 0 103 68 103 129c0 47 -21 82 -82 82c-68 0 -104 -68 -104 -129c0 -47 22 -82 83 -82z" />
    <glyph glyph-name="guillemotright" unicode="&#xbb;" horiz-adv-x="681" 
d="M362 309l-11 -65l-341 -218l19 108l240 151l-185 150l15 93zM297 26l19 108l240 151l-185 150l15 93l262 -219l-10 -65z" />
    <glyph glyph-name="onequarter" unicode="&#xbc;" horiz-adv-x="834" 
d="M383 85l9 55l254 280h102l-48 -271h67l-10 -64h-68l-15 -85h-78l15 85h-228zM650 700l-452 -700h-85l452 700h85zM210 280h-79l62 342l-81 -38l-25 55l124 61h73zM480 149h142l36 201z" />
    <glyph glyph-name="onehalf" unicode="&#xbd;" horiz-adv-x="861" 
d="M765 65l-11 -65h-315l6 39c16 95 90 133 168 176c70 39 119 66 119 103c0 26 -22 44 -64 44c-45 0 -92 -21 -122 -39l-30 55c32 19 88 49 159 49c89 0 136 -45 136 -106c0 -83 -93 -128 -176 -172c-62 -33 -85 -49 -93 -84h223zM210 280h-79l62 342l-81 -38l-25 55
l124 61h73zM650 700l-452 -700h-85l452 700h85z" />
    <glyph glyph-name="threequarters" unicode="&#xbe;" horiz-adv-x="945" 
d="M496 85l8 55l254 280h103l-48 -271h67l-10 -64h-68l-15 -85h-79l15 85h-227zM44 329l39 50c34 -19 74 -41 128 -41c61 0 99 30 99 69c0 49 -57 66 -117 66h-18l8 65h24c57 0 120 24 120 63c0 26 -23 41 -60 41c-45 0 -93 -23 -117 -35l-27 54c18 10 79 46 157 46
c84 0 127 -42 127 -92c0 -44 -33 -84 -98 -107c46 -12 81 -52 81 -102c0 -63 -50 -133 -172 -133c-90 0 -149 40 -174 56zM763 700l-452 -700h-85l452 700h85zM592 149h142l35 200z" />
    <glyph glyph-name="questiondown" unicode="&#xbf;" horiz-adv-x="517" 
d="M435 700l-22 -128h-114l22 128h114zM19 148c0 128 124 194 259 222l28 115h70l-23 -175c-130 -26 -226 -68 -226 -149c0 -56 44 -81 104 -81c62 0 121 28 176 58l38 -78c-47 -28 -131 -71 -232 -71c-107 0 -194 53 -194 159z" />
    <glyph glyph-name="Agrave" unicode="&#xc0;" horiz-adv-x="687" 
d="M504 0l-27 160h-302l-83 -160h-124l389 700h118l142 -700h-113zM403 601l-183 -354h242zM509 747h-80l-145 133h123z" />
    <glyph glyph-name="Aacute" unicode="&#xc1;" horiz-adv-x="687" 
d="M504 0l-27 160h-302l-83 -160h-124l389 700h118l142 -700h-113zM403 601l-183 -354h242zM432 747h-91l141 133h139z" />
    <glyph glyph-name="Acircumflex" unicode="&#xc2;" horiz-adv-x="687" 
d="M504 0l-27 160h-302l-83 -160h-124l389 700h118l142 -700h-113zM403 601l-183 -354h242zM504 880l77 -133h-69l-68 82l-96 -82h-78l123 133h111z" />
    <glyph glyph-name="Atilde" unicode="&#xc3;" horiz-adv-x="687" 
d="M504 0l-27 160h-302l-83 -160h-124l389 700h118l142 -700h-113zM403 601l-183 -354h242zM318 756l-48 30c34 50 59 83 107 83c52 0 86 -48 120 -48c13 0 28 6 58 46l48 -31c-34 -49 -59 -82 -107 -82c-53 0 -86 48 -120 48c-13 0 -28 -5 -58 -46z" />
    <glyph glyph-name="Adieresis" unicode="&#xc4;" horiz-adv-x="687" 
d="M504 0l-27 160h-302l-83 -160h-124l389 700h118l142 -700h-113zM403 601l-183 -354h242zM291 757l18 104h96l-18 -104h-96zM466 757l18 104h96l-18 -104h-96z" />
    <glyph glyph-name="Aring" unicode="&#xc5;" horiz-adv-x="687" 
d="M504 0l-27 160h-302l-83 -160h-124l389 700h118l142 -700h-113zM403 601l-183 -354h242zM336 844c0 59 47 107 106 107s107 -48 107 -107s-48 -107 -107 -107s-106 48 -106 107zM391 844c0 -29 22 -52 51 -52s52 23 52 52s-23 52 -52 52s-51 -23 -51 -52z" />
    <glyph glyph-name="AE" unicode="&#xc6;" horiz-adv-x="1016" 
d="M531 700h499l-15 -92h-350l-38 -213h288l-16 -90h-288l-39 -213h356l-16 -92h-462l28 160h-275l-132 -160h-139zM277 249h216l59 331z" />
    <glyph glyph-name="Ccedilla" unicode="&#xc7;" horiz-adv-x="651" 
d="M141 -156l32 56c19 -10 37 -12 50 -12c29 0 59 13 59 52c0 18 -6 37 -11 49c-121 6 -210 90 -210 284c0 273 156 438 342 438c113 0 195 -58 268 -108l-61 -75c-73 53 -130 86 -197 86c-137 0 -241 -146 -241 -335c0 -134 54 -193 134 -193c64 0 149 38 227 85l49 -84
c-82 -46 -170 -87 -262 -96c8 -13 20 -38 20 -68c0 -63 -48 -98 -115 -98c-28 0 -60 6 -84 19z" />
    <glyph glyph-name="Egrave" unicode="&#xc8;" horiz-adv-x="602" 
d="M485 747h-81l-146 133h124zM499 0h-462l123 700h457l-15 -92h-350l-38 -213h287l-15 -90h-288l-38 -213h355z" />
    <glyph glyph-name="Eacute" unicode="&#xc9;" horiz-adv-x="602" 
d="M404 747h-91l141 133h137zM499 0h-462l123 700h457l-15 -92h-350l-38 -213h287l-15 -90h-288l-38 -213h355z" />
    <glyph glyph-name="Ecircumflex" unicode="&#xca;" horiz-adv-x="602" 
d="M478 880l77 -133h-67l-69 82l-96 -82h-79l125 133h109zM499 0h-462l123 700h457l-15 -92h-350l-38 -213h287l-15 -90h-288l-38 -213h355z" />
    <glyph glyph-name="Edieresis" unicode="&#xcb;" horiz-adv-x="602" 
d="M499 0h-462l123 700h457l-15 -92h-350l-38 -213h287l-15 -90h-288l-38 -213h355zM267 757l17 104h97l-18 -104h-96zM442 757l18 104h96l-18 -104h-96z" />
    <glyph glyph-name="Igrave" unicode="&#xcc;" horiz-adv-x="286" 
d="M308 747h-80l-146 133h123zM145 0h-108l123 700h108z" />
    <glyph glyph-name="Iacute" unicode="&#xcd;" horiz-adv-x="286" 
d="M227 747h-91l141 133h138zM145 0h-108l123 700h108z" />
    <glyph glyph-name="Icircumflex" unicode="&#xce;" horiz-adv-x="286" 
d="M301 880l78 -133h-69l-68 82l-96 -82h-79l123 133h111zM145 0h-108l123 700h108z" />
    <glyph glyph-name="Idieresis" unicode="&#xcf;" horiz-adv-x="286" 
d="M145 0h-108l123 700h108zM90 757l17 104h97l-19 -104h-95zM265 757l18 104h95l-18 -104h-95z" />
    <glyph glyph-name="Eth" unicode="&#xd0;" horiz-adv-x="719" 
d="M678 432c0 -208 -121 -432 -398 -432h-234l54 307h-73l14 86h74l54 307h195c206 0 314 -98 314 -268zM367 307h-160l-38 -215h96c190 0 304 142 304 338c0 130 -83 178 -221 178h-87l-38 -215h159z" />
    <glyph glyph-name="Ntilde" unicode="&#xd1;" horiz-adv-x="731" 
d="M480 0l-239 550l-96 -550h-108l123 700h110l239 -550l97 550h107l-123 -700h-110zM344 756l-48 30c34 50 59 83 107 83c53 0 86 -48 120 -48c14 0 28 6 58 46l48 -31c-34 -49 -59 -82 -107 -82c-52 0 -85 48 -119 48c-14 0 -29 -5 -59 -46z" />
    <glyph glyph-name="Ograve" unicode="&#xd2;" horiz-adv-x="754" 
d="M412 711c209 0 300 -124 301 -300c0 -162 -92 -422 -353 -422c-210 0 -300 123 -300 299c-1 163 91 423 352 423zM357 81c175 0 245 204 245 329c0 103 -35 208 -186 208c-176 0 -246 -204 -246 -329c0 -103 35 -208 187 -208zM541 747h-80l-145 133h123z" />
    <glyph glyph-name="Oacute" unicode="&#xd3;" horiz-adv-x="754" 
d="M412 711c209 0 300 -124 301 -300c0 -162 -92 -422 -353 -422c-210 0 -300 123 -300 299c-1 163 91 423 352 423zM357 81c175 0 245 204 245 329c0 103 -35 208 -186 208c-176 0 -246 -204 -246 -329c0 -103 35 -208 187 -208zM461 747h-92l141 133h139z" />
    <glyph glyph-name="Ocircumflex" unicode="&#xd4;" horiz-adv-x="754" 
d="M412 711c209 0 300 -124 301 -300c0 -162 -92 -422 -353 -422c-210 0 -300 123 -300 299c-1 163 91 423 352 423zM357 81c175 0 245 204 245 329c0 103 -35 208 -186 208c-176 0 -246 -204 -246 -329c0 -103 35 -208 187 -208zM536 880l77 -133h-68l-68 82l-96 -82h-79
l123 133h111z" />
    <glyph glyph-name="Otilde" unicode="&#xd5;" horiz-adv-x="754" 
d="M412 711c209 0 300 -124 301 -300c0 -162 -92 -422 -353 -422c-210 0 -300 123 -300 299c-1 163 91 423 352 423zM357 81c175 0 245 204 245 329c0 103 -35 208 -186 208c-176 0 -246 -204 -246 -329c0 -103 35 -208 187 -208zM348 756l-47 30c33 50 59 83 106 83
c53 0 86 -48 120 -48c14 0 29 6 59 46l47 -31c-33 -49 -59 -82 -106 -82c-53 0 -86 48 -120 48c-14 0 -29 -5 -59 -46z" />
    <glyph glyph-name="Odieresis" unicode="&#xd6;" horiz-adv-x="754" 
d="M412 711c209 0 300 -124 301 -300c0 -162 -92 -422 -353 -422c-210 0 -300 123 -300 299c-1 163 91 423 352 423zM357 81c175 0 245 204 245 329c0 103 -35 208 -186 208c-176 0 -246 -204 -246 -329c0 -103 35 -208 187 -208zM323 757l18 104h96l-19 -104h-95zM498 757
l17 104h96l-18 -104h-95z" />
    <glyph glyph-name="multiply" unicode="&#xd7;" 
d="M548 466l-171 -135l121 -132l-64 -54l-123 134l-172 -136l-53 62l170 134l-121 132l64 54l123 -134l173 137z" />
    <glyph glyph-name="Oslash" unicode="&#xd8;" horiz-adv-x="753" 
d="M750 700l-91 -98c35 -51 52 -116 53 -191c0 -162 -92 -422 -353 -422c-90 0 -158 23 -207 63l-48 -52h-85l91 98c-35 50 -51 116 -51 190c-1 163 91 423 352 423c90 0 158 -23 207 -63l48 52h84zM356 81c175 0 245 204 245 329c0 38 -5 76 -18 109l-362 -392
c29 -28 72 -46 135 -46zM170 289c0 -37 4 -75 17 -107l361 390c-29 28 -71 46 -133 46c-176 0 -245 -204 -245 -329z" />
    <glyph glyph-name="Ugrave" unicode="&#xd9;" horiz-adv-x="705" 
d="M692 700l-78 -447c-26 -145 -101 -264 -307 -264c-219 0 -258 124 -230 287l75 424h108l-79 -441c-17 -99 -4 -177 127 -177s181 78 199 177l78 441h107zM516 747h-80l-146 133h124z" />
    <glyph glyph-name="Uacute" unicode="&#xda;" horiz-adv-x="705" 
d="M692 700l-78 -447c-26 -145 -101 -264 -307 -264c-219 0 -258 124 -230 287l75 424h108l-79 -441c-17 -99 -4 -177 127 -177s181 78 199 177l78 441h107zM435 747h-92l142 133h138z" />
    <glyph glyph-name="Ucircumflex" unicode="&#xdb;" horiz-adv-x="705" 
d="M692 700l-78 -447c-26 -145 -101 -264 -307 -264c-219 0 -258 124 -230 287l75 424h108l-79 -441c-17 -99 -4 -177 127 -177s181 78 199 177l78 441h107zM510 880l78 -133h-69l-68 82l-96 -82h-79l123 133h111z" />
    <glyph glyph-name="Udieresis" unicode="&#xdc;" horiz-adv-x="705" 
d="M692 700l-78 -447c-26 -145 -101 -264 -307 -264c-219 0 -258 124 -230 287l75 424h108l-79 -441c-17 -99 -4 -177 127 -177s181 78 199 177l78 441h107zM298 757l18 104h96l-18 -104h-96zM474 757l17 104h95l-18 -104h-94z" />
    <glyph glyph-name="Yacute" unicode="&#xdd;" horiz-adv-x="638" 
d="M210 0l49 279l-178 421h113l127 -337l245 337h127l-327 -424l-48 -276h-108zM399 747h-91l141 133h139z" />
    <glyph glyph-name="Thorn" unicode="&#xde;" horiz-adv-x="662" 
d="M632 388c0 -141 -106 -245 -287 -245h-175l-26 -143h-107l123 700h107l-21 -121h137c152 0 249 -57 249 -191zM522 386c0 76 -60 103 -139 103h-152l-47 -256h149c107 0 189 50 189 153z" />
    <glyph glyph-name="germandbls" unicode="&#xdf;" horiz-adv-x="669" 
d="M402 711c164 0 261 -72 232 -226l-2 -12l-62 -58c-25 14 -79 40 -128 40c-50 0 -89 -28 -89 -70c0 -49 50 -60 107 -80c88 -31 142 -72 142 -153c0 -105 -91 -163 -197 -163c-89 0 -171 41 -218 75l49 69c41 -30 115 -63 164 -63c44 0 96 27 96 73c0 48 -59 67 -113 86
c-63 23 -134 55 -134 146c0 93 74 161 187 161c35 0 69 -7 99 -17c4 78 -42 110 -137 110c-93 0 -168 -29 -189 -150l-85 -479h-103l86 492c30 161 129 219 295 219z" />
    <glyph glyph-name="agrave" unicode="&#xe0;" horiz-adv-x="611" 
d="M484 0h-103l13 75c-44 -39 -116 -86 -199 -86c-77 0 -157 48 -157 189c0 208 101 358 249 358c80 0 137 -47 175 -81l12 70h103zM230 73c70 0 128 44 180 91l37 210c-36 40 -85 77 -139 77c-103 0 -163 -130 -163 -262c0 -71 29 -116 85 -116zM449 596h-80l-146 133h124z
" />
    <glyph glyph-name="aacute" unicode="&#xe1;" horiz-adv-x="611" 
d="M484 0h-103l13 75c-44 -39 -116 -86 -199 -86c-77 0 -157 48 -157 189c0 208 101 358 249 358c80 0 137 -47 175 -81l12 70h103zM230 73c70 0 128 44 180 91l37 210c-36 40 -85 77 -139 77c-103 0 -163 -130 -163 -262c0 -71 29 -116 85 -116zM354 596h-91l141 133h137z
" />
    <glyph glyph-name="acircumflex" unicode="&#xe2;" horiz-adv-x="611" 
d="M484 0h-103l13 75c-44 -39 -116 -86 -199 -86c-77 0 -157 48 -157 189c0 208 101 358 249 358c80 0 137 -47 175 -81l12 70h103zM230 73c70 0 128 44 180 91l37 210c-36 40 -85 77 -139 77c-103 0 -163 -130 -163 -262c0 -71 29 -116 85 -116zM443 729l77 -133h-69
l-68 82l-95 -82h-79l123 133h111z" />
    <glyph glyph-name="atilde" unicode="&#xe3;" horiz-adv-x="611" 
d="M484 0h-103l13 75c-44 -39 -116 -86 -199 -86c-77 0 -157 48 -157 189c0 208 101 358 249 358c80 0 137 -47 175 -81l12 70h103zM230 73c70 0 128 44 180 91l37 210c-36 40 -85 77 -139 77c-103 0 -163 -130 -163 -262c0 -71 29 -116 85 -116zM258 605l-48 30
c34 50 59 83 107 83c53 0 86 -48 120 -48c14 0 28 6 59 46l47 -31c-33 -49 -59 -82 -106 -82c-53 0 -86 48 -120 48c-14 0 -29 -5 -59 -46z" />
    <glyph glyph-name="adieresis" unicode="&#xe4;" horiz-adv-x="611" 
d="M484 0h-103l13 75c-44 -39 -116 -86 -199 -86c-77 0 -157 48 -157 189c0 208 101 358 249 358c80 0 137 -47 175 -81l12 70h103zM230 73c70 0 128 44 180 91l37 210c-36 40 -85 77 -139 77c-103 0 -163 -130 -163 -262c0 -71 29 -116 85 -116zM234 606l18 104h96
l-17 -104h-97zM410 606l17 104h95l-17 -104h-95z" />
    <glyph glyph-name="aring" unicode="&#xe5;" horiz-adv-x="611" 
d="M484 0h-103l13 75c-44 -39 -116 -86 -199 -86c-77 0 -157 48 -157 189c0 208 101 358 249 358c80 0 137 -47 175 -81l12 70h103zM230 73c70 0 128 44 180 91l37 210c-36 40 -85 77 -139 77c-103 0 -163 -130 -163 -262c0 -71 29 -116 85 -116zM277 693
c0 59 47 107 106 107s107 -48 107 -107s-48 -107 -107 -107s-106 48 -106 107zM332 693c0 -29 22 -52 51 -52s52 23 52 52s-23 52 -52 52s-51 -23 -51 -52z" />
    <glyph glyph-name="ae" unicode="&#xe6;" horiz-adv-x="935" 
d="M484 0h-103l13 76c-44 -39 -117 -87 -200 -87c-77 0 -156 48 -156 189c0 208 100 358 248 358c81 0 138 -46 175 -80l12 69h104l-3 -18c39 19 84 29 134 29c119 0 190 -60 190 -142c0 -125 -122 -173 -326 -173h-57v-10c0 -89 36 -142 113 -142c69 0 147 42 195 67
l37 -73c-43 -22 -144 -74 -248 -74c-49 0 -91 11 -124 35zM229 73c70 0 128 45 181 92l1 8c-1 14 -2 28 -2 43c0 59 12 114 35 161c-36 39 -83 74 -136 74c-104 0 -164 -130 -164 -262c0 -71 29 -116 85 -116zM705 459c-93 0 -159 -79 -182 -175h55c148 0 220 40 220 105
c0 44 -40 70 -93 70z" />
    <glyph glyph-name="ccedilla" unicode="&#xe7;" horiz-adv-x="520" 
d="M69 -156l33 56c19 -10 38 -12 51 -12c28 0 58 13 58 52c0 20 -7 40 -12 52c-96 13 -162 87 -162 216c0 216 137 328 265 328c97 0 170 -50 214 -76l-51 -71c-27 16 -85 58 -144 58c-95 0 -177 -103 -177 -230c0 -86 37 -139 108 -139c57 0 128 41 161 57l38 -81
c-45 -21 -123 -59 -201 -64c8 -14 19 -38 19 -67c0 -63 -48 -98 -114 -98c-28 0 -62 6 -86 19z" />
    <glyph glyph-name="egrave" unicode="&#xe8;" horiz-adv-x="561" 
d="M525 394c0 -125 -122 -173 -327 -173h-57v-10c0 -89 37 -142 114 -142c68 0 147 42 196 67l36 -73c-43 -22 -146 -74 -248 -74c-121 0 -203 72 -203 227c0 183 116 320 299 320c120 0 190 -60 190 -142zM331 459c-92 0 -158 -79 -181 -175h55c147 0 219 40 219 105
c0 44 -40 70 -93 70zM435 596h-80l-145 133h123z" />
    <glyph glyph-name="eacute" unicode="&#xe9;" horiz-adv-x="561" 
d="M525 394c0 -125 -122 -173 -327 -173h-57v-10c0 -89 37 -142 114 -142c68 0 147 42 196 67l36 -73c-43 -22 -146 -74 -248 -74c-121 0 -203 72 -203 227c0 183 116 320 299 320c120 0 190 -60 190 -142zM331 459c-92 0 -158 -79 -181 -175h55c147 0 219 40 219 105
c0 44 -40 70 -93 70zM355 596h-91l141 133h137z" />
    <glyph glyph-name="ecircumflex" unicode="&#xea;" horiz-adv-x="561" 
d="M525 394c0 -125 -122 -173 -327 -173h-57v-10c0 -89 37 -142 114 -142c68 0 147 42 196 67l36 -73c-43 -22 -146 -74 -248 -74c-121 0 -203 72 -203 227c0 183 116 320 299 320c120 0 190 -60 190 -142zM331 459c-92 0 -158 -79 -181 -175h55c147 0 219 40 219 105
c0 44 -40 70 -93 70zM429 729l78 -133h-70l-67 82l-96 -82h-79l123 133h111z" />
    <glyph glyph-name="edieresis" unicode="&#xeb;" horiz-adv-x="561" 
d="M525 394c0 -125 -122 -173 -327 -173h-57v-10c0 -89 37 -142 114 -142c68 0 147 42 196 67l36 -73c-43 -22 -146 -74 -248 -74c-121 0 -203 72 -203 227c0 183 116 320 299 320c120 0 190 -60 190 -142zM331 459c-92 0 -158 -79 -181 -175h55c147 0 219 40 219 105
c0 44 -40 70 -93 70zM217 606l18 104h97l-18 -104h-97zM393 606l18 104h95l-18 -104h-95z" />
    <glyph glyph-name="igrave" unicode="&#xec;" horiz-adv-x="252" 
d="M264 596h-80l-147 133h124zM125 0h-104l93 525h104z" />
    <glyph glyph-name="iacute" unicode="&#xed;" horiz-adv-x="252" 
d="M182 596h-91l141 133h138zM125 0h-104l93 525h104z" />
    <glyph glyph-name="icircumflex" unicode="&#xee;" horiz-adv-x="252" 
d="M257 729l77 -133h-68l-68 82l-96 -82h-79l124 133h110zM125 0h-104l93 525h104z" />
    <glyph glyph-name="idieresis" unicode="&#xef;" horiz-adv-x="252" 
d="M125 0h-104l93 525h104zM45 606l19 104h96l-19 -104h-96zM220 606l19 104h95l-18 -104h-96z" />
    <glyph glyph-name="eth" unicode="&#xf0;" horiz-adv-x="621" 
d="M298 547h-101l86 68c-9 1 -17 2 -26 2c-44 0 -83 -9 -83 -9l-2 82s39 10 91 10c38 0 74 -6 106 -16l56 45h100l-93 -75c90 -58 140 -168 140 -311c0 -216 -118 -354 -304 -354c-143 0 -234 79 -234 217c0 153 116 270 265 270c133 0 177 -94 177 -94
c-5 86 -40 173 -119 212zM456 265c0 76 -42 129 -132 129c-120 0 -182 -94 -182 -192c0 -73 34 -131 130 -131c133 0 184 109 184 194z" />
    <glyph glyph-name="ntilde" unicode="&#xf1;" horiz-adv-x="608" 
d="M218 525l-12 -67c43 29 130 78 212 78c110 0 149 -72 131 -173l-64 -363h-103l62 352c10 57 1 101 -63 101c-65 0 -149 -49 -190 -80l-66 -373h-104l93 525h104zM251 605l-48 30c34 50 59 83 107 83c53 0 86 -48 120 -48c14 0 28 6 58 46l48 -31
c-34 -49 -59 -82 -107 -82c-52 0 -85 48 -119 48c-14 0 -29 -5 -59 -46z" />
    <glyph glyph-name="ograve" unicode="&#xf2;" horiz-adv-x="611" 
d="M313 536c156 0 247 -87 247 -231c0 -174 -105 -316 -277 -316c-155 0 -246 87 -246 231c0 174 104 316 276 316zM281 71c111 0 174 116 174 234c0 87 -39 149 -140 149c-111 0 -174 -116 -174 -234c0 -88 40 -149 140 -149zM442 596h-80l-146 133h124z" />
    <glyph glyph-name="oacute" unicode="&#xf3;" horiz-adv-x="611" 
d="M313 536c156 0 247 -87 247 -231c0 -174 -105 -316 -277 -316c-155 0 -246 87 -246 231c0 174 104 316 276 316zM281 71c111 0 174 116 174 234c0 87 -39 149 -140 149c-111 0 -174 -116 -174 -234c0 -88 40 -149 140 -149zM362 596h-91l141 133h137z" />
    <glyph glyph-name="ocircumflex" unicode="&#xf4;" horiz-adv-x="611" 
d="M313 536c156 0 247 -87 247 -231c0 -174 -105 -316 -277 -316c-155 0 -246 87 -246 231c0 174 104 316 276 316zM281 71c111 0 174 116 174 234c0 87 -39 149 -140 149c-111 0 -174 -116 -174 -234c0 -88 40 -149 140 -149zM436 729l78 -133h-69l-68 82l-96 -82h-79
l123 133h111z" />
    <glyph glyph-name="otilde" unicode="&#xf5;" horiz-adv-x="611" 
d="M313 536c156 0 247 -87 247 -231c0 -174 -105 -316 -277 -316c-155 0 -246 87 -246 231c0 174 104 316 276 316zM281 71c111 0 174 116 174 234c0 87 -39 149 -140 149c-111 0 -174 -116 -174 -234c0 -88 40 -149 140 -149zM249 604l-50 19c30 48 55 92 108 92
c46 0 88 -41 127 -41c17 0 32 5 54 40l50 -19c-30 -49 -55 -92 -107 -92c-47 0 -89 41 -128 41c-17 0 -31 -6 -54 -40z" />
    <glyph glyph-name="odieresis" unicode="&#xf6;" horiz-adv-x="611" 
d="M313 536c156 0 247 -87 247 -231c0 -174 -105 -316 -277 -316c-155 0 -246 87 -246 231c0 174 104 316 276 316zM281 71c111 0 174 116 174 234c0 87 -39 149 -140 149c-111 0 -174 -116 -174 -234c0 -88 40 -149 140 -149zM225 606l18 104h96l-17 -104h-97zM400 606
l18 104h95l-18 -104h-95z" />
    <glyph glyph-name="divide" unicode="&#xf7;" 
d="M59 293l14 80h501l-13 -80h-502zM283 499c-4 37 30 68 69 68c30 0 56 -22 58 -51c4 -37 -30 -69 -68 -69c-31 0 -56 23 -59 52zM222 151c-3 38 31 69 69 69c32 0 55 -23 58 -52c4 -37 -29 -68 -68 -68c-31 0 -56 23 -59 51z" />
    <glyph glyph-name="oslash" unicode="&#xf8;" horiz-adv-x="612" 
d="M513 525h74l-70 -74c29 -38 44 -87 44 -146c0 -174 -104 -316 -276 -316c-69 0 -124 16 -165 47l-35 -36h-74l71 74c-29 38 -44 87 -44 146c0 174 105 316 277 316c67 0 122 -17 163 -47zM283 71c111 0 174 116 174 234c0 26 -4 50 -12 71l-261 -273
c22 -20 54 -32 99 -32zM143 220c0 -26 3 -50 11 -71l260 273c-22 20 -54 32 -97 32c-111 0 -174 -116 -174 -234z" />
    <glyph glyph-name="ugrave" unicode="&#xf9;" horiz-adv-x="607" 
d="M376 0l12 66c-45 -30 -130 -77 -212 -77c-111 0 -148 72 -131 173l64 363h103l-62 -352c-10 -57 0 -101 63 -101c65 0 151 49 190 79l66 374h103l-93 -525h-103zM438 596h-81l-145 133h123z" />
    <glyph glyph-name="uacute" unicode="&#xfa;" horiz-adv-x="607" 
d="M376 0l12 66c-45 -30 -130 -77 -212 -77c-111 0 -148 72 -131 173l64 363h103l-62 -352c-10 -57 0 -101 63 -101c65 0 151 49 190 79l66 374h103l-93 -525h-103zM358 596h-92l141 133h138z" />
    <glyph glyph-name="ucircumflex" unicode="&#xfb;" horiz-adv-x="607" 
d="M376 0l12 66c-45 -30 -130 -77 -212 -77c-111 0 -148 72 -131 173l64 363h103l-62 -352c-10 -57 0 -101 63 -101c65 0 151 49 190 79l66 374h103l-93 -525h-103zM431 729l79 -133h-69l-69 82l-95 -82h-80l124 133h110z" />
    <glyph glyph-name="udieresis" unicode="&#xfc;" horiz-adv-x="607" 
d="M376 0l12 66c-45 -30 -130 -77 -212 -77c-111 0 -148 72 -131 173l64 363h103l-62 -352c-10 -57 0 -101 63 -101c65 0 151 49 190 79l66 374h103l-93 -525h-103zM220 606l18 104h96l-17 -104h-97zM395 606l19 104h95l-18 -104h-96z" />
    <glyph glyph-name="yacute" unicode="&#xfd;" horiz-adv-x="561" 
d="M-9 -134c98 32 136 50 183 128l-114 531h107l75 -406l220 406h115l-297 -525c-66 -114 -95 -174 -265 -217zM336 596h-91l141 133h138z" />
    <glyph glyph-name="thorn" unicode="&#xfe;" horiz-adv-x="608" 
d="M253 729l-48 -269c43 34 109 76 185 76c85 0 169 -49 169 -189c0 -208 -97 -358 -243 -358c-85 0 -141 45 -180 79l-48 -272h-103l165 933h103zM356 451c-63 0 -117 -39 -167 -80l-39 -220c38 -41 88 -77 145 -77c100 0 158 130 158 262c0 72 -32 115 -97 115z" />
    <glyph glyph-name="ydieresis" unicode="&#xff;" horiz-adv-x="561" 
d="M-9 -134c98 32 136 50 183 128l-114 531h107l75 -406l220 406h115l-297 -525c-66 -114 -95 -174 -265 -217zM198 606l18 104h97l-18 -104h-97zM373 606l19 104h96l-19 -104h-96z" />
    <glyph glyph-name="Amacron" unicode="&#x100;" horiz-adv-x="687" 
d="M504 0l-27 160h-302l-83 -160h-124l389 700h118l142 -700h-113zM403 601l-183 -354h242zM281 772l11 66h295l-11 -66h-295z" />
    <glyph glyph-name="amacron" unicode="&#x101;" horiz-adv-x="611" 
d="M484 0h-103l13 75c-44 -39 -116 -86 -199 -86c-77 0 -157 48 -157 189c0 208 101 358 249 358c80 0 137 -47 175 -81l12 70h103zM230 73c70 0 128 44 180 91l37 210c-36 40 -85 77 -139 77c-103 0 -163 -130 -163 -262c0 -71 29 -116 85 -116zM221 621l11 66h295l-11 -66
h-295z" />
    <glyph glyph-name="Abreve" unicode="&#x102;" horiz-adv-x="687" 
d="M504 0l-27 160h-302l-83 -160h-124l389 700h118l142 -700h-113zM403 601l-183 -354h242zM426 747c-94 0 -141 46 -130 113h69c-5 -35 16 -50 62 -50c49 0 89 15 95 50h70c-11 -69 -71 -113 -166 -113z" />
    <glyph glyph-name="abreve" unicode="&#x103;" horiz-adv-x="611" 
d="M484 0h-103l13 75c-44 -39 -116 -86 -199 -86c-77 0 -157 48 -157 189c0 208 101 358 249 358c80 0 137 -47 175 -81l12 70h103zM230 73c70 0 128 44 180 91l37 210c-36 40 -85 77 -139 77c-103 0 -163 -130 -163 -262c0 -71 29 -116 85 -116zM363 596
c-93 0 -141 46 -130 113h69c-4 -35 16 -50 62 -50c50 0 89 15 95 50h71c-12 -69 -71 -113 -167 -113z" />
    <glyph glyph-name="Aogonek" unicode="&#x104;" horiz-adv-x="687" 
d="M504 0l-27 160h-302l-83 -160h-124l389 700h118l142 -700h-3c-71 -35 -115 -67 -115 -103c0 -32 46 -28 74 -28l-20 -55c-36 0 -130 -4 -130 72c0 49 46 84 115 114h-34zM403 601l-183 -354h242z" />
    <glyph glyph-name="aogonek" unicode="&#x105;" horiz-adv-x="612" 
d="M366 -103c0 -32 45 -28 73 -28l-21 -55c-35 0 -128 -4 -128 72c0 49 46 84 115 114h-25l13 75c-44 -39 -116 -86 -199 -86c-77 0 -156 48 -156 189c0 208 100 358 248 358c81 0 138 -46 175 -80l12 69h104l-93 -525h-3c-72 -35 -115 -67 -115 -103zM229 73
c70 0 128 44 180 91l37 210c-35 40 -84 77 -138 77c-104 0 -164 -130 -164 -262c0 -71 29 -116 85 -116z" />
    <glyph glyph-name="Cacute" unicode="&#x106;" horiz-adv-x="650" 
d="M669 603l-61 -75c-73 53 -130 86 -196 86c-138 0 -242 -146 -242 -335c0 -134 55 -193 134 -193c64 0 149 38 227 85l49 -84c-92 -52 -192 -98 -297 -98c-127 0 -223 83 -223 284c0 273 156 438 341 438c114 0 195 -58 268 -108zM465 747h-91l141 133h138z" />
    <glyph glyph-name="cacute" unicode="&#x107;" horiz-adv-x="520" 
d="M516 460l-51 -71c-27 16 -86 58 -144 58c-95 0 -177 -103 -177 -230c0 -86 36 -139 108 -139c57 0 128 41 161 57l38 -81c-48 -22 -135 -65 -219 -65c-113 0 -195 76 -195 219c0 216 136 328 265 328c96 0 170 -50 214 -76zM341 596h-91l141 133h137z" />
    <glyph glyph-name="Cdotaccent" unicode="&#x10a;" horiz-adv-x="650" 
d="M669 603l-61 -75c-73 53 -130 86 -196 86c-138 0 -242 -146 -242 -335c0 -134 55 -193 134 -193c64 0 149 38 227 85l49 -84c-92 -52 -192 -98 -297 -98c-127 0 -223 83 -223 284c0 273 156 438 341 438c114 0 195 -58 268 -108zM381 757l18 104h97l-18 -104h-97z" />
    <glyph glyph-name="cdotaccent" unicode="&#x10b;" horiz-adv-x="520" 
d="M516 460l-51 -71c-27 16 -86 58 -144 58c-95 0 -177 -103 -177 -230c0 -86 36 -139 108 -139c57 0 128 41 161 57l38 -81c-48 -22 -135 -65 -219 -65c-113 0 -195 76 -195 219c0 216 136 328 265 328c96 0 170 -50 214 -76zM290 606l18 104h97l-18 -104h-97z" />
    <glyph glyph-name="Ccaron" unicode="&#x10c;" horiz-adv-x="650" 
d="M669 603l-61 -75c-73 53 -130 86 -196 86c-138 0 -242 -146 -242 -335c0 -134 55 -193 134 -193c64 0 149 38 227 85l49 -84c-92 -52 -192 -98 -297 -98c-127 0 -223 83 -223 284c0 273 156 438 341 438c114 0 195 -58 268 -108zM380 747l-76 133h68l68 -82l96 82h79
l-123 -133h-112z" />
    <glyph glyph-name="ccaron" unicode="&#x10d;" horiz-adv-x="520" 
d="M516 460l-51 -71c-27 16 -86 58 -144 58c-95 0 -177 -103 -177 -230c0 -86 36 -139 108 -139c57 0 128 41 161 57l38 -81c-48 -22 -135 -65 -219 -65c-113 0 -195 76 -195 219c0 216 136 328 265 328c96 0 170 -50 214 -76zM282 596l-78 133h70l67 -82l97 82h78
l-123 -133h-111z" />
    <glyph glyph-name="Dcaron" unicode="&#x10e;" horiz-adv-x="709" 
d="M669 432c0 -208 -121 -432 -398 -432h-234l123 700h196c205 0 313 -98 313 -268zM560 430c0 130 -82 178 -221 178h-87l-92 -516h96c191 0 304 142 304 338zM394 747l-77 133h69l67 -82l96 82h79l-123 -133h-111z" />
    <glyph glyph-name="dcaron" unicode="&#x10f;" horiz-adv-x="651" 
d="M484 0h-104l13 75c-44 -39 -116 -86 -199 -86c-77 0 -156 48 -156 189c0 208 100 358 248 358c81 0 138 -46 175 -80l48 273h104zM229 73c70 0 128 44 180 91l37 210c-35 40 -84 77 -138 77c-104 0 -164 -130 -164 -262c0 -71 29 -116 85 -116zM651 625l17 104h90
l-9 -111l-97 -108l-21 29l61 86h-41z" />
    <glyph glyph-name="Dcroat" unicode="&#x110;" horiz-adv-x="719" 
d="M678 432c0 -208 -121 -432 -398 -432h-234l54 307h-73l14 86h74l54 307h195c206 0 314 -98 314 -268zM367 307h-160l-38 -215h96c190 0 304 142 304 338c0 130 -83 178 -221 178h-87l-38 -215h159z" />
    <glyph glyph-name="dcroat" unicode="&#x111;" horiz-adv-x="611" 
d="M484 0h-103l13 75c-44 -39 -116 -86 -199 -86c-77 0 -157 48 -157 189c0 208 101 358 249 358c80 0 137 -47 175 -81l23 134h-167l10 66h169l13 74h103l-13 -74h62l-10 -66h-64zM230 73c70 0 128 44 180 91l37 210c-36 40 -85 77 -139 77c-103 0 -163 -130 -163 -262
c0 -71 29 -116 85 -116z" />
    <glyph glyph-name="Emacron" unicode="&#x112;" horiz-adv-x="602" 
d="M499 0h-462l123 700h457l-15 -92h-350l-38 -213h287l-15 -90h-288l-38 -213h355zM257 772l11 66h294l-11 -66h-294z" />
    <glyph glyph-name="emacron" unicode="&#x113;" horiz-adv-x="561" 
d="M525 394c0 -125 -122 -173 -327 -173h-57v-10c0 -89 37 -142 114 -142c68 0 147 42 196 67l36 -73c-43 -22 -146 -74 -248 -74c-121 0 -203 72 -203 227c0 183 116 320 299 320c120 0 190 -60 190 -142zM331 459c-92 0 -158 -79 -181 -175h55c147 0 219 40 219 105
c0 44 -40 70 -93 70zM208 621l12 66h295l-12 -66h-295z" />
    <glyph glyph-name="Edotaccent" unicode="&#x116;" horiz-adv-x="602" 
d="M499 0h-462l123 700h457l-15 -92h-350l-38 -213h287l-15 -90h-288l-38 -213h355zM354 757l18 104h95l-18 -104h-95z" />
    <glyph glyph-name="edotaccent" unicode="&#x117;" horiz-adv-x="561" 
d="M525 394c0 -125 -122 -173 -327 -173h-57v-10c0 -89 37 -142 114 -142c68 0 147 42 196 67l36 -73c-43 -22 -146 -74 -248 -74c-121 0 -203 72 -203 227c0 183 116 320 299 320c120 0 190 -60 190 -142zM331 459c-92 0 -158 -79 -181 -175h55c147 0 219 40 219 105
c0 44 -40 70 -93 70zM304 606l18 104h96l-18 -104h-96z" />
    <glyph glyph-name="Eogonek" unicode="&#x118;" horiz-adv-x="602" 
d="M499 0h-3c-72 -35 -115 -67 -115 -103c0 -32 44 -28 73 -28l-21 -55c-35 0 -127 -4 -127 72c0 49 46 84 114 114h-383l122 700h457l-15 -92h-350l-38 -213h288l-16 -90h-287l-39 -213h355z" />
    <glyph glyph-name="eogonek" unicode="&#x119;" horiz-adv-x="562" 
d="M526 394c0 -125 -122 -173 -326 -173h-58v-10c0 -89 38 -142 115 -142c68 0 146 42 195 67l36 -73c-31 -16 -94 -48 -165 -64c-70 -35 -112 -66 -112 -102c0 -32 45 -28 73 -28l-21 -55c-35 0 -128 -4 -128 72c0 43 36 75 92 103c-114 5 -190 77 -190 227
c0 183 116 320 299 320c120 0 190 -60 190 -142zM332 459c-92 0 -158 -79 -181 -175h55c148 0 219 40 219 105c0 44 -39 70 -93 70z" />
    <glyph glyph-name="Ecaron" unicode="&#x11a;" horiz-adv-x="602" 
d="M345 747l-78 133h69l68 -82l96 82h79l-124 -133h-110zM499 0h-462l123 700h457l-15 -92h-350l-38 -213h287l-15 -90h-288l-38 -213h355z" />
    <glyph glyph-name="ecaron" unicode="&#x11b;" horiz-adv-x="561" 
d="M525 394c0 -125 -122 -173 -327 -173h-57v-10c0 -89 37 -142 114 -142c68 0 147 42 196 67l36 -73c-43 -22 -146 -74 -248 -74c-121 0 -203 72 -203 227c0 183 116 320 299 320c120 0 190 -60 190 -142zM331 459c-92 0 -158 -79 -181 -175h55c147 0 219 40 219 105
c0 44 -40 70 -93 70zM295 596l-76 133h68l68 -82l96 82h79l-124 -133h-111z" />
    <glyph glyph-name="Gbreve" unicode="&#x11e;" horiz-adv-x="706" 
d="M485 0l14 81c-62 -49 -134 -92 -218 -92c-124 0 -221 87 -221 276c0 296 163 446 341 446c117 0 210 -63 281 -115l-63 -74c-53 37 -126 92 -208 92c-137 0 -240 -144 -240 -336c0 -119 42 -197 135 -197c80 0 171 67 210 99l22 121h-181l14 87h284l-68 -388h-102z
M431 747c-93 0 -141 46 -129 113h69c-5 -35 16 -50 61 -50c50 0 89 15 95 50h71c-12 -69 -72 -113 -167 -113z" />
    <glyph glyph-name="gbreve" unicode="&#x11f;" horiz-adv-x="609" 
d="M359 596c-92 0 -141 46 -129 113h69c-5 -35 16 -50 61 -50c50 0 89 15 96 50h70c-11 -69 -71 -113 -167 -113zM472 525h103l-96 -547c-27 -152 -114 -192 -239 -192c-78 0 -172 16 -248 39l33 85c69 -22 142 -39 209 -39c99 0 132 55 141 105l17 98
c-45 -39 -116 -85 -198 -85c-77 0 -156 48 -156 189c0 208 100 358 248 358c80 0 137 -46 174 -80zM229 73c69 0 126 44 179 90l37 212c-35 40 -85 76 -138 76c-103 0 -164 -130 -164 -262c0 -71 30 -116 86 -116z" />
    <glyph glyph-name="Gdotaccent" unicode="&#x120;" horiz-adv-x="706" 
d="M485 0l14 81c-62 -49 -134 -92 -218 -92c-124 0 -221 87 -221 276c0 296 163 446 341 446c117 0 210 -63 281 -115l-63 -74c-53 37 -126 92 -208 92c-137 0 -240 -144 -240 -336c0 -119 42 -197 135 -197c80 0 171 67 210 99l22 121h-181l14 87h284l-68 -388h-102z
M383 757l18 104h97l-18 -104h-97z" />
    <glyph glyph-name="gdotaccent" unicode="&#x121;" horiz-adv-x="609" 
d="M311 606l18 104h96l-18 -104h-96zM472 525h103l-96 -547c-27 -152 -114 -192 -239 -192c-78 0 -172 16 -248 39l33 85c69 -22 142 -39 209 -39c99 0 132 55 141 105l17 98c-45 -39 -116 -85 -198 -85c-77 0 -156 48 -156 189c0 208 100 358 248 358c80 0 137 -46 174 -80
zM229 73c69 0 126 44 179 90l37 212c-35 40 -85 76 -138 76c-103 0 -164 -130 -164 -262c0 -71 30 -116 86 -116z" />
    <glyph glyph-name="Gcommaaccent" unicode="&#x122;" horiz-adv-x="706" 
d="M485 0l14 80c-62 -48 -134 -91 -218 -91c-124 0 -221 87 -221 276c0 296 163 446 341 446c117 0 211 -63 281 -115l-63 -74c-53 37 -125 92 -208 92c-137 0 -239 -144 -239 -336c0 -119 42 -197 134 -197c80 0 172 67 211 98l22 122h-182l15 87h283l-68 -388h-102z
M240 -165l18 104h90l-10 -111l-96 -108l-22 29l62 86h-42z" />
    <glyph glyph-name="gcommaaccent" unicode="&#x123;" horiz-adv-x="609" 
d="M428 711l-18 -105h-88l9 112l95 107l23 -29l-62 -85h41zM472 525h103l-96 -547c-27 -152 -114 -192 -239 -192c-78 0 -172 16 -248 39l33 85c69 -22 142 -39 209 -39c99 0 132 55 141 105l17 98c-45 -39 -116 -85 -198 -85c-77 0 -156 48 -156 189c0 208 100 358 248 358
c80 0 137 -46 174 -80zM229 73c69 0 126 44 179 90l37 212c-35 40 -85 76 -138 76c-103 0 -164 -130 -164 -262c0 -71 30 -116 86 -116z" />
    <glyph glyph-name="Hbar" unicode="&#x126;" horiz-adv-x="730" 
d="M473 0l56 322h-322l-56 -322h-107l91 518h-74l10 66h75l21 116h107l-21 -116h322l21 116h108l-21 -116h75l-11 -66h-75l-91 -518h-108zM242 518l-19 -106h322l19 106h-322z" />
    <glyph glyph-name="hbar" unicode="&#x127;" horiz-adv-x="608" 
d="M63 589l11 66h63l13 74h104l-13 -74h168l-11 -66h-169l-23 -131c44 29 131 78 212 78c110 0 149 -72 131 -173l-64 -363h-103l62 352c10 57 1 101 -63 101c-65 0 -149 -48 -190 -80l-66 -373h-104l104 589h-62z" />
    <glyph glyph-name="Itilde" unicode="&#x128;" horiz-adv-x="286" 
d="M116 756l-48 30c34 50 59 83 107 83c52 0 86 -48 120 -48c13 0 28 6 58 46l48 -31c-34 -49 -59 -82 -107 -82c-52 0 -86 48 -120 48c-13 0 -28 -5 -58 -46zM145 0h-108l123 700h108z" />
    <glyph glyph-name="itilde" unicode="&#x129;" horiz-adv-x="252" 
d="M72 605l-48 30c34 50 59 83 107 83c52 0 86 -48 120 -48c13 0 28 6 58 46l48 -31c-34 -49 -59 -82 -107 -82c-52 0 -86 48 -120 48c-13 0 -28 -5 -58 -46zM125 0h-104l93 525h104z" />
    <glyph glyph-name="Imacron" unicode="&#x12a;" horiz-adv-x="286" 
d="M145 0h-108l123 700h108zM80 772l11 66h295l-11 -66h-295z" />
    <glyph glyph-name="imacron" unicode="&#x12b;" horiz-adv-x="252" 
d="M125 0h-104l93 525h104zM34 621l12 66h295l-12 -66h-295z" />
    <glyph glyph-name="Ibreve" unicode="&#x12c;" horiz-adv-x="286" 
d="M224 747c-93 0 -141 46 -130 113h70c-5 -35 15 -50 61 -50c50 0 89 15 95 50h71c-12 -69 -72 -113 -167 -113zM145 0h-108l123 700h108z" />
    <glyph glyph-name="ibreve" unicode="&#x12d;" horiz-adv-x="252" 
d="M180 596c-93 0 -141 46 -130 113h70c-5 -35 15 -50 61 -50c50 0 89 15 95 50h71c-12 -69 -72 -113 -167 -113zM125 0h-104l93 525h104z" />
    <glyph glyph-name="Iogonek" unicode="&#x12e;" horiz-adv-x="286" 
d="M144 0h-3c-72 -35 -115 -67 -115 -103c0 -32 44 -28 73 -28l-21 -55c-34 0 -128 -4 -128 72c0 49 47 84 115 114h-28l123 700h108z" />
    <glyph glyph-name="iogonek" unicode="&#x12f;" horiz-adv-x="252" 
d="M125 0h-3c-72 -35 -115 -67 -115 -103c0 -32 44 -28 73 -28l-21 -55c-35 0 -128 -4 -128 72c0 49 47 84 115 114h-24l92 525h103zM128 620l17 106h112l-18 -106h-111z" />
    <glyph glyph-name="Idotaccent" unicode="&#x130;" horiz-adv-x="286" 
d="M145 0h-108l123 700h108zM176 757l19 104h96l-18 -104h-97z" />
    <glyph glyph-name="dotlessi" unicode="&#x131;" horiz-adv-x="252" 
d="M124 0h-103l93 525h103z" />
    <glyph glyph-name="IJ" unicode="&#x132;" horiz-adv-x="571" 
d="M555 700l-115 -649c-21 -118 -27 -162 -222 -208l-24 86c119 34 126 51 138 117l116 654h107zM144 0h-107l123 700h107z" />
    <glyph glyph-name="ij" unicode="&#x133;" horiz-adv-x="504" 
d="M383 620l18 106h112l-18 -106h-112zM473 525l-95 -534c-21 -118 -28 -162 -220 -208l-24 81c123 36 128 53 140 120l96 541h103zM124 0h-103l93 525h103zM127 620l18 106h111l-17 -106h-112z" />
    <glyph glyph-name="Jcircumflex" unicode="&#x134;" horiz-adv-x="286" 
d="M267 700l-115 -649c-21 -118 -27 -162 -222 -208l-25 86c120 34 128 51 139 117l116 654h107zM301 880l77 -133h-69l-68 82l-95 -82h-79l122 133h112z" />
    <glyph glyph-name="jcircumflex" unicode="&#x135;" horiz-adv-x="252" 
d="M218 525l-96 -534c-21 -118 -27 -162 -221 -208l-23 81c123 36 128 53 140 120l97 541h103zM256 729l78 -133h-69l-68 82l-95 -82h-80l124 133h110z" />
    <glyph glyph-name="Kcommaaccent" unicode="&#x136;" horiz-adv-x="664" 
d="M37 0l123 700h107l-64 -363l362 363h138l-341 -336l242 -364h-120l-193 294l-115 -113l-32 -181h-107zM205 -165l18 104h89l-9 -111l-96 -108l-22 29l60 86h-40z" />
    <glyph glyph-name="kcommaaccent" unicode="&#x137;" horiz-adv-x="535" 
d="M537 525l-217 -214l155 -311h-105l-121 241l-100 -98l-25 -143h-103l129 729h103l-80 -450l238 246h126zM150 -165l18 104h90l-10 -111l-96 -108l-22 29l62 86h-42z" />
    <glyph glyph-name="kgreenlandic" unicode="&#x138;" horiz-adv-x="535" 
d="M537 525l-217 -214l155 -311h-105l-121 241l-100 -98l-25 -143h-103l93 525h103l-44 -246l238 246h126z" />
    <glyph glyph-name="Lacute" unicode="&#x139;" horiz-adv-x="552" 
d="M227 747h-91l141 133h138zM483 0h-446l123 700h108l-109 -609h338z" />
    <glyph glyph-name="lacute" unicode="&#x13a;" horiz-adv-x="260" 
d="M217 776h-91l141 133h138zM128 0h-103l129 729h103z" />
    <glyph glyph-name="Lcommaaccent" unicode="&#x13b;" horiz-adv-x="552" 
d="M183 -165l18 104h89l-9 -111l-96 -108l-22 29l61 86h-41zM482 0h-445l123 700h107l-108 -609h338z" />
    <glyph glyph-name="lcommaaccent" unicode="&#x13c;" horiz-adv-x="260" 
d="M3 -165l18 104h90l-10 -111l-96 -108l-22 29l61 86h-41zM128 0h-103l128 729h103z" />
    <glyph glyph-name="Lcaron" unicode="&#x13d;" horiz-adv-x="552" 
d="M306 596l18 104h90l-10 -111l-96 -108l-22 29l62 86h-42zM482 0h-445l123 700h107l-108 -609h338z" />
    <glyph glyph-name="lcaron" unicode="&#x13e;" horiz-adv-x="295" 
d="M296 625l17 104h90l-9 -111l-97 -108l-21 29l62 86h-42zM128 0h-103l129 729h103z" />
    <glyph glyph-name="Ldot" unicode="&#x13f;" horiz-adv-x="554" 
d="M482 0h-445l123 700h107l-108 -609h338zM385 313l17 103h97l-17 -103h-97z" />
    <glyph glyph-name="ldot" unicode="&#x140;" horiz-adv-x="317" 
d="M128 0h-103l129 729h103zM239 313l17 103h97l-18 -103h-96z" />
    <glyph glyph-name="Lslash" unicode="&#x141;" horiz-adv-x="568" 
d="M495 0h-446l45 258l-77 -39l17 99l78 40l60 342h108l-51 -282l148 75l-17 -100l-149 -75l-40 -227h339z" />
    <glyph glyph-name="lslash" unicode="&#x142;" horiz-adv-x="287" 
d="M143 0h-104l50 285l-70 -36l16 99l72 37l61 344h103l-51 -286l72 37l-16 -100l-73 -37z" />
    <glyph glyph-name="Nacute" unicode="&#x143;" horiz-adv-x="731" 
d="M480 0l-239 550l-96 -550h-108l123 700h110l239 -550l97 550h107l-123 -700h-110zM455 747h-91l141 133h138z" />
    <glyph glyph-name="nacute" unicode="&#x144;" horiz-adv-x="608" 
d="M218 525l-12 -67c43 29 130 78 212 78c110 0 149 -72 131 -173l-64 -363h-103l62 352c10 57 1 101 -63 101c-65 0 -149 -49 -190 -80l-66 -373h-104l93 525h104zM363 596h-92l142 133h137z" />
    <glyph glyph-name="Ncommaaccent" unicode="&#x145;" horiz-adv-x="731" 
d="M480 0l-239 551l-97 -551h-107l123 700h110l238 -549l97 549h108l-123 -700h-110zM246 -165l17 104h90l-9 -111l-97 -108l-22 29l62 86h-41z" />
    <glyph glyph-name="ncommaaccent" unicode="&#x146;" horiz-adv-x="608" 
d="M217 525l-12 -68c44 30 131 79 212 79c111 0 150 -72 131 -173l-63 -363h-104l63 352c10 57 0 101 -63 101c-66 0 -152 -50 -191 -81l-66 -372h-103l93 525h103zM180 -165l18 104h89l-10 -111l-96 -108l-22 29l62 86h-41z" />
    <glyph glyph-name="Ncaron" unicode="&#x147;" horiz-adv-x="731" 
d="M270 700l239 -550l97 550h107l-123 -700h-110l-239 550l-96 -550h-108l123 700h110zM396 747l-78 133h70l68 -82l95 82h79l-123 -133h-111z" />
    <glyph glyph-name="ncaron" unicode="&#x148;" horiz-adv-x="608" 
d="M218 525l-12 -67c43 29 130 78 212 78c110 0 149 -72 131 -173l-64 -363h-103l62 352c10 57 1 101 -63 101c-65 0 -149 -49 -190 -80l-66 -373h-104l93 525h104zM302 596l-79 133h69l69 -82l95 82h80l-124 -133h-110z" />
    <glyph glyph-name="napostrophe" unicode="&#x149;" horiz-adv-x="608" 
d="M218 525l-12 -67c43 29 130 78 212 78c110 0 149 -72 131 -173l-64 -363h-103l62 352c10 57 1 101 -63 101c-65 0 -149 -49 -190 -80l-66 -373h-104l93 525h104zM143 686l18 104h90l-10 -112l-96 -107l-23 29l63 86h-42z" />
    <glyph glyph-name="Eng" unicode="&#x14a;" horiz-adv-x="731" 
d="M713 700l-117 -663c-20 -109 -34 -150 -220 -194l-25 86c79 23 113 36 127 74l-237 548l-97 -551h-107l123 700h110l238 -549l97 549h108z" />
    <glyph glyph-name="eng" unicode="&#x14b;" horiz-adv-x="607" 
d="M482 -9c-20 -118 -27 -162 -220 -208l-23 81c122 36 128 53 139 120l66 368c10 57 0 101 -63 101c-66 0 -152 -50 -191 -81l-66 -372h-103l93 525h103l-12 -68c44 30 131 79 212 79c111 0 150 -72 131 -174z" />
    <glyph glyph-name="Omacron" unicode="&#x14c;" horiz-adv-x="754" 
d="M412 711c209 0 300 -124 301 -300c0 -162 -92 -422 -353 -422c-210 0 -300 123 -300 299c-1 163 91 423 352 423zM357 81c175 0 245 204 245 329c0 103 -35 208 -186 208c-176 0 -246 -204 -246 -329c0 -103 35 -208 187 -208zM313 772l11 66h295l-12 -66h-294z" />
    <glyph glyph-name="omacron" unicode="&#x14d;" horiz-adv-x="611" 
d="M313 536c156 0 247 -87 247 -231c0 -174 -105 -316 -277 -316c-155 0 -246 87 -246 231c0 174 104 316 276 316zM281 71c111 0 174 116 174 234c0 87 -39 149 -140 149c-111 0 -174 -116 -174 -234c0 -88 40 -149 140 -149zM214 621l11 65h295l-11 -65h-295z" />
    <glyph glyph-name="Obreve" unicode="&#x14e;" horiz-adv-x="754" 
d="M412 711c209 0 300 -124 301 -300c0 -162 -92 -422 -353 -422c-210 0 -300 123 -300 299c-1 163 91 423 352 423zM357 81c175 0 245 204 245 329c0 103 -35 208 -186 208c-176 0 -246 -204 -246 -329c0 -103 35 -208 187 -208zM458 747c-93 0 -141 46 -130 113h70
c-5 -35 15 -50 61 -50c49 0 89 15 95 50h71c-12 -69 -72 -113 -167 -113z" />
    <glyph glyph-name="obreve" unicode="&#x14f;" horiz-adv-x="611" 
d="M313 536c156 0 247 -87 247 -231c0 -174 -105 -316 -277 -316c-155 0 -246 87 -246 231c0 174 104 316 276 316zM281 71c111 0 174 116 174 234c0 87 -39 149 -140 149c-111 0 -174 -116 -174 -234c0 -88 40 -149 140 -149zM360 596c-93 0 -141 46 -130 113h69
c-5 -35 16 -50 62 -50c49 0 88 15 95 50h70c-12 -69 -71 -113 -166 -113z" />
    <glyph glyph-name="Ohungarumlaut" unicode="&#x150;" horiz-adv-x="754" 
d="M412 711c209 0 300 -124 301 -300c0 -162 -92 -422 -353 -422c-210 0 -300 123 -300 299c-1 163 91 423 352 423zM357 81c175 0 245 204 245 329c0 103 -35 208 -186 208c-176 0 -246 -204 -246 -329c0 -103 35 -208 187 -208zM552 747h-66l98 133h111zM393 747h-65
l98 133h111z" />
    <glyph glyph-name="ohungarumlaut" unicode="&#x151;" horiz-adv-x="611" 
d="M313 536c156 0 247 -87 247 -231c0 -174 -105 -316 -277 -316c-155 0 -246 87 -246 231c0 174 104 316 276 316zM281 71c111 0 174 116 174 234c0 87 -39 149 -140 149c-111 0 -174 -116 -174 -234c0 -88 40 -149 140 -149zM452 596h-65l97 133h112zM294 596h-65l96 133
h113z" />
    <glyph glyph-name="OE" unicode="&#x152;" horiz-adv-x="1107" 
d="M1004 0h-462l8 49c-50 -37 -112 -60 -190 -60c-210 0 -300 123 -300 299c-1 163 91 423 352 423c112 0 189 -36 238 -96l15 85h456l-15 -92h-349l-39 -213h288l-15 -90h-288l-39 -213h355zM357 81c175 0 245 204 245 329c0 103 -35 208 -186 208
c-176 0 -246 -204 -246 -329c0 -103 35 -208 187 -208z" />
    <glyph glyph-name="oe" unicode="&#x153;" horiz-adv-x="976" 
d="M940 394c0 -125 -121 -173 -325 -173h-59v-10c0 -89 38 -142 115 -142c67 0 146 42 195 67l36 -73c-43 -22 -145 -74 -247 -74c-77 0 -138 29 -173 89c-47 -55 -115 -89 -199 -89c-155 0 -246 87 -246 231c0 174 104 316 276 316c100 0 172 -36 212 -99
c53 61 130 99 226 99c120 0 189 -60 189 -142zM281 71c111 0 174 116 174 234c0 87 -39 149 -140 149c-111 0 -174 -116 -174 -234c0 -88 40 -149 140 -149zM747 459c-93 0 -159 -79 -182 -175h57c146 0 217 40 217 105c0 44 -38 70 -92 70z" />
    <glyph glyph-name="Racute" unicode="&#x154;" horiz-adv-x="689" 
d="M476 0l-126 288h-154l-51 -288h-108l123 700h274c149 0 245 -55 245 -181c0 -119 -87 -211 -227 -228l135 -291h-111zM567 516c0 73 -60 97 -141 97h-173l-43 -238h173c112 0 184 49 184 141zM448 747h-92l142 133h138z" />
    <glyph glyph-name="racute" unicode="&#x155;" horiz-adv-x="396" 
d="M218 525l-21 -111c13 21 83 127 218 117l-17 -98c-169 0 -226 -173 -226 -173l-47 -260h-104l93 525h104zM281 596h-91l141 133h138z" />
    <glyph glyph-name="Rcommaaccent" unicode="&#x156;" horiz-adv-x="689" 
d="M476 0l-127 288h-154l-51 -288h-107l123 700h273c150 0 245 -55 245 -181c0 -119 -87 -211 -226 -228l135 -291h-111zM566 516c0 73 -60 97 -140 97h-173l-44 -238h173c112 0 184 49 184 141zM217 -165l17 104h90l-9 -111l-97 -108l-21 29l61 86h-41z" />
    <glyph glyph-name="rcommaaccent" unicode="&#x157;" horiz-adv-x="396" 
d="M218 525l-20 -111c12 21 82 127 217 117l-16 -98c-171 0 -227 -173 -227 -173l-47 -260h-103l93 525h103zM0 -165l18 104h89l-10 -111l-96 -108l-22 29l62 86h-41z" />
    <glyph glyph-name="Rcaron" unicode="&#x158;" horiz-adv-x="689" 
d="M476 0l-126 288h-154l-51 -288h-108l123 700h274c149 0 245 -55 245 -181c0 -119 -87 -211 -227 -228l135 -291h-111zM567 516c0 73 -60 97 -141 97h-173l-43 -238h173c112 0 184 49 184 141zM389 747l-77 133h68l69 -82l95 82h79l-123 -133h-111z" />
    <glyph glyph-name="rcaron" unicode="&#x159;" horiz-adv-x="396" 
d="M218 525l-21 -111c13 21 83 127 218 117l-17 -98c-169 0 -226 -173 -226 -173l-47 -260h-104l93 525h104zM222 596l-77 133h68l68 -82l96 82h79l-123 -133h-111z" />
    <glyph glyph-name="Sacute" unicode="&#x15a;" 
d="M392 747h-90l141 133h138zM381 396c90 -37 179 -82 179 -196c0 -130 -116 -211 -263 -211c-118 0 -228 52 -293 95l59 75c58 -35 149 -79 232 -79s152 41 152 108c0 74 -91 95 -187 134c-88 37 -166 79 -166 186c0 121 103 203 251 203c104 0 201 -41 268 -79l-58 -73
c-56 32 -144 61 -207 61c-73 0 -139 -35 -139 -103c0 -67 69 -78 172 -121z" />
    <glyph glyph-name="sacute" unicode="&#x15b;" horiz-adv-x="519" 
d="M318 596h-92l141 133h139zM290 306c95 -30 164 -67 164 -155c0 -102 -93 -162 -214 -162c-100 0 -190 41 -242 74l52 70c50 -29 127 -62 191 -62c57 0 107 26 107 72c0 51 -60 63 -131 85c-70 22 -154 54 -154 150s85 158 203 158c87 0 174 -34 221 -61l-50 -68
c-45 23 -111 48 -168 48s-101 -25 -101 -68c0 -50 60 -61 122 -81z" />
    <glyph glyph-name="Scircumflex" unicode="&#x15c;" 
d="M468 880l77 -133h-69l-67 82l-96 -82h-80l124 133h111zM381 396c90 -37 179 -82 179 -196c0 -130 -116 -211 -263 -211c-118 0 -228 52 -293 95l59 75c58 -35 149 -79 232 -79s152 41 152 108c0 74 -91 95 -187 134c-88 37 -166 79 -166 186c0 121 103 203 251 203
c104 0 201 -41 268 -79l-58 -73c-56 32 -144 61 -207 61c-73 0 -139 -35 -139 -103c0 -67 69 -78 172 -121z" />
    <glyph glyph-name="scircumflex" unicode="&#x15d;" horiz-adv-x="519" 
d="M393 729l78 -133h-69l-69 82l-95 -82h-80l125 133h110zM290 306c95 -30 164 -67 164 -155c0 -102 -93 -162 -214 -162c-100 0 -190 41 -242 74l52 70c50 -29 127 -62 191 -62c57 0 107 26 107 72c0 51 -60 63 -131 85c-70 22 -154 54 -154 150s85 158 203 158
c87 0 174 -34 221 -61l-50 -68c-45 23 -111 48 -168 48s-101 -25 -101 -68c0 -50 60 -61 122 -81z" />
    <glyph glyph-name="Scedilla" unicode="&#x15e;" 
d="M382 396c90 -37 178 -82 178 -196c0 -126 -107 -205 -247 -211c8 -14 19 -37 19 -66c0 -63 -47 -98 -116 -98c-28 0 -59 6 -84 19l32 56c20 -10 37 -12 51 -12c29 0 59 13 59 52c0 19 -7 39 -12 51c-104 9 -200 54 -257 93l58 75c59 -35 150 -79 232 -79
c84 0 152 41 152 108c0 74 -90 95 -186 134c-88 37 -166 79 -166 186c0 121 103 203 250 203c104 0 202 -41 269 -79l-58 -73c-57 32 -144 61 -208 61c-72 0 -138 -35 -138 -103c0 -67 69 -78 172 -121z" />
    <glyph glyph-name="scedilla" unicode="&#x15f;" horiz-adv-x="519" 
d="M290 306c95 -30 164 -67 164 -155c0 -95 -81 -153 -190 -161c8 -14 19 -38 19 -67c0 -63 -47 -98 -115 -98c-27 0 -60 6 -85 19l32 56c20 -10 39 -12 52 -12c28 0 57 13 57 52c0 19 -6 38 -11 50c-89 7 -168 43 -215 73l52 70c50 -29 127 -62 191 -62c57 0 107 26 107 72
c0 51 -60 63 -131 85c-70 22 -154 54 -154 150s85 158 203 158c87 0 174 -34 221 -61l-50 -68c-45 23 -111 48 -168 48s-101 -25 -101 -68c0 -50 60 -61 122 -81z" />
    <glyph glyph-name="Scaron" unicode="&#x160;" 
d="M334 747l-77 133h69l68 -82l95 82h80l-124 -133h-111zM381 396c90 -37 179 -82 179 -196c0 -130 -116 -211 -263 -211c-118 0 -228 52 -293 95l59 75c58 -35 149 -79 232 -79s152 41 152 108c0 74 -91 95 -187 134c-88 37 -166 79 -166 186c0 121 103 203 251 203
c104 0 201 -41 268 -79l-58 -73c-56 32 -144 61 -207 61c-73 0 -139 -35 -139 -103c0 -67 69 -78 172 -121z" />
    <glyph glyph-name="scaron" unicode="&#x161;" horiz-adv-x="519" 
d="M259 596l-78 133h69l69 -82l95 82h79l-124 -133h-110zM290 306c95 -30 164 -67 164 -155c0 -102 -93 -162 -214 -162c-100 0 -190 41 -242 74l52 70c50 -29 127 -62 191 -62c57 0 107 26 107 72c0 51 -60 63 -131 85c-70 22 -154 54 -154 150s85 158 203 158
c87 0 174 -34 221 -61l-50 -68c-45 23 -111 48 -168 48s-101 -25 -101 -68c0 -50 60 -61 122 -81z" />
    <glyph glyph-name="Tcedilla" unicode="&#x162;" horiz-adv-x="575" 
d="M610 608h-214l-108 -608h-30c5 -7 25 -38 25 -77c0 -63 -47 -98 -115 -98c-27 0 -59 6 -84 19l32 56c20 -10 39 -12 51 -12c28 0 58 13 58 52c0 26 -12 53 -15 60h-29l108 608h-214l15 92h535z" />
    <glyph glyph-name="tcedilla" unicode="&#x163;" horiz-adv-x="388" 
d="M55 447l12 78h72l24 132l106 20l-27 -152h143l-13 -78h-144l-56 -314c-7 -43 12 -54 36 -54c28 0 77 18 97 26l27 -81c-25 -10 -86 -29 -134 -34c7 -14 18 -38 18 -67c0 -63 -47 -98 -115 -98c-27 0 -60 6 -84 19l32 56c19 -10 39 -12 50 -12c29 0 59 13 59 52
c0 20 -7 40 -12 52c-57 12 -91 59 -74 153l53 302h-70z" />
    <glyph glyph-name="Tcaron" unicode="&#x164;" horiz-adv-x="575" 
d="M311 747l-77 133h69l67 -82l96 82h79l-123 -133h-111zM610 608h-214l-108 -608h-107l108 608h-214l15 92h535z" />
    <glyph glyph-name="tcaron" unicode="&#x165;" horiz-adv-x="387" 
d="M54 447l13 78h71l24 132l106 20l-27 -152h143l-13 -78h-144l-56 -314c-7 -43 11 -54 37 -54c27 0 76 18 97 26l26 -81c-28 -11 -102 -35 -152 -35c-76 0 -128 45 -108 156l53 302h-70zM332 686l17 104h90l-9 -112l-97 -107l-22 29l63 86h-42z" />
    <glyph glyph-name="Tbar" unicode="&#x166;" horiz-adv-x="585" 
d="M121 224l10 65h105l56 319h-213l15 92h535l-15 -92h-214l-57 -319h103l-11 -65h-103l-40 -224h-107l39 224h-103z" />
    <glyph glyph-name="tbar" unicode="&#x167;" horiz-adv-x="388" 
d="M55 447l13 78h71l24 132l106 20l-27 -152h144l-13 -78h-145l-19 -111h112l-11 -65h-113l-24 -138c-8 -43 11 -54 36 -54c27 0 77 18 97 26l26 -81c-27 -11 -102 -35 -151 -35c-77 0 -129 45 -109 156l22 126h-50l11 65h51l19 111h-70z" />
    <glyph glyph-name="Utilde" unicode="&#x168;" horiz-adv-x="705" 
d="M324 756l-47 30c33 50 59 83 106 83c53 0 86 -48 120 -48c14 0 29 6 59 46l47 -31c-33 -49 -59 -82 -106 -82c-53 0 -86 48 -120 48c-14 0 -29 -5 -59 -46zM692 700l-78 -447c-26 -145 -101 -264 -307 -264c-219 0 -258 124 -230 287l75 424h108l-79 -441
c-17 -99 -4 -177 127 -177s181 78 199 177l78 441h107z" />
    <glyph glyph-name="utilde" unicode="&#x169;" horiz-adv-x="607" 
d="M376 0l12 66c-45 -30 -130 -77 -212 -77c-111 0 -148 72 -131 173l64 363h103l-62 -352c-10 -57 0 -101 63 -101c65 0 151 49 190 79l66 374h103l-93 -525h-103zM251 605l-48 30c34 50 59 83 107 83c52 0 86 -48 120 -48c13 0 28 6 58 46l48 -31
c-34 -49 -59 -82 -107 -82c-53 0 -86 48 -120 48c-13 0 -28 -5 -58 -46z" />
    <glyph glyph-name="Umacron" unicode="&#x16a;" horiz-adv-x="705" 
d="M692 700l-78 -447c-26 -145 -101 -264 -307 -264c-219 0 -258 124 -230 287l75 424h108l-79 -441c-17 -99 -4 -177 127 -177s181 78 199 177l78 441h107zM288 772l11 66h295l-11 -66h-295z" />
    <glyph glyph-name="umacron" unicode="&#x16b;" horiz-adv-x="607" 
d="M376 0l12 66c-45 -30 -130 -77 -212 -77c-111 0 -148 72 -131 173l64 363h103l-62 -352c-10 -57 0 -101 63 -101c65 0 151 49 190 79l66 374h103l-93 -525h-103zM210 621l11 66h294l-11 -66h-294z" />
    <glyph glyph-name="Ubreve" unicode="&#x16c;" horiz-adv-x="705" 
d="M433 747c-93 0 -141 46 -130 113h69c-5 -35 16 -50 62 -50c50 0 89 15 95 50h70c-11 -69 -71 -113 -166 -113zM692 700l-78 -447c-26 -145 -101 -264 -307 -264c-219 0 -258 124 -230 287l75 424h108l-79 -441c-17 -99 -4 -177 127 -177s181 78 199 177l78 441h107z" />
    <glyph glyph-name="ubreve" unicode="&#x16d;" horiz-adv-x="607" 
d="M376 0l12 66c-45 -30 -130 -77 -212 -77c-111 0 -148 72 -131 173l64 363h103l-62 -352c-10 -57 0 -101 63 -101c65 0 151 49 190 79l66 374h103l-93 -525h-103zM355 596c-93 0 -142 46 -130 112h69c-5 -34 16 -50 62 -50c49 0 88 16 95 50h71
c-13 -69 -72 -112 -167 -112z" />
    <glyph glyph-name="Uring" unicode="&#x16e;" horiz-adv-x="705" 
d="M342 844c0 59 48 107 107 107s107 -48 107 -107s-48 -107 -107 -107s-107 48 -107 107zM397 844c0 -29 23 -52 52 -52s52 23 52 52s-23 52 -52 52s-52 -23 -52 -52zM692 700l-78 -447c-26 -145 -101 -264 -307 -264c-219 0 -258 124 -230 287l75 424h108l-79 -441
c-17 -99 -4 -177 127 -177s181 78 199 177l78 441h107z" />
    <glyph glyph-name="uring" unicode="&#x16f;" horiz-adv-x="607" 
d="M376 0l12 66c-45 -30 -130 -77 -212 -77c-111 0 -148 72 -131 173l64 363h103l-62 -352c-10 -57 0 -101 63 -101c65 0 151 49 190 79l66 374h103l-93 -525h-103zM264 693c0 59 47 107 106 107c60 0 107 -48 107 -107s-47 -107 -107 -107c-59 0 -106 48 -106 107zM319 693
c0 -29 22 -52 51 -52c30 0 53 23 53 52s-23 52 -53 52c-29 0 -51 -23 -51 -52z" />
    <glyph glyph-name="Uhungarumlaut" unicode="&#x170;" horiz-adv-x="705" 
d="M692 700l-78 -447c-26 -145 -101 -264 -307 -264c-219 0 -258 124 -230 287l75 424h108l-79 -441c-17 -99 -4 -177 127 -177s181 78 199 177l78 441h107zM527 747h-66l97 133h113zM368 747h-65l97 133h113z" />
    <glyph glyph-name="uhungarumlaut" unicode="&#x171;" horiz-adv-x="607" 
d="M376 0l12 66c-45 -30 -130 -77 -212 -77c-111 0 -148 72 -131 173l64 363h103l-62 -352c-10 -57 0 -101 63 -101c65 0 151 49 190 79l66 374h103l-93 -525h-103zM447 596h-65l98 133h112zM289 596h-65l98 133h111z" />
    <glyph glyph-name="Uogonek" unicode="&#x172;" horiz-adv-x="705" 
d="M282 -103c0 -32 46 -28 74 -28l-20 -55c-35 0 -129 -4 -129 72c0 43 35 76 91 103c-212 3 -249 126 -221 287l74 424h109l-79 -441c-18 -99 -5 -177 126 -177c132 0 182 78 199 177l79 441h107l-79 -447c-22 -124 -79 -228 -224 -256c-66 -34 -107 -65 -107 -100z" />
    <glyph glyph-name="uogonek" unicode="&#x173;" horiz-adv-x="607" 
d="M377 0l12 66c-44 -30 -131 -77 -212 -77c-111 0 -149 72 -131 173l64 363h103l-63 -352c-10 -57 0 -101 64 -101c65 0 151 49 190 79l66 374h103l-93 -525h-3c-71 -35 -115 -67 -115 -103c0 -32 44 -28 73 -28l-20 -55c-35 0 -128 -4 -128 72c0 49 47 84 115 114h-25z
" />
    <glyph glyph-name="Wcircumflex" unicode="&#x174;" horiz-adv-x="943" 
d="M559 0l-44 550l-240 -550h-110l-69 700h118l34 -557l243 557h96l42 -558l229 558h127l-316 -700h-110zM628 880l77 -133h-69l-68 82l-96 -82h-79l124 133h111z" />
    <glyph glyph-name="wcircumflex" unicode="&#x175;" horiz-adv-x="814" 
d="M473 0l-47 399l-191 -399h-100l-70 525h107l35 -416l193 416h91l42 -415l181 415h113l-254 -525h-100zM538 729l78 -133h-70l-67 82l-96 -82h-79l123 133h111z" />
    <glyph glyph-name="ycircumflex" unicode="&#x177;" horiz-adv-x="560" 
d="M59 525h107l75 -401l221 401h114l-417 -729h-118l130 212zM409 729l78 -133h-69l-68 82l-95 -82h-80l123 133h111z" />
    <glyph glyph-name="Ydieresis" unicode="&#x178;" horiz-adv-x="638" 
d="M210 0l49 279l-178 421h113l127 -337l245 337h127l-327 -424l-48 -276h-108zM436 757l18 104h96l-18 -104h-96zM262 757l17 104h96l-18 -104h-95z" />
    <glyph glyph-name="Zacute" unicode="&#x179;" horiz-adv-x="620" 
d="M640 700l-13 -84l-485 -524h396l-16 -92h-538l14 84l483 524h-367l15 92h511zM397 747h-91l141 133h139z" />
    <glyph glyph-name="zacute" unicode="&#x17a;" horiz-adv-x="521" 
d="M-14 0l13 76l366 363h-291l15 86h430l-12 -76l-366 -363h300l-15 -86h-440zM316 596h-91l140 133h139z" />
    <glyph glyph-name="Zdotaccent" unicode="&#x17b;" horiz-adv-x="620" 
d="M640 700l-13 -84l-485 -524h396l-16 -92h-538l14 84l483 524h-367l15 92h511zM347 757l18 104h96l-17 -104h-97z" />
    <glyph glyph-name="zdotaccent" unicode="&#x17c;" horiz-adv-x="521" 
d="M-14 0l13 76l366 363h-291l15 86h430l-12 -76l-366 -363h300l-15 -86h-440zM265 606l18 104h96l-18 -104h-96z" />
    <glyph glyph-name="Zcaron" unicode="&#x17d;" horiz-adv-x="620" 
d="M640 700l-13 -84l-485 -524h396l-16 -92h-538l14 84l483 524h-367l15 92h511zM338 747l-78 133h69l68 -82l95 82h80l-123 -133h-111z" />
    <glyph glyph-name="zcaron" unicode="&#x17e;" horiz-adv-x="521" 
d="M-14 0l13 76l366 363h-291l15 86h430l-12 -76l-366 -363h300l-15 -86h-440zM257 596l-77 133h68l69 -82l96 82h79l-125 -133h-110z" />
    <glyph glyph-name="longs" unicode="&#x17f;" horiz-adv-x="299" 
d="M57 447l13 78h71l11 58c16 101 53 146 141 146c61 0 137 -28 168 -42l-47 -69c-20 7 -76 22 -103 22c-32 0 -49 -20 -56 -56l-98 -554c-27 -155 -35 -199 -228 -245l-23 80c123 37 128 55 146 158l75 424h-70z" />
    <glyph glyph-name="florin" unicode="&#x192;" horiz-adv-x="559" 
d="M145 447l30 78h73l25 60c43 104 83 144 167 144c64 0 141 -33 170 -46l-61 -68c-22 8 -75 25 -104 23c-26 -1 -50 -15 -66 -54l-25 -59h140l-31 -78h-141l-269 -651h-105l268 651h-71z" />
    <glyph glyph-name="AEacute" unicode="&#x1fc;" horiz-adv-x="1016" 
d="M530 700h499l-15 -92h-349l-39 -213h288l-16 -90h-287l-40 -213h356l-15 -92h-462l28 160h-275l-132 -160h-139zM277 249h216l58 331zM632 747h-92l141 133h139z" />
    <glyph glyph-name="aeacute" unicode="&#x1fd;" horiz-adv-x="935" 
d="M485 0h-103l13 76c-44 -39 -117 -87 -200 -87c-77 0 -157 48 -157 189c0 208 101 358 249 358c80 0 137 -47 175 -81l12 70h103l-3 -18c39 19 84 29 135 29c119 0 190 -60 190 -142c0 -125 -122 -173 -327 -173h-57v-10c0 -89 37 -142 114 -142c68 0 147 42 195 67
l37 -73c-43 -22 -145 -74 -248 -74c-49 0 -91 11 -124 35zM230 73c70 0 128 45 181 92l1 8c-1 14 -2 28 -2 43c0 59 12 114 35 161c-36 39 -84 74 -137 74c-103 0 -163 -130 -163 -262c0 -71 29 -116 85 -116zM705 459c-92 0 -158 -79 -181 -175h55c148 0 219 40 219 105
c0 44 -39 70 -93 70zM532 596h-91l140 133h139z" />
    <glyph glyph-name="Oslashacute" unicode="&#x1fe;" horiz-adv-x="753" 
d="M751 700l-91 -99c35 -50 51 -115 52 -190c1 -162 -92 -422 -353 -422c-90 0 -158 23 -206 63l-48 -52h-85l90 98c-34 50 -51 115 -51 190c0 163 91 423 353 423c90 0 158 -23 206 -64l49 53h84zM356 81c175 0 245 204 245 329c0 37 -5 75 -18 108l-361 -391
c29 -28 71 -46 134 -46zM170 289c0 -37 4 -75 17 -108l361 391c-28 28 -71 46 -133 46c-176 0 -245 -204 -245 -329zM460 747h-91l140 133h139z" />
    <glyph glyph-name="oslashacute" unicode="&#x1ff;" horiz-adv-x="612" 
d="M512 525h74l-70 -73c29 -38 45 -88 45 -147c0 -174 -105 -316 -277 -316c-68 0 -124 17 -165 48l-35 -37h-74l71 74c-28 38 -43 87 -43 146c0 174 104 316 276 316c67 0 123 -17 164 -47zM282 71c111 0 174 116 174 234c0 26 -4 51 -12 72l-261 -273
c22 -21 55 -33 99 -33zM142 220c0 -26 4 -50 11 -71l261 273c-23 20 -55 32 -98 32c-111 0 -174 -116 -174 -234zM545 729l-187 -133h-91l141 133h137z" />
    <glyph glyph-name="Scommaaccent" unicode="&#x218;" 
d="M185 -165l18 104h90l-9 -111l-97 -108l-22 29l62 86h-42zM381 396c90 -37 178 -82 178 -196c0 -130 -115 -211 -262 -211c-118 0 -229 52 -293 95l58 75c59 -35 150 -79 232 -79c84 0 152 41 152 108c0 74 -90 95 -186 134c-88 37 -166 79 -166 186
c0 121 103 203 250 203c104 0 202 -41 269 -79l-58 -73c-57 32 -144 61 -208 61c-72 0 -138 -35 -138 -103c0 -67 69 -78 172 -121z" />
    <glyph glyph-name="scommaaccent" unicode="&#x219;" horiz-adv-x="519" 
d="M133 -165l18 104h88l-8 -111l-96 -108l-22 29l60 86h-40zM290 306c95 -30 164 -67 164 -155c0 -102 -93 -162 -214 -162c-100 0 -190 41 -242 74l52 70c50 -29 127 -62 191 -62c57 0 107 26 107 72c0 51 -60 63 -131 85c-70 22 -154 54 -154 150s85 158 203 158
c87 0 174 -34 221 -61l-50 -68c-45 23 -111 48 -168 48s-101 -25 -101 -68c0 -50 60 -61 122 -81z" />
    <glyph glyph-name="uni021a" unicode="&#x21a;" horiz-adv-x="575" 
d="M161 -165l18 104h89l-9 -111l-97 -108l-22 29l62 86h-41zM609 608h-213l-108 -608h-108l108 608h-213l15 92h534z" />
    <glyph glyph-name="uni021b" unicode="&#x21b;" horiz-adv-x="387" 
d="M54 447l13 78h71l24 132l106 20l-27 -152h143l-13 -78h-144l-56 -314c-8 -43 11 -54 37 -54c27 0 76 18 97 26l27 -81c-29 -11 -103 -35 -154 -35c-75 0 -127 45 -107 156l53 302h-70zM50 -165l17 104h90l-10 -111l-96 -108l-22 29l62 86h-41z" />
    <glyph glyph-name="hsuperior" unicode="&#x2b0;" horiz-adv-x="396" 
d="M216 822l-29 -160c29 18 80 45 131 45c70 0 95 -44 84 -107l-38 -215h-75l38 207c5 31 -1 56 -38 56c-39 0 -89 -27 -112 -46l-39 -217h-75l77 437h76z" />
    <glyph glyph-name="jsuperior" unicode="&#x2b2;" horiz-adv-x="253" 
d="M173 751l12 70h81l-13 -70h-80zM242 700l-56 -314c-13 -75 -18 -105 -146 -134l-18 57c76 23 81 32 88 72l57 319h75z" />
    <glyph glyph-name="wsuperior" unicode="&#x2b7;" horiz-adv-x="471" 
d="M320 385l-30 226l-112 -226h-72l-46 315h78l20 -238l113 238h66l26 -237l104 237h82l-157 -315h-72z" />
    <glyph glyph-name="ysuperior" unicode="&#x2b8;" horiz-adv-x="370" 
d="M56 311c58 18 82 28 111 72l-74 317h79l45 -230l127 230h86l-185 -315c-39 -67 -61 -108 -171 -133z" />
    <glyph glyph-name="circumflex" unicode="&#x2c6;" horiz-adv-x="282" 
d="M324 729l78 -133h-69l-68 82l-95 -82h-80l124 133h110z" />
    <glyph glyph-name="caron" unicode="&#x2c7;" horiz-adv-x="284" 
d="M191 596l-77 133h69l67 -82l96 82h79l-123 -133h-111z" />
    <glyph glyph-name="breve" unicode="&#x2d8;" horiz-adv-x="274" 
d="M243 596c-93 0 -141 46 -129 113h69c-5 -35 16 -50 61 -50c50 0 89 15 95 50h71c-12 -69 -72 -113 -167 -113z" />
    <glyph glyph-name="dotaccent" unicode="&#x2d9;" horiz-adv-x="88" 
d="M101 606l18 104h96l-17 -104h-97z" />
    <glyph glyph-name="ring" unicode="&#x2da;" horiz-adv-x="219" 
d="M57 693c0 59 47 107 106 107s107 -48 107 -107s-48 -107 -107 -107s-106 48 -106 107zM111 693c0 -29 23 -52 52 -52s52 23 52 52s-23 52 -52 52s-52 -23 -52 -52z" />
    <glyph glyph-name="ogonek" unicode="&#x2db;" horiz-adv-x="157" 
d="M41 -103c0 -32 44 -28 73 -28l-21 -55c-35 0 -128 -4 -128 72c0 55 59 92 142 125l51 -10c-73 -36 -117 -68 -117 -104z" />
    <glyph glyph-name="tilde" unicode="&#x2dc;" horiz-adv-x="297" 
d="M143 605l-47 30c33 50 59 83 106 83c53 0 86 -48 120 -48c14 0 29 6 59 46l47 -31c-33 -49 -59 -82 -106 -82c-53 0 -86 48 -120 48c-14 0 -29 -5 -59 -46z" />
    <glyph glyph-name="hungarumlaut" unicode="&#x2dd;" horiz-adv-x="320" 
d="M316 596h-65l97 133h112zM158 596h-66l97 133h113z" />
    <glyph glyph-name="xsuperior" unicode="&#x2e3;" horiz-adv-x="387" 
d="M306 385l-70 120l-108 -120h-99l162 158l-99 157h82l64 -118l105 118h94l-155 -157l105 -158h-81z" />
    <glyph glyph-name="pi" unicode="&#x3c0;" horiz-adv-x="567" 
d="M577 525l-15 -88h-87l-78 -437h-93l78 437h-150l-78 -437h-93l78 437h-86l15 88h509z" />
    <glyph glyph-name="Wgrave" unicode="&#x1e80;" horiz-adv-x="943" 
d="M559 0l-44 550l-240 -550h-110l-69 700h118l34 -557l243 557h96l42 -558l229 558h127l-316 -700h-110zM633 747h-81l-144 133h122z" />
    <glyph glyph-name="wgrave" unicode="&#x1e81;" horiz-adv-x="814" 
d="M473 0l-47 399l-191 -399h-100l-70 525h107l35 -416l193 416h91l42 -415l181 415h113l-254 -525h-100zM544 596h-80l-146 133h124z" />
    <glyph glyph-name="Wacute" unicode="&#x1e82;" horiz-adv-x="943" 
d="M559 0l-44 550l-240 -550h-110l-69 700h118l34 -557l243 557h96l42 -558l229 558h127l-316 -700h-110zM552 747h-91l141 133h138z" />
    <glyph glyph-name="wacute" unicode="&#x1e83;" horiz-adv-x="814" 
d="M473 0l-47 399l-191 -399h-100l-70 525h107l35 -416l193 416h91l42 -415l181 415h113l-254 -525h-100zM464 596h-91l141 133h137z" />
    <glyph glyph-name="Wdieresis" unicode="&#x1e84;" horiz-adv-x="943" 
d="M559 0l-44 550l-240 -550h-110l-69 700h118l34 -557l243 557h96l42 -558l229 558h127l-316 -700h-110zM413 750l19 103h96l-18 -103h-97zM589 750l18 103h96l-18 -103h-96z" />
    <glyph glyph-name="wdieresis" unicode="&#x1e85;" horiz-adv-x="814" 
d="M473 0l-47 399l-191 -399h-100l-70 525h107l35 -416l193 416h91l42 -415l181 415h113l-254 -525h-100zM326 606l18 104h97l-18 -104h-97zM502 606l18 104h95l-19 -104h-94z" />
    <glyph glyph-name="Ygrave" unicode="&#x1ef2;" horiz-adv-x="638" 
d="M210 0l49 279l-178 421h113l127 -337l245 337h127l-327 -424l-48 -276h-108zM480 747h-80l-145 133h122z" />
    <glyph glyph-name="ygrave" unicode="&#x1ef3;" horiz-adv-x="561" 
d="M-9 -134c98 32 136 50 183 128l-114 531h107l75 -406l220 406h115l-297 -525c-66 -114 -95 -174 -265 -217zM416 596h-80l-145 133h123z" />
    <glyph glyph-name="endash" unicode="&#x2013;" horiz-adv-x="562" 
d="M483 242h-423l15 86h422z" />
    <glyph glyph-name="emdash" unicode="&#x2014;" horiz-adv-x="667" 
d="M587 242h-527l15 86h526z" />
    <glyph glyph-name="quoteleft" unicode="&#x2018;" horiz-adv-x="245" 
d="M226 577l-22 -135h-113l14 146l119 132l26 -37l-75 -106h51z" />
    <glyph glyph-name="quoteright" unicode="&#x2019;" horiz-adv-x="235" 
d="M110 565l22 135h113l-14 -146l-119 -132l-26 37l75 106h-51z" />
    <glyph glyph-name="quotesinglbase" unicode="&#x201a;" horiz-adv-x="251" 
d="M16 0l23 135h113l-14 -146l-119 -132l-26 37l75 106h-52z" />
    <glyph glyph-name="quotedblleft" unicode="&#x201c;" horiz-adv-x="441" 
d="M226 577l-22 -135h-113l14 146l119 132l26 -37l-75 -106h51zM423 577l-23 -135h-113l14 146l119 132l26 -37l-75 -106h52z" />
    <glyph glyph-name="quotedblright" unicode="&#x201d;" horiz-adv-x="431" 
d="M306 565l23 135h112l-14 -146l-119 -132l-26 37l75 106h-51zM110 565l22 135h113l-14 -146l-119 -132l-26 37l75 106h-51z" />
    <glyph glyph-name="quotedblbase" unicode="&#x201e;" horiz-adv-x="447" 
d="M213 0l23 135h111l-13 -146l-119 -132l-26 37l75 106h-51zM16 0l23 135h113l-14 -146l-119 -132l-26 37l75 106h-52z" />
    <glyph glyph-name="dagger" unicode="&#x2020;" horiz-adv-x="583" 
d="M46 387l15 88l219 -12l42 237h80l-42 -237l223 12l-14 -88l-220 12l-106 -603h-81l106 602z" />
    <glyph glyph-name="daggerdbl" unicode="&#x2021;" 
d="M65 387l15 88l219 -12l42 237h80l-42 -237l223 12l-14 -88l-220 12l-35 -198l223 12l-14 -88l-221 11l-60 -340h-80l60 340l-222 -11l15 88l219 -12l35 197z" />
    <glyph glyph-name="bullet" unicode="&#x2022;" horiz-adv-x="443" 
d="M80 284c0 77 61 140 139 140c77 0 139 -63 139 -140s-62 -138 -139 -138c-78 0 -139 61 -139 138z" />
    <glyph glyph-name="ellipsis" unicode="&#x2026;" horiz-adv-x="681" 
d="M17 0l24 135h113l-23 -135h-114zM234 0l23 135h113l-22 -135h-114zM449 0l24 135h113l-23 -135h-114z" />
    <glyph glyph-name="perthousand" unicode="&#x2030;" horiz-adv-x="1420" 
d="M279 711c110 0 176 -61 176 -156c0 -123 -77 -219 -201 -219c-110 0 -177 61 -177 156c0 123 79 219 202 219zM257 402c72 0 115 76 115 147c0 53 -21 96 -95 96c-73 0 -116 -76 -116 -147c0 -53 21 -96 96 -96zM759 364c109 0 176 -61 176 -156
c0 -123 -77 -219 -201 -219c-110 0 -177 61 -177 156c0 123 79 219 202 219zM737 55c72 0 115 76 115 147c0 53 -22 96 -95 96s-117 -76 -117 -147c0 -53 22 -96 97 -96zM793 700l-487 -700h-86l485 700h88zM1185 364c110 0 176 -61 176 -156c0 -123 -76 -219 -201 -219
c-109 0 -176 61 -176 156c0 123 78 219 201 219zM1164 55c72 0 115 76 115 147c0 53 -22 96 -95 96s-117 -76 -117 -147c0 -53 22 -96 97 -96z" />
    <glyph glyph-name="guilsinglleft" unicode="&#x2039;" horiz-adv-x="396" 
d="M24 244l11 65l340 219l-18 -109l-240 -151l186 -149l-16 -93z" />
    <glyph glyph-name="guilsinglright" unicode="&#x203a;" horiz-adv-x="395" 
d="M362 309l-11 -65l-341 -218l19 108l240 151l-185 150l15 93z" />
    <glyph glyph-name="fraction" unicode="&#x2044;" horiz-adv-x="174" 
d="M364 700l-448 -700h-88l448 700h88z" />
    <glyph glyph-name="zerosuperior" unicode="&#x2070;" horiz-adv-x="439" 
d="M288 812c125 0 165 -88 165 -172c0 -90 -45 -262 -202 -262c-124 0 -165 88 -165 172c0 89 45 262 202 262zM251 439c96 0 123 152 123 209c0 47 -14 103 -86 103c-96 0 -124 -152 -124 -209c0 -47 15 -103 87 -103z" />
    <glyph glyph-name="foursuperior" unicode="&#x2074;" horiz-adv-x="430" 
d="M270 385l15 85h-227l9 55l253 280h104l-49 -271h66l-10 -64h-67l-15 -85h-79zM155 534h141l35 200z" />
    <glyph glyph-name="fivesuperior" unicode="&#x2075;" horiz-adv-x="392" 
d="M104 595l60 210h260l-10 -65h-195l-23 -92c18 6 38 9 61 9c89 0 137 -58 137 -127c0 -79 -65 -152 -179 -152c-81 0 -135 37 -161 56l42 50c18 -13 58 -39 112 -39c50 0 105 28 105 84c0 39 -26 65 -76 65c-39 0 -70 -15 -90 -26z" />
    <glyph glyph-name="sixsuperior" unicode="&#x2076;" horiz-adv-x="412" 
d="M367 748c-83 0 -158 -47 -190 -129c19 16 54 36 107 36c85 0 134 -55 134 -123c0 -79 -61 -154 -171 -154s-164 76 -164 157c0 153 120 277 281 277c46 0 73 -11 73 -11l-27 -57s-18 4 -43 4zM263 596c-48 0 -87 -29 -102 -49v-16c0 -47 27 -89 83 -89c63 0 96 43 96 89
c0 33 -23 65 -77 65z" />
    <glyph glyph-name="sevensuperior" unicode="&#x2077;" horiz-adv-x="330" 
d="M396 745c0 0 -190 -185 -222 -360h-84c31 167 203 344 214 355h-206l9 65h297z" />
    <glyph glyph-name="eightsuperior" unicode="&#x2078;" horiz-adv-x="418" 
d="M67 488c0 69 64 106 122 128c-32 20 -56 46 -56 86c0 64 62 110 157 110c87 0 140 -39 140 -97c0 -52 -46 -84 -94 -105c43 -21 83 -52 83 -106c0 -75 -80 -126 -190 -126c-100 0 -162 40 -162 110zM338 507c0 39 -40 60 -77 76c-55 -17 -114 -40 -114 -89
c0 -37 32 -56 82 -56c56 0 109 27 109 69zM210 695c0 -31 28 -46 52 -56c44 13 91 30 91 67c0 27 -25 48 -64 48c-44 0 -79 -27 -79 -59z" />
    <glyph glyph-name="ninesuperior" unicode="&#x2079;" horiz-adv-x="412" 
d="M148 442c83 0 158 46 190 127c-19 -15 -54 -34 -106 -34c-86 0 -134 55 -134 122c0 80 61 155 170 155c110 0 164 -76 164 -158c0 -152 -119 -276 -280 -276c-46 0 -74 11 -74 11l27 57s18 -4 43 -4zM252 594c49 0 89 30 103 50v15c0 47 -28 89 -83 89
c-63 0 -97 -43 -97 -89c0 -33 24 -65 77 -65z" />
    <glyph glyph-name="plussuperior" unicode="&#x207a;" horiz-adv-x="383" 
d="M237 725h59l-20 -111h129l-9 -57h-130l-19 -112h-59l19 112h-129l9 57h130z" />
    <glyph glyph-name="parenleftsuperior" unicode="&#x207d;" horiz-adv-x="222" 
d="M76 431l58 326c15 79 23 105 148 131l14 -46c-66 -20 -74 -32 -80 -71l-64 -355c-8 -45 -7 -55 46 -74l-19 -43c-115 28 -117 60 -103 132z" />
    <glyph glyph-name="parenrightsuperior" unicode="&#x207e;" horiz-adv-x="224" 
d="M250 757l-59 -327c-14 -78 -22 -104 -146 -131l-15 47c65 19 74 30 81 70l64 356c8 44 6 54 -47 73l20 43c113 -27 116 -59 102 -131z" />
    <glyph glyph-name="nsuperior" unicode="&#x207f;" horiz-adv-x="396" 
d="M194 700l-7 -39c28 18 80 46 131 46c70 0 95 -44 84 -107l-37 -215h-76l38 207c5 31 -1 56 -38 56c-40 0 -90 -28 -113 -46l-38 -217h-75l56 315h75z" />
    <glyph glyph-name="zeroinferior" unicode="&#x2080;" horiz-adv-x="439" 
d="M198 277c125 0 165 -88 165 -172c0 -90 -45 -262 -202 -262c-124 0 -165 88 -165 172c0 89 45 262 202 262zM161 -96c96 0 123 152 123 209c0 47 -14 103 -86 103c-96 0 -124 -152 -124 -209c0 -47 15 -103 87 -103z" />
    <glyph glyph-name="oneinferior" unicode="&#x2081;" horiz-adv-x="263" 
d="M123 -150h-79l63 342l-81 -38l-26 55l124 61h73z" />
    <glyph glyph-name="twoinferior" unicode="&#x2082;" horiz-adv-x="385" 
d="M277 -85l-11 -65h-316l7 39c16 95 90 133 168 176c71 40 120 66 120 104c-2 25 -24 43 -65 43c-45 0 -91 -21 -122 -39l-30 55c32 19 89 49 160 49c87 0 136 -45 136 -106c0 -83 -94 -128 -176 -172c-62 -33 -86 -49 -94 -84h223z" />
    <glyph glyph-name="threeinferior" unicode="&#x2083;" horiz-adv-x="386" 
d="M-52 -101l39 50c34 -19 74 -41 128 -41c61 0 99 30 99 69c0 49 -57 66 -117 66h-18l8 65h24c57 0 120 24 120 63c0 26 -23 41 -60 41c-44 0 -93 -23 -117 -35l-27 54c18 10 79 46 157 46c84 0 127 -42 127 -92c0 -44 -33 -84 -98 -107c46 -12 81 -52 81 -102
c0 -63 -50 -133 -172 -133c-89 0 -149 40 -174 56z" />
    <glyph glyph-name="fourinferior" unicode="&#x2084;" horiz-adv-x="416" 
d="M167 -150l15 85h-227l9 55l253 280h104l-49 -271h66l-10 -64h-67l-15 -85h-79zM52 -1h141l35 200z" />
    <glyph glyph-name="fiveinferior" unicode="&#x2085;" horiz-adv-x="390" 
d="M7 60l60 210h260l-10 -65h-195l-23 -92c18 6 38 9 61 9c90 0 137 -58 137 -127c0 -79 -65 -152 -179 -152c-81 0 -135 37 -161 56l42 50c18 -13 58 -39 112 -39c50 0 105 28 105 84c0 39 -26 65 -76 65c-39 0 -70 -15 -90 -26z" />
    <glyph glyph-name="sixinferior" unicode="&#x2086;" horiz-adv-x="412" 
d="M274 213c-83 0 -158 -47 -190 -129c19 16 54 36 107 36c85 0 134 -55 134 -123c0 -79 -61 -154 -171 -154s-164 76 -164 157c0 153 120 277 281 277c46 0 73 -11 73 -11l-27 -57s-18 4 -43 4zM170 61c-48 0 -87 -29 -102 -49v-16c0 -47 27 -89 83 -89c63 0 96 43 96 89
c0 33 -23 65 -77 65z" />
    <glyph glyph-name="seveninferior" unicode="&#x2087;" horiz-adv-x="356" 
d="M312 210c0 0 -190 -185 -222 -360h-84c31 167 203 344 214 355h-206l9 65h297z" />
    <glyph glyph-name="eightinferior" unicode="&#x2088;" horiz-adv-x="411" 
d="M-28 -47c0 69 64 106 122 128c-32 20 -56 46 -56 86c0 64 62 110 157 110c87 0 140 -39 140 -97c0 -52 -46 -84 -94 -105c43 -21 83 -52 83 -106c0 -75 -80 -126 -190 -126c-99 0 -162 40 -162 110zM243 -28c0 39 -40 60 -77 76c-55 -17 -114 -40 -114 -89
c0 -37 32 -56 82 -56c56 0 109 27 109 69zM115 160c0 -31 28 -46 52 -56c44 13 91 30 91 67c0 27 -25 48 -64 48c-44 0 -79 -27 -79 -59z" />
    <glyph glyph-name="nineinferior" unicode="&#x2089;" horiz-adv-x="415" 
d="M57 -93c83 0 158 47 190 127c-19 -15 -54 -34 -106 -34c-86 0 -134 55 -134 122c0 80 61 155 170 155c110 0 164 -76 164 -158c0 -152 -119 -276 -280 -276c-46 0 -74 11 -74 11l27 57s18 -4 43 -4zM161 59c49 0 89 30 103 50v15c0 47 -28 89 -83 89
c-63 0 -97 -43 -97 -89c0 -33 24 -65 77 -65z" />
    <glyph glyph-name="parenleftinferior" unicode="&#x208d;" horiz-adv-x="228" 
d="M-15 -104l58 326c15 79 23 105 148 131l14 -46c-66 -20 -74 -32 -80 -71l-64 -355c-8 -45 -7 -55 46 -74l-19 -43c-115 28 -117 60 -103 132z" />
    <glyph glyph-name="parenrightinferior" unicode="&#x208e;" horiz-adv-x="227" 
d="M157 222l-59 -327c-14 -78 -22 -104 -146 -131l-15 47c65 19 74 30 81 70l64 356c8 44 6 54 -47 73l20 43c113 -27 116 -59 102 -131z" />
    <glyph glyph-name="colonmonetary" unicode="&#x20a1;" horiz-adv-x="570" 
d="M165 0h-55l43 107c-53 34 -86 98 -86 189c0 216 136 328 264 328c10 0 21 -1 31 -2l32 78h55l-36 -89c10 -3 20 -6 30 -10l40 99h55l-49 -120c27 -15 50 -30 68 -41l-51 -69c-12 7 -29 19 -49 31l-133 -330c50 12 102 41 130 55l38 -79c-46 -21 -126 -61 -206 -69
l-31 -78h-55l32 79c-11 1 -22 3 -32 6zM174 305c0 -39 7 -70 22 -94l130 321c-84 -16 -152 -112 -152 -227zM236 175c9 -5 20 -7 31 -8l144 356c-10 3 -20 6 -31 8z" />
    <glyph glyph-name="lira" unicode="&#x20a4;" horiz-adv-x="566" 
d="M78 329l10 60h68c-15 38 -32 77 -32 127c0 116 84 195 219 195c106 0 182 -51 234 -85l-56 -66c-56 35 -112 60 -164 60c-81 0 -128 -53 -128 -112c0 -46 20 -80 36 -119h189l-9 -60h-164c1 -8 2 -17 2 -26c0 -13 -2 -25 -4 -36h154l-9 -59h-164
c-29 -59 -76 -100 -99 -117h306l-14 -91h-444l13 75s92 51 135 133h-100l10 59h110c1 8 2 16 2 24c0 13 -2 26 -4 38h-97z" />
    <glyph glyph-name="peseta" unicode="&#x20a7;" horiz-adv-x="683" 
d="M95 456l8 50h30l34 194h245c151 0 249 -57 249 -191v-3h25l-9 -50h-22c-23 -114 -124 -192 -281 -192h-175l-47 -264h-108l80 456h-29zM550 507c0 76 -60 102 -138 102h-153l-18 -103h309v1zM361 354c88 0 159 33 181 102h-310l-18 -102h147z" />
    <glyph glyph-name="uni20A9" unicode="&#x20a9;" horiz-adv-x="1023" 
d="M600 0l-43 550l-240 -550h-110l-24 239h-138l12 66h119l-10 106h-90l11 66h72l-22 223h119l13 -223h167l97 223h95l17 -223h163l92 223h126l-101 -223h74l-12 -66h-91l-48 -106h120l-11 -66h-139l-107 -239h-111zM273 411l7 -106h81l46 106h-134zM658 305h79l44 106h-131
zM332 239h-48l6 -97zM710 239h-47l8 -96z" />
    <glyph glyph-name="Euro" unicode="&#x20ac;" horiz-adv-x="713" 
d="M66 395l10 62h57c53 161 175 254 313 254c114 0 197 -58 268 -108l-60 -75c-72 53 -130 86 -197 86c-89 0 -165 -62 -206 -157h270l-11 -62h-280c-8 -30 -12 -63 -14 -96h277l-11 -61h-264c10 -105 62 -152 133 -152c63 0 148 38 227 85l48 -84
c-91 -52 -192 -98 -297 -98c-121 0 -212 73 -222 249h-70l11 61h58c2 34 5 66 11 96h-51z" />
    <glyph glyph-name="uni2116" unicode="&#x2116;" horiz-adv-x="1154" 
d="M273 700l239 -551l97 551h107l-123 -700h-110l-239 551l-97 -551h-107l123 700h110zM953 691c116 0 187 -65 187 -167c0 -129 -81 -239 -213 -239c-117 0 -188 65 -188 167c0 129 82 239 214 239zM930 358c79 0 120 84 120 158c0 59 -27 102 -101 102
c-78 0 -120 -84 -120 -158c0 -59 27 -102 101 -102zM726 169l11 64h316l-11 -64h-316z" />
    <glyph glyph-name="uni2117" unicode="&#x2117;" horiz-adv-x="824" 
d="M610 450c0 -100 -72 -147 -170 -147h-90l-28 -164h-49l74 421h139c73 0 124 -35 124 -110zM561 450c0 51 -36 68 -82 68h-91l-30 -172h91c60 0 112 37 112 104zM64 313c0 212 136 398 382 398c205 0 330 -134 330 -324c0 -212 -136 -398 -383 -398
c-204 0 -329 134 -329 324zM103 314c0 -166 108 -287 294 -287c214 0 340 163 340 359c0 166 -108 287 -294 287c-214 0 -340 -163 -340 -359z" />
    <glyph glyph-name="servicemark" unicode="&#x2120;" horiz-adv-x="646" 
d="M553 476l26 149l-84 -112h-33l-43 116l-26 -153h-51l39 224h53l51 -137l104 137h53l-39 -224h-50zM252 606c30 -10 66 -26 67 -65c0 -42 -44 -69 -105 -69c-49 0 -93 19 -119 33l28 34c22 -11 56 -26 90 -26c23 0 50 8 50 25c0 19 -37 22 -77 36c-30 9 -62 26 -62 64
s39 66 97 66c45 0 87 -16 110 -29l-27 -33c-21 9 -48 21 -79 21c-25 0 -43 -8 -43 -24c0 -19 30 -20 70 -33z" />
    <glyph glyph-name="trademark" unicode="&#x2122;" horiz-adv-x="642" 
d="M546 476l26 149l-84 -112h-32l-43 116l-26 -153h-51l39 224h53l51 -137l104 137h53l-39 -224h-51zM333 658h-80l-32 -182h-50l32 182h-79l7 42h208z" />
    <glyph glyph-name="Omega" unicode="&#x2126;" horiz-adv-x="755" 
d="M435 711c179 0 277 -94 277 -265c0 -227 -118 -323 -191 -355h111l-15 -91h-246l16 91c113 36 215 151 215 357c0 105 -47 170 -168 170c-209 0 -260 -226 -260 -367c0 -90 45 -137 117 -160l-14 -91h-246l14 91h114c-40 26 -94 79 -94 187c0 229 120 433 370 433z" />
    <glyph glyph-name="onethird" unicode="&#x2153;" horiz-adv-x="853" 
d="M429 49l39 50c33 -19 74 -41 128 -41c62 0 99 30 99 69c0 49 -57 66 -116 66h-20l10 65h23c57 0 119 24 119 63c0 26 -22 41 -58 41c-45 0 -95 -23 -119 -35l-26 54c18 10 79 46 157 46c84 0 127 -42 127 -92c0 -44 -33 -84 -98 -107c46 -12 81 -52 81 -102
c0 -63 -51 -133 -172 -133c-89 0 -150 40 -174 56zM211 280h-79l62 342l-81 -38l-25 55l124 61h73zM650 700l-452 -700h-83l451 700h84z" />
    <glyph glyph-name="twothirds" unicode="&#x2154;" horiz-adv-x="979" 
d="M558 49l39 50c34 -19 73 -41 128 -41c61 0 100 30 100 69c0 49 -58 66 -117 66h-19l9 65h23c57 0 120 24 120 63c0 26 -23 41 -59 41c-45 0 -95 -23 -118 -35l-26 54c17 10 78 46 157 46c83 0 126 -42 126 -92c0 -44 -33 -84 -97 -107c45 -12 80 -52 80 -102
c0 -63 -50 -133 -171 -133c-91 0 -150 40 -175 56zM373 345l-10 -65h-316l6 39c16 95 90 133 168 176c70 39 120 66 120 103c0 26 -24 44 -65 44c-45 0 -91 -21 -121 -39l-31 55c32 19 89 49 161 49c87 0 135 -45 135 -106c0 -83 -94 -128 -176 -172
c-62 -33 -85 -49 -93 -84h222zM782 700l-452 -700h-84l452 700h84z" />
    <glyph glyph-name="oneeighth" unicode="&#x215b;" horiz-adv-x="858" 
d="M431 103c0 69 64 107 122 129c-32 19 -56 45 -56 85c0 64 61 110 156 110c88 0 141 -39 141 -97c0 -52 -47 -84 -95 -105c43 -21 82 -52 82 -106c0 -75 -79 -126 -188 -126c-99 0 -162 40 -162 110zM648 700l-452 -700h-84l452 700h84zM210 280h-79l62 342l-81 -38
l-25 55l124 61h73zM701 122c0 39 -40 60 -77 76c-54 -17 -113 -40 -113 -89c0 -37 33 -56 82 -56c56 0 108 27 108 69zM573 310c0 -31 29 -46 53 -56c46 14 91 31 91 66c0 28 -26 49 -64 49c-45 0 -80 -27 -80 -59z" />
    <glyph glyph-name="threeeighths" unicode="&#x215c;" horiz-adv-x="968" 
d="M542 103c0 69 63 107 122 129c-32 19 -56 45 -56 85c0 64 61 110 156 110c88 0 141 -39 141 -97c0 -52 -46 -84 -94 -105c42 -21 81 -52 81 -106c0 -75 -78 -126 -188 -126c-99 0 -162 40 -162 110zM45 329l39 50c33 -19 74 -41 128 -41c61 0 99 30 99 69
c0 49 -57 66 -117 66h-19l9 65h23c58 0 121 24 121 63c0 26 -24 41 -60 41c-45 0 -93 -23 -117 -35l-27 54c17 10 78 46 157 46c84 0 127 -42 127 -92c0 -44 -33 -84 -98 -107c45 -12 81 -52 81 -102c0 -63 -50 -133 -172 -133c-90 0 -149 40 -174 56zM760 700l-452 -700
h-83l452 700h83zM813 122c0 38 -39 60 -76 76c-54 -17 -115 -40 -115 -89c0 -37 33 -56 82 -56c57 0 109 27 109 69zM685 310c0 -31 28 -46 52 -56c45 14 91 31 91 66c0 28 -25 49 -63 49c-45 0 -80 -27 -80 -59z" />
    <glyph glyph-name="fiveeighths" unicode="&#x215d;" horiz-adv-x="953" 
d="M526 103c0 69 64 106 122 128c-32 20 -56 46 -56 86c0 64 63 110 156 110c89 0 141 -39 141 -97c0 -52 -46 -84 -94 -105c43 -21 82 -52 82 -106c0 -75 -79 -126 -189 -126c-99 0 -162 40 -162 110zM97 490l61 210h260l-10 -65h-196l-23 -92c19 6 39 9 62 9
c90 0 137 -58 137 -127c0 -79 -65 -152 -179 -152c-81 0 -135 37 -161 56l42 50c18 -13 58 -39 112 -39c50 0 105 28 105 84c0 39 -26 65 -76 65c-39 0 -70 -15 -90 -26zM744 700l-452 -700h-83l453 700h82zM797 122c0 38 -40 60 -77 76c-53 -17 -113 -40 -113 -89
c0 -37 32 -56 81 -56c56 0 109 27 109 69zM669 310c0 -31 29 -46 53 -56c46 14 90 31 90 66c0 28 -26 49 -64 49c-44 0 -79 -27 -79 -59z" />
    <glyph glyph-name="seveneighths" unicode="&#x215e;" horiz-adv-x="853" 
d="M429 103c0 69 63 106 122 128c-33 20 -56 46 -56 86c0 64 62 110 156 110c88 0 140 -40 140 -97c0 -52 -46 -84 -94 -105c43 -21 83 -52 83 -106c0 -75 -80 -126 -190 -126c-99 0 -161 40 -161 110zM648 700l-452 -700h-84l452 700h84zM391 640c0 0 -190 -185 -222 -360
h-84c31 167 203 344 214 355h-206l9 65h297zM699 122c0 38 -39 60 -76 76c-54 -17 -115 -40 -115 -89c0 -37 34 -56 82 -56c57 0 109 27 109 69zM571 310c0 -31 29 -46 53 -56c45 14 90 31 90 66c0 28 -25 49 -63 49c-45 0 -80 -27 -80 -59z" />
    <glyph glyph-name="partialdiff" unicode="&#x2202;" horiz-adv-x="631" 
d="M478 382c-7 117 -68 235 -220 235c-44 0 -83 -9 -83 -9l-2 82s40 10 91 10c196 0 309 -140 309 -357c0 -216 -117 -354 -303 -354c-143 0 -235 79 -235 217c0 153 116 270 265 270c133 0 178 -94 178 -94zM458 265c0 76 -43 129 -133 129c-120 0 -182 -94 -182 -192
c0 -73 34 -131 130 -131c133 0 185 109 185 194z" />
    <glyph glyph-name="Delta" unicode="&#x2206;" horiz-adv-x="700" 
d="M621 0h-649l390 700h116zM511 91l-105 493l-282 -493h387z" />
    <glyph glyph-name="product" unicode="&#x220f;" horiz-adv-x="703" 
d="M738 700l-15 -88h-101l-109 -612h-107l109 612h-221l-109 -612h-107l108 612h-100l14 88h638z" />
    <glyph glyph-name="summation" unicode="&#x2211;" horiz-adv-x="569" 
d="M119 700h465l-14 -91h-326l206 -259l-286 -259h312l-15 -91h-465l10 63l324 289l-222 285z" />
    <glyph glyph-name="minus" unicode="&#x2212;" 
d="M58 293l14 80h501l-13 -80h-502z" />
    <glyph glyph-name="radical" unicode="&#x221a;" horiz-adv-x="595" 
d="M657 700l-416 -700h-99l-115 340h106l70 -220l340 580h114z" />
    <glyph glyph-name="infinity" unicode="&#x221e;" horiz-adv-x="921" 
d="M246 423c94 0 151 -57 212 -120c96 75 154 120 240 120c103 0 158 -64 158 -149c0 -100 -80 -181 -197 -181c-92 0 -150 57 -210 120c-97 -75 -156 -120 -241 -120c-102 0 -158 64 -158 148c0 100 79 182 196 182zM217 166c57 0 108 34 186 94c-70 70 -104 90 -148 90
c-80 0 -122 -55 -122 -109c0 -41 31 -75 84 -75zM689 350c-57 0 -107 -35 -185 -95c66 -66 100 -89 148 -89c81 0 121 56 121 109c0 41 -30 75 -84 75z" />
    <glyph glyph-name="integral" unicode="&#x222b;" horiz-adv-x="394" 
d="M107 88l94 542c27 156 76 209 232 209h39l-11 -66h-22c-104 0 -117 -74 -133 -165l-95 -542c-27 -156 -77 -209 -232 -209h-40l11 66h23c104 0 117 74 134 165z" />
    <glyph glyph-name="approxequal" unicode="&#x2248;" 
d="M101 182l-58 25c48 75 98 113 160 113c89 0 138 -67 207 -67c27 0 55 9 93 62l58 -25c-48 -76 -98 -113 -160 -113c-89 0 -138 67 -208 67c-26 0 -53 -9 -92 -62zM134 364l-58 25c47 76 97 113 159 113c89 0 137 -67 207 -67c27 0 54 9 93 62l58 -25
c-48 -75 -98 -113 -160 -113c-90 0 -138 67 -208 67c-26 0 -53 -9 -91 -62z" />
    <glyph glyph-name="notequal" unicode="&#x2260;" 
d="M74 386l12 80h263l95 159l68 -29l-78 -130h154l-12 -80h-189l-62 -103h232l-14 -81h-266l-93 -157l-67 29l76 128h-152l14 81h186l61 103h-228z" />
    <glyph glyph-name="lessequal" unicode="&#x2264;" 
d="M57 297l11 67l536 197l-16 -98l-403 -137l352 -138l-14 -88zM4 0l12 71h501l-11 -71h-502z" />
    <glyph glyph-name="greaterequal" unicode="&#x2265;" 
d="M577 364l-12 -67l-536 -197l16 98l403 137l-352 138l15 88zM525 71l-11 -71h-502l12 71h501z" />
    <glyph glyph-name="uni2318" unicode="&#x2318;" horiz-adv-x="792" 
d="M566 39c-82 0 -150 64 -140 150c2 17 6 35 8 51h-96l-12 -65c-15 -84 -57 -136 -141 -136c-81 0 -145 60 -145 135c0 88 77 132 166 132h74l16 88h-48c-80 0 -145 61 -145 135s63 133 141 133c69 0 152 -49 140 -151c-2 -17 -6 -34 -8 -51h97l11 65c11 61 42 121 120 134
c11 2 23 3 34 1c73 -6 132 -64 132 -135c0 -86 -77 -131 -166 -131h-75l-16 -88h50c79 0 143 -60 143 -135c0 -74 -62 -132 -140 -132zM564 240h-62l-9 -48c-9 -44 20 -87 72 -87c41 0 74 30 74 67c0 38 -34 68 -75 68zM269 240h-87c-42 0 -74 -30 -74 -67
c0 -38 34 -68 76 -68c40 0 65 24 71 61zM349 306h97l16 88h-97zM554 534l-13 -74h87c42 0 75 30 75 67c0 38 -34 69 -76 69c-43 0 -68 -35 -73 -62zM245 596c-42 0 -74 -31 -74 -68c0 -38 33 -68 76 -68h60c3 16 7 32 9 48c8 46 -19 88 -71 88z" />
    <glyph glyph-name="lozenge" unicode="&#x25ca;" horiz-adv-x="565" 
d="M295 700h114l126 -350l-250 -350h-114l-125 350zM434 366l-89 248l-198 -279l88 -252z" />
    <glyph glyph-name="commaaccent" unicode="&#xf6c3;" horiz-adv-x="103" 
d="M-14 -165l18 104h89l-10 -111l-96 -108l-22 29l62 86h-41z" />
    <glyph glyph-name="centinferior" unicode="&#xf6df;" horiz-adv-x="362" 
d="M153 -150h-56l8 47c-65 6 -111 49 -111 136c0 120 81 191 167 191h1l8 46h57l-10 -55c37 -11 69 -30 90 -42l-35 -50c-15 8 -38 24 -65 32l-34 -189c26 8 53 20 69 27l27 -57c-25 -10 -65 -28 -107 -36zM71 39c0 -43 16 -69 45 -76l34 193c-45 -12 -79 -58 -79 -117z" />
    <glyph glyph-name="centsuperior" unicode="&#xf6e0;" horiz-adv-x="364" 
d="M244 385h-56l8 46c-65 6 -111 51 -111 137c0 121 80 191 167 191h1l8 46h57l-10 -55c37 -11 69 -30 90 -42l-35 -50c-15 8 -39 24 -65 32l-34 -189c26 7 53 20 69 27l27 -56c-25 -11 -65 -29 -107 -37zM162 574c0 -43 16 -69 45 -77l34 194c-45 -12 -79 -58 -79 -117z
" />
    <glyph glyph-name="commainferior" unicode="&#xf6e1;" horiz-adv-x="196" 
d="M-23 -150l15 90h81l-9 -98l-82 -83l-18 26l50 65h-37z" />
    <glyph glyph-name="commasuperior" unicode="&#xf6e2;" horiz-adv-x="184" 
d="M67 385l15 90h81l-9 -98l-82 -83l-18 26l50 65h-37z" />
    <glyph glyph-name="dollarinferior" unicode="&#xf6e3;" horiz-adv-x="406" 
d="M142 -210h-56l10 58c-56 11 -106 35 -138 56l42 53c27 -16 67 -35 107 -44l21 120l-13 6c-54 21 -102 49 -102 113c0 71 62 124 158 125l10 54h57l-11 -60c48 -9 90 -28 123 -45l-42 -52c-25 13 -60 26 -92 33l-20 -112l13 -5c54 -22 109 -50 109 -118
c0 -77 -70 -129 -167 -129zM235 -36c0 25 -23 38 -53 50l-19 -105c40 4 72 25 72 55zM97 158c0 -23 17 -34 45 -44l17 97c-34 -4 -62 -22 -62 -53z" />
    <glyph glyph-name="dollarsuperior" unicode="&#xf6e4;" horiz-adv-x="408" 
d="M237 325h-56l10 58c-56 10 -106 35 -138 56l42 53c27 -17 67 -36 107 -45l21 121l-13 6c-54 21 -102 49 -102 113c0 71 62 124 158 125l10 54h57l-11 -60c48 -9 90 -28 123 -45l-42 -52c-25 13 -60 26 -92 33l-20 -112l13 -5c54 -22 109 -50 109 -118
c0 -77 -70 -129 -167 -129zM330 499c0 25 -23 38 -53 50l-19 -106c40 4 72 25 72 56zM192 693c0 -23 17 -34 45 -44l17 97c-35 -4 -62 -22 -62 -53z" />
    <glyph glyph-name="periodinferior" unicode="&#xf6e7;" horiz-adv-x="190" 
d="M-24 -150l15 90h80l-15 -90h-80z" />
    <glyph glyph-name="periodsuperior" unicode="&#xf6e8;" horiz-adv-x="183" 
d="M67 385l15 90h80l-15 -90h-80z" />
    <glyph glyph-name="asuperior" unicode="&#xf6e9;" horiz-adv-x="405" 
d="M367 385h-76l7 41c-27 -22 -71 -48 -121 -48c-51 0 -102 31 -102 118c0 123 64 211 156 211c50 0 86 -27 109 -46l7 39h76zM203 439c43 0 77 24 107 51l20 114c-22 22 -50 42 -82 42c-60 0 -95 -70 -95 -143c0 -41 17 -64 50 -64z" />
    <glyph glyph-name="bsuperior" unicode="&#xf6ea;" horiz-adv-x="405" 
d="M67 385l77 437h76l-29 -159c26 19 67 44 115 44c53 0 108 -30 108 -119c0 -122 -62 -210 -152 -210c-54 0 -90 26 -113 45l-7 -38h-75zM280 646c-39 0 -70 -23 -100 -46l-21 -119c22 -23 52 -42 86 -42c57 0 91 70 91 142c0 42 -18 65 -56 65z" />
    <glyph glyph-name="dsuperior" unicode="&#xf6eb;" horiz-adv-x="405" 
d="M367 385h-76l7 41c-28 -22 -71 -48 -121 -48c-51 0 -102 31 -102 118c0 123 64 211 156 211c49 0 85 -26 108 -45l29 160h76zM203 439c42 0 76 24 106 50l20 116c-21 22 -50 41 -81 41c-60 0 -95 -70 -95 -143c0 -41 17 -64 50 -64z" />
    <glyph glyph-name="esuperior" unicode="&#xf6ec;" horiz-adv-x="376" 
d="M389 616c0 -76 -81 -101 -202 -101h-39c2 -55 28 -80 71 -80c41 0 88 22 122 38l26 -52c-27 -12 -94 -43 -161 -43c-79 0 -132 43 -132 139c0 108 72 190 189 190c79 0 126 -35 126 -91zM261 652c-56 0 -98 -39 -110 -95h39c86 0 126 21 126 57c0 23 -20 38 -55 38z" />
    <glyph glyph-name="isuperior" unicode="&#xf6ed;" horiz-adv-x="182" 
d="M143 385h-75l56 315h75zM130 751l12 70h81l-12 -70h-81z" />
    <glyph glyph-name="lsuperior" unicode="&#xf6ee;" horiz-adv-x="182" 
d="M143 385h-75l77 437h76z" />
    <glyph glyph-name="msuperior" unicode="&#xf6ef;" horiz-adv-x="600" 
d="M199 700l-8 -41c26 20 71 48 117 48c50 0 76 -23 84 -56c23 20 76 56 127 56c71 0 94 -44 83 -105l-38 -217h-75l38 207c5 30 0 56 -36 56c-35 0 -77 -27 -100 -49l-37 -214h-77l38 207c6 30 1 56 -35 56c-35 0 -76 -27 -99 -49l-38 -214h-75l56 315h75z" />
    <glyph glyph-name="osuperior" unicode="&#xf6f0;" horiz-adv-x="401" 
d="M251 707c100 0 160 -53 160 -142c0 -102 -65 -187 -177 -187c-100 0 -160 53 -160 142c0 102 65 187 177 187zM232 437c67 0 101 68 101 129c0 46 -20 82 -80 82c-67 0 -101 -68 -101 -129c0 -46 20 -82 80 -82z" />
    <glyph glyph-name="rsuperior" unicode="&#xf6f1;" horiz-adv-x="274" 
d="M199 700l-12 -67c8 15 53 77 136 71l-10 -71c-107 0 -143 -106 -143 -106l-27 -142h-75l56 315h75z" />
    <glyph glyph-name="ssuperior" unicode="&#xf6f2;" horiz-adv-x="351" 
d="M247 571c56 -16 103 -36 103 -93c0 -62 -56 -100 -135 -100c-66 0 -126 26 -160 47l37 49c32 -17 80 -37 123 -37c31 0 59 11 59 35c0 27 -36 33 -81 46s-98 33 -98 91c0 57 51 98 130 98c57 0 113 -22 144 -38l-34 -49c-29 14 -72 29 -108 29c-33 0 -56 -12 -56 -33
c0 -27 35 -33 76 -45z" />
    <glyph glyph-name="tsuperior" unicode="&#xf6f3;" horiz-adv-x="276" 
d="M81 644l10 56h42l14 79l78 12l-16 -91h90l-9 -56h-91l-30 -169c-5 -26 7 -32 23 -32c15 0 45 10 58 15l20 -58c-20 -7 -67 -22 -102 -22c-53 0 -86 33 -73 104l28 162h-42z" />
    <glyph glyph-name="apple" unicode="&#xf8ff;" horiz-adv-x="904" 
d="M745 327c-13 -5 -13 -16 -3 -23l28 -20c11 -7 10 -15 -3 -18l-34 -6c-14 -2 -16 -12 -7 -22l24 -24c8 -9 6 -17 -8 -17l-35 2c-13 0 -18 -9 -10 -20l18 -30c7 -11 2 -17 -11 -15l-34 9c-12 4 -19 -5 -15 -17l11 -33c5 -12 -1 -18 -13 -12l-31 15c-11 6 -20 0 -19 -14
l5 -33c1 -14 -5 -17 -15 -9l-28 21c-10 8 -20 3 -21 -10l-2 -34c-1 -13 -9 -15 -17 -6l-23 27c-9 9 -18 8 -22 -5l-10 -33c-3 -13 -12 -13 -18 -2l-17 30c-6 12 -15 12 -23 0l-15 -30c-6 -11 -15 -11 -18 2l-10 33c-4 13 -13 14 -22 5l-23 -27c-8 -9 -15 -7 -17 6l-2 34
c-1 13 -11 18 -22 10l-26 -21c-11 -8 -19 -5 -16 9l5 33c1 14 -8 20 -20 14l-30 -15c-12 -6 -18 0 -13 12l11 33c5 12 -3 21 -15 17l-34 -9c-13 -2 -18 4 -11 15l19 30c7 11 2 20 -11 20l-35 -2c-14 0 -16 8 -8 17l25 24c8 10 6 20 -8 22l-33 6c-14 3 -15 11 -4 18l28 20
c3 2 5 5 6 6c6 5 13 2 18 -6l16 -31c6 -12 14 -10 18 2l9 34c4 12 14 14 22 4l23 -26c9 -10 16 -7 17 6l2 34c2 13 11 17 21 9l28 -21c11 -8 18 -4 15 9l-4 34c-2 13 7 19 18 13l31 -14c12 -6 18 0 14 12l-11 33c-5 12 2 20 14 16l7 -1c26 -50 49 -145 49 -205
c-8 -10 -17 -18 -46 -18h-4c0 14 -5 26 -16 35c7 -8 9 -17 9 -27v-7c-11 1 -16 8 -16 19c0 27 -18 49 -51 49c-27 0 -47 -23 -47 -54c0 -38 33 -65 92 -65c144 0 278 190 278 319c0 38 -26 67 -64 67c-30 0 -60 -24 -60 -58s21 -54 58 -58c-8 -32 -15 -60 -29 -85
c-8 62 -29 119 -58 150c29 -38 47 -97 52 -161l-14 -20c0 100 -36 197 -89 224c-3 6 2 13 12 15l34 6c12 2 14 10 3 17l-29 19c-10 9 -9 18 3 23l31 14c14 4 14 13 0 18l-31 13c-9 4 -11 8 -10 14c4 2 6 4 7 8l17 30c6 12 15 11 18 -1l10 -33c4 -13 13 -16 22 -5l23 26
c8 10 16 8 17 -5l2 -35c1 -14 11 -17 21 -9l28 21c10 8 16 3 15 -10l-5 -34c-1 -13 8 -19 19 -13l31 16c12 5 18 0 13 -14l-11 -31c-4 -13 3 -21 15 -17l34 7c13 4 18 -2 11 -14l-18 -29c-8 -11 -3 -21 10 -20l35 2c14 0 16 -8 8 -17l-24 -26c-9 -9 -7 -19 7 -21l34 -6
c13 -3 14 -10 3 -19l-28 -19c-10 -7 -10 -17 3 -22l31 -13c12 -5 12 -13 0 -18zM364 124c144 0 278 189 278 319c0 19 -7 37 -20 49c8 -12 12 -25 12 -41c0 -66 -34 -146 -85 -210c-52 -64 -122 -113 -196 -113c-19 0 -36 3 -49 9c14 -9 35 -13 60 -13z" />
    <glyph glyph-name="s_t" unicode="&#xfb06;" horiz-adv-x="903" 
d="M660 553c13 73 -8 124 -88 124c-82 0 -137 -55 -137 -131c0 -20 3 -37 10 -51c16 -7 30 -14 42 -20l-50 -68c-45 23 -111 48 -168 48s-101 -25 -101 -68c0 -50 60 -61 122 -81c95 -30 164 -67 164 -155c0 -102 -93 -162 -214 -162c-100 0 -190 41 -242 74l52 70
c50 -29 127 -62 191 -62c57 0 107 26 107 72c0 51 -60 63 -131 85c-70 22 -154 54 -154 150s85 158 203 158c41 0 83 -8 120 -19c-4 12 -5 25 -5 40c0 97 78 172 203 172c124 0 198 -69 177 -186l-4 -18h143l-13 -78h-144l-56 -314c-7 -43 11 -54 37 -54c27 0 76 18 97 26
l26 -81c-28 -11 -102 -35 -152 -35c-77 0 -128 45 -108 156l54 302h-71l13 78h72z" />
    <glyph glyph-name="eight.numr" horiz-adv-x="423" 
d="M52 383c0 69 63 107 122 129c-32 19 -56 45 -56 85c0 64 62 110 157 110c88 0 140 -39 140 -97c0 -52 -46 -84 -94 -105c43 -21 83 -52 83 -106c0 -75 -80 -126 -190 -126c-100 0 -162 40 -162 110zM323 402c0 38 -39 60 -76 76c-54 -17 -115 -40 -115 -89
c0 -37 32 -56 82 -56c56 0 109 27 109 69zM195 590c0 -31 28 -46 52 -56c45 14 91 31 91 66c0 28 -25 49 -63 49c-45 0 -80 -27 -80 -59z" />
    <glyph glyph-name="Qsuperior" horiz-adv-x="495" 
d="M314 812c133 0 193 -73 194 -182c1 -79 -38 -204 -153 -241l60 -55l-55 -48l-87 92c-126 3 -182 76 -183 182c-1 93 54 252 224 252zM281 445c106 0 147 113 147 183c0 61 -21 117 -111 117c-106 0 -147 -114 -147 -184c0 -61 22 -116 111 -116z" />
    <glyph glyph-name="f_f.calt" horiz-adv-x="725" 
d="M57 447l14 78h71l10 58c17 101 54 146 142 146c61 0 137 -28 167 -42l-40 -69c-22 7 -81 22 -109 22c-32 0 -49 -20 -56 -56l-11 -59h129l-14 -78h-128l-74 -419c-28 -154 -35 -199 -228 -245l-23 81c122 36 127 54 145 158l76 425h-71zM420 447l13 78h72l10 58
c16 101 55 146 139 146c45 0 110 -23 137 -34l-38 -71c-20 6 -58 16 -79 16c-32 0 -49 -20 -56 -56l-11 -59h137l-14 -78h-136l-74 -419c-28 -154 -35 -199 -228 -245l-23 81c122 36 127 54 146 158l76 425h-71z" />
    <glyph glyph-name="f_f.ss01" horiz-adv-x="695" 
d="M57 447l13 78h71l9 48c19 107 73 146 155 146c68 0 152 -21 212 -39c23 33 57 49 109 49c61 0 138 -28 168 -42l-47 -69c-20 7 -76 22 -104 22c-32 0 -48 -20 -55 -56l-11 -59h136l-14 -78h-135l-74 -419c-28 -154 -36 -199 -228 -245l-23 81c122 36 127 54 146 158
l75 425h-229l-74 -419c-28 -154 -35 -199 -228 -245l-23 81c122 36 127 54 146 158l75 425h-70zM254 574l-9 -49h229l15 81c-36 7 -121 24 -166 24s-64 -26 -69 -56z" />
    <glyph glyph-name="f_f_b.ss01" horiz-adv-x="1302" 
d="M57 447l14 78h70l9 48c19 107 73 146 155 146c70 0 157 -23 217 -40c27 35 67 50 117 50c63 0 141 -18 199 -35l6 35h103l-48 -269c43 34 109 76 186 76c83 0 168 -49 168 -189c0 -208 -97 -358 -243 -358c-85 0 -141 45 -180 79l-12 -68h-103l109 615
c-34 8 -121 25 -166 25c-46 0 -65 -26 -70 -56l-11 -59h136l-14 -78h-135l-74 -419c-28 -154 -36 -199 -228 -245l-23 81c122 36 127 54 145 158l76 425h-229l-74 -419c-28 -154 -35 -199 -228 -245l-23 81c122 36 127 54 146 158l75 425h-70zM1050 451
c-63 0 -116 -39 -167 -80l-39 -220c38 -41 88 -77 145 -77c100 0 158 130 158 262c0 72 -33 115 -97 115zM245 525h229l15 81c-36 7 -121 24 -166 24s-64 -26 -69 -56z" />
    <glyph glyph-name="f_f_h.ss01" horiz-adv-x="1302" 
d="M57 447l14 78h70l9 48c19 107 73 146 155 146c70 0 157 -23 217 -40c27 35 67 50 117 50c63 0 141 -18 199 -35l6 35h103l-48 -271c44 29 130 78 213 78c110 0 149 -72 131 -173l-64 -363h-104l63 352c10 57 0 101 -63 101c-67 0 -153 -50 -191 -81l-66 -372h-103
l109 615c-34 8 -121 25 -166 25c-46 0 -65 -26 -70 -56l-11 -59h136l-14 -78h-135l-74 -419c-28 -154 -36 -199 -228 -245l-23 81c122 36 127 54 145 158l76 425h-229l-74 -419c-28 -154 -35 -199 -228 -245l-23 81c122 36 127 54 146 158l75 425h-70zM245 525h229l15 81
c-36 7 -121 24 -166 24s-64 -26 -69 -56z" />
    <glyph glyph-name="f_f_i.ss01" horiz-adv-x="917" 
d="M872 687l-43 -70c-30 7 -121 23 -167 23c-47 0 -69 -26 -74 -56l-11 -59h306l-93 -525h-103l79 447h-202l-74 -419c-28 -154 -36 -199 -228 -245l-23 81c122 36 127 54 145 158l76 425h-229l-74 -419c-28 -154 -35 -199 -228 -245l-23 81c122 36 127 54 146 158l75 425
h-70l14 78h70l9 48c19 107 73 146 155 146c71 0 158 -23 218 -40c28 35 69 50 120 50c73 0 171 -24 229 -42zM474 525l15 81c-36 7 -121 24 -166 24s-64 -26 -69 -56l-9 -49h229z" />
    <glyph glyph-name="f_f_j.ss01" horiz-adv-x="917" 
d="M57 447l14 78h70l9 48c19 107 73 146 155 146c71 0 158 -23 218 -40c28 35 69 50 120 50c73 0 171 -24 229 -42l-43 -70c-30 7 -121 23 -167 23c-47 0 -69 -26 -74 -56l-11 -59h307l-96 -534c-21 -118 -27 -162 -220 -208l-23 81c122 36 128 53 140 120l82 463h-203
l-74 -419c-28 -154 -36 -199 -228 -245l-23 81c122 36 127 54 145 158l76 425h-229l-74 -419c-28 -154 -35 -199 -228 -245l-23 81c122 36 127 54 146 158l75 425h-70zM474 525l15 81c-36 7 -121 24 -166 24s-64 -26 -69 -56l-9 -49h229z" />
    <glyph glyph-name="f_f_k.ss01" horiz-adv-x="1229" 
d="M57 447l14 78h70l9 48c19 107 73 146 155 146c70 0 157 -23 217 -40c27 35 67 50 117 50c63 0 141 -18 199 -35l6 35h103l-80 -450l238 246h126l-218 -215l157 -310h-105l-121 242l-101 -99l-25 -143h-103l109 615c-34 8 -121 25 -166 25c-46 0 -65 -26 -70 -56l-11 -59
h136l-14 -78h-135l-74 -419c-28 -154 -36 -199 -228 -245l-23 81c122 36 127 54 145 158l76 425h-229l-74 -419c-28 -154 -35 -199 -228 -245l-23 81c122 36 127 54 146 158l75 425h-70zM245 525h229l15 81c-36 7 -121 24 -166 24s-64 -26 -69 -56z" />
    <glyph glyph-name="f.calt" horiz-adv-x="363" 
d="M57 447l14 78h71l10 58c17 101 55 146 139 146c46 0 111 -23 137 -34l-38 -71c-19 6 -58 16 -78 16c-32 0 -49 -20 -56 -56l-11 -59h136l-13 -78h-136l-74 -419c-28 -154 -35 -199 -228 -245l-23 81c122 36 127 54 145 158l76 425h-71z" />
    <glyph glyph-name="f_f_l.ss01" horiz-adv-x="952" 
d="M57 447l14 78h70l9 48c19 107 73 146 155 146c70 0 157 -23 217 -40c27 35 67 50 117 50c63 0 141 -18 199 -35l6 35h103l-129 -729h-103l109 615c-34 8 -121 25 -166 25c-46 0 -65 -26 -70 -56l-11 -59h136l-14 -78h-135l-74 -419c-28 -154 -36 -199 -228 -245l-23 81
c122 36 127 54 145 158l76 425h-229l-74 -419c-28 -154 -35 -199 -228 -245l-23 81c122 36 127 54 146 158l75 425h-70zM474 525l15 81c-36 7 -121 24 -166 24s-64 -26 -69 -56l-9 -49h229z" />
    <glyph glyph-name="f_f_t.ss01" horiz-adv-x="1048" 
d="M793 687l-48 -69c-19 7 -75 22 -103 22c-32 0 -48 -20 -55 -56l-11 -59h223l24 132l107 20l-28 -152h143l-13 -78h-144l-56 -314c-7 -43 11 -54 36 -54c28 0 76 18 97 26l27 -81c-28 -11 -102 -35 -152 -35c-76 0 -128 45 -109 156l54 302h-222l-74 -419
c-28 -154 -36 -199 -228 -245l-23 81c122 36 128 54 146 158l76 425h-229l-74 -419c-28 -154 -35 -199 -228 -245l-23 81c122 36 127 54 146 158l75 425h-70l13 78h71l9 48c19 107 73 146 155 146c68 0 152 -21 212 -39c22 33 56 49 108 49c61 0 137 -28 168 -42zM245 525
h229l15 81c-36 7 -121 24 -166 24s-64 -26 -69 -56z" />
    <glyph glyph-name="f_h.ss01" horiz-adv-x="970" 
d="M58 447l14 78h71l10 58c19 107 73 146 154 146c64 0 141 -18 200 -35l6 35h103l-48 -271c43 29 131 78 213 78c110 0 149 -72 131 -173l-64 -363h-104l62 352c10 57 1 101 -63 101c-67 0 -152 -50 -190 -81l-66 -372h-103l109 616c-36 7 -122 24 -167 24s-64 -26 -69 -56
l-11 -59h136l-13 -78h-137l-74 -419c-27 -154 -35 -199 -228 -245l-23 81c123 36 128 54 146 158l76 425h-71z" />
    <glyph glyph-name="exclamsuperior" horiz-adv-x="193" 
d="M71 385l14 84h81l-14 -84h-81zM231 805l-74 -288h-45l27 288h92z" />
    <glyph glyph-name="f_i.ss01" horiz-adv-x="585" 
d="M58 447l14 78h71l10 58c20 107 74 146 158 146c74 0 171 -24 230 -42l-43 -70c-31 7 -121 23 -168 23c-46 0 -67 -26 -73 -56l-11 -59h307l-94 -525h-103l79 447h-203l-74 -419c-27 -154 -35 -199 -228 -245l-23 81c123 36 128 54 146 158l76 425h-71z" />
    <glyph glyph-name="f_j.ss01" horiz-adv-x="585" 
d="M58 447l14 78h71l10 58c20 107 74 146 158 146c74 0 171 -24 230 -42l-43 -70c-31 7 -121 23 -168 23c-46 0 -67 -26 -73 -56l-11 -59h307l-96 -534c-21 -118 -27 -162 -220 -208l-23 81c122 36 128 53 139 120l83 463h-204l-74 -419c-27 -154 -35 -199 -228 -245l-23 81
c123 36 128 54 146 158l76 425h-71z" />
    <glyph glyph-name="f_k.ss01" horiz-adv-x="896" 
d="M58 447l14 78h71l10 58c19 107 73 146 154 146c64 0 141 -18 200 -35l6 35h103l-80 -449l237 245h126l-216 -214l155 -311h-105l-120 242l-101 -99l-25 -143h-103l109 616c-36 7 -122 24 -167 24s-64 -26 -69 -56l-11 -59h136l-13 -78h-137l-74 -419
c-27 -154 -35 -199 -228 -245l-23 81c123 36 127 54 146 158l76 425h-71z" />
    <glyph glyph-name="exclaminferior" horiz-adv-x="196" 
d="M-21 -150l14 84h81l-14 -84h-81zM139 270l-74 -288h-45l27 288h92z" />
    <glyph glyph-name="f_l.ss01" horiz-adv-x="620" 
d="M58 447l14 78h71l10 58c19 107 73 146 154 146c64 0 141 -18 200 -35l6 35h103l-129 -729h-103l109 616c-36 7 -122 24 -167 24s-64 -26 -69 -56l-11 -59h136l-13 -78h-137l-74 -419c-27 -154 -35 -199 -228 -245l-23 81c123 36 127 54 146 158l76 425h-71z" />
    <glyph glyph-name="f_t.ss01" horiz-adv-x="717" 
d="M462 687l-46 -69c-20 7 -77 22 -104 22c-32 0 -49 -20 -55 -56l-11 -59h218l24 132l108 20l-28 -152h144l-13 -78h-145l-56 -314c-7 -43 12 -54 36 -54c28 0 77 18 98 26l26 -81c-29 -11 -102 -35 -152 -35c-77 0 -128 45 -108 156l53 302h-219l-74 -419
c-27 -154 -35 -199 -228 -245l-23 81c123 36 128 54 146 158l76 425h-71l14 78h71l10 58c17 101 54 146 142 146c60 0 137 -28 167 -42z" />
    <glyph glyph-name="finferior" horiz-adv-x="266" 
d="M-8 109l10 56h44l5 25c11 67 35 97 95 97c42 0 90 -18 111 -28l-35 -48c-12 4 -45 13 -61 13c-19 0 -30 -11 -34 -32l-5 -27h83l-9 -56h-84l-42 -235c-17 -97 -22 -127 -150 -156l-18 58c76 22 80 32 91 93l43 240h-44z" />
    <glyph glyph-name="exclamdownsuperior" horiz-adv-x="197" 
d="M133 721l14 84h80l-14 -84h-80zM187 673l-29 -288h-91l74 288h46z" />
    <glyph glyph-name="five.dnom" horiz-adv-x="395" 
d="M37 210l61 210h260l-10 -65h-196l-23 -92c19 6 39 9 62 9c89 0 136 -58 136 -127c0 -79 -64 -152 -178 -152c-81 0 -135 37 -161 56l42 50c18 -13 58 -39 111 -39c51 0 106 28 106 84c0 39 -27 65 -76 65c-39 0 -70 -15 -90 -26z" />
    <glyph glyph-name="five.numr" horiz-adv-x="395" 
d="M87 490l60 210h260l-10 -65h-195l-23 -92c18 6 38 9 61 9c90 0 137 -58 137 -127c0 -79 -65 -152 -179 -152c-81 0 -135 37 -161 56l42 50c18 -13 58 -39 112 -39c50 0 105 28 105 84c0 39 -26 65 -76 65c-39 0 -70 -15 -90 -26z" />
    <glyph glyph-name="five.onum" horiz-adv-x="583" 
d="M57 227l98 347h399l-15 -91h-310l-46 -179c32 12 66 19 107 19c137 0 211 -92 211 -207c0 -134 -104 -253 -284 -253c-120 0 -200 56 -241 87l59 69c21 -16 90 -63 173 -63c88 0 183 56 183 157c0 71 -44 121 -130 121c-61 0 -111 -26 -145 -44z" />
    <glyph glyph-name="five.tnum" horiz-adv-x="645" 
d="M110 353l98 347h398l-14 -91h-310l-45 -179c31 12 65 19 106 19c136 0 211 -92 211 -207c0 -134 -105 -253 -284 -253c-121 0 -201 56 -241 87l59 69c21 -16 89 -63 172 -63c89 0 184 56 184 157c0 71 -45 121 -130 121c-61 0 -112 -26 -146 -44z" />
    <glyph glyph-name="exclamdowninferior" horiz-adv-x="193" 
d="M37 186l14 84h80l-14 -84h-80zM91 138l-29 -288h-91l74 288h46z" />
    <glyph glyph-name="fiveeighths.onum" horiz-adv-x="836" 
d="M455 86c0 55 54 86 104 104c-28 16 -50 38 -50 71c0 51 54 89 135 89c75 0 122 -33 122 -80c0 -43 -41 -69 -82 -86c37 -17 72 -43 72 -88c0 -60 -68 -102 -162 -102c-85 0 -139 33 -139 92zM80 402l51 172h224l-8 -54h-171l-19 -75c16 5 34 8 54 8
c78 0 120 -48 120 -105c0 -65 -56 -124 -154 -124c-70 0 -116 30 -139 46l35 41c15 -10 50 -32 97 -32c45 0 94 22 94 68c0 32 -24 54 -69 54c-34 0 -61 -12 -78 -22zM637 574l-387 -574h-69l386 574h70zM689 99c0 33 -36 51 -69 64c-47 -14 -100 -33 -100 -73
c0 -31 30 -46 74 -46c50 0 95 21 95 55zM573 254c0 -24 25 -37 47 -46c40 12 81 25 81 54c0 24 -23 41 -57 41c-40 0 -71 -22 -71 -49z" />
    <glyph glyph-name="exclamdown.sc" horiz-adv-x="262" 
d="M109 462l17 112h104l-17 -112h-104zM177 395l-41 -395h-117l99 395h59z" />
    <glyph glyph-name="fivesixths" horiz-adv-x="931" 
d="M806 363c-83 0 -158 -47 -190 -129c19 16 54 36 107 36c85 0 134 -55 134 -123c0 -79 -61 -154 -171 -154s-164 76 -164 157c0 153 120 277 281 277c46 0 73 -11 73 -11l-27 -57s-18 4 -43 4zM98 490l60 210h261l-11 -65h-195l-23 -92c19 5 38 9 61 9
c90 0 137 -58 137 -127c0 -79 -65 -152 -179 -152c-81 0 -135 37 -161 56l42 50c18 -13 58 -39 112 -39c50 0 106 28 106 84c0 39 -27 65 -76 65c-39 0 -71 -15 -91 -26zM743 700l-452 -700h-83l453 700h82zM702 211c-48 0 -87 -29 -102 -49v-16c0 -47 27 -89 83 -89
c63 0 96 43 96 89c0 33 -23 65 -77 65z" />
    <glyph glyph-name="fivesixths.onum" horiz-adv-x="817" 
d="M693 298c-73 0 -139 -39 -166 -105c17 12 47 28 93 28c76 0 118 -45 118 -101c0 -65 -52 -126 -147 -126c-96 0 -142 63 -142 131c0 124 102 225 240 225c39 0 63 -9 63 -9l-22 -47s-16 4 -37 4zM80 402l51 172h223l-8 -54h-170l-19 -75c16 5 33 8 53 8
c79 0 120 -48 120 -105c0 -65 -56 -124 -153 -124c-70 0 -116 30 -139 46l35 41c15 -10 50 -32 96 -32s94 22 94 68c0 32 -24 54 -68 54c-35 0 -61 -12 -78 -22zM636 574l-388 -574h-69l387 574h70zM604 173c-42 0 -77 -23 -90 -39v-12c0 -39 24 -75 74 -75
c55 0 85 34 85 72c0 27 -21 54 -69 54z" />
    <glyph glyph-name="exclam.sc" horiz-adv-x="261" 
d="M26 0l18 112h104l-18 -112h-104zM237 574l-99 -395h-58l40 395h117z" />
    <glyph glyph-name="einferior" horiz-adv-x="370" 
d="M295 81c0 -76 -82 -101 -202 -101h-39c2 -54 27 -80 71 -80c41 0 88 22 122 38l26 -52c-27 -12 -94 -43 -161 -43c-79 0 -132 43 -132 139c0 108 72 190 189 190c79 0 126 -35 126 -91zM167 117c-56 0 -98 -39 -110 -95h39c84 0 126 21 126 57c0 23 -20 38 -55 38z" />
    <glyph glyph-name="eight.tnum" horiz-adv-x="645" 
d="M32 168c0 118 107 180 200 215c-51 31 -92 74 -92 145c0 109 100 183 244 183c131 0 213 -63 213 -158c0 -93 -83 -147 -158 -179c67 -32 134 -84 134 -177c0 -125 -129 -208 -296 -208c-148 0 -245 64 -245 179zM463 202c0 68 -70 109 -131 135
c-89 -30 -190 -73 -190 -161c0 -65 54 -103 135 -103c97 0 186 53 186 129zM244 518c0 -56 52 -84 92 -101c77 23 155 57 155 123c0 47 -40 89 -108 89c-77 0 -139 -52 -139 -111z" />
    <glyph glyph-name="four.dnom" horiz-adv-x="428" 
d="M200 0l15 85h-227l9 55l253 280h103l-48 -271h65l-9 -64h-67l-15 -85h-79zM85 149h141l35 200z" />
    <glyph glyph-name="four.numr" horiz-adv-x="426" 
d="M249 280l15 85h-227l9 55l253 280h104l-49 -271h66l-10 -64h-67l-15 -85h-79zM134 429h141l36 201z" />
    <glyph glyph-name="four.onum" horiz-adv-x="634" 
d="M314 -126l26 148h-361l14 78l410 474h142l-82 -461h106l-16 -91h-106l-26 -148h-107zM113 113h243l63 357z" />
    <glyph glyph-name="four.tnum" horiz-adv-x="645" 
d="M11 148l14 78l410 474h136l-82 -461h102l-14 -91h-104l-26 -148h-105l26 148h-357zM144 239h240l62 353z" />
    <glyph glyph-name="fourfifths" horiz-adv-x="998" 
d="M259 280l15 85h-228l9 55l253 280h104l-49 -271h66l-9 -64h-68l-15 -85h-78zM628 210l60 210h261l-11 -65h-196l-23 -93c19 6 39 10 63 10c89 0 136 -58 136 -127c0 -79 -64 -152 -179 -152c-80 0 -135 37 -161 56l43 50c18 -13 57 -39 111 -39c51 0 106 28 106 84
c0 39 -27 65 -75 65c-40 0 -72 -15 -93 -26zM791 700l-451 -700h-84l452 700h83zM143 429h142l35 200z" />
    <glyph glyph-name="fourfifths.onum" horiz-adv-x="875" 
d="M222 230l12 69h-197l7 46l218 229h88l-40 -222h57l-8 -53h-59l-12 -69h-66zM542 172l50 172h224l-8 -53h-170l-21 -77c17 5 34 9 55 9c79 0 120 -48 120 -104c0 -66 -56 -125 -154 -125c-69 0 -116 31 -139 46l35 41c15 -10 51 -32 96 -32c46 0 95 23 95 68
c0 33 -23 55 -68 55c-34 0 -61 -13 -79 -22zM679 574l-388 -574h-70l388 574h70zM121 352h122l30 165z" />
    <glyph glyph-name="eight.onum" horiz-adv-x="637" 
d="M28 168c0 118 107 180 200 215c-51 31 -92 74 -92 145c0 109 99 183 243 183c132 0 214 -63 214 -158c0 -93 -83 -147 -159 -179c67 -33 134 -84 134 -177c0 -125 -128 -208 -296 -208c-147 0 -244 64 -244 179zM458 202c0 68 -70 109 -130 135
c-89 -30 -190 -73 -190 -161c0 -65 53 -103 134 -103c97 0 186 53 186 129zM240 518c0 -55 51 -84 92 -101c77 23 154 57 154 123c0 47 -40 89 -108 89c-76 0 -138 -52 -138 -111z" />
    <glyph glyph-name="eight.dnom" horiz-adv-x="422" 
d="M2 103c0 69 63 106 122 128c-33 20 -56 46 -56 86c0 64 63 110 156 110c88 0 140 -39 140 -97c0 -52 -46 -84 -94 -105c43 -21 83 -52 83 -106c0 -75 -80 -126 -189 -126c-99 0 -162 40 -162 110zM272 122c0 38 -39 60 -76 76c-54 -17 -115 -40 -115 -89
c0 -37 33 -56 82 -56c57 0 109 27 109 69zM144 310c0 -31 29 -46 53 -56c45 14 90 31 90 66c0 28 -25 49 -63 49c-45 0 -80 -27 -80 -59z" />
    <glyph glyph-name="dollar.onum" horiz-adv-x="573" 
d="M257 -82h-72l14 80c-76 13 -145 45 -189 74l54 68c38 -22 94 -48 149 -60l31 174l-15 6c-76 29 -145 67 -145 155c0 99 89 168 219 168l13 74h71l-14 -81c65 -11 123 -37 168 -61l-52 -67c-36 18 -85 36 -131 45l-28 -161l14 -5c77 -30 155 -68 155 -162
c0 -105 -99 -173 -229 -174zM394 155c0 38 -35 57 -82 75l-27 -154c62 5 109 33 109 79zM191 422c0 -35 27 -50 71 -66l26 142c-53 -5 -97 -31 -97 -76z" />
    <glyph glyph-name="frenchfranc" horiz-adv-x="609" 
d="M19 123l11 65h61l91 512h455l-15 -92h-348l-40 -213h277l-14 -91h-277l-21 -116h177l-10 -65h-179l-22 -123h-107l22 123h-61z" />
    <glyph glyph-name="frenchfranc.onum" horiz-adv-x="547" 
d="M14 97l9 58h55l74 419h400l-13 -85h-302l-30 -161h239l-13 -83h-240l-16 -90h154l-9 -58h-155l-17 -97h-99l17 97h-54z" />
    <glyph glyph-name="frenchfrancinferior" horiz-adv-x="397" 
d="M-40 -81l7 45h40l54 306h296l-11 -66h-217l-22 -112h172l-11 -64h-171l-12 -64h112l-6 -45h-114l-12 -69h-78l12 69h-39z" />
    <glyph glyph-name="frenchfrancsuperior" horiz-adv-x="393" 
d="M63 454l7 45h40l54 306h296l-11 -66h-217l-22 -112h172l-11 -64h-171l-12 -64h112l-6 -45h-114l-12 -69h-78l12 69h-39z" />
    <glyph glyph-name="fsuperior" horiz-adv-x="268" 
d="M97 644l10 56h44l5 25c11 67 35 97 95 97c42 0 90 -18 111 -28l-35 -48c-12 4 -45 13 -61 13c-19 0 -30 -11 -34 -32l-5 -27h83l-9 -56h-84l-42 -235c-17 -97 -22 -127 -150 -156l-18 58c76 22 80 32 91 93l43 240h-44z" />
    <glyph glyph-name="dinferior" horiz-adv-x="400" 
d="M267 -150h-76l7 41c-28 -21 -71 -48 -121 -48c-51 0 -102 31 -102 118c0 123 64 211 156 211c49 0 85 -26 108 -45l29 160h76zM103 -96c41 0 75 25 106 50l20 116c-21 22 -50 41 -81 41c-60 0 -95 -70 -95 -143c0 -41 17 -64 50 -64z" />
    <glyph glyph-name="csuperior" horiz-adv-x="355" 
d="M386 656l-36 -50c-19 12 -55 37 -94 37c-56 0 -104 -51 -104 -122c0 -51 25 -79 65 -79c36 0 81 23 104 33l27 -56c-32 -14 -89 -41 -145 -41c-73 0 -128 44 -128 137c0 121 82 192 167 192c61 0 113 -33 144 -51z" />
    <glyph glyph-name="copyright.sc" horiz-adv-x="726" 
d="M51 261c0 171 116 322 329 322c180 0 289 -111 289 -270c0 -171 -116 -322 -328 -322c-180 0 -290 111 -290 270zM85 261c0 -138 95 -239 258 -239c185 0 293 132 293 291c0 138 -95 239 -258 239c-185 0 -293 -132 -293 -291zM513 410l-28 -27c-22 17 -58 46 -113 46
c-75 0 -134 -75 -128 -178c4 -66 34 -106 83 -106c55 0 104 28 129 44l24 -30c-35 -21 -85 -51 -151 -51c-69 0 -125 49 -128 140c-9 139 75 217 172 217c66 0 112 -34 140 -55z" />
    <glyph glyph-name="colonsuperior" horiz-adv-x="190" 
d="M104 579l16 90h80l-15 -90h-81zM70 385l16 90h80l-15 -90h-81z" />
    <glyph glyph-name="colonmonetarysuperior" horiz-adv-x="367" 
d="M155 385h-36l26 63c-34 21 -56 60 -56 120c0 120 81 191 167 191c6 0 12 -1 18 -1l20 47h38l-23 -54c6 -1 12 -4 18 -6l25 60h37l-31 -73l44 -24l-35 -50c-8 5 -19 12 -32 18l-73 -177c28 7 57 21 75 29l27 -57c-30 -12 -80 -34 -130 -39l-19 -47h-38l19 47l-20 3z
M166 574c0 -21 4 -38 11 -50l70 168c-46 -12 -81 -58 -81 -118zM203 500c6 -3 13 -4 20 -5l81 195c-6 2 -13 3 -19 4z" />
    <glyph glyph-name="germandblsinferior" horiz-adv-x="439" 
d="M214 277c116 0 171 -51 157 -137l-1 -9l-52 -39c-19 9 -49 22 -76 22c-28 0 -50 -14 -50 -36c0 -27 36 -33 70 -43c50 -15 90 -40 90 -93c0 -60 -50 -99 -123 -99c-60 0 -116 27 -146 48l35 50c27 -18 75 -40 107 -40c25 0 53 14 53 38c0 25 -32 33 -71 46
c-44 15 -88 34 -88 89c0 54 44 98 119 98c21 0 42 -3 60 -9c-1 38 -29 55 -86 55c-59 0 -104 -17 -116 -84l-51 -284h-75l52 293c17 92 76 134 192 134z" />
    <glyph glyph-name="germandblssuperior" horiz-adv-x="452" 
d="M311 812c116 0 171 -51 157 -137l-1 -9l-52 -39c-19 9 -49 22 -76 22c-28 0 -50 -14 -50 -36c0 -27 36 -33 70 -43c50 -15 90 -40 90 -93c0 -60 -50 -99 -123 -99c-60 0 -116 27 -146 48l35 50c27 -18 75 -40 107 -40c25 0 53 14 53 38c0 25 -32 33 -71 46
c-44 15 -88 34 -88 89c0 54 44 98 119 98c21 0 42 -3 60 -9c-1 38 -29 55 -86 55c-59 0 -104 -17 -116 -84l-51 -284h-75l52 293c17 92 76 134 192 134z" />
    <glyph glyph-name="ginferior" horiz-adv-x="402" 
d="M251 165h76l-57 -322c-17 -97 -72 -121 -154 -121c-53 0 -113 10 -163 24l23 61c43 -13 91 -24 133 -24c59 0 80 28 85 57l9 52c-28 -22 -72 -49 -123 -49c-49 0 -100 31 -100 118c0 123 63 211 155 211c50 0 86 -27 109 -46zM108 -96c42 0 75 25 106 51l20 113
c-20 23 -50 43 -81 43c-61 0 -96 -70 -96 -143c0 -41 18 -64 51 -64z" />
    <glyph glyph-name="colonmonetaryinferior" horiz-adv-x="366" 
d="M60 -150h-36l26 64c-34 20 -56 59 -56 119c0 120 81 191 167 191c6 0 12 -1 18 -1l20 47h38l-23 -54c6 -1 12 -4 18 -6l25 60h37l-31 -73l44 -24l-35 -50c-8 5 -19 12 -32 18l-73 -176c28 7 57 20 75 28l27 -57c-30 -11 -79 -34 -130 -39l-19 -47h-38l19 47
c-7 1 -13 2 -20 4zM71 39c0 -21 4 -38 11 -50l70 168c-46 -12 -81 -58 -81 -118zM108 -35c6 -2 13 -4 20 -4l81 194c-6 2 -13 3 -19 4z" />
    <glyph glyph-name="colonmonetary.onum" horiz-adv-x="508" 
d="M143 0h-49l36 87c-48 28 -77 81 -77 159c0 176 116 266 228 266c9 0 18 -1 26 -2l27 64h50l-31 -73c9 -2 18 -5 27 -8l34 81h49l-42 -99c23 -12 42 -24 58 -33l-45 -64c-11 6 -26 16 -43 25l-106 -253c41 10 84 31 107 42l34 -73c-38 -17 -108 -49 -177 -55l-27 -64h-49
l27 64c-10 1 -19 3 -28 5zM151 253c0 -30 6 -55 18 -73l103 247c-68 -16 -121 -91 -121 -174zM206 151c9 -3 18 -5 28 -6l116 276c-9 3 -18 5 -27 7z" />
    <glyph glyph-name="coloninferior" horiz-adv-x="187" 
d="M9 44l16 90h80l-15 -90h-81zM-25 -150l16 90h80l-15 -90h-81z" />
    <glyph glyph-name="gsuperior" horiz-adv-x="417" 
d="M353 700h76l-57 -322c-17 -97 -72 -121 -154 -121c-53 0 -113 10 -163 24l23 61c43 -13 91 -24 133 -24c59 0 80 28 85 57l9 51c-28 -21 -72 -48 -123 -48c-49 0 -100 31 -100 118c0 123 63 211 155 211c50 0 86 -27 109 -46zM210 439c42 0 75 24 106 50l20 114
c-20 23 -50 43 -81 43c-61 0 -96 -70 -96 -143c0 -41 18 -64 51 -64z" />
    <glyph glyph-name="cinferior" horiz-adv-x="350" 
d="M292 121l-36 -50c-19 12 -56 37 -94 37c-56 0 -104 -51 -104 -122c0 -51 25 -79 65 -79c36 0 81 23 104 33l27 -56c-32 -14 -90 -41 -145 -41c-73 0 -128 44 -128 137c0 121 81 192 167 192c60 0 113 -33 144 -51z" />
    <glyph glyph-name="cent.onum" horiz-adv-x="506" 
d="M263 0h-71l11 63c-90 8 -152 70 -152 182c0 176 117 266 228 266h3l11 63h71l-13 -74c53 -14 97 -42 127 -59l-46 -64c-20 12 -56 35 -95 46l-48 -272c40 10 80 29 102 40l34 -73c-34 -15 -91 -41 -151 -52zM150 252c0 -58 22 -96 67 -106l49 279
c-67 -18 -116 -92 -116 -173z" />
    <glyph glyph-name="c_t" horiz-adv-x="906" 
d="M573 447l14 78h71l5 28c12 72 -7 124 -81 124s-130 -55 -130 -130c0 -23 5 -43 15 -59l48 -28l-50 -71c-27 16 -86 58 -144 58c-96 0 -178 -103 -178 -230c0 -86 37 -139 109 -139c57 0 128 41 161 57l37 -81c-47 -22 -134 -65 -218 -65c-113 0 -195 76 -195 219
c0 216 136 328 264 328c38 0 73 -8 103 -19c-3 11 -4 24 -4 39c0 98 77 173 193 173c123 0 191 -70 171 -186l-3 -18h143l-14 -78h-143l-56 -314c-8 -43 11 -54 36 -54c28 0 76 18 97 26l28 -81c-29 -11 -104 -35 -153 -35c-76 0 -128 45 -108 156l53 302h-71z" />
    <glyph glyph-name="c_l" horiz-adv-x="779" 
d="M648 0h-103l120 677h-76c-77 0 -132 -54 -132 -129c0 -22 4 -44 13 -62c17 -9 32 -19 45 -26l-50 -71c-27 16 -86 58 -144 58c-96 0 -178 -103 -178 -230c0 -86 37 -139 109 -139c57 0 128 41 161 57l37 -81c-47 -22 -134 -65 -218 -65c-113 0 -195 76 -195 219
c0 216 136 328 264 328c40 0 76 -9 108 -21c-3 12 -5 26 -5 41c0 96 68 173 183 173h190z" />
    <glyph glyph-name="c_k" horiz-adv-x="1054" 
d="M1057 525l-217 -214l155 -311h-105l-120 242l-101 -99l-25 -143h-103l120 677h-72c-77 0 -132 -54 -132 -129c0 -22 4 -44 13 -62c17 -9 32 -19 45 -26l-50 -71c-27 16 -86 58 -144 58c-96 0 -178 -103 -178 -230c0 -86 37 -139 109 -139c57 0 128 41 161 57l37 -81
c-47 -22 -134 -65 -218 -65c-113 0 -195 76 -195 219c0 216 136 328 264 328c40 0 76 -9 108 -21c-3 12 -5 26 -5 41c0 96 68 173 183 173h186l-80 -450l238 246h126z" />
    <glyph glyph-name="c_h" horiz-adv-x="1127" 
d="M773 729l-48 -271c44 29 130 78 212 78c112 0 150 -72 132 -173l-64 -363h-104l63 352c10 57 0 101 -63 101c-67 0 -152 -50 -191 -81l-66 -372h-103l120 677h-72c-77 0 -132 -54 -132 -129c0 -22 4 -44 13 -62c17 -9 32 -19 45 -26l-50 -71c-27 16 -86 58 -144 58
c-96 0 -178 -103 -178 -230c0 -86 37 -139 109 -139c57 0 128 41 161 57l37 -81c-47 -22 -134 -65 -218 -65c-113 0 -195 76 -195 219c0 216 136 328 264 328c40 0 76 -9 108 -21c-3 12 -5 26 -5 41c0 96 67 173 183 173h186z" />
    <glyph glyph-name="hinferior" horiz-adv-x="395" 
d="M127 287l-29 -160c29 18 80 45 131 45c70 0 95 -44 84 -107l-38 -215h-75l38 207c5 31 -1 56 -38 56c-39 0 -89 -27 -112 -46l-39 -217h-75l77 437h76z" />
    <glyph glyph-name="brokenbar.sc" horiz-adv-x="247" 
d="M165 332h-73l60 339h73zM89 -101h-73l60 339h73z" />
    <glyph glyph-name="bracketrightsuperior" horiz-adv-x="247" 
d="M187 299h-158l8 46h79l88 497h-79l8 46h158z" />
    <glyph glyph-name="bracketrightinferior" horiz-adv-x="250" 
d="M95 -236h-158l8 46h79l88 497h-79l8 46h158z" />
    <glyph glyph-name="bracketright.sc" horiz-adv-x="335" 
d="M175 -118h-211l11 61h110l122 685h-111l10 60h211z" />
    <glyph glyph-name="bracketleftsuperior" horiz-adv-x="246" 
d="M217 299h-158l104 589h158l-8 -46h-79l-88 -497h79z" />
    <glyph glyph-name="bracketleftinferior" horiz-adv-x="249" 
d="M124 -236h-158l104 589h158l-8 -46h-79l-88 -497h79z" />
    <glyph glyph-name="bracketleft.sc" horiz-adv-x="335" 
d="M223 -118h-211l142 806h211l-11 -60h-110l-121 -685h110z" />
    <glyph glyph-name="bracerightsuperior" horiz-adv-x="274" 
d="M304 619l-9 -51c-57 1 -69 -38 -71 -69l-3 -59c-4 -96 -56 -141 -168 -141h-23l7 45h12c70 0 89 41 92 85l2 56c2 73 35 101 96 109c-52 12 -82 43 -58 114l14 41c14 45 19 95 -57 95h-12l8 44h12c100 0 158 -50 127 -146l-17 -53c-15 -48 2 -70 48 -70z" />
    <glyph glyph-name="bracerightinferior" horiz-adv-x="276" 
d="M211 84l-9 -51c-57 1 -69 -38 -71 -69l-3 -59c-4 -96 -56 -141 -168 -141h-23l7 45h12c70 0 89 41 92 85l2 56c2 73 35 101 96 109c-52 12 -82 43 -58 114l14 41c14 45 19 95 -57 95h-12l8 44h12c100 0 158 -50 127 -146l-17 -53c-15 -48 2 -70 48 -70z" />
    <glyph glyph-name="iinferior" horiz-adv-x="183" 
d="M49 -150h-75l56 315h75zM36 216l12 70h81l-12 -70h-81z" />
    <glyph glyph-name="braceright.sc" horiz-adv-x="376" 
d="M341 319l-11 -67c-80 0 -99 -54 -100 -96l-3 -80c-5 -131 -75 -193 -231 -193h-30l9 58h16c102 0 129 58 133 121l3 76c4 98 47 136 128 149c-68 16 -108 58 -76 152l18 59c20 63 26 131 -83 131h-16l10 59h16c141 0 215 -69 174 -200l-24 -73c-21 -67 3 -96 67 -96z" />
    <glyph glyph-name="braceleftsuperior" horiz-adv-x="273" 
d="M71 568l7 51c59 0 73 39 74 69l2 59c4 96 57 141 169 141h23l-7 -44h-12c-71 0 -89 -42 -92 -87l-3 -55c-3 -73 -36 -100 -96 -109c51 -11 81 -43 58 -113l-14 -41c-14 -45 -19 -95 57 -95h12l-7 -45h-12c-100 0 -156 50 -128 146l16 54c14 48 0 69 -47 69z" />
    <glyph glyph-name="braceleftinferior" horiz-adv-x="277" 
d="M-21 33l7 51c59 0 73 39 74 69l2 59c4 96 57 141 169 141h23l-7 -44h-12c-71 0 -89 -42 -92 -87l-3 -55c-3 -73 -36 -100 -96 -109c51 -11 81 -43 58 -113l-14 -41c-14 -45 -19 -95 57 -95h12l-7 -45h-12c-100 0 -156 50 -128 146l16 54c14 48 0 69 -47 69z" />
    <glyph glyph-name="braceleft.sc" horiz-adv-x="376" 
d="M29 252l12 67c80 -1 100 54 101 95l1 81c3 130 75 193 231 193h31l-11 -59h-16c-100 0 -128 -57 -131 -121l-3 -75c-5 -99 -49 -137 -130 -149c70 -16 110 -58 78 -153l-19 -58c-21 -63 -26 -132 82 -132h17l-9 -58h-16c-141 0 -216 69 -175 199l24 74
c21 66 -2 96 -67 96z" />
    <glyph glyph-name="binferior" horiz-adv-x="398" 
d="M-26 -150l77 437h76l-29 -159c26 19 67 44 115 44c53 0 108 -30 108 -119c0 -122 -62 -210 -152 -210c-54 0 -90 27 -113 46l-7 -39h-75zM187 111c-38 0 -70 -23 -100 -46l-21 -119c22 -22 52 -42 86 -42c57 0 91 70 91 142c0 42 -18 65 -56 65z" />
    <glyph glyph-name="bar.sc" horiz-adv-x="246" 
d="M89 -101h-73l136 772h73z" />
    <glyph glyph-name="backslash.sc" horiz-adv-x="411" 
d="M252 -74l-162 722h72l161 -722h-71z" />
    <glyph glyph-name="at.sc" horiz-adv-x="795" 
d="M318 -108c96 0 158 37 158 37l20 -33s-71 -43 -178 -43c-179 0 -286 130 -286 299c0 217 163 411 417 411c223 0 308 -149 289 -317c-15 -108 -63 -268 -201 -268c-81 0 -92 59 -91 98c-33 -27 -83 -57 -142 -57c-57 0 -103 40 -103 100c0 97 71 145 149 145
c45 0 99 -14 126 -21c2 15 5 29 7 41c9 51 -4 73 -58 73c-39 0 -90 -15 -137 -34l-17 55c60 22 122 37 173 37c85 0 127 -38 111 -129l-27 -153c-11 -54 -18 -105 31 -105c56 0 122 82 137 218c19 139 -42 277 -245 277c-235 0 -377 -176 -377 -370c0 -149 89 -261 244 -261
zM455 132l14 72c-23 4 -65 15 -98 15c-69 0 -93 -45 -93 -88c0 -38 23 -54 56 -54c36 0 82 23 121 55z" />
    <glyph glyph-name="asterisksuperior" horiz-adv-x="303" 
d="M165 583l36 89l-86 -51l-22 59l99 13l-88 46l41 48l63 -77l-4 96l63 -11l-36 -89l85 52l22 -60l-97 -13l86 -45l-41 -48l-61 74l3 -93z" />
    <glyph glyph-name="jinferior" horiz-adv-x="185" 
d="M38 216l12 70h81l-13 -70h-80zM107 165l-56 -314c-13 -75 -18 -105 -146 -134l-18 57c76 23 81 32 88 72l57 319h75z" />
    <glyph glyph-name="asteriskinferior" horiz-adv-x="313" 
d="M80 48l36 89l-86 -51l-22 59l99 13l-88 46l41 48l63 -77l-4 96l63 -11l-36 -89l85 52l22 -60l-97 -13l86 -45l-41 -48l-61 74l3 -93z" />
    <glyph glyph-name="ampersandsuperior" horiz-adv-x="463" 
d="M460 385h-82l-36 41c-39 -28 -86 -48 -142 -48c-80 0 -135 40 -135 104s55 101 113 132c-24 29 -41 56 -41 92c0 66 58 106 128 106c65 0 114 -35 114 -89c0 -55 -53 -90 -109 -123l72 -82c22 28 38 59 49 88h77c-12 -38 -39 -92 -81 -139zM202 435c35 0 69 15 98 39
l-83 95c-42 -25 -75 -51 -75 -85c0 -21 13 -49 60 -49zM207 705c0 -24 12 -45 26 -63c43 22 77 45 77 77c0 23 -16 38 -46 38c-38 0 -57 -22 -57 -52z" />
    <glyph glyph-name="ampersandinferior" horiz-adv-x="445" 
d="M364 -150h-82l-36 42c-39 -29 -86 -49 -142 -49c-80 0 -135 40 -135 104s55 101 113 132c-24 29 -41 56 -41 92c0 66 58 106 128 106c65 0 114 -35 114 -89c0 -55 -53 -90 -109 -123l72 -81c22 27 38 58 49 87h77c-12 -38 -39 -92 -81 -138zM106 -100c35 0 69 16 98 40
l-83 94c-42 -25 -75 -50 -75 -85c0 -21 13 -49 60 -49zM111 170c0 -24 12 -45 26 -63c43 22 77 45 77 77c0 23 -16 38 -46 38c-39 0 -57 -22 -57 -52z" />
    <glyph glyph-name="ampersand.sc" horiz-adv-x="623" 
d="M558 0h-105l-53 59c-53 -40 -119 -68 -197 -68c-108 0 -183 54 -183 142c0 87 77 138 157 180c-34 40 -57 77 -57 127c0 90 79 143 171 143c86 0 154 -47 154 -119c0 -74 -72 -124 -149 -169l104 -117c31 39 55 83 70 125h99c-16 -51 -53 -127 -111 -191zM206 65
c51 0 99 22 140 56l-118 134c-61 -36 -111 -73 -111 -121c0 -33 23 -69 89 -69zM208 437c0 -33 18 -62 39 -87c60 32 108 63 108 109c0 29 -20 53 -64 53c-54 0 -83 -35 -83 -75z" />
    <glyph glyph-name="kinferior" horiz-adv-x="357" 
d="M309 165l-135 -128l99 -187h-77l-73 139l-60 -56l-14 -83h-75l77 437h76l-46 -258l136 136h92z" />
    <glyph glyph-name="ksuperior" horiz-adv-x="367" 
d="M403 700l-135 -128l99 -187h-77l-73 138l-60 -56l-14 -82h-75l77 437h76l-46 -258l136 136h92z" />
    <glyph glyph-name="ainferior" horiz-adv-x="403" 
d="M272 -150h-76l7 41c-27 -21 -71 -48 -121 -48c-51 0 -102 31 -102 118c0 123 64 211 156 211c50 0 86 -27 109 -46l7 39h76zM108 -96c43 0 77 25 107 51l20 114c-22 22 -50 42 -82 42c-60 0 -95 -70 -95 -143c0 -41 17 -64 50 -64z" />
    <glyph glyph-name="Zsuperior" horiz-adv-x="416" 
d="M464 805l-9 -60l-292 -294h241l-11 -66h-346l11 60l292 294h-225l11 66h328z" />
    <glyph glyph-name="Zinferior" horiz-adv-x="416" 
d="M370 270l-9 -60l-292 -294h241l-11 -66h-346l11 60l292 294h-225l11 66h328z" />
    <glyph glyph-name="Zdotaccent.sc" horiz-adv-x="555" 
d="M556 574l-13 -77l-412 -412h342l-15 -85h-474l14 78l409 411h-315l14 85h450zM290 631l17 103h97l-18 -103h-96z" />
    <glyph glyph-name="Zcaron.sc" horiz-adv-x="555" 
d="M556 574l-13 -77l-412 -412h342l-15 -85h-474l14 78l409 411h-315l14 85h450zM281 621l-77 133h69l68 -82l96 82h79l-124 -133h-111z" />
    <glyph glyph-name="Zacute.sc" horiz-adv-x="555" 
d="M556 574l-13 -77l-412 -412h342l-15 -85h-474l14 78l409 411h-315l14 85h450zM341 621h-91l140 133h138z" />
    <glyph glyph-name="Z.sc" horiz-adv-x="555" 
d="M555 574l-13 -77l-411 -412h341l-14 -85h-474l13 78l409 411h-315l14 85h450z" />
    <glyph glyph-name="linferior" horiz-adv-x="183" 
d="M49 -150h-75l77 437h76z" />
    <glyph glyph-name="Ysuperior" horiz-adv-x="410" 
d="M181 385l29 167l-114 253h83l76 -193l144 193h93l-203 -254l-29 -166h-79z" />
    <glyph glyph-name="lira.onum" horiz-adv-x="511" 
d="M65 270l8 51h58c-13 31 -27 62 -27 103c0 95 72 159 189 159c93 0 163 -44 207 -73l-50 -60c-48 28 -98 49 -142 49c-69 0 -106 -39 -106 -85c0 -35 17 -62 30 -93h165l-9 -51h-141c1 -7 2 -15 2 -22c0 -9 -1 -17 -2 -25h132l-8 -50h-142c-24 -44 -62 -76 -81 -89h264
l-15 -84h-389l12 68s81 39 117 105h-89l8 50h97c1 4 1 8 1 13c0 12 -2 23 -4 34h-85z" />
    <glyph glyph-name="lirainferior" horiz-adv-x="368" 
d="M5 48l5 38h41c-10 22 -19 45 -19 74c0 71 53 117 138 117c71 0 122 -33 156 -55l-40 -47c-35 22 -70 37 -103 37c-46 0 -73 -28 -73 -60c0 -24 12 -44 23 -66h117l-7 -38h-97c1 -5 1 -11 1 -16c0 -6 -1 -12 -2 -17h92l-6 -38h-100c-17 -30 -46 -51 -58 -62h188l-10 -65
h-288l9 53s58 27 84 74h-64l6 38h70v8c0 8 -1 17 -3 25h-60z" />
    <glyph glyph-name="lirasuperior" horiz-adv-x="377" 
d="M103 583l5 38h41c-10 22 -19 45 -19 74c0 71 53 117 138 117c71 0 122 -33 156 -55l-40 -47c-35 22 -70 37 -103 37c-46 0 -73 -28 -73 -60c0 -24 12 -44 23 -66h117l-7 -38h-97c1 -5 1 -11 1 -16c0 -6 -1 -12 -2 -17h92l-6 -38h-100c-17 -31 -46 -52 -58 -62h188
l-10 -65h-288l9 53s58 27 84 74h-64l6 38h70v8c0 8 -1 17 -3 25h-60z" />
    <glyph glyph-name="Yinferior" horiz-adv-x="409" 
d="M87 -150l29 167l-114 253h83l76 -193l144 193h93l-203 -254l-29 -166h-79z" />
    <glyph glyph-name="Ygrave.sc" horiz-adv-x="575" 
d="M183 0l40 227l-159 347h106l110 -270l204 270h119l-281 -347l-39 -227h-100zM432 621h-80l-147 133h124z" />
    <glyph glyph-name="Ydieresis.sc" horiz-adv-x="575" 
d="M183 0l40 227l-159 347h106l110 -270l204 270h119l-281 -347l-39 -227h-100zM208 631l19 103h96l-18 -103h-97zM384 631l18 103h95l-19 -103h-94z" />
    <glyph glyph-name="Yacute.sc" horiz-adv-x="575" 
d="M183 0l40 227l-159 347h106l110 -270l204 270h119l-281 -347l-39 -227h-100zM347 621h-91l142 133h136z" />
    <glyph glyph-name="Y.sc" horiz-adv-x="575" 
d="M183 0l40 227l-159 347h106l110 -270l204 270h119l-281 -347l-39 -227h-100z" />
    <glyph glyph-name="Xsuperior" horiz-adv-x="420" 
d="M112 805h86l69 -163l124 163h95l-178 -210l112 -210h-89l-72 162l-129 -162h-100l185 210z" />
    <glyph glyph-name="Xinferior" horiz-adv-x="420" 
d="M18 270h86l69 -163l124 163h95l-178 -210l112 -210h-89l-72 162l-129 -162h-100l185 210z" />
    <glyph glyph-name="minferior" horiz-adv-x="591" 
d="M103 165l-8 -41c26 20 71 48 117 48c50 0 76 -23 84 -56c23 20 76 56 127 56c71 0 94 -44 83 -105l-38 -217h-75l38 207c5 30 0 56 -36 56c-35 0 -77 -27 -100 -49l-37 -214h-77l38 207c6 30 1 56 -35 56c-35 0 -76 -27 -99 -49l-38 -214h-75l56 315h75z" />
    <glyph glyph-name="X.sc" horiz-adv-x="562" 
d="M76 574h109l99 -231l178 231h123l-247 -287l156 -287h-112l-107 226l-183 -226h-127l255 288z" />
    <glyph glyph-name="Wsuperior" horiz-adv-x="608" 
d="M403 385l-28 315l-140 -315h-81l-47 420h86l22 -316l142 316h69l27 -319l133 319h92l-195 -420h-80z" />
    <glyph glyph-name="Winferior" horiz-adv-x="607" 
d="M309 -150l-28 315l-140 -315h-81l-47 420h86l22 -316l142 316h69l27 -318l133 318h92l-195 -420h-80z" />
    <glyph glyph-name="Wgrave.sc" horiz-adv-x="842" 
d="M487 0l-41 445l-202 -445h-100l-67 574h110l34 -448l201 448h87l40 -450l191 450h117l-268 -574h-102zM560 621h-79l-146 133h123z" />
    <glyph glyph-name="Wdieresis.sc" horiz-adv-x="842" 
d="M487 0l-41 445l-202 -445h-100l-67 574h110l34 -448l201 448h87l40 -450l191 450h117l-268 -574h-102zM341 631l18 103h97l-19 -103h-96zM517 631l18 103h95l-19 -103h-94z" />
    <glyph glyph-name="Wcircumflex.sc" horiz-adv-x="842" 
d="M487 0l-41 445l-202 -445h-100l-67 574h110l34 -448l201 448h87l40 -450l191 450h117l-268 -574h-102zM554 754l78 -133h-69l-68 82l-96 -82h-79l123 133h111z" />
    <glyph glyph-name="Wacute.sc" horiz-adv-x="842" 
d="M487 0l-41 445l-202 -445h-100l-67 574h110l34 -448l201 448h87l40 -450l191 450h117l-268 -574h-102zM479 621h-91l142 133h137z" />
    <glyph glyph-name="W.sc" horiz-adv-x="842" 
d="M487 0l-41 444l-201 -444h-101l-67 574h110l34 -449l202 449h87l40 -449l190 449h118l-269 -574h-102z" />
    <glyph glyph-name="Vsuperior" horiz-adv-x="444" 
d="M190 805l59 -339l177 339h95l-240 -420h-86l-93 420h88z" />
    <glyph glyph-name="Vinferior" horiz-adv-x="444" 
d="M95 270l59 -338l177 338h95l-240 -420h-86l-93 420h88z" />
    <glyph glyph-name="nine.dnom" horiz-adv-x="415" 
d="M81 57c83 0 159 47 190 128c-19 -15 -54 -35 -107 -35c-85 0 -134 55 -134 122c0 80 61 155 171 155s164 -76 164 -158c0 -152 -120 -276 -281 -276c-46 0 -73 11 -73 11l27 57s18 -4 43 -4zM185 209c47 0 86 28 101 48c1 6 1 11 1 17c0 47 -27 89 -83 89
c-63 0 -96 -43 -96 -89c0 -33 23 -65 77 -65z" />
    <glyph glyph-name="nine.numr" horiz-adv-x="415" 
d="M130 337c83 0 159 46 191 128c-19 -15 -54 -35 -107 -35c-86 0 -134 55 -134 122c0 80 60 155 170 155s164 -76 164 -158c0 -152 -119 -276 -281 -276c-46 0 -73 11 -73 11l27 57s18 -4 43 -4zM234 489c49 0 89 30 103 50v15c0 47 -28 89 -84 89c-62 0 -96 -43 -96 -89
c0 -33 23 -65 77 -65z" />
    <glyph glyph-name="nine.onum" horiz-adv-x="617" 
d="M120 -53c139 0 264 94 315 239c-30 -27 -89 -66 -178 -66c-135 0 -209 94 -209 200c0 133 96 260 270 260c167 0 248 -124 248 -252c0 -258 -191 -470 -442 -470c-68 0 -111 16 -111 16l40 81s28 -8 67 -8zM284 203c82 0 151 57 174 95c1 11 1 23 1 35
c0 80 -45 158 -138 158c-106 0 -165 -83 -165 -167c0 -60 38 -121 128 -121z" />
    <glyph glyph-name="nine.tnum" horiz-adv-x="645" 
d="M155 78c139 0 264 94 315 239c-30 -27 -89 -66 -178 -66c-136 0 -209 94 -209 200c0 133 96 260 269 260c168 0 249 -124 249 -252c0 -258 -191 -470 -442 -470c-69 0 -111 16 -111 16l39 81s29 -8 68 -8zM319 334c83 0 152 59 174 97c0 11 1 22 1 33
c0 80 -46 158 -139 158c-105 0 -164 -83 -164 -167c0 -60 38 -121 128 -121z" />
    <glyph glyph-name="V.sc" horiz-adv-x="617" 
d="M180 574l88 -472l250 472h122l-330 -574h-112l-128 574h110z" />
    <glyph glyph-name="Utilde.sc" horiz-adv-x="626" 
d="M260 629l-48 31c34 49 59 83 107 83c52 0 86 -49 120 -49c13 0 28 6 58 47l48 -31c-34 -49 -59 -83 -107 -83c-53 0 -86 49 -120 49c-13 0 -28 -6 -58 -47zM598 574l-64 -363c-21 -121 -85 -220 -268 -220c-194 0 -229 105 -205 242l60 341h100l-64 -358
c-14 -77 -2 -139 109 -139c112 0 155 62 169 139l63 358h100z" />
    <glyph glyph-name="ninferior" horiz-adv-x="397" 
d="M103 165l-7 -39c28 18 80 46 131 46c70 0 95 -44 84 -107l-37 -215h-76l38 207c5 31 -1 56 -38 56c-40 0 -90 -28 -113 -46l-38 -217h-75l56 315h75z" />
    <glyph glyph-name="Usuperior" horiz-adv-x="464" 
d="M494 805l-47 -265c-15 -89 -61 -162 -195 -162c-144 0 -169 79 -151 180l43 247h78l-46 -262c-10 -55 -2 -98 76 -98s107 43 117 98l46 262h79z" />
    <glyph glyph-name="Uring.sc" horiz-adv-x="626" 
d="M275 717c0 59 47 107 106 107s107 -48 107 -107s-48 -106 -107 -106s-106 47 -106 106zM329 717c0 -29 23 -51 52 -51s52 22 52 51s-23 52 -52 52s-52 -23 -52 -52zM598 574l-64 -363c-21 -121 -85 -220 -268 -220c-194 0 -229 105 -205 242l60 341h100l-64 -358
c-14 -77 -2 -139 109 -139c112 0 155 62 169 139l63 358h100z" />
    <glyph glyph-name="Uogonek.sc" horiz-adv-x="627" 
d="M599 574l-64 -363c-18 -100 -65 -185 -184 -211c-71 -36 -113 -67 -113 -103c0 -32 44 -28 73 -28l-20 -55c-35 0 -128 -4 -128 72c0 44 36 77 94 105c-186 4 -219 107 -195 242l60 341h100l-64 -358c-14 -77 -2 -139 109 -139c112 0 154 62 168 139l64 358h100z" />
    <glyph glyph-name="Umacron.sc" horiz-adv-x="626" 
d="M223 646l12 65h294l-11 -65h-295zM598 574l-64 -363c-21 -121 -85 -220 -268 -220c-194 0 -229 105 -205 242l60 341h100l-64 -358c-14 -77 -2 -139 109 -139c112 0 155 62 169 139l63 358h100z" />
    <glyph glyph-name="numbersign.onum" horiz-adv-x="660" 
d="M304 0l46 137h-147l-46 -137h-77l46 137h-107l11 73h121l51 153h-107l11 73h121l47 138h77l-47 -138h147l47 138h77l-47 -138h108l-11 -73h-122l-52 -153h110l-12 -73h-123l-46 -137h-76zM279 363l-51 -153h147l51 153h-147z" />
    <glyph glyph-name="numbersigninferior" horiz-adv-x="478" 
d="M176 -150l33 99h-103l-33 -99h-60l33 99h-76l10 57h86l36 108h-76l9 57h86l34 99h60l-34 -99h102l33 99h60l-33 -99h78l-10 -57h-87l-36 -108h77l-9 -57h-87l-33 -99h-60zM162 114l-36 -108h102l36 108h-102z" />
    <glyph glyph-name="numbersignsuperior" horiz-adv-x="478" 
d="M273 385l33 99h-103l-33 -99h-60l33 99h-76l10 57h86l36 108h-76l9 57h86l34 99h60l-34 -99h102l33 99h60l-33 -99h78l-10 -57h-87l-36 -108h77l-9 -57h-87l-33 -99h-60zM259 649l-36 -108h102l36 108h-102z" />
    <glyph glyph-name="Uinferior" horiz-adv-x="465" 
d="M401 270l-47 -265c-15 -89 -61 -162 -195 -162c-144 0 -169 79 -151 180l43 247h79l-47 -262c-10 -55 -2 -98 76 -98s107 43 117 98l46 262h79z" />
    <glyph glyph-name="Uhungarumlaut.sc" horiz-adv-x="626" 
d="M462 621h-66l98 133h112zM303 621h-66l98 133h112zM598 574l-64 -363c-21 -121 -85 -220 -268 -220c-194 0 -229 105 -205 242l60 341h100l-64 -358c-14 -77 -2 -139 109 -139c112 0 155 62 169 139l63 358h100z" />
    <glyph glyph-name="Ugrave.sc" horiz-adv-x="626" 
d="M452 621h-80l-146 133h123zM598 574l-64 -363c-21 -121 -85 -220 -268 -220c-194 0 -229 105 -205 242l60 341h100l-64 -358c-14 -77 -2 -139 109 -139c112 0 155 62 169 139l63 358h100z" />
    <glyph glyph-name="Udieresis.sc" horiz-adv-x="626" 
d="M233 631l17 103h97l-18 -103h-96zM408 631l18 103h96l-18 -103h-96zM598 574l-64 -363c-21 -121 -85 -220 -268 -220c-194 0 -229 105 -205 242l60 341h100l-64 -358c-14 -77 -2 -139 109 -139c112 0 155 62 169 139l63 358h100z" />
    <glyph glyph-name="Ucircumflex.sc" horiz-adv-x="626" 
d="M445 754l77 -133h-67l-69 82l-96 -82h-79l124 133h110zM598 574l-64 -363c-21 -121 -85 -220 -268 -220c-194 0 -229 105 -205 242l60 341h100l-64 -358c-14 -77 -2 -139 109 -139c112 0 155 62 169 139l63 358h100z" />
    <glyph glyph-name="Ubreve.sc" horiz-adv-x="626" 
d="M368 621c-93 0 -141 46 -130 112h70c-5 -34 15 -50 61 -50c50 0 89 16 96 50h70c-12 -69 -71 -112 -167 -112zM598 574l-64 -363c-21 -121 -85 -220 -268 -220c-194 0 -229 105 -205 242l60 341h100l-64 -358c-14 -77 -2 -139 109 -139c112 0 155 62 169 139l63 358h100z
" />
    <glyph glyph-name="Uacute.sc" horiz-adv-x="626" 
d="M372 621h-92l141 133h138zM598 574l-64 -363c-21 -121 -85 -220 -268 -220c-194 0 -229 105 -205 242l60 341h100l-64 -358c-14 -77 -2 -139 109 -139c112 0 155 62 169 139l63 358h100z" />
    <glyph glyph-name="U.sc" horiz-adv-x="627" 
d="M600 574l-64 -363c-21 -121 -86 -220 -268 -220c-195 0 -229 105 -205 242l60 341h100l-64 -358c-14 -77 -2 -139 109 -139c112 0 154 62 168 139l64 358h100z" />
    <glyph glyph-name="Tsuperior" horiz-adv-x="384" 
d="M440 739h-131l-63 -354h-79l63 354h-132l11 66h342z" />
    <glyph glyph-name="oinferior" horiz-adv-x="397" 
d="M158 172c100 0 160 -53 160 -142c0 -102 -65 -187 -177 -187c-100 0 -160 53 -160 142c0 102 65 187 177 187zM139 -98c67 0 101 68 101 129c0 46 -20 82 -80 82c-67 0 -101 -68 -101 -129c0 -46 20 -82 80 -82z" />
    <glyph glyph-name="Tinferior" horiz-adv-x="384" 
d="M346 204h-131l-63 -354h-79l63 354h-132l11 66h342z" />
    <glyph glyph-name="Thorn.sc" horiz-adv-x="591" 
d="M551 316c0 -110 -88 -201 -248 -201h-154l-20 -115h-100l101 574h100l-17 -97h116c136 0 222 -49 222 -161zM448 314c0 60 -52 79 -119 79h-130l-36 -195h127c90 0 158 39 158 116z" />
    <glyph glyph-name="one.dnom" horiz-adv-x="262" 
d="M147 0h-79l63 342l-81 -38l-26 55l124 61h73z" />
    <glyph glyph-name="one.numr" horiz-adv-x="263" 
d="M198 280h-80l63 342l-81 -38l-26 55l125 61h73z" />
    <glyph glyph-name="one.onum" horiz-adv-x="376" 
d="M239 0h-107l83 463l-131 -64l-35 78l192 97h99z" />
    <glyph glyph-name="one.tnum" horiz-adv-x="645" 
d="M28 0l15 91h204l89 498l-171 -82l-34 77l231 116h99l-107 -609h204l-15 -91h-515z" />
    <glyph glyph-name="Tcedilla.sc" horiz-adv-x="513" 
d="M54 -157l32 56c19 -10 37 -12 50 -12c30 0 59 13 59 52c0 27 -13 56 -16 61h-26l87 489h-185l14 85h469l-15 -85h-183l-86 -489h-27c3 -5 26 -37 26 -78c0 -63 -47 -98 -115 -98c-27 0 -60 6 -84 19z" />
    <glyph glyph-name="oneeighth.onum" horiz-adv-x="752" 
d="M369 86c0 56 54 86 104 104c-28 16 -49 38 -49 71c0 51 54 89 134 89c77 0 122 -33 122 -80c0 -43 -41 -69 -81 -86c37 -17 72 -43 72 -88c0 -60 -69 -102 -163 -102c-84 0 -139 33 -139 92zM552 574l-388 -574h-70l388 574h70zM175 230h-66l51 280l-70 -31l-22 45
l107 50h60zM603 99c0 33 -35 51 -68 64c-48 -14 -100 -33 -100 -73c0 -31 30 -46 73 -46c51 0 95 21 95 55zM488 254c0 -24 25 -37 46 -46c40 12 81 25 81 54c0 24 -21 41 -56 41c-40 0 -71 -22 -71 -49z" />
    <glyph glyph-name="onefifth" horiz-adv-x="859" 
d="M487 210l60 210h261l-10 -65h-196l-24 -93c19 6 39 10 63 10c90 0 136 -58 136 -127c0 -79 -64 -152 -178 -152c-81 0 -135 37 -161 56l42 50c18 -13 57 -39 111 -39c51 0 107 28 107 84c0 39 -27 65 -77 65c-38 0 -71 -15 -91 -26zM650 700l-452 -700h-83l451 700h84z
M211 280h-79l62 342l-81 -38l-25 55l124 61h73z" />
    <glyph glyph-name="onefifth.onum" horiz-adv-x="752" 
d="M417 172l50 172h224l-8 -53h-170l-20 -76c16 5 34 8 55 8c79 0 119 -48 119 -104c0 -66 -55 -125 -153 -125c-70 0 -116 31 -139 46l35 41c15 -10 50 -32 97 -32c45 0 93 23 93 68c0 33 -23 55 -68 55c-33 0 -61 -13 -78 -22zM554 574l-388 -574h-71l388 574h71zM176 230
h-66l51 280l-70 -31l-22 45l107 50h60z" />
    <glyph glyph-name="Tcaron.sc" horiz-adv-x="514" 
d="M525 489h-184l-86 -489h-100l86 489h-185l14 85h469zM258 621l-78 133h69l68 -82l96 82h79l-124 -133h-110z" />
    <glyph glyph-name="onehalf.onum" horiz-adv-x="754" 
d="M657 54l-9 -54h-271l5 32c12 77 76 108 144 145c62 32 105 54 104 85c-1 20 -21 35 -58 35c-40 0 -79 -18 -106 -32l-26 45c28 16 78 40 138 40c76 0 118 -38 118 -88c0 -67 -81 -104 -152 -140c-55 -27 -75 -40 -81 -68h194zM175 230h-66l51 280l-70 -31l-22 45l107 50
h60zM553 574l-387 -574h-72l388 574h71z" />
    <glyph glyph-name="Tbar.sc" horiz-adv-x="523" 
d="M101 180l10 60h89l45 249h-185l14 85h469l-14 -85h-184l-45 -249h89l-10 -60h-89l-32 -180h-100l32 180h-89z" />
    <glyph glyph-name="T.sc" horiz-adv-x="514" 
d="M525 489h-184l-87 -489h-100l87 489h-185l14 85h469z" />
    <glyph glyph-name="onequarter.onum" horiz-adv-x="730" 
d="M328 69l7 46l219 229h86l-40 -222h57l-7 -53h-59l-12 -69h-66l12 69h-197zM553 574l-387 -574h-72l388 574h71zM175 230h-66l51 280l-70 -31l-22 45l107 50h60zM411 122h123l30 165z" />
    <glyph glyph-name="onesixth" horiz-adv-x="840" 
d="M714 363c-82 0 -158 -47 -190 -128c20 16 54 35 106 35c86 0 135 -55 135 -123c0 -79 -61 -154 -171 -154s-164 76 -164 157c0 153 119 277 280 277c46 0 74 -11 74 -11l-27 -57s-18 4 -43 4zM650 700l-452 -700h-83l452 700h83zM211 280h-79l62 342l-81 -38l-26 55
l125 61h73zM610 211c-48 0 -87 -29 -102 -49v-16c0 -47 27 -89 82 -89c63 0 97 43 97 89c0 33 -24 65 -77 65z" />
    <glyph glyph-name="onesixth.onum" horiz-adv-x="735" 
d="M611 298c-73 0 -139 -39 -166 -105c17 12 47 28 93 28c76 0 118 -45 118 -101c0 -65 -52 -126 -147 -126c-96 0 -142 63 -142 131c0 124 102 225 240 225c39 0 63 -9 63 -9l-22 -47s-16 4 -37 4zM554 574l-387 -574h-71l388 574h70zM176 230h-65l51 280l-71 -31l-22 45
l107 50h60zM522 173c-42 0 -77 -23 -90 -39v-12c0 -39 24 -75 74 -75c55 0 85 34 85 72c0 27 -21 54 -69 54z" />
    <glyph glyph-name="Ssuperior" horiz-adv-x="417" 
d="M309 625c54 -22 109 -50 109 -118c0 -77 -70 -129 -167 -129c-77 0 -150 33 -193 61l42 53c37 -22 96 -49 149 -49c47 0 86 22 86 56c0 41 -60 51 -120 75c-54 21 -102 49 -102 113c0 73 62 125 160 125c68 0 132 -27 177 -51l-42 -52c-35 19 -93 38 -133 38
c-41 0 -78 -18 -78 -54c0 -37 47 -42 112 -68z" />
    <glyph glyph-name="Sinferior" horiz-adv-x="417" 
d="M215 90c54 -22 109 -50 109 -118c0 -77 -71 -129 -167 -129c-77 0 -150 33 -193 61l42 53c37 -22 97 -49 149 -49c47 0 86 22 86 56c0 41 -60 51 -120 75c-54 21 -102 49 -102 113c0 73 62 125 160 125c68 0 132 -27 177 -51l-42 -52c-35 19 -93 38 -133 38
c-41 0 -78 -18 -78 -54c0 -37 47 -42 112 -68z" />
    <glyph glyph-name="onethird.onum" horiz-adv-x="746" 
d="M366 40l33 41c28 -16 63 -33 111 -33c54 0 88 24 88 56c0 40 -50 54 -103 54h-16l7 54h20c50 0 105 19 105 51c0 21 -21 34 -54 34c-39 0 -81 -19 -102 -29l-22 44c15 9 67 38 134 38c73 0 110 -35 110 -77c0 -35 -28 -67 -85 -86c41 -10 73 -43 73 -85
c0 -51 -45 -108 -149 -108c-77 0 -128 33 -150 46zM175 230h-66l51 280l-70 -31l-22 45l107 50h60zM553 574l-388 -574h-71l388 574h71z" />
    <glyph glyph-name="Scommaaccent.sc" horiz-adv-x="554" 
d="M152 -165l18 104h89l-9 -111l-97 -108l-21 29l61 86h-41zM334 327c77 -30 155 -67 155 -161c0 -105 -99 -175 -231 -175c-104 0 -200 44 -259 81l54 69c53 -30 131 -67 205 -67c67 0 125 31 125 82c0 56 -80 71 -165 105c-75 30 -143 64 -143 153c0 99 87 169 219 169
c92 0 178 -35 238 -68l-53 -67c-49 25 -123 51 -184 51c-59 0 -113 -26 -113 -78c0 -50 65 -59 152 -94z" />
    <glyph glyph-name="Scircumflex.sc" horiz-adv-x="554" 
d="M413 754l77 -133h-68l-69 82l-95 -82h-79l124 133h110zM335 327c77 -30 154 -67 154 -161c0 -105 -99 -175 -230 -175c-105 0 -201 44 -260 81l54 69c53 -30 131 -67 205 -67c67 0 126 31 126 82c0 56 -81 71 -166 105c-75 30 -143 64 -143 153c0 99 88 169 219 169
c93 0 178 -35 239 -68l-53 -67c-50 25 -124 51 -185 51c-58 0 -113 -26 -113 -78c0 -50 65 -59 153 -94z" />
    <glyph glyph-name="Scedilla.sc" horiz-adv-x="555" 
d="M334 327c77 -30 155 -67 155 -161c0 -101 -91 -169 -215 -174c8 -13 21 -39 21 -71c0 -63 -47 -98 -114 -98c-28 0 -61 6 -85 20l32 56c19 -10 38 -13 51 -13c28 0 58 14 58 53c0 21 -8 43 -13 54c-91 7 -173 46 -225 79l54 69c53 -30 131 -67 205 -67
c67 0 125 31 125 82c0 56 -80 71 -165 105c-75 30 -143 64 -143 153c0 99 87 169 219 169c92 0 178 -35 238 -68l-53 -67c-49 25 -123 51 -184 51c-59 0 -113 -26 -113 -78c0 -50 65 -59 152 -94z" />
    <glyph glyph-name="Scaron.sc" horiz-adv-x="554" 
d="M280 621l-79 133h69l68 -82l97 82h78l-123 -133h-110zM335 327c77 -30 154 -67 154 -161c0 -105 -99 -175 -230 -175c-105 0 -201 44 -260 81l54 69c53 -30 131 -67 205 -67c67 0 126 31 126 82c0 56 -81 71 -166 105c-75 30 -143 64 -143 153c0 99 88 169 219 169
c93 0 178 -35 239 -68l-53 -67c-50 25 -124 51 -185 51c-58 0 -113 -26 -113 -78c0 -50 65 -59 153 -94z" />
    <glyph glyph-name="Sacute.sc" horiz-adv-x="554" 
d="M339 621h-91l140 133h138zM335 327c77 -30 154 -67 154 -161c0 -105 -99 -175 -230 -175c-105 0 -201 44 -260 81l54 69c53 -30 131 -67 205 -67c67 0 126 31 126 82c0 56 -81 71 -166 105c-75 30 -143 64 -143 153c0 99 88 169 219 169c93 0 178 -35 239 -68l-53 -67
c-50 25 -124 51 -185 51c-58 0 -113 -26 -113 -78c0 -50 65 -59 153 -94z" />
    <glyph glyph-name="S.sc" horiz-adv-x="554" 
d="M334 327c77 -30 155 -67 155 -161c0 -105 -99 -175 -231 -175c-104 0 -200 44 -259 81l54 69c53 -30 131 -67 205 -67c67 0 125 31 125 82c0 56 -80 71 -165 105c-75 30 -143 64 -143 153c0 99 87 169 219 169c92 0 178 -35 238 -68l-53 -67c-49 25 -123 51 -184 51
c-59 0 -113 -26 -113 -78c0 -50 65 -59 152 -94z" />
    <glyph glyph-name="Rsuperior" horiz-adv-x="457" 
d="M353 385l-80 168h-88l-30 -168h-78l74 420h177c101 0 159 -37 159 -115c0 -70 -52 -124 -138 -135l84 -170h-80zM407 690c0 41 -35 54 -84 54h-104l-23 -130h103c66 0 108 27 108 76z" />
    <glyph glyph-name="Rinferior" horiz-adv-x="456" 
d="M258 -150l-80 168h-88l-30 -168h-78l74 420h177c101 0 159 -37 159 -115c0 -70 -52 -124 -138 -135l84 -170h-80zM312 155c0 41 -35 54 -84 54h-104l-23 -130h103c66 0 108 27 108 76z" />
    <glyph glyph-name="paragraph.sc" horiz-adv-x="597" 
d="M302 574h88l-128 -726h-84l64 351c-113 0 -194 50 -194 159c0 142 112 216 254 216zM347 -153l128 727h84l-128 -727h-84z" />
    <glyph glyph-name="Rcommaaccent.sc" horiz-adv-x="614" 
d="M411 0l-112 232h-129l-41 -232h-100l101 574h241c135 0 217 -48 217 -153c0 -92 -73 -171 -194 -186l119 -235h-102zM485 419c0 57 -53 75 -121 75h-147l-34 -182h147c94 0 155 37 155 107zM177 -165l18 104h89l-10 -111l-95 -108l-22 29l62 86h-42z" />
    <glyph glyph-name="parenleft.sc" horiz-adv-x="308" 
d="M35 58l82 455c19 104 31 139 197 175l20 -61c-94 -27 -104 -43 -113 -96l-89 -491c-11 -62 -10 -75 68 -101l-27 -56c-153 37 -155 79 -138 175z" />
    <glyph glyph-name="Rcaron.sc" horiz-adv-x="614" 
d="M411 0l-112 232h-128l-42 -232h-100l101 574h241c135 0 217 -48 217 -153c0 -92 -72 -171 -193 -186l118 -235h-102zM485 419c0 57 -53 75 -121 75h-147l-34 -182h147c94 0 155 37 155 107zM324 621l-78 133h69l68 -82l97 82h78l-123 -133h-111z" />
    <glyph glyph-name="Racute.sc" horiz-adv-x="614" 
d="M411 0l-112 232h-128l-42 -232h-100l101 574h241c135 0 217 -48 217 -153c0 -92 -72 -171 -193 -186l118 -235h-102zM485 419c0 57 -53 75 -121 75h-147l-34 -182h147c94 0 155 37 155 107zM384 621h-92l141 133h138z" />
    <glyph glyph-name="R.sc" horiz-adv-x="614" 
d="M411 0l-112 232h-129l-41 -232h-100l101 574h241c135 0 217 -48 217 -153c0 -92 -73 -171 -194 -186l119 -235h-102zM485 419c0 57 -53 75 -121 75h-147l-34 -182h147c94 0 155 37 155 107z" />
    <glyph glyph-name="parenright.sc" horiz-adv-x="306" 
d="M266 513l-82 -455c-19 -105 -30 -139 -196 -175l-20 60c93 27 103 43 113 97l88 490c11 62 10 75 -67 102l27 56c152 -37 155 -80 137 -175z" />
    <glyph glyph-name="f_b.ss01" horiz-adv-x="970" 
d="M57 447l14 78h71l10 58c19 107 73 146 154 146c64 0 141 -18 200 -35l6 35h103l-48 -269c43 34 109 76 185 76c83 0 168 -49 168 -189c0 -208 -96 -358 -242 -358c-85 0 -142 45 -180 79l-12 -68h-103l109 616c-36 7 -122 24 -167 24s-64 -26 -69 -56l-11 -59h136
l-13 -78h-137l-74 -419c-27 -154 -35 -199 -228 -245l-23 81c123 36 127 54 146 158l76 425h-71zM718 451c-63 0 -116 -38 -166 -79l-40 -222c37 -41 88 -76 145 -76c100 0 157 130 157 261c0 73 -31 116 -96 116z" />
    <glyph glyph-name="Qinferior" horiz-adv-x="495" 
d="M220 277c133 0 193 -73 194 -182c1 -79 -38 -203 -153 -241l60 -55l-55 -48l-87 92c-126 4 -182 76 -183 182c-1 93 54 252 224 252zM187 -90c106 0 147 113 147 183c0 61 -21 117 -111 117c-106 0 -147 -114 -147 -184c0 -61 22 -116 111 -116z" />
    <glyph glyph-name="Q.sc" horiz-adv-x="667" 
d="M351 583c184 0 265 -100 266 -249c1 -110 -56 -282 -216 -330l84 -75l-72 -63l-116 125c-174 5 -251 103 -252 248c-1 129 76 344 306 344zM307 76c149 0 207 159 207 257c0 85 -31 164 -159 164c-149 0 -207 -159 -207 -256c0 -85 31 -165 159 -165z" />
    <glyph glyph-name="Psuperior" horiz-adv-x="435" 
d="M473 687c0 -86 -67 -148 -179 -148h-111l-28 -154h-78l74 420h161c100 0 161 -38 161 -118zM392 684c0 43 -35 56 -83 56h-91l-24 -138h88c61 0 110 26 110 82z" />
    <glyph glyph-name="percent.onum" horiz-adv-x="880" 
d="M236 583c97 0 156 -51 156 -130c0 -98 -65 -177 -174 -177c-97 0 -157 50 -157 130c0 98 67 177 175 177zM220 335c61 0 96 60 96 113c0 42 -18 76 -81 76c-62 0 -97 -61 -97 -113c0 -43 18 -76 82 -76zM658 298c96 0 155 -50 155 -130c0 -98 -65 -177 -174 -177
c-96 0 -156 51 -156 130c0 98 67 177 175 177zM642 50c61 0 95 61 95 113c0 43 -18 76 -80 76s-98 -60 -98 -113c0 -42 19 -76 83 -76zM685 574l-417 -574h-78l416 574h79z" />
    <glyph glyph-name="percentinferior" horiz-adv-x="624" 
d="M135 277c69 0 112 -37 112 -94c0 -72 -48 -131 -129 -131c-69 0 -113 37 -113 94c0 71 49 131 130 131zM121 98c43 0 68 43 68 80c0 29 -13 53 -56 53c-44 0 -69 -43 -69 -81c0 -29 13 -52 57 -52zM439 68c70 0 113 -37 113 -94c0 -71 -48 -131 -129 -131
c-70 0 -113 37 -113 94c0 72 49 131 129 131zM425 -111c44 0 69 43 69 81c0 29 -13 52 -57 52c-43 0 -68 -43 -68 -80c0 -30 13 -53 56 -53zM460 270l-306 -427h-62l307 427h61z" />
    <glyph glyph-name="percentsuperior" horiz-adv-x="626" 
d="M216 812c69 0 112 -37 112 -94c0 -72 -48 -131 -129 -131c-69 0 -113 37 -113 94c0 71 49 131 130 131zM202 633c43 0 68 43 68 80c0 29 -13 53 -56 53c-44 0 -69 -43 -69 -81c0 -29 13 -52 57 -52zM520 603c70 0 113 -37 113 -94c0 -71 -48 -131 -129 -131
c-70 0 -113 37 -113 94c0 72 49 131 129 131zM506 424c44 0 69 43 69 81c0 29 -13 52 -57 52c-43 0 -68 -43 -68 -80c0 -30 13 -53 56 -53zM541 805l-306 -427h-62l307 427h61z" />
    <glyph glyph-name="Pinferior" horiz-adv-x="434" 
d="M378 152c0 -86 -67 -148 -179 -148h-111l-28 -154h-78l74 420h161c100 0 161 -38 161 -118zM297 149c0 43 -35 56 -83 56h-91l-24 -138h88c61 0 110 26 110 82z" />
    <glyph glyph-name="P.sc" horiz-adv-x="582" 
d="M567 412c0 -109 -87 -200 -247 -200h-153l-38 -212h-100l101 574h215c137 0 222 -49 222 -162zM464 411c0 60 -51 79 -118 79h-130l-35 -195h125c91 0 158 39 158 116z" />
    <glyph glyph-name="Otilde.sc" horiz-adv-x="667" 
d="M351 583c184 0 265 -100 266 -249c1 -128 -77 -343 -307 -343c-183 0 -264 100 -265 248c-1 129 76 344 306 344zM307 76c149 0 207 159 207 257c0 85 -31 164 -159 164c-149 0 -207 -159 -207 -256c0 -85 31 -165 159 -165zM282 629l-47 31c33 49 59 83 106 83
c53 0 86 -49 120 -49c14 0 29 6 59 47l47 -31c-33 -49 -59 -83 -106 -83c-53 0 -86 49 -120 49c-14 0 -29 -6 -59 -47z" />
    <glyph glyph-name="Osuperior" horiz-adv-x="495" 
d="M314 812c133 0 193 -73 194 -182c1 -93 -54 -252 -224 -252c-133 0 -193 73 -194 182c-1 93 54 252 224 252zM281 445c106 0 147 113 147 183c0 61 -21 117 -111 117c-106 0 -147 -114 -147 -184c0 -61 22 -116 111 -116z" />
    <glyph glyph-name="Oslashacute.sc" horiz-adv-x="666" 
d="M642 574l-75 -77c33 -42 49 -98 50 -163c1 -128 -77 -343 -307 -343c-81 0 -141 19 -184 53l-43 -44h-75l81 83c-29 41 -44 94 -44 156c-1 129 76 344 306 344c77 0 136 -18 178 -49l39 40h74zM307 76c149 0 207 159 207 257c0 33 -5 64 -18 91l-304 -312
c25 -22 61 -36 115 -36zM148 241c0 -30 3 -59 14 -84l301 309c-25 19 -59 31 -108 31c-149 0 -207 -159 -207 -256zM388 621h-92l142 133h138z" />
    <glyph glyph-name="perthousand.onum" horiz-adv-x="1251" 
d="M236 583c97 0 156 -51 156 -130c0 -98 -65 -177 -174 -177c-97 0 -157 50 -157 130c0 98 67 177 175 177zM220 335c61 0 96 60 96 113c0 42 -18 76 -81 76c-62 0 -97 -61 -97 -113c0 -43 18 -76 82 -76zM658 298c96 0 155 -50 155 -130c0 -98 -65 -177 -174 -177
c-96 0 -156 51 -156 130c0 98 67 177 175 177zM642 50c61 0 95 61 95 113c0 43 -18 76 -80 76s-98 -60 -98 -113c0 -42 19 -76 83 -76zM685 574l-417 -574h-78l416 574h79zM1031 298c97 0 155 -50 155 -130c0 -98 -66 -177 -174 -177c-97 0 -157 51 -157 130
c0 98 68 177 176 177zM1014 50c61 0 97 61 97 113c0 43 -19 76 -82 76c-62 0 -97 -60 -97 -113c0 -42 18 -76 82 -76z" />
    <glyph glyph-name="Omacron.sc" horiz-adv-x="667" 
d="M351 583c184 0 265 -100 266 -249c1 -128 -77 -343 -307 -343c-183 0 -264 100 -265 248c-1 129 76 344 306 344zM307 76c149 0 207 159 207 257c0 85 -31 164 -159 164c-149 0 -207 -159 -207 -256c0 -85 31 -165 159 -165zM245 646l12 65h295l-12 -65h-295z" />
    <glyph glyph-name="peseta.onum" horiz-adv-x="614" 
d="M77 374l6 36h26l29 164h214c137 0 222 -49 222 -162v-2h22l-6 -36h-20c-18 -92 -103 -162 -243 -162h-153l-38 -212h-99l66 374h-26zM472 411c0 60 -52 79 -119 79h-130l-15 -80h264v1zM314 295c74 0 133 26 152 79h-264l-14 -79h126z" />
    <glyph glyph-name="pesetainferior" horiz-adv-x="446" 
d="M13 121l6 30h17l21 119h161c100 0 161 -38 161 -118v-1h14l-4 -30h-13c-14 -70 -77 -117 -175 -117h-112l-27 -154h-79l47 271h-17zM125 205l-10 -54h183c-1 41 -36 54 -83 54h-90zM188 67c50 0 92 17 105 54h-183l-10 -54h88z" />
    <glyph glyph-name="pesetasuperior" horiz-adv-x="440" 
d="M106 656l6 30h17l21 119h161c100 0 161 -38 161 -118v-1h14l-4 -30h-13c-14 -70 -77 -117 -175 -117h-112l-27 -154h-79l47 271h-17zM218 740l-10 -54h183c-1 41 -36 54 -83 54h-90zM281 602c50 0 92 17 105 54h-183l-10 -54h88z" />
    <glyph glyph-name="Oinferior" horiz-adv-x="494" 
d="M219 277c133 0 193 -73 194 -182c1 -93 -54 -252 -224 -252c-133 0 -193 73 -194 182c-1 93 54 252 224 252zM186 -90c106 0 147 113 147 183c0 61 -21 117 -111 117c-106 0 -147 -114 -147 -184c0 -61 22 -116 111 -116z" />
    <glyph glyph-name="pinferior" horiz-adv-x="400" 
d="M-49 -272l77 437h76l-7 -37c26 19 66 44 115 44c52 0 107 -30 107 -119c0 -122 -61 -210 -152 -210c-53 0 -89 26 -113 45l-28 -160h-75zM184 111c-38 0 -69 -23 -98 -45l-21 -119c22 -23 51 -43 86 -43c57 0 91 70 91 142c0 42 -20 65 -58 65z" />
    <glyph glyph-name="Ohungarumlaut.sc" horiz-adv-x="667" 
d="M351 583c184 0 265 -100 266 -249c1 -128 -77 -343 -307 -343c-183 0 -264 100 -265 248c-1 129 76 344 306 344zM307 76c149 0 207 159 207 257c0 85 -31 164 -159 164c-149 0 -207 -159 -207 -256c0 -85 31 -165 159 -165zM484 621h-65l97 133h113zM326 621h-65l97 133
h112z" />
    <glyph glyph-name="plusinferior" horiz-adv-x="386" 
d="M145 190h59l-20 -111h129l-9 -57h-130l-19 -112h-59l19 112h-129l9 57h130z" />
    <glyph glyph-name="Ograve.sc" horiz-adv-x="667" 
d="M351 583c184 0 265 -100 266 -249c1 -128 -77 -343 -307 -343c-183 0 -264 100 -265 248c-1 129 76 344 306 344zM307 76c149 0 207 159 207 257c0 85 -31 164 -159 164c-149 0 -207 -159 -207 -256c0 -85 31 -165 159 -165zM475 621h-81l-145 133h123z" />
    <glyph glyph-name="Odieresis.sc" horiz-adv-x="667" 
d="M351 583c184 0 265 -100 266 -249c1 -128 -77 -343 -307 -343c-183 0 -264 100 -265 248c-1 129 76 344 306 344zM307 76c149 0 207 159 207 257c0 85 -31 164 -159 164c-149 0 -207 -159 -207 -256c0 -85 31 -165 159 -165zM256 631l19 103h96l-18 -103h-97zM430 631
l18 104h95l-18 -104h-95z" />
    <glyph glyph-name="Ocircumflex.sc" horiz-adv-x="667" 
d="M351 583c184 0 265 -100 266 -249c1 -128 -77 -343 -307 -343c-183 0 -264 100 -265 248c-1 129 76 344 306 344zM307 76c149 0 207 159 207 257c0 85 -31 164 -159 164c-149 0 -207 -159 -207 -256c0 -85 31 -165 159 -165zM468 754l78 -133h-69l-68 82l-95 -82h-80
l124 133h110z" />
    <glyph glyph-name="psuperior" horiz-adv-x="411" 
d="M52 263l77 437h76l-7 -37c26 19 66 44 115 44c52 0 107 -30 107 -119c0 -122 -61 -210 -152 -210c-53 0 -89 26 -113 45l-28 -160h-75zM285 646c-38 0 -69 -23 -98 -45l-21 -120c22 -22 51 -42 86 -42c57 0 91 70 91 142c0 42 -20 65 -58 65z" />
    <glyph glyph-name="Obreve.sc" horiz-adv-x="667" 
d="M351 583c184 0 265 -100 266 -249c1 -128 -77 -343 -307 -343c-183 0 -264 100 -265 248c-1 129 76 344 306 344zM307 76c149 0 207 159 207 257c0 85 -31 164 -159 164c-149 0 -207 -159 -207 -256c0 -85 31 -165 159 -165zM391 621c-93 0 -141 46 -129 112h69
c-5 -34 16 -50 61 -50c50 0 89 16 95 50h71c-12 -69 -72 -112 -167 -112z" />
    <glyph glyph-name="qinferior" horiz-adv-x="402" 
d="M250 -272h-75l29 164c-28 -22 -72 -49 -122 -49c-51 0 -102 31 -102 118c0 123 64 211 156 211c50 0 86 -27 109 -46l7 39h75zM108 -96c43 0 77 25 107 52l20 113c-22 22 -50 42 -82 42c-60 0 -95 -70 -95 -143c0 -41 17 -64 50 -64z" />
    <glyph glyph-name="qsuperior" horiz-adv-x="411" 
d="M346 263h-75l29 163c-28 -21 -72 -48 -122 -48c-51 0 -102 31 -102 118c0 123 64 211 156 211c50 0 86 -27 109 -46l7 39h75zM204 439c43 0 77 25 107 51l20 114c-22 22 -50 42 -82 42c-60 0 -95 -70 -95 -143c0 -41 17 -64 50 -64z" />
    <glyph glyph-name="Oacute.sc" horiz-adv-x="667" 
d="M351 583c184 0 265 -100 266 -249c1 -128 -77 -343 -307 -343c-183 0 -264 100 -265 248c-1 129 76 344 306 344zM307 76c149 0 207 159 207 257c0 85 -31 164 -159 164c-149 0 -207 -159 -207 -256c0 -85 31 -165 159 -165zM393 621h-91l142 133h137z" />
    <glyph glyph-name="question.sc" horiz-adv-x="463" 
d="M81 0l19 112h105l-19 -112h-105zM444 448c0 -106 -107 -159 -223 -182l-24 -87h-63l17 143c113 20 193 53 193 115c0 41 -36 62 -88 62c-54 0 -104 -22 -151 -46l-36 72c40 22 114 58 203 58c96 0 172 -47 172 -135z" />
    <glyph glyph-name="OE.sc" horiz-adv-x="972" 
d="M870 0h-407l6 34c-42 -27 -94 -43 -158 -43c-183 0 -264 100 -265 248c-1 129 76 344 306 344c94 0 162 -27 205 -73l12 64h401l-13 -85h-303l-30 -160h248l-14 -84h-249l-31 -160h306zM308 76c149 0 207 159 207 257c0 85 -31 164 -159 164c-149 0 -207 -159 -207 -256
c0 -85 31 -165 159 -165z" />
    <glyph glyph-name="questiondown.sc" horiz-adv-x="465" 
d="M376 574l-19 -112h-104l20 112h103zM14 126c0 106 108 159 226 181l22 88h64l-19 -143c-111 -20 -192 -53 -192 -115c0 -41 36 -62 88 -62c54 0 104 22 152 46l36 -72c-40 -22 -116 -58 -202 -58c-97 0 -175 47 -175 135z" />
    <glyph glyph-name="questiondowninferior" horiz-adv-x="318" 
d="M230 270l-14 -84h-81l14 84h81zM-39 -57c0 78 79 118 165 133l16 62h49l-12 -104c-83 -15 -140 -32 -140 -80c0 -35 29 -46 62 -46c40 0 74 16 108 34l29 -56c-30 -16 -84 -43 -149 -43c-73 0 -128 36 -128 100z" />
    <glyph glyph-name="questiondownsuperior" horiz-adv-x="337" 
d="M331 805l-14 -84h-81l14 84h81zM62 478c0 78 79 118 165 133l16 62h49l-12 -104c-83 -15 -140 -32 -140 -80c0 -35 29 -46 62 -46c40 0 74 16 108 34l29 -56c-30 -16 -84 -43 -149 -43c-73 0 -128 36 -128 100z" />
    <glyph glyph-name="questioninferior" horiz-adv-x="338" 
d="M15 -150l14 84h81l-14 -84h-81zM284 177c0 -78 -79 -118 -165 -133l-16 -62h-49l13 104c82 15 140 32 140 80c0 35 -31 46 -63 46c-39 0 -75 -16 -109 -34l-27 56c28 16 83 43 148 43c73 0 128 -36 128 -100z" />
    <glyph glyph-name="questionsuperior" horiz-adv-x="321" 
d="M98 385l14 84h81l-14 -84h-81zM367 712c0 -78 -79 -118 -165 -133l-16 -62h-49l13 104c82 15 140 32 140 80c0 35 -30 46 -63 46c-39 0 -75 -16 -109 -34l-27 56c28 16 83 43 148 43c73 0 128 -36 128 -100z" />
    <glyph glyph-name="O.sc" horiz-adv-x="667" 
d="M351 583c184 0 265 -100 266 -249c1 -128 -77 -343 -307 -343c-183 0 -264 100 -265 248c-1 129 76 344 306 344zM307 76c149 0 207 159 207 257c0 85 -31 164 -159 164c-149 0 -207 -159 -207 -256c0 -85 31 -165 159 -165z" />
    <glyph glyph-name="Ntilde.sc" horiz-adv-x="651" 
d="M232 574l207 -442l78 442h101l-101 -574h-103l-207 444l-78 -444h-100l101 574h102zM280 629l-47 31c33 49 59 83 106 83c53 0 87 -49 121 -49c13 0 28 6 58 47l48 -31c-34 -49 -59 -83 -107 -83c-53 0 -86 49 -120 49c-13 0 -28 -6 -59 -47z" />
    <glyph glyph-name="Nsuperior" horiz-adv-x="481" 
d="M355 385l-145 316l-55 -316h-78l74 420h80l144 -316l55 316h78l-73 -420h-80z" />
    <glyph glyph-name="Ninferior" horiz-adv-x="481" 
d="M260 -150l-145 316l-55 -316h-78l74 420h80l144 -315l55 315h78l-73 -420h-80z" />
    <glyph glyph-name="Ncommaaccent.sc" horiz-adv-x="651" 
d="M232 574l207 -444l78 444h101l-101 -574h-103l-207 444l-78 -444h-100l101 574h102zM202 -165l18 104h90l-9 -111l-97 -108l-22 29l62 86h-42z" />
    <glyph glyph-name="Ncaron.sc" horiz-adv-x="651" 
d="M232 574l207 -442l78 442h101l-101 -574h-103l-207 444l-78 -444h-100l101 574h102zM333 621l-78 133h69l68 -82l95 82h80l-123 -133h-111z" />
    <glyph glyph-name="Nacute.sc" horiz-adv-x="651" 
d="M414 0l-207 444l-78 -444h-100l101 574h102l207 -442l78 442h101l-101 -574h-103zM405 621h-91l141 133h137z" />
    <glyph glyph-name="N.sc" horiz-adv-x="651" 
d="M232 574l207 -444l78 444h101l-101 -574h-103l-207 444l-78 -444h-100l101 574h102z" />
    <glyph glyph-name="Msuperior" horiz-adv-x="553" 
d="M426 385l52 292l-153 -222h-43l-74 234l-53 -304h-78l74 420h80l83 -266l184 266h82l-74 -420h-80z" />
    <glyph glyph-name="Minferior" horiz-adv-x="552" 
d="M331 -150l52 292l-153 -222h-43l-74 234l-53 -304h-78l74 420h80l83 -266l184 266h82l-74 -420h-80z" />
    <glyph glyph-name="M.sc" horiz-adv-x="748" 
d="M514 0l73 416l-221 -320h-55l-106 335l-76 -431h-100l101 574h104l118 -370l258 370h105l-101 -574h-100z" />
    <glyph glyph-name="Lsuperior" horiz-adv-x="368" 
d="M365 385h-288l74 420h78l-62 -355h208z" />
    <glyph glyph-name="Lslash.sc" horiz-adv-x="504" 
d="M313 323l-129 -63l-31 -176h292l-14 -84h-392l36 206l-66 -32l15 90l67 33l49 277h100l-40 -224l127 63z" />
    <glyph glyph-name="Linferior" horiz-adv-x="369" 
d="M271 -150h-289l74 420h78l-63 -355h209z" />
    <glyph glyph-name="rinferior" horiz-adv-x="281" 
d="M103 165l-12 -67c8 15 53 77 136 71l-10 -71c-107 0 -143 -106 -143 -106l-27 -142h-75l56 315h75z" />
    <glyph glyph-name="Ldot.sc" horiz-adv-x="496" 
d="M421 0h-392l101 574h100l-87 -490h291zM325 252l19 103h97l-19 -103h-97z" />
    <glyph glyph-name="Lcommaaccent.sc" horiz-adv-x="493" 
d="M421 0h-392l101 574h100l-87 -490h291zM152 -165l17 104h90l-11 -111l-95 -108l-22 29l62 86h-41z" />
    <glyph glyph-name="Lcaron.sc" horiz-adv-x="494" 
d="M421 0h-392l101 574h100l-87 -490h291zM258 470l18 104h89l-9 -111l-97 -108l-20 29l61 86h-42z" />
    <glyph glyph-name="s_h" horiz-adv-x="1126" 
d="M290 306c95 -30 164 -67 164 -155c0 -102 -93 -162 -214 -162c-100 0 -190 41 -242 74l52 70c50 -29 127 -62 191 -62c57 0 107 26 107 72c0 51 -60 63 -131 85c-70 22 -154 54 -154 150s85 158 203 158c43 0 86 -8 125 -20c-4 13 -6 26 -6 43c0 98 72 170 190 170h197
l-48 -272c42 29 131 79 213 79c110 0 149 -72 131 -173l-64 -363h-104l63 352c10 57 1 101 -63 101c-66 0 -152 -50 -191 -81l-66 -372h-103l120 677h-86c-82 0 -136 -56 -136 -129c0 -21 4 -39 10 -54c15 -6 28 -13 39 -19l-50 -68c-45 23 -111 48 -168 48
s-101 -25 -101 -68c0 -50 60 -61 122 -81z" />
    <glyph glyph-name="s_k" horiz-adv-x="1054" 
d="M1056 525l-217 -215l155 -310h-105l-120 241l-101 -99l-25 -142h-103l120 677h-86c-82 0 -136 -56 -136 -129c0 -21 4 -39 10 -54c15 -6 28 -13 39 -19l-50 -68c-45 23 -111 48 -168 48s-101 -25 -101 -68c0 -50 60 -61 122 -81c95 -30 164 -67 164 -155
c0 -102 -93 -162 -214 -162c-100 0 -190 41 -242 74l52 70c50 -29 127 -62 191 -62c57 0 107 26 107 72c0 51 -60 63 -131 85c-70 22 -154 54 -154 150s85 158 203 158c43 0 86 -8 125 -20c-4 13 -6 26 -6 43c0 98 72 170 190 170h197l-80 -450l238 246h126z" />
    <glyph glyph-name="s_l" horiz-adv-x="778" 
d="M647 0h-103l120 677h-90c-82 0 -136 -56 -136 -129c0 -21 4 -39 10 -54c15 -6 28 -13 39 -19l-50 -68c-45 23 -111 48 -168 48s-101 -25 -101 -68c0 -50 60 -61 122 -81c95 -30 164 -67 164 -155c0 -102 -93 -162 -214 -162c-100 0 -190 41 -242 74l52 70
c50 -29 127 -62 191 -62c57 0 107 26 107 72c0 51 -60 63 -131 85c-70 22 -154 54 -154 150s85 158 203 158c43 0 86 -8 125 -20c-4 13 -6 26 -6 43c0 98 72 170 190 170h201z" />
    <glyph glyph-name="Lacute.sc" horiz-adv-x="493" 
d="M421 0h-392l101 574h100l-87 -490h291zM188 621h-92l142 133h138z" />
    <glyph glyph-name="L.sc" horiz-adv-x="493" 
d="M421 0h-392l101 574h100l-87 -490h291z" />
    <glyph glyph-name="Ksuperior" horiz-adv-x="442" 
d="M77 385l74 420h78l-37 -207l214 207h101l-211 -201l150 -219h-86l-117 169l-70 -66l-18 -103h-78z" />
    <glyph glyph-name="Kinferior" horiz-adv-x="442" 
d="M-18 -150l74 420h78l-37 -207l214 207h101l-211 -201l150 -219h-86l-117 169l-70 -66l-18 -103h-78z" />
    <glyph glyph-name="Kcommaaccent.sc" horiz-adv-x="593" 
d="M29 0l101 574h100l-51 -290l303 290h128l-291 -275l212 -299h-112l-167 236l-98 -93l-25 -143h-100zM173 -165l17 104h89l-9 -111l-96 -108l-22 29l62 86h-41z" />
    <glyph glyph-name="K.sc" horiz-adv-x="593" 
d="M29 0l101 574h100l-51 -290l303 290h128l-291 -275l212 -299h-112l-167 236l-98 -93l-25 -143h-100z" />
    <glyph glyph-name="Jsuperior" horiz-adv-x="202" 
d="M229 805l-68 -386c-13 -75 -18 -106 -147 -134l-19 61c75 20 81 31 88 70l68 389h78z" />
    <glyph glyph-name="Jinferior" horiz-adv-x="202" 
d="M135 270l-68 -386c-13 -75 -18 -106 -147 -134l-19 61c75 20 81 31 88 70l68 389h78z" />
    <glyph glyph-name="semicoloninferior" horiz-adv-x="193" 
d="M10 44l16 90h81l-15 -90h-82zM-24 -150l16 90h81l-10 -98l-82 -83l-18 26l50 65h-37z" />
    <glyph glyph-name="semicolonsuperior" horiz-adv-x="196" 
d="M106 579l16 90h81l-15 -90h-82zM72 385l16 90h81l-10 -98l-82 -83l-18 26l50 65h-37z" />
    <glyph glyph-name="Jcircumflex.sc" horiz-adv-x="264" 
d="M231 574l-93 -529c-18 -101 -24 -141 -197 -179l-24 79c103 28 110 43 119 96l95 533h100zM266 754l77 -133h-69l-68 82l-96 -82h-79l124 133h111z" />
    <glyph glyph-name="J.sc" horiz-adv-x="264" 
d="M231 574l-93 -529c-18 -101 -24 -141 -197 -179l-24 79c103 28 110 43 119 96l95 533h100z" />
    <glyph glyph-name="seven.dnom" horiz-adv-x="344" 
d="M333 360c0 0 -190 -185 -222 -360h-84c31 167 203 344 214 355h-206l9 65h297z" />
    <glyph glyph-name="seven.numr" horiz-adv-x="343" 
d="M382 640c0 0 -190 -185 -222 -360h-84c31 167 203 344 214 355h-206l10 65h296z" />
    <glyph glyph-name="seven.onum" horiz-adv-x="508" 
d="M522 492c0 0 -308 -314 -363 -618h-115c51 285 323 582 348 609h-335l14 91h463z" />
    <glyph glyph-name="seven.tnum" horiz-adv-x="645" 
d="M612 618c0 0 -308 -314 -362 -618h-115c50 285 323 582 348 609h-336l15 91h463z" />
    <glyph glyph-name="Itilde.sc" horiz-adv-x="263" 
d="M80 629l-48 31c34 49 59 83 107 83c53 0 86 -49 120 -49c14 0 28 6 58 47l48 -31c-34 -49 -59 -83 -107 -83c-52 0 -85 49 -119 49c-14 0 -29 -6 -59 -47zM129 0h-100l101 574h100z" />
    <glyph glyph-name="seveneighths.onum" horiz-adv-x="748" 
d="M369 86c0 55 54 86 104 104c-27 16 -48 38 -48 71c0 51 52 89 134 89c75 0 121 -33 121 -80c0 -42 -40 -69 -81 -86c38 -17 73 -42 73 -88c0 -60 -70 -102 -163 -102c-85 0 -140 33 -140 92zM552 574l-387 -574h-70l387 574h70zM333 525c0 0 -166 -152 -192 -295h-70
c25 138 176 283 183 290h-180l8 54h257zM604 99c0 33 -36 51 -69 64c-47 -14 -99 -33 -99 -73c0 -31 28 -46 72 -46c50 0 96 21 96 55zM487 254c0 -24 26 -37 48 -46c40 12 81 25 81 54c0 24 -24 41 -57 41c-40 0 -72 -22 -72 -49z" />
    <glyph glyph-name="Isuperior" horiz-adv-x="203" 
d="M155 385h-78l74 420h78z" />
    <glyph glyph-name="Iogonek.sc" horiz-adv-x="264" 
d="M12 -103c0 -32 44 -28 73 -28l-21 -55c-35 0 -128 -4 -128 72c0 49 46 84 115 114h-22l101 574h101l-101 -574h-4c-71 -35 -114 -67 -114 -103z" />
    <glyph glyph-name="sinferior" horiz-adv-x="343" 
d="M151 36c56 -16 103 -36 103 -93c0 -62 -56 -100 -135 -100c-66 0 -126 26 -160 47l37 49c32 -17 80 -37 123 -37c31 0 59 11 59 35c0 27 -36 33 -81 46s-98 33 -98 91c0 57 51 98 130 98c57 0 113 -22 144 -38l-34 -49c-29 14 -72 29 -108 29c-33 0 -56 -12 -56 -33
c0 -27 35 -33 76 -45z" />
    <glyph glyph-name="Imacron.sc" horiz-adv-x="263" 
d="M129 0h-100l101 574h100zM44 646l11 65h295l-11 -65h-295z" />
    <glyph glyph-name="six.dnom" horiz-adv-x="416" 
d="M302 363c-83 0 -158 -47 -190 -129c19 16 54 36 107 36c85 0 134 -55 134 -123c0 -79 -61 -154 -171 -154s-164 76 -164 157c0 153 120 277 281 277c46 0 73 -11 73 -11l-27 -57s-18 4 -43 4zM198 211c-48 0 -87 -29 -102 -49v-16c0 -47 27 -89 83 -89c63 0 96 43 96 89
c0 33 -23 65 -77 65z" />
    <glyph glyph-name="six.numr" horiz-adv-x="416" 
d="M351 643c-83 0 -158 -47 -190 -129c19 16 54 36 107 36c85 0 134 -55 134 -123c0 -79 -61 -154 -171 -154s-164 76 -164 157c0 153 120 277 281 277c46 0 73 -11 73 -11l-27 -57s-18 4 -43 4zM247 491c-48 0 -87 -29 -102 -49v-16c0 -47 27 -89 83 -89c63 0 96 43 96 89
c0 33 -23 65 -77 65z" />
    <glyph glyph-name="six.onum" horiz-adv-x="627" 
d="M498 622c-139 0 -263 -94 -314 -239c31 28 89 66 177 66c136 0 209 -94 209 -200c0 -133 -96 -260 -269 -260c-168 0 -248 124 -248 252c0 258 190 470 441 470c69 0 111 -16 111 -16l-39 -81s-29 8 -68 8zM334 366c-82 0 -150 -57 -173 -95c-1 -11 -1 -23 -1 -35
c0 -80 45 -158 138 -158c105 0 164 83 164 167c0 60 -38 121 -128 121z" />
    <glyph glyph-name="six.tnum" horiz-adv-x="645" 
d="M507 622c-140 0 -264 -95 -314 -240c30 28 88 67 178 67c135 0 208 -94 208 -200c0 -133 -96 -260 -269 -260c-168 0 -248 124 -248 252c0 258 190 470 441 470c69 0 111 -16 111 -16l-39 -81s-29 8 -68 8zM344 366c-83 0 -151 -57 -174 -95c-1 -11 -1 -23 -1 -35
c0 -80 45 -158 138 -158c106 0 164 83 164 167c0 60 -38 121 -127 121z" />
    <glyph glyph-name="Iinferior" horiz-adv-x="202" 
d="M60 -150h-78l74 420h78z" />
    <glyph glyph-name="Igrave.sc" horiz-adv-x="263" 
d="M129 0h-100l101 574h100zM272 621h-79l-146 133h122z" />
    <glyph glyph-name="Idieresis.sc" horiz-adv-x="263" 
d="M129 0h-100l101 574h100zM55 631l18 103h96l-19 -103h-95zM229 631l19 103h95l-18 -103h-96z" />
    <glyph glyph-name="slash.sc" horiz-adv-x="426" 
d="M453 648l-410 -722h-80l411 722h79z" />
    <glyph glyph-name="Icircumflex.sc" horiz-adv-x="263" 
d="M129 0h-100l101 574h100zM265 754l78 -133h-69l-68 82l-95 -82h-80l124 133h110z" />
    <glyph glyph-name="spaceinferior" horiz-adv-x="185" 
 />
    <glyph glyph-name="spacesuperior" horiz-adv-x="185" 
 />
    <glyph glyph-name="Ibreve.sc" horiz-adv-x="263" 
d="M189 621c-93 0 -141 46 -130 112h69c-5 -34 16 -50 62 -50c49 0 89 16 95 50h70c-12 -69 -71 -112 -166 -112zM129 0h-100l101 574h100z" />
    <glyph glyph-name="Iacute.sc" horiz-adv-x="263" 
d="M129 0h-100l101 574h100zM191 621h-91l141 133h138z" />
    <glyph glyph-name="sterling.onum" horiz-adv-x="509" 
d="M51 208l11 61h85c-12 50 -46 92 -46 155c0 95 72 159 189 159c93 0 163 -44 207 -73l-50 -60c-48 28 -98 49 -142 49c-69 0 -106 -39 -106 -85c0 -53 37 -87 45 -145h141l-11 -61h-134c-17 -63 -71 -108 -95 -124h264l-15 -84h-389l12 68s109 52 130 140h-96z" />
    <glyph glyph-name="IJ.sc" horiz-adv-x="527" 
d="M484 574l-94 -529c-18 -101 -23 -141 -197 -179l-24 79c103 28 110 43 120 96l94 533h101zM129 0h-100l101 574h100z" />
    <glyph glyph-name="I.sc" horiz-adv-x="263" 
d="M129 0h-100l101 574h100z" />
    <glyph glyph-name="Hsuperior" horiz-adv-x="473" 
d="M346 385l33 188h-191l-33 -188h-78l74 420h78l-30 -167h191l30 167h80l-74 -420h-80z" />
    <glyph glyph-name="Hinferior" horiz-adv-x="472" 
d="M251 -150l33 188h-191l-33 -188h-78l74 420h78l-30 -167h191l30 167h80l-74 -420h-80z" />
    <glyph glyph-name="Hbar.sc" horiz-adv-x="650" 
d="M409 0l45 259h-273l-45 -259h-100l74 424h-64l10 59h65l16 91h100l-16 -91h273l16 91h101l-16 -91h64l-10 -59h-65l-74 -424h-101zM210 424l-14 -81h273l14 81h-273z" />
    <glyph glyph-name="H.sc" horiz-adv-x="636" 
d="M402 0l45 259h-273l-45 -259h-100l101 574h100l-41 -231h272l41 231h101l-100 -574h-101z" />
    <glyph glyph-name="Gsuperior" horiz-adv-x="464" 
d="M356 385l8 45c-38 -29 -81 -52 -131 -52c-79 0 -143 55 -143 170c0 174 103 264 215 264c75 0 136 -37 182 -68l-43 -55c-35 23 -80 52 -131 52c-83 0 -143 -83 -143 -187c0 -72 29 -109 80 -109s103 35 126 54l11 61h-108l11 62h182l-41 -237h-75z" />
    <glyph glyph-name="three.dnom" horiz-adv-x="398" 
d="M-19 49l39 50c34 -19 75 -41 128 -41c62 0 100 30 100 69c0 49 -58 66 -118 66h-18l9 65h23c58 0 120 24 120 63c0 26 -23 41 -59 41c-45 0 -94 -23 -118 -35l-26 54c17 10 78 46 156 46c84 0 127 -42 127 -92c0 -44 -33 -84 -97 -107c45 -12 81 -52 81 -102
c0 -63 -51 -133 -173 -133c-88 0 -149 40 -174 56z" />
    <glyph glyph-name="three.numr" horiz-adv-x="398" 
d="M31 329l39 50c33 -19 74 -41 128 -41c61 0 99 30 99 69c0 49 -57 66 -117 66h-19l9 65h24c57 0 120 24 120 63c0 26 -24 41 -60 41c-44 0 -93 -23 -117 -35l-27 54c18 10 79 46 157 46c84 0 127 -42 127 -92c0 -44 -33 -84 -98 -107c46 -12 81 -52 81 -102
c0 -63 -50 -133 -172 -133c-89 0 -149 40 -174 56z" />
    <glyph glyph-name="three.onum" horiz-adv-x="590" 
d="M-34 -53l55 70c46 -28 114 -65 198 -65c105 0 173 56 173 130c0 89 -94 122 -190 122h-30l15 92h35c92 0 198 47 198 122c0 45 -38 74 -103 74c-68 0 -143 -34 -184 -58l-35 75c26 17 120 74 238 74c127 0 194 -68 194 -150c0 -71 -52 -141 -161 -180
c73 -19 132 -86 132 -173c0 -105 -84 -219 -274 -219c-133 0 -222 59 -261 86z" />
    <glyph glyph-name="three.tnum" horiz-adv-x="645" 
d="M15 76l56 70c46 -29 114 -66 198 -66c105 0 173 56 173 130c0 89 -94 123 -190 123h-31l16 92h35c91 0 197 46 197 122c0 45 -38 73 -102 73c-69 0 -143 -34 -184 -58l-36 75c27 18 121 74 238 74c127 0 195 -67 195 -149c0 -72 -52 -142 -162 -181
c74 -19 133 -85 133 -173c0 -105 -84 -219 -274 -219c-133 0 -223 60 -262 87z" />
    </font>
</defs>
</svg>
