<?xml version="1.0" standalone="no"?>
<!DOCTYPE svg PUBLIC "-//W3C//DTD SVG 1.1//EN" "http://www.w3.org/Graphics/SVG/1.1/DTD/svg11.dtd" >
<svg xmlns="http://www.w3.org/2000/svg" xmlns:xlink="http://www.w3.org/1999/xlink" version="1.1">
<metadata>
Created by FontForge 20160405 at Thu Jun  7 08:23:37 2018
 By www-data
Copyright (c) 2012 by Yellow Design Studio. All rights reserved.
</metadata>
<defs>
<font id="VerbExtrabold-Italic" horiz-adv-x="625" >
  <font-face 
    font-family="Verb Extrabold"
    font-weight="800"
    font-style="italic"
    font-stretch="normal"
    units-per-em="1000"
    panose-1="2 0 9 0 3 0 0 9 0 4"
    ascent="800"
    descent="-200"
    x-height="525"
    cap-height="700"
    bbox="-173 -304 1403 959"
    underline-thickness="50"
    underline-position="-100"
    stemh="86"
    stemv="165"
    unicode-range="U+0020-FB06"
  />
<missing-glyph horiz-adv-x="262" 
 />
    <glyph glyph-name="f_f" unicode="ff" horiz-adv-x="777" 
d="M423 405l21 120h71l2 12c21 128 65 192 177 192c80 0 157 -34 195 -55l-72 -105c-20 7 -62 19 -87 19c-19 0 -40 -8 -48 -49l-3 -14h125l-21 -120h-125l-63 -349c-32 -173 -41 -235 -277 -286l-35 124c122 38 127 53 144 149l66 362h-70zM38 405l20 120h72l2 12
c20 128 64 192 177 192c79 0 156 -34 195 -55l-61 -105c-22 7 -71 19 -99 19c-19 0 -40 -8 -47 -49l-3 -14h110l-21 -120h-111l-63 -349c-31 -173 -41 -235 -277 -286l-35 124c122 38 127 53 145 149l66 362h-70z" />
    <glyph glyph-name="f_i" unicode="fi" horiz-adv-x="666" 
d="M38 405l20 120h72l2 12c20 128 65 192 176 192c55 0 126 -28 158 -44l-56 -110c-19 6 -46 13 -66 13c-19 0 -40 -8 -47 -49l-3 -14h125l-21 -120h-126l-63 -349c-31 -173 -41 -235 -277 -286l-35 124c122 38 127 53 145 149l66 362h-70zM558 0h-164l93 525h164zM495 592
l23 134h171l-22 -134h-172z" />
    <glyph glyph-name="f_l" unicode="fl" horiz-adv-x="669" 
d="M38 405l20 120h72l2 12c20 128 65 192 176 192c55 0 126 -28 158 -44l-56 -110c-19 6 -46 13 -66 13c-19 0 -40 -8 -47 -49l-3 -14h125l-21 -120h-126l-63 -349c-31 -173 -41 -235 -277 -286l-35 124c122 38 127 53 145 149l66 362h-70zM559 0h-164l129 729h164z" />
    <glyph glyph-name="f_f_i" unicode="ffi" horiz-adv-x="1051" 
d="M38 405l20 120h72l2 12c20 128 64 192 177 192c79 0 156 -34 195 -55l-61 -105c-22 7 -71 19 -99 19c-19 0 -40 -8 -47 -49l-3 -14h110l-21 -120h-111l-63 -349c-31 -173 -41 -235 -277 -286l-35 124c122 38 127 53 145 149l66 362h-70zM423 405l21 120h71l2 12
c21 128 65 192 176 192c56 0 126 -28 158 -44l-56 -110c-18 6 -46 13 -65 13s-40 -8 -48 -49l-3 -14h125l-21 -120h-125l-63 -349c-32 -173 -41 -235 -277 -286l-35 124c122 38 127 53 144 149l66 362h-70zM943 0h-164l93 525h164zM881 592l23 134h171l-22 -134h-172z" />
    <glyph glyph-name="f_f_l" unicode="ffl" horiz-adv-x="1054" 
d="M38 405l20 120h72l2 12c20 128 64 192 177 192c79 0 156 -34 195 -55l-61 -105c-22 7 -71 19 -99 19c-19 0 -40 -8 -47 -49l-3 -14h110l-21 -120h-111l-63 -349c-31 -173 -41 -235 -277 -286l-35 124c122 38 127 53 145 149l66 362h-70zM423 405l21 120h71l2 12
c21 128 65 192 176 192c56 0 126 -28 158 -44l-56 -110c-18 6 -46 13 -65 13s-40 -8 -48 -49l-3 -14h125l-21 -120h-125l-63 -349c-32 -173 -41 -235 -277 -286l-35 124c122 38 127 53 144 149l66 362h-70zM945 0h-164l129 729h164z" />
    <glyph glyph-name="f_f_b" unicode="ffb" horiz-adv-x="1406" 
d="M779 0l129 729h164l-46 -259c41 30 104 66 179 66c84 0 168 -50 168 -198c0 -206 -102 -349 -251 -349c-83 0 -134 39 -169 67l-10 -56h-164zM38 405l20 120h72l2 12c20 128 64 192 177 192c79 0 156 -34 195 -55l-61 -105c-22 7 -71 19 -99 19c-19 0 -40 -8 -47 -49
l-3 -14h110l-21 -120h-111l-63 -349c-31 -173 -41 -235 -277 -286l-35 124c122 38 127 53 145 149l66 362h-70zM423 405l21 120h71l2 12c21 128 65 192 176 192c56 0 126 -28 158 -44l-56 -110c-18 6 -46 13 -65 13s-40 -8 -48 -49l-3 -14h125l-21 -120h-125l-63 -349
c-32 -173 -41 -235 -277 -286l-35 124c122 38 127 53 144 149l66 362h-70zM1135 405c-49 0 -92 -32 -132 -64l-29 -163c29 -32 66 -57 108 -57c78 0 123 95 123 199c0 53 -23 85 -70 85z" />
    <glyph glyph-name="f_f_h" unicode="ffh" horiz-adv-x="1402" 
d="M1072 729l-46 -262c49 33 120 69 193 69c118 0 162 -75 142 -188l-62 -348h-165l60 331c8 45 2 78 -45 78s-108 -32 -145 -62l-61 -347h-164l129 729h164zM38 405l20 120h72l2 12c20 128 64 192 177 192c79 0 156 -34 195 -55l-61 -105c-22 7 -71 19 -99 19
c-19 0 -40 -8 -47 -49l-3 -14h110l-21 -120h-111l-63 -349c-31 -173 -41 -235 -277 -286l-35 124c122 38 127 53 145 149l66 362h-70zM423 405l21 120h71l2 12c21 128 65 192 176 192c56 0 126 -28 158 -44l-56 -110c-18 6 -46 13 -65 13s-40 -8 -48 -49l-3 -14h125
l-21 -120h-125l-63 -349c-32 -173 -41 -235 -277 -286l-35 124c122 38 127 53 144 149l66 362h-70z" />
    <glyph glyph-name="f_b" unicode="fb" horiz-adv-x="1020" 
d="M394 0l129 729h164l-46 -258c41 29 104 65 178 65c85 0 168 -50 168 -198c0 -206 -102 -349 -251 -349c-82 0 -132 39 -168 67l-10 -56h-164zM38 405l20 120h72l2 12c20 128 65 192 176 192c55 0 126 -28 158 -44l-56 -110c-19 6 -46 13 -66 13c-19 0 -40 -8 -47 -49
l-3 -14h125l-21 -120h-126l-63 -349c-31 -173 -41 -235 -277 -286l-35 124c122 38 127 53 145 149l66 362h-70zM749 405c-49 0 -92 -32 -131 -64l-29 -163c29 -32 66 -57 107 -57c79 0 124 95 124 199c0 53 -24 85 -71 85z" />
    <glyph glyph-name="f_f_j" unicode="ffj" horiz-adv-x="1051" 
d="M38 405l20 120h72l2 12c20 128 64 192 177 192c79 0 156 -34 195 -55l-61 -105c-22 7 -71 19 -99 19c-19 0 -40 -8 -47 -49l-3 -14h110l-21 -120h-111l-63 -349c-31 -173 -41 -235 -277 -286l-35 124c122 38 127 53 145 149l66 362h-70zM423 405l21 120h71l2 12
c21 128 65 192 176 192c56 0 126 -28 158 -44l-56 -110c-18 6 -46 13 -65 13s-40 -8 -48 -49l-3 -14h125l-21 -120h-125l-63 -349c-32 -173 -41 -235 -277 -286l-35 124c122 38 127 53 144 149l66 362h-70zM1036 525l-89 -501c-26 -142 -35 -203 -271 -254l-35 124
c122 38 128 52 139 116l92 515h164zM881 592l23 134h172l-23 -134h-172z" />
    <glyph glyph-name="f_f_k" unicode="ffk" horiz-adv-x="1355" 
d="M1375 525l-220 -214l157 -311h-167l-101 203l-79 -77l-22 -126h-164l129 729h164l-68 -383l171 179h200zM38 405l20 120h72l2 12c20 128 64 192 177 192c79 0 156 -34 195 -55l-61 -105c-22 7 -71 19 -99 19c-19 0 -40 -8 -47 -49l-3 -14h110l-21 -120h-111l-63 -349
c-31 -173 -41 -235 -277 -286l-35 124c122 38 127 53 145 149l66 362h-70zM423 405l21 120h71l2 12c21 128 65 192 176 192c56 0 126 -28 158 -44l-56 -110c-18 6 -46 13 -65 13s-40 -8 -48 -49l-3 -14h125l-21 -120h-125l-63 -349c-32 -173 -41 -235 -277 -286l-35 124
c122 38 127 53 144 149l66 362h-70z" />
    <glyph glyph-name="f_f_t" unicode="fft" horiz-adv-x="1196" 
d="M38 405l20 120h72l2 12c20 128 64 192 177 192c79 0 156 -34 195 -55l-61 -105c-22 7 -71 19 -99 19c-19 0 -40 -8 -47 -49l-3 -14h110l-21 -120h-111l-63 -349c-31 -173 -41 -235 -277 -286l-35 124c122 38 127 53 145 149l66 362h-70zM423 405l21 120h71l2 12
c21 128 65 192 177 192c80 0 157 -34 195 -55l-72 -105c-20 7 -62 19 -87 19c-19 0 -40 -8 -48 -49l-3 -14h110l-21 -120h-110l-63 -349c-32 -173 -41 -235 -277 -286l-35 124c122 38 127 53 144 149l66 362h-70zM809 405l20 120h70l24 132l168 20l-28 -152h141l-20 -120
h-143l-40 -225c-7 -42 12 -48 31 -48c23 0 62 13 80 20l40 -126c-38 -14 -113 -37 -179 -37c-107 0 -156 73 -132 206l37 210h-69z" />
    <glyph glyph-name="f_h" unicode="fh" horiz-adv-x="1017" 
d="M687 729l-46 -261c49 32 119 68 193 68c118 0 162 -75 141 -188l-61 -348h-165l59 331c8 45 2 78 -45 78s-107 -32 -144 -62l-61 -347h-164l129 729h164zM38 405l20 120h72l2 12c20 128 65 192 176 192c55 0 126 -28 158 -44l-56 -110c-19 6 -46 13 -66 13
c-19 0 -40 -8 -47 -49l-3 -14h125l-21 -120h-126l-63 -349c-31 -173 -41 -235 -277 -286l-35 124c122 38 127 53 145 149l66 362h-70z" />
    <glyph glyph-name="f_j" unicode="fj" horiz-adv-x="666" 
d="M38 405l20 120h72l2 12c20 128 65 192 176 192c55 0 126 -28 158 -44l-56 -110c-19 6 -46 13 -66 13c-19 0 -40 -8 -47 -49l-3 -14h125l-21 -120h-126l-63 -349c-31 -173 -41 -235 -277 -286l-35 124c122 38 127 53 145 149l66 362h-70zM651 525l-90 -501
c-25 -142 -34 -203 -271 -254l-35 124c123 38 128 52 140 116l92 515h164zM495 592l23 134h172l-23 -134h-172z" />
    <glyph glyph-name="f_k" unicode="fk" horiz-adv-x="969" 
d="M989 525l-220 -214l157 -311h-167l-101 203l-78 -76l-22 -127h-164l129 729h164l-68 -383l171 179h199zM38 405l20 120h72l2 12c20 128 65 192 176 192c55 0 126 -28 158 -44l-56 -110c-19 6 -46 13 -66 13c-19 0 -40 -8 -47 -49l-3 -14h125l-21 -120h-126l-63 -349
c-31 -173 -41 -235 -277 -286l-35 124c122 38 127 53 145 149l66 362h-70z" />
    <glyph glyph-name="f_t" unicode="ft" horiz-adv-x="811" 
d="M38 405l20 120h72l2 12c20 128 64 192 177 192c79 0 156 -34 195 -55l-73 -105c-19 7 -62 19 -87 19c-19 0 -40 -8 -47 -49l-3 -14h110l-21 -120h-111l-63 -349c-31 -173 -41 -235 -277 -286l-35 124c122 38 127 53 145 149l66 362h-70zM424 405l19 120h71l24 132l167 20
l-27 -152h141l-20 -120h-143l-40 -225c-7 -42 11 -48 31 -48c23 0 61 13 80 20l40 -126c-38 -14 -114 -37 -179 -37c-108 0 -156 73 -133 206l37 210h-68z" />
    <glyph glyph-name=".notdef" horiz-adv-x="262" 
 />
    <glyph glyph-name="space" unicode=" " horiz-adv-x="267" 
 />
    <glyph glyph-name="exclam" unicode="!" horiz-adv-x="287" 
d="M8 0l27 164h166l-27 -164h-166zM314 700l-134 -468h-98l32 468h200z" />
    <glyph glyph-name="quotedbl" unicode="&#x22;" horiz-adv-x="443" 
d="M476 700l-76 -278h-101l22 278h155zM260 700l-75 -278h-102l22 278h155z" />
    <glyph glyph-name="numbersign" unicode="#" horiz-adv-x="732" 
d="M325 0l49 151h-129l-49 -151h-128l49 151h-107l21 123h126l50 152h-107l20 123h127l50 151h128l-50 -151h129l50 151h128l-50 -151h108l-20 -123h-128l-50 -152h108l-20 -123h-129l-49 -151h-127zM335 426l-50 -152h129l50 152h-129z" />
    <glyph glyph-name="dollar" unicode="$" horiz-adv-x="663" 
d="M323 -100h-118l18 101c-92 19 -173 60 -226 97l89 116c64 -37 164 -84 238 -84c58 0 103 24 103 64c0 57 -101 64 -195 106c-77 34 -150 85 -150 191c0 119 95 218 266 220l16 90h118l-18 -103c77 -17 145 -50 200 -81l-89 -113c-54 30 -148 66 -211 66
c-51 0 -97 -20 -97 -63c0 -53 84 -54 189 -100c74 -32 155 -82 155 -193c0 -124 -101 -222 -273 -225z" />
    <glyph glyph-name="percent" unicode="%" horiz-adv-x="1011" 
d="M281 711c115 0 188 -62 188 -157c0 -115 -74 -218 -214 -218c-115 0 -188 62 -188 157c0 115 75 218 214 218zM260 432c59 0 87 65 87 110c0 42 -19 73 -70 73c-59 0 -88 -65 -88 -110c0 -43 19 -73 71 -73zM774 364c115 0 188 -62 188 -157c0 -115 -75 -218 -215 -218
c-115 0 -188 62 -188 157c0 115 75 218 215 218zM752 85c59 0 87 65 87 110c0 42 -18 73 -70 73c-59 0 -87 -65 -87 -110c0 -43 18 -73 70 -73zM818 700l-482 -700h-127l481 700h128z" />
    <glyph glyph-name="ampersand" unicode="&#x26;" horiz-adv-x="725" 
d="M696 0h-174l-47 55c-61 -40 -135 -66 -219 -66c-139 0 -230 72 -230 179c0 102 85 164 175 213c-36 46 -61 90 -61 147c0 106 93 183 225 183c125 0 201 -70 201 -156c0 -88 -82 -150 -170 -203l85 -100c26 36 48 76 64 117h164c-18 -62 -63 -151 -133 -228zM266 111
c40 0 83 18 122 47l-106 126c-55 -36 -95 -71 -95 -112c0 -32 25 -61 79 -61zM287 522c0 -27 14 -54 33 -80c55 31 96 61 96 102c0 23 -15 51 -55 51c-48 0 -74 -37 -74 -73z" />
    <glyph glyph-name="quotesingle" unicode="'" horiz-adv-x="227" 
d="M260 700l-75 -278h-102l22 278h155z" />
    <glyph glyph-name="parenleft" unicode="(" horiz-adv-x="335" 
d="M18 109l86 478c29 157 44 205 273 252l29 -96c-101 -33 -113 -52 -124 -115l-100 -560c-12 -69 -10 -92 65 -124l-42 -87c-209 48 -212 113 -187 252z" />
    <glyph glyph-name="parenright" unicode=")" horiz-adv-x="336" 
d="M332 587l-85 -478c-29 -157 -44 -205 -274 -252l-28 96c100 33 112 51 123 115l101 560c12 69 10 92 -65 123l42 88c208 -48 212 -113 186 -252z" />
    <glyph glyph-name="asterisk" unicode="*" horiz-adv-x="479" 
d="M174 321l72 147l-130 -97l-46 127l162 9l-149 66l88 105l89 -138l-18 162l132 -24l-72 -145l130 98l46 -128l-156 -10l142 -65l-87 -104l-87 130l17 -156z" />
    <glyph glyph-name="plus" unicode="+" horiz-adv-x="645" 
d="M307 573h126l-32 -178h195l-21 -123h-195l-31 -178h-126l31 178h-193l20 123h194z" />
    <glyph glyph-name="comma" unicode="," horiz-adv-x="271" 
d="M-1 0l30 179h166l-23 -200l-161 -147l-34 54l96 114h-74z" />
    <glyph glyph-name="hyphen" unicode="-" horiz-adv-x="431" 
d="M364 219h-326l23 131h326z" />
    <glyph glyph-name="period" unicode="." horiz-adv-x="268" 
d="M-1 0l30 179h167l-30 -179h-167z" />
    <glyph glyph-name="slash" unicode="/" horiz-adv-x="493" 
d="M557 790l-475 -880h-128l474 880h129z" />
    <glyph glyph-name="zero" unicode="0" horiz-adv-x="695" 
d="M380 711c219 0 287 -152 287 -299c0 -133 -61 -424 -335 -424c-218 0 -287 152 -287 299c0 133 61 424 335 424zM332 120c129 0 164 235 163 307c-1 73 -17 152 -116 152c-129 0 -164 -235 -163 -307c0 -73 18 -152 116 -152z" />
    <glyph glyph-name="one" unicode="1" horiz-adv-x="423" 
d="M300 0h-170l96 531l-126 -60l-53 119l215 110h162z" />
    <glyph glyph-name="two" unicode="2" horiz-adv-x="618" 
d="M545 141l-23 -141h-544l12 74c27 158 148 228 267 295c120 68 186 99 186 149c-1 30 -29 52 -82 52c-71 0 -152 -41 -194 -65l-62 118c50 31 152 88 279 88c155 0 231 -84 231 -186c0 -142 -151 -217 -273 -280c-93 -47 -121 -67 -130 -104h333z" />
    <glyph glyph-name="three" unicode="3" horiz-adv-x="623" 
d="M-23 96l85 106c81 -49 146 -70 207 -70c80 0 126 35 126 83c0 70 -87 84 -173 84h-30l23 141h36c71 0 169 18 169 80c0 30 -24 50 -73 50c-62 0 -143 -35 -189 -59l-54 116c33 21 139 84 277 84c149 0 216 -73 216 -159c0 -78 -55 -137 -144 -174
c67 -23 115 -85 115 -166c0 -97 -72 -223 -281 -223c-161 0 -271 78 -310 107z" />
    <glyph glyph-name="four" unicode="4" horiz-adv-x="684" 
d="M332 0l22 128h-365l20 118l390 454h227l-77 -431h105l-24 -141h-106l-22 -128h-170zM196 269h183l49 276z" />
    <glyph glyph-name="five" unicode="5" horiz-adv-x="615" 
d="M67 346l98 354h455l-23 -141h-310l-26 -106c25 6 51 9 80 9c153 0 228 -99 228 -215c0 -133 -104 -258 -298 -258c-142 0 -242 71 -286 107l94 107c29 -22 94 -68 174 -68c73 0 141 38 141 105c0 48 -33 85 -104 85c-51 0 -92 -20 -130 -41z" />
    <glyph glyph-name="six" unicode="6" horiz-adv-x="648" 
d="M517 573c-112 0 -224 -50 -277 -165c29 21 78 44 150 44c134 0 218 -86 218 -206c0 -135 -102 -257 -286 -257c-188 0 -285 127 -285 270c0 251 196 452 474 452c87 0 132 -20 132 -20l-60 -124s-29 6 -66 6zM335 326c-59 0 -107 -36 -127 -62v-17
c0 -65 38 -120 110 -120c81 0 119 59 119 111c0 48 -30 88 -102 88z" />
    <glyph glyph-name="seven" unicode="7" horiz-adv-x="536" 
d="M570 568c0 0 -299 -301 -348 -568h-181c45 252 302 528 331 559h-305l22 141h502z" />
    <glyph glyph-name="eight" unicode="8" horiz-adv-x="658" 
d="M10 177c0 111 93 172 189 211c-51 36 -81 80 -81 139c0 106 96 184 265 184c158 0 244 -69 244 -165c0 -79 -62 -133 -139 -171c64 -34 121 -85 121 -173c0 -127 -121 -213 -319 -213c-179 0 -280 71 -280 188zM435 212c0 50 -50 83 -97 105c-75 -25 -154 -58 -154 -122
c0 -46 40 -78 109 -78c79 0 142 41 142 95zM282 509c0 -35 31 -56 65 -73c60 20 111 42 111 87c0 31 -24 64 -77 64c-58 0 -99 -39 -99 -78z" />
    <glyph glyph-name="nine" unicode="9" horiz-adv-x="649" 
d="M148 127c112 0 223 49 276 164c-29 -21 -78 -44 -149 -44c-134 0 -218 87 -218 207c0 135 102 257 286 257c188 0 285 -127 285 -271c0 -251 -196 -451 -474 -451c-87 0 -132 20 -132 20l60 124s29 -6 66 -6zM330 374c59 0 106 36 126 62c0 5 1 11 1 17
c0 64 -38 120 -110 120c-81 0 -119 -59 -119 -112c0 -48 30 -87 102 -87z" />
    <glyph glyph-name="colon" unicode=":" horiz-adv-x="281" 
d="M60 306l30 180h167l-30 -180h-167zM5 0l31 179h166l-30 -179h-167z" />
    <glyph glyph-name="semicolon" unicode=";" horiz-adv-x="288" 
d="M62 306l30 180h166l-30 -180h-166zM7 0l30 179h166l-23 -200l-161 -147l-34 54l96 114h-74z" />
    <glyph glyph-name="less" unicode="&#x3c;" horiz-adv-x="645" 
d="M48 278l18 111l549 203l-23 -143l-362 -123l315 -124l-20 -127z" />
    <glyph glyph-name="equal" unicode="=" horiz-adv-x="645" 
d="M77 370l20 122h514l-20 -122h-514zM43 177l21 123h514l-20 -123h-515z" />
    <glyph glyph-name="greater" unicode="&#x3e;" horiz-adv-x="645" 
d="M607 389l-18 -111l-549 -203l22 143l361 122l-314 125l21 127z" />
    <glyph glyph-name="question" unicode="?" horiz-adv-x="548" 
d="M85 0l27 164h166l-27 -164h-166zM552 535c0 -138 -131 -202 -269 -227l-24 -76h-101l19 168c134 22 203 53 203 110c0 35 -26 60 -80 60s-110 -25 -161 -52l-55 122c46 25 138 71 251 71c133 0 217 -70 217 -176z" />
    <glyph glyph-name="at" unicode="@" horiz-adv-x="950" 
d="M391 -125c114 0 192 43 192 43l29 -45s-92 -52 -225 -52c-224 0 -359 157 -359 371c0 270 200 494 520 494c280 0 381 -182 369 -356c-9 -117 -60 -362 -256 -362c-111 0 -127 76 -126 121c-38 -32 -97 -67 -166 -67c-82 0 -138 57 -138 138c0 109 84 164 184 164
c57 0 126 -17 157 -23l7 39c10 56 -8 77 -66 77c-45 0 -110 -15 -173 -39l-29 86c75 27 155 44 224 44c130 0 180 -56 158 -177l-27 -153c-16 -85 -22 -136 35 -136c76 0 150 133 159 288c12 134 -54 301 -313 301c-291 0 -461 -206 -461 -441c0 -187 110 -315 305 -315z
M549 171l12 70c-26 5 -74 16 -111 16c-69 0 -96 -38 -96 -82c0 -43 26 -61 64 -61c36 0 86 19 131 57z" />
    <glyph glyph-name="A" unicode="A" horiz-adv-x="710" 
d="M475 0l-17 128h-249l-61 -128h-197l381 700h189l134 -700h-180zM405 536l-132 -275h168z" />
    <glyph glyph-name="B" unicode="B" horiz-adv-x="695" 
d="M648 214c0 -139 -98 -214 -269 -214h-364l123 700h285c155 0 246 -60 246 -161c0 -100 -93 -157 -150 -165c45 -8 129 -53 129 -160zM481 233c0 47 -38 73 -118 73h-123l-33 -175h130c91 0 144 35 144 102zM496 512c0 33 -28 57 -100 57h-109l-27 -141h113
c61 0 123 23 123 84z" />
    <glyph glyph-name="C" unicode="C" horiz-adv-x="658" 
d="M692 602l-91 -120c-72 44 -130 75 -191 75c-122 0 -192 -131 -192 -273c0 -92 32 -142 102 -142c54 0 130 29 214 73l72 -135c-107 -53 -213 -91 -327 -91c-141 0 -237 89 -237 281c0 280 151 441 348 441c125 0 218 -57 302 -109z" />
    <glyph glyph-name="D" unicode="D" horiz-adv-x="726" 
d="M703 419c0 -135 -66 -419 -391 -419h-297l123 700h228c248 0 337 -122 337 -281zM530 416c0 102 -64 140 -184 140h-62l-75 -412h78c178 0 243 148 243 272z" />
    <glyph glyph-name="E" unicode="E" horiz-adv-x="617" 
d="M525 0h-510l123 700h505l-23 -144h-335l-26 -135h273l-24 -141h-273l-26 -136h340z" />
    <glyph glyph-name="F" unicode="F" horiz-adv-x="592" 
d="M620 556h-335l-26 -136h264l-24 -141h-264l-50 -279h-170l123 700h505z" />
    <glyph glyph-name="G" unicode="G" horiz-adv-x="714" 
d="M452 0l11 65c-55 -44 -116 -76 -191 -76c-132 0 -230 91 -230 278c0 288 155 444 351 444c129 0 230 -59 316 -111l-92 -121c-66 39 -133 78 -205 78c-123 0 -194 -130 -194 -273c0 -85 24 -150 107 -150c62 0 131 48 164 75l12 64h-155l22 134h315l-71 -407h-160z" />
    <glyph glyph-name="H" unicode="H" horiz-adv-x="729" 
d="M439 0l52 297h-253l-52 -297h-171l123 700h171l-46 -262h253l46 262h170l-123 -700h-170z" />
    <glyph glyph-name="I" unicode="I" horiz-adv-x="306" 
d="M186 0h-171l123 700h171z" />
    <glyph glyph-name="J" unicode="J" horiz-adv-x="306" 
d="M308 700l-111 -631c-25 -142 -34 -203 -273 -254l-38 132c116 34 128 50 139 113l113 640h170z" />
    <glyph glyph-name="K" unicode="K" horiz-adv-x="699" 
d="M15 0l123 700h171l-52 -293l289 293h219l-336 -331l224 -369h-188l-152 256l-100 -99l-27 -157h-171z" />
    <glyph glyph-name="L" unicode="L" horiz-adv-x="572" 
d="M510 0h-495l123 700h171l-100 -559h323z" />
    <glyph glyph-name="M" unicode="M" horiz-adv-x="855" 
d="M565 0l72 411l-194 -294h-91l-90 319l-76 -436h-171l123 700h174l111 -394l261 394h174l-123 -700h-170z" />
    <glyph glyph-name="N" unicode="N" horiz-adv-x="745" 
d="M452 0l-186 454l-80 -454h-171l123 700h173l187 -454l80 454h170l-123 -700h-173z" />
    <glyph glyph-name="O" unicode="O" horiz-adv-x="772" 
d="M408 711c222 0 339 -116 339 -310c1 -137 -71 -413 -366 -413c-222 0 -339 116 -339 310c-1 137 71 413 366 413zM375 133c146 0 196 165 196 263c0 101 -41 170 -157 170c-146 0 -196 -165 -196 -263c0 -101 41 -170 157 -170z" />
    <glyph glyph-name="P" unicode="P" horiz-adv-x="674" 
d="M687 494c0 -112 -78 -254 -286 -254h-172l-43 -240h-171l123 700h269c187 0 280 -70 280 -206zM512 489c0 54 -46 70 -107 70h-119l-34 -179h119c91 0 141 42 141 109z" />
    <glyph glyph-name="Q" unicode="Q" horiz-adv-x="772" 
d="M408 711c222 0 339 -116 339 -310c1 -111 -46 -312 -220 -385l91 -85l-121 -106l-141 164c-206 8 -314 122 -314 309c-1 137 71 413 366 413zM375 133c146 0 196 165 196 263c0 101 -41 170 -157 170c-146 0 -196 -165 -196 -263c0 -101 41 -170 157 -170z" />
    <glyph glyph-name="R" unicode="R" horiz-adv-x="706" 
d="M447 0l-116 263h-98l-47 -263h-171l123 700h301c182 0 273 -67 273 -196c0 -95 -63 -211 -215 -236l125 -268h-175zM536 500c0 54 -50 67 -112 67h-137l-32 -171h143c87 0 138 37 138 104z" />
    <glyph glyph-name="S" unicode="S" horiz-adv-x="646" 
d="M447 407c74 -32 155 -82 155 -193c0 -126 -104 -225 -279 -225c-134 0 -260 58 -335 109l90 116c63 -37 163 -84 238 -84c58 0 103 24 103 64c0 57 -101 64 -196 106c-77 34 -149 85 -149 191c0 121 97 220 271 220c122 0 232 -48 311 -94l-90 -113
c-53 30 -147 66 -210 66c-52 0 -98 -20 -98 -63c0 -53 84 -54 189 -100z" />
    <glyph glyph-name="T" unicode="T" horiz-adv-x="597" 
d="M629 556h-200l-99 -556h-171l99 556h-200l24 144h571z" />
    <glyph glyph-name="U" unicode="U" horiz-adv-x="718" 
d="M728 700l-76 -431c-27 -154 -98 -280 -327 -280c-261 0 -295 143 -263 325l68 386h172l-76 -424c-14 -79 -3 -141 102 -141s139 62 154 141l75 424h171z" />
    <glyph glyph-name="V" unicode="V" horiz-adv-x="708" 
d="M261 700l66 -499l237 499h211l-380 -700h-190l-135 700h191z" />
    <glyph glyph-name="W" unicode="W" horiz-adv-x="971" 
d="M547 0l-34 455l-197 -455h-167l-71 700h191l17 -453l195 453h142l31 -447l173 447h203l-316 -700h-167z" />
    <glyph glyph-name="X" unicode="X" horiz-adv-x="663" 
d="M79 700h187l84 -242l166 242h209l-281 -347l170 -353h-191l-92 237l-171 -237h-216l292 353z" />
    <glyph glyph-name="Y" unicode="Y" horiz-adv-x="665" 
d="M192 0l49 278l-175 422h181l95 -279l193 279h199l-324 -424l-47 -276h-171z" />
    <glyph glyph-name="Z" unicode="Z" horiz-adv-x="640" 
d="M670 700l-21 -130l-420 -426h347l-24 -144h-576l22 131l419 425h-320l24 144h549z" />
    <glyph glyph-name="bracketleft" unicode="[" horiz-adv-x="365" 
d="M270 -143h-288l173 982h288l-16 -95h-118l-141 -793h118z" />
    <glyph glyph-name="backslash" unicode="\" horiz-adv-x="480" 
d="M280 -90l-178 880h115l178 -880h-115z" />
    <glyph glyph-name="bracketright" unicode="]" horiz-adv-x="365" 
d="M226 -143h-288l16 94h117l141 793h-117l16 95h288z" />
    <glyph glyph-name="asciicircum" unicode="^" horiz-adv-x="645" 
d="M427 320l-54 217l-128 -217h-188l250 380h169l121 -380h-170z" />
    <glyph glyph-name="underscore" unicode="_" horiz-adv-x="708" 
d="M570 -185h-602l18 117h602z" />
    <glyph glyph-name="grave" unicode="`" horiz-adv-x="248" 
d="M380 589h-126l-148 140h173z" />
    <glyph glyph-name="a" unicode="a" horiz-adv-x="631" 
d="M524 0h-164l10 58c-42 -31 -108 -69 -185 -69c-81 0 -163 50 -163 197c0 207 104 350 255 350c79 0 131 -40 166 -69l10 58h164zM256 120c52 0 97 33 137 68l28 158c-27 32 -64 58 -105 58c-80 0 -125 -96 -125 -199c0 -53 22 -85 65 -85z" />
    <glyph glyph-name="b" unicode="b" horiz-adv-x="628" 
d="M2 0l129 729h164l-46 -258c42 29 104 65 178 65c85 0 169 -50 169 -198c0 -206 -102 -349 -252 -349c-82 0 -132 39 -168 67l-10 -56h-164zM357 405c-48 0 -92 -32 -131 -64l-29 -163c29 -32 66 -57 108 -57c78 0 123 95 123 199c0 53 -24 85 -71 85z" />
    <glyph glyph-name="c" unicode="c" horiz-adv-x="523" 
d="M532 460l-74 -113c-33 17 -87 49 -132 49c-82 0 -136 -91 -136 -172c0 -57 25 -95 82 -95c42 0 105 29 144 47l54 -126c-53 -22 -148 -61 -235 -61c-122 0 -214 69 -214 220c0 223 136 327 269 327c107 0 186 -46 242 -76z" />
    <glyph glyph-name="d" unicode="d" horiz-adv-x="631" 
d="M524 0h-164l10 58c-42 -31 -108 -69 -185 -69c-81 0 -163 50 -163 197c0 207 104 350 255 350c79 0 131 -40 166 -69l46 262h164zM256 120c52 0 97 33 137 68l28 158c-27 32 -64 58 -105 58c-80 0 -125 -96 -125 -199c0 -53 22 -85 65 -85z" />
    <glyph glyph-name="e" unicode="e" horiz-adv-x="572" 
d="M551 381c0 -144 -141 -171 -314 -171h-51v-4c0 -56 22 -96 86 -96c54 0 128 29 193 59l49 -113c-39 -18 -159 -67 -274 -67c-132 0 -220 65 -220 226c0 183 115 321 314 321c131 0 217 -61 217 -155zM329 420c-66 0 -108 -60 -128 -124h43c95 0 150 27 150 74
c0 30 -26 50 -65 50z" />
    <glyph glyph-name="f" unicode="f" horiz-adv-x="392" 
d="M37 405l21 120h71l2 12c21 128 65 192 177 192c80 0 157 -34 195 -55l-72 -105c-20 7 -62 19 -87 19c-19 0 -40 -8 -48 -49l-3 -14h125l-21 -120h-125l-63 -349c-32 -173 -41 -235 -277 -286l-35 124c122 38 127 53 144 149l66 362h-70z" />
    <glyph glyph-name="g" unicode="g" horiz-adv-x="629" 
d="M451 525h163l-91 -518c-30 -176 -114 -221 -266 -221c-95 0 -195 18 -281 43l52 129c63 -20 147 -40 212 -40c85 0 109 36 117 81l10 58c-42 -31 -107 -68 -183 -68c-80 0 -162 50 -162 197c0 207 103 350 254 350c79 0 131 -39 165 -68zM255 120c51 0 95 32 135 67
l29 161c-27 31 -64 56 -104 56c-79 0 -125 -96 -125 -199c0 -53 23 -85 65 -85z" />
    <glyph glyph-name="h" unicode="h" 
d="M295 729l-46 -261c49 32 119 68 193 68c118 0 162 -75 142 -188l-62 -348h-165l59 331c9 45 2 78 -45 78c-46 0 -107 -32 -144 -62l-61 -347h-164l129 729h164z" />
    <glyph glyph-name="i" unicode="i" horiz-adv-x="274" 
d="M166 0h-164l93 525h164zM104 592l23 134h171l-22 -134h-172z" />
    <glyph glyph-name="j" unicode="j" horiz-adv-x="274" 
d="M104 592l23 134h172l-23 -134h-172zM260 525l-90 -501c-25 -142 -34 -203 -271 -254l-35 124c123 38 128 52 140 116l92 515h164z" />
    <glyph glyph-name="k" unicode="k" horiz-adv-x="577" 
d="M598 525l-220 -214l156 -311h-166l-101 203l-79 -77l-22 -126h-164l129 729h164l-68 -383l171 179h200z" />
    <glyph glyph-name="l" unicode="l" horiz-adv-x="277" 
d="M168 0h-165l129 729h165z" />
    <glyph glyph-name="m" unicode="m" horiz-adv-x="930" 
d="M259 525l-11 -62c40 33 107 73 173 73c80 0 124 -35 137 -92c36 36 117 92 194 92c117 0 157 -72 137 -183l-62 -353h-164l59 331c8 44 6 78 -41 78c-42 0 -93 -34 -124 -64l-61 -345h-164l60 331c8 44 5 78 -42 78c-42 0 -92 -34 -123 -64l-61 -345h-164l93 525h164z
" />
    <glyph glyph-name="n" unicode="n" 
d="M259 525l-10 -57c49 32 119 68 193 68c118 0 162 -75 142 -188l-62 -348h-165l59 331c9 45 2 78 -45 78c-46 0 -107 -32 -144 -62l-61 -347h-164l93 525h164z" />
    <glyph glyph-name="o" unicode="o" 
d="M315 536c170 0 275 -88 275 -241c0 -165 -99 -306 -293 -306c-171 0 -276 87 -276 241c0 165 99 306 294 306zM293 115c87 0 132 92 132 182c0 70 -33 113 -107 113c-87 0 -132 -92 -132 -182c0 -70 33 -113 107 -113z" />
    <glyph glyph-name="p" unicode="p" horiz-adv-x="628" 
d="M-34 -204l129 729h165l-10 -54c41 29 104 65 178 65c85 0 168 -50 168 -198c0 -206 -102 -349 -251 -349c-82 0 -132 39 -168 67l-46 -260h-165zM358 405c-49 0 -92 -32 -131 -64l-29 -163c28 -32 65 -57 107 -57c79 0 123 95 123 199c0 53 -23 85 -70 85z" />
    <glyph glyph-name="q" unicode="q" horiz-adv-x="631" 
d="M488 -204h-164l46 262c-42 -31 -108 -69 -185 -69c-81 0 -163 50 -163 197c0 207 104 350 255 350c79 0 131 -40 166 -69l10 58h164zM256 120c52 0 97 33 137 68l28 158c-27 32 -64 58 -105 58c-80 0 -125 -96 -125 -199c0 -53 22 -85 65 -85z" />
    <glyph glyph-name="r" unicode="r" horiz-adv-x="428" 
d="M259 525l-19 -109c17 30 84 124 214 115l-26 -154c-172 0 -225 -184 -225 -184l-37 -193h-164l93 525h164z" />
    <glyph glyph-name="s" unicode="s" horiz-adv-x="539" 
d="M329 323c77 -23 164 -60 164 -161c0 -102 -88 -173 -234 -173c-114 0 -217 44 -276 83l74 107c54 -30 142 -65 204 -65c40 0 63 14 63 33c0 32 -63 41 -122 59c-70 21 -158 57 -158 158c0 96 80 172 222 172c98 0 199 -36 254 -67l-73 -105c-45 22 -113 48 -171 48
c-39 0 -65 -12 -65 -33c0 -30 51 -36 118 -56z" />
    <glyph glyph-name="t" unicode="t" horiz-adv-x="425" 
d="M38 405l20 120h71l24 132l167 20l-27 -152h140l-19 -120h-143l-40 -225c-8 -42 11 -48 30 -48c23 0 62 13 81 20l40 -126c-39 -14 -114 -37 -180 -37c-107 0 -156 73 -132 206l37 210h-69z" />
    <glyph glyph-name="u" unicode="u" horiz-adv-x="624" 
d="M353 0l10 56c-50 -32 -119 -67 -193 -67c-118 0 -161 74 -141 187l62 349h164l-59 -331c-9 -45 -2 -78 45 -78s108 32 143 61l62 348h164l-93 -525h-164z" />
    <glyph glyph-name="v" unicode="v" horiz-adv-x="583" 
d="M318 0h-163l-112 525h170l48 -350l172 350h183z" />
    <glyph glyph-name="w" unicode="w" horiz-adv-x="840" 
d="M462 0l-37 322l-154 -322h-154l-68 525h169l17 -344l155 344h135l31 -338l133 338h179l-252 -525h-154z" />
    <glyph glyph-name="x" unicode="x" horiz-adv-x="604" 
d="M378 0l-84 172l-140 -172h-210l250 262l-145 263h172l79 -169l137 169h199l-240 -262l159 -263h-177z" />
    <glyph glyph-name="y" unicode="y" horiz-adv-x="585" 
d="M-7 -103c79 27 121 38 163 93l-112 535h170l51 -333l169 333h183l-293 -525c-57 -102 -103 -190 -295 -230z" />
    <glyph glyph-name="z" unicode="z" horiz-adv-x="562" 
d="M-24 0l19 113l310 277h-249l23 135h489l-19 -113l-311 -277h259l-22 -135h-499z" />
    <glyph glyph-name="braceleft" unicode="{" horiz-adv-x="391" 
d="M7 299l17 97c91 0 111 57 114 110l4 100c7 168 106 233 280 233h47l-15 -92h-19c-91 0 -115 -60 -119 -122l-4 -88c-7 -134 -67 -178 -171 -192c93 -21 139 -75 101 -199l-17 -54c-19 -62 -28 -143 68 -143h18l-15 -92h-18c-153 0 -273 77 -223 244l27 89
c20 67 6 109 -75 109z" />
    <glyph glyph-name="bar" unicode="|" horiz-adv-x="243" 
d="M106 -123h-120l166 941h120z" />
    <glyph glyph-name="braceright" unicode="}" horiz-adv-x="392" 
d="M402 396l-18 -97c-91 1 -112 -56 -114 -109l-4 -101c-6 -167 -105 -232 -279 -232h-48l16 92h18c91 0 116 59 119 121l4 89c6 134 67 178 172 191c-94 21 -140 75 -102 200l16 54c20 62 29 143 -67 143h-19l16 92h18c153 0 273 -77 223 -245l-27 -88
c-21 -67 -7 -110 76 -110z" />
    <glyph glyph-name="asciitilde" unicode="~" horiz-adv-x="645" 
d="M102 174l-95 41c55 98 113 162 200 162c100 0 159 -76 233 -76c28 0 53 10 95 70l94 -41c-54 -98 -113 -162 -200 -162c-100 0 -158 76 -234 76c-26 0 -50 -10 -93 -70z" />
    <glyph glyph-name="uni00A0" unicode="&#xa0;" horiz-adv-x="267" 
 />
    <glyph glyph-name="exclamdown" unicode="&#xa1;" horiz-adv-x="287" 
d="M103 535l27 165h167l-28 -165h-166zM223 468l-33 -468h-200l134 468h99z" />
    <glyph glyph-name="cent" unicode="&#xa2;" horiz-adv-x="570" 
d="M332 0h-119l14 79c-105 12 -180 81 -180 218c0 223 136 327 269 327h6l14 76h119l-17 -98c53 -18 98 -44 133 -63l-74 -111c-36 22 -96 56 -145 56c-82 0 -136 -91 -136 -172c0 -57 25 -95 82 -95c46 0 115 28 157 47l54 -123c-39 -16 -98 -41 -162 -54z" />
    <glyph glyph-name="sterling" unicode="&#xa3;" horiz-adv-x="588" 
d="M49 246l17 96h86c-15 51 -44 101 -44 171c0 120 83 198 226 198c127 0 218 -63 275 -104l-85 -100c-54 36 -110 63 -159 63c-58 0 -89 -33 -89 -75c0 -51 34 -91 45 -153h161l-17 -96h-150c-17 -52 -55 -89 -81 -105h276l-23 -141h-492l18 114s118 37 144 132h-108z" />
    <glyph glyph-name="yen" unicode="&#xa5;" horiz-adv-x="718" 
d="M96 282l15 95h117l-133 323h181l95 -279l193 279h200l-248 -323h117l-16 -95h-173l-5 -6l-8 -44h177l-17 -95h-176l-24 -137h-170l24 137h-175l16 95h175l9 46l-2 4h-172z" />
    <glyph glyph-name="brokenbar" unicode="&#xa6;" horiz-adv-x="246" 
d="M201 405h-120l73 413h120zM108 -123h-120l73 413h120z" />
    <glyph glyph-name="section" unicode="&#xa7;" horiz-adv-x="584" 
d="M204 141c-84 25 -165 65 -165 157c0 64 39 112 108 138c-27 24 -45 57 -45 103c0 96 80 172 223 172c98 0 199 -36 254 -67l-73 -105c-44 21 -118 48 -173 48c-36 0 -63 -12 -63 -33c0 -30 53 -37 117 -56c76 -23 163 -61 163 -158c0 -64 -38 -112 -107 -138
c27 -24 45 -57 45 -102c0 -96 -80 -172 -222 -172c-99 0 -199 36 -255 67l73 105c46 -21 119 -48 175 -48c37 0 62 12 62 33c0 30 -54 37 -117 56zM390 314c0 35 -54 45 -119 64c-57 -8 -72 -36 -72 -54c0 -34 58 -45 120 -63c56 8 71 35 71 53z" />
    <glyph glyph-name="dieresis" unicode="&#xa8;" horiz-adv-x="258" 
d="M70 599l23 128h132l-22 -128h-133zM262 599l23 128h131l-23 -128h-131z" />
    <glyph glyph-name="copyright" unicode="&#xa9;" horiz-adv-x="791" 
d="M48 313c0 212 136 398 382 398c205 0 330 -134 330 -324c0 -212 -136 -398 -383 -398c-204 0 -329 134 -329 324zM87 314c0 -166 108 -287 294 -287c214 0 340 163 340 359c0 166 -108 287 -294 287c-214 0 -340 -163 -340 -359zM581 500l-32 -33c-25 21 -67 56 -129 56
c-87 0 -155 -91 -150 -217c3 -80 35 -129 94 -129c62 0 120 34 149 54l26 -37c-39 -26 -98 -62 -173 -62c-79 0 -143 59 -147 170c-7 170 91 265 202 265c75 0 128 -41 160 -67z" />
    <glyph glyph-name="ordfeminine" unicode="&#xaa;" horiz-adv-x="433" 
d="M396 385h-112l5 31c-26 -17 -65 -38 -113 -38c-53 0 -105 31 -105 123c0 122 65 206 159 206c51 0 82 -23 104 -39l6 32h112zM223 466c31 0 58 19 82 37l15 84c-16 17 -38 31 -61 31c-47 0 -74 -51 -74 -107c0 -30 14 -45 38 -45z" />
    <glyph glyph-name="guillemotleft" unicode="&#xab;" horiz-adv-x="685" 
d="M647 363l-185 -107l145 -105l-24 -141l-264 209l16 98l338 210zM340 363l-185 -107l146 -105l-25 -141l-263 209l15 98l339 210z" />
    <glyph glyph-name="logicalnot" unicode="&#xac;" horiz-adv-x="645" 
d="M572 90h-131l33 182h-456l20 123h589z" />
    <glyph glyph-name="registered" unicode="&#xae;" horiz-adv-x="471" 
d="M72 480c0 117 75 220 212 220c113 0 182 -74 182 -180c0 -117 -75 -220 -211 -220c-114 0 -183 74 -183 180zM106 481c0 -85 55 -148 151 -148c111 0 177 84 177 186c0 85 -57 148 -153 148c-111 0 -175 -84 -175 -186zM364 551c0 -33 -26 -57 -62 -63l33 -86h-34l-31 85
h-43l-15 -85h-33l35 201h89c38 0 61 -23 61 -52zM331 551c0 12 -7 22 -29 22h-60l-10 -55h52c31 0 47 15 47 33z" />
    <glyph glyph-name="macron" unicode="&#xaf;" horiz-adv-x="316" 
d="M112 614l17 94h310l-17 -94h-310z" />
    <glyph glyph-name="degree" unicode="&#xb0;" horiz-adv-x="416" 
d="M65 521c0 99 81 180 181 180c99 0 180 -81 180 -180s-81 -180 -180 -180c-100 0 -181 81 -181 180zM160 521c0 -47 38 -86 86 -86c47 0 86 39 86 86s-39 86 -86 86c-48 0 -86 -39 -86 -86z" />
    <glyph glyph-name="plusminus" unicode="&#xb1;" horiz-adv-x="645" 
d="M301 547h126l-23 -132h194l-20 -122h-196l-23 -132h-126l23 132h-193l20 122h195zM12 0l16 105h515l-17 -105h-514z" />
    <glyph glyph-name="twosuperior" unicode="&#xb2;" horiz-adv-x="416" 
d="M406 480l-15 -95h-350l8 47c16 96 94 139 166 178c76 41 116 55 116 80c-2 17 -18 27 -48 27c-41 0 -84 -19 -122 -40l-44 80c32 18 98 55 181 55c101 0 149 -55 149 -116c0 -85 -93 -130 -168 -165c-62 -29 -75 -37 -80 -51h207z" />
    <glyph glyph-name="threesuperior" unicode="&#xb3;" horiz-adv-x="405" 
d="M34 447l56 70c52 -29 89 -43 134 -43c48 0 72 16 72 41c0 36 -52 42 -108 42h-18l14 96h22c50 0 106 8 106 37c0 17 -17 27 -41 27c-44 0 -98 -24 -122 -36l-38 78c22 13 89 53 179 53c97 0 140 -46 140 -99c0 -47 -35 -80 -87 -102c41 -14 71 -52 71 -98
c0 -59 -44 -135 -177 -135c-106 0 -178 51 -203 69z" />
    <glyph glyph-name="acute" unicode="&#xb4;" horiz-adv-x="248" 
d="M215 589h-142l147 140h191z" />
    <glyph glyph-name="mu" unicode="&#xb5;" horiz-adv-x="628" 
d="M136 -204h-164l129 729h164l-62 -348c-3 -36 7 -61 49 -61c45 0 106 31 142 60l62 349h165l-93 -525h-165l10 56c-49 -32 -119 -67 -192 -67h-11z" />
    <glyph glyph-name="paragraph" unicode="&#xb6;" horiz-adv-x="733" 
d="M364 700h151l-156 -885h-139l71 391c-134 0 -240 61 -240 206c0 198 152 288 313 288zM434 -186l156 886h137l-156 -886h-137z" />
    <glyph glyph-name="periodcentered" unicode="&#xb7;" horiz-adv-x="273" 
d="M35 195l31 180h166l-30 -180h-167z" />
    <glyph glyph-name="cedilla" unicode="&#xb8;" horiz-adv-x="185" 
d="M-39 -164l45 78c19 -10 37 -11 47 -11c24 0 51 9 51 42c0 27 -17 57 -17 57h71s25 -36 25 -80c0 -75 -59 -109 -128 -109c-29 0 -66 6 -94 23z" />
    <glyph glyph-name="onesuperior" unicode="&#xb9;" horiz-adv-x="260" 
d="M226 385h-116l57 308l-78 -36l-36 79l138 69h109z" />
    <glyph glyph-name="ordmasculine" unicode="&#xba;" horiz-adv-x="418" 
d="M260 707c105 0 171 -51 171 -138c0 -102 -64 -191 -194 -191c-103 0 -169 51 -169 138c0 102 63 191 192 191zM240 463c58 0 80 59 80 98c0 35 -16 61 -62 61c-57 0 -80 -58 -80 -98c0 -35 17 -61 62 -61z" />
    <glyph glyph-name="guillemotright" unicode="&#xbb;" horiz-adv-x="683" 
d="M-1 10l26 164l185 106l-144 106l23 141l264 -210l-16 -98zM305 10l27 164l184 106l-143 106l22 141l264 -210l-16 -98z" />
    <glyph glyph-name="onequarter" unicode="&#xbc;" horiz-adv-x="908" 
d="M420 73l12 79l242 268h153l-45 -252h65l-14 -95h-67l-13 -73h-116l13 73h-230zM705 700l-448 -700h-124l448 700h124zM253 280h-117l58 308l-78 -36l-37 79l138 69h110zM561 168h105l27 152z" />
    <glyph glyph-name="onehalf" unicode="&#xbd;" horiz-adv-x="924" 
d="M841 95l-14 -95h-351l8 47c17 96 94 139 166 178c76 40 116 55 116 80c0 17 -16 27 -48 27c-40 0 -84 -19 -122 -40l-43 80c32 18 97 55 180 55c102 0 150 -55 150 -116c0 -85 -94 -130 -169 -165c-62 -29 -75 -37 -79 -51h206zM253 280h-117l58 308l-78 -36l-37 79
l138 69h110zM705 700l-448 -700h-124l448 700h124z" />
    <glyph glyph-name="threequarters" unicode="&#xbe;" horiz-adv-x="1001" 
d="M733 0l13 73h-230l12 79l241 268h155l-45 -252h65l-15 -95h-67l-13 -73h-116zM34 342l56 70c52 -29 89 -43 134 -43c48 0 72 16 72 41c0 36 -52 42 -108 42h-18l14 96h22c50 0 106 8 106 37c0 17 -16 27 -41 27c-45 0 -98 -24 -122 -36l-38 78c22 13 89 53 179 53
c97 0 140 -46 140 -99c0 -47 -35 -80 -87 -102c41 -14 71 -52 71 -98c0 -59 -44 -135 -177 -135c-106 0 -178 51 -203 69zM801 700l-447 -700h-126l448 700h125zM658 168h104l27 150z" />
    <glyph glyph-name="questiondown" unicode="&#xbf;" horiz-adv-x="546" 
d="M480 700l-27 -165h-167l28 165h166zM13 165c0 138 132 201 270 226l23 77h102l-20 -168c-133 -23 -204 -53 -204 -110c0 -35 28 -60 82 -60c53 0 110 25 159 52l55 -122c-44 -25 -137 -71 -250 -71c-134 0 -217 70 -217 176z" />
    <glyph glyph-name="Agrave" unicode="&#xc0;" horiz-adv-x="710" 
d="M475 0l-17 128h-249l-61 -128h-197l381 700h189l134 -700h-180zM405 536l-132 -275h168zM539 740h-125l-147 140h172z" />
    <glyph glyph-name="Aacute" unicode="&#xc1;" horiz-adv-x="710" 
d="M475 0l-17 128h-249l-61 -128h-197l381 700h189l134 -700h-180zM471 740h-142l147 140h192zM405 536l-132 -275h168z" />
    <glyph glyph-name="Acircumflex" unicode="&#xc2;" horiz-adv-x="710" 
d="M475 0l-17 128h-249l-61 -128h-197l381 700h189l134 -700h-180zM537 880l82 -140h-105l-60 70l-86 -70h-117l130 140h156zM405 536l-132 -275h168z" />
    <glyph glyph-name="Atilde" unicode="&#xc3;" horiz-adv-x="710" 
d="M475 0l-17 128h-249l-61 -128h-197l381 700h189l134 -700h-180zM320 743l-66 44c37 54 68 100 128 100c54 0 96 -48 130 -48c12 0 30 6 61 48l66 -44c-37 -55 -68 -101 -128 -101c-54 0 -96 48 -130 48c-12 0 -30 -6 -61 -47zM405 536l-132 -275h168z" />
    <glyph glyph-name="Adieresis" unicode="&#xc4;" horiz-adv-x="710" 
d="M475 0l-17 128h-249l-61 -128h-197l381 700h189l134 -700h-180zM405 536l-132 -275h168zM273 750l23 128h132l-22 -128h-133zM465 750l23 128h131l-22 -128h-132z" />
    <glyph glyph-name="Aring" unicode="&#xc5;" horiz-adv-x="710" 
d="M475 0l-17 128h-249l-61 -128h-197l381 700h189l134 -700h-180zM339 844c0 64 51 115 114 115c64 0 115 -51 115 -115c0 -63 -51 -114 -115 -114c-63 0 -114 51 -114 114zM405 536l-132 -275h168zM415 844c0 -21 17 -38 38 -38c22 0 39 17 39 38c0 22 -17 39 -39 39
c-21 0 -38 -17 -38 -39z" />
    <glyph glyph-name="AE" unicode="&#xc6;" horiz-adv-x="1069" 
d="M507 700h589l-24 -144h-335l-26 -135h274l-25 -141h-272l-27 -136h340l-23 -144h-510l22 128h-254l-103 -128h-219zM348 266h166l46 263z" />
    <glyph glyph-name="Ccedilla" unicode="&#xc7;" horiz-adv-x="659" 
d="M128 -164l44 78c20 -10 36 -11 46 -11c25 0 52 9 52 42c0 16 -6 34 -11 45c-130 8 -216 97 -216 280c0 280 151 441 348 441c125 0 217 -57 302 -109l-91 -120c-73 44 -130 75 -191 75c-122 0 -193 -131 -193 -273c0 -92 33 -142 102 -142c55 0 130 29 214 73l73 -135
c-91 -45 -182 -80 -277 -88c8 -14 20 -39 20 -70c0 -75 -60 -109 -129 -109c-29 0 -66 6 -93 23z" />
    <glyph glyph-name="Egrave" unicode="&#xc8;" horiz-adv-x="617" 
d="M506 740h-125l-149 140h173zM525 0h-510l122 700h506l-24 -144h-335l-26 -135h274l-25 -141h-272l-27 -136h340z" />
    <glyph glyph-name="Eacute" unicode="&#xc9;" horiz-adv-x="617" 
d="M430 740h-142l147 140h190zM525 0h-510l122 700h506l-24 -144h-335l-26 -135h274l-25 -141h-272l-27 -136h340z" />
    <glyph glyph-name="Ecircumflex" unicode="&#xca;" horiz-adv-x="617" 
d="M502 880l82 -140h-103l-62 70l-85 -70h-118l132 140h154zM525 0h-510l122 700h506l-24 -144h-335l-26 -135h274l-25 -141h-272l-27 -136h340z" />
    <glyph glyph-name="Edieresis" unicode="&#xcb;" horiz-adv-x="617" 
d="M525 0h-510l122 700h506l-24 -144h-335l-26 -135h274l-25 -141h-272l-27 -136h340zM240 750l22 128h133l-22 -128h-133zM432 750l22 128h133l-23 -128h-132z" />
    <glyph glyph-name="Igrave" unicode="&#xcc;" horiz-adv-x="306" 
d="M337 740h-125l-149 140h173zM186 0h-171l123 700h171z" />
    <glyph glyph-name="Iacute" unicode="&#xcd;" horiz-adv-x="306" 
d="M260 740h-142l147 140h191zM186 0h-171l123 700h171z" />
    <glyph glyph-name="Icircumflex" unicode="&#xce;" horiz-adv-x="306" 
d="M332 880l82 -140h-104l-60 70l-85 -70h-119l131 140h155zM186 0h-171l123 700h171z" />
    <glyph glyph-name="Idieresis" unicode="&#xcf;" horiz-adv-x="306" 
d="M186 0h-171l123 700h171zM71 750l22 128h132l-23 -128h-131zM262 750l23 128h131l-22 -128h-132z" />
    <glyph glyph-name="Eth" unicode="&#xd0;" horiz-adv-x="743" 
d="M719 419c0 -135 -66 -419 -391 -419h-297l49 285h-71l21 131h73l50 284h228c248 0 338 -122 338 -281zM390 285h-138l-25 -141h76c178 0 244 148 244 272c0 102 -65 140 -185 140h-62l-25 -140h136z" />
    <glyph glyph-name="Ntilde" unicode="&#xd1;" horiz-adv-x="745" 
d="M452 0l-187 453l-79 -453h-171l123 700h173l186 -453l80 453h171l-123 -700h-173zM342 743l-66 44c37 54 68 100 128 100c54 0 96 -48 130 -48c12 0 30 6 61 48l66 -44c-37 -55 -68 -101 -128 -101c-54 0 -96 48 -130 48c-12 0 -30 -6 -61 -47z" />
    <glyph glyph-name="Ograve" unicode="&#xd2;" horiz-adv-x="772" 
d="M408 711c222 0 339 -116 339 -310c1 -137 -71 -413 -366 -413c-222 0 -339 116 -339 310c-1 137 71 413 366 413zM375 133c146 0 196 165 196 263c0 101 -41 170 -157 170c-146 0 -196 -165 -196 -263c0 -101 41 -170 157 -170zM570 740h-126l-147 140h172z" />
    <glyph glyph-name="Oacute" unicode="&#xd3;" horiz-adv-x="772" 
d="M408 711c222 0 339 -116 339 -310c1 -137 -71 -413 -366 -413c-222 0 -339 116 -339 310c-1 137 71 413 366 413zM375 133c146 0 196 165 196 263c0 101 -41 170 -157 170c-146 0 -196 -165 -196 -263c0 -101 41 -170 157 -170zM494 740h-143l147 140h191z" />
    <glyph glyph-name="Ocircumflex" unicode="&#xd4;" horiz-adv-x="772" 
d="M408 711c222 0 339 -116 339 -310c1 -137 -71 -413 -366 -413c-222 0 -339 116 -339 310c-1 137 71 413 366 413zM375 133c146 0 196 165 196 263c0 101 -41 170 -157 170c-146 0 -196 -165 -196 -263c0 -101 41 -170 157 -170zM567 880l82 -140h-104l-61 70l-85 -70
h-118l130 140h156z" />
    <glyph glyph-name="Otilde" unicode="&#xd5;" horiz-adv-x="772" 
d="M408 711c222 0 339 -116 339 -310c1 -137 -71 -413 -366 -413c-222 0 -339 116 -339 310c-1 137 71 413 366 413zM375 133c146 0 196 165 196 263c0 101 -41 170 -157 170c-146 0 -196 -165 -196 -263c0 -101 41 -170 157 -170zM350 743l-67 44c38 54 68 100 129 100
c54 0 96 -48 130 -48c12 0 29 6 60 48l67 -44c-38 -55 -68 -101 -129 -101c-54 0 -95 48 -129 48c-12 0 -30 -6 -61 -47z" />
    <glyph glyph-name="Odieresis" unicode="&#xd6;" horiz-adv-x="772" 
d="M408 711c222 0 339 -116 339 -310c1 -137 -71 -413 -366 -413c-222 0 -339 116 -339 310c-1 137 71 413 366 413zM375 133c146 0 196 165 196 263c0 101 -41 170 -157 170c-146 0 -196 -165 -196 -263c0 -101 41 -170 157 -170zM304 750l22 128h132l-22 -128h-132z
M495 750l22 128h133l-22 -128h-133z" />
    <glyph glyph-name="multiply" unicode="&#xd7;" horiz-adv-x="645" 
d="M579 457l-159 -127l110 -122l-99 -83l-112 124l-160 -128l-82 95l158 126l-109 122l99 83l111 -124l161 129z" />
    <glyph glyph-name="Oslash" unicode="&#xd8;" horiz-adv-x="772" 
d="M787 700l-99 -103c39 -51 58 -117 59 -196c0 -137 -72 -413 -367 -413c-91 0 -164 19 -219 56l-42 -44h-119l98 103c-38 50 -57 116 -57 195c0 137 71 413 366 413c91 0 164 -20 219 -56l42 45h119zM374 133c146 0 196 165 196 263c0 25 -3 48 -8 68l-290 -303
c25 -18 58 -28 102 -28zM217 303c0 -25 2 -48 7 -68l290 303c-25 18 -57 28 -101 28c-146 0 -196 -165 -196 -263z" />
    <glyph glyph-name="Ugrave" unicode="&#xd9;" horiz-adv-x="718" 
d="M728 700l-77 -431c-27 -154 -97 -280 -326 -280c-261 0 -295 143 -263 325l67 386h173l-76 -424c-14 -79 -3 -141 101 -141c106 0 140 62 154 141l76 424h171zM543 740h-125l-149 140h173z" />
    <glyph glyph-name="Uacute" unicode="&#xda;" horiz-adv-x="718" 
d="M728 700l-77 -431c-27 -154 -97 -280 -326 -280c-261 0 -295 143 -263 325l67 386h173l-76 -424c-14 -79 -3 -141 101 -141c106 0 140 62 154 141l76 424h171zM466 740h-142l148 140h190z" />
    <glyph glyph-name="Ucircumflex" unicode="&#xdb;" horiz-adv-x="718" 
d="M728 700l-77 -431c-27 -154 -97 -280 -326 -280c-261 0 -295 143 -263 325l67 386h173l-76 -424c-14 -79 -3 -141 101 -141c106 0 140 62 154 141l76 424h171zM539 880l82 -140h-104l-60 70l-85 -70h-119l131 140h155z" />
    <glyph glyph-name="Udieresis" unicode="&#xdc;" horiz-adv-x="718" 
d="M728 700l-77 -431c-27 -154 -97 -280 -326 -280c-261 0 -295 143 -263 325l67 386h173l-76 -424c-14 -79 -3 -141 101 -141c106 0 140 62 154 141l76 424h171zM277 750l23 128h132l-23 -128h-132zM469 750l22 128h131l-22 -128h-131z" />
    <glyph glyph-name="Yacute" unicode="&#xdd;" horiz-adv-x="665" 
d="M192 0l49 279l-175 421h181l96 -278l192 278h200l-324 -423l-48 -277h-171zM437 740h-142l147 140h191z" />
    <glyph glyph-name="Thorn" unicode="&#xde;" horiz-adv-x="680" 
d="M669 386c0 -113 -79 -254 -286 -254h-173l-24 -132h-171l123 700h171l-19 -108h98c187 0 281 -71 281 -206zM493 381c0 53 -46 69 -107 69h-119l-34 -179h120c91 0 140 43 140 110z" />
    <glyph glyph-name="germandbls" unicode="&#xdf;" horiz-adv-x="738" 
d="M425 711c238 0 312 -109 291 -232l-2 -13l-77 -99c-32 19 -96 45 -141 45c-28 0 -54 -10 -54 -32c0 -30 45 -39 103 -58c68 -23 145 -62 145 -161c0 -101 -81 -172 -213 -172c-104 0 -200 44 -256 83l73 108c45 -31 132 -66 178 -66c26 0 50 11 50 31
c0 30 -51 43 -105 61c-64 22 -142 59 -142 158c0 94 71 172 204 172c24 0 48 -3 72 -7c-11 34 -45 56 -127 56c-92 0 -158 -28 -175 -122l-84 -463h-163l85 482c26 135 110 229 338 229z" />
    <glyph glyph-name="agrave" unicode="&#xe0;" horiz-adv-x="631" 
d="M524 0h-165l10 58c-42 -31 -107 -69 -185 -69c-81 0 -162 50 -162 197c0 207 103 350 254 350c80 0 132 -39 166 -68l10 57h165zM255 120c52 0 97 33 137 68l28 159c-27 31 -64 57 -104 57c-81 0 -126 -96 -126 -199c0 -53 23 -85 65 -85zM472 589h-125l-149 140h173z
" />
    <glyph glyph-name="aacute" unicode="&#xe1;" horiz-adv-x="631" 
d="M524 0h-165l10 58c-42 -31 -107 -69 -185 -69c-81 0 -162 50 -162 197c0 207 103 350 254 350c80 0 132 -39 166 -68l10 57h165zM255 120c52 0 97 33 137 68l28 159c-27 31 -64 57 -104 57c-81 0 -126 -96 -126 -199c0 -53 23 -85 65 -85zM390 589h-143l147 140h191z" />
    <glyph glyph-name="acircumflex" unicode="&#xe2;" horiz-adv-x="631" 
d="M524 0h-165l10 58c-42 -31 -107 -69 -185 -69c-81 0 -162 50 -162 197c0 207 103 350 254 350c80 0 132 -39 166 -68l10 57h165zM255 120c52 0 97 33 137 68l28 159c-27 31 -64 57 -104 57c-81 0 -126 -96 -126 -199c0 -53 23 -85 65 -85zM469 729l82 -140h-105l-61 70
l-84 -70h-119l131 140h156z" />
    <glyph glyph-name="atilde" unicode="&#xe3;" horiz-adv-x="631" 
d="M524 0h-165l10 58c-42 -31 -107 -69 -185 -69c-81 0 -162 50 -162 197c0 207 103 350 254 350c80 0 132 -39 166 -68l10 57h165zM255 120c52 0 97 33 137 68l28 159c-27 31 -64 57 -104 57c-81 0 -126 -96 -126 -199c0 -53 23 -85 65 -85zM254 592l-66 44
c37 54 68 100 128 100c54 0 97 -48 131 -48c12 0 29 6 60 48l67 -44c-38 -55 -68 -101 -129 -101c-54 0 -95 48 -129 48c-12 0 -30 -6 -62 -47z" />
    <glyph glyph-name="adieresis" unicode="&#xe4;" horiz-adv-x="631" 
d="M524 0h-165l10 58c-42 -31 -107 -69 -185 -69c-81 0 -162 50 -162 197c0 207 103 350 254 350c80 0 132 -39 166 -68l10 57h165zM255 120c52 0 97 33 137 68l28 159c-27 31 -64 57 -104 57c-81 0 -126 -96 -126 -199c0 -53 23 -85 65 -85zM212 599l22 128h133l-22 -128
h-133zM404 599l22 128h131l-22 -128h-131z" />
    <glyph glyph-name="aring" unicode="&#xe5;" horiz-adv-x="631" 
d="M524 0h-165l10 58c-42 -31 -107 -69 -185 -69c-81 0 -162 50 -162 197c0 207 103 350 254 350c80 0 132 -39 166 -68l10 57h165zM255 120c52 0 97 33 137 68l28 159c-27 31 -64 57 -104 57c-81 0 -126 -96 -126 -199c0 -53 23 -85 65 -85zM273 693c0 64 51 115 114 115
s115 -51 115 -115c0 -63 -52 -114 -115 -114s-114 51 -114 114zM349 693c0 -21 17 -38 38 -38s38 17 38 38c0 22 -17 39 -38 39s-38 -17 -38 -39z" />
    <glyph glyph-name="ae" unicode="&#xe6;" horiz-adv-x="950" 
d="M524 0h-164l10 58c-42 -31 -108 -69 -185 -69c-81 0 -163 50 -163 197c0 207 104 350 255 350c79 0 131 -40 166 -69l10 58h164v-1c29 8 61 12 95 12c130 0 217 -61 217 -155c0 -144 -141 -171 -314 -171h-51v-4c0 -56 21 -96 85 -96c55 0 129 29 193 59l49 -113
c-38 -18 -158 -67 -273 -67c-35 0 -66 4 -94 13v-2zM256 120c52 0 97 33 137 68l5 26v1c0 47 7 92 22 132c-27 31 -64 57 -104 57c-80 0 -125 -96 -125 -199c0 -53 22 -85 65 -85zM707 420c-66 0 -108 -60 -128 -124h42c96 0 151 27 151 74c0 30 -26 50 -65 50z" />
    <glyph glyph-name="ccedilla" unicode="&#xe7;" horiz-adv-x="523" 
d="M54 -164l45 78c19 -10 37 -11 46 -11c25 0 51 9 51 42c0 18 -8 38 -13 49c-95 17 -162 86 -162 215c0 223 136 327 269 327c107 0 186 -46 242 -76l-74 -113c-33 17 -87 49 -132 49c-82 0 -136 -91 -136 -172c0 -57 25 -95 82 -95c42 0 105 29 144 47l54 -126
c-49 -20 -132 -54 -212 -60c8 -14 18 -39 18 -68c0 -75 -59 -109 -127 -109c-30 0 -68 6 -95 23z" />
    <glyph glyph-name="egrave" unicode="&#xe8;" horiz-adv-x="572" 
d="M551 381c0 -144 -141 -171 -313 -171h-51v-4c0 -56 22 -96 86 -96c54 0 127 29 192 59l50 -113c-40 -18 -159 -67 -274 -67c-133 0 -221 65 -221 226c0 183 116 321 314 321c131 0 217 -61 217 -155zM462 589h-127l-148 140h173zM330 420c-67 0 -109 -60 -129 -124h43
c96 0 151 27 151 74c0 30 -26 50 -65 50z" />
    <glyph glyph-name="eacute" unicode="&#xe9;" horiz-adv-x="572" 
d="M551 381c0 -144 -141 -171 -313 -171h-51v-4c0 -56 22 -96 86 -96c54 0 127 29 192 59l50 -113c-40 -18 -159 -67 -274 -67c-133 0 -221 65 -221 226c0 183 116 321 314 321c131 0 217 -61 217 -155zM386 589h-142l147 140h190zM330 420c-67 0 -109 -60 -129 -124h43
c96 0 151 27 151 74c0 30 -26 50 -65 50z" />
    <glyph glyph-name="ecircumflex" unicode="&#xea;" horiz-adv-x="572" 
d="M551 381c0 -144 -141 -171 -313 -171h-51v-4c0 -56 22 -96 86 -96c54 0 127 29 192 59l50 -113c-40 -18 -159 -67 -274 -67c-133 0 -221 65 -221 226c0 183 116 321 314 321c131 0 217 -61 217 -155zM457 729l82 -140h-104l-60 70l-85 -70h-119l131 140h155zM330 420
c-67 0 -109 -60 -129 -124h43c96 0 151 27 151 74c0 30 -26 50 -65 50z" />
    <glyph glyph-name="edieresis" unicode="&#xeb;" horiz-adv-x="572" 
d="M551 381c0 -144 -141 -171 -313 -171h-51v-4c0 -56 22 -96 86 -96c54 0 127 29 192 59l50 -113c-40 -18 -159 -67 -274 -67c-133 0 -221 65 -221 226c0 183 116 321 314 321c131 0 217 -61 217 -155zM196 599l22 128h133l-22 -128h-133zM330 420
c-67 0 -109 -60 -129 -124h43c96 0 151 27 151 74c0 30 -26 50 -65 50zM388 599l22 128h132l-23 -128h-131z" />
    <glyph glyph-name="igrave" unicode="&#xec;" horiz-adv-x="274" 
d="M294 589h-125l-149 140h173zM166 0h-164l93 525h164z" />
    <glyph glyph-name="iacute" unicode="&#xed;" horiz-adv-x="274" 
d="M217 589h-142l147 140h191zM166 0h-164l93 525h164z" />
    <glyph glyph-name="icircumflex" unicode="&#xee;" horiz-adv-x="274" 
d="M290 729l82 -140h-104l-61 70l-85 -70h-118l131 140h155zM166 0h-164l93 525h164z" />
    <glyph glyph-name="idieresis" unicode="&#xef;" horiz-adv-x="274" 
d="M166 0h-164l93 525h164zM28 599l23 128h132l-24 -128h-131zM219 599l23 128h132l-23 -128h-132z" />
    <glyph glyph-name="eth" unicode="&#xf0;" horiz-adv-x="642" 
d="M313 513h-134l58 58c-44 -1 -84 -8 -84 -8l2 126s43 11 102 11c35 0 68 -4 99 -11l40 40h133l-78 -78c104 -62 159 -178 159 -316c0 -204 -121 -346 -328 -346c-164 0 -264 87 -264 228c0 150 119 259 263 259c132 0 179 -92 179 -92c-7 76 -41 137 -109 167zM432 252
c0 55 -29 98 -104 98c-94 0 -138 -67 -138 -138c0 -52 25 -97 102 -97c101 0 140 73 140 137z" />
    <glyph glyph-name="ntilde" unicode="&#xf1;" 
d="M259 525l-10 -57c49 32 119 68 193 68c118 0 162 -75 142 -188l-62 -348h-165l59 331c9 45 2 78 -45 78c-46 0 -107 -32 -144 -62l-61 -347h-164l93 525h164zM252 592l-66 44c37 54 68 100 128 100c54 0 96 -48 130 -48c12 0 30 6 61 48l66 -44
c-37 -55 -68 -101 -128 -101c-54 0 -96 48 -130 48c-12 0 -30 -6 -61 -47z" />
    <glyph glyph-name="ograve" unicode="&#xf2;" 
d="M315 536c170 0 275 -88 275 -241c0 -165 -99 -306 -293 -306c-171 0 -276 87 -276 241c0 165 99 306 294 306zM293 115c87 0 132 92 132 182c0 70 -33 113 -107 113c-87 0 -132 -92 -132 -182c0 -70 33 -113 107 -113zM469 589h-125l-149 140h173z" />
    <glyph glyph-name="oacute" unicode="&#xf3;" 
d="M315 536c170 0 275 -88 275 -241c0 -165 -99 -306 -293 -306c-171 0 -276 87 -276 241c0 165 99 306 294 306zM293 115c87 0 132 92 132 182c0 70 -33 113 -107 113c-87 0 -132 -92 -132 -182c0 -70 33 -113 107 -113zM393 589h-142l147 140h190z" />
    <glyph glyph-name="ocircumflex" unicode="&#xf4;" 
d="M315 536c170 0 275 -88 275 -241c0 -165 -99 -306 -293 -306c-171 0 -276 87 -276 241c0 165 99 306 294 306zM293 115c87 0 132 92 132 182c0 70 -33 113 -107 113c-87 0 -132 -92 -132 -182c0 -70 33 -113 107 -113zM465 729l82 -140h-104l-60 70l-85 -70h-119l131 140
h155z" />
    <glyph glyph-name="otilde" unicode="&#xf5;" 
d="M315 536c170 0 275 -88 275 -241c0 -165 -99 -306 -293 -306c-171 0 -276 87 -276 241c0 165 99 306 294 306zM293 115c87 0 132 92 132 182c0 70 -33 113 -107 113c-87 0 -132 -92 -132 -182c0 -70 33 -113 107 -113zM249 592l-68 24c31 54 58 114 127 114
c52 0 97 -40 140 -40c18 0 37 6 56 39l67 -24c-30 -54 -57 -114 -125 -114c-53 0 -98 40 -140 40c-18 0 -37 -6 -57 -39z" />
    <glyph glyph-name="odieresis" unicode="&#xf6;" 
d="M315 536c170 0 275 -88 275 -241c0 -165 -99 -306 -293 -306c-171 0 -276 87 -276 241c0 165 99 306 294 306zM293 115c87 0 132 92 132 182c0 70 -33 113 -107 113c-87 0 -132 -92 -132 -182c0 -70 33 -113 107 -113zM205 599l21 128h133l-22 -128h-132zM396 599l22 128
h133l-23 -128h-132z" />
    <glyph glyph-name="divide" unicode="&#xf7;" horiz-adv-x="645" 
d="M61 272l20 123h515l-21 -123h-514zM281 509c-4 46 37 86 85 86c39 0 69 -29 73 -65c4 -47 -37 -87 -85 -87c-39 0 -69 29 -73 66zM217 137c-5 48 36 88 85 88c39 0 69 -29 72 -65c5 -48 -36 -87 -85 -87c-39 0 -69 28 -72 64z" />
    <glyph glyph-name="oslash" unicode="&#xf8;" horiz-adv-x="626" 
d="M518 525h96l-75 -75c34 -39 52 -92 52 -155c0 -165 -99 -306 -294 -306c-71 0 -130 15 -175 43l-32 -32h-98l78 78c-31 39 -48 90 -48 152c0 165 99 306 293 306c69 0 127 -15 172 -42zM294 115c87 0 132 92 132 182c0 13 -1 25 -4 36l-198 -198c17 -13 40 -20 70 -20z
M187 228c0 -11 1 -22 2 -31l196 195c-16 12 -38 18 -66 18c-87 0 -132 -92 -132 -182z" />
    <glyph glyph-name="ugrave" unicode="&#xf9;" horiz-adv-x="624" 
d="M353 0l10 56c-50 -32 -120 -67 -193 -67c-118 0 -161 74 -141 187l61 349h165l-60 -331c-8 -45 -1 -78 46 -78c46 0 108 32 143 61l62 348h164l-93 -525h-164zM467 589h-126l-148 140h173z" />
    <glyph glyph-name="uacute" unicode="&#xfa;" horiz-adv-x="624" 
d="M353 0l10 56c-50 -32 -120 -67 -193 -67c-118 0 -161 74 -141 187l61 349h165l-60 -331c-8 -45 -1 -78 46 -78c46 0 108 32 143 61l62 348h164l-93 -525h-164zM391 589h-142l147 140h190z" />
    <glyph glyph-name="ucircumflex" unicode="&#xfb;" horiz-adv-x="624" 
d="M353 0l10 56c-50 -32 -120 -67 -193 -67c-118 0 -161 74 -141 187l61 349h165l-60 -331c-8 -45 -1 -78 46 -78c46 0 108 32 143 61l62 348h164l-93 -525h-164zM463 729l82 -140h-104l-61 70l-85 -70h-118l131 140h155z" />
    <glyph glyph-name="udieresis" unicode="&#xfc;" horiz-adv-x="624" 
d="M353 0l10 56c-50 -32 -120 -67 -193 -67c-118 0 -161 74 -141 187l61 349h165l-60 -331c-8 -45 -1 -78 46 -78c46 0 108 32 143 61l62 348h164l-93 -525h-164zM202 599l22 128h133l-22 -128h-133zM394 599l22 128h133l-23 -128h-132z" />
    <glyph glyph-name="yacute" unicode="&#xfd;" horiz-adv-x="585" 
d="M-7 -103c78 27 121 38 163 93l-112 535h170l51 -334l169 334h183l-293 -525c-57 -102 -102 -190 -295 -230zM372 589h-143l147 140h191z" />
    <glyph glyph-name="thorn" unicode="&#xfe;" horiz-adv-x="628" 
d="M296 729l-46 -258c41 29 104 65 178 65c85 0 168 -50 168 -198c0 -206 -102 -349 -251 -349c-82 0 -132 39 -168 67l-46 -260h-165l165 933h165zM358 405c-49 0 -92 -32 -131 -64l-29 -163c28 -32 65 -57 107 -57c79 0 123 95 123 199c0 53 -23 85 -70 85z" />
    <glyph glyph-name="ydieresis" unicode="&#xff;" horiz-adv-x="585" 
d="M-7 -103c78 27 121 38 163 93l-112 535h170l51 -334l169 334h183l-293 -525c-57 -102 -102 -190 -295 -230zM181 599l23 128h132l-22 -128h-133zM373 599l23 128h132l-24 -128h-131z" />
    <glyph glyph-name="Amacron" unicode="&#x100;" horiz-adv-x="710" 
d="M475 0l-17 128h-249l-61 -128h-197l381 700h189l134 -700h-180zM282 765l17 94h310l-17 -94h-310zM405 536l-132 -275h168z" />
    <glyph glyph-name="amacron" unicode="&#x101;" horiz-adv-x="631" 
d="M524 0h-165l10 58c-42 -31 -107 -69 -185 -69c-81 0 -162 50 -162 197c0 207 103 350 254 350c80 0 132 -39 166 -68l10 57h165zM255 120c52 0 97 33 137 68l28 159c-27 31 -64 57 -104 57c-81 0 -126 -96 -126 -199c0 -53 23 -85 65 -85zM214 614l17 94h310l-17 -94
h-310z" />
    <glyph glyph-name="Abreve" unicode="&#x102;" horiz-adv-x="710" 
d="M475 0l-17 128h-249l-61 -128h-197l381 700h189l134 -700h-180zM438 740c-110 0 -163 54 -152 128h99c-3 -26 16 -41 54 -41c47 0 82 15 86 41h101c-13 -80 -81 -128 -188 -128zM405 536l-132 -275h168z" />
    <glyph glyph-name="abreve" unicode="&#x103;" horiz-adv-x="631" 
d="M524 0h-165l10 58c-42 -31 -107 -69 -185 -69c-81 0 -162 50 -162 197c0 207 103 350 254 350c80 0 132 -39 166 -68l10 57h165zM255 120c52 0 97 33 137 68l28 159c-27 31 -64 57 -104 57c-81 0 -126 -96 -126 -199c0 -53 23 -85 65 -85zM369 589
c-110 0 -164 54 -152 128h99c-4 -26 16 -41 54 -41c47 0 82 15 87 41h99c-14 -80 -80 -128 -187 -128z" />
    <glyph glyph-name="Aogonek" unicode="&#x104;" horiz-adv-x="710" 
d="M475 0l-17 128h-249l-61 -128h-197l381 700h189l134 -700h-3c-56 -28 -109 -63 -109 -99c0 -32 49 -27 70 -27l-27 -72c-31 0 -150 -8 -150 83c0 51 49 86 115 115h-76zM405 536l-132 -275h168z" />
    <glyph glyph-name="aogonek" unicode="&#x105;" horiz-adv-x="632" 
d="M412 -99c0 -32 48 -27 69 -27l-27 -72c-31 0 -149 -8 -149 83c0 51 48 86 115 115h-60l10 58c-42 -31 -108 -69 -185 -69c-81 0 -163 50 -163 197c0 207 104 350 255 350c79 0 131 -40 166 -69l10 58h164l-93 -525h-4c-56 -28 -108 -63 -108 -99zM256 120
c52 0 97 33 137 68l28 158c-27 32 -64 58 -105 58c-80 0 -125 -96 -125 -199c0 -53 22 -85 65 -85z" />
    <glyph glyph-name="Cacute" unicode="&#x106;" horiz-adv-x="658" 
d="M693 602l-92 -120c-72 44 -129 75 -191 75c-121 0 -192 -131 -192 -273c0 -92 32 -142 102 -142c54 0 130 29 214 73l72 -135c-107 -53 -212 -91 -326 -91c-142 0 -238 89 -238 281c0 280 151 441 349 441c124 0 217 -57 302 -109zM493 740h-142l146 140h192z" />
    <glyph glyph-name="cacute" unicode="&#x107;" horiz-adv-x="523" 
d="M532 460l-73 -113c-33 17 -87 49 -133 49c-82 0 -136 -91 -136 -172c0 -57 26 -95 82 -95c43 0 105 29 145 47l53 -126c-53 -22 -148 -61 -235 -61c-121 0 -214 69 -214 220c0 223 137 327 269 327c108 0 186 -46 242 -76zM367 589h-142l147 140h189z" />
    <glyph glyph-name="Cdotaccent" unicode="&#x10a;" horiz-adv-x="658" 
d="M693 602l-92 -120c-72 44 -129 75 -191 75c-121 0 -192 -131 -192 -273c0 -92 32 -142 102 -142c54 0 130 29 214 73l72 -135c-107 -53 -212 -91 -326 -91c-142 0 -238 89 -238 281c0 280 151 441 349 441c124 0 217 -57 302 -109zM365 750l22 128h133l-22 -128h-133z
" />
    <glyph glyph-name="cdotaccent" unicode="&#x10b;" horiz-adv-x="523" 
d="M532 460l-73 -113c-33 17 -87 49 -133 49c-82 0 -136 -91 -136 -172c0 -57 26 -95 82 -95c43 0 105 29 145 47l53 -126c-53 -22 -148 -61 -235 -61c-121 0 -214 69 -214 220c0 223 137 327 269 327c108 0 186 -46 242 -76zM272 599l23 128h131l-21 -128h-133z" />
    <glyph glyph-name="Ccaron" unicode="&#x10c;" horiz-adv-x="658" 
d="M693 602l-92 -120c-72 44 -129 75 -191 75c-121 0 -192 -131 -192 -273c0 -92 32 -142 102 -142c54 0 130 29 214 73l72 -135c-107 -53 -212 -91 -326 -91c-142 0 -238 89 -238 281c0 280 151 441 349 441c124 0 217 -57 302 -109zM356 740l-82 140h104l61 -71l85 71h118
l-131 -140h-155z" />
    <glyph glyph-name="ccaron" unicode="&#x10d;" horiz-adv-x="523" 
d="M532 460l-73 -113c-33 17 -87 49 -133 49c-82 0 -136 -91 -136 -172c0 -57 26 -95 82 -95c43 0 105 29 145 47l53 -126c-53 -22 -148 -61 -235 -61c-121 0 -214 69 -214 220c0 223 137 327 269 327c108 0 186 -46 242 -76zM259 589l-82 140h104l60 -71l86 71h118
l-131 -140h-155z" />
    <glyph glyph-name="Dcaron" unicode="&#x10e;" horiz-adv-x="726" 
d="M703 419c0 -135 -66 -419 -391 -419h-297l123 700h228c248 0 337 -122 337 -281zM530 416c0 102 -64 140 -184 140h-62l-74 -412h77c178 0 243 148 243 272zM375 740l-82 140h105l60 -71l85 71h119l-131 -140h-156z" />
    <glyph glyph-name="dcaron" unicode="&#x10f;" horiz-adv-x="704" 
d="M524 0h-164l10 58c-42 -31 -108 -69 -185 -69c-81 0 -163 50 -163 197c0 207 104 350 255 350c79 0 131 -40 166 -69l46 262h164zM256 120c52 0 97 33 137 68l28 158c-27 32 -64 58 -105 58c-80 0 -125 -96 -125 -199c0 -53 22 -85 65 -85zM681 601l21 128h120l-17 -142
l-116 -107l-26 39l71 82h-53z" />
    <glyph glyph-name="Dcroat" unicode="&#x110;" horiz-adv-x="743" 
d="M719 419c0 -135 -66 -419 -391 -419h-297l49 285h-71l21 131h73l50 284h228c248 0 338 -122 338 -281zM390 285h-138l-25 -141h76c178 0 244 148 244 272c0 102 -65 140 -185 140h-62l-25 -140h136z" />
    <glyph glyph-name="dcroat" unicode="&#x111;" horiz-adv-x="631" 
d="M524 0h-165l10 58c-42 -31 -107 -69 -185 -69c-81 0 -162 50 -162 197c0 207 103 350 254 350c80 0 132 -40 166 -69l19 108h-168l15 94h169l11 60h165l-11 -60h58l-16 -94h-59zM255 120c52 0 97 33 137 68l28 159c-27 31 -64 57 -104 57c-81 0 -126 -96 -126 -199
c0 -53 23 -85 65 -85z" />
    <glyph glyph-name="Emacron" unicode="&#x112;" horiz-adv-x="617" 
d="M525 0h-510l122 700h506l-24 -144h-335l-26 -135h274l-25 -141h-272l-27 -136h340zM249 765l17 94h309l-17 -94h-309z" />
    <glyph glyph-name="emacron" unicode="&#x113;" horiz-adv-x="572" 
d="M551 381c0 -144 -141 -171 -313 -171h-51v-4c0 -56 22 -96 86 -96c54 0 127 29 192 59l50 -113c-40 -18 -159 -67 -274 -67c-133 0 -221 65 -221 226c0 183 116 321 314 321c131 0 217 -61 217 -155zM203 614l17 94h310l-17 -94h-310zM330 420c-67 0 -109 -60 -129 -124
h43c96 0 151 27 151 74c0 30 -26 50 -65 50z" />
    <glyph glyph-name="Edotaccent" unicode="&#x116;" horiz-adv-x="617" 
d="M525 0h-510l122 700h506l-24 -144h-335l-26 -135h274l-25 -141h-272l-27 -136h340zM336 750l22 128h131l-21 -128h-132z" />
    <glyph glyph-name="edotaccent" unicode="&#x117;" horiz-adv-x="572" 
d="M551 381c0 -144 -141 -171 -313 -171h-51v-4c0 -56 22 -96 86 -96c54 0 127 29 192 59l50 -113c-40 -18 -159 -67 -274 -67c-133 0 -221 65 -221 226c0 183 116 321 314 321c131 0 217 -61 217 -155zM290 599l22 128h133l-23 -128h-132zM330 420
c-67 0 -109 -60 -129 -124h43c96 0 151 27 151 74c0 30 -26 50 -65 50z" />
    <glyph glyph-name="Eogonek" unicode="&#x118;" horiz-adv-x="617" 
d="M525 0h-3c-56 -28 -109 -63 -109 -99c0 -32 48 -27 69 -27l-27 -72c-31 0 -148 -8 -148 83c0 51 49 86 114 115h-406l123 700h505l-23 -144h-335l-26 -135h273l-24 -141h-273l-26 -136h340z" />
    <glyph glyph-name="eogonek" unicode="&#x119;" horiz-adv-x="572" 
d="M551 381c0 -144 -141 -171 -314 -171h-51v-4c0 -56 22 -96 86 -96c54 0 128 29 193 59l49 -113c-28 -13 -99 -43 -180 -57c-55 -28 -105 -63 -105 -98c0 -32 48 -27 69 -27l-27 -72c-31 0 -149 -8 -149 83c0 45 38 78 93 105c-118 8 -195 74 -195 225
c0 183 115 321 314 321c131 0 217 -61 217 -155zM329 420c-66 0 -108 -60 -128 -124h43c95 0 150 27 150 74c0 30 -26 50 -65 50z" />
    <glyph glyph-name="Ecaron" unicode="&#x11a;" horiz-adv-x="617" 
d="M323 740l-83 140h104l60 -71l86 71h119l-132 -140h-154zM525 0h-510l122 700h506l-24 -144h-335l-26 -135h274l-25 -141h-272l-27 -136h340z" />
    <glyph glyph-name="ecaron" unicode="&#x11b;" horiz-adv-x="572" 
d="M551 381c0 -144 -141 -171 -313 -171h-51v-4c0 -56 22 -96 86 -96c54 0 127 29 192 59l50 -113c-40 -18 -159 -67 -274 -67c-133 0 -221 65 -221 226c0 183 116 321 314 321c131 0 217 -61 217 -155zM278 589l-82 140h104l61 -71l85 71h118l-131 -140h-155zM330 420
c-67 0 -109 -60 -129 -124h43c96 0 151 27 151 74c0 30 -26 50 -65 50z" />
    <glyph glyph-name="Gbreve" unicode="&#x11e;" horiz-adv-x="714" 
d="M452 0l11 65c-55 -44 -116 -76 -191 -76c-131 0 -230 91 -230 278c0 288 156 444 351 444c130 0 231 -59 316 -111l-92 -121c-66 39 -132 78 -204 78c-124 0 -195 -130 -195 -273c0 -85 24 -150 107 -150c62 0 131 48 164 75l12 64h-154l22 134h314l-71 -407h-160z
M436 740c-110 0 -163 54 -152 128h99c-3 -26 16 -41 54 -41c49 0 82 15 86 41h101c-13 -80 -81 -128 -188 -128z" />
    <glyph glyph-name="gbreve" unicode="&#x11f;" horiz-adv-x="629" 
d="M373 589c-110 0 -165 54 -153 128h100c-5 -26 15 -41 54 -41c47 0 82 15 87 41h100c-14 -80 -82 -128 -188 -128zM451 525h163l-91 -518c-30 -176 -114 -221 -266 -221c-95 0 -195 18 -281 43l52 129c63 -20 147 -40 212 -40c85 0 109 36 117 81l10 58
c-42 -31 -107 -68 -183 -68c-80 0 -162 50 -162 197c0 207 103 350 254 350c79 0 131 -39 165 -68zM255 120c51 0 95 32 135 67l29 161c-27 31 -64 56 -104 56c-79 0 -125 -96 -125 -199c0 -53 23 -85 65 -85z" />
    <glyph glyph-name="Gdotaccent" unicode="&#x120;" horiz-adv-x="714" 
d="M452 0l11 65c-55 -44 -116 -76 -191 -76c-131 0 -230 91 -230 278c0 288 156 444 351 444c130 0 231 -59 316 -111l-92 -121c-66 39 -132 78 -204 78c-124 0 -195 -130 -195 -273c0 -85 24 -150 107 -150c62 0 131 48 164 75l12 64h-154l22 134h314l-71 -407h-160z
M367 750l23 128h132l-22 -128h-133z" />
    <glyph glyph-name="gdotaccent" unicode="&#x121;" horiz-adv-x="629" 
d="M303 599l22 128h132l-23 -128h-131zM451 525h163l-91 -518c-30 -176 -114 -221 -266 -221c-95 0 -195 18 -281 43l52 129c63 -20 147 -40 212 -40c85 0 109 36 117 81l10 58c-42 -31 -107 -68 -183 -68c-80 0 -162 50 -162 197c0 207 103 350 254 350
c79 0 131 -39 165 -68zM255 120c51 0 95 32 135 67l29 161c-27 31 -64 56 -104 56c-79 0 -125 -96 -125 -199c0 -53 23 -85 65 -85z" />
    <glyph glyph-name="Gcommaaccent" unicode="&#x122;" horiz-adv-x="714" 
d="M452 0l11 65c-55 -44 -116 -76 -191 -76c-132 0 -230 91 -230 278c0 288 155 444 351 444c129 0 230 -59 316 -111l-92 -121c-66 39 -133 78 -205 78c-123 0 -194 -130 -194 -273c0 -85 24 -150 107 -150c62 0 131 48 164 75l12 64h-155l22 134h315l-71 -407h-160z
M225 -183l21 128h120l-17 -142l-116 -107l-25 39l71 82h-54z" />
    <glyph glyph-name="gcommaaccent" unicode="&#x123;" horiz-adv-x="629" 
d="M459 726l-21 -127h-119l15 142l117 107l25 -39l-69 -83h52zM451 525h163l-91 -518c-30 -176 -114 -221 -266 -221c-95 0 -195 18 -281 43l52 129c63 -20 147 -40 212 -40c85 0 109 36 117 81l10 58c-42 -31 -107 -68 -183 -68c-80 0 -162 50 -162 197
c0 207 103 350 254 350c79 0 131 -39 165 -68zM255 120c51 0 95 32 135 67l29 161c-27 31 -64 56 -104 56c-79 0 -125 -96 -125 -199c0 -53 23 -85 65 -85z" />
    <glyph glyph-name="Hbar" unicode="&#x126;" horiz-adv-x="755" 
d="M451 0l52 297h-252l-52 -297h-171l90 514h-73l15 94h75l16 92h171l-16 -92h252l16 92h171l-16 -92h75l-16 -94h-76l-90 -514h-171zM289 514l-13 -76h252l13 76h-252z" />
    <glyph glyph-name="hbar" unicode="&#x127;" 
d="M45 575l16 94h59l11 60h164l-11 -60h169l-16 -94h-170l-19 -107c50 32 120 68 194 68c118 0 162 -75 142 -188l-62 -348h-165l59 331c9 45 2 78 -45 78c-46 0 -107 -32 -144 -62l-61 -347h-164l101 575h-58z" />
    <glyph glyph-name="Itilde" unicode="&#x128;" horiz-adv-x="306" 
d="M118 743l-67 44c38 54 68 100 129 100c54 0 96 -48 130 -48c12 0 29 6 60 48l67 -44c-38 -55 -68 -101 -129 -101c-54 0 -95 48 -129 48c-12 0 -30 -6 -61 -47zM186 0h-171l123 700h171z" />
    <glyph glyph-name="itilde" unicode="&#x129;" horiz-adv-x="274" 
d="M75 592l-66 44c37 54 68 100 128 100c54 0 97 -48 131 -48c12 0 29 6 60 48l67 -44c-38 -55 -68 -101 -129 -101c-54 0 -95 48 -129 48c-12 0 -30 -6 -62 -47zM166 0h-164l93 525h164z" />
    <glyph glyph-name="Imacron" unicode="&#x12a;" horiz-adv-x="306" 
d="M186 0h-171l123 700h171zM79 765l17 94h310l-17 -94h-310z" />
    <glyph glyph-name="imacron" unicode="&#x12b;" horiz-adv-x="274" 
d="M166 0h-164l93 525h164zM36 614l16 94h310l-16 -94h-310z" />
    <glyph glyph-name="Ibreve" unicode="&#x12c;" horiz-adv-x="306" 
d="M235 740c-109 0 -163 54 -152 128h99c-3 -26 16 -41 54 -41c48 0 81 15 86 41h101c-14 -80 -82 -128 -188 -128zM186 0h-171l123 700h171z" />
    <glyph glyph-name="ibreve" unicode="&#x12d;" horiz-adv-x="274" 
d="M193 589c-110 0 -164 54 -153 128h100c-4 -26 15 -41 54 -41c48 0 81 15 86 41h100c-13 -80 -81 -128 -187 -128zM166 0h-164l93 525h164z" />
    <glyph glyph-name="Iogonek" unicode="&#x12e;" horiz-adv-x="306" 
d="M185 0h-4c-56 -28 -110 -63 -110 -99c0 -32 49 -27 70 -27l-27 -72c-31 0 -149 -8 -149 83c0 51 49 86 115 115h-66l124 700h170z" />
    <glyph glyph-name="iogonek" unicode="&#x12f;" horiz-adv-x="274" 
d="M165 0h-3c-56 -28 -110 -63 -110 -99c0 -32 48 -27 70 -27l-27 -72c-31 0 -149 -8 -149 83c0 51 50 86 115 115h-60l93 525h163zM103 592l22 134h172l-23 -134h-171z" />
    <glyph glyph-name="Idotaccent" unicode="&#x130;" horiz-adv-x="306" 
d="M186 0h-171l123 700h171zM166 750l22 128h132l-21 -128h-133z" />
    <glyph glyph-name="dotlessi" unicode="&#x131;" horiz-adv-x="274" 
d="M166 0h-164l93 525h164z" />
    <glyph glyph-name="IJ" unicode="&#x132;" horiz-adv-x="612" 
d="M626 700l-111 -631c-25 -142 -34 -203 -272 -254l-39 132c116 34 128 50 139 113l113 640h170zM186 0h-171l123 700h171z" />
    <glyph glyph-name="ij" unicode="&#x133;" horiz-adv-x="548" 
d="M388 592l23 134h172l-23 -134h-172zM544 525l-90 -501c-25 -142 -34 -203 -270 -254l-35 124c122 38 128 52 139 116l92 515h164zM166 0h-164l93 525h164zM104 592l23 134h171l-22 -134h-172z" />
    <glyph glyph-name="Jcircumflex" unicode="&#x134;" horiz-adv-x="306" 
d="M308 700l-111 -631c-25 -142 -35 -203 -273 -254l-38 132c116 34 127 50 139 113l113 640h170zM332 880l82 -140h-104l-61 70l-84 -70h-119l131 140h155z" />
    <glyph glyph-name="jcircumflex" unicode="&#x135;" horiz-adv-x="274" 
d="M259 525l-89 -501c-26 -142 -35 -203 -271 -254l-35 124c122 38 128 52 139 116l92 515h164zM289 729l83 -140h-105l-60 70l-85 -70h-118l131 140h154z" />
    <glyph glyph-name="Kcommaaccent" unicode="&#x136;" horiz-adv-x="699" 
d="M15 0l123 700h171l-52 -293l289 293h219l-336 -331l224 -369h-188l-152 256l-100 -99l-27 -157h-171zM203 -183l22 128h118l-15 -142l-117 -107l-25 39l69 82h-52z" />
    <glyph glyph-name="kcommaaccent" unicode="&#x137;" horiz-adv-x="577" 
d="M598 525l-220 -214l156 -311h-166l-101 203l-79 -77l-22 -126h-164l129 729h164l-68 -383l171 179h200zM151 -183l21 128h120l-16 -142l-117 -107l-25 39l70 82h-53z" />
    <glyph glyph-name="kgreenlandic" unicode="&#x138;" horiz-adv-x="577" 
d="M598 525l-220 -214l156 -311h-166l-101 203l-79 -77l-22 -126h-164l93 525h164l-32 -179l171 179h200z" />
    <glyph glyph-name="Lacute" unicode="&#x139;" horiz-adv-x="572" 
d="M260 740h-142l147 140h191zM509 0h-494l123 700h171l-100 -559h323z" />
    <glyph glyph-name="lacute" unicode="&#x13a;" horiz-adv-x="277" 
d="M249 769h-142l147 140h191zM167 0h-164l129 729h164z" />
    <glyph glyph-name="Lcommaaccent" unicode="&#x13b;" horiz-adv-x="572" 
d="M166 -183l22 128h119l-16 -142l-117 -107l-25 39l70 82h-53zM510 0h-495l123 700h171l-100 -559h323z" />
    <glyph glyph-name="lcommaaccent" unicode="&#x13c;" horiz-adv-x="277" 
d="M-4 -183l21 128h120l-16 -142l-117 -107l-25 39l70 82h-53zM167 0h-164l129 729h164z" />
    <glyph glyph-name="Lcaron" unicode="&#x13d;" horiz-adv-x="572" 
d="M337 572l21 128h120l-16 -142l-117 -107l-25 39l71 82h-54zM510 0h-495l123 700h171l-100 -559h323z" />
    <glyph glyph-name="lcaron" unicode="&#x13e;" horiz-adv-x="348" 
d="M324 601l22 128h120l-16 -142l-117 -107l-26 39l71 82h-54zM168 0h-165l129 729h165z" />
    <glyph glyph-name="Ldot" unicode="&#x13f;" horiz-adv-x="573" 
d="M510 0h-495l123 700h171l-100 -559h323zM384 305l22 128h133l-22 -128h-133z" />
    <glyph glyph-name="ldot" unicode="&#x140;" horiz-adv-x="391" 
d="M168 0h-165l129 729h165zM268 305l22 128h133l-22 -128h-133z" />
    <glyph glyph-name="Lslash" unicode="&#x141;" horiz-adv-x="594" 
d="M525 0h-494l39 225l-72 -37l24 149l75 38l57 325h171l-41 -229l143 73l-25 -150l-145 -74l-32 -179h324z" />
    <glyph glyph-name="lslash" unicode="&#x142;" horiz-adv-x="319" 
d="M190 0h-164l42 242l-65 -33l25 149l67 34l59 337h164l-43 -244l65 34l-24 -150l-67 -35z" />
    <glyph glyph-name="Nacute" unicode="&#x143;" horiz-adv-x="745" 
d="M452 0l-187 453l-79 -453h-171l123 700h173l186 -453l80 453h171l-123 -700h-173zM485 740h-142l148 140h190z" />
    <glyph glyph-name="nacute" unicode="&#x144;" 
d="M259 525l-10 -57c49 32 119 68 193 68c118 0 162 -75 142 -188l-62 -348h-165l59 331c9 45 2 78 -45 78c-46 0 -107 -32 -144 -62l-61 -347h-164l93 525h164zM396 589h-142l147 140h190z" />
    <glyph glyph-name="Ncommaaccent" unicode="&#x145;" horiz-adv-x="745" 
d="M311 700l187 -454l80 454h170l-123 -700h-173l-186 454l-80 -454h-171l123 700h173zM237 -183l21 128h120l-15 -142l-118 -107l-25 39l70 82h-53z" />
    <glyph glyph-name="ncommaaccent" unicode="&#x146;" 
d="M259 525l-10 -57c49 32 119 68 193 68c118 0 162 -75 142 -188l-62 -348h-165l59 331c9 45 2 78 -45 78c-46 0 -107 -32 -144 -62l-61 -347h-164l93 525h164zM173 -183l21 128h119l-15 -142l-117 -107l-25 39l69 82h-52z" />
    <glyph glyph-name="Ncaron" unicode="&#x147;" horiz-adv-x="745" 
d="M311 700l186 -453l80 453h171l-123 -700h-173l-187 453l-79 -453h-171l123 700h173zM378 740l-82 140h104l61 -71l84 71h119l-131 -140h-155z" />
    <glyph glyph-name="ncaron" unicode="&#x148;" 
d="M259 525l-10 -57c49 32 119 68 193 68c118 0 162 -75 142 -188l-62 -348h-165l59 331c9 45 2 78 -45 78c-46 0 -107 -32 -144 -62l-61 -347h-164l93 525h164zM288 589l-84 140h105l61 -71l85 71h119l-132 -140h-154z" />
    <glyph glyph-name="napostrophe" unicode="&#x149;" 
d="M259 525l-10 -57c49 32 119 68 193 68c118 0 162 -75 142 -188l-62 -348h-165l59 331c9 45 2 78 -45 78c-46 0 -107 -32 -144 -62l-61 -347h-164l93 525h164zM123 679l22 128h120l-16 -142l-117 -107l-26 38l70 83h-53z" />
    <glyph glyph-name="Eng" unicode="&#x14a;" horiz-adv-x="745" 
d="M748 700l-115 -658c-24 -125 -46 -179 -269 -227l-39 132c76 22 107 35 123 63l-182 444l-80 -454h-171l123 700h173l187 -454l80 454h170z" />
    <glyph glyph-name="eng" unicode="&#x14b;" horiz-adv-x="624" 
d="M525 24c-25 -142 -35 -203 -270 -254l-36 124c122 38 128 52 139 116l59 321c8 45 1 78 -46 78c-46 0 -107 -32 -144 -62l-61 -347h-164l93 525h164l-10 -57c49 32 119 68 193 68c118 0 162 -75 142 -188z" />
    <glyph glyph-name="Omacron" unicode="&#x14c;" horiz-adv-x="772" 
d="M408 711c222 0 339 -116 339 -310c1 -137 -71 -413 -366 -413c-222 0 -339 116 -339 310c-1 137 71 413 366 413zM375 133c146 0 196 165 196 263c0 101 -41 170 -157 170c-146 0 -196 -165 -196 -263c0 -101 41 -170 157 -170zM313 765l16 94h310l-17 -94h-309z" />
    <glyph glyph-name="omacron" unicode="&#x14d;" 
d="M315 536c170 0 275 -88 275 -241c0 -165 -99 -306 -293 -306c-171 0 -276 87 -276 241c0 165 99 306 294 306zM293 115c87 0 132 92 132 182c0 70 -33 113 -107 113c-87 0 -132 -92 -132 -182c0 -70 33 -113 107 -113zM212 614l16 94h310l-16 -94h-310z" />
    <glyph glyph-name="Obreve" unicode="&#x14e;" horiz-adv-x="772" 
d="M408 711c222 0 339 -116 339 -310c1 -137 -71 -413 -366 -413c-222 0 -339 116 -339 310c-1 137 71 413 366 413zM375 133c146 0 196 165 196 263c0 101 -41 170 -157 170c-146 0 -196 -165 -196 -263c0 -101 41 -170 157 -170zM469 740c-110 0 -164 54 -153 128h100
c-4 -26 15 -41 54 -41c47 0 81 15 86 41h100c-13 -80 -81 -128 -187 -128z" />
    <glyph glyph-name="obreve" unicode="&#x14f;" 
d="M315 536c170 0 275 -88 275 -241c0 -165 -99 -306 -293 -306c-171 0 -276 87 -276 241c0 165 99 306 294 306zM293 115c87 0 132 92 132 182c0 70 -33 113 -107 113c-87 0 -132 -92 -132 -182c0 -70 33 -113 107 -113zM369 589c-110 0 -164 54 -153 128h100
c-4 -26 15 -41 54 -41c48 0 82 15 87 41h99c-13 -80 -80 -128 -187 -128z" />
    <glyph glyph-name="Ohungarumlaut" unicode="&#x150;" horiz-adv-x="772" 
d="M408 711c222 0 339 -116 339 -310c1 -137 -71 -413 -366 -413c-222 0 -339 116 -339 310c-1 137 71 413 366 413zM375 133c146 0 196 165 196 263c0 101 -41 170 -157 170c-146 0 -196 -165 -196 -263c0 -101 41 -170 157 -170zM588 740h-98l104 140h146zM405 740h-98
l104 140h146z" />
    <glyph glyph-name="ohungarumlaut" unicode="&#x151;" 
d="M315 536c170 0 275 -88 275 -241c0 -165 -99 -306 -293 -306c-171 0 -276 87 -276 241c0 165 99 306 294 306zM293 115c87 0 132 92 132 182c0 70 -33 113 -107 113c-87 0 -132 -92 -132 -182c0 -70 33 -113 107 -113zM488 589h-98l103 140h147zM304 589h-98l104 140h147
z" />
    <glyph glyph-name="OE" unicode="&#x152;" horiz-adv-x="1116" 
d="M1026 0h-510l2 11c-39 -14 -84 -23 -136 -23c-222 0 -339 116 -339 310c-1 137 71 413 366 413c92 0 166 -20 221 -57l8 46h505l-23 -144h-334l-26 -135h273l-23 -141h-275l-25 -136h340zM376 133c146 0 196 165 196 263c0 101 -41 170 -157 170
c-146 0 -196 -165 -196 -263c0 -101 41 -170 157 -170z" />
    <glyph glyph-name="oe" unicode="&#x153;" horiz-adv-x="974" 
d="M952 381c0 -144 -140 -171 -312 -171h-52v-4c0 -56 21 -96 85 -96c54 0 128 29 193 59l49 -113c-39 -18 -158 -67 -273 -67c-68 0 -125 17 -164 56c-46 -35 -107 -56 -181 -56c-171 0 -276 87 -276 241c0 165 99 306 294 306c90 0 163 -25 210 -72c53 45 124 72 211 72
c130 0 216 -61 216 -155zM293 115c87 0 132 92 132 182c0 70 -33 113 -107 113c-87 0 -132 -92 -132 -182c0 -70 33 -113 107 -113zM730 420c-66 0 -108 -60 -128 -124h44c95 0 149 27 149 74c0 30 -26 50 -65 50z" />
    <glyph glyph-name="Racute" unicode="&#x154;" horiz-adv-x="706" 
d="M447 0l-116 263h-99l-46 -263h-171l123 700h301c182 0 272 -67 272 -196c0 -95 -62 -212 -215 -237l126 -267h-175zM535 500c0 54 -49 67 -111 67h-137l-33 -171h143c87 0 138 37 138 104zM478 740h-142l148 140h190z" />
    <glyph glyph-name="racute" unicode="&#x155;" horiz-adv-x="428" 
d="M259 525l-19 -109c17 30 84 124 214 115l-26 -154c-172 0 -225 -184 -225 -184l-37 -193h-164l93 525h164zM315 589h-142l147 140h191z" />
    <glyph glyph-name="Rcommaaccent" unicode="&#x156;" horiz-adv-x="706" 
d="M447 0l-116 263h-98l-47 -263h-171l123 700h301c182 0 273 -67 273 -196c0 -95 -63 -211 -215 -236l125 -268h-175zM536 500c0 54 -50 67 -112 67h-137l-32 -171h143c87 0 138 37 138 104zM207 -183l22 128h120l-16 -142l-117 -107l-25 39l70 82h-54z" />
    <glyph glyph-name="rcommaaccent" unicode="&#x157;" horiz-adv-x="428" 
d="M259 525l-20 -109c17 30 84 124 215 115l-26 -154c-172 0 -226 -184 -226 -184l-36 -193h-164l93 525h164zM-6 -183l22 128h119l-16 -142l-117 -107l-25 39l70 82h-53z" />
    <glyph glyph-name="Rcaron" unicode="&#x158;" horiz-adv-x="706" 
d="M447 0l-116 263h-99l-46 -263h-171l123 700h301c182 0 272 -67 272 -196c0 -95 -62 -212 -215 -237l126 -267h-175zM535 500c0 54 -49 67 -111 67h-137l-33 -171h143c87 0 138 37 138 104zM371 740l-81 140h103l61 -71l85 71h119l-132 -140h-155z" />
    <glyph glyph-name="rcaron" unicode="&#x159;" horiz-adv-x="428" 
d="M259 525l-19 -109c17 30 84 124 214 115l-26 -154c-172 0 -225 -184 -225 -184l-37 -193h-164l93 525h164zM208 589l-82 140h104l61 -71l85 71h118l-131 -140h-155z" />
    <glyph glyph-name="Sacute" unicode="&#x15a;" horiz-adv-x="646" 
d="M428 740h-141l147 140h190zM447 407c74 -32 155 -82 155 -193c0 -126 -104 -225 -279 -225c-135 0 -260 58 -335 109l90 116c63 -37 163 -84 238 -84c58 0 102 24 102 64c0 57 -101 64 -195 106c-77 34 -150 85 -150 191c0 121 98 220 272 220c122 0 231 -48 310 -94
l-89 -113c-54 30 -147 66 -211 66c-51 0 -97 -20 -97 -63c0 -53 84 -54 189 -100z" />
    <glyph glyph-name="sacute" unicode="&#x15b;" horiz-adv-x="539" 
d="M354 589h-143l147 140h191zM329 323c77 -23 164 -60 164 -161c0 -102 -88 -173 -234 -173c-114 0 -217 44 -276 83l74 107c54 -30 142 -65 204 -65c40 0 63 14 63 33c0 32 -63 41 -122 59c-70 21 -158 57 -158 158c0 96 80 172 222 172c98 0 199 -36 254 -67l-73 -105
c-45 22 -113 48 -171 48c-39 0 -65 -12 -65 -33c0 -30 51 -36 118 -56z" />
    <glyph glyph-name="Scircumflex" unicode="&#x15c;" horiz-adv-x="646" 
d="M501 880l82 -140h-104l-60 70l-85 -70h-119l131 140h155zM447 407c74 -32 155 -82 155 -193c0 -126 -104 -225 -279 -225c-135 0 -260 58 -335 109l90 116c63 -37 163 -84 238 -84c58 0 102 24 102 64c0 57 -101 64 -195 106c-77 34 -150 85 -150 191
c0 121 98 220 272 220c122 0 231 -48 310 -94l-89 -113c-54 30 -147 66 -211 66c-51 0 -97 -20 -97 -63c0 -53 84 -54 189 -100z" />
    <glyph glyph-name="scircumflex" unicode="&#x15d;" horiz-adv-x="539" 
d="M426 729l83 -140h-104l-62 70l-84 -70h-119l132 140h154zM329 323c77 -23 164 -60 164 -161c0 -102 -88 -173 -234 -173c-114 0 -217 44 -276 83l74 107c54 -30 142 -65 204 -65c40 0 63 14 63 33c0 32 -63 41 -122 59c-70 21 -158 57 -158 158c0 96 80 172 222 172
c98 0 199 -36 254 -67l-73 -105c-45 22 -113 48 -171 48c-39 0 -65 -12 -65 -33c0 -30 51 -36 118 -56z" />
    <glyph glyph-name="Scedilla" unicode="&#x15e;" horiz-adv-x="647" 
d="M448 407c74 -32 155 -82 155 -193c0 -122 -98 -219 -263 -225c7 -14 18 -38 18 -67c0 -75 -60 -109 -129 -109c-29 0 -66 6 -93 23l44 78c20 -10 36 -11 46 -11c25 0 52 9 52 42c0 18 -7 37 -12 48c-112 13 -213 61 -277 105l90 116c63 -37 163 -84 238 -84
c58 0 103 24 103 64c0 57 -101 64 -196 106c-77 34 -149 85 -149 191c0 121 97 220 271 220c122 0 232 -48 311 -94l-90 -113c-53 30 -147 66 -210 66c-52 0 -98 -20 -98 -63c0 -53 84 -54 189 -100z" />
    <glyph glyph-name="scedilla" unicode="&#x15f;" horiz-adv-x="539" 
d="M329 323c77 -23 164 -60 164 -161c0 -94 -74 -161 -199 -171c8 -14 19 -39 19 -69c0 -75 -59 -109 -128 -109c-29 0 -67 6 -94 23l44 78c19 -10 37 -11 47 -11c24 0 51 9 51 42c0 17 -7 35 -12 46c-99 8 -186 46 -238 81l74 107c54 -30 142 -65 204 -65c40 0 63 14 63 33
c0 32 -63 41 -122 59c-70 21 -158 57 -158 158c0 96 80 172 222 172c98 0 199 -36 254 -67l-73 -105c-45 22 -113 48 -171 48c-39 0 -65 -12 -65 -33c0 -30 51 -36 118 -56z" />
    <glyph glyph-name="Scaron" unicode="&#x160;" horiz-adv-x="646" 
d="M322 740l-82 140h104l60 -71l85 71h119l-131 -140h-155zM447 407c74 -32 155 -82 155 -193c0 -126 -104 -225 -279 -225c-135 0 -260 58 -335 109l90 116c63 -37 163 -84 238 -84c58 0 102 24 102 64c0 57 -101 64 -195 106c-77 34 -150 85 -150 191
c0 121 98 220 272 220c122 0 231 -48 310 -94l-89 -113c-54 30 -147 66 -211 66c-51 0 -97 -20 -97 -63c0 -53 84 -54 189 -100z" />
    <glyph glyph-name="scaron" unicode="&#x161;" horiz-adv-x="539" 
d="M246 589l-83 140h105l61 -71l85 71h118l-132 -140h-154zM329 323c77 -23 164 -60 164 -161c0 -102 -88 -173 -234 -173c-114 0 -217 44 -276 83l74 107c54 -30 142 -65 204 -65c40 0 63 14 63 33c0 32 -63 41 -122 59c-70 21 -158 57 -158 158c0 96 80 172 222 172
c98 0 199 -36 254 -67l-73 -105c-45 22 -113 48 -171 48c-39 0 -65 -12 -65 -33c0 -30 51 -36 118 -56z" />
    <glyph glyph-name="Tcedilla" unicode="&#x162;" horiz-adv-x="597" 
d="M628 556h-199l-100 -556h-50c5 -7 24 -39 24 -78c0 -75 -59 -109 -127 -109c-30 0 -68 6 -94 23l44 78c19 -10 37 -11 47 -11c24 0 50 9 50 42c0 23 -12 48 -15 55h-49l99 556h-200l24 144h570z" />
    <glyph glyph-name="tcedilla" unicode="&#x163;" horiz-adv-x="426" 
d="M38 405l20 120h70l24 132l168 20l-27 -152h140l-19 -120h-143l-40 -225c-8 -42 12 -48 30 -48c23 0 62 13 80 20l41 -126c-34 -12 -94 -31 -152 -36c7 -14 18 -38 18 -68c0 -75 -60 -109 -129 -109c-29 0 -66 6 -93 23l45 78c18 -10 36 -11 45 -11c25 0 52 9 52 42
c0 19 -9 40 -14 50c-73 20 -104 89 -84 200l37 210h-69z" />
    <glyph glyph-name="Tcaron" unicode="&#x164;" horiz-adv-x="597" 
d="M296 740l-82 140h105l60 -71l85 71h118l-131 -140h-155zM629 556h-200l-99 -556h-171l99 556h-200l24 144h571z" />
    <glyph glyph-name="tcaron" unicode="&#x165;" horiz-adv-x="425" 
d="M38 405l20 120h71l24 132l167 20l-27 -152h140l-19 -120h-143l-40 -225c-8 -42 11 -48 30 -48c23 0 62 13 81 20l40 -126c-39 -14 -114 -37 -180 -37c-107 0 -156 73 -132 206l37 210h-69zM370 679l22 128h120l-17 -142l-116 -107l-26 38l71 83h-54z" />
    <glyph glyph-name="Tbar" unicode="&#x166;" horiz-adv-x="604" 
d="M110 208l16 94h91l46 254h-201l24 144h571l-24 -144h-199l-46 -254h89l-15 -94h-91l-37 -208h-171l37 208h-90z" />
    <glyph glyph-name="tbar" unicode="&#x167;" horiz-adv-x="426" 
d="M39 405l19 120h71l24 132l168 20l-27 -152h141l-20 -120h-143l-11 -64h110l-16 -95h-111l-12 -66c-8 -42 11 -48 30 -48c23 0 62 13 81 20l39 -126c-38 -14 -114 -37 -178 -37c-108 0 -157 73 -134 206l9 51h-48l16 95h49l11 64h-68z" />
    <glyph glyph-name="Utilde" unicode="&#x168;" horiz-adv-x="718" 
d="M323 743l-67 44c38 54 68 100 129 100c54 0 96 -48 130 -48c12 0 29 6 60 48l67 -44c-38 -55 -68 -101 -129 -101c-54 0 -95 48 -129 48c-12 0 -30 -6 -61 -47zM728 700l-77 -431c-27 -154 -97 -280 -326 -280c-261 0 -295 143 -263 325l67 386h173l-76 -424
c-14 -79 -3 -141 101 -141c106 0 140 62 154 141l76 424h171z" />
    <glyph glyph-name="utilde" unicode="&#x169;" horiz-adv-x="624" 
d="M353 0l10 56c-50 -32 -120 -67 -193 -67c-118 0 -161 74 -141 187l61 349h165l-60 -331c-8 -45 -1 -78 46 -78c46 0 108 32 143 61l62 348h164l-93 -525h-164zM256 592l-66 44c37 54 68 100 128 100c54 0 96 -48 130 -48c12 0 30 6 61 48l66 -44
c-37 -55 -68 -101 -128 -101c-54 0 -96 48 -130 48c-12 0 -30 -6 -61 -47z" />
    <glyph glyph-name="Umacron" unicode="&#x16a;" horiz-adv-x="718" 
d="M728 700l-77 -431c-27 -154 -97 -280 -326 -280c-261 0 -295 143 -263 325l67 386h173l-76 -424c-14 -79 -3 -141 101 -141c106 0 140 62 154 141l76 424h171zM285 765l17 94h310l-17 -94h-310z" />
    <glyph glyph-name="umacron" unicode="&#x16b;" horiz-adv-x="624" 
d="M353 0l10 56c-50 -32 -120 -67 -193 -67c-118 0 -161 74 -141 187l61 349h165l-60 -331c-8 -45 -1 -78 46 -78c46 0 108 32 143 61l62 348h164l-93 -525h-164zM210 614l17 94h309l-17 -94h-309z" />
    <glyph glyph-name="Ubreve" unicode="&#x16c;" horiz-adv-x="718" 
d="M442 740c-110 0 -164 54 -153 128h100c-4 -26 16 -41 54 -41c47 0 81 15 86 41h100c-14 -80 -81 -128 -187 -128zM728 700l-77 -431c-27 -154 -97 -280 -326 -280c-261 0 -295 143 -263 325l67 386h173l-76 -424c-14 -79 -3 -141 101 -141c106 0 140 62 154 141l76 424
h171z" />
    <glyph glyph-name="ubreve" unicode="&#x16d;" horiz-adv-x="624" 
d="M353 0l10 56c-50 -32 -120 -67 -193 -67c-118 0 -161 74 -141 187l61 349h165l-60 -331c-8 -45 -1 -78 46 -78c46 0 108 32 143 61l62 348h164l-93 -525h-164zM366 589c-110 0 -164 53 -153 127h100c-4 -25 15 -40 54 -40c48 0 82 15 87 40h100
c-14 -79 -81 -127 -188 -127z" />
    <glyph glyph-name="Uring" unicode="&#x16e;" horiz-adv-x="718" 
d="M342 844c0 64 51 115 114 115c64 0 115 -51 115 -115c0 -63 -51 -114 -115 -114c-63 0 -114 51 -114 114zM418 844c0 -21 17 -38 38 -38c22 0 39 17 39 38c0 22 -17 39 -39 39c-21 0 -38 -17 -38 -39zM728 700l-77 -431c-27 -154 -97 -280 -326 -280
c-261 0 -295 143 -263 325l67 386h173l-76 -424c-14 -79 -3 -141 101 -141c106 0 140 62 154 141l76 424h171z" />
    <glyph glyph-name="uring" unicode="&#x16f;" horiz-adv-x="624" 
d="M353 0l10 56c-50 -32 -120 -67 -193 -67c-118 0 -161 74 -141 187l61 349h165l-60 -331c-8 -45 -1 -78 46 -78c46 0 108 32 143 61l62 348h164l-93 -525h-164zM266 693c0 64 52 115 115 115s115 -51 115 -115c0 -63 -52 -114 -115 -114s-115 51 -115 114zM343 693
c0 -21 17 -38 38 -38s38 17 38 38c0 22 -17 39 -38 39s-38 -17 -38 -39z" />
    <glyph glyph-name="Uhungarumlaut" unicode="&#x170;" horiz-adv-x="718" 
d="M728 700l-77 -431c-27 -154 -97 -280 -326 -280c-261 0 -295 143 -263 325l67 386h173l-76 -424c-14 -79 -3 -141 101 -141c106 0 140 62 154 141l76 424h171zM562 740h-98l103 140h147zM379 740h-98l103 140h147z" />
    <glyph glyph-name="uhungarumlaut" unicode="&#x171;" horiz-adv-x="624" 
d="M353 0l10 56c-50 -32 -120 -67 -193 -67c-118 0 -161 74 -141 187l61 349h165l-60 -331c-8 -45 -1 -78 46 -78c46 0 108 32 143 61l62 348h164l-93 -525h-164zM485 589h-98l104 140h146zM302 589h-98l105 140h145z" />
    <glyph glyph-name="Uogonek" unicode="&#x172;" horiz-adv-x="719" 
d="M304 -99c0 -32 49 -27 71 -27l-28 -72c-30 0 -150 -8 -150 83c0 45 38 78 94 105c-231 12 -261 150 -230 324l67 386h173l-76 -424c-14 -79 -3 -141 101 -141c106 0 140 62 154 141l76 424h171l-77 -431c-24 -135 -81 -249 -248 -274c-51 -27 -98 -60 -98 -94z" />
    <glyph glyph-name="uogonek" unicode="&#x173;" horiz-adv-x="624" 
d="M353 0l10 56c-50 -32 -119 -67 -193 -67c-118 0 -161 74 -141 187l62 349h164l-59 -331c-9 -45 -2 -78 45 -78s108 32 143 61l62 348h164l-93 -525h-3c-56 -28 -109 -63 -109 -99c0 -32 48 -27 69 -27l-27 -72c-30 0 -149 -8 -149 83c0 51 49 86 115 115h-60z" />
    <glyph glyph-name="Wcircumflex" unicode="&#x174;" horiz-adv-x="971" 
d="M547 0l-34 455l-197 -455h-168l-70 700h191l17 -452l194 452h143l30 -448l174 448h203l-316 -700h-167zM664 880l82 -140h-104l-60 70l-86 -70h-118l131 140h155z" />
    <glyph glyph-name="wcircumflex" unicode="&#x175;" horiz-adv-x="840" 
d="M461 0l-36 322l-155 -322h-154l-67 525h169l16 -345l156 345h135l31 -338l133 338h179l-253 -525h-154zM572 729l82 -140h-104l-60 70l-85 -70h-119l131 140h155z" />
    <glyph glyph-name="ycircumflex" unicode="&#x177;" horiz-adv-x="585" 
d="M45 525h170l50 -329l171 329h182l-413 -729h-187l135 216zM445 729l82 -140h-105l-61 70l-84 -70h-119l131 140h156z" />
    <glyph glyph-name="Ydieresis" unicode="&#x178;" horiz-adv-x="665" 
d="M192 0l49 279l-175 421h181l96 -278l192 278h200l-324 -423l-48 -277h-171zM439 750l22 128h133l-23 -128h-132zM248 750l22 128h132l-22 -128h-132z" />
    <glyph glyph-name="Zacute" unicode="&#x179;" horiz-adv-x="640" 
d="M670 700l-21 -130l-420 -426h346l-23 -144h-576l21 131l419 425h-319l23 144h550zM432 740h-142l147 140h191z" />
    <glyph glyph-name="zacute" unicode="&#x17a;" horiz-adv-x="562" 
d="M-24 0l19 113l311 277h-250l23 135h489l-19 -113l-310 -277h259l-23 -135h-499zM361 589h-142l146 140h192z" />
    <glyph glyph-name="Zdotaccent" unicode="&#x17b;" horiz-adv-x="640" 
d="M-25 0l22 131l419 425h-319l23 144h550l-21 -130l-420 -426h346l-23 -144h-577zM338 750l22 128h133l-22 -128h-133z" />
    <glyph glyph-name="zdotaccent" unicode="&#x17c;" horiz-adv-x="562" 
d="M-24 0l19 113l311 277h-250l23 135h489l-19 -113l-310 -277h259l-23 -135h-499zM266 599l22 128h133l-24 -128h-131z" />
    <glyph glyph-name="Zcaron" unicode="&#x17d;" horiz-adv-x="640" 
d="M670 700l-21 -130l-420 -426h346l-23 -144h-576l21 131l419 425h-319l23 144h550zM324 740l-82 140h105l60 -71l85 71h119l-131 -140h-156z" />
    <glyph glyph-name="zcaron" unicode="&#x17e;" horiz-adv-x="562" 
d="M-24 0l19 113l311 277h-250l23 135h489l-19 -113l-310 -277h259l-23 -135h-499zM254 589l-83 140h104l62 -71l85 71h118l-132 -140h-154z" />
    <glyph glyph-name="longs" unicode="&#x17f;" horiz-adv-x="328" 
d="M38 405l21 120h71l2 12c21 128 65 192 177 192c80 0 157 -34 195 -55l-72 -105c-20 7 -62 19 -87 19c-19 0 -40 -8 -48 -49l-86 -480c-32 -173 -41 -235 -278 -286l-35 124c123 38 128 53 145 149l65 359h-70z" />
    <glyph glyph-name="florin" unicode="&#x192;" horiz-adv-x="604" 
d="M119 405l45 120h72l8 18c49 121 95 186 212 186c84 0 171 -43 198 -56l-95 -107c-23 8 -64 24 -92 19c-22 -3 -41 -16 -56 -50l-4 -10h134l-46 -120h-138l-251 -609h-167l248 609h-68z" />
    <glyph glyph-name="AEacute" unicode="&#x1fc;" horiz-adv-x="1069" 
d="M506 700h589l-23 -144h-335l-26 -135h274l-25 -141h-273l-26 -136h340l-23 -144h-510l22 128h-255l-103 -128h-218zM681 740h-143l147 140h192zM347 266h167l46 264z" />
    <glyph glyph-name="aeacute" unicode="&#x1fd;" horiz-adv-x="950" 
d="M524 0h-164l10 59c-42 -31 -107 -70 -186 -70c-81 0 -162 50 -162 197c0 207 103 350 254 350c80 0 132 -39 166 -68l10 57h165v-1c29 8 60 12 94 12c130 0 217 -61 217 -155c0 -144 -141 -171 -313 -171h-51v-4c0 -56 21 -96 85 -96c55 0 128 29 192 59l50 -113
c-39 -18 -158 -67 -273 -67c-35 0 -66 5 -94 13v-2zM255 120c52 0 97 34 138 69l4 23v3c0 47 8 92 23 132c-28 32 -64 57 -104 57c-81 0 -126 -96 -126 -199c0 -53 23 -85 65 -85zM552 589h-142l146 140h192zM707 420c-67 0 -109 -60 -129 -124h43c96 0 151 27 151 74
c0 30 -26 50 -65 50z" />
    <glyph glyph-name="Oslashacute" unicode="&#x1fe;" horiz-adv-x="772" 
d="M789 700l-99 -104c37 -51 57 -117 57 -195c0 -137 -71 -413 -366 -413c-91 0 -164 19 -219 55l-41 -43h-119l97 102c-38 50 -58 117 -58 196c0 137 72 413 366 413c91 0 165 -20 220 -56l43 45h119zM218 303c0 -25 2 -48 8 -69l289 304c-24 18 -57 28 -101 28
c-146 0 -196 -165 -196 -263zM375 133c146 0 196 165 196 263c0 24 -3 47 -8 67l-289 -303c24 -17 57 -27 101 -27zM494 740h-142l147 140h191z" />
    <glyph glyph-name="oslashacute" unicode="&#x1ff;" horiz-adv-x="626" 
d="M518 525h96l-75 -75c34 -39 52 -92 52 -155c0 -165 -99 -306 -293 -306c-71 0 -131 15 -176 43l-32 -32h-98l78 78c-31 39 -48 90 -48 152c0 165 99 306 294 306c68 0 126 -15 171 -42zM581 729l-195 -140h-142l147 140h190zM294 115c87 0 132 92 132 182
c0 13 -1 25 -4 36l-198 -198c17 -13 40 -20 70 -20zM187 228c0 -11 1 -22 2 -31l196 195c-16 12 -38 18 -66 18c-87 0 -132 -92 -132 -182z" />
    <glyph glyph-name="Scommaaccent" unicode="&#x218;" horiz-adv-x="646" 
d="M180 -183l22 128h120l-16 -142l-117 -107l-26 39l71 82h-54zM447 407c74 -32 155 -82 155 -193c0 -126 -104 -225 -279 -225c-134 0 -260 58 -335 109l90 116c63 -37 163 -84 238 -84c58 0 103 24 103 64c0 57 -101 64 -196 106c-77 34 -149 85 -149 191
c0 121 97 220 271 220c122 0 232 -48 311 -94l-90 -113c-53 30 -147 66 -210 66c-52 0 -98 -20 -98 -63c0 -53 84 -54 189 -100z" />
    <glyph glyph-name="scommaaccent" unicode="&#x219;" horiz-adv-x="539" 
d="M124 -183l22 128h119l-16 -142l-117 -107l-25 39l69 82h-52zM329 323c77 -23 164 -60 164 -161c0 -102 -88 -173 -234 -173c-114 0 -217 44 -276 83l74 107c54 -30 142 -65 204 -65c40 0 63 14 63 33c0 32 -63 41 -122 59c-70 21 -158 57 -158 158c0 96 80 172 222 172
c98 0 199 -36 254 -67l-73 -105c-45 22 -113 48 -171 48c-39 0 -65 -12 -65 -33c0 -30 51 -36 118 -56z" />
    <glyph glyph-name="uni021a" unicode="&#x21a;" horiz-adv-x="597" 
d="M154 -183l22 128h119l-15 -142l-118 -107l-25 39l71 82h-54zM629 556h-200l-99 -556h-171l99 556h-200l24 144h571z" />
    <glyph glyph-name="uni021b" unicode="&#x21b;" horiz-adv-x="425" 
d="M38 405l20 120h70l24 132l167 20l-27 -152h141l-19 -120h-144l-40 -225c-7 -42 11 -48 31 -48c23 0 61 13 81 20l40 -126c-39 -14 -115 -37 -180 -37c-107 0 -156 73 -133 206l37 210h-68zM47 -183l21 128h120l-16 -142l-117 -107l-25 39l70 82h-53z" />
    <glyph glyph-name="hsuperior" unicode="&#x2b0;" horiz-adv-x="404" 
d="M239 822l-28 -155c32 20 74 40 119 40c76 0 104 -45 92 -116l-37 -206h-111l35 194c5 25 1 42 -27 42s-64 -16 -85 -34l-35 -202h-112l77 437h112z" />
    <glyph glyph-name="jsuperior" unicode="&#x2b2;" horiz-adv-x="345" 
d="M203 734l15 87h116l-15 -87h-116zM311 700l-52 -294c-16 -90 -22 -130 -176 -161l-25 83c76 23 80 30 87 68l54 304h112z" />
    <glyph glyph-name="wsuperior" unicode="&#x2b7;" horiz-adv-x="434" 
d="M286 385l-23 184l-91 -184h-104l-45 315h116l9 -196l91 196h91l19 -193l77 193h121l-157 -315h-104z" />
    <glyph glyph-name="ysuperior" unicode="&#x2b8;" horiz-adv-x="393" 
d="M67 329c46 15 73 21 99 51l-73 320h116l30 -191l98 191h126l-182 -315c-34 -59 -65 -118 -188 -140z" />
    <glyph glyph-name="circumflex" unicode="&#x2c6;" horiz-adv-x="302" 
d="M355 729l82 -140h-105l-60 70l-85 -70h-118l131 140h155z" />
    <glyph glyph-name="caron" unicode="&#x2c7;" horiz-adv-x="304" 
d="M177 589l-82 140h105l60 -71l85 71h119l-131 -140h-156z" />
    <glyph glyph-name="breve" unicode="&#x2d8;" horiz-adv-x="288" 
d="M251 589c-109 0 -163 54 -152 128h99c-3 -26 16 -41 54 -41c48 0 82 15 86 41h101c-13 -80 -81 -128 -188 -128z" />
    <glyph glyph-name="dotaccent" unicode="&#x2d9;" horiz-adv-x="106" 
d="M89 599l22 128h132l-21 -128h-133z" />
    <glyph glyph-name="ring" unicode="&#x2da;" horiz-adv-x="224" 
d="M52 693c0 64 52 115 115 115s115 -51 115 -115c0 -63 -52 -114 -115 -114s-115 51 -115 114zM129 693c0 -21 17 -38 38 -38s38 17 38 38c0 22 -17 39 -38 39s-38 -17 -38 -39z" />
    <glyph glyph-name="ogonek" unicode="&#x2db;" horiz-adv-x="168" 
d="M57 -99c0 -32 48 -27 70 -27l-27 -72c-31 0 -149 -8 -149 83c0 57 63 95 142 126l76 -10c-56 -28 -112 -64 -112 -100z" />
    <glyph glyph-name="tilde" unicode="&#x2dc;" horiz-adv-x="308" 
d="M143 592l-67 44c38 54 68 100 129 100c54 0 96 -48 130 -48c12 0 29 6 60 48l67 -44c-38 -55 -68 -101 -129 -101c-54 0 -95 48 -129 48c-12 0 -30 -6 -61 -47z" />
    <glyph glyph-name="hungarumlaut" unicode="&#x2dd;" horiz-adv-x="350" 
d="M354 589h-97l103 140h147zM172 589h-99l103 140h147z" />
    <glyph glyph-name="xsuperior" unicode="&#x2e3;" horiz-adv-x="399" 
d="M291 385l-51 98l-81 -98h-142l155 157l-92 158h120l45 -96l78 96h136l-149 -158l99 -157h-118z" />
    <glyph glyph-name="pi" unicode="&#x3c0;" horiz-adv-x="584" 
d="M604 525l-24 -137h-83l-70 -388h-142l70 388h-96l-71 -388h-141l70 388h-82l22 137h547z" />
    <glyph glyph-name="Wgrave" unicode="&#x1e80;" horiz-adv-x="971" 
d="M547 0l-34 455l-197 -455h-168l-70 700h191l17 -452l194 452h143l30 -448l174 448h203l-316 -700h-167zM667 740h-127l-147 140h172z" />
    <glyph glyph-name="wgrave" unicode="&#x1e81;" horiz-adv-x="840" 
d="M461 0l-36 322l-155 -322h-154l-67 525h169l16 -345l156 345h135l31 -338l133 338h179l-253 -525h-154zM576 589h-126l-148 140h173z" />
    <glyph glyph-name="Wacute" unicode="&#x1e82;" horiz-adv-x="971" 
d="M547 0l-34 455l-197 -455h-168l-70 700h191l17 -452l194 452h143l30 -448l174 448h203l-316 -700h-167zM591 740h-142l147 140h191z" />
    <glyph glyph-name="wacute" unicode="&#x1e83;" horiz-adv-x="840" 
d="M461 0l-36 322l-155 -322h-154l-67 525h169l16 -345l156 345h135l31 -338l133 338h179l-253 -525h-154zM500 589h-141l147 140h189z" />
    <glyph glyph-name="Wdieresis" unicode="&#x1e84;" horiz-adv-x="971" 
d="M547 0l-34 455l-197 -455h-168l-70 700h191l17 -452l194 452h143l30 -448l174 448h203l-316 -700h-167zM592 747l22 128h133l-22 -128h-133zM400 747l23 128h132l-22 -128h-133z" />
    <glyph glyph-name="wdieresis" unicode="&#x1e85;" horiz-adv-x="840" 
d="M461 0l-36 322l-155 -322h-154l-67 525h169l16 -345l156 345h135l31 -338l133 338h179l-253 -525h-154zM310 599l23 128h132l-22 -128h-133zM502 599l23 128h132l-23 -128h-132z" />
    <glyph glyph-name="Ygrave" unicode="&#x1ef2;" horiz-adv-x="665" 
d="M192 0l49 279l-175 421h181l96 -278l192 278h200l-324 -423l-48 -277h-171zM513 740h-125l-148 140h171z" />
    <glyph glyph-name="ygrave" unicode="&#x1ef3;" horiz-adv-x="585" 
d="M-7 -103c78 27 121 38 163 93l-112 535h170l51 -334l169 334h183l-293 -525c-57 -102 -102 -190 -295 -230zM447 589h-125l-148 140h172z" />
    <glyph glyph-name="endash" unicode="&#x2013;" horiz-adv-x="560" 
d="M492 220h-454l23 129h454z" />
    <glyph glyph-name="emdash" unicode="&#x2014;" horiz-adv-x="666" 
d="M599 220h-561l23 129h559z" />
    <glyph glyph-name="quoteleft" unicode="&#x2018;" horiz-adv-x="266" 
d="M258 552l-29 -180h-166l23 201l160 147l35 -55l-97 -113h74z" />
    <glyph glyph-name="quoteright" unicode="&#x2019;" horiz-adv-x="253" 
d="M83 520l30 180h166l-23 -201l-160 -147l-35 55l96 113h-74z" />
    <glyph glyph-name="quotesinglbase" unicode="&#x201a;" horiz-adv-x="271" 
d="M-1 0l30 179h166l-23 -201l-160 -146l-35 54l96 114h-74z" />
    <glyph glyph-name="quotedblleft" unicode="&#x201c;" horiz-adv-x="503" 
d="M258 552l-29 -180h-166l23 201l160 147l35 -55l-97 -113h74zM496 552l-30 -180h-167l23 201l161 147l35 -55l-96 -113h74z" />
    <glyph glyph-name="quotedblright" unicode="&#x201d;" horiz-adv-x="490" 
d="M321 520l30 180h165l-22 -201l-161 -147l-35 55l97 113h-74zM83 520l30 180h166l-23 -201l-160 -147l-35 55l96 113h-74z" />
    <glyph glyph-name="quotedblbase" unicode="&#x201e;" horiz-adv-x="508" 
d="M236 0l31 179h165l-22 -201l-161 -146l-35 54l96 114h-74zM-1 0l30 179h166l-23 -201l-160 -146l-35 54l96 114h-74z" />
    <glyph glyph-name="dagger" unicode="&#x2020;" horiz-adv-x="609" 
d="M39 365l21 131l214 -16l39 220h124l-39 -219l218 15l-21 -131l-215 16l-103 -585h-124l103 585z" />
    <glyph glyph-name="daggerdbl" unicode="&#x2021;" horiz-adv-x="632" 
d="M50 365l21 131l214 -16l39 220h124l-39 -219l218 15l-21 -131l-215 16l-29 -162l219 15l-21 -131l-215 16l-57 -323h-124l57 323l-217 -16l21 131l213 -16l29 163z" />
    <glyph glyph-name="bullet" unicode="&#x2022;" horiz-adv-x="469" 
d="M64 285c0 93 74 168 167 168s169 -75 169 -168c0 -94 -76 -168 -169 -168s-167 74 -167 168z" />
    <glyph glyph-name="ellipsis" unicode="&#x2026;" horiz-adv-x="779" 
d="M-1 0l30 179h167l-30 -179h-167zM255 0l30 179h166l-30 -179h-166zM509 0l32 179h166l-31 -179h-167z" />
    <glyph glyph-name="perthousand" unicode="&#x2030;" horiz-adv-x="1452" 
d="M281 711c115 0 188 -62 188 -157c0 -115 -74 -218 -214 -218c-115 0 -188 62 -188 157c0 115 75 218 214 218zM260 432c59 0 87 65 87 110c0 42 -19 73 -70 73c-59 0 -88 -65 -88 -110c0 -43 19 -73 71 -73zM774 364c115 0 188 -62 188 -157c0 -115 -75 -218 -215 -218
c-115 0 -188 62 -188 157c0 115 75 218 215 218zM752 85c59 0 87 65 87 110c0 42 -18 73 -70 73c-59 0 -87 -65 -87 -110c0 -43 18 -73 70 -73zM818 700l-482 -700h-127l481 700h128zM1215 364c115 0 188 -62 188 -157c0 -115 -75 -218 -214 -218c-116 0 -189 62 -189 157
c0 115 76 218 215 218zM1194 85c58 0 86 65 86 110c0 42 -18 73 -69 73c-60 0 -88 -65 -88 -110c0 -43 18 -73 71 -73z" />
    <glyph glyph-name="guilsinglleft" unicode="&#x2039;" horiz-adv-x="378" 
d="M340 363l-185 -107l146 -105l-25 -141l-263 209l15 98l339 210z" />
    <glyph glyph-name="guilsinglright" unicode="&#x203a;" horiz-adv-x="377" 
d="M-1 10l26 164l185 106l-144 106l23 141l264 -210l-16 -98z" />
    <glyph glyph-name="fraction" unicode="&#x2044;" horiz-adv-x="209" 
d="M399 700l-440 -700h-132l440 700h132z" />
    <glyph glyph-name="zerosuperior" unicode="&#x2070;" horiz-adv-x="446" 
d="M286 812c141 0 185 -94 185 -184c0 -75 -37 -250 -213 -250c-141 0 -185 93 -185 183c0 74 37 251 213 251zM258 466c77 0 97 136 97 173c-1 42 -10 84 -70 84c-77 0 -98 -135 -98 -172c1 -42 11 -85 71 -85z" />
    <glyph glyph-name="foursuperior" unicode="&#x2074;" horiz-adv-x="455" 
d="M265 385l13 73h-230l12 79l241 268h154l-45 -252h65l-14 -95h-67l-13 -73h-116zM190 553h104l27 150z" />
    <glyph glyph-name="fivesuperior" unicode="&#x2075;" horiz-adv-x="403" 
d="M93 591l61 214h294l-15 -95h-196l-12 -50c15 3 29 5 46 5c99 0 146 -62 146 -131c0 -80 -64 -156 -186 -156c-95 0 -160 46 -188 69l62 71c25 -18 60 -42 114 -42c40 0 80 16 80 53c0 29 -22 44 -59 44c-35 0 -62 -11 -83 -24z" />
    <glyph glyph-name="sixsuperior" unicode="&#x2076;" horiz-adv-x="418" 
d="M375 719c-67 0 -135 -23 -169 -85c19 11 47 23 90 23c85 0 140 -51 140 -126c0 -82 -64 -153 -181 -153c-122 0 -185 78 -185 168c0 148 122 266 300 266c56 0 85 -13 85 -13l-39 -83s-18 3 -41 3zM259 573c-35 0 -62 -18 -74 -31v-4c0 -38 23 -67 66 -67
c48 0 70 28 70 56c0 26 -18 46 -62 46z" />
    <glyph glyph-name="sevensuperior" unicode="&#x2077;" horiz-adv-x="323" 
d="M402 716c0 0 -185 -178 -214 -331h-123c28 150 194 316 203 325h-187l14 95h320z" />
    <glyph glyph-name="eightsuperior" unicode="&#x2078;" horiz-adv-x="429" 
d="M55 493c0 64 56 102 116 126c-33 24 -50 50 -50 83c0 62 60 110 169 110c104 0 158 -43 158 -101c0 -44 -35 -76 -83 -101c42 -22 75 -52 75 -103c0 -76 -75 -129 -202 -129c-119 0 -183 45 -183 115zM322 513c0 29 -28 46 -57 59c-48 -15 -92 -32 -92 -67
c0 -26 24 -41 67 -41c44 0 82 18 82 49zM233 689c0 -20 17 -31 35 -39c34 10 67 20 67 46c0 20 -18 33 -46 33c-32 0 -56 -18 -56 -40z" />
    <glyph glyph-name="ninesuperior" unicode="&#x2079;" horiz-adv-x="420" 
d="M147 471c66 0 134 22 168 83c-19 -11 -47 -22 -89 -22c-85 0 -140 51 -140 127c0 82 64 153 181 153c122 0 185 -78 185 -168c0 -149 -122 -266 -300 -266c-56 0 -85 13 -85 13l39 83s18 -3 41 -3zM263 617c34 0 61 17 74 30v5c0 38 -23 67 -66 67c-48 0 -70 -28 -70 -56
c0 -26 18 -46 62 -46z" />
    <glyph glyph-name="plussuperior" unicode="&#x207a;" horiz-adv-x="367" 
d="M215 730h85l-18 -104h119l-13 -82h-120l-18 -104h-85l18 104h-120l13 82h121z" />
    <glyph glyph-name="parenleftsuperior" unicode="&#x207d;" horiz-adv-x="228" 
d="M67 460l49 267c19 102 28 132 179 161l19 -63c-62 -20 -69 -31 -76 -68l-59 -327c-8 -39 -6 -55 39 -74l-27 -57c-137 30 -141 73 -124 161z" />
    <glyph glyph-name="parenrightsuperior" unicode="&#x207e;" horiz-adv-x="235" 
d="M270 727l-50 -268c-18 -100 -27 -131 -176 -160l-21 64c62 19 69 30 76 68l60 326c8 40 5 55 -39 74l27 57c136 -29 140 -72 123 -161z" />
    <glyph glyph-name="nsuperior" unicode="&#x207f;" horiz-adv-x="404" 
d="M218 700l-6 -32c32 19 73 39 118 39c76 0 104 -45 92 -116l-36 -206h-112l35 194c5 25 1 42 -27 42c-29 0 -63 -17 -84 -34l-36 -202h-112l56 315h112z" />
    <glyph glyph-name="zeroinferior" unicode="&#x2080;" horiz-adv-x="447" 
d="M199 277c141 0 185 -94 185 -184c0 -75 -37 -250 -213 -250c-141 0 -185 93 -185 183c0 74 37 251 213 251zM171 -69c77 0 97 136 97 173c-1 42 -10 84 -70 84c-77 0 -98 -135 -98 -172c1 -42 11 -85 71 -85z" />
    <glyph glyph-name="oneinferior" unicode="&#x2081;" horiz-adv-x="290" 
d="M162 -150h-116l57 308l-78 -36l-36 79l138 69h109z" />
    <glyph glyph-name="twoinferior" unicode="&#x2082;" horiz-adv-x="390" 
d="M298 -55l-15 -95h-350l8 47c16 96 94 139 166 178c76 41 116 55 116 80c-2 17 -18 27 -48 27c-41 0 -84 -19 -122 -40l-44 80c32 18 98 55 181 55c101 0 149 -55 149 -116c0 -85 -93 -130 -168 -165c-62 -29 -75 -37 -80 -51h207z" />
    <glyph glyph-name="threeinferior" unicode="&#x2083;" horiz-adv-x="386" 
d="M-68 -88l56 70c52 -29 89 -43 134 -43c48 0 72 16 72 41c0 36 -53 42 -108 42h-18l14 96h22c50 0 106 8 106 37c0 17 -16 27 -41 27c-44 0 -98 -24 -122 -36l-38 78c22 13 89 53 179 53c97 0 140 -46 140 -99c0 -47 -35 -80 -87 -102c41 -14 71 -52 71 -98
c0 -59 -45 -135 -177 -135c-106 0 -178 51 -203 69z" />
    <glyph glyph-name="fourinferior" unicode="&#x2084;" horiz-adv-x="425" 
d="M155 -150l13 73h-230l12 79l241 268h154l-45 -252h65l-14 -95h-67l-13 -73h-116zM80 18h104l27 150z" />
    <glyph glyph-name="fiveinferior" unicode="&#x2085;" horiz-adv-x="401" 
d="M-7 56l61 214h294l-15 -95h-196l-12 -50c15 3 29 5 46 5c99 0 146 -62 146 -131c0 -80 -64 -156 -186 -156c-95 0 -160 46 -188 69l62 71c25 -18 61 -42 114 -42c40 0 80 16 80 53c0 29 -22 44 -59 44c-35 0 -62 -11 -83 -24z" />
    <glyph glyph-name="sixinferior" unicode="&#x2086;" horiz-adv-x="418" 
d="M284 184c-67 0 -135 -23 -169 -85c19 11 47 23 90 23c85 0 140 -51 140 -126c0 -82 -64 -153 -181 -153c-122 0 -185 78 -185 168c0 148 122 266 300 266c56 0 85 -13 85 -13l-39 -83s-18 3 -41 3zM168 38c-35 0 -62 -18 -74 -31v-4c0 -38 23 -67 66 -67
c48 0 70 28 70 56c0 26 -18 46 -62 46z" />
    <glyph glyph-name="seveninferior" unicode="&#x2087;" horiz-adv-x="374" 
d="M327 181c0 0 -185 -178 -214 -331h-123c28 150 194 316 203 325h-187l14 95h320z" />
    <glyph glyph-name="eightinferior" unicode="&#x2088;" horiz-adv-x="413" 
d="M-41 -42c0 64 56 102 116 126c-33 24 -50 50 -50 83c0 62 59 110 169 110c104 0 158 -43 158 -101c0 -44 -35 -76 -83 -101c42 -22 75 -52 75 -103c0 -76 -75 -129 -202 -129c-118 0 -183 45 -183 115zM226 -22c0 29 -28 46 -57 59c-48 -15 -92 -32 -92 -67
c0 -26 25 -41 67 -41c44 0 82 18 82 49zM137 154c0 -20 17 -31 35 -39c34 10 67 20 67 46c0 20 -19 33 -46 33c-33 0 -56 -18 -56 -40z" />
    <glyph glyph-name="nineinferior" unicode="&#x2089;" horiz-adv-x="424" 
d="M57 -64c66 0 134 22 168 83c-19 -11 -47 -22 -89 -22c-85 0 -140 51 -140 127c0 82 64 153 181 153c122 0 185 -78 185 -168c0 -149 -122 -266 -300 -266c-56 0 -85 13 -85 13l39 83s18 -3 41 -3zM173 82c34 0 61 17 74 30v5c0 38 -23 67 -66 67c-48 0 -70 -28 -70 -56
c0 -26 18 -46 62 -46z" />
    <glyph glyph-name="parenleftinferior" unicode="&#x208d;" horiz-adv-x="242" 
d="M-22 -75l49 267c19 102 28 132 179 161l19 -63c-62 -20 -69 -31 -76 -68l-59 -327c-8 -39 -6 -55 39 -74l-27 -57c-137 30 -141 73 -124 161z" />
    <glyph glyph-name="parenrightinferior" unicode="&#x208e;" horiz-adv-x="241" 
d="M179 192l-50 -268c-18 -100 -27 -131 -176 -160l-21 64c62 19 69 30 76 68l60 326c8 40 5 55 -39 74l27 57c136 -29 140 -72 123 -161z" />
    <glyph glyph-name="colonmonetary" unicode="&#x20a1;" horiz-adv-x="577" 
d="M179 0h-69l42 103c-61 32 -100 96 -100 194c0 223 137 327 269 327c14 0 27 -2 41 -3l32 79h69l-38 -92l24 -8l41 100h69l-51 -125c26 -13 48 -25 68 -36l-74 -111c-12 7 -27 16 -43 24l-91 -224c33 10 68 25 93 36l53 -123c-48 -20 -127 -52 -206 -62l-32 -79h-69l31 78
c-9 1 -18 2 -26 4zM269 222c7 -3 16 -4 26 -5l105 260c-9 2 -17 4 -26 5zM221 312c0 -11 1 -22 3 -32l76 187c-49 -30 -79 -95 -79 -155z" />
    <glyph glyph-name="lira" unicode="&#x20a4;" horiz-adv-x="590" 
d="M65 332l13 80h50c-11 30 -19 62 -19 101c0 120 83 198 226 198c127 0 218 -63 275 -104l-85 -100c-54 36 -110 63 -159 63c-58 0 -89 -33 -89 -75c0 -29 11 -55 23 -83h195l-13 -80h-158c1 -9 2 -18 2 -27c0 -5 0 -10 -1 -15h149l-13 -79h-161c-19 -34 -46 -58 -65 -70
h276l-23 -141h-492l18 114s89 27 129 97h-99l13 79h106c-1 14 -4 28 -7 42h-91z" />
    <glyph glyph-name="peseta" unicode="&#x20a7;" horiz-adv-x="718" 
d="M77 437l11 64h28l35 199h268c184 0 278 -68 281 -199h25l-10 -64h-22c-23 -98 -106 -197 -280 -197h-172l-43 -240h-170l77 437h-28zM298 559l-11 -58h236c-7 44 -50 58 -106 58h-119zM383 380c65 0 108 21 128 57h-236l-10 -57h118z" />
    <glyph glyph-name="uni20A9" unicode="&#x20a9;" horiz-adv-x="1048" 
d="M587 0l-33 455l-197 -455h-168l-25 239h-133l16 95h108l-8 76h-86l16 95h61l-20 195h191l8 -195h121l84 195h141l13 -195h116l76 195h202l-88 -195h62l-17 -95h-88l-35 -76h110l-17 -95h-136l-107 -239h-167zM397 410h-76l6 -163zM755 410h-72l11 -157z" />
    <glyph glyph-name="Euro" unicode="&#x20ac;" horiz-adv-x="730" 
d="M52 375l14 85h57c52 161 174 251 320 251c124 0 219 -57 302 -109l-91 -120c-71 44 -129 75 -192 75c-66 0 -117 -39 -149 -97h213l-15 -85h-230c-4 -18 -7 -37 -9 -56h229l-15 -85h-211c10 -60 43 -92 98 -92c54 0 130 29 214 73l71 -135c-105 -53 -211 -91 -325 -91
c-134 0 -226 78 -237 245h-70l15 85h55c2 19 4 38 7 56h-51z" />
    <glyph glyph-name="uni2116" unicode="&#x2116;" horiz-adv-x="1217" 
d="M458 0l-187 453l-79 -453h-171l123 700h173l186 -452l80 452h171l-123 -700h-173zM1005 692c126 0 211 -69 211 -175c0 -126 -83 -245 -240 -245c-126 0 -210 69 -210 175c0 126 83 245 239 245zM754 138l16 94h354l-16 -94h-354zM982 384c66 0 92 72 92 119
c0 46 -20 76 -74 76c-66 0 -93 -71 -93 -118c0 -46 20 -77 75 -77z" />
    <glyph glyph-name="uni2117" unicode="&#x2117;" horiz-adv-x="791" 
d="M594 450c0 -100 -72 -147 -170 -147h-90l-28 -164h-49l74 421h139c73 0 124 -35 124 -110zM545 450c0 51 -36 68 -82 68h-91l-30 -172h91c60 0 112 37 112 104zM48 313c0 212 136 398 382 398c205 0 330 -134 330 -324c0 -212 -136 -398 -383 -398
c-204 0 -329 134 -329 324zM87 314c0 -166 108 -287 294 -287c214 0 340 163 340 359c0 166 -108 287 -294 287c-214 0 -340 -163 -340 -359z" />
    <glyph glyph-name="servicemark" unicode="&#x2120;" horiz-adv-x="627" 
d="M538 476l22 130l-69 -93h-39l-36 97l-23 -134h-64l39 224h67l46 -123l93 123h67l-39 -224h-64zM250 608c27 -9 61 -26 62 -66c0 -40 -41 -70 -108 -70c-52 0 -100 19 -128 34l35 43c21 -11 58 -26 91 -26c17 0 37 5 37 16c0 15 -38 14 -78 29c-26 10 -57 28 -57 66
c0 40 37 70 101 70c49 0 93 -17 118 -30l-35 -42c-19 9 -46 21 -77 21c-18 0 -33 -5 -33 -16c0 -15 30 -13 72 -29z" />
    <glyph glyph-name="trademark" unicode="&#x2122;" horiz-adv-x="627" 
d="M533 476l22 130l-69 -93h-39l-36 97l-23 -134h-63l39 224h66l46 -123l93 123h66l-38 -224h-64zM328 648h-77l-30 -172h-64l30 172h-75l8 52h216z" />
    <glyph glyph-name="Omega" unicode="&#x2126;" horiz-adv-x="776" 
d="M441 711c199 0 311 -102 311 -284c0 -165 -92 -258 -168 -286h98l-24 -141h-289l25 146c106 23 182 136 182 279c0 91 -39 140 -134 140c-180 0 -219 -194 -219 -291c0 -68 30 -110 104 -128l-23 -146h-290l24 141h104c-41 27 -89 80 -89 178c0 203 127 392 388 392z" />
    <glyph glyph-name="onethird" unicode="&#x2153;" horiz-adv-x="915" 
d="M466 62l56 70c53 -29 89 -43 135 -43c47 0 71 16 71 41c0 36 -52 42 -107 42h-18l14 96h22c49 0 105 8 105 37c0 17 -16 27 -40 27c-45 0 -99 -24 -123 -36l-38 78c22 13 89 53 180 53c96 0 139 -46 139 -99c0 -47 -34 -80 -87 -102c41 -14 70 -52 70 -98
c0 -59 -43 -135 -175 -135c-107 0 -179 51 -204 69zM253 280h-117l58 308l-78 -36l-37 79l138 69h110zM705 700l-448 -700h-124l448 700h124z" />
    <glyph glyph-name="twothirds" unicode="&#x2154;" horiz-adv-x="1029" 
d="M586 62l57 70c52 -29 88 -43 133 -43c48 0 72 16 72 41c0 36 -52 42 -107 42h-19l15 96h22c50 0 105 8 105 37c0 17 -16 27 -41 27c-44 0 -98 -24 -121 -36l-38 78c21 13 89 53 179 53c97 0 140 -46 140 -99c0 -47 -36 -80 -87 -102c41 -14 70 -52 70 -98
c0 -59 -44 -135 -176 -135c-107 0 -178 51 -204 69zM399 375l-15 -95h-350l8 47c17 96 94 139 166 178c76 40 116 55 116 80c0 17 -17 27 -47 27c-41 0 -85 -19 -123 -40l-43 80c32 18 97 55 180 55c103 0 150 -55 150 -116c0 -85 -93 -130 -169 -165
c-61 -29 -75 -37 -80 -51h207zM826 700l-448 -700h-124l448 700h124z" />
    <glyph glyph-name="oneeighth" unicode="&#x215b;" horiz-adv-x="922" 
d="M469 108c0 64 56 102 117 126c-33 24 -50 50 -50 83c0 62 59 110 169 110c103 0 159 -43 159 -101c0 -44 -36 -76 -84 -101c41 -22 74 -52 74 -103c0 -76 -74 -129 -202 -129c-117 0 -183 45 -183 115zM703 700l-448 -700h-124l448 700h124zM253 280h-117l58 308l-78 -36
l-37 79l138 69h110zM736 128c0 29 -28 46 -57 59c-46 -15 -92 -32 -92 -67c0 -26 26 -41 68 -41c44 0 81 18 81 49zM647 304c0 -20 18 -31 36 -39c36 11 68 21 68 45c0 22 -20 34 -46 34c-34 0 -58 -18 -58 -40z" />
    <glyph glyph-name="threeeighths" unicode="&#x215c;" horiz-adv-x="1012" 
d="M564 108c0 64 55 102 116 126c-33 24 -50 50 -50 83c0 62 59 110 169 110c103 0 158 -43 158 -101c0 -44 -35 -77 -83 -101c41 -22 74 -52 74 -103c0 -76 -74 -129 -201 -129c-119 0 -183 45 -183 115zM35 342l57 70c51 -29 88 -43 134 -43c47 0 71 16 71 41
c0 36 -52 42 -107 42h-19l14 96h23c49 0 105 8 105 37c0 17 -16 27 -41 27c-44 0 -98 -24 -122 -36l-38 78c22 13 89 53 180 53c96 0 139 -46 139 -99c0 -47 -35 -80 -87 -102c42 -14 71 -52 71 -98c0 -59 -44 -135 -176 -135c-107 0 -179 51 -204 69zM797 700l-448 -700
h-124l448 700h124zM831 128c0 29 -28 46 -58 59c-46 -15 -92 -32 -92 -67c0 -26 26 -41 67 -41c45 0 83 18 83 49zM741 304c0 -20 18 -31 36 -39c35 11 67 21 67 45c0 22 -20 34 -46 34c-34 0 -57 -18 -57 -40z" />
    <glyph glyph-name="fiveeighths" unicode="&#x215d;" horiz-adv-x="1004" 
d="M555 108c0 64 56 102 116 126c-32 24 -50 50 -50 83c0 62 59 110 169 110c104 0 159 -43 159 -101c0 -44 -35 -76 -83 -101c41 -22 74 -52 74 -103c0 -76 -75 -129 -202 -129c-117 0 -183 45 -183 115zM88 486l61 214h293l-15 -95h-195l-12 -50c15 3 29 5 46 5
c99 0 146 -62 146 -131c0 -80 -64 -156 -187 -156c-94 0 -159 46 -188 69l63 71c25 -18 61 -42 114 -42c40 0 80 16 80 53c0 29 -22 44 -60 44c-34 0 -61 -11 -83 -24zM788 700l-448 -700h-124l449 700h123zM823 128c0 29 -29 46 -58 59c-46 -15 -92 -32 -92 -67
c0 -26 25 -41 67 -41c44 0 83 18 83 49zM733 304c0 -20 17 -31 35 -39c36 11 68 21 68 45c0 22 -20 34 -46 34c-34 0 -57 -18 -57 -40z" />
    <glyph glyph-name="seveneighths" unicode="&#x215e;" horiz-adv-x="903" 
d="M455 108c0 64 56 102 116 126c-33 24 -50 50 -50 83c0 62 61 110 169 110c105 0 159 -44 159 -101c0 -44 -35 -76 -83 -101c41 -22 74 -52 74 -103c0 -76 -74 -129 -202 -129c-118 0 -183 45 -183 115zM689 700l-448 -700h-124l448 700h124zM405 611
c0 0 -185 -178 -214 -331h-123c28 150 194 316 203 325h-187l14 95h320zM722 128c0 29 -28 46 -57 59c-46 -15 -92 -32 -92 -67c0 -26 25 -41 67 -41c45 0 82 18 82 49zM633 304c0 -20 17 -31 35 -39c36 11 68 21 68 45c0 22 -19 34 -46 34c-34 0 -57 -18 -57 -40z" />
    <glyph glyph-name="partialdiff" unicode="&#x2202;" horiz-adv-x="659" 
d="M464 384c-10 108 -73 187 -214 187c-47 0 -93 -8 -93 -8l2 126s43 11 103 11c231 0 353 -158 353 -365c0 -204 -122 -346 -329 -346c-164 0 -263 87 -263 228c0 150 118 259 263 259c132 0 178 -92 178 -92zM436 252c0 55 -28 98 -103 98c-94 0 -138 -67 -138 -138
c0 -52 25 -97 102 -97c101 0 139 73 139 137z" />
    <glyph glyph-name="Delta" unicode="&#x2206;" horiz-adv-x="747" 
d="M673 0h-705l386 700h179zM505 141l-83 386l-224 -386h307z" />
    <glyph glyph-name="product" unicode="&#x220f;" horiz-adv-x="732" 
d="M771 700l-22 -137h-90l-101 -563h-171l101 563h-152l-101 -563h-171l101 563h-90l22 137h674z" />
    <glyph glyph-name="summation" unicode="&#x2211;" horiz-adv-x="606" 
d="M106 700h523l-22 -141h-287l169 -209l-228 -209h269l-24 -141h-523l12 74l312 277l-214 275z" />
    <glyph glyph-name="minus" unicode="&#x2212;" horiz-adv-x="645" 
d="M60 272l20 123h515l-21 -123h-514z" />
    <glyph glyph-name="radical" unicode="&#x221a;" horiz-adv-x="647" 
d="M725 700l-412 -700h-190l-114 340h168l55 -188l315 548h178z" />
    <glyph glyph-name="infinity" unicode="&#x221e;" horiz-adv-x="915" 
d="M235 438c99 0 157 -54 220 -118c91 72 148 118 235 118c109 0 173 -69 173 -168c0 -106 -80 -192 -203 -192c-94 0 -154 55 -216 117c-90 -73 -149 -117 -236 -117c-109 0 -172 69 -172 167c0 106 79 193 199 193zM228 185c43 0 81 22 150 75c-63 59 -93 71 -125 71
c-58 0 -97 -34 -97 -83c0 -43 31 -63 72 -63zM671 331c-44 0 -82 -23 -151 -75c57 -53 89 -71 127 -71c59 0 95 37 95 83c0 42 -31 63 -71 63z" />
    <glyph glyph-name="integral" unicode="&#x222b;" horiz-adv-x="396" 
d="M76 91l91 528c29 168 91 220 259 220h57l-15 -92h-21c-83 0 -98 -77 -110 -143l-91 -527c-29 -168 -91 -220 -260 -220h-56l15 92h20c85 0 99 77 111 142z" />
    <glyph glyph-name="approxequal" unicode="&#x2248;" horiz-adv-x="645" 
d="M127 167l-79 34c46 83 96 136 170 136c86 0 137 -64 200 -64c24 0 46 8 83 59l78 -34c-46 -82 -96 -136 -170 -136c-86 0 -136 64 -200 64c-24 0 -45 -7 -82 -59zM160 358l-79 34c47 82 97 136 171 136c85 0 135 -64 200 -64c23 0 45 8 82 59l79 -34
c-48 -83 -98 -136 -172 -136c-85 0 -135 64 -200 64c-23 0 -44 -8 -81 -59z" />
    <glyph glyph-name="notequal" unicode="&#x2260;" horiz-adv-x="645" 
d="M76 370l20 122h258l81 139l103 -41l-57 -98h129l-20 -122h-180l-41 -70h208l-20 -123h-260l-81 -139l-103 41l57 98h-128l21 123h179l41 70h-207z" />
    <glyph glyph-name="lessequal" unicode="&#x2264;" horiz-adv-x="645" 
d="M600 441l-315 -91l279 -92l-21 -130l-480 180l15 96l546 181zM8 0l17 105h514l-17 -105h-514z" />
    <glyph glyph-name="greaterequal" unicode="&#x2265;" horiz-adv-x="645" 
d="M603 404l-16 -96l-545 -180l23 144l314 90l-278 92l21 131zM550 105l-16 -105h-514l16 105h514z" />
    <glyph glyph-name="uni2318" unicode="&#x2318;" horiz-adv-x="759" 
d="M543 39c-80 0 -151 60 -147 146c0 16 4 32 4 47h-64l-12 -64c-13 -76 -68 -129 -147 -129c-84 0 -153 63 -153 143c0 83 73 140 161 140h72l12 56h-31c-84 0 -152 65 -152 144c0 77 66 140 148 140c75 0 153 -56 148 -146c-1 -17 -4 -33 -5 -48h65l12 64
c11 62 55 124 136 129c13 1 24 0 36 -2c71 -12 126 -71 126 -141c0 -83 -71 -140 -159 -140h-73l-12 -56h32c84 0 151 -65 151 -144c0 -77 -65 -139 -148 -139zM541 232h-47l-7 -35c-6 -29 9 -68 55 -68c32 0 58 23 58 51c0 29 -27 52 -59 52zM243 232h-69
c-32 0 -58 -23 -58 -52c0 -28 27 -51 60 -51c32 0 51 23 56 46zM351 322h66l10 56h-66zM545 524l-10 -56h68c32 0 58 24 58 52c0 29 -27 52 -59 52c-35 0 -54 -30 -57 -48zM236 572c-33 0 -58 -23 -58 -52c0 -28 26 -52 59 -52h46c3 11 5 23 7 35c6 31 -10 69 -54 69z" />
    <glyph glyph-name="lozenge" unicode="&#x25ca;" horiz-adv-x="591" 
d="M281 700h168l123 -350l-247 -350h-168l-122 350zM419 374l-66 191l-164 -239l64 -192z" />
    <glyph glyph-name="commaaccent" unicode="&#xf6c3;" horiz-adv-x="142" 
d="M-23 -183l22 128h119l-16 -142l-117 -107l-25 39l70 82h-53z" />
    <glyph glyph-name="centinferior" unicode="&#xf6df;" horiz-adv-x="355" 
d="M172 -150h-80l8 46c-67 6 -118 47 -118 140c0 116 77 188 170 188h5l8 46h80l-11 -61c32 -11 60 -25 81 -36l-49 -75c-23 13 -58 31 -92 31c-46 0 -79 -35 -79 -83c0 -39 20 -56 50 -56c28 0 69 14 98 25l36 -83c-24 -8 -60 -21 -98 -29z" />
    <glyph glyph-name="centsuperior" unicode="&#xf6e0;" horiz-adv-x="358" 
d="M261 385h-80l8 46c-67 6 -118 46 -118 141c0 116 76 188 170 188h5l8 45h80l-11 -61c32 -11 60 -25 81 -35l-49 -75c-23 13 -58 31 -92 31c-47 0 -79 -35 -79 -83c0 -39 20 -56 50 -56c28 0 69 13 98 25l36 -83c-24 -9 -59 -22 -98 -30z" />
    <glyph glyph-name="commainferior" unicode="&#xf6e1;" horiz-adv-x="216" 
d="M-29 -150l20 116h112l-14 -131l-107 -91l-23 36l62 70h-50z" />
    <glyph glyph-name="commasuperior" unicode="&#xf6e2;" horiz-adv-x="191" 
d="M54 385l20 116h112l-14 -131l-107 -91l-23 36l62 70h-50z" />
    <glyph glyph-name="dollarinferior" unicode="&#xf6e3;" horiz-adv-x="411" 
d="M159 -210h-80l10 61c-58 13 -109 38 -144 61l59 77c27 -15 65 -33 102 -43l12 69l-28 11c-47 20 -94 53 -94 116c0 71 58 133 168 135l10 54h81l-11 -63c48 -11 92 -31 127 -50l-60 -76c-22 10 -53 24 -84 32l-12 -67l28 -11c47 -20 96 -51 96 -116
c0 -72 -62 -134 -171 -137zM214 -31c0 10 -8 17 -19 22l-9 -49c17 5 28 14 28 27zM121 151c0 -10 7 -16 18 -21l8 48c-15 -4 -26 -14 -26 -27z" />
    <glyph glyph-name="dollarsuperior" unicode="&#xf6e4;" horiz-adv-x="418" 
d="M255 325h-80l10 61c-58 12 -109 37 -144 61l59 77c41 -23 104 -51 154 -51c31 0 56 12 56 31c0 29 -67 32 -124 57c-47 20 -94 53 -94 116c0 71 58 133 168 135l10 54h81l-12 -63c49 -11 93 -31 128 -50l-60 -76c-34 17 -94 40 -135 40c-29 0 -55 -10 -55 -31
c0 -28 58 -27 122 -55c47 -20 96 -51 96 -116c0 -73 -62 -135 -171 -137z" />
    <glyph glyph-name="periodinferior" unicode="&#xf6e7;" horiz-adv-x="206" 
d="M-31 -150l18 116h112l-18 -116h-112z" />
    <glyph glyph-name="periodsuperior" unicode="&#xf6e8;" horiz-adv-x="192" 
d="M55 385l18 116h112l-18 -116h-112z" />
    <glyph glyph-name="asuperior" unicode="&#xf6e9;" horiz-adv-x="420" 
d="M390 385h-112l5 31c-26 -17 -65 -38 -113 -38c-53 0 -105 31 -105 123c0 122 65 206 159 206c51 0 82 -23 104 -39l6 32h112zM217 466c31 0 58 19 82 37l15 84c-16 17 -38 31 -61 31c-47 0 -74 -51 -74 -107c0 -30 14 -45 38 -45z" />
    <glyph glyph-name="bsuperior" unicode="&#xf6ea;" horiz-adv-x="420" 
d="M59 385l77 437h112l-27 -153c25 17 64 38 111 38c52 0 107 -31 107 -124c0 -121 -64 -205 -157 -205c-53 0 -85 22 -106 38l-5 -31h-112zM285 618c-30 0 -56 -17 -79 -35v1l-16 -87c17 -17 38 -31 63 -31c45 0 72 51 72 107c0 31 -14 45 -40 45z" />
    <glyph glyph-name="dsuperior" unicode="&#xf6eb;" horiz-adv-x="420" 
d="M390 385h-112l5 31c-26 -17 -65 -38 -113 -38c-53 0 -105 31 -105 123c0 122 65 206 159 206c50 0 82 -23 104 -39l27 154h112zM217 466c31 0 58 19 82 37l15 85c-16 17 -38 30 -61 30c-47 0 -74 -51 -74 -107c0 -30 14 -45 38 -45z" />
    <glyph glyph-name="esuperior" unicode="&#xf6ec;" horiz-adv-x="385" 
d="M404 606c0 -85 -96 -98 -195 -98h-36c5 -37 26 -49 55 -49c32 0 78 15 121 34l33 -76c-24 -9 -101 -39 -176 -39c-85 0 -142 39 -142 138c0 108 72 191 199 191c83 0 141 -35 141 -101zM258 629c-43 0 -71 -26 -82 -64h37c54 0 85 11 85 38c0 15 -12 26 -40 26z" />
    <glyph glyph-name="isuperior" unicode="&#xf6ed;" horiz-adv-x="202" 
d="M171 385h-112l56 315h112zM119 734l15 87h115l-14 -87h-116z" />
    <glyph glyph-name="lsuperior" unicode="&#xf6ee;" horiz-adv-x="202" 
d="M171 385h-112l77 437h112z" />
    <glyph glyph-name="msuperior" unicode="&#xf6ef;" horiz-adv-x="614" 
d="M227 700l-6 -35c25 19 64 42 106 42c49 0 77 -20 87 -54c23 22 73 54 120 54c73 0 101 -43 89 -112l-37 -210h-111l35 194c5 24 3 42 -24 42c-24 0 -53 -17 -72 -34l-35 -202h-113l36 194c5 24 3 42 -24 42c-24 0 -52 -18 -71 -34l-36 -202h-112l56 315h112z" />
    <glyph glyph-name="osuperior" unicode="&#xf6f0;" horiz-adv-x="409" 
d="M249 707c110 0 178 -54 178 -148c0 -97 -61 -181 -185 -181c-109 0 -178 54 -178 148c0 96 62 181 185 181zM238 463c52 0 74 57 74 96c0 36 -12 63 -59 63c-52 0 -74 -58 -74 -96c0 -36 12 -63 59 -63z" />
    <glyph glyph-name="rsuperior" unicode="&#xf6f1;" horiz-adv-x="294" 
d="M227 700l-12 -65c11 20 53 74 134 69l-16 -105c-108 0 -141 -111 -141 -111l-21 -103h-112l56 315h112z" />
    <glyph glyph-name="ssuperior" unicode="&#xf6f2;" horiz-adv-x="368" 
d="M271 581c47 -13 104 -35 104 -98c0 -60 -53 -105 -147 -105c-74 0 -141 28 -180 52l50 72c34 -19 89 -40 132 -40c20 0 32 5 32 14c0 16 -41 20 -76 29c-46 12 -101 36 -101 97c0 57 49 105 141 105c64 0 129 -23 166 -42l-49 -70c-30 13 -78 29 -114 29
c-20 0 -31 -5 -31 -14c0 -15 33 -18 73 -29z" />
    <glyph glyph-name="tsuperior" unicode="&#xf6f3;" horiz-adv-x="298" 
d="M70 619l14 81h41l14 79l114 12l-16 -91h90l-14 -81h-91l-20 -117c-4 -24 8 -28 18 -28c14 0 37 7 49 11l29 -84c-26 -9 -74 -23 -117 -23c-72 0 -104 49 -89 133l19 108h-41z" />
    <glyph glyph-name="apple" unicode="&#xf8ff;" horiz-adv-x="901" 
d="M745 327c-13 -5 -13 -16 -3 -23l28 -20c11 -7 10 -15 -3 -18l-34 -6c-14 -2 -16 -12 -7 -22l24 -24c8 -9 6 -17 -8 -17l-35 2c-13 0 -18 -9 -10 -20l18 -30c7 -11 2 -17 -11 -15l-34 9c-12 4 -19 -5 -15 -17l11 -33c5 -12 -1 -18 -13 -12l-31 15c-11 6 -20 0 -19 -14
l5 -33c1 -14 -5 -17 -15 -9l-28 21c-10 8 -20 3 -21 -10l-2 -34c-1 -13 -9 -15 -17 -6l-23 27c-9 9 -18 8 -22 -5l-10 -33c-3 -13 -12 -13 -18 -2l-17 30c-6 12 -15 12 -23 0l-15 -30c-6 -11 -15 -11 -18 2l-10 33c-4 13 -13 14 -22 5l-23 -27c-8 -9 -15 -7 -17 6l-2 34
c-1 13 -11 18 -22 10l-26 -21c-11 -8 -19 -5 -16 9l5 33c1 14 -8 20 -20 14l-30 -15c-12 -6 -18 0 -13 12l11 33c5 12 -3 21 -15 17l-34 -9c-13 -2 -18 4 -11 15l19 30c7 11 2 20 -11 20l-35 -2c-14 0 -16 8 -8 17l25 24c8 10 6 20 -8 22l-33 6c-14 3 -15 11 -4 18l28 20
c3 2 5 5 6 6c6 5 13 2 18 -6l16 -31c6 -12 14 -10 18 2l9 34c4 12 14 14 22 4l23 -26c9 -10 16 -7 17 6l2 34c2 13 11 17 21 9l28 -21c11 -8 18 -4 15 9l-4 34c-2 13 7 19 18 13l31 -14c12 -6 18 0 14 12l-11 33c-5 12 2 20 14 16l7 -1c26 -50 49 -145 49 -205
c-8 -10 -17 -18 -46 -18h-4c0 14 -5 26 -16 35c7 -8 9 -17 9 -27v-7c-11 1 -16 8 -16 19c0 27 -18 49 -51 49c-27 0 -47 -23 -47 -54c0 -38 33 -65 92 -65c144 0 278 190 278 319c0 38 -26 67 -64 67c-30 0 -60 -24 -60 -58s21 -54 58 -58c-8 -32 -15 -60 -29 -85
c-8 62 -29 119 -58 150c29 -38 47 -97 52 -161l-14 -20c0 100 -36 197 -89 224c-3 6 2 13 12 15l34 6c12 2 14 10 3 17l-29 19c-10 9 -9 18 3 23l31 14c14 4 14 13 0 18l-31 13c-9 4 -11 8 -10 14c4 2 6 4 7 8l17 30c6 12 15 11 18 -1l10 -33c4 -13 13 -16 22 -5l23 26
c8 10 16 8 17 -5l2 -35c1 -14 11 -17 21 -9l28 21c10 8 16 3 15 -10l-5 -34c-1 -13 8 -19 19 -13l31 16c12 5 18 0 13 -14l-11 -31c-4 -13 3 -21 15 -17l34 7c13 4 18 -2 11 -14l-18 -29c-8 -11 -3 -21 10 -20l35 2c14 0 16 -8 8 -17l-24 -26c-9 -9 -7 -19 7 -21l34 -6
c13 -3 14 -10 3 -19l-28 -19c-10 -7 -10 -17 3 -22l31 -13c12 -5 12 -13 0 -18zM364 124c144 0 278 189 278 319c0 19 -7 37 -20 49c8 -12 12 -25 12 -41c0 -66 -34 -146 -85 -210c-52 -64 -122 -113 -196 -113c-19 0 -36 3 -49 9c14 -9 35 -13 60 -13z" />
    <glyph glyph-name="s_t" unicode="&#xfb06;" horiz-adv-x="959" 
d="M572 405l19 120h71l3 18c13 73 -5 114 -76 114c-70 0 -124 -45 -124 -116c0 -19 4 -36 11 -51c17 -7 31 -14 44 -21l-73 -105c-45 22 -113 48 -171 48c-39 0 -65 -12 -65 -33c0 -30 51 -36 118 -56c77 -23 164 -60 164 -161c0 -102 -88 -173 -234 -173
c-114 0 -217 44 -276 83l74 107c54 -30 142 -65 204 -65c40 0 63 14 63 33c0 32 -63 41 -122 59c-70 21 -158 57 -158 158c0 96 80 172 222 172c44 0 89 -7 130 -18c-3 11 -4 22 -4 35c0 95 78 176 224 176c141 0 234 -70 211 -196l-2 -8h142l-20 -120h-143l-40 -225
c-7 -42 11 -48 31 -48c23 0 60 13 80 20l40 -126c-38 -14 -114 -37 -179 -37c-108 0 -156 73 -133 206l37 210h-68z" />
    <glyph glyph-name="eight.numr" horiz-adv-x="435" 
d="M42 388c0 64 56 102 116 126c-33 24 -50 50 -50 83c0 62 60 110 170 110c103 0 158 -43 158 -101c0 -44 -35 -77 -83 -101c41 -22 75 -52 75 -103c0 -76 -75 -129 -203 -129c-118 0 -183 45 -183 115zM310 408c0 29 -28 46 -58 59c-46 -15 -92 -32 -92 -67
c0 -26 24 -41 67 -41c45 0 83 18 83 49zM221 584c0 -20 17 -31 35 -39c35 11 67 21 67 45c0 22 -19 34 -46 34c-33 0 -56 -18 -56 -40z" />
    <glyph glyph-name="Qsuperior" horiz-adv-x="506" 
d="M311 812c141 0 219 -69 220 -189c1 -60 -26 -179 -131 -226l56 -49l-81 -71l-92 101c-130 6 -202 74 -203 189c-1 76 42 245 231 245zM294 475c89 0 118 91 118 144c0 60 -27 95 -95 95c-89 0 -118 -91 -118 -145c0 -60 27 -94 95 -94z" />
    <glyph glyph-name="f_f.calt" horiz-adv-x="777" 
d="M38 405l20 120h72l2 12c20 128 64 192 177 192c79 0 156 -34 195 -55l-61 -105c-22 7 -71 19 -99 19c-19 0 -40 -8 -47 -49l-3 -14h110l-21 -120h-111l-63 -349c-31 -173 -41 -235 -277 -286l-35 124c122 38 127 53 145 149l66 362h-70zM423 405l21 120h71l2 12
c21 128 65 192 176 192c56 0 126 -28 158 -44l-56 -110c-18 6 -46 13 -65 13s-40 -8 -48 -49l-3 -14h125l-21 -120h-125l-63 -349c-32 -173 -41 -235 -277 -286l-35 124c122 38 127 53 144 149l66 362h-70z" />
    <glyph glyph-name="f_f.ss01" horiz-adv-x="754" 
d="M38 405l21 120h70l1 2c23 130 75 192 187 192c80 0 166 -25 225 -47c28 38 68 57 131 57c79 0 156 -34 195 -55l-74 -105c-18 7 -61 19 -86 19c-20 0 -41 -8 -48 -49l-3 -14h125l-21 -120h-125l-63 -349c-32 -173 -42 -235 -278 -286l-34 124c122 38 128 53 145 149
l64 362h-197l-63 -349c-32 -173 -41 -235 -278 -286l-35 124c123 38 128 53 145 149l66 362h-70zM296 534l-2 -9h198l7 38c-33 7 -104 20 -146 20c-26 0 -50 -11 -57 -49z" />
    <glyph glyph-name="f_f_b.ss01" horiz-adv-x="1388" 
d="M38 405l21 120h70l1 2c23 130 75 192 187 192c81 0 169 -26 228 -48c31 39 75 58 137 58c69 0 145 -19 202 -39l7 39h165l-46 -258c41 29 104 65 179 65c83 0 167 -50 167 -198c0 -206 -102 -349 -251 -349c-82 0 -132 39 -168 67l-10 -56h-165l100 568
c-32 7 -104 20 -145 20c-27 0 -52 -11 -58 -49l-3 -14h125l-20 -120h-127l-63 -349c-31 -173 -41 -235 -277 -286l-35 124c122 38 127 53 145 149l66 362h-197l-63 -349c-32 -173 -41 -235 -278 -286l-35 124c123 38 128 53 145 149l66 362h-70zM1117 405
c-49 0 -91 -32 -130 -64l-29 -164c28 -31 66 -56 106 -56c79 0 124 95 124 199c0 54 -25 85 -71 85zM294 525h198l7 38c-33 7 -104 20 -146 20c-26 0 -50 -11 -57 -49z" />
    <glyph glyph-name="f_f_h.ss01" horiz-adv-x="1385" 
d="M38 405l21 120h70l1 2c23 130 75 192 187 192c81 0 169 -26 228 -48c31 39 75 58 137 58c69 0 145 -19 202 -39l7 39h165l-47 -261c49 32 120 68 193 68c118 0 163 -75 142 -188l-61 -348h-165l59 331c8 45 2 78 -45 78s-107 -32 -144 -61l-61 -348h-165l100 568
c-32 7 -104 20 -145 20c-27 0 -52 -11 -58 -49l-3 -14h125l-20 -120h-127l-63 -349c-31 -173 -41 -235 -277 -286l-35 124c122 38 127 53 145 149l66 362h-197l-63 -349c-32 -173 -41 -235 -278 -286l-35 124c123 38 128 53 145 149l66 362h-70zM294 525h198l7 38
c-33 7 -104 20 -146 20c-26 0 -50 -11 -57 -49z" />
    <glyph glyph-name="f_f_i.ss01" horiz-adv-x="1001" 
d="M953 674l-63 -106c-34 7 -118 20 -166 20c-28 0 -59 -11 -65 -49l-3 -14h331l-93 -525h-164l71 405h-167l-63 -349c-31 -173 -41 -235 -277 -286l-35 124c122 38 127 53 145 149l66 362h-197l-63 -349c-32 -173 -41 -235 -278 -286l-35 124c123 38 128 53 145 149l66 362
h-70l21 120h70l1 2c23 130 75 192 187 192c82 0 171 -26 230 -48c32 39 78 58 142 58c90 0 205 -33 264 -55zM294 525h198l7 38c-33 7 -104 20 -146 20c-26 0 -50 -11 -57 -49z" />
    <glyph glyph-name="f_f_j.ss01" horiz-adv-x="1001" 
d="M38 405l21 120h70l1 2c23 130 75 192 187 192c82 0 171 -26 230 -48c32 39 78 58 142 58c90 0 205 -33 264 -55l-63 -106c-34 7 -118 20 -166 20c-28 0 -59 -11 -65 -49l-3 -14h332l-90 -501c-25 -142 -35 -203 -270 -254l-36 124c122 38 128 52 140 116l70 395h-168
l-63 -349c-31 -173 -41 -235 -277 -286l-35 124c122 38 127 53 145 149l66 362h-197l-63 -349c-32 -173 -41 -235 -278 -286l-35 124c123 38 128 53 145 149l66 362h-70zM492 525l7 38c-33 7 -104 20 -146 20c-26 0 -50 -11 -57 -49l-2 -9h198z" />
    <glyph glyph-name="f_f_k.ss01" horiz-adv-x="1337" 
d="M38 405l21 120h70l1 2c23 130 75 192 187 192c81 0 169 -26 228 -48c31 39 75 58 137 58c69 0 145 -19 202 -39l7 39h165l-68 -382l170 178h200l-220 -214l157 -311h-167l-101 203l-78 -76l-22 -127h-165l100 568c-32 7 -104 20 -145 20c-27 0 -52 -11 -58 -49l-3 -14
h125l-20 -120h-127l-63 -349c-31 -173 -41 -235 -277 -286l-35 124c122 38 127 53 145 149l66 362h-197l-63 -349c-32 -173 -41 -235 -278 -286l-35 124c123 38 128 53 145 149l66 362h-70zM492 525l7 38c-33 7 -104 20 -146 20c-26 0 -50 -11 -57 -49l-2 -9h198z" />
    <glyph glyph-name="f.calt" horiz-adv-x="392" 
d="M38 405l20 120h72l2 12c20 128 65 192 176 192c55 0 126 -28 158 -44l-56 -110c-19 6 -46 13 -66 13c-19 0 -40 -8 -47 -49l-3 -14h125l-21 -120h-126l-63 -349c-31 -173 -41 -235 -277 -286l-35 124c122 38 127 53 145 149l66 362h-70z" />
    <glyph glyph-name="f_f_l.ss01" horiz-adv-x="1040" 
d="M38 405l21 120h70l1 2c23 130 75 192 187 192c81 0 169 -26 228 -48c31 39 75 58 137 58c69 0 145 -19 202 -39l7 39h165l-129 -729h-165l100 568c-32 7 -104 20 -145 20c-27 0 -52 -11 -58 -49l-3 -14h125l-20 -120h-127l-63 -349c-31 -173 -41 -235 -277 -286l-35 124
c122 38 127 53 145 149l66 362h-197l-63 -349c-32 -173 -41 -235 -278 -286l-35 124c123 38 128 53 145 149l66 362h-70zM492 525l7 38c-33 7 -104 20 -146 20c-26 0 -50 -11 -57 -49l-2 -9h198z" />
    <glyph glyph-name="f_f_t.ss01" horiz-adv-x="1157" 
d="M865 674l-73 -105c-18 7 -62 19 -87 19c-20 0 -40 -8 -47 -49l-3 -14h206l24 132l167 20l-27 -152h140l-19 -120h-143l-40 -225c-7 -42 11 -48 30 -48c24 0 61 13 81 20l40 -126c-38 -14 -114 -37 -179 -37c-108 0 -157 73 -133 206l37 210h-206l-63 -349
c-31 -173 -41 -235 -277 -286l-34 124c121 38 128 53 145 149l65 362h-196l-63 -349c-32 -173 -41 -235 -278 -286l-35 124c123 38 128 53 145 149l66 362h-70l20 120h71l1 2c23 130 75 192 187 192c79 0 165 -25 224 -46c27 37 68 56 130 56c79 0 156 -34 194 -55zM491 525
l7 38c-34 7 -103 20 -145 20c-26 0 -50 -11 -57 -49l-2 -9h197z" />
    <glyph glyph-name="f_h.ss01" horiz-adv-x="1023" 
d="M37 405l21 120h71l2 12c23 130 75 192 187 192c70 0 146 -19 203 -39l7 39h164l-46 -262c48 33 119 69 193 69c118 0 163 -75 142 -188l-61 -348h-166l60 331c8 45 2 78 -46 78c-47 0 -108 -32 -144 -62l-61 -347h-164l100 568c-32 7 -104 20 -146 20
c-26 0 -50 -11 -57 -49l-3 -14h125l-21 -120h-125l-63 -349c-32 -173 -41 -235 -277 -286l-35 124c122 38 128 53 144 149l66 362h-70z" />
    <glyph glyph-name="exclamsuperior" horiz-adv-x="201" 
d="M60 385l17 105h112l-17 -105h-112zM258 805l-84 -278h-67l15 278h136z" />
    <glyph glyph-name="f_i.ss01" horiz-adv-x="639" 
d="M37 405l21 120h71l2 12c24 130 78 192 194 192c91 0 205 -33 265 -55l-64 -106c-33 7 -116 20 -165 20c-28 0 -56 -11 -63 -49l-3 -14h330l-94 -525h-163l71 405h-166l-64 -349c-32 -173 -41 -235 -277 -286l-35 124c122 38 128 53 144 149l66 362h-70z" />
    <glyph glyph-name="f_j.ss01" horiz-adv-x="639" 
d="M37 405l21 120h71l2 12c24 130 78 192 194 192c91 0 205 -33 265 -55l-64 -106c-33 7 -116 20 -165 20c-28 0 -56 -11 -63 -49l-3 -14h330l-90 -501c-25 -142 -34 -203 -270 -254l-36 124c122 38 128 52 139 116l70 395h-165l-64 -349c-32 -173 -41 -235 -277 -286
l-35 124c122 38 128 53 144 149l66 362h-70z" />
    <glyph glyph-name="f_k.ss01" horiz-adv-x="975" 
d="M37 405l21 120h71l2 12c23 130 75 192 187 192c70 0 146 -19 203 -39l7 39h164l-68 -382l170 178h200l-219 -214l157 -311h-167l-101 203l-79 -77l-22 -126h-164l100 568c-32 7 -104 20 -146 20c-26 0 -50 -11 -57 -49l-3 -14h125l-21 -120h-125l-63 -349
c-32 -173 -41 -235 -277 -286l-35 124c122 38 127 53 144 149l66 362h-70z" />
    <glyph glyph-name="exclaminferior" horiz-adv-x="209" 
d="M-31 -150l17 105h112l-17 -105h-112zM167 270l-84 -278h-67l15 278h136z" />
    <glyph glyph-name="f_l.ss01" horiz-adv-x="677" 
d="M37 405l21 120h71l2 12c23 130 75 192 187 192c70 0 146 -19 203 -39l7 39h164l-129 -729h-164l100 568c-32 7 -104 20 -146 20c-26 0 -50 -11 -57 -49l-3 -14h125l-21 -120h-125l-63 -349c-32 -173 -41 -235 -277 -286l-35 124c122 38 127 53 144 149l66 362h-70z" />
    <glyph glyph-name="f_t.ss01" horiz-adv-x="797" 
d="M503 674l-72 -105c-20 7 -62 19 -87 19c-19 0 -40 -8 -48 -49l-3 -14h198l24 132l168 20l-27 -152h141l-20 -120h-143l-40 -225c-7 -42 12 -48 30 -48c23 0 62 13 81 20l39 -126c-38 -14 -113 -37 -178 -37c-108 0 -157 73 -134 206l37 210h-197l-63 -349
c-32 -173 -41 -235 -277 -286l-35 124c122 38 127 53 144 149l66 362h-70l21 120h71l2 12c21 128 65 192 177 192c80 0 157 -34 195 -55z" />
    <glyph glyph-name="finferior" horiz-adv-x="301" 
d="M-15 84l13 81h44c14 80 41 122 116 122c54 0 102 -22 128 -35l-50 -71c-12 4 -36 12 -52 12c-11 0 -24 -3 -28 -28h75l-12 -81h-78l-36 -193c-20 -107 -26 -148 -180 -180l-25 84c76 23 80 32 90 88l37 201h-42z" />
    <glyph glyph-name="exclamdownsuperior" horiz-adv-x="208" 
d="M119 699l17 106h112l-17 -106h-112zM201 663l-16 -278h-135l84 278h67z" />
    <glyph glyph-name="five.dnom" horiz-adv-x="409" 
d="M28 206l60 214h294l-15 -95h-196l-11 -50c14 3 28 5 45 5c99 0 147 -62 147 -131c0 -80 -64 -156 -187 -156c-95 0 -159 46 -188 69l63 71c25 -18 61 -42 114 -42c40 0 79 16 79 53c0 29 -21 44 -59 44c-35 0 -62 -11 -83 -24z" />
    <glyph glyph-name="five.numr" horiz-adv-x="409" 
d="M76 486l61 214h294l-15 -95h-196l-12 -50c15 3 29 5 46 5c99 0 146 -62 146 -131c0 -80 -64 -156 -186 -156c-95 0 -160 46 -188 69l62 71c25 -18 60 -42 114 -42c40 0 80 16 80 53c0 29 -22 44 -59 44c-35 0 -62 -11 -83 -24z" />
    <glyph glyph-name="five.onum" horiz-adv-x="608" 
d="M40 220l99 354h455l-23 -141h-310l-26 -106c25 6 51 9 80 9c153 0 228 -99 228 -215c0 -133 -103 -258 -298 -258c-142 0 -242 71 -286 107l94 107c28 -22 94 -68 174 -68c73 0 141 38 141 105c0 48 -34 85 -104 85c-51 0 -92 -20 -131 -41z" />
    <glyph glyph-name="five.tnum" horiz-adv-x="690" 
d="M104 346l98 354h456l-24 -141h-310l-26 -106c25 6 51 9 80 9c153 0 228 -99 228 -215c0 -133 -104 -258 -298 -258c-142 0 -241 71 -286 107l94 107c29 -22 95 -68 175 -68c72 0 140 38 140 105c0 48 -33 85 -103 85c-52 0 -92 -20 -131 -41z" />
    <glyph glyph-name="exclamdowninferior" horiz-adv-x="203" 
d="M23 164l17 106h112l-17 -106h-112zM105 128l-16 -278h-135l84 278h67z" />
    <glyph glyph-name="fiveeighths.onum" horiz-adv-x="864" 
d="M470 89c0 53 49 83 100 103c-28 18 -45 40 -45 69c0 50 52 89 144 89c87 0 135 -35 135 -83c0 -36 -32 -63 -73 -83c36 -18 65 -43 65 -86c0 -60 -64 -104 -170 -104c-100 0 -156 37 -156 95zM68 399l51 175h248l-11 -76h-171l-11 -45c13 3 26 5 42 5
c86 0 127 -51 127 -108c0 -65 -56 -126 -159 -126c-79 0 -134 37 -159 55l50 56c20 -14 53 -33 98 -33c38 0 75 13 75 45c0 25 -20 38 -55 38c-32 0 -55 -9 -73 -19zM665 574l-385 -574h-99l384 574h100zM703 104c0 25 -27 39 -54 50c-43 -12 -86 -25 -86 -56
c0 -23 24 -35 63 -35c41 0 77 15 77 41zM614 250c0 -18 19 -28 37 -34c32 9 62 18 62 39c0 19 -18 29 -45 29c-32 0 -54 -15 -54 -34z" />
    <glyph glyph-name="exclamdown.sc" horiz-adv-x="273" 
d="M84 429l23 145h152l-22 -145h-153zM196 379l-22 -379h-184l115 379h91z" />
    <glyph glyph-name="fivesixths" horiz-adv-x="983" 
d="M857 334c-67 0 -135 -23 -169 -85c19 11 47 23 90 23c85 0 140 -51 140 -126c0 -82 -64 -153 -181 -153c-122 0 -185 78 -185 168c0 148 122 266 300 266c56 0 85 -13 85 -13l-39 -83s-18 3 -41 3zM87 486l60 214h294l-15 -95h-196l-11 -50c14 3 28 5 45 5
c100 0 147 -62 147 -131c0 -80 -64 -156 -187 -156c-95 0 -159 46 -188 69l63 71c25 -18 61 -42 114 -42c40 0 79 16 79 53c0 29 -21 44 -59 44c-34 0 -62 -11 -83 -24zM785 700l-448 -700h-124l449 700h123zM741 188c-35 0 -62 -18 -74 -31v-4c0 -38 23 -67 66 -67
c48 0 70 28 70 56c0 26 -18 46 -62 46z" />
    <glyph glyph-name="fivesixths.onum" horiz-adv-x="846" 
d="M726 277c-61 0 -122 -21 -151 -74c17 10 43 20 82 20c74 0 121 -42 121 -104c0 -67 -54 -125 -154 -125c-104 0 -157 64 -157 139c0 121 105 217 254 217c46 0 72 -10 72 -10l-30 -66s-16 3 -37 3zM67 399l51 175h249l-11 -76h-172l-10 -45c13 3 26 5 42 5
c85 0 127 -51 127 -108c0 -65 -56 -126 -159 -126c-80 0 -134 37 -159 55l49 56c21 -14 53 -33 99 -33c37 0 75 13 75 45c0 25 -20 38 -56 38c-31 0 -54 -9 -73 -19zM662 574l-384 -574h-98l383 574h99zM629 156c-34 0 -61 -16 -71 -28v-1c0 -31 22 -59 62 -59
c45 0 66 24 66 48c0 23 -16 40 -57 40z" />
    <glyph glyph-name="exclam.sc" horiz-adv-x="271" 
d="M8 0l23 145h152l-23 -145h-152zM277 574l-115 -379h-90l21 379h184z" />
    <glyph glyph-name="einferior" horiz-adv-x="374" 
d="M310 71c0 -85 -97 -98 -195 -98h-36c5 -36 26 -49 55 -49c32 0 78 15 121 34l33 -76c-24 -9 -101 -39 -176 -39c-85 0 -142 39 -142 138c0 108 72 191 199 191c83 0 141 -35 141 -101zM164 94c-43 0 -71 -26 -82 -64h37c53 0 85 11 85 38c0 15 -13 26 -40 26z" />
    <glyph glyph-name="eight.tnum" horiz-adv-x="690" 
d="M26 177c0 111 93 172 189 211c-51 36 -81 80 -81 139c0 106 96 184 265 184c158 0 245 -69 245 -165c0 -79 -63 -132 -140 -171c64 -34 121 -85 121 -173c0 -127 -121 -213 -318 -213c-179 0 -281 71 -281 188zM451 212c0 50 -50 82 -97 105c-75 -25 -153 -58 -153 -122
c0 -46 39 -78 108 -78c79 0 142 41 142 95zM298 509c0 -35 31 -56 66 -73c59 20 110 42 110 87c0 31 -24 64 -76 64c-59 0 -100 -39 -100 -78z" />
    <glyph glyph-name="four.dnom" horiz-adv-x="449" 
d="M193 0l13 73h-230l12 79l241 268h154l-45 -252h65l-15 -95h-66l-13 -73h-116zM118 168h104l27 152z" />
    <glyph glyph-name="four.numr" horiz-adv-x="449" 
d="M243 280l12 73h-230l13 79l241 268h153l-44 -252h64l-14 -95h-67l-12 -73h-116zM167 448h105l26 151z" />
    <glyph glyph-name="four.onum" horiz-adv-x="678" 
d="M306 -126l22 128h-364l19 118l390 454h227l-76 -431h104l-23 -141h-106l-22 -128h-171zM170 143h183l48 275z" />
    <glyph glyph-name="four.tnum" horiz-adv-x="690" 
d="M1 128l20 118l390 454h216l-77 -431h97l-22 -141h-100l-22 -128h-167l22 128h-357zM207 269h176l47 265z" />
    <glyph glyph-name="fourfifths" horiz-adv-x="1060" 
d="M255 280l13 73h-230l12 79l241 268h154l-45 -252h65l-15 -95h-66l-13 -73h-116zM666 206l61 214h294l-15 -95h-197l-12 -50c15 3 30 5 47 5c100 0 146 -62 146 -131c0 -80 -64 -156 -186 -156c-95 0 -160 46 -188 69l63 71c25 -18 60 -42 114 -42c39 0 79 16 79 53
c0 29 -21 44 -59 44c-34 0 -61 -11 -84 -24zM844 700l-448 -700h-125l449 700h124zM180 448h104l27 152z" />
    <glyph glyph-name="fourfifths.onum" horiz-adv-x="911" 
d="M215 230l11 61h-199l9 62l210 221h124l-38 -209h57l-11 -74h-59l-11 -61h-93zM565 170l51 174h248l-11 -75h-172l-12 -46c14 3 28 5 44 5c86 0 127 -51 127 -107c0 -65 -56 -127 -159 -127c-79 0 -135 37 -159 56l50 56c20 -14 53 -34 98 -34c37 0 75 14 75 46
c0 25 -19 38 -56 38c-30 0 -54 -10 -73 -20zM713 574l-385 -574h-100l386 574h99zM142 365h97l23 132z" />
    <glyph glyph-name="eight.onum" horiz-adv-x="658" 
d="M10 177c0 111 93 172 189 211c-51 36 -81 80 -81 139c0 106 96 184 265 184c158 0 244 -69 244 -165c0 -79 -62 -133 -139 -171c64 -34 121 -85 121 -173c0 -127 -121 -213 -319 -213c-179 0 -280 71 -280 188zM435 212c0 50 -50 83 -97 105c-75 -25 -154 -58 -154 -122
c0 -46 40 -78 109 -78c79 0 142 41 142 95zM282 509c0 -35 31 -56 65 -73c60 20 111 42 111 87c0 31 -24 64 -77 64c-58 0 -99 -39 -99 -78z" />
    <glyph glyph-name="eight.dnom" horiz-adv-x="436" 
d="M-8 108c0 64 56 102 116 126c-33 24 -50 50 -50 83c0 62 60 110 170 110c103 0 158 -43 158 -101c0 -44 -35 -76 -83 -101c41 -22 75 -52 75 -103c0 -76 -76 -129 -203 -129c-117 0 -183 45 -183 115zM259 128c0 29 -28 46 -57 59c-46 -15 -92 -32 -92 -67
c0 -26 25 -41 67 -41c45 0 82 18 82 49zM170 304c0 -20 17 -31 35 -39c36 11 68 21 68 45c0 22 -20 34 -46 34c-34 0 -57 -18 -57 -40z" />
    <glyph glyph-name="dollar.onum" horiz-adv-x="598" 
d="M289 -82h-108l15 83c-80 17 -151 51 -199 83l81 105c55 -30 144 -69 208 -69c48 0 83 16 83 40c0 43 -90 46 -172 80c-66 27 -131 72 -131 159c0 98 82 182 232 184l14 74h107l-15 -86c68 -15 128 -43 176 -69l-79 -104c-48 25 -131 55 -186 55c-41 0 -79 -12 -79 -39
c0 -41 76 -39 168 -78c63 -25 134 -67 134 -159c0 -99 -85 -183 -237 -186z" />
    <glyph glyph-name="frenchfranc" horiz-adv-x="644" 
d="M3 99l15 95h69l89 506h504l-23 -144h-335l-26 -136h264l-24 -141h-263l-16 -85h178l-16 -95h-179l-17 -99h-170l17 99h-67z" />
    <glyph glyph-name="frenchfranc.onum" horiz-adv-x="574" 
d="M-3 75l14 85h60l73 414h445l-22 -133h-289l-17 -90h227l-21 -129h-228l-11 -62h154l-14 -85h-155l-13 -75h-157l13 75h-59z" />
    <glyph glyph-name="frenchfrancinferior" horiz-adv-x="406" 
d="M-62 -95l10 62h44l54 303h324l-16 -97h-208l-13 -66h162l-16 -95h-162l-8 -45h111l-9 -62h-113l-10 -55h-116l9 55h-43z" />
    <glyph glyph-name="frenchfrancsuperior" horiz-adv-x="398" 
d="M50 440l10 62h44l54 303h324l-16 -97h-208l-13 -66h162l-16 -95h-162l-8 -45h111l-9 -62h-113l-10 -55h-116l9 55h-43z" />
    <glyph glyph-name="fsuperior" horiz-adv-x="305" 
d="M100 619l13 81h44c14 80 41 122 116 122c54 0 102 -22 128 -35l-50 -71c-12 4 -36 12 -52 12c-11 0 -24 -3 -28 -28h75l-12 -81h-78l-36 -193c-20 -107 -26 -148 -180 -180l-25 84c76 23 80 32 90 88l37 201h-42z" />
    <glyph glyph-name="dinferior" horiz-adv-x="412" 
d="M286 -150h-111l5 32c-26 -18 -65 -39 -113 -39c-53 0 -105 31 -105 123c0 122 65 206 159 206c50 0 82 -23 104 -39l27 154h112zM114 -69c32 0 58 19 82 37l15 85c-16 17 -38 30 -61 30c-47 0 -74 -51 -74 -107c0 -30 14 -45 38 -45z" />
    <glyph glyph-name="csuperior" horiz-adv-x="357" 
d="M392 656l-49 -75c-22 13 -53 31 -86 31c-46 0 -79 -35 -79 -83c0 -39 19 -56 50 -56c26 0 64 13 92 25l36 -83c-35 -13 -95 -37 -154 -37c-76 0 -137 38 -137 141c0 116 77 188 170 188c62 0 121 -31 157 -51z" />
    <glyph glyph-name="copyright.sc" horiz-adv-x="692" 
d="M35 261c0 171 116 322 329 322c180 0 289 -111 289 -270c0 -171 -116 -322 -328 -322c-180 0 -290 111 -290 270zM69 261c0 -138 95 -239 258 -239c185 0 293 132 293 291c0 138 -95 239 -258 239c-185 0 -293 -132 -293 -291zM497 410l-28 -27c-22 17 -58 46 -113 46
c-75 0 -134 -75 -128 -178c4 -66 31 -106 83 -106c55 0 104 28 129 44l24 -30c-35 -21 -85 -51 -151 -51c-69 0 -125 49 -128 140c-9 139 75 217 172 217c66 0 112 -34 140 -55z" />
    <glyph glyph-name="colonsuperior" horiz-adv-x="206" 
d="M92 563l20 117h112l-20 -117h-112zM61 385l20 116h112l-20 -116h-112z" />
    <glyph glyph-name="colonmonetarysuperior" horiz-adv-x="361" 
d="M160 385h-46l25 60c-38 20 -64 60 -64 126c0 116 77 188 170 188c8 0 17 -1 25 -2l20 48h46l-24 -56l13 -5l26 61h45l-32 -76c17 -7 31 -15 44 -21l-49 -75l-29 14l-47 -115c18 5 37 12 53 18l36 -83c-30 -11 -80 -29 -131 -35l-19 -47h-46l19 45l-15 2zM219 527
c5 -1 10 -2 15 -2l57 136c-5 1 -10 2 -15 2zM188 581c0 -6 0 -11 1 -16l37 88c-24 -14 -38 -40 -38 -72z" />
    <glyph glyph-name="germandblsinferior" horiz-adv-x="473" 
d="M226 277c160 0 203 -74 192 -140l-2 -12l-71 -57c-25 11 -54 21 -76 21c-17 0 -29 -6 -29 -16c0 -17 37 -21 70 -30c38 -10 92 -32 92 -96c0 -57 -42 -104 -131 -104c-69 0 -137 29 -170 55l49 73c32 -20 84 -43 115 -43c13 0 28 4 28 15c0 16 -29 20 -67 30
c-51 14 -94 41 -94 95c0 53 40 104 129 104c14 0 27 -2 40 -4c-9 15 -31 24 -74 24c-59 0 -101 -16 -110 -68l-48 -274h-112l51 288c16 75 64 139 218 139z" />
    <glyph glyph-name="germandblssuperior" horiz-adv-x="499" 
d="M328 812c160 0 203 -74 192 -140l-2 -12l-71 -57c-25 11 -54 21 -76 21c-17 0 -29 -6 -29 -16c0 -17 37 -21 70 -30c38 -10 92 -32 92 -96c0 -57 -42 -104 -131 -104c-69 0 -137 29 -170 55l49 73c32 -20 84 -43 115 -43c13 0 28 4 28 15c0 16 -29 20 -67 30
c-51 14 -94 41 -94 95c0 53 40 104 129 104c14 0 27 -2 40 -4c-9 15 -31 24 -74 24c-59 0 -101 -16 -110 -68l-48 -274h-112l51 288c16 75 64 139 218 139z" />
    <glyph glyph-name="ginferior" horiz-adv-x="416" 
d="M239 165h112l-54 -305c-20 -110 -73 -138 -172 -138c-62 0 -126 10 -181 26l34 87c40 -11 93 -24 135 -24c50 0 66 18 71 43l5 27c-25 -17 -65 -38 -114 -38c-52 0 -104 31 -104 123c0 122 65 206 158 206c52 0 83 -23 104 -39zM124 -69c31 0 56 18 80 36l15 86
c-16 17 -38 30 -60 30c-47 0 -74 -51 -74 -107c0 -30 13 -45 39 -45z" />
    <glyph glyph-name="colonmonetaryinferior" horiz-adv-x="362" 
d="M68 -150h-46l25 61c-38 19 -64 59 -64 125c0 116 77 188 170 188c8 0 17 -1 25 -2l20 48h46l-24 -56c5 -2 9 -3 14 -4l25 60h45l-32 -76c17 -7 31 -15 44 -21l-49 -75l-29 14l-47 -114c18 4 37 11 53 17l36 -83c-30 -11 -80 -30 -131 -35l-19 -47h-46l19 46
c-5 0 -10 1 -15 2zM127 -7c5 -2 10 -3 15 -3l57 136c-5 1 -10 2 -15 2zM96 46c0 -6 0 -11 1 -16l37 88c-24 -14 -38 -40 -38 -72z" />
    <glyph glyph-name="colonmonetary.onum" horiz-adv-x="511" 
d="M156 0h-62l35 84c-56 26 -91 79 -91 163c0 182 118 265 232 265c12 0 25 -1 37 -2l27 64h62l-32 -76l20 -6l35 82h62l-43 -103l58 -29l-66 -101c-11 6 -24 13 -39 19l-66 -158c25 7 51 16 72 24l49 -112c-42 -15 -111 -42 -179 -49l-27 -65h-62l27 64c-7 0 -14 1 -21 2z
M237 193c6 -1 13 -2 21 -2l79 189c-7 1 -14 3 -21 3zM193 258c0 -6 0 -12 1 -18l52 123c-34 -25 -53 -69 -53 -105z" />
    <glyph glyph-name="coloninferior" horiz-adv-x="198" 
d="M-4 28l20 117h112l-20 -117h-112zM-35 -150l20 116h112l-20 -116h-112z" />
    <glyph glyph-name="gsuperior" horiz-adv-x="445" 
d="M348 700h112l-54 -305c-20 -110 -73 -138 -172 -138c-62 0 -126 10 -181 26l34 87c40 -11 93 -24 135 -24c50 0 66 18 71 43l5 27c-25 -17 -65 -38 -114 -38c-52 0 -104 31 -104 123c0 122 65 206 158 206c52 0 83 -23 104 -39zM233 466c31 0 56 18 80 36l15 86
c-16 17 -38 30 -60 30c-47 0 -74 -51 -74 -107c0 -30 13 -45 39 -45z" />
    <glyph glyph-name="cinferior" horiz-adv-x="349" 
d="M300 121l-49 -75c-22 13 -53 31 -86 31c-46 0 -79 -35 -79 -83c0 -39 20 -56 50 -56c26 0 64 13 92 25l36 -83c-35 -13 -96 -37 -154 -37c-76 0 -137 38 -137 141c0 116 77 188 170 188c62 0 121 -31 157 -51z" />
    <glyph glyph-name="cent.onum" horiz-adv-x="510" 
d="M292 0h-107l11 63c-92 11 -159 68 -159 183c0 182 117 265 232 265h6l11 63h107l-15 -81c46 -15 86 -36 116 -52l-65 -101c-32 17 -84 43 -125 43c-70 0 -112 -71 -112 -126c0 -40 21 -67 68 -67c39 0 97 20 135 35l49 -112c-33 -13 -85 -32 -140 -43z" />
    <glyph glyph-name="c_t" horiz-adv-x="949" 
d="M655 543c12 73 -4 114 -69 114c-64 0 -120 -45 -120 -116c0 -20 4 -38 13 -53l53 -28l-74 -113c-33 17 -87 49 -132 49c-82 0 -136 -91 -136 -172c0 -57 25 -95 82 -95c42 0 105 29 144 47l54 -126c-53 -22 -148 -61 -235 -61c-122 0 -214 69 -214 220
c0 223 136 327 269 327c40 0 76 -7 108 -16c-2 10 -3 20 -3 32c0 96 78 177 213 177c145 0 232 -69 209 -196l-2 -8h142l-20 -120h-143l-40 -225c-7 -42 12 -48 31 -48c23 0 61 13 80 20l40 -126c-38 -14 -114 -37 -179 -37c-107 0 -156 73 -133 206l37 210h-68l19 120h71z
" />
    <glyph glyph-name="c_l" horiz-adv-x="801" 
d="M691 0h-164l116 657h-47c-68 0 -122 -42 -122 -116c0 -20 4 -40 11 -57c17 -8 33 -17 47 -24l-74 -113c-33 17 -87 49 -132 49c-82 0 -136 -91 -136 -172c0 -57 25 -95 82 -95c42 0 105 29 144 47l54 -126c-53 -22 -148 -61 -235 -61c-122 0 -214 69 -214 220
c0 223 136 327 269 327c43 0 81 -7 116 -18c-2 10 -3 21 -3 34c0 97 66 177 192 177h225z" />
    <glyph glyph-name="c_k" horiz-adv-x="1101" 
d="M1121 525l-220 -214l157 -311h-167l-101 203l-78 -76l-22 -127h-165l116 657h-45c-68 0 -122 -42 -122 -116c0 -20 4 -40 11 -57c17 -8 33 -17 47 -24l-74 -113c-33 17 -87 49 -132 49c-82 0 -136 -91 -136 -172c0 -57 25 -95 82 -95c42 0 105 29 144 47l54 -126
c-53 -22 -148 -61 -235 -61c-122 0 -214 69 -214 220c0 223 136 327 269 327c43 0 81 -7 116 -18c-2 10 -3 21 -3 34c0 97 66 177 192 177h224l-68 -382l170 178h200z" />
    <glyph glyph-name="c_h" horiz-adv-x="1149" 
d="M819 729l-47 -261c49 32 119 68 192 68c120 0 164 -75 143 -188l-61 -348h-165l59 331c8 45 2 78 -46 78c-46 0 -106 -32 -143 -61l-61 -348h-165l116 657h-45c-68 0 -122 -42 -122 -116c0 -20 4 -40 11 -57c17 -8 33 -17 47 -24l-74 -113c-33 17 -87 49 -132 49
c-82 0 -136 -91 -136 -172c0 -57 25 -95 82 -95c42 0 105 29 144 47l54 -126c-53 -22 -148 -61 -235 -61c-122 0 -214 69 -214 220c0 223 136 327 269 327c43 0 81 -7 116 -18c-2 10 -3 21 -3 34c0 97 66 177 192 177h224z" />
    <glyph glyph-name="hinferior" horiz-adv-x="401" 
d="M156 287l-28 -155c32 20 74 40 119 40c76 0 104 -45 92 -116l-37 -206h-111l35 194c5 25 1 42 -27 42s-64 -16 -85 -34l-35 -202h-112l77 437h112z" />
    <glyph glyph-name="brokenbar.sc" horiz-adv-x="242" 
d="M182 332h-110l60 339h110zM106 -101h-110l60 339h110z" />
    <glyph glyph-name="bracketrightsuperior" horiz-adv-x="260" 
d="M210 299h-189l11 62h72l82 465h-72l11 62h189z" />
    <glyph glyph-name="bracketrightinferior" horiz-adv-x="265" 
d="M119 -236h-189l11 62h72l82 465h-72l11 62h189z" />
    <glyph glyph-name="bracketright.sc" horiz-adv-x="347" 
d="M208 -117h-257l15 84h100l112 636h-100l15 85h257z" />
    <glyph glyph-name="bracketleftsuperior" horiz-adv-x="257" 
d="M237 299h-188l104 589h188l-11 -62h-72l-82 -465h72z" />
    <glyph glyph-name="bracketleftinferior" horiz-adv-x="265" 
d="M145 -236h-188l104 589h188l-11 -62h-72l-82 -465h72z" />
    <glyph glyph-name="bracketleft.sc" horiz-adv-x="348" 
d="M250 -117h-258l142 805h258l-15 -85h-101l-112 -636h101z" />
    <glyph glyph-name="bracerightsuperior" horiz-adv-x="274" 
d="M315 625l-10 -62c-57 0 -68 -31 -70 -64l-3 -62c-6 -102 -68 -138 -177 -138h-32l10 61h12c53 0 67 33 69 65l2 53c4 83 42 109 107 117c-61 14 -92 48 -64 124l10 27c11 33 17 82 -40 82h-11l9 60h12c95 0 177 -45 145 -147l-17 -52c-12 -37 -4 -64 48 -64z" />
    <glyph glyph-name="bracerightinferior" horiz-adv-x="279" 
d="M224 90l-10 -62c-57 0 -68 -31 -70 -64l-3 -62c-6 -102 -68 -138 -177 -138h-32l10 61h12c53 0 67 33 69 65l2 53c4 83 42 109 107 117c-61 14 -92 48 -64 124l10 27c11 33 17 82 -40 82h-11l9 60h12c95 0 177 -45 145 -147l-17 -52c-12 -37 -4 -64 48 -64z" />
    <glyph glyph-name="iinferior" horiz-adv-x="206" 
d="M79 -150h-112l56 315h112zM27 199l15 87h115l-14 -87h-116z" />
    <glyph glyph-name="braceright.sc" horiz-adv-x="373" 
d="M356 328l-14 -85c-80 0 -95 -43 -97 -87l-3 -84c-6 -140 -93 -189 -244 -189h-44l14 81h16c76 0 94 46 98 91l3 72c4 115 56 150 148 160c-85 18 -127 65 -90 169l12 38c16 45 23 111 -56 111h-16l13 83h16c133 0 242 -61 199 -202l-22 -71c-15 -50 -6 -87 67 -87z" />
    <glyph glyph-name="braceleftsuperior" horiz-adv-x="272" 
d="M59 563l10 62c59 0 70 31 71 63l4 61c5 103 68 139 176 139h32l-9 -60h-12c-54 0 -68 -33 -69 -66l-3 -53c-5 -83 -41 -110 -107 -118c60 -13 90 -47 64 -122l-9 -28c-11 -33 -17 -81 39 -81h12l-10 -61h-12c-94 0 -175 44 -144 148l15 52c11 37 5 64 -48 64z" />
    <glyph glyph-name="braceleftinferior" horiz-adv-x="280" 
d="M-30 28l10 62c59 0 70 31 71 63l4 61c5 103 68 139 176 139h32l-9 -60h-12c-54 0 -68 -33 -69 -66l-3 -53c-5 -83 -41 -110 -107 -118c60 -13 90 -47 64 -122l-9 -28c-11 -33 -17 -81 39 -81h12l-10 -61h-12c-94 0 -175 44 -144 148l15 52c11 37 5 64 -48 64z" />
    <glyph glyph-name="braceleft.sc" horiz-adv-x="374" 
d="M11 243l15 85c80 0 97 43 98 87l3 84c4 140 93 189 243 189h44l-14 -83h-16c-75 0 -95 -45 -97 -91l-3 -70c-5 -116 -58 -151 -150 -162c86 -18 129 -64 92 -167l-13 -38c-16 -46 -24 -113 56 -113h15l-12 -81h-16c-132 0 -244 61 -200 201l22 72c17 50 7 87 -67 87z" />
    <glyph glyph-name="binferior" horiz-adv-x="406" 
d="M-33 -150l77 437h112l-27 -153c25 17 65 38 111 38c53 0 107 -31 107 -124c0 -121 -64 -205 -157 -205c-53 0 -85 23 -106 39l-5 -32h-112zM193 83c-30 0 -56 -17 -79 -35v1l-16 -87c17 -17 38 -31 63 -31c45 0 72 51 72 107c0 31 -14 45 -40 45z" />
    <glyph glyph-name="bar.sc" horiz-adv-x="242" 
d="M105 -101h-110l136 772h110z" />
    <glyph glyph-name="backslash.sc" horiz-adv-x="430" 
d="M244 -74l-162 722h105l160 -722h-103z" />
    <glyph glyph-name="at.sc" horiz-adv-x="781" 
d="M309 -100c93 0 157 34 157 34l23 -39s-76 -42 -180 -42c-183 0 -292 128 -292 301c0 228 172 409 418 409c234 0 310 -150 304 -283c-4 -88 -40 -309 -213 -309c-88 0 -104 65 -103 101c-33 -27 -80 -54 -139 -54c-64 0 -108 42 -108 103c0 93 72 145 159 145
c42 0 92 -13 117 -18l5 29c8 42 -5 58 -50 58c-35 0 -87 -11 -140 -31l-21 74c68 24 135 39 195 39c100 0 141 -43 123 -143l-23 -122c-12 -67 -19 -115 22 -115c70 0 124 122 127 243c7 98 -44 236 -248 236c-238 0 -376 -168 -376 -363c0 -147 88 -253 243 -253zM433 141
l10 55c-20 4 -54 11 -81 11c-51 0 -74 -29 -74 -66c0 -28 19 -41 44 -41c28 0 65 13 101 41z" />
    <glyph glyph-name="asterisksuperior" horiz-adv-x="284" 
d="M138 575l47 87l-80 -62l-32 85l103 3l-96 36l58 70l56 -86l-16 98l90 -15l-47 -87l80 62l32 -85l-98 -3l91 -36l-58 -69l-54 80l14 -93z" />
    <glyph glyph-name="jinferior" horiz-adv-x="208" 
d="M28 199l15 87h116l-15 -87h-116zM136 165l-52 -294c-16 -90 -22 -130 -176 -161l-25 82c76 24 80 31 87 69l54 304h112z" />
    <glyph glyph-name="asteriskinferior" horiz-adv-x="303" 
d="M60 40l47 87l-80 -62l-32 85l103 3l-96 36l58 70l56 -86l-16 98l90 -15l-47 -87l80 62l32 -85l-98 -3l91 -36l-58 -69l-54 80l14 -93z" />
    <glyph glyph-name="ampersandsuperior" horiz-adv-x="478" 
d="M484 385h-116l-28 31c-39 -23 -84 -38 -136 -38c-91 0 -150 46 -150 110c0 60 52 96 109 125c-23 27 -39 53 -39 87c0 63 58 112 144 112c83 0 132 -45 132 -97c0 -53 -52 -90 -106 -121l48 -53c15 20 28 42 37 65h111c-11 -37 -39 -91 -83 -137zM208 460
c23 0 48 8 71 23l-61 68c-30 -19 -52 -39 -52 -61c0 -13 9 -30 42 -30zM225 698c0 -17 7 -32 18 -47c34 17 59 34 59 57c0 17 -12 27 -35 27c-29 0 -42 -16 -42 -37z" />
    <glyph glyph-name="ampersandinferior" horiz-adv-x="443" 
d="M386 -150h-116l-28 31c-39 -23 -84 -38 -136 -38c-91 0 -150 46 -150 110c0 60 52 96 109 125c-23 27 -39 53 -39 87c0 63 58 112 144 112c83 0 132 -45 132 -97c0 -53 -52 -90 -106 -121l48 -53c15 20 28 42 37 65h111c-11 -37 -39 -90 -83 -136zM110 -75
c23 0 48 9 71 24l-61 67c-30 -18 -52 -38 -52 -61c0 -13 9 -30 42 -30zM127 163c0 -17 7 -32 18 -47c34 17 59 34 59 57c0 17 -13 27 -35 27c-30 0 -42 -16 -42 -37z" />
    <glyph glyph-name="ampersand.sc" horiz-adv-x="640" 
d="M595 0h-159l-39 43c-53 -32 -116 -52 -188 -52c-125 0 -206 62 -206 151c0 81 72 131 150 170c-33 38 -55 73 -55 119c0 86 80 152 198 152c113 0 182 -63 182 -132c0 -71 -70 -122 -146 -165l68 -74c21 28 39 59 51 91h152c-16 -51 -53 -124 -114 -187zM216 101
c32 0 66 12 98 32l-85 95c-45 -27 -77 -54 -77 -83c0 -24 20 -44 64 -44zM233 424c0 -19 12 -39 28 -59c45 23 78 46 78 76c0 16 -11 37 -44 37c-39 0 -62 -28 -62 -54z" />
    <glyph glyph-name="kinferior" horiz-adv-x="380" 
d="M350 165l-137 -129l100 -186h-114l-61 116l-46 -43l-13 -73h-112l77 437h112l-39 -220l97 98h136z" />
    <glyph glyph-name="ksuperior" horiz-adv-x="402" 
d="M442 700l-137 -129l100 -186h-114l-61 116l-46 -44l-13 -72h-112l77 437h112l-39 -220l97 98h136z" />
    <glyph glyph-name="ainferior" horiz-adv-x="417" 
d="M297 -150h-112l5 32c-26 -18 -65 -39 -113 -39c-53 0 -105 31 -105 123c0 122 65 206 159 206c51 0 82 -23 104 -39l6 32h112zM124 -69c31 0 58 19 82 38l15 83c-16 17 -38 31 -61 31c-47 0 -74 -51 -74 -107c0 -30 14 -45 38 -45z" />
    <glyph glyph-name="Zsuperior" horiz-adv-x="427" 
d="M40 385l16 88l251 235h-193l17 97h351l-16 -88l-253 -236h213l-17 -96h-369z" />
    <glyph glyph-name="Zinferior" horiz-adv-x="427" 
d="M-54 -150l16 88l251 235h-193l17 97h351l-16 -88l-253 -236h213l-17 -96h-369z" />
    <glyph glyph-name="Zdotaccent.sc" horiz-adv-x="572" 
d="M483 0h-509l21 120l351 321h-271l23 133h485l-21 -118l-351 -324h295zM280 623l21 128h133l-22 -128h-132z" />
    <glyph glyph-name="Zcaron.sc" horiz-adv-x="572" 
d="M483 0h-509l21 120l351 321h-271l23 133h485l-21 -118l-351 -324h295zM267 613l-82 140h103l61 -70l85 70h118l-131 -140h-154z" />
    <glyph glyph-name="Zacute.sc" horiz-adv-x="572" 
d="M483 0h-509l21 120l351 321h-271l23 133h485l-21 -118l-351 -324h295zM375 613h-143l147 140h190z" />
    <glyph glyph-name="Z.sc" horiz-adv-x="572" 
d="M583 574l-21 -118l-352 -324h296l-24 -132h-508l21 120l350 321h-270l23 133h485z" />
    <glyph glyph-name="linferior" horiz-adv-x="204" 
d="M79 -150h-112l77 437h112z" />
    <glyph glyph-name="Ysuperior" horiz-adv-x="415" 
d="M166 385l29 166l-113 254h124l57 -158l113 158h135l-201 -255l-28 -165h-116z" />
    <glyph glyph-name="lira.onum" horiz-adv-x="528" 
d="M50 274l11 66h41c-9 24 -15 50 -15 81c0 98 72 162 197 162c111 0 194 -55 243 -91l-76 -90c-46 30 -95 51 -138 51c-47 0 -71 -21 -71 -50c0 -22 9 -41 19 -63h168l-11 -66h-135c1 -8 2 -16 2 -25v-6h127l-12 -65h-137c-16 -23 -36 -40 -53 -49h237l-22 -129h-432
l17 104s79 17 112 74h-89l11 65h90c-1 10 -4 21 -7 31h-77z" />
    <glyph glyph-name="lirainferior" horiz-adv-x="373" 
d="M-6 51l8 46h31c-7 18 -12 38 -12 61c0 73 52 119 142 119c84 0 142 -40 179 -67l-57 -66c-33 22 -68 38 -98 38c-33 0 -51 -17 -51 -37c0 -15 8 -31 17 -48h117l-8 -46h-90c1 -6 2 -13 2 -19v-5h85l-9 -45h-95c-15 -17 -33 -28 -42 -37h170l-14 -95h-317l12 76
s60 14 83 56h-65l8 45h65c-1 8 -3 16 -5 24h-56z" />
    <glyph glyph-name="lirasuperior" horiz-adv-x="388" 
d="M96 586l8 46h31c-7 18 -12 38 -12 61c0 73 52 119 142 119c84 0 142 -40 179 -67l-57 -66c-33 22 -68 38 -98 38c-34 0 -51 -17 -51 -37c0 -15 8 -31 17 -48h117l-8 -46h-90c1 -6 2 -13 2 -19v-5h85l-9 -45h-95c-15 -17 -33 -29 -42 -37h170l-14 -95h-317l12 76
s60 13 83 56h-65l8 45h65c-1 8 -3 16 -5 24h-56z" />
    <glyph glyph-name="Yinferior" horiz-adv-x="414" 
d="M71 -150l29 166l-113 254h124l57 -158l113 158h135l-201 -255l-28 -165h-116z" />
    <glyph glyph-name="Ygrave.sc" horiz-adv-x="592" 
d="M163 0l40 226l-156 348h166l81 -221l158 221h184l-276 -345l-40 -229h-157zM460 613h-126l-149 140h173z" />
    <glyph glyph-name="Ydieresis.sc" horiz-adv-x="592" 
d="M163 0l40 226l-156 348h166l81 -221l158 221h184l-276 -345l-40 -229h-157zM188 623l23 128h133l-23 -128h-133zM380 623l23 128h131l-22 -128h-132z" />
    <glyph glyph-name="Yacute.sc" horiz-adv-x="592" 
d="M163 0l40 226l-156 348h166l81 -221l158 221h184l-276 -345l-40 -229h-157zM378 613h-142l148 140h190z" />
    <glyph glyph-name="Y.sc" horiz-adv-x="592" 
d="M163 0l40 228l-156 346h167l81 -220l157 220h185l-277 -347l-40 -227h-157z" />
    <glyph glyph-name="Xsuperior" horiz-adv-x="436" 
d="M99 805h128l50 -138l96 138h141l-173 -207l107 -213h-130l-54 136l-101 -136h-146l181 211z" />
    <glyph glyph-name="Xinferior" horiz-adv-x="436" 
d="M5 270h128l50 -138l96 138h141l-173 -207l107 -213h-130l-54 137l-101 -137h-146l181 211z" />
    <glyph glyph-name="minferior" horiz-adv-x="599" 
d="M130 165l-6 -35c25 19 64 42 106 42c49 0 77 -20 87 -54c23 22 73 54 120 54c73 0 101 -43 89 -112l-37 -210h-111l35 194c5 24 3 42 -24 42c-24 0 -53 -17 -72 -34l-35 -202h-113l36 194c5 24 3 42 -24 42c-24 0 -52 -18 -71 -34l-36 -202h-112l56 315h112z" />
    <glyph glyph-name="X.sc" horiz-adv-x="591" 
d="M58 574h170l72 -194l137 194h193l-240 -283l149 -291h-176l-77 189l-140 -189h-199l249 290z" />
    <glyph glyph-name="Wsuperior" horiz-adv-x="620" 
d="M394 385l-22 261l-115 -261h-114l-49 420h130l11 -258l114 258h96l20 -254l100 254h138l-196 -420h-113z" />
    <glyph glyph-name="Winferior" horiz-adv-x="620" 
d="M300 -150l-22 261l-115 -261h-114l-49 420h130l11 -258l114 258h96l20 -254l100 254h138l-196 -420h-113z" />
    <glyph glyph-name="Wgrave.sc" horiz-adv-x="863" 
d="M475 0l-31 370l-165 -370h-150l-69 574h176l18 -359l159 359h128l28 -357l141 357h188l-270 -574h-153zM593 613h-126l-148 140h172z" />
    <glyph glyph-name="Wdieresis.sc" horiz-adv-x="863" 
d="M475 0l-31 370l-165 -370h-150l-69 574h176l18 -359l159 359h128l28 -357l141 357h188l-270 -574h-153zM326 623l23 128h132l-23 -128h-132zM518 623l23 128h131l-23 -128h-131z" />
    <glyph glyph-name="Wcircumflex.sc" horiz-adv-x="863" 
d="M475 0l-31 370l-165 -370h-150l-69 574h176l18 -359l159 359h128l28 -357l141 357h188l-270 -574h-153zM589 753l82 -140h-104l-61 71l-85 -71h-118l131 140h155z" />
    <glyph glyph-name="Wacute.sc" horiz-adv-x="863" 
d="M475 0l-31 370l-165 -370h-150l-69 574h176l18 -359l159 359h128l28 -357l141 357h188l-270 -574h-153zM516 613h-143l148 140h191z" />
    <glyph glyph-name="W.sc" horiz-adv-x="863" 
d="M475 0l-31 370l-165 -370h-150l-69 574h176l18 -359l159 359h128l28 -357l141 357h188l-270 -574h-153z" />
    <glyph glyph-name="Vsuperior" horiz-adv-x="452" 
d="M221 805l40 -284l137 284h143l-236 -420h-127l-89 420h132z" />
    <glyph glyph-name="Vinferior" horiz-adv-x="452" 
d="M126 270l40 -283l137 283h143l-236 -420h-127l-89 420h132z" />
    <glyph glyph-name="nine.dnom" horiz-adv-x="425" 
d="M80 86c66 0 134 22 168 83c-19 -11 -47 -22 -89 -22c-85 0 -140 51 -140 127c0 82 64 153 181 153c122 0 185 -78 185 -168c0 -149 -122 -266 -300 -266c-56 0 -85 13 -85 13l39 83s18 -3 41 -3zM196 232c34 0 61 17 74 30v5c0 38 -23 67 -66 67c-48 0 -70 -28 -70 -56
c0 -26 18 -46 62 -46z" />
    <glyph glyph-name="nine.numr" horiz-adv-x="426" 
d="M131 366c66 0 133 22 167 83c-19 -11 -47 -22 -89 -22c-84 0 -140 51 -140 127c0 82 65 153 181 153c122 0 186 -78 186 -168c0 -149 -123 -266 -300 -266c-56 0 -86 13 -86 13l39 83s18 -3 42 -3zM246 512c33 0 61 16 74 29v6c0 38 -22 67 -65 67c-49 0 -71 -28 -71 -56
c0 -26 19 -46 62 -46z" />
    <glyph glyph-name="nine.onum" horiz-adv-x="639" 
d="M121 -7c112 0 223 49 276 164c-29 -21 -78 -44 -149 -44c-134 0 -218 87 -218 207c0 135 102 257 286 257c188 0 285 -127 285 -271c0 -251 -196 -451 -474 -451c-87 0 -132 20 -132 20l60 124s29 -6 66 -6zM303 240c59 0 106 36 126 62c0 5 1 11 1 17
c0 64 -38 120 -110 120c-81 0 -119 -59 -119 -112c0 -48 30 -87 102 -87z" />
    <glyph glyph-name="nine.tnum" horiz-adv-x="690" 
d="M168 127c112 0 222 49 276 164c-30 -22 -78 -44 -148 -44c-134 0 -219 87 -219 207c0 135 102 257 287 257c187 0 284 -127 284 -271c0 -251 -196 -451 -474 -451c-86 0 -132 20 -132 20l61 124s28 -6 65 -6zM351 374c57 0 104 34 125 60c0 6 1 12 1 19
c0 64 -37 120 -109 120c-81 0 -120 -59 -120 -112c0 -48 30 -87 103 -87z" />
    <glyph glyph-name="V.sc" horiz-adv-x="635" 
d="M230 574l57 -397l193 397h195l-324 -574h-175l-122 574h176z" />
    <glyph glyph-name="Utilde.sc" horiz-adv-x="634" 
d="M256 616l-66 44c37 54 68 100 128 100c54 0 96 -47 130 -47c12 0 30 6 61 47l66 -44c-37 -55 -68 -100 -128 -100c-54 0 -96 47 -130 47c-12 0 -30 -6 -61 -47zM627 574l-61 -349c-23 -129 -84 -234 -286 -234c-233 0 -262 122 -235 276l54 307h157l-61 -343
c-11 -60 -2 -107 86 -107c87 0 118 47 129 107l60 343h157z" />
    <glyph glyph-name="ninferior" horiz-adv-x="406" 
d="M130 165l-6 -32c32 19 73 39 118 39c76 0 104 -45 92 -116l-36 -206h-112l35 194c5 25 1 42 -27 42c-29 0 -63 -17 -84 -34l-36 -202h-112l56 315h112z" />
    <glyph glyph-name="Usuperior" horiz-adv-x="475" 
d="M517 805l-45 -256c-17 -95 -61 -171 -207 -171c-170 0 -192 90 -172 203l40 224h116l-45 -251c-8 -44 -1 -78 61 -78c63 0 83 34 92 78l44 251h116z" />
    <glyph glyph-name="Uring.sc" horiz-adv-x="634" 
d="M269 718c0 63 52 114 115 114s115 -51 115 -114c0 -64 -52 -115 -115 -115s-115 51 -115 115zM346 718c0 -22 17 -38 38 -38s38 16 38 38c0 21 -17 38 -38 38s-38 -17 -38 -38zM627 574l-61 -349c-23 -129 -84 -234 -286 -234c-233 0 -262 122 -235 276l54 307h157
l-61 -343c-11 -60 -2 -107 86 -107c87 0 118 47 129 107l60 343h157z" />
    <glyph glyph-name="Uogonek.sc" horiz-adv-x="636" 
d="M628 574l-62 -349c-19 -108 -65 -199 -198 -226c-55 -27 -106 -63 -106 -98c0 -32 48 -27 69 -27l-27 -72c-31 0 -149 -8 -149 83c0 46 40 79 97 107c-207 9 -233 127 -207 275l54 307h157l-61 -343c-11 -60 -1 -107 86 -107c88 0 119 47 130 107l60 343h157z" />
    <glyph glyph-name="Umacron.sc" horiz-adv-x="634" 
d="M218 638l17 95h309l-16 -95h-310zM627 574l-61 -349c-23 -129 -84 -234 -286 -234c-233 0 -262 122 -235 276l54 307h157l-61 -343c-11 -60 -2 -107 86 -107c87 0 118 47 129 107l60 343h157z" />
    <glyph glyph-name="numbersign.onum" horiz-adv-x="647" 
d="M277 0l39 118h-106l-39 -118h-117l39 118h-89l17 112h110l38 114h-89l17 112h110l40 118h117l-40 -118h105l40 118h118l-40 -118h91l-18 -112h-111l-38 -114h91l-17 -112h-112l-39 -118h-117zM286 344l-38 -114h106l38 114h-106z" />
    <glyph glyph-name="numbersigninferior" horiz-adv-x="466" 
d="M153 -150l29 86h-75l-29 -86h-86l29 86h-64l12 82h79l28 83h-64l12 83h80l29 86h86l-29 -86h75l29 86h85l-29 -86h66l-12 -83h-81l-28 -83h67l-14 -82h-80l-28 -86h-87zM162 101l-28 -83h75l28 83h-75z" />
    <glyph glyph-name="numbersignsuperior" horiz-adv-x="465" 
d="M253 385l29 86h-75l-29 -86h-86l29 86h-64l12 82h79l28 83h-64l12 83h80l29 86h86l-29 -86h75l29 86h85l-29 -86h66l-12 -83h-81l-28 -83h67l-14 -82h-80l-28 -86h-87zM262 636l-28 -83h75l28 83h-75z" />
    <glyph glyph-name="Uinferior" horiz-adv-x="477" 
d="M424 270l-45 -256c-17 -95 -61 -171 -207 -171c-170 0 -192 90 -172 203l40 224h116l-45 -251c-9 -44 -1 -78 61 -78c63 0 83 34 91 78l45 251h116z" />
    <glyph glyph-name="Uhungarumlaut.sc" horiz-adv-x="634" 
d="M494 613h-99l104 140h146zM310 613h-98l104 140h147zM627 574l-61 -349c-23 -129 -84 -234 -286 -234c-233 0 -262 122 -235 276l54 307h157l-61 -343c-11 -60 -2 -107 86 -107c87 0 118 47 129 107l60 343h157z" />
    <glyph glyph-name="Ugrave.sc" horiz-adv-x="634" 
d="M475 613h-125l-149 140h173zM627 574l-61 -349c-23 -129 -84 -234 -286 -234c-233 0 -262 122 -235 276l54 307h157l-61 -343c-11 -60 -2 -107 86 -107c87 0 118 47 129 107l60 343h157z" />
    <glyph glyph-name="Udieresis.sc" horiz-adv-x="634" 
d="M210 623l21 128h133l-22 -128h-132zM401 623l22 128h133l-23 -128h-132zM627 574l-61 -349c-23 -129 -84 -234 -286 -234c-233 0 -262 122 -235 276l54 307h157l-61 -343c-11 -60 -2 -107 86 -107c87 0 118 47 129 107l60 343h157z" />
    <glyph glyph-name="Ucircumflex.sc" horiz-adv-x="634" 
d="M471 753l82 -140h-104l-61 71l-85 -71h-118l131 140h155zM627 574l-61 -349c-23 -129 -84 -234 -286 -234c-233 0 -262 122 -235 276l54 307h157l-61 -343c-11 -60 -2 -107 86 -107c87 0 118 47 129 107l60 343h157z" />
    <glyph glyph-name="Ubreve.sc" horiz-adv-x="634" 
d="M375 613c-110 0 -164 54 -153 128h100c-4 -25 15 -41 54 -41c47 0 81 16 86 41h100c-14 -79 -81 -128 -187 -128zM627 574l-61 -349c-23 -129 -84 -234 -286 -234c-233 0 -262 122 -235 276l54 307h157l-61 -343c-11 -60 -2 -107 86 -107c87 0 118 47 129 107l60 343h157
z" />
    <glyph glyph-name="Uacute.sc" horiz-adv-x="634" 
d="M399 613h-142l147 140h190zM627 574l-61 -349c-23 -129 -84 -234 -286 -234c-233 0 -262 122 -235 276l54 307h157l-61 -343c-11 -60 -2 -107 86 -107c87 0 118 47 129 107l60 343h157z" />
    <glyph glyph-name="U.sc" horiz-adv-x="636" 
d="M630 574l-62 -349c-23 -129 -83 -234 -286 -234c-232 0 -262 122 -235 276l54 307h157l-61 -343c-11 -60 -1 -107 86 -107c88 0 119 47 130 107l60 343h157z" />
    <glyph glyph-name="Tsuperior" horiz-adv-x="388" 
d="M447 708h-122l-57 -323h-116l57 323h-125l17 97h363z" />
    <glyph glyph-name="oinferior" horiz-adv-x="401" 
d="M158 172c110 0 178 -54 178 -148c0 -97 -61 -181 -185 -181c-109 0 -178 54 -178 148c0 96 62 181 185 181zM147 -72c52 0 74 57 74 96c0 36 -12 63 -59 63c-52 0 -74 -58 -74 -96c0 -36 12 -63 59 -63z" />
    <glyph glyph-name="Tinferior" horiz-adv-x="389" 
d="M353 173h-122l-57 -323h-116l57 323h-125l17 97h363z" />
    <glyph glyph-name="Thorn.sc" horiz-adv-x="607" 
d="M581 313c0 -84 -64 -208 -246 -208h-152l-18 -105h-157l101 574h157l-15 -86h81c168 0 249 -61 249 -175zM420 310c0 39 -40 49 -91 49h-101l-22 -126h99c76 0 115 33 115 77z" />
    <glyph glyph-name="one.dnom" horiz-adv-x="287" 
d="M182 0h-116l58 308l-78 -36l-37 79l138 69h109z" />
    <glyph glyph-name="one.numr" horiz-adv-x="287" 
d="M231 280h-116l57 308l-78 -36l-36 79l138 69h109z" />
    <glyph glyph-name="one.onum" horiz-adv-x="422" 
d="M304 0h-171l74 405l-126 -60l-52 119l215 110h161z" />
    <glyph glyph-name="one.tnum" horiz-adv-x="690" 
d="M15 0l23 141h205l71 390l-145 -67l-52 118l233 118h162l-98 -559h203l-23 -141h-579z" />
    <glyph glyph-name="Tcedilla.sc" horiz-adv-x="530" 
d="M51 -165l44 78c19 -10 37 -11 47 -11c25 0 51 9 51 42c0 25 -13 51 -16 56h-42l78 441h-173l23 133h500l-23 -133h-170l-77 -441h-45c3 -5 25 -38 25 -79c0 -75 -59 -109 -128 -109c-30 0 -67 6 -94 23z" />
    <glyph glyph-name="oneeighth.onum" horiz-adv-x="791" 
d="M393 89c0 53 49 84 100 103c-28 19 -44 41 -44 69c0 50 52 89 143 89c88 0 135 -35 135 -83c0 -36 -32 -63 -73 -83c36 -18 66 -43 66 -86c0 -60 -65 -104 -172 -104c-98 0 -155 37 -155 95zM588 574l-384 -574h-100l384 574h100zM202 230h-92l48 255l-69 -30l-30 64
l116 55h87zM626 104c0 25 -27 39 -54 50c-42 -12 -85 -26 -85 -56c0 -23 24 -35 62 -35c42 0 77 15 77 41zM538 250c0 -18 17 -27 35 -34c32 9 63 18 63 39c0 19 -17 29 -44 29c-32 0 -54 -15 -54 -34z" />
    <glyph glyph-name="onefifth" horiz-adv-x="924" 
d="M528 206l61 214h294l-15 -95h-197l-11 -50c14 3 29 5 46 5c100 0 146 -62 146 -131c0 -80 -64 -156 -186 -156c-95 0 -160 46 -188 69l62 71c26 -18 60 -42 114 -42c40 0 80 16 80 53c0 29 -21 44 -59 44c-34 0 -62 -11 -83 -24zM705 700l-448 -700h-124l448 700h124z
M253 280h-117l58 308l-78 -36l-37 79l138 69h110z" />
    <glyph glyph-name="onefifth.onum" horiz-adv-x="793" 
d="M444 170l51 174h248l-11 -75h-172l-12 -46c14 3 28 5 44 5c85 0 127 -51 127 -107c0 -65 -55 -127 -160 -127c-78 0 -134 37 -158 56l50 56c20 -14 51 -34 98 -34c37 0 74 14 74 46c0 25 -18 38 -54 38c-30 0 -55 -10 -74 -20zM590 574l-384 -574h-100l385 574h99z
M203 230h-92l48 255l-69 -30l-30 64l116 55h87z" />
    <glyph glyph-name="Tcaron.sc" horiz-adv-x="530" 
d="M541 441h-171l-77 -441h-157l77 441h-173l23 133h501zM242 613l-83 140h104l61 -70l85 70h119l-132 -140h-154z" />
    <glyph glyph-name="onehalf.onum" horiz-adv-x="793" 
d="M709 75l-12 -75h-297l6 37c13 79 80 114 143 146c65 34 102 47 101 69c0 14 -15 23 -44 23c-38 0 -75 -16 -107 -32l-36 63c28 15 84 44 153 44c86 0 128 -45 128 -95c0 -69 -81 -106 -147 -136c-54 -24 -67 -30 -71 -44h183zM202 230h-92l48 255l-69 -30l-30 64l116 55
h87zM590 574l-385 -574h-100l385 574h100z" />
    <glyph glyph-name="Tbar.sc" horiz-adv-x="537" 
d="M90 166l15 85h77l34 190h-174l23 133h501l-23 -133h-170l-34 -190h76l-14 -85h-77l-29 -166h-157l29 166h-77z" />
    <glyph glyph-name="T.sc" horiz-adv-x="530" 
d="M540 441h-170l-78 -441h-157l78 441h-173l23 133h500z" />
    <glyph glyph-name="onequarter.onum" horiz-adv-x="776" 
d="M351 61l9 62l211 221h122l-37 -208h55l-10 -75h-58l-10 -61h-94l11 61h-199zM590 574l-385 -574h-100l385 574h100zM202 230h-92l48 255l-69 -30l-30 64l116 55h87zM467 136h96l23 130z" />
    <glyph glyph-name="onesixth" horiz-adv-x="907" 
d="M778 334c-67 0 -135 -23 -169 -85c19 11 47 23 90 23c85 0 140 -51 140 -126c0 -82 -64 -153 -181 -153c-122 0 -185 78 -185 168c0 148 122 266 300 266c56 0 85 -13 85 -13l-39 -83s-18 3 -41 3zM705 700l-447 -700h-124l447 700h124zM252 280h-116l58 308l-78 -36
l-37 79l138 69h109zM662 188c-35 0 -62 -18 -74 -31v-4c0 -38 23 -67 66 -67c48 0 70 28 70 56c0 26 -18 46 -62 46z" />
    <glyph glyph-name="onesixth.onum" horiz-adv-x="776" 
d="M654 277c-61 0 -122 -21 -151 -74c17 10 43 20 82 20c74 0 121 -42 121 -104c0 -67 -54 -125 -154 -125c-104 0 -157 64 -157 139c0 121 105 217 254 217c46 0 72 -10 72 -10l-30 -66s-16 3 -37 3zM591 574l-385 -574h-100l385 574h100zM203 230h-93l48 255l-68 -30
l-31 64l117 55h87zM557 156c-34 0 -61 -16 -71 -28v-1c0 -31 22 -59 62 -59c45 0 66 24 66 48c0 23 -16 40 -57 40z" />
    <glyph glyph-name="Ssuperior" horiz-adv-x="430" 
d="M346 631c47 -20 96 -51 96 -116c0 -74 -64 -137 -177 -137c-86 0 -168 36 -217 69l59 77c41 -23 104 -51 154 -51c31 0 56 12 56 31c0 29 -66 32 -124 57c-47 19 -94 53 -94 116c0 73 60 135 173 135c78 0 150 -31 202 -59l-60 -76c-35 17 -96 40 -138 40
c-27 0 -52 -10 -52 -31c0 -28 58 -27 122 -55z" />
    <glyph glyph-name="Sinferior" horiz-adv-x="430" 
d="M252 96c47 -20 96 -51 96 -116c0 -74 -65 -137 -177 -137c-87 0 -168 36 -217 69l59 77c41 -23 105 -51 154 -51c31 0 56 12 56 31c0 29 -66 32 -124 57c-47 19 -94 53 -94 116c0 73 60 135 173 135c79 0 150 -31 202 -59l-60 -76c-35 17 -96 40 -138 40
c-27 0 -52 -10 -52 -31c0 -28 58 -27 122 -55z" />
    <glyph glyph-name="onethird.onum" horiz-adv-x="785" 
d="M392 50l45 55c41 -23 73 -35 115 -35c44 0 68 14 68 36c0 31 -46 37 -96 37h-15l10 75h19c45 0 94 9 94 34c0 15 -15 23 -40 23c-39 0 -83 -20 -105 -29l-30 61c17 11 74 43 150 43c82 0 119 -37 119 -81c0 -38 -29 -66 -77 -83c38 -12 65 -44 65 -82
c0 -48 -40 -110 -152 -110c-88 0 -148 41 -170 56zM203 230h-92l48 255l-69 -30l-30 64l116 55h87zM590 574l-384 -574h-100l385 574h99z" />
    <glyph glyph-name="Scommaaccent.sc" horiz-adv-x="574" 
d="M145 -183l22 128h119l-15 -142l-118 -107l-24 39l70 82h-54zM393 336c60 -25 133 -66 133 -158c0 -100 -90 -187 -247 -187c-119 0 -229 49 -296 93l82 105c58 -31 143 -69 211 -69c43 0 80 14 80 43c0 39 -88 43 -173 79c-65 28 -128 70 -128 156c0 99 85 185 239 185
c109 0 206 -42 277 -81l-81 -104c-46 23 -125 55 -190 55c-40 0 -75 -13 -75 -41c0 -37 80 -39 168 -76z" />
    <glyph glyph-name="Scircumflex.sc" horiz-adv-x="574" 
d="M445 753l82 -140h-104l-62 71l-84 -71h-119l132 140h155zM392 336c61 -25 134 -66 134 -158c0 -100 -90 -187 -247 -187c-119 0 -229 49 -296 93l81 105c59 -31 143 -69 212 -69c43 0 80 14 80 43c0 39 -88 43 -173 79c-65 28 -128 70 -128 156c0 99 84 185 239 185
c108 0 206 -42 277 -81l-82 -104c-45 23 -125 55 -189 55c-40 0 -75 -13 -75 -41c0 -37 80 -39 167 -76z" />
    <glyph glyph-name="Scedilla.sc" horiz-adv-x="576" 
d="M394 336c60 -25 133 -66 133 -158c0 -96 -82 -179 -226 -186c7 -12 21 -40 21 -73c0 -75 -59 -109 -127 -109c-29 0 -68 6 -95 23l46 78c18 -10 36 -11 46 -11c24 0 51 9 51 42c0 21 -10 43 -15 52c-99 11 -187 52 -244 90l82 105c58 -31 143 -69 211 -69
c43 0 80 14 80 43c0 39 -88 43 -173 79c-65 28 -128 70 -128 156c0 99 85 185 239 185c109 0 206 -42 277 -81l-81 -104c-46 23 -125 55 -190 55c-40 0 -75 -13 -75 -41c0 -37 80 -39 168 -76z" />
    <glyph glyph-name="Scaron.sc" horiz-adv-x="574" 
d="M264 613l-82 140h104l60 -70l86 70h118l-131 -140h-155zM392 336c61 -25 134 -66 134 -158c0 -100 -90 -187 -247 -187c-119 0 -229 49 -296 93l81 105c59 -31 143 -69 212 -69c43 0 80 14 80 43c0 39 -88 43 -173 79c-65 28 -128 70 -128 156c0 99 84 185 239 185
c108 0 206 -42 277 -81l-82 -104c-45 23 -125 55 -189 55c-40 0 -75 -13 -75 -41c0 -37 80 -39 167 -76z" />
    <glyph glyph-name="Sacute.sc" horiz-adv-x="574" 
d="M372 613h-142l147 140h190zM392 336c61 -25 134 -66 134 -158c0 -100 -90 -187 -247 -187c-119 0 -229 49 -296 93l81 105c59 -31 143 -69 212 -69c43 0 80 14 80 43c0 39 -88 43 -173 79c-65 28 -128 70 -128 156c0 99 84 185 239 185c108 0 206 -42 277 -81l-82 -104
c-45 23 -125 55 -189 55c-40 0 -75 -13 -75 -41c0 -37 80 -39 167 -76z" />
    <glyph glyph-name="S.sc" horiz-adv-x="574" 
d="M393 336c60 -25 133 -66 133 -158c0 -100 -90 -187 -247 -187c-119 0 -229 49 -296 93l82 105c58 -31 143 -69 211 -69c43 0 80 14 80 43c0 39 -88 43 -173 79c-65 28 -128 70 -128 156c0 99 85 185 239 185c109 0 206 -42 277 -81l-81 -104c-46 23 -125 55 -190 55
c-40 0 -75 -13 -75 -41c0 -37 80 -39 168 -76z" />
    <glyph glyph-name="Rsuperior" horiz-adv-x="471" 
d="M339 385l-73 153h-56l-27 -153h-116l74 420h193c120 0 176 -47 176 -125c0 -62 -41 -125 -131 -139l77 -156h-117zM392 680c0 30 -26 36 -66 36h-85l-16 -89h86c51 0 81 19 81 53z" />
    <glyph glyph-name="Rinferior" horiz-adv-x="472" 
d="M244 -150l-73 153h-56l-27 -153h-116l74 420h193c120 0 176 -47 176 -125c0 -62 -41 -125 -131 -139l77 -156h-117zM297 145c0 30 -26 36 -66 36h-85l-16 -89h86c51 0 81 19 81 53z" />
    <glyph glyph-name="paragraph.sc" horiz-adv-x="656" 
d="M310 574h137l-128 -726h-127l57 308c-117 0 -213 51 -213 177c0 169 133 241 274 241zM381 -153l128 727h126l-128 -727h-126z" />
    <glyph glyph-name="Rcommaaccent.sc" horiz-adv-x="629" 
d="M383 0l-101 209h-80l-37 -209h-157l101 574h265c165 0 243 -58 243 -166c0 -71 -51 -172 -183 -195l110 -213h-161zM455 405c0 40 -42 48 -93 48h-117l-22 -123h119c72 0 113 28 113 75zM168 -183l21 128h119l-15 -142l-117 -107l-25 39l70 82h-53z" />
    <glyph glyph-name="parenleft.sc" horiz-adv-x="322" 
d="M20 102l67 366c26 139 39 180 243 220l28 -86c-86 -28 -96 -43 -106 -93l-81 -447c-9 -54 -7 -75 57 -101l-39 -78c-186 40 -189 98 -169 219z" />
    <glyph glyph-name="Rcaron.sc" horiz-adv-x="629" 
d="M383 0l-100 209h-81l-37 -209h-157l101 574h266c164 0 243 -58 243 -166c0 -71 -51 -172 -184 -195l110 -213h-161zM305 613l-82 140h105l61 -70l85 70h118l-131 -140h-156zM456 405c0 40 -43 48 -94 48h-117l-22 -123h119c72 0 114 28 114 75z" />
    <glyph glyph-name="Racute.sc" horiz-adv-x="629" 
d="M383 0l-100 209h-81l-37 -209h-157l101 574h266c164 0 243 -58 243 -166c0 -71 -51 -172 -184 -195l110 -213h-161zM456 405c0 40 -43 48 -94 48h-117l-22 -123h119c72 0 114 28 114 75zM414 613h-143l147 140h191z" />
    <glyph glyph-name="R.sc" horiz-adv-x="629" 
d="M383 0l-101 209h-80l-37 -209h-157l101 574h265c165 0 243 -58 243 -166c0 -71 -51 -172 -183 -195l110 -213h-161zM455 405c0 40 -42 48 -93 48h-117l-22 -123h119c72 0 113 28 113 75z" />
    <glyph glyph-name="parenright.sc" horiz-adv-x="320" 
d="M294 468l-67 -366c-24 -138 -36 -180 -242 -219l-27 86c86 27 97 42 106 93l81 446c9 55 7 76 -56 102l37 78c187 -41 191 -99 168 -220z" />
    <glyph glyph-name="f_b.ss01" horiz-adv-x="1026" 
d="M37 405l21 120h71l2 12c23 130 75 192 187 192c70 0 146 -19 203 -39l7 39h164l-46 -259c41 30 105 66 179 66c83 0 167 -50 167 -198c0 -206 -101 -349 -250 -349c-82 0 -133 39 -169 67l-10 -56h-164l100 568c-32 7 -104 20 -146 20c-26 0 -50 -11 -57 -49l-3 -14h125
l-21 -120h-125l-63 -349c-32 -173 -41 -235 -277 -286l-35 124c122 38 127 53 144 149l66 362h-70zM754 405c-49 0 -91 -32 -131 -64l-29 -163c28 -32 66 -57 108 -57c79 0 122 95 122 198c0 54 -24 86 -70 86z" />
    <glyph glyph-name="Qinferior" horiz-adv-x="506" 
d="M216 277c141 0 219 -69 220 -189c1 -60 -26 -178 -131 -225l56 -50l-81 -71l-92 102c-130 5 -202 73 -203 188c-1 76 42 245 231 245zM199 -60c89 0 118 91 118 144c0 60 -27 95 -95 95c-89 0 -118 -91 -118 -145c0 -60 27 -94 95 -94z" />
    <glyph glyph-name="Q.sc" horiz-adv-x="681" 
d="M346 583c195 0 302 -95 302 -259c0 -84 -37 -244 -181 -308l77 -67l-109 -97l-127 139c-181 7 -280 100 -280 258c0 106 59 334 318 334zM324 123c122 0 162 123 162 197c0 82 -37 130 -133 130c-123 0 -163 -124 -163 -197c0 -82 37 -130 134 -130z" />
    <glyph glyph-name="Psuperior" horiz-adv-x="448" 
d="M496 679c0 -76 -56 -155 -177 -155h-111l-25 -139h-116l74 420h178c119 0 177 -47 177 -126zM376 672c0 32 -26 38 -65 38h-71l-16 -92h71c49 0 81 18 81 54z" />
    <glyph glyph-name="percent.onum" horiz-adv-x="892" 
d="M236 583c102 0 167 -52 167 -131c0 -92 -64 -176 -186 -176c-102 0 -167 51 -167 130c0 92 64 177 186 177zM220 362c49 0 71 50 71 80c0 32 -15 54 -58 54c-50 0 -72 -50 -72 -79c0 -33 16 -55 59 -55zM669 298c102 0 167 -51 167 -131c0 -91 -63 -176 -186 -176
c-102 0 -167 51 -167 130c0 93 64 177 186 177zM653 78c49 0 71 50 71 79c0 33 -15 55 -58 55c-50 0 -72 -50 -72 -80c0 -32 16 -54 59 -54zM707 574l-413 -574h-116l412 574h117z" />
    <glyph glyph-name="percentinferior" horiz-adv-x="612" 
d="M134 277c72 0 119 -38 119 -95c0 -68 -47 -130 -136 -130c-74 0 -120 37 -120 94c0 67 47 131 137 131zM120 115c36 0 51 37 51 59c0 23 -11 39 -40 39c-37 0 -53 -37 -53 -59c0 -23 11 -39 42 -39zM445 68c74 0 120 -38 120 -95c0 -67 -47 -130 -137 -130
c-73 0 -119 38 -119 95c0 67 46 130 136 130zM432 -93c36 0 52 36 52 59s-12 39 -42 39c-36 0 -52 -38 -52 -59c0 -23 12 -39 42 -39zM473 270l-303 -427h-86l304 427h85z" />
    <glyph glyph-name="percentsuperior" horiz-adv-x="618" 
d="M203 812c72 0 119 -38 119 -95c0 -68 -47 -130 -136 -130c-74 0 -120 37 -120 94c0 67 47 131 137 131zM189 650c36 0 51 37 51 59c0 23 -11 39 -40 39c-37 0 -53 -37 -53 -59c0 -23 11 -39 42 -39zM514 603c74 0 120 -38 120 -95c0 -67 -47 -130 -137 -130
c-73 0 -119 38 -119 95c0 67 46 130 136 130zM501 442c36 0 52 36 52 59s-12 39 -42 39c-36 0 -52 -38 -52 -59c0 -23 12 -39 42 -39zM542 805l-303 -427h-86l304 427h85z" />
    <glyph glyph-name="Pinferior" horiz-adv-x="448" 
d="M401 144c0 -76 -56 -155 -177 -155h-111l-25 -139h-116l74 420h178c119 0 177 -47 177 -126zM281 137c0 32 -26 38 -65 38h-71l-16 -92h71c49 0 81 18 81 54z" />
    <glyph glyph-name="P.sc" horiz-adv-x="599" 
d="M596 399c0 -84 -63 -209 -246 -209h-151l-34 -190h-157l101 574h236c171 0 251 -62 251 -175zM434 395c0 39 -39 49 -89 49h-102l-22 -126h99c76 0 114 33 114 77z" />
    <glyph glyph-name="Otilde.sc" horiz-adv-x="681" 
d="M346 583c195 0 302 -95 302 -259c0 -106 -59 -334 -318 -334c-195 0 -302 95 -302 259c0 106 59 334 318 334zM324 123c122 0 162 123 162 197c0 82 -37 130 -133 130c-123 0 -163 -124 -163 -197c0 -82 37 -130 134 -130zM283 616l-67 44c38 54 68 100 129 100
c54 0 96 -47 130 -47c12 0 29 6 60 47l67 -44c-38 -55 -68 -100 -129 -100c-54 0 -95 47 -129 47c-12 0 -30 -6 -61 -47z" />
    <glyph glyph-name="Osuperior" horiz-adv-x="506" 
d="M310 812c141 0 219 -69 220 -189c1 -76 -42 -245 -231 -245c-141 0 -219 69 -220 189c-1 76 42 245 231 245zM293 475c89 0 118 91 118 144c0 60 -27 95 -95 95c-89 0 -118 -91 -118 -145c0 -60 27 -94 95 -94z" />
    <glyph glyph-name="Oslashacute.sc" horiz-adv-x="681" 
d="M680 574l-85 -85c35 -42 53 -98 53 -165c0 -106 -59 -334 -318 -334c-80 0 -144 16 -193 45l-36 -35h-106l85 84c-35 42 -52 98 -52 165c0 106 59 334 318 334c78 0 143 -16 191 -45l36 36h107zM324 123c122 0 162 123 162 197c0 20 -3 38 -8 54l-236 -234
c21 -12 48 -17 82 -17zM190 253c0 -20 2 -37 7 -53l235 233c-20 11 -46 17 -79 17c-123 0 -163 -124 -163 -197zM425 613h-143l148 140h190z" />
    <glyph glyph-name="perthousand.onum" horiz-adv-x="1276" 
d="M236 583c102 0 167 -52 167 -131c0 -92 -64 -176 -186 -176c-102 0 -167 51 -167 130c0 92 64 177 186 177zM220 362c49 0 71 50 71 80c0 32 -15 54 -58 54c-50 0 -72 -50 -72 -79c0 -33 16 -55 59 -55zM669 298c102 0 167 -51 167 -131c0 -91 -63 -176 -186 -176
c-102 0 -167 51 -167 130c0 93 64 177 186 177zM653 78c49 0 71 50 71 79c0 33 -15 55 -58 55c-50 0 -72 -50 -72 -80c0 -32 16 -54 59 -54zM707 574l-413 -574h-116l412 574h117zM1055 298c102 0 166 -51 166 -131c0 -91 -63 -176 -186 -176c-102 0 -167 51 -167 130
c0 93 65 177 187 177zM1038 78c50 0 72 50 72 79c0 33 -16 55 -58 55c-50 0 -72 -50 -72 -80c0 -32 16 -54 58 -54z" />
    <glyph glyph-name="Omacron.sc" horiz-adv-x="681" 
d="M346 583c195 0 302 -95 302 -259c0 -106 -59 -334 -318 -334c-195 0 -302 95 -302 259c0 106 59 334 318 334zM324 123c122 0 162 123 162 197c0 82 -37 130 -133 130c-123 0 -163 -124 -163 -197c0 -82 37 -130 134 -130zM244 638l16 95h310l-16 -95h-310z" />
    <glyph glyph-name="peseta.onum" horiz-adv-x="641" 
d="M61 361l7 41h23l31 172h237c168 0 248 -61 250 -172h22l-7 -41h-19c-17 -79 -86 -171 -242 -171h-151l-34 -190h-157l63 361h-23zM257 444l-8 -42h198c-4 33 -41 42 -89 42h-101zM333 318c54 0 90 17 105 43h-196l-8 -43h99z" />
    <glyph glyph-name="pesetainferior" horiz-adv-x="460" 
d="M3 112l5 33h17l22 125h177c119 0 177 -47 178 -125h14l-5 -33h-13c-13 -65 -69 -123 -173 -123h-112l-24 -139h-116l46 262h-16zM146 175l-5 -30h140c-4 25 -29 30 -64 30h-71zM200 83c36 0 63 9 75 29h-140l-5 -29h70z" />
    <glyph glyph-name="pesetasuperior" horiz-adv-x="448" 
d="M95 647l5 33h17l22 125h177c119 0 177 -47 178 -125h14l-5 -33h-13c-13 -65 -69 -123 -173 -123h-112l-24 -139h-116l46 262h-16zM238 710l-5 -30h140c-4 25 -29 30 -64 30h-71zM292 618c36 0 63 9 75 29h-140l-5 -29h70z" />
    <glyph glyph-name="Oinferior" horiz-adv-x="505" 
d="M216 277c141 0 219 -69 220 -189c1 -76 -42 -245 -231 -245c-141 0 -219 69 -220 189c-1 76 42 245 231 245zM199 -60c89 0 118 91 118 144c0 60 -27 95 -95 95c-89 0 -118 -91 -118 -145c0 -60 27 -94 95 -94z" />
    <glyph glyph-name="pinferior" horiz-adv-x="411" 
d="M-59 -272l77 437h112l-6 -31c25 17 63 38 112 38c52 0 107 -31 107 -124c0 -121 -64 -205 -158 -205c-52 0 -83 23 -105 39l-27 -154h-112zM187 83c-30 0 -56 -17 -78 -35l-15 -86c16 -17 38 -31 63 -31c45 0 72 51 72 107c0 31 -16 45 -42 45z" />
    <glyph glyph-name="Ohungarumlaut.sc" horiz-adv-x="681" 
d="M346 583c195 0 302 -95 302 -259c0 -106 -59 -334 -318 -334c-195 0 -302 95 -302 259c0 106 59 334 318 334zM324 123c122 0 162 123 162 197c0 82 -37 130 -133 130c-123 0 -163 -124 -163 -197c0 -82 37 -130 134 -130zM521 613h-98l103 140h147zM337 613h-97l103 140
h147z" />
    <glyph glyph-name="plusinferior" horiz-adv-x="371" 
d="M126 195h85l-18 -104h119l-13 -82h-120l-18 -104h-85l18 104h-120l13 82h121z" />
    <glyph glyph-name="Ograve.sc" horiz-adv-x="681" 
d="M346 583c195 0 302 -95 302 -259c0 -106 -59 -334 -318 -334c-195 0 -302 95 -302 259c0 106 59 334 318 334zM324 123c122 0 162 123 162 197c0 82 -37 130 -133 130c-123 0 -163 -124 -163 -197c0 -82 37 -130 134 -130zM502 613h-125l-149 140h173z" />
    <glyph glyph-name="Odieresis.sc" horiz-adv-x="681" 
d="M346 583c195 0 302 -95 302 -259c0 -106 -59 -334 -318 -334c-195 0 -302 95 -302 259c0 106 59 334 318 334zM324 123c122 0 162 123 162 197c0 82 -37 130 -133 130c-123 0 -163 -124 -163 -197c0 -82 37 -130 134 -130zM237 623l23 128h133l-23 -128h-133zM426 624
l23 128h131l-23 -128h-131z" />
    <glyph glyph-name="Ocircumflex.sc" horiz-adv-x="681" 
d="M346 583c195 0 302 -95 302 -259c0 -106 -59 -334 -318 -334c-195 0 -302 95 -302 259c0 106 59 334 318 334zM324 123c122 0 162 123 162 197c0 82 -37 130 -133 130c-123 0 -163 -124 -163 -197c0 -82 37 -130 134 -130zM499 753l82 -140h-105l-61 71l-84 -71h-119
l131 140h156z" />
    <glyph glyph-name="psuperior" horiz-adv-x="433" 
d="M50 263l77 437h112l-6 -31c25 17 63 38 112 38c52 0 107 -31 107 -124c0 -121 -64 -205 -158 -205c-52 0 -83 22 -105 38l-27 -153h-112zM296 618c-30 0 -56 -17 -78 -35l-15 -86c16 -17 38 -31 63 -31c45 0 72 51 72 107c0 31 -16 45 -42 45z" />
    <glyph glyph-name="Obreve.sc" horiz-adv-x="681" 
d="M346 583c195 0 302 -95 302 -259c0 -106 -59 -334 -318 -334c-195 0 -302 95 -302 259c0 106 59 334 318 334zM324 123c122 0 162 123 162 197c0 82 -37 130 -133 130c-123 0 -163 -124 -163 -197c0 -82 37 -130 134 -130zM401 613c-110 0 -164 54 -152 128h99
c-4 -25 16 -41 54 -41c48 0 82 16 86 41h100c-13 -79 -80 -128 -187 -128z" />
    <glyph glyph-name="qinferior" horiz-adv-x="416" 
d="M275 -272h-112l27 153c-26 -17 -66 -38 -113 -38c-53 0 -105 31 -105 123c0 122 65 206 159 206c50 0 81 -22 103 -38l6 31h112zM124 -69c31 0 58 19 81 37l15 85c-16 17 -38 30 -60 30c-47 0 -74 -51 -74 -107c0 -30 14 -45 38 -45z" />
    <glyph glyph-name="qsuperior" horiz-adv-x="433" 
d="M370 263h-112l27 153c-26 -18 -66 -38 -113 -38c-53 0 -105 31 -105 123c0 122 65 206 159 206c50 0 81 -22 103 -38l6 31h112zM219 466c31 0 58 19 81 37l15 85c-16 17 -38 30 -60 30c-47 0 -74 -51 -74 -107c0 -30 14 -45 38 -45z" />
    <glyph glyph-name="Oacute.sc" horiz-adv-x="681" 
d="M346 583c195 0 302 -95 302 -259c0 -106 -59 -334 -318 -334c-195 0 -302 95 -302 259c0 106 59 334 318 334zM324 123c122 0 162 123 162 197c0 82 -37 130 -133 130c-123 0 -163 -124 -163 -197c0 -82 37 -130 134 -130zM426 613h-143l148 140h191z" />
    <glyph glyph-name="question.sc" horiz-adv-x="484" 
d="M63 0l25 145h152l-25 -145h-152zM474 433c0 -116 -114 -166 -234 -186l-19 -52h-93l16 135c115 18 173 40 173 80c0 23 -21 43 -68 43c-45 0 -94 -19 -136 -40l-52 112c39 20 120 58 220 58c120 0 193 -63 193 -150z" />
    <glyph glyph-name="OE.sc" horiz-adv-x="978" 
d="M887 0h-448l1 6c-32 -10 -69 -16 -110 -16c-195 0 -302 95 -302 259c0 106 59 334 318 334c77 0 140 -15 189 -43l6 34h445l-21 -133h-290l-17 -89h234l-21 -129h-235l-17 -91h290zM324 123c122 0 162 123 162 197c0 82 -37 130 -133 130c-123 0 -163 -124 -163 -197
c0 -82 37 -130 134 -130z" />
    <glyph glyph-name="questiondown.sc" horiz-adv-x="486" 
d="M416 574l-25 -145h-152l25 145h152zM7 141c0 116 114 166 235 186l19 52h92l-15 -135c-116 -18 -173 -40 -173 -81c0 -23 21 -43 67 -43c45 0 94 20 137 41l51 -112c-37 -20 -120 -58 -219 -58c-120 0 -194 63 -194 150z" />
    <glyph glyph-name="questiondowninferior" horiz-adv-x="305" 
d="M245 270l-17 -106h-112l17 106h112zM-55 -47c0 83 84 122 172 136l13 39h69l-12 -100c-85 -13 -128 -18 -128 -56c0 -28 25 -34 50 -34c34 0 68 14 99 30l38 -82c-28 -14 -87 -43 -159 -43c-89 0 -142 46 -142 110z" />
    <glyph glyph-name="questiondownsuperior" horiz-adv-x="341" 
d="M352 805l-17 -106h-112l17 106h112zM52 488c0 83 84 122 172 136l13 39h69l-12 -100c-85 -13 -128 -18 -128 -56c0 -28 26 -34 50 -34c34 0 68 14 99 30l38 -82c-28 -14 -87 -43 -159 -43c-89 0 -142 46 -142 110z" />
    <glyph glyph-name="questioninferior" horiz-adv-x="344" 
d="M-1 -150l17 105h112l-17 -105h-112zM299 167c0 -84 -83 -122 -172 -136l-13 -39h-69l12 99c84 13 128 19 128 56c0 29 -26 35 -51 35c-33 0 -67 -14 -98 -30l-38 82c27 14 87 43 160 43c88 0 141 -46 141 -110z" />
    <glyph glyph-name="questionsuperior" horiz-adv-x="311" 
d="M71 385l17 105h112l-17 -105h-112zM371 702c0 -84 -83 -122 -172 -136l-13 -39h-69l12 99c84 13 128 19 128 56c0 29 -26 35 -51 35c-33 0 -67 -14 -98 -30l-38 82c27 14 87 43 160 43c88 0 141 -46 141 -110z" />
    <glyph glyph-name="O.sc" horiz-adv-x="681" 
d="M346 583c195 0 302 -95 302 -259c0 -106 -59 -334 -318 -334c-195 0 -302 95 -302 259c0 106 59 334 318 334zM324 123c122 0 162 123 162 197c0 82 -37 130 -133 130c-123 0 -163 -124 -163 -197c0 -82 37 -130 134 -130z" />
    <glyph glyph-name="Ntilde.sc" horiz-adv-x="661" 
d="M268 574l158 -361l64 361h158l-101 -574h-159l-159 363l-64 -363h-157l101 574h159zM278 616l-67 44c38 54 68 100 129 100c54 0 96 -47 130 -47c12 0 29 6 61 47l66 -44c-37 -55 -68 -100 -128 -100c-54 0 -96 47 -130 47c-12 0 -30 -6 -61 -47z" />
    <glyph glyph-name="Nsuperior" horiz-adv-x="495" 
d="M341 385l-113 259l-45 -259h-116l74 420h117l113 -259l45 259h115l-73 -420h-117z" />
    <glyph glyph-name="Ninferior" horiz-adv-x="495" 
d="M246 -150l-113 259l-45 -259h-116l74 420h117l113 -259l45 259h115l-73 -420h-117z" />
    <glyph glyph-name="Ncommaaccent.sc" horiz-adv-x="661" 
d="M268 574l158 -361l64 361h158l-101 -574h-160l-158 363l-64 -363h-157l101 574h159zM188 -183l21 128h119l-15 -142l-117 -107l-26 39l71 82h-53z" />
    <glyph glyph-name="Ncaron.sc" horiz-adv-x="661" 
d="M268 574l158 -361l64 361h158l-101 -574h-159l-159 363l-64 -363h-157l101 574h159zM313 613l-82 140h105l60 -70l85 70h118l-130 -140h-156z" />
    <glyph glyph-name="Nacute.sc" horiz-adv-x="661" 
d="M388 0l-159 363l-64 -363h-157l101 574h159l158 -361l64 361h158l-101 -574h-159zM454 613h-142l147 140h191z" />
    <glyph glyph-name="N.sc" horiz-adv-x="661" 
d="M387 0l-158 363l-64 -363h-157l101 574h159l158 -361l64 361h158l-101 -574h-160z" />
    <glyph glyph-name="Msuperior" horiz-adv-x="565" 
d="M412 385l41 234l-113 -164h-60l-54 178l-43 -248h-116l74 420h118l67 -227l158 227h118l-73 -420h-117z" />
    <glyph glyph-name="Minferior" horiz-adv-x="565" 
d="M317 -150l41 234l-113 -164h-60l-54 178l-43 -248h-116l74 420h118l67 -227l158 227h118l-73 -420h-117z" />
    <glyph glyph-name="M.sc" horiz-adv-x="757" 
d="M486 0l59 335l-165 -239h-75l-78 255l-62 -351h-157l101 574h160l95 -310l218 310h162l-101 -574h-157z" />
    <glyph glyph-name="Lsuperior" horiz-adv-x="378" 
d="M382 385h-315l74 420h116l-58 -325h200z" />
    <glyph glyph-name="Lslash.sc" horiz-adv-x="524" 
d="M350 323l-126 -62l-23 -132h277l-22 -129h-435l31 176l-62 -30l23 135l63 31l46 262h157l-31 -176l124 62z" />
    <glyph glyph-name="Linferior" horiz-adv-x="379" 
d="M290 -150h-318l74 420h116l-59 -325h201z" />
    <glyph glyph-name="rinferior" horiz-adv-x="308" 
d="M131 165l-12 -65c11 20 53 74 134 69l-16 -105c-108 0 -141 -111 -141 -111l-21 -103h-112l56 315h112z" />
    <glyph glyph-name="Ldot.sc" horiz-adv-x="511" 
d="M442 0h-434l101 574h157l-79 -445h278zM324 244l22 128h133l-22 -128h-133z" />
    <glyph glyph-name="Lcommaaccent.sc" horiz-adv-x="509" 
d="M442 0h-434l101 574h157l-79 -445h278zM134 -183l22 128h120l-17 -142l-116 -107l-26 39l71 82h-54z" />
    <glyph glyph-name="Lcaron.sc" horiz-adv-x="509" 
d="M442 0h-434l101 574h157l-79 -445h278zM285 446l23 128h119l-16 -142l-117 -107l-25 39l70 82h-54z" />
    <glyph glyph-name="s_h" horiz-adv-x="1164" 
d="M329 323c77 -23 164 -60 164 -161c0 -102 -88 -173 -234 -173c-114 0 -217 44 -276 83l74 107c54 -30 142 -65 204 -65c40 0 63 14 63 33c0 32 -63 41 -122 59c-70 21 -158 57 -158 158c0 96 80 172 222 172c47 0 96 -9 139 -21c-3 12 -4 24 -4 39c0 97 68 175 196 175
h237l-46 -261c49 32 119 68 193 68c118 0 162 -75 141 -188l-61 -348h-165l59 331c8 45 2 78 -45 78s-107 -32 -144 -62l-61 -347h-164l116 657h-61c-71 0 -123 -43 -123 -116c0 -22 4 -40 10 -54c14 -6 26 -12 37 -18l-73 -105c-45 22 -113 48 -171 48
c-39 0 -65 -12 -65 -33c0 -30 51 -36 118 -56z" />
    <glyph glyph-name="s_k" horiz-adv-x="1116" 
d="M1136 525l-219 -214l156 -311h-167l-100 202l-79 -76l-22 -126h-164l116 657h-61c-71 0 -123 -43 -123 -116c0 -22 4 -40 10 -54c14 -6 26 -12 37 -18l-73 -105c-45 22 -113 48 -171 48c-39 0 -65 -12 -65 -33c0 -30 51 -36 118 -56c77 -23 164 -60 164 -161
c0 -102 -88 -173 -234 -173c-114 0 -217 44 -276 83l74 107c54 -30 142 -65 204 -65c40 0 63 14 63 33c0 32 -63 41 -122 59c-70 21 -158 57 -158 158c0 96 80 172 222 172c47 0 96 -9 139 -21c-3 12 -4 24 -4 39c0 97 68 175 196 175h237l-68 -383l171 179h199z" />
    <glyph glyph-name="s_l" horiz-adv-x="816" 
d="M706 0h-164l116 657h-62c-71 0 -123 -43 -123 -116c0 -22 4 -40 10 -54c14 -6 26 -12 37 -18l-73 -105c-45 22 -113 48 -171 48c-39 0 -65 -12 -65 -33c0 -30 51 -36 118 -56c77 -23 164 -60 164 -161c0 -102 -88 -173 -234 -173c-114 0 -217 44 -276 83l74 107
c54 -30 142 -65 204 -65c40 0 63 14 63 33c0 32 -63 41 -122 59c-70 21 -158 57 -158 158c0 96 80 172 222 172c47 0 96 -9 139 -21c-3 12 -4 24 -4 39c0 97 68 175 196 175h238z" />
    <glyph glyph-name="Lacute.sc" horiz-adv-x="509" 
d="M443 0h-435l101 574h157l-78 -445h277zM222 613h-143l148 140h191z" />
    <glyph glyph-name="L.sc" horiz-adv-x="509" 
d="M442 0h-434l101 574h157l-79 -445h278z" />
    <glyph glyph-name="Ksuperior" horiz-adv-x="464" 
d="M67 385l74 420h116l-30 -168l171 168h149l-209 -199l140 -221h-127l-92 146l-61 -58l-15 -88h-116z" />
    <glyph glyph-name="Kinferior" horiz-adv-x="464" 
d="M-28 -150l74 420h116l-30 -168l171 168h149l-209 -199l140 -221h-127l-92 146l-61 -57l-15 -89h-116z" />
    <glyph glyph-name="Kcommaaccent.sc" horiz-adv-x="624" 
d="M8 0l101 574h157l-41 -233l239 233h201l-288 -273l196 -301h-173l-129 201l-85 -80l-21 -121h-157zM166 -183l20 128h119l-15 -142l-117 -107l-25 39l71 82h-53z" />
    <glyph glyph-name="K.sc" horiz-adv-x="624" 
d="M8 0l101 574h157l-41 -233l239 233h201l-288 -273l196 -301h-173l-129 201l-85 -80l-21 -121h-157z" />
    <glyph glyph-name="Jsuperior" horiz-adv-x="219" 
d="M255 805l-65 -375c-16 -90 -23 -130 -178 -162l-27 89c72 20 82 29 88 67l67 381h115z" />
    <glyph glyph-name="Jinferior" horiz-adv-x="219" 
d="M161 270l-65 -375c-16 -90 -23 -130 -178 -162l-27 89c72 20 82 29 88 67l67 381h115z" />
    <glyph glyph-name="semicoloninferior" horiz-adv-x="200" 
d="M-4 28l21 117h112l-20 -117h-113zM-35 -150l21 116h112l-15 -131l-107 -91l-23 36l62 70h-50z" />
    <glyph glyph-name="semicolonsuperior" horiz-adv-x="206" 
d="M92 563l21 117h112l-20 -117h-113zM61 385l21 116h112l-15 -131l-107 -91l-23 36l62 70h-50z" />
    <glyph glyph-name="Jcircumflex.sc" horiz-adv-x="279" 
d="M267 574l-90 -513c-22 -123 -30 -177 -242 -220l-37 121c100 27 111 40 120 91l93 521h156zM296 753l82 -140h-104l-60 71l-86 -71h-118l131 140h155z" />
    <glyph glyph-name="J.sc" horiz-adv-x="279" 
d="M266 574l-90 -513c-21 -123 -29 -177 -242 -220l-36 121c100 27 110 40 119 91l93 521h156z" />
    <glyph glyph-name="seven.dnom" horiz-adv-x="352" 
d="M345 331c0 0 -185 -178 -214 -331h-123c28 150 194 316 203 325h-187l14 95h320z" />
    <glyph glyph-name="seven.numr" horiz-adv-x="352" 
d="M395 611c0 0 -186 -178 -215 -331h-123c28 150 194 316 203 325h-187l14 95h320z" />
    <glyph glyph-name="seven.onum" horiz-adv-x="531" 
d="M544 442c0 0 -299 -301 -347 -568h-181c44 252 301 528 330 559h-304l22 141h502z" />
    <glyph glyph-name="seven.tnum" horiz-adv-x="690" 
d="M646 568c0 0 -299 -301 -347 -568h-181c44 252 301 528 330 559h-304l22 141h502z" />
    <glyph glyph-name="Itilde.sc" horiz-adv-x="279" 
d="M79 616l-66 44c37 54 68 100 128 100c54 0 96 -47 130 -47c12 0 30 6 61 47l66 -44c-37 -55 -68 -100 -128 -100c-54 0 -96 47 -130 47c-12 0 -30 -6 -61 -47zM165 0h-157l101 574h157z" />
    <glyph glyph-name="seveneighths.onum" horiz-adv-x="777" 
d="M384 89c0 53 49 83 100 103c-28 18 -44 40 -44 69c0 50 51 89 143 89c87 0 135 -35 135 -83c0 -36 -32 -63 -73 -83c36 -18 66 -43 66 -86c0 -60 -65 -104 -171 -104c-100 0 -156 37 -156 95zM578 574l-384 -574h-99l384 574h99zM339 503c0 0 -161 -146 -186 -273h-98
c22 121 160 254 174 268h-165l10 76h274zM617 104c0 25 -27 39 -54 50c-42 -12 -85 -26 -85 -56c0 -23 23 -35 62 -35c41 0 77 15 77 41zM528 250c0 -18 19 -28 37 -34c32 9 63 18 63 39c0 19 -19 29 -45 29c-31 0 -55 -15 -55 -34z" />
    <glyph glyph-name="Isuperior" horiz-adv-x="220" 
d="M183 385h-116l74 420h116z" />
    <glyph glyph-name="Iogonek.sc" horiz-adv-x="280" 
d="M53 -99c0 -32 48 -27 70 -27l-27 -72c-31 0 -149 -8 -149 83c0 51 50 86 115 115h-54l101 574h158l-101 -574h-3c-56 -28 -110 -63 -110 -99z" />
    <glyph glyph-name="sinferior" horiz-adv-x="351" 
d="M174 46c47 -13 104 -35 104 -98c0 -60 -53 -105 -147 -105c-74 0 -141 28 -180 52l50 72c34 -19 89 -40 132 -40c20 0 32 5 32 14c0 16 -41 20 -76 29c-46 12 -101 36 -101 97c0 57 49 105 141 105c64 0 129 -23 166 -42l-49 -70c-30 13 -78 29 -114 29
c-20 0 -31 -5 -31 -14c0 -15 33 -18 73 -29z" />
    <glyph glyph-name="Imacron.sc" horiz-adv-x="279" 
d="M165 0h-157l101 574h157zM41 638l16 95h310l-16 -95h-310z" />
    <glyph glyph-name="six.dnom" horiz-adv-x="425" 
d="M312 334c-67 0 -135 -23 -169 -85c19 11 47 23 90 23c85 0 140 -51 140 -126c0 -82 -64 -153 -181 -153c-122 0 -185 78 -185 168c0 148 122 266 300 266c56 0 85 -13 85 -13l-39 -83s-18 3 -41 3zM196 188c-35 0 -62 -18 -74 -31v-4c0 -38 23 -67 66 -67
c48 0 70 28 70 56c0 26 -18 46 -62 46z" />
    <glyph glyph-name="six.numr" horiz-adv-x="426" 
d="M362 614c-67 0 -135 -23 -169 -85c19 11 47 23 90 23c85 0 140 -51 140 -126c0 -82 -64 -153 -181 -153c-122 0 -185 78 -185 168c0 148 122 266 300 266c56 0 85 -13 85 -13l-39 -83s-18 3 -41 3zM246 468c-35 0 -62 -18 -74 -31v-4c0 -38 23 -67 66 -67
c48 0 70 28 70 56c0 26 -18 46 -62 46z" />
    <glyph glyph-name="six.onum" horiz-adv-x="648" 
d="M517 573c-112 0 -224 -50 -277 -165c29 21 78 44 150 44c134 0 218 -86 218 -206c0 -135 -102 -257 -286 -257c-188 0 -285 127 -285 270c0 251 196 452 474 452c87 0 132 -20 132 -20l-60 -124s-29 6 -66 6zM335 326c-59 0 -107 -36 -127 -62v-17
c0 -65 38 -120 110 -120c81 0 119 59 119 111c0 48 -30 88 -102 88z" />
    <glyph glyph-name="six.tnum" horiz-adv-x="690" 
d="M538 573c-112 0 -224 -50 -277 -165c30 21 78 44 149 44c134 0 219 -86 219 -206c0 -135 -102 -257 -287 -257c-187 0 -284 127 -284 270c0 251 196 452 474 452c86 0 132 -20 132 -20l-61 -124s-28 6 -65 6zM355 326c-57 0 -105 -35 -126 -61v-18
c0 -65 37 -120 109 -120c81 0 120 59 120 111c0 48 -30 88 -103 88z" />
    <glyph glyph-name="Iinferior" horiz-adv-x="220" 
d="M88 -150h-116l74 420h116z" />
    <glyph glyph-name="Igrave.sc" horiz-adv-x="279" 
d="M165 0h-157l101 574h157zM299 613h-126l-149 140h173z" />
    <glyph glyph-name="Idieresis.sc" horiz-adv-x="279" 
d="M165 0h-157l101 574h157zM35 623l22 128h132l-23 -128h-131zM226 623l22 128h132l-22 -128h-132z" />
    <glyph glyph-name="slash.sc" horiz-adv-x="443" 
d="M477 648l-404 -722h-117l405 722h116z" />
    <glyph glyph-name="Icircumflex.sc" horiz-adv-x="279" 
d="M166 0h-157l101 574h157zM295 753l82 -140h-105l-60 71l-85 -71h-119l131 140h156z" />
    <glyph glyph-name="spaceinferior" horiz-adv-x="181" 
 />
    <glyph glyph-name="spacesuperior" horiz-adv-x="181" 
 />
    <glyph glyph-name="Ibreve.sc" horiz-adv-x="279" 
d="M197 613c-109 0 -163 54 -152 128h99c-3 -25 16 -41 54 -41c48 0 82 16 86 41h101c-14 -79 -82 -128 -188 -128zM165 0h-157l101 574h157z" />
    <glyph glyph-name="Iacute.sc" horiz-adv-x="279" 
d="M165 0h-157l101 574h157zM222 613h-142l147 140h191z" />
    <glyph glyph-name="sterling.onum" horiz-adv-x="526" 
d="M37 199l15 87h71c-15 39 -37 79 -37 135c0 98 72 162 197 162c112 0 195 -55 243 -91l-76 -90c-45 30 -94 51 -137 51c-48 0 -72 -21 -72 -50c0 -37 29 -69 40 -117h139l-15 -87h-131c-15 -34 -43 -58 -64 -70h237l-22 -129h-433l18 104s98 21 120 95h-93z" />
    <glyph glyph-name="IJ.sc" horiz-adv-x="559" 
d="M546 574l-91 -513c-21 -123 -29 -177 -242 -220l-36 121c100 27 110 40 120 91l93 521h156zM165 0h-157l101 574h157z" />
    <glyph glyph-name="I.sc" horiz-adv-x="279" 
d="M165 0h-157l101 574h157z" />
    <glyph glyph-name="Hsuperior" horiz-adv-x="487" 
d="M332 385l30 173h-149l-30 -173h-116l74 420h116l-27 -152h149l27 152h117l-74 -420h-117z" />
    <glyph glyph-name="Hinferior" horiz-adv-x="486" 
d="M237 -150l30 173h-149l-30 -173h-116l74 420h116l-27 -152h149l27 152h117l-74 -420h-117z" />
    <glyph glyph-name="Hbar.sc" horiz-adv-x="670" 
d="M387 0l41 237h-210l-41 -237h-157l74 420h-64l13 85h66l12 69h157l-12 -69h210l12 69h158l-12 -69h63l-13 -85h-65l-74 -420h-158zM251 420l-10 -54h210l10 54h-210z" />
    <glyph glyph-name="H.sc" horiz-adv-x="647" 
d="M375 0l41 237h-210l-41 -237h-157l101 574h157l-37 -208h210l37 208h158l-101 -574h-158z" />
    <glyph glyph-name="Gsuperior" horiz-adv-x="467" 
d="M336 385l6 36c-33 -25 -70 -43 -115 -43c-84 0 -148 59 -148 172c0 169 103 262 221 262c83 0 148 -35 203 -66l-61 -82c-42 23 -84 43 -128 43c-76 0 -119 -75 -119 -151c0 -58 24 -80 62 -80c45 0 83 26 102 41l5 27h-92l16 89h200l-43 -248h-109z" />
    <glyph glyph-name="three.dnom" horiz-adv-x="409" 
d="M-31 62l57 70c52 -29 88 -43 134 -43c47 0 71 16 71 41c0 36 -52 42 -107 42h-18l13 96h23c49 0 106 8 106 37c0 17 -17 27 -42 27c-45 0 -98 -24 -122 -36l-38 78c22 13 89 53 180 53c96 0 139 -46 139 -99c0 -47 -34 -80 -87 -102c42 -14 71 -52 71 -98
c0 -59 -43 -135 -176 -135c-106 0 -179 51 -204 69z" />
    <glyph glyph-name="three.numr" horiz-adv-x="409" 
d="M19 342l56 70c52 -29 89 -43 134 -43c47 0 72 16 72 41c0 36 -53 42 -108 42h-18l14 96h22c50 0 106 8 106 37c0 17 -17 27 -41 27c-45 0 -98 -24 -122 -36l-39 78c22 13 89 53 180 53c97 0 140 -46 140 -99c0 -47 -35 -80 -87 -102c41 -14 70 -52 70 -98
c0 -59 -43 -135 -176 -135c-106 0 -178 51 -203 69z" />
    <glyph glyph-name="three.onum" horiz-adv-x="613" 
d="M-50 -33l85 106c81 -49 146 -70 207 -70c80 0 126 35 126 84c0 69 -87 83 -173 83h-30l24 142h35c72 0 169 18 169 80c0 30 -24 49 -72 49c-63 0 -144 -35 -189 -59l-55 116c34 21 139 84 277 84c148 0 216 -72 216 -159c0 -78 -55 -137 -144 -174
c67 -22 115 -84 115 -166c0 -97 -71 -223 -280 -223c-162 0 -272 79 -311 107z" />
    <glyph glyph-name="three.tnum" horiz-adv-x="690" 
d="M11 96l84 106c82 -49 147 -70 208 -70c80 0 125 35 125 83c0 70 -86 84 -172 84h-30l23 141h35c72 0 170 18 170 80c0 30 -24 50 -73 50c-62 0 -144 -35 -189 -59l-54 116c33 21 139 84 277 84c148 0 216 -73 216 -159c0 -78 -55 -137 -144 -174c66 -23 115 -85 115 -166
c0 -97 -72 -223 -281 -223c-161 0 -271 78 -310 107z" />
    </font>
</defs>
</svg>
