<svg xmlns="http://www.w3.org/2000/svg" viewBox="0 0 234.91 117.15"><defs><style>.cls-1{fill:#c10230;}</style></defs><g id="Layer_2" data-name="Layer 2"><g id="Layer_1-2" data-name="Layer 1"><path class="cls-1" d="M151.28,117.15l-.85,0H39.57c-1,.05-7.83.25-12.45-4.06-2.74-2.54-4.12-6-4.12-10.44,0-12.26,10.79-15.5,16.5-15.5H151.43c1,0,8.28-.25,13.2,4.36C167.53,94.2,169,98,169,102.63a13.07,13.07,0,0,1-4,9.94C160.54,116.74,153.75,117.15,151.28,117.15Zm-111.78-5H150.66c.06,0,7.11.37,10.91-3.22a8.12,8.12,0,0,0,2.43-6.28c0-3.27-.91-5.72-2.77-7.47-3.56-3.36-9.51-3-9.57-3H39.5c-1.19,0-11.5.38-11.5,10.5,0,3,.82,5.19,2.5,6.77,3.27,3.06,8.77,2.74,8.83,2.74Z"/><path class="cls-1" d="M145.54,58.13H117V19a7.45,7.45,0,0,1,8-7.44l36,2.76V42.67Zm-23.54-5h21.46L156,40.59V19l-31.35-2.42A2.47,2.47,0,0,0,122,19Z"/><path class="cls-1" d="M227.06,94.1,199,89.59l17.12-40.23L231.3,46l-5.88,12.49-1.92.9Zm-21-8.43,15.37,2.46-3.19-31.08Zm13.62-32-1,2.45,3-1.42.77-1.65Z"/><path class="cls-1" d="M168,108.63H55V96.13H168Zm-108-5H163v-2.5H60Z"/><path class="cls-1" d="M79.24,18.18l-5-.3s.21-4.66-2.46-7.47c-1.45-1.53-3.51-2.28-6.29-2.28v-5c4.19,0,7.53,1.3,10,3.88C79.6,11.41,79.26,17.9,79.24,18.18Z"/><path class="cls-1" d="M72,18,67,17.22l2.47.41L67,17.23a4.17,4.17,0,0,0-.43-2.76c-.08-.09-.29-.34-1.1-.34v-5a6.16,6.16,0,0,1,4.92,2.11C72.6,13.81,72,17.62,72,18Z"/><rect class="cls-1" x="63" y="3.21" width="5" height="10.99"/><path class="cls-1" d="M112,84.13H7.26A7.27,7.27,0,0,1,0,76.87V21.35l82-7.43,30,.23V63.28L95.76,60.84a2.48,2.48,0,0,0-2.05.6,2.5,2.5,0,0,0-.86,2l.1,4.14,19,3.52ZM5,25.91v51a2.27,2.27,0,0,0,2.26,2.26H107V75.22l-19-3.5-.2-8.19a7.54,7.54,0,0,1,8.66-7.64L107,57.47V19.11l-24.8-.19Z"/><path class="cls-1" d="M166.68,71.52l-59.68-9V0l30.46,1.54,8.17,2.65L175,6.3V55.22l-5.26,10.53ZM112,58.23l51.92,7.82,1.37-2.59L170,54V11L144.66,9.14,136.54,6.5,112,5.26Z"/><path class="cls-1" d="M219.19,116.71h-.14l-.38,0-40.23-6.59-8.28-29,8.89,15.44,2.76-7.79-.57-1.31,6.09-4.75L223.73,88l.32.14c4.51,2,12.52,8.22,10.55,17.3C232.66,114.37,223.75,116.71,219.19,116.71Zm-36.81-11.06,36.89,6c1.27,0,9-.51,10.44-7.3s-5.83-10.74-7.42-11.53l-33.57-4.94-1.82,1.42,0,.12-4.06,11.44a3.66,3.66,0,0,1-1.29,1.72Z"/><path class="cls-1" d="M75.63,74.11h0L0,73.74V28.8l82,.34v38.6a6.37,6.37,0,0,1-6.37,6.37ZM5,68.76l70.62.35h0a1.37,1.37,0,0,0,1-.4,1.35,1.35,0,0,0,.4-1V34.12l-72-.3Z"/><polygon class="cls-1" points="176.3 101.81 168.02 86.42 99.48 73.83 100.39 68.91 171.29 81.94 180.7 99.45 176.3 101.81"/><polygon class="cls-1" points="182.13 89.42 172.67 72.59 164.88 71.25 165.72 66.32 175.86 68.06 186.49 86.97 182.13 89.42"/><rect class="cls-1" x="108.35" y="79.13" width="47.47" height="5"/></g></g></svg>