<svg xmlns="http://www.w3.org/2000/svg" viewBox="0 0 312.72 60.45"><defs><style>.cls-1{fill:#fff;}</style></defs><g id="Layer_2" data-name="Layer 2"><g id="Layer_1-2" data-name="Layer 1"><path class="cls-1" d="M138.76,41.85V16.16h29.12c6.35,0,9.55-7.86,7.43-16.12h-44a9.79,9.79,0,0,0-9.76,9.76V48.22A9.78,9.78,0,0,0,131.35,58h36.53c6.35,0,9.55-7.86,7.43-16.12Z"/><path class="cls-1" d="M48.34,16.16C54.7,16.16,57.9,8.3,55.78,0H9.8A9.82,9.82,0,0,0,0,9.8V57C9,60,17.21,55,17.21,46.5v-10h25c5.92,0,8.91-7.32,6.94-15H17.21V16.16Z"/><path class="cls-1" d="M228.15,0h-38a9.83,9.83,0,0,0-9.81,9.76V48.17a9.83,9.83,0,0,0,9.81,9.76h38a9.78,9.78,0,0,0,9.75-9.76V9.76A9.78,9.78,0,0,0,228.15,0Zm-8.83,41.85h-20.4V16.21h20.4Z"/><path class="cls-1" d="M77.94,41.85V36.53h26.3c5.93,0,8.91-7.34,6.94-15H77.94V16.16h31.13c6.35,0,9.55-7.86,7.44-16.12h-46A9.81,9.81,0,0,0,60.74,9.8V48.29A9.74,9.74,0,0,0,70.52,58h38.55c6.35,0,9.55-7.86,7.44-16.12Z"/><path class="cls-1" d="M312.72,4.71a4.44,4.44,0,0,1-4.44,4.45,4.39,4.39,0,0,1-4.39-4.42,4.42,4.42,0,1,1,8.83,0Zm-.94,0a3.43,3.43,0,0,0-3.47-3.44,3.47,3.47,0,0,0-3.49,3.47,3.48,3.48,0,0,0,7,0Zm-2.41.59.92,1.41h-1.08l-.68-1.23h-1V6.71h-.93V2.47h1.8c1.12,0,1.74.53,1.74,1.46A1.39,1.39,0,0,1,309.37,5.3Zm-1.81-.57h.87c.53,0,.84-.28.84-.76s-.31-.75-.84-.75h-.87Z"/><path class="cls-1" d="M292.39.29a8.52,8.52,0,0,0-8.6,8.42V28.77L263.17,4.46a11.32,11.32,0,0,0-8.62-4h-.08A11.34,11.34,0,0,0,243,11.68h0V56.94c9,3,17.21-2,17.21-10.52V28.24l26.44,32.21c5.4-2.2,9-4,11.15-6.13a10.7,10.7,0,0,0,3.2-7.9V8.71A8.5,8.5,0,0,0,292.39.29Z"/></g></g></svg>