<svg xmlns="http://www.w3.org/2000/svg" viewBox="0 0 124.8 129.99"><defs><style>.cls-1{fill:#c10230;stroke:#c10230;stroke-miterlimit:10;stroke-width:2px;}</style></defs><g id="Layer_2" data-name="Layer 2"><g id="Layer_1-2" data-name="Layer 1"><g id="oiler"><path class="cls-1" d="M112,100.29a2,2,0,0,0,1-.26l5.67-3.2a2,2,0,0,0,.67-2.87l-14-18.64a5,5,0,0,0-3.53-2.14L83.23,71a.24.24,0,0,1-.19-.35L88.6,58.91a5,5,0,0,0-1-5.68L77.41,43l4.3-4.3.47.46a5,5,0,0,0,7.07,0l.83-.82a5,5,0,0,0,0-7.07L76.42,17.64a5,5,0,0,0-7.07,0l-.83.83a5,5,0,0,0,0,7.07L69,26l-4.3,4.3L45.16,10.77h0L38.74,4.36a11.52,11.52,0,0,0-16.26,0l-21,21a1.5,1.5,0,0,0,2.12,2.13l1.25-1.25L24.6,6.48a8.52,8.52,0,0,1,12,0L43,12.89,31.84,24.09,21.11,34.81a10,10,0,0,0,0,14.15l35,34.95a10,10,0,0,0,7.07,2.93l34.66,0A5,5,0,0,1,101.92,89l8.38,10.39A2,2,0,0,0,112,100.29ZM70.64,20.59l.83-.83a2,2,0,0,1,2.83,0L88,33.42a2,2,0,0,1,0,2.82l-.83.83a2,2,0,0,1-2.83,0L70.64,23.42a2,2,0,0,1,0-2.83Zm.45,7.55,8.49,8.48-4.24,4.25-8.49-8.49ZM97.8,83.86l-34.66,0a7,7,0,0,1-5-2l-35-34.95a7,7,0,0,1,0-9.9L36.46,23.71,45.16,15l7.39,7.39,33,33a2,2,0,0,1,.39,2.27L80.33,69.35A3.24,3.24,0,0,0,82.88,74l18.46,2.19a2,2,0,0,1,1.42.85l0,.06,0,.05,13.29,17.66L112.2,97l-7.88-9.77A8,8,0,0,0,97.8,83.86Z"/><path class="cls-1" d="M116.6,110.47a.49.49,0,0,0-.3-.1.47.47,0,0,0-.3.1c-1.4,1.08-7.2,5.86-7.2,11a7.5,7.5,0,0,0,7.5,7.5h0a7.5,7.5,0,0,0,7.5-7.5C123.8,116.33,118,111.55,116.6,110.47ZM116.3,126a4.5,4.5,0,0,1-4.5-4.5c0-2.51,2.39-5.4,4.5-7.35,2.11,2,4.5,4.84,4.5,7.35A4.5,4.5,0,0,1,116.3,126Z"/></g></g></g></svg>