<svg xmlns="http://www.w3.org/2000/svg" viewBox="0 0 86.58 85.35"><defs><style>.cls-1{fill:none;stroke:#c10230;stroke-miterlimit:10;stroke-width:5px;}</style></defs><g id="Layer_2" data-name="Layer 2"><g id="Layer_1-2" data-name="Layer 1"><circle class="cls-1" cx="43.12" cy="42.28" r="28.72"/><path class="cls-1" d="M49,3.56A29.34,29.34,0,0,0,39.49,9.5a12.8,12.8,0,0,0-2.21,4.06H49Z"/><path class="cls-1" d="M69.92,14.66a29.22,29.22,0,0,0-11-1.78,12.81,12.81,0,0,0-4.33,1.6l8.78,7.7Z"/><path class="cls-1" d="M82.4,34.52a29.23,29.23,0,0,0-8.69-7,12.75,12.75,0,0,0-4.55-.77l3.78,11Z"/><path class="cls-1" d="M79.56,58.44a29.28,29.28,0,0,0-3.2-10.71A12.9,12.9,0,0,0,73,44.52L69.92,55.78Z"/><path class="cls-1" d="M62.09,77.85a29.29,29.29,0,0,0,4.08-10.41,12.74,12.74,0,0,0-.64-4.57l-9.39,6.95Z"/><path class="cls-1" d="M37.28,81.79a29.36,29.36,0,0,0,9.48-6,12.8,12.8,0,0,0,2.2-4H37.28Z"/><path class="cls-1" d="M15.44,70.89a29.28,29.28,0,0,0,11.14.89,12.77,12.77,0,0,0,4.2-1.94l-9.37-7Z"/><path class="cls-1" d="M4.07,48.29A29.22,29.22,0,0,0,12.16,56a12.8,12.8,0,0,0,4.48,1.14L13.76,45.82Z"/><path class="cls-1" d="M6.74,24.29A29.33,29.33,0,0,0,9.92,35a12.76,12.76,0,0,0,3.32,3.21L16.38,27Z"/><path class="cls-1" d="M24.94,7.24a29.35,29.35,0,0,0-4.22,10.35,12.74,12.74,0,0,0,.57,4.59l9.49-6.82Z"/><circle class="cls-1" cx="43.12" cy="42.32" r="7.35"/></g></g></svg>